<?xml version="1.0" encoding="utf-8"?>
<!-- Generator: Adobe Illustrator 27.1.1, SVG Export Plug-In . SVG Version: 6.00 Build 0)  -->
<svg version="1.1" id="Layer_1" xmlns="http://www.w3.org/2000/svg" xmlns:xlink="http://www.w3.org/1999/xlink" x="0px" y="0px"
	 viewBox="0 0 103.67 80.96" style="enable-background:new 0 0 103.67 80.96;" xml:space="preserve">
<style type="text/css">
	.st0{fill:#FFD400;}
	.st1{fill:#010101;}
	.st2{fill:none;}
</style>
<g>
	<g>
		<g>
			<g>
				<g>
					<g>
						<path class="st0" d="M49.37,2.73C49.31,2.71,49.27,2.72,49.37,2.73L49.37,2.73z"/>
						<path class="st0" d="M96.46,28.96c0.01,0.02,0.02,0.03,0.03,0.04c0.07,0,0.13,0,0.18,0.01L96.46,28.96z"/>
						<path class="st0" d="M100.95,36.75c0,0.02,0.01,0.04,0.01,0.06C100.99,36.79,101.03,36.78,100.95,36.75z"/>
						<path class="st0" d="M81.13,15.41c-0.06-0.05-0.1-0.06-0.14-0.06C81.03,15.37,81.08,15.38,81.13,15.41z"/>
						<path class="st0" d="M33.51,0.97c0,0,0.02,0,0.04,0c-0.03-0.01-0.05-0.02-0.09-0.04L33.51,0.97z"/>
						<path class="st0" d="M33.69,0.89c0.19,0.06-0.06,0.08-0.14,0.08c0.2,0.09,0.42,0.11,0.63,0.1
							C34.18,0.98,33.78,0.96,33.69,0.89z"/>
						<path class="st0" d="M4.8,0.73l0.09-0.04C4.85,0.7,4.82,0.72,4.8,0.73z"/>
						<path class="st0" d="M79.4,19.45l-0.11-0.05C79.34,19.43,79.38,19.45,79.4,19.45z"/>
						<path class="st0" d="M9.32,0.75l0.05-0.14C9.32,0.67,9.31,0.71,9.32,0.75z"/>
						<path class="st0" d="M96.67,29.01l0.08,0.02C96.73,29.02,96.7,29.02,96.67,29.01z"/>
						<path class="st0" d="M103.76,44.76c-0.04,0.01-0.07,0.04-0.09,0.07c0,0.01,0,0.02,0,0.02L103.76,44.76z"/>
						<path class="st0" d="M82.17,76.83c0.01,0.01,0.03,0.03,0.04,0.04l0.09-0.16C82.24,76.75,82.2,76.79,82.17,76.83z"/>
						<path class="st0" d="M102.61,56.33c0.01,0.01,0.02,0.04,0.04,0.05c0.11-0.17,0.25-0.68,0.4-1.33l-0.16-0.08
							C102.79,55.43,102.73,55.89,102.61,56.33z"/>
						<path class="st0" d="M93.73,64.79l0.94-0.63c-0.98,1.42-1.91,2.34-2.78,3.19c-0.88,0.85-1.75,1.61-2.83,2.68l0.08-0.16
							c-0.2,0.11-0.22,0.35-0.75,0.85c-0.54,0.48-1.59,1.27-3.92,2.18l-0.02-0.03c-0.14,0.09-0.1,0.15-0.44,0.25l0.83-0.27
							c-0.39,0.34-0.67,0.72-1.25,1.09c-0.14,0.04-0.22,0.01-0.26-0.04c-0.47,0.3-0.95,0.59-1.43,0.88l-0.56,0.05
							c-0.4,0.34,0.03,0.66-1.32,1.05c0.61,0.06-0.53,0.48-0.3,0.55c-0.08,0-0.25,0.01-0.39,0.02c-0.72,0.4-2.1,1.12-2.39,1.43
							c0,0,0.8-0.17,1.74-0.37c0.93-0.19,1.97-0.43,2.44-0.47c-1.1,0.45-0.26,0.17,0,0.17l0.03-0.11c0.66-0.26,0.76-0.08,1.1-0.19
							c-0.01-0.01-0.03-0.03-0.04-0.04l-0.03,0.05c-0.05-0.02-0.04-0.05-0.02-0.08c-0.03-0.03-0.02-0.08,0.16-0.16l-0.02,0.04
							c0.25-0.16,0.71-0.39,0.91-0.48l0.09,0.15c0.3-0.51,3.32-1.37,3.91-1.79c0.72-0.22,1.3-0.95,2.08-1.41
							c1.18-0.82,0.72-0.24,1.39-0.57c0.78-0.48-0.27-0.04,0.01-0.28c0.33-0.16,0.66-0.33,0.99-0.51c-0.47,0.43-0.14,0.28-0.01,0.26
							c0.74-0.58,2.06-1.37,2.03-1.83c1.03-0.78,1.12-0.7,1.52-1.09c-0.17,0.09-0.47,0.32-0.52,0.28c0.46-0.27,0.14-0.2-0.03-0.07
							c0.22-0.33,1.03-0.97,1.74-1.61c0.7-0.65,1.33-1.28,1.22-1.47l0.05,0.04c-0.12-0.32-0.5-0.24-0.31-0.77l0.31-0.22l0.22-0.51
							c0.28-0.26,0.24-0.06,0.27-0.04c0.39-0.81,1.19-1.79,1.73-2.74c-0.4,0.22-0.8,0.43-1.22,0.62c0.62-0.67,1.67-1.98,1.51-2.26
							l0.47-0.39c1.16-1.51,0.31-1.26,0.69-1.89l0.57-0.78l-0.31,0.87c0.43-0.76,0.63-1.11,1.03-1.82l0-0.01
							c-0.03,0.05-0.05,0.07-0.07,0.08l0.03-0.13c-0.09-0.15-0.06-0.64,0.1-1.27c0.25-0.9,0.2-1.64,0.66-3.09
							c-0.08-0.13-0.15-0.27-0.24-0.4l0.24-1.1l0.23,0.01c-0.04,1.11-0.23,3.19-0.56,4.58l0.09,0.05c0.2-0.83,0.27-1.79,0.36-2.34
							c0.08-0.26,0.4-0.94,0.49-0.41l-0.15-0.55c0.11-1.43,0.09-2.15,0.12-2.89c-0.01-0.74,0.04-1.49-0.04-3.02l-0.08,0.28
							c-0.13-0.59-0.32-1.15-0.17-1.35c-0.3-1.79-0.77-3.58-0.92-4.77l-0.34-0.14c-0.12-0.35,0.03-1.03-0.39-1.05l-0.43-0.68
							c-0.2-0.47-0.47-0.68-0.59-1.26l0,0l0,0c-0.01-0.03-0.01-0.07-0.02-0.11l-0.02,0.02c-0.42-1.07-0.2,0.12-0.68-1.1
							c-0.04-0.45-0.51-0.24-0.78-0.81l0-0.73c-0.42-1.08-0.82-1.07-1.73-2.45c-0.34-0.72-0.3-1.23,0.24-0.96
							c-0.71-0.4-0.38-0.14-1.08-0.83c0.03-0.21,0.11-0.14,0.34-0.04c-0.36-0.8-0.41-0.36-0.78-0.89c-0.33,0.01-0.81,0.11-0.95-0.04
							l0.09,0.24c-0.54-0.44-1.05-0.96-1.44-1.66l0.12-0.06l-0.58-0.61l0.1-0.15c-0.27-0.29-0.56-0.57-0.84-0.85l0.08,0.15
							c-0.21-0.19-0.87-0.83-1.16-1.28l0.08-0.05c-0.78-1.31-1.98-1.85-3.25-3.03l0.3,0c-0.31-0.54-0.33,0.12-0.79-0.42l0.14-0.2
							c-0.68-0.17-0.56-0.58-0.81-0.95l-0.06,0.37l-0.56-0.58c-0.6-0.66-0.15-0.67,0.05-0.71c-0.21-0.07-0.41-0.14-0.63-0.19
							l0.08-0.29c-0.56-0.02-0.32-0.31-1.04-0.66c0.02-0.12,0.21-0.05,0.03-0.25l-1.25-0.47l0.72,0.33l-0.32,0.27
							c-0.82-0.24-0.82-0.71-1.36-0.94l0.39,0.13c-0.82-0.45-0.76-0.62-1.14-1c0.09,0.16,0.23,0.39-0.11,0.22
							c-0.24-0.14-0.04-0.2-0.23-0.39c-0.21,0.19-0.84-0.07-1.26-0.53c0.03-0.03,0.06-0.05,0.11-0.05
							c-0.15-0.05-0.26-0.03-0.45-0.23l0.3-0.17l-0.6-0.03c-0.25-0.25-0.79-0.34-0.64-0.49l0.2,0.05c-0.73-0.48-1.44-0.99-2.19-1.44
							l0.09-0.23c-0.39,0.16-1.18-0.82-1.31-0.41c-0.32-0.44-1.77-0.82-1.29-1.09c-1.53-0.79-2.53-0.88-4.33-1.93
							c-0.51-0.68-2.42-1.41-3.66-1.93c-1.24-0.43-2.28-0.72-3.33-1.01c-1.04-0.31-2.1-0.59-3.39-0.92
							c-1.36-1.05-3.89-0.94-5.48-1.67L54.4,3.96c-1.03-0.62-2.82-0.59-4.33-1.23c-0.4,0.02-0.61,0.01-0.7,0
							c0.07,0.03,0.17,0.09,0.18,0.23c-0.43-0.2-1.36-0.24-1.24-0.5l0.12-0.01c0.12-0.27-1.39-0.11-1.85-0.44l0.22,0.35l-0.84-0.2
							l0.24-0.02c-3.8,0.08-5.36-1.09-8.92-0.84c0.5-0.28-0.71,0.11-0.72-0.26C35.71,0.51,34.91,1,34.18,1.07
							c0,0.02-0.01,0.04-0.06,0.06l-1.26-0.14c0.79-0.4-0.94,0.31-0.22-0.03c-3.27-0.57-7.6-0.41-11.4-0.63l0.16,0.12
							c-0.97-0.04-2.17,0.09-2.9-0.11c-0.73-0.19-1.6,0.29-1.89,0.31c-0.8,0.2-1.53-0.2-1.19-0.18c-0.86,0.05-1.66,0.48-2.85,0.3
							c-0.41-0.39-3.24,0.41-3.28-0.02L9.3,0.79C7.78,0.5,6.36,1.05,4.72,0.79c0,0,0.03-0.03,0.09-0.06L1.5,2.11l0.97,1.44l2.9,1.13
							l7.78-0.35c2.07,0.14,4.13,0.3,6.19,0.48c5.01,0.01,10.01,0.14,14.98,0.49l1.09-0.24c2.87,0.82,6.68,0.63,9.73,1.53l0.11-0.27
							c0.88,0.14,0.79,0.3,1,0.38c8.13,1.31,16.44,3.38,22.95,6.9c0.58,0.43,2.53,1.35,2.94,1.76c1.15,0.38,2.23,0.95,3.33,1.51
							c1.07,0.6,2.1,1.28,3.1,1.92l-0.09-0.02l0.95,0.6c0.03,0.05,0.01,0.08-0.03,0.07c0.59,0.26,1.26,0.72,1.92,1.26
							c0.62,0.56,1.29,1.17,1.86,1.68l-0.09-0.03c3.48,2.83,6.62,5.83,9.31,9.2c0.67,0.84,1.28,1.73,1.92,2.6
							c0.6,0.89,1.15,1.82,1.72,2.74c1.09,1.87,1.99,3.83,2.59,5.87c0.44,1.94,0.88,3.92,1.01,6.05c0.1,2.13-0.12,4.4-0.94,6.5
							c-0.23,0.36-0.96,2.71-2.14,4.9C95.45,62.44,93.93,64.43,93.73,64.79z"/>
						<path class="st0" d="M83.32,73.9l0.03-0.02C83.29,73.78,83.27,73.85,83.32,73.9z"/>
						<polygon class="st0" points="99.95,61.97 99.91,62.03 100.18,61.88 						"/>
						<path class="st0" d="M91.28,72.46c0.49-0.36,0.49-0.41,0.4-0.39C91.51,72.21,91.37,72.34,91.28,72.46z"/>
						<path class="st0" d="M79.29,76.32c-0.28,0.12-0.14,0.14,0.05,0.13c0.27-0.15,0.46-0.25,0.46-0.25
							C79.63,76.25,79.45,76.27,79.29,76.32z"/>
						<path class="st0" d="M81.13,77.21l-0.04,0.13C81.24,77.23,81.22,77.21,81.13,77.21z"/>
					</g>
				</g>
			</g>
		</g>
	</g>
	<g>
		<g>
			<g>
				<g>
					<g>
						<path class="st0" d="M77.97,73.32C77.96,73.32,77.97,73.33,77.97,73.32L77.97,73.32z"/>
						<path class="st0" d="M80.04,68.6L80.04,68.6c-0.03-0.03-0.05-0.04-0.07-0.06L80.04,68.6z"/>
						<path class="st0" d="M80.65,68l0.01,0C80.64,67.99,80.63,67.98,80.65,68z"/>
						<path class="st0" d="M79.4,70.42c-0.01,0.01,0,0.01,0.01,0.02C79.4,70.44,79.4,70.43,79.4,70.42z"/>
						<path class="st0" d="M77.59,74.79L77.59,74.79c-0.01,0-0.01,0-0.02,0L77.59,74.79z"/>
						<path class="st0" d="M77.54,74.75c0.03-0.01,0.04,0.02,0.05,0.03c0.05,0,0.06-0.02,0.05-0.05
							C77.58,74.72,77.58,74.76,77.54,74.75z"/>
						<path class="st0" d="M76.87,77.42l-0.02-0.01L76.87,77.42z"/>
						<path class="st0" d="M81.72,71.55l0.01,0.02C81.73,71.56,81.73,71.55,81.72,71.55z"/>
						<path class="st0" d="M77.04,77.03L76.96,77C77,77.01,77.02,77.02,77.04,77.03z"/>
						<path class="st0" d="M79.97,68.54l-0.03-0.02C79.95,68.53,79.96,68.53,79.97,68.54z"/>
						<path class="st0" d="M81.1,67.38c0.02,0.01,0.04,0.02,0.06,0.03l0,0L81.1,67.38z"/>
						<path class="st0" d="M84.37,65.08l-0.03-0.02l0.04,0.05C84.39,65.1,84.38,65.09,84.37,65.08z"/>
						<path class="st0" d="M81.98,66.71l-0.02-0.02c-0.03,0-0.06,0.03-0.1,0.09l0.08,0.06L81.98,66.71z"/>
						<path class="st0" d="M84.56,67.19l-0.23-0.04c0.12-0.33,0.38-0.33,0.42-0.66l0.03,0.04c0.06,0-0.29-0.31,0.44-0.33l0.02,0.01
							c0.01-0.01-0.03-0.04,0.04-0.03l-0.15-0.02c-0.01-0.07-0.06-0.16-0.03-0.22c0.03,0,0.06,0.03,0.09,0.05l0.07-0.14l0.13,0.05
							c-0.03-0.08-0.26-0.24-0.06-0.24c-0.18-0.08-0.05-0.12-0.14-0.17c0.02,0.01,0.06,0.02,0.09,0.03
							c0.03-0.07,0.08-0.22,0.02-0.31c0,0-0.5-0.02-0.72-0.09c0.11-0.05,0-0.04-0.07-0.06l0.03,0.04c-0.08,0.02-0.17-0.05-0.22-0.05
							l0.03,0.02l-0.01-0.01c0.02,0.01,0.03,0.02,0.04,0.03c0.02,0.02,0.04,0.03,0.02,0.04l-0.01-0.01c0,0.03-0.05,0.06-0.07,0.07
							l-0.08-0.06c0.12,0.16-0.44,0.07-0.49,0.12c-0.14-0.03-0.06,0.14-0.17,0.17c-0.11,0.09-0.16-0.04-0.27-0.04
							c-0.1,0.03,0.11,0.06,0.09,0.09l-0.17-0.01c0.03-0.05-0.04-0.07-0.08-0.08c-0.07,0.06-0.3,0.06-0.15,0.2
							c-0.15,0.04-0.22-0.01-0.25,0.02c0.04,0.01,0.09,0,0.12,0.03c-0.1-0.02,0,0.03,0.03,0.03c0.03,0.11-0.52,0.08-0.35,0.23
							l-0.03-0.02c0.13,0.11,0.27,0.18,0.32,0.28l-0.08-0.02l0.03,0.08c-0.06,0-0.09-0.04-0.11-0.06c0.02,0.11-0.13,0.15-0.2,0.22
							l0.43,0.18c-0.13,0.01-0.4,0.01-0.29,0.1l-0.16-0.05c-0.34-0.03,0.04,0.17-0.07,0.17l-0.18-0.02l0.05-0.07
							c-0.12,0.02-0.18,0.02-0.31,0.01l0,0c0.01,0,0.02,0,0.03,0.01l0,0.01c0.06,0.06,0.09,0.12,0.05,0.17
							c-0.07,0.06,0,0.18-0.22,0.19l0.12,0.12l-0.14,0.03l-0.11-0.07c0.06-0.08,0.12-0.26,0.19-0.37l-0.05-0.04
							c-0.04,0.06-0.04,0.17-0.08,0.2c-0.04,0.01-0.19-0.02-0.24-0.11l0.08,0.11c-0.13,0.22-0.12,0.22-0.4,0.36l0.07,0.02
							c0.01,0.07,0.01,0.13-0.09,0.08c-0.1,0.12-0.27,0.22-0.47,0.21l0.12,0.1c-0.03,0.02-0.26-0.06-0.08,0.07l0.02,0.1
							c-0.03,0.03,0.03,0.11-0.08,0.1l0,0l0,0l-0.02,0l0.01,0.01c-0.11,0.05,0.12,0.07-0.02,0.13c-0.12-0.03,0.15,0.14,0.09,0.17
							l-0.23-0.07c-0.17,0.02,0.02,0.16-0.06,0.29c-0.11,0.02-0.3-0.05-0.42-0.18c0.15,0.17,0.1,0.1,0.14,0.22
							c-0.08-0.03-0.09-0.05-0.15-0.11c-0.13,0.02,0.04,0.08,0.01,0.13c0.13,0.1,0.35,0.25,0.35,0.27l0.06,0.01
							c0.04,0.1,0.05,0.18-0.06,0.2l-0.07-0.04l0,0.09l-0.09-0.05l-0.03,0.11l0.03,0c0,0.03-0.01,0.12-0.08,0.14l-0.05-0.03
							c-0.23,0.03-0.08,0.25-0.14,0.4l-0.09-0.08c-0.13-0.01,0.15,0.1,0.07,0.13l-0.13-0.07c0.14,0.14-0.07,0.05-0.15,0.05
							l0.18,0.08l-0.07,0.05c-0.09,0.04-0.24-0.07-0.32-0.13l0.11,0.12l-0.15-0.07c0.15,0.13-0.05,0.02,0.01,0.14
							c-0.06-0.02-0.08-0.06-0.12-0.05l0.15,0.22l-0.06-0.11l0.21,0.12c0.13,0.15-0.07,0.08-0.04,0.16l-0.05-0.07
							c0.01,0.1-0.08,0.06-0.15,0.08c0.05,0.01,0.12,0.02,0.13,0.07c0,0.03-0.08-0.03-0.12-0.02c0.14,0.08,0.19,0.18,0.1,0.19
							c-0.02-0.01-0.04-0.02-0.05-0.03c0.02,0.03,0.05,0.05,0.01,0.06l-0.16-0.1l0.13,0.12c-0.06,0.01,0.04,0.11-0.07,0.05
							l-0.02-0.03l-0.15,0.2l-0.13-0.06c0.17,0.11-0.13,0.08,0.1,0.19c-0.14-0.02,0.01,0.21-0.24,0.05
							c-0.09,0.14,0.11,0.33-0.09,0.45c-0.25-0.04-0.26,0.17-0.34,0.27c-0.01,0.27,0,0.45-0.03,0.71c-0.37,0-0.05,0.39-0.29,0.46
							l0.1,0.09c-0.24,0.01-0.06,0.27-0.31,0.33c0.04,0.06,0.05,0.08,0.05,0.09c0.01,0,0.04,0,0.12,0.03
							c-0.07,0.02-0.04,0.13-0.19,0.06l-0.01-0.02c-0.15-0.07,0.02,0.15-0.13,0.14l0.18,0.04l-0.06,0.06l-0.02-0.03
							c0.24,0.48-0.35,0.42-0.13,0.86c-0.17-0.11,0.07,0.1-0.13,0.03c-0.28-0.02,0,0.17,0.04,0.26c0.01,0,0.02,0.01,0.04,0.02
							l-0.07,0.1c-0.23-0.16,0.18,0.16-0.01,0.02c-0.3,0.22-0.24,0.68-0.45,0.99l0.07,0.01c-0.04,0.08,0,0.22-0.12,0.25
							c-0.13,0.03,0.12,0.2,0.13,0.23c0.09,0.11-0.16,0.1-0.14,0.07c0.01,0.09,0.22,0.24,0.08,0.31c-0.24-0.03,0.13,0.36-0.12,0.29
							l0.02,0.01c-0.22,0.09,0.04,0.31-0.16,0.41c0,0-0.02-0.01-0.03-0.02l0.67,0.52l0.86,0.15l0.75-0.05l0.05-0.71l0.44-0.44
							c0.11-0.44,0.23-0.87,0.36-1.31l-0.15-0.16c0.42-0.13,0.17-0.59,0.51-0.76l-0.15-0.07c0.02-0.08,0.12-0.03,0.15-0.04
							c0.24-0.71,0.37-1.51,0.85-2.04c0.13-0.01,0.16-0.22,0.29-0.21c-0.09-0.29,0.02-0.5,0.14-0.68l0.01,0.02l0.02-0.11
							c0.01,0,0.03,0.01,0.04,0.02c-0.08-0.17,0.14-0.27,0.26-0.36l0.01,0.02c0.42-0.72,0.54-1.55,1.19-2.13
							c0.44-0.18,0.36-0.76,0.8-1C84.16,68.09,84.57,67.3,84.56,67.19z"/>
						<path class="st0" d="M85.17,66L85.17,66C85.23,66.05,85.21,66.03,85.17,66z"/>
						<polygon class="st0" points="82.47,66.37 82.47,66.36 82.38,66.32 						"/>
						<path class="st0" d="M83.16,65.32c-0.05,0.03-0.04,0.04-0.01,0.05C83.16,65.36,83.17,65.34,83.16,65.32z"/>
						<path class="st0" d="M85.34,65.57c0.02-0.02-0.02-0.04-0.07-0.05c-0.01,0.03-0.02,0.05-0.02,0.05
							C85.27,65.57,85.32,65.57,85.34,65.57z"/>
						<path class="st0" d="M84.51,65.06l-0.04-0.04C84.47,65.04,84.49,65.05,84.51,65.06z"/>
					</g>
				</g>
			</g>
		</g>
	</g>
	<g>
		<g>
			<g>
				<g>
					<g>
						<path class="st0" d="M82.15,76.37C82.15,76.37,82.14,76.38,82.15,76.37L82.15,76.37z"/>
						<path class="st0" d="M87.05,76.7C87.05,76.71,87.05,76.7,87.05,76.7c0.01-0.03,0.02-0.06,0.02-0.08L87.05,76.7z"/>
						<path class="st0" d="M87.81,77.01C87.81,77.01,87.81,77.01,87.81,77.01C87.81,77,87.82,76.98,87.81,77.01z"/>
						<path class="st0" d="M85.21,76.8c-0.01,0-0.01,0-0.02,0.01C85.2,76.81,85.2,76.81,85.21,76.8z"/>
						<path class="st0" d="M80.7,76.38C80.7,76.38,80.7,76.38,80.7,76.38c0-0.01,0-0.01,0-0.02L80.7,76.38z"/>
						<path class="st0" d="M80.72,76.33c0.01,0.03-0.01,0.05-0.02,0.05c0.01,0.05,0.03,0.05,0.05,0.04
							C80.76,76.36,80.73,76.37,80.72,76.33z"/>
						<path class="st0" d="M78.08,76.22l0.01-0.02C78.09,76.2,78.08,76.21,78.08,76.22z"/>
						<path class="st0" d="M84.98,79.37c0,0-0.01,0.01-0.01,0.01C84.97,79.39,84.98,79.38,84.98,79.37z"/>
						<path class="st0" d="M78.48,76.32l0.01-0.08C78.49,76.27,78.49,76.29,78.48,76.32z"/>
						<path class="st0" d="M87.08,76.62l0.01-0.03C87.08,76.6,87.08,76.61,87.08,76.62z"/>
						<path class="st0" d="M88.53,77.15c0,0.03,0,0.05,0,0.06c0,0,0,0,0,0L88.53,77.15z"/>
						<path class="st0" d="M92.01,78.9c0-0.01,0-0.02,0-0.03l-0.02,0.06C92,78.92,92.01,78.91,92.01,78.9z"/>
						<path class="st0" d="M89.47,77.62c0-0.01,0.01-0.02,0.01-0.03c-0.01-0.03-0.06-0.04-0.12-0.04l-0.02,0.1L89.47,77.62z"/>
						<path class="st0" d="M90.28,80.12l-0.08-0.22c0.35-0.05,0.48,0.17,0.79,0.04l-0.02,0.04c0.04,0.05,0.12-0.4,0.52,0.21l0,0.02
							c0.02,0,0.02-0.04,0.05,0.02l-0.07-0.13c0.05-0.05,0.11-0.14,0.17-0.14c0.01,0.02,0.01,0.07,0.01,0.1l0.16-0.02l0.03,0.14
							c0.06-0.07,0.07-0.35,0.18-0.18c-0.03-0.2,0.08-0.11,0.07-0.21c0,0.02,0.01,0.06,0.02,0.1c0.08-0.01,0.23-0.05,0.28-0.15
							c0,0-0.25-0.44-0.31-0.66c0.1,0.07,0.03-0.02,0.02-0.09l-0.01,0.05c-0.06-0.05-0.04-0.18-0.07-0.21c0,0.01,0,0.02,0,0.03
							l0.01-0.02c0,0.02,0,0.04-0.01,0.05c0,0.03-0.01,0.05-0.02,0.04l0-0.01c-0.03,0.01-0.07-0.01-0.09-0.02l0.01-0.1
							c-0.07,0.19-0.29-0.33-0.35-0.35c-0.05-0.14-0.15,0.01-0.22-0.06c-0.13-0.05-0.05-0.16-0.1-0.25c-0.07-0.07,0,0.12-0.03,0.12
							l-0.08-0.15c0.06-0.01,0.03-0.07,0.03-0.11c-0.08-0.03-0.19-0.23-0.24-0.03c-0.1-0.11-0.09-0.19-0.14-0.21
							c0.01,0.04,0.04,0.08,0.04,0.12c-0.03-0.1-0.02,0.02-0.01,0.04c-0.08,0.08-0.31-0.41-0.36-0.19l0-0.04
							c-0.04,0.16-0.03,0.33-0.09,0.41l-0.02-0.08l-0.06,0.07c-0.03-0.06,0-0.1,0-0.12c-0.09,0.07-0.19-0.04-0.28-0.07l0.05,0.47
							c-0.07-0.11-0.19-0.34-0.22-0.2l-0.03-0.16c-0.13-0.31-0.13,0.11-0.18,0.02l-0.06-0.18l0.08,0.01
							c-0.07-0.09-0.1-0.15-0.15-0.27c0,0,0,0,0,0c0,0.01,0.01,0.02,0.01,0.03l-0.01,0c-0.02,0.08-0.07,0.13-0.12,0.12
							c-0.08-0.03-0.16,0.08-0.26-0.11l-0.05,0.17l-0.09-0.11l0.02-0.14c0.09,0.02,0.28-0.01,0.4,0l0.01-0.06
							c-0.07-0.01-0.16,0.04-0.21,0.02c-0.02-0.03-0.06-0.18-0.01-0.26l-0.06,0.13c-0.24-0.01-0.25-0.01-0.48-0.19l0.01,0.07
							c-0.05,0.03-0.11,0.07-0.11-0.04c-0.15-0.04-0.3-0.14-0.37-0.33l-0.04,0.16c-0.03-0.01-0.05-0.26-0.09-0.04l-0.08,0.06
							c-0.04-0.02-0.08,0.07-0.12-0.03c0,0,0,0,0,0c0,0,0,0,0,0c0-0.01,0-0.01-0.01-0.02c0,0,0,0.01,0,0.01
							c-0.09-0.08-0.02,0.14-0.12,0.04c-0.02-0.12-0.06,0.2-0.12,0.15l-0.03-0.23c-0.08-0.14-0.13,0.08-0.27,0.07
							c-0.06-0.09-0.07-0.29,0-0.46c-0.09,0.2-0.05,0.13-0.14,0.22c0-0.09,0.01-0.1,0.04-0.18c-0.06-0.11-0.06,0.07-0.11,0.06
							c-0.04,0.16-0.09,0.42-0.1,0.42l0.02,0.05c-0.07,0.08-0.14,0.11-0.2,0.02l0.01-0.08l-0.08,0.03l0.01-0.1l-0.11,0.02l0.01,0.03
							c-0.03,0.01-0.11,0.04-0.15-0.02l0.01-0.06c-0.11-0.2-0.25,0.03-0.4,0.03l0.03-0.12c-0.04-0.12-0.04,0.18-0.09,0.11l0.01-0.15
							c-0.08,0.18-0.07-0.05-0.1-0.13l-0.01,0.19l-0.07-0.05c-0.07-0.07-0.02-0.25,0-0.34l-0.07,0.14l0.01-0.17
							c-0.06,0.19-0.04-0.04-0.12,0.06c0-0.06,0.02-0.1,0-0.13l-0.14,0.22l0.08-0.1l-0.04,0.24c-0.09,0.18-0.09-0.04-0.15,0.02
							l0.04-0.07c-0.09,0.05-0.08-0.06-0.12-0.12c0.01,0.05,0.02,0.12-0.01,0.15c-0.03,0.01,0-0.09-0.02-0.12
							c-0.03,0.16-0.09,0.24-0.14,0.16c0-0.02,0.01-0.05,0.01-0.06c-0.02,0.02-0.03,0.07-0.05,0.02l0.04-0.18l-0.07,0.17
							c-0.02-0.05-0.09,0.07-0.07-0.05l0.02-0.03l-0.23-0.07l0.01-0.15c-0.05,0.2-0.12-0.09-0.14,0.16
							c-0.03-0.14-0.18,0.08-0.12-0.2c-0.15-0.04-0.26,0.22-0.43,0.06c-0.04-0.25-0.23-0.19-0.34-0.23
							c-0.24,0.07-0.4,0.14-0.65,0.19c-0.1-0.35-0.37,0.07-0.5-0.13l-0.06,0.13c-0.08-0.22-0.26,0.02-0.38-0.21
							c-0.04,0.05-0.06,0.07-0.07,0.07c0.01,0.01,0.01,0.03,0.01,0.12c-0.03-0.06-0.13,0-0.1-0.17l0.01-0.02
							c0.03-0.17-0.13,0.06-0.16-0.09l0,0.18l-0.07-0.04l0.02-0.03c-0.38,0.36-0.47-0.23-0.83,0.1c0.07-0.19-0.07,0.1-0.05-0.12
							c-0.05-0.28-0.15,0.04-0.23,0.1c0,0.01,0,0.02-0.01,0.04l-0.11-0.04c0.1-0.26-0.11,0.22-0.02-0.01
							c-0.27-0.24-0.69-0.08-1.02-0.21l0.01,0.07c-0.09-0.02-0.2,0.05-0.26-0.07c-0.05-0.12-0.17,0.16-0.19,0.17
							c-0.09,0.11-0.12-0.14-0.09-0.12c-0.08,0.02-0.18,0.26-0.28,0.14c-0.01-0.23-0.32,0.19-0.29-0.07l0,0.02
							c-0.12-0.2-0.28,0.1-0.41-0.09c0,0,0.01-0.02,0.01-0.04l-0.4,0.75l-0.02,0.88l0.18,0.73l0.73-0.07l0.54,0.34l1.39,0.07
							l0.12-0.18c0.23,0.37,0.63,0.02,0.89,0.3l0.03-0.17c0.08,0,0.07,0.1,0.08,0.14c0.77,0.05,1.59-0.08,2.25,0.22
							c0.05,0.12,0.26,0.08,0.3,0.2c0.25-0.18,0.49-0.15,0.71-0.1l-0.01,0.02l0.11-0.02c0,0.01,0,0.03,0,0.05
							c0.14-0.13,0.31,0.03,0.45,0.11l-0.01,0.02c0.85,0.13,1.68-0.09,2.49,0.25c0.36,0.32,0.86,0,1.29,0.28
							C89.26,80.21,90.19,80.19,90.28,80.12z"/>
						<path class="st0" d="M91.65,80.06L91.65,80.06C91.63,80.13,91.64,80.1,91.65,80.06z"/>
						<polygon class="st0" points="89.99,77.9 90,77.9 89.99,77.8 						"/>
						<path class="st0" d="M91.21,77.98c-0.05-0.03-0.06-0.01-0.05,0.02C91.17,78,91.19,78,91.21,77.98z"/>
						<path class="st0" d="M92.11,79.97c0.03,0.01,0.02-0.03,0.01-0.08c-0.03,0.01-0.05,0.01-0.05,0.01
							C92.08,79.92,92.09,79.96,92.11,79.97z"/>
						<path class="st0" d="M92.1,79l0.02-0.06C92.1,78.95,92.1,78.98,92.1,79z"/>
					</g>
				</g>
			</g>
		</g>
	</g>
</g>
</svg>
