<?xml version="1.0" encoding="utf-8"?>
<!-- Generator: Adobe Illustrator 27.1.1, SVG Export Plug-In . SVG Version: 6.00 Build 0)  -->
<svg version="1.1" id="Layer_1" xmlns="http://www.w3.org/2000/svg" xmlns:xlink="http://www.w3.org/1999/xlink" x="0px" y="0px"
	 viewBox="0 0 36.23 33.41" style="enable-background:new 0 0 36.23 33.41;" xml:space="preserve">
<style type="text/css">
	.st0{fill:#FFFFFF;}
	.st1{fill:#FFD400;}
	.st2{fill:#010101;}
	.st3{fill:none;}
	.st4{fill:#FED519;}
	.st5{fill:#FDFEFE;}
	.st6{fill:#FED419;}
</style>
<g>
	<g>
		<circle class="st0" cx="18.39" cy="16.36" r="16.36"/>
		<g>
			<path d="M33.26,25.4C33.3,25.36,33.3,25.34,33.26,25.4L33.26,25.4z"/>
			<path d="M2.74,25.6c-0.01-0.01-0.01-0.02-0.02-0.03c-0.05,0-0.1,0-0.13-0.01L2.74,25.6z"/>
			<path d="M0.68,19.99c0-0.02,0-0.02,0-0.04C0.66,19.96,0.63,19.96,0.68,19.99z"/>
			<path d="M13.76,32.91c0.05,0.01,0.08,0.01,0.1,0.01C13.82,32.91,13.79,32.91,13.76,32.91z"/>
			<path d="M35.95,15.28c0,0,0,0.01,0.01,0.03c0.01-0.02,0.01-0.04,0.02-0.06L35.95,15.28z"/>
			<path d="M36.03,15.39c-0.02,0.13-0.06-0.03-0.07-0.09c-0.04,0.14-0.04,0.29,0,0.43C36.02,15.73,35.99,15.46,36.03,15.39z"/>
			<path d="M24.92,1.23l0.05,0.02C24.96,1.24,24.94,1.23,24.92,1.23z"/>
			<path d="M13.79,30.95c0.03,0.01,0.05,0.01,0.07,0.02C13.83,30.95,13.81,30.95,13.79,30.95z"/>
			<path d="M27.49,2.5l0.04,0C27.5,2.5,27.49,2.5,27.49,2.5z"/>
			<path d="M2.59,25.56l-0.06-0.02C2.55,25.55,2.57,25.56,2.59,25.56z"/>
			<path d="M0.42,14.48c0.04,0,0.07-0.01,0.09-0.02c0-0.01,0-0.02,0-0.02L0.42,14.48z"/>
			<path d="M19.66,0.07c0,0-0.01,0-0.01-0.01l-0.1,0.01C19.58,0.07,19.61,0.07,19.66,0.07z"/>
			<path d="M3.24,7.59C3.23,7.58,3.23,7.56,3.22,7.55C3.13,7.64,2.93,7.92,2.73,8.3l0.11,0.09C2.96,8.11,3.11,7.86,3.24,7.59z"/>
			<path d="M10.16,3.97C9.94,4.05,9.74,4.16,9.54,4.26c0.78-0.77,1.45-1.22,2.11-1.62c0.65-0.43,1.3-0.76,2.16-1.21l-0.09,0.06
				c0.13-0.04,0.22-0.14,0.65-0.32c0.43-0.19,1.22-0.46,2.78-0.64l0,0.01c0.11-0.02,0.11-0.03,0.32-0.05l-0.54,0.05
				c0.32-0.07,0.6-0.14,1.04-0.2c0.09-0.01,0.12,0.01,0.13,0.01l1.08-0.04l0.33,0.02c0.33-0.01,0.18-0.06,1.06,0.05
				c-0.33-0.07,0.44,0.02,0.33,0c0.06,0.01,0.14,0.02,0.22,0.04c0.52,0.08,1.49,0.31,1.74,0.35c0,0-2-0.53-2.57-0.57
				c0.74,0.1,0.2,0.02,0.05-0.01l-0.05,0c-0.44-0.06-0.44-0.09-0.66-0.12c0,0,0.01,0,0.01,0.01l0.03,0
				c0.02,0.01,0.01,0.01-0.02,0.01c0.01,0.01-0.02,0-0.14,0l0.02,0c-0.22-0.01-0.5-0.01-0.65-0.02l0-0.02
				c-0.33,0-2.24-0.04-2.69,0.02c-0.45,0.02-1,0.15-1.56,0.24c-0.88,0.2-0.46,0.03-0.92,0.09c-0.57,0.09,0.13,0.04-0.09,0.09
				c-0.23,0.02-0.46,0.05-0.69,0.1c0.38-0.13,0.16-0.1,0.08-0.1c-0.56,0.18-1.54,0.3-1.64,0.55c-0.78,0.25-0.82,0.18-1.15,0.31
				c0.12-0.02,0.35-0.08,0.37-0.05c-0.34,0.06-0.14,0.08,0,0.04c-0.42,0.23-2.5,0.9-2.45,1.17L8.13,2.44
				c0.01,0.2,0.26,0.23,0.03,0.51L7.92,3.02L7.69,3.28C7.46,3.37,7.52,3.27,7.51,3.25C7.13,3.68,6.44,4.1,5.93,4.58
				c0.3-0.06,0.61-0.09,0.91-0.12c-0.52,0.27-1.39,0.9-1.34,1.1L5.12,5.69C4.11,6.4,4.76,6.44,4.39,6.74
				C4.21,6.86,4.03,6.97,3.87,7.11c0.1-0.17,0.22-0.33,0.34-0.48c-0.46,0.4-0.6,0.59-0.99,0.92l0,0.01
				c0.03-0.02,0.05-0.04,0.06-0.03L3.24,7.59C3.3,7.71,3.2,8.01,2.99,8.37C2.71,8.9,2.63,9.37,2.06,10.16l0.14,0.31l-0.37,0.63
				l-0.18-0.06c0.11-0.33,0.28-0.81,0.45-1.32C2.32,9.22,2.55,8.71,2.73,8.3L2.67,8.24c-0.24,0.49-0.43,1.08-0.6,1.4
				c-0.12,0.14-0.44,0.5-0.45,0.14l0.06,0.38c-0.29,0.86-0.46,1.29-0.57,1.75C1,12.37,0.76,12.81,0.55,13.75l0.12-0.15
				c0.01,0.39,0.01,0.77-0.15,0.85c-0.15,1.14-0.27,2.34-0.42,3.12l0.24,0.15c0.01,0.24-0.29,0.65,0.03,0.73
				c0.05,0.17,0.12,0.34,0.19,0.5c0.05,0.33,0.21,0.51,0.16,0.91h0l0,0c0,0.02-0.01,0.05-0.01,0.08c0.01,0,0.02-0.01,0.02-0.01
				c0.06,0.76,0.17-0.04,0.28,0.81c-0.07,0.3,0.35,0.22,0.42,0.63l-0.17,0.49c0.13,0.76,0.44,0.8,0.89,1.79
				c0.15,0.51,0.05,0.85-0.31,0.63c0.47,0.32,0.26,0.12,0.68,0.63c-0.05,0.14-0.1,0.09-0.25,0.01c0.16,0.57,0.27,0.26,0.49,0.63
				c0.24,0,0.59-0.04,0.68,0.07l-0.04-0.17c0.34,0.31,0.61,0.71,0.87,1.16l-0.09,0.04l0.38,0.4l-0.08,0.1
				c0.18,0.19,0.34,0.4,0.53,0.58l-0.05-0.1c0.14,0.12,0.59,0.53,0.79,0.82l-0.06,0.04c0.26,0.43,0.62,0.71,1.01,0.97
				c0.39,0.26,0.8,0.53,1.29,0.82l-0.2,0.02c0.25,0.31,0.2-0.09,0.55,0.21l-0.07,0.13c0.46,0.06,0.41,0.33,0.63,0.52l-0.01-0.22
				l0.45,0.28c0.49,0.32,0.2,0.36,0.08,0.4l0.43,0.06L9.8,31.86c0.35-0.03,0.24,0.17,0.77,0.26c0.01,0.07-0.12,0.05,0.03,0.13
				l0.87,0.11l-0.51-0.1l0.15-0.17c0.55,0.04,0.64,0.29,1.02,0.34c-0.09-0.01-0.18,0-0.27-0.02c0.6,0.13,0.6,0.21,0.92,0.34
				c-0.09-0.06-0.23-0.15,0.01-0.11c0.18,0.04,0.07,0.09,0.23,0.15c0.08-0.12,0.5-0.03,0.88,0.08c-0.01,0.02-0.02,0.03-0.05,0.03
				c0.1,0,0.16-0.02,0.33,0.04l-0.13,0.11l0.36-0.06c0.21,0.07,0.55,0.04,0.5,0.11l-0.13,0c0.55,0.13,1.11,0.15,1.67,0.2l0.01,0.09
				c0.18-0.09,0.91,0.09,0.87-0.06c0.31,0.07,1.24-0.07,1.06,0.07c0.55,0.01,0.97-0.12,1.42-0.17c0.45-0.05,0.92-0.15,1.57-0.26
				c0.49,0.04,1.74-0.35,2.54-0.61c1.56-0.6,2.51-1.11,3.96-1.99c0.48-0.21,1-0.59,1.52-0.97c0.48-0.44,0.99-0.86,1.44-1.21
				l0.16-0.27c0.67-0.4,1.28-1.36,2.07-2.11c0.11-0.24,0.17-0.36,0.2-0.41c-0.03,0.04-0.09,0.09-0.17,0.07
				c0.21-0.22,0.5-0.76,0.61-0.65l-0.03,0.07c0.05,0.06,0.17-0.14,0.31-0.39c0.12-0.25,0.26-0.55,0.4-0.67l-0.25,0.09l0.3-0.5
				l-0.04,0.15c0.23-0.59,0.38-1.1,0.55-1.56c0.18-0.46,0.37-0.87,0.5-1.3c0.14-0.42,0.29-0.85,0.39-1.31
				c0.07-0.47,0.11-0.99,0.08-1.59c0.2,0.33-0.07-0.47,0.16-0.49c0.33-0.59-0.02-1.12-0.13-1.59c-0.01,0-0.03,0-0.05-0.03
				l-0.04-0.85c0.36,0.48-0.32-0.59-0.01-0.15c0.02-2.25-1.18-5.02-2.6-7.08l0.02,0.12c-0.35-0.46-0.59-0.78-1.16-1.52
				c-0.28-0.4-0.78-0.72-0.92-0.84c-0.43-0.32-0.68-0.72-0.52-0.56c-0.41-0.38-0.89-0.62-1.46-1.12c-0.13-0.26-1.76-1.11-1.72-1.19
				l-0.01,0c-0.83-0.5-1.66-0.88-2.62-1.3c0,0,0.03,0.01,0.05,0.02c-0.66-0.26-1.35-0.4-2.02-0.61l0.53,0.3
				c0.56,0.22,1.12,0.45,1.63,0.77c1.47,0.69,2.77,1.69,3.86,2.85c0.87,0.94,1.49,2.07,2.03,3.18c0.66,1.36,1.14,2.74,1.49,4.14
				c0.32,1.41,0.49,2.82,0.55,4.25l0.21,0.62c-0.41,1.65-0.33,3.89-1.18,5.58l0.14,0.1c-0.17,0.5-0.25,0.42-0.32,0.53
				c-0.8,2.31-2.28,4.51-4.24,6.13c-1.94,1.65-4.38,2.55-6.66,2.83c-0.44,0.06-1.79,0.11-2.14,0.06c-1.48,0.03-3.05-0.23-4.43-0.75
				l0.06,0c-0.22-0.05-0.44-0.14-0.65-0.23c-0.02-0.02-0.02-0.04,0-0.04c-0.76-0.17-1.82-0.84-2.56-1.4l0.05,0.02
				C9.04,28.03,7.19,26.21,5.89,24c-1.34-2.17-1.97-4.75-1.86-7.32c0.25-1.19,0.26-2.46,0.57-3.76c0.09-0.66,0.34-1.3,0.53-1.95
				c0.28-0.62,0.53-1.27,0.95-1.81C6.28,9,6.98,7.68,7.93,6.49C8.85,5.28,9.97,4.16,10.16,3.97z"/>
			<path d="M18.1,0.34l-0.02,0C18.08,0.36,18.11,0.35,18.1,0.34z"/>
			<polygon points="5.9,4.61 5.93,4.58 5.73,4.61 			"/>
			<path d="M13.35,0.35c-0.38,0.07-0.39,0.11-0.33,0.1C13.13,0.42,13.2,0.4,13.35,0.35z"/>
			<path d="M21.12,0.41c0.19,0.02,0.12,0.01,0.01-0.01c-0.2-0.02-0.34-0.03-0.34-0.03C20.88,0.38,21.03,0.4,21.12,0.41z"/>
			<path d="M20.35,0.17l0.06,0C20.29,0.15,20.3,0.16,20.35,0.17z"/>
		</g>
	</g>
	<g>
		<path d="M19.41,21.69c0,0-0.01-0.01-0.01-0.01c-0.05,0.04-0.1,0.09-0.15,0.13c0.01,0.01,0.02,0.02,0.04,0.03
			C19.32,21.79,19.36,21.74,19.41,21.69z"/>
		<path d="M16.09,24.49c-0.02,0.01-0.05,0.02-0.06,0.04c0,0.01,0.02,0.04,0.03,0.07c-0.01,0.02-0.03,0.05-0.04,0.08
			c0.04-0.02,0.1-0.1,0.08-0.12c-0.01,0-0.02,0-0.04,0C16.08,24.53,16.08,24.51,16.09,24.49z"/>
		<path d="M16.02,24.71c-0.01,0.01-0.02,0.03-0.03,0.03c-0.05,0-0.05,0.03-0.05,0.07c0.05-0.04,0.09-0.07,0.13-0.11
			c0,0-0.01-0.01-0.01-0.01C16.04,24.7,16.03,24.7,16.02,24.71z"/>
		<path d="M19.29,21.72c0-0.01-0.01-0.01-0.01-0.02c-0.02,0.01-0.03,0.03-0.05,0.04c0,0.01,0.01,0.01,0.01,0.02
			C19.26,21.74,19.27,21.73,19.29,21.72z"/>
		<path d="M13.64,22.14C13.64,22.15,13.64,22.15,13.64,22.14c0.03-0.02,0.06-0.05,0.09-0.08c0,0-0.01-0.01-0.01-0.01
			C13.69,22.08,13.66,22.11,13.64,22.14z"/>
		<path d="M19.08,21.92c0.02-0.03,0.04-0.05,0.07-0.08c0,0-0.01-0.01-0.01-0.01c-0.02,0.03-0.04,0.05-0.06,0.08
			C19.08,21.91,19.08,21.92,19.08,21.92z"/>
		<polygon points="9.7,17.41 9.69,17.4 9.69,17.4 		"/>
		<path d="M19.9,22.78c0.09,0.1,0.18,0.19,0.27,0.29c0,0,0,0-0.01,0.01c-0.01,0-0.03-0.01-0.04-0.01c0,0,0,0.01-0.01,0.01
			c0.02,0.02,0.05,0.04,0.07,0.06c0-0.01,0-0.02,0-0.04c0.04,0.04,0.07,0.08,0.1,0.11c0,0,0.01-0.01,0.01-0.01
			c-0.13-0.14-0.26-0.28-0.39-0.43C19.91,22.77,19.91,22.77,19.9,22.78z"/>
		<path d="M23.29,25.05c-0.02-0.01-0.04-0.03-0.06-0.04c-0.01,0.02-0.02,0.03-0.02,0.05c0.03,0.02,0.07,0.04,0.09,0.07
			c0.03,0.04,0.07,0.04,0.11,0.05c-0.01-0.02-0.02-0.04-0.03-0.05C23.35,25.09,23.32,25.07,23.29,25.05z"/>
		<path d="M23.53,27.27c0.02,0.02,0.04,0.04,0.06,0.06c-0.01,0.01-0.02,0.01-0.03,0.01c0.07,0.05,0.14,0.11,0.21,0.16
			C23.76,27.46,23.57,27.27,23.53,27.27z"/>
		<path d="M10.57,19.09c0.12,0.11,0.25,0.23,0.37,0.34c0,0,0.01-0.01,0.01-0.01c-0.12-0.12-0.25-0.23-0.37-0.35
			C10.58,19.08,10.57,19.08,10.57,19.09z"/>
		<path d="M20.32,28.57c0.03,0.04,0.08,0.04,0.11,0.01c-0.07-0.04-0.14-0.09-0.21-0.12C20.26,28.49,20.29,28.53,20.32,28.57z"/>
		<path d="M19.51,22.34c-0.01,0-0.02,0-0.03,0c0.08,0.08,0.16,0.16,0.24,0.24c-0.04-0.05-0.09-0.12-0.13-0.18
			C19.56,22.38,19.53,22.36,19.51,22.34z"/>
		<path d="M21.22,28.82c0,0,0.01,0,0.01,0c0.01-0.03,0.01-0.07,0.02-0.11c-0.03,0-0.05-0.01-0.09-0.01
			C21.19,28.74,21.21,28.78,21.22,28.82z"/>
		<path d="M10.95,19.31c0.06,0.06,0.1,0.12,0.15,0.17C11.09,19.41,11.01,19.33,10.95,19.31z"/>
		<path d="M18.22,26.33c-0.02-0.02-0.04-0.04-0.06-0.06c0,0-0.01,0.01-0.01,0.01c0.05,0.05,0.1,0.1,0.15,0.15
			c0,0,0.01-0.01,0.01-0.01c0-0.01-0.01-0.04-0.01-0.04C18.26,26.39,18.25,26.35,18.22,26.33z"/>
		<path d="M10.76,19.05c0.02-0.06-0.03-0.06-0.05-0.08c0,0-0.01,0.01-0.01,0.01c0.04,0.05,0.09,0.11,0.13,0.16
			c0.01-0.01,0.02-0.01,0.02-0.02c-0.02-0.02-0.05-0.04-0.07-0.06C10.77,19.06,10.76,19.06,10.76,19.05z"/>
		<path d="M17.08,25.11c0.07,0.05,0.14,0.1,0.21,0.15c0,0,0.01-0.01,0.01-0.01C17.23,25.2,17.16,25.15,17.08,25.11
			C17.08,25.1,17.08,25.1,17.08,25.11z"/>
		<path d="M10.53,19.04c-0.06-0.06-0.12-0.12-0.18-0.18C10.35,18.89,10.48,19.03,10.53,19.04z"/>
		<path d="M9.45,17.26c0.08,0.05,0.16,0.09,0.23,0.14C9.62,17.34,9.55,17.28,9.45,17.26z"/>
		<polygon points="9.69,17.4 9.69,17.4 9.69,17.4 		"/>
		<path d="M19.83,22.76c0.01,0.02,0.02,0.05,0.03,0.05c0.04,0,0.04,0.03,0.05,0.05c0,0.01,0.01,0.02,0.02,0.03
			C19.93,22.82,19.89,22.78,19.83,22.76z"/>
		<path d="M21.33,28.76c0.02,0.03,0.04,0.06,0.07,0.09c0.01-0.02,0.01-0.03,0.02-0.04C21.38,28.8,21.39,28.73,21.33,28.76z"/>
		<path d="M10.93,19.27c-0.01-0.06-0.04-0.08-0.09-0.09c0,0-0.01,0.01-0.01,0.01C10.87,19.22,10.9,19.24,10.93,19.27z"/>
		<path d="M12.64,20.88c0.03,0.03,0.06,0.07,0.09,0.1C12.72,20.91,12.68,20.87,12.64,20.88z"/>
		<path d="M22.74,28.1c0.01,0.02,0.02,0.05,0.03,0.07c0-0.01,0-0.02,0-0.02c0.01,0.01,0.03,0.02,0.04,0.02c0,0,0,0,0-0.01
			c-0.02-0.02-0.05-0.05-0.07-0.07C22.74,28.09,22.74,28.1,22.74,28.1z"/>
		<path d="M15.13,17.7c-0.03-0.03-0.06-0.06-0.09-0.11C15.03,17.67,15.1,17.66,15.13,17.7z"/>
		<path d="M17.74,25.73c0.04,0.03,0.08,0.06,0.13,0.1c0,0,0.01-0.01,0.01-0.01C17.83,25.78,17.79,25.75,17.74,25.73
			C17.74,25.72,17.74,25.73,17.74,25.73z"/>
		<path d="M15.63,18.16c-0.03-0.02-0.07-0.05-0.1-0.07c0,0-0.01,0.01-0.01,0.01c0.03,0.03,0.07,0.05,0.1,0.08
			C15.62,18.17,15.63,18.17,15.63,18.16z"/>
		<path d="M12.92,20.37c0.01-0.08,0.01-0.08-0.02-0.08c0,0.02-0.01,0.03,0,0.04C12.9,20.34,12.91,20.35,12.92,20.37z"/>
		<path d="M11.99,20.13c0.02,0.03,0.03,0.06,0.05,0.09C12.02,20.12,12.01,20.11,11.99,20.13z"/>
		<path d="M17.92,25.95c0.03,0.03,0.07,0.06,0.1,0.09c0,0,0.01-0.01,0.01-0.01c-0.03-0.03-0.07-0.06-0.1-0.09
			C17.92,25.94,17.92,25.95,17.92,25.95z"/>
		<path d="M12.07,20.24c0.02,0.03,0.04,0.05,0.06,0.08c0,0,0.01-0.01,0.01-0.01c-0.02-0.03-0.04-0.05-0.06-0.08
			C12.08,20.23,12.07,20.24,12.07,20.24z"/>
		<path d="M20.13,22.88c-0.01,0.01-0.01,0.01-0.02,0.02c0.02,0.02,0.04,0.05,0.06,0.07c0,0,0.01-0.01,0.01-0.01
			C20.17,22.93,20.15,22.91,20.13,22.88z"/>
		<path d="M15.38,17.8c-0.02,0.04-0.05,0.07,0.01,0.1c-0.01-0.02-0.01-0.02-0.02-0.04c0.01-0.01,0.02-0.02,0.03-0.02
			C15.4,17.83,15.39,17.82,15.38,17.8z"/>
		<path d="M24.32,25.78C24.32,25.79,24.32,25.79,24.32,25.78c0.01,0.02,0.03,0.03,0.04,0.05c0.01-0.01,0.02-0.01,0.03-0.02
			c0,0,0-0.01,0-0.01C24.37,25.8,24.35,25.79,24.32,25.78z"/>
		<path d="M20.61,23.41c0.01,0.02,0.01,0.04,0.02,0.05c0.01,0.01,0.03,0,0.04,0c-0.01-0.02-0.03-0.04-0.05-0.05
			C20.62,23.4,20.61,23.41,20.61,23.41z"/>
		<polygon points="20.67,23.46 20.67,23.46 20.67,23.46 20.67,23.46 20.67,23.46 		"/>
		<path d="M12.92,20.9c0.01,0.03,0.03,0.05,0.04,0.07C12.97,20.9,12.95,20.88,12.92,20.9z"/>
		<path d="M12.83,21.07c0.02,0.03,0.03,0.05,0.05,0.08c0,0,0.01-0.01,0.01-0.01c-0.01-0.03-0.02-0.05-0.03-0.08
			C12.85,21.06,12.84,21.07,12.83,21.07z"/>
		<path d="M16.05,18.66c0.03,0.03,0.06,0.05,0.09,0.08c0,0,0.01-0.01,0.01-0.01C16.12,18.7,16.09,18.68,16.05,18.66
			C16.06,18.65,16.05,18.66,16.05,18.66z"/>
		<path d="M15.64,18.35c-0.02-0.02-0.05-0.05-0.07-0.07c0,0-0.01,0-0.01,0.01C15.58,18.31,15.6,18.33,15.64,18.35
			C15.63,18.35,15.63,18.35,15.64,18.35z"/>
		<path d="M19.83,22.73c-0.03-0.02-0.05-0.05-0.08-0.07c0,0,0,0.01-0.01,0.01c0.02,0.02,0.05,0.05,0.07,0.07
			C19.82,22.74,19.82,22.73,19.83,22.73z"/>
		<path d="M15.32,23.5c0.01,0.01,0.03,0.02,0.04,0.03c0-0.01,0-0.02-0.01-0.03c-0.03-0.03-0.07-0.07-0.11-0.1
			c-0.01-0.01-0.02-0.01-0.05-0.02c0.02,0.03,0.03,0.06,0.05,0.09l0.2,0.2c0,0,0.01-0.01,0.01-0.01
			C15.41,23.61,15.36,23.56,15.32,23.5C15.31,23.51,15.31,23.5,15.32,23.5z"/>
		<path d="M24.01,26.51c-0.02-0.02-0.05-0.03-0.08-0.05c-0.07-0.03-0.11-0.09-0.09-0.17c0.01-0.08-0.02-0.11-0.09-0.14
			c-0.07-0.03-0.14-0.07-0.16-0.14c-0.03-0.01-0.05-0.01-0.06-0.03c-0.1-0.09-0.19-0.19-0.28-0.28c0,0,0-0.01,0-0.02
			c0.1,0.07,0.19,0.13,0.29,0.2c0,0,0.01,0,0.01-0.01c-0.01-0.02-0.02-0.04-0.04-0.07c0.04-0.02,0.08,0.01,0.09,0.06
			c0.01,0.04,0.03,0.06,0.07,0.08c0.06,0.03,0.11,0.05,0.17,0.08c0.04,0.02,0.08,0.05,0.12,0.07c0.01,0.01,0.04-0.01,0.06-0.02
			c0-0.01,0-0.03-0.01-0.03c-0.06-0.04-0.11-0.08-0.17-0.12c-0.03-0.02-0.06-0.06-0.08-0.09c-0.07-0.08-0.13-0.17-0.22-0.23
			c-0.03-0.02-0.07-0.02-0.1-0.03c-0.07-0.02-0.12-0.08-0.17-0.13c-0.01-0.01-0.01-0.03-0.02-0.04l0.01-0.01
			c0.02,0.02,0.04,0.04,0.06,0.06c0,0,0.01-0.01,0.01-0.01c-0.01-0.06-0.09-0.06-0.12-0.11c0,0.02,0,0.03-0.01,0.05
			c-0.09-0.05-0.15-0.12-0.19-0.2c-0.01,0-0.01,0.01-0.02,0.01c0.03,0.04,0.05,0.08,0.08,0.12c0,0-0.01,0.01-0.01,0.01
			c-0.03-0.01-0.05-0.02-0.08-0.03c0,0,0,0.01-0.01,0.01c0.01,0.01,0.02,0.03,0.03,0.04c0,0,0,0-0.01,0.01
			c-0.03-0.02-0.05-0.04-0.08-0.06c0.01,0.02,0.03,0.03,0.05,0.05c0.05,0.06,0.09,0.12,0.15,0.17c0.04,0.03,0.01,0.04-0.01,0.05
			c0.01,0.02,0.02,0.03,0.04,0.04c0,0-0.01,0.01-0.01,0.01c-0.07-0.08-0.14-0.16-0.21-0.25c0,0-0.01,0.01-0.01,0.01
			c0.05,0.08,0.11,0.16,0.16,0.24c0,0-0.01,0.01-0.01,0.01c-0.13-0.14-0.23-0.29-0.37-0.42c0,0-0.01,0.01-0.01,0.01
			c0.04,0.06,0.09,0.11,0.13,0.17c0,0-0.01,0.01-0.01,0.01c-0.02-0.01-0.04-0.02-0.06-0.04c-0.05-0.05-0.1-0.09-0.16-0.14
			c-0.07-0.07-0.15-0.13-0.22-0.2c-0.06-0.05-0.11-0.12-0.17-0.17c-0.14-0.11-0.25-0.25-0.36-0.39c-0.11-0.15-0.24-0.29-0.38-0.41
			c-0.04-0.03-0.07-0.06-0.1-0.1c-0.13-0.14-0.27-0.28-0.4-0.42c-0.04-0.04-0.09-0.08-0.14-0.12c-0.03-0.03-0.07-0.03-0.1-0.07
			c-0.03-0.04-0.08-0.07-0.09-0.13c0-0.01-0.01-0.01-0.02-0.02c-0.03-0.02-0.06-0.03-0.09-0.05c-0.06-0.06-0.13-0.13-0.19-0.2
			c-0.02-0.02-0.04-0.04-0.06-0.06c-0.01-0.01-0.03-0.02-0.03-0.02c-0.02,0.02-0.03,0-0.05-0.01c-0.1-0.1-0.2-0.21-0.31-0.31
			c-0.08-0.08-0.16-0.17-0.25-0.25c-0.01-0.01-0.03-0.02-0.05-0.03c0,0,0,0.01,0,0.01l0.14,0.18c0,0-0.01,0-0.01,0.01
			c-0.03-0.03-0.07-0.05-0.1-0.08c0,0-0.01,0.01-0.01,0.01c0.03,0.04,0.06,0.08,0.09,0.11c0.05,0.04,0.1,0.07,0.14,0.13
			c0.03,0.05,0.08,0.09,0.12,0.13c0,0,0.01,0,0.01,0c0.01-0.01,0.01-0.02,0.02-0.04c0.02,0.06,0.05,0.11,0.11,0.11
			c0.11,0.11,0.22,0.21,0.33,0.32c0.08,0.08,0.15,0.16,0.22,0.24c0.03,0.03,0.06,0.06,0.08,0.08c0,0,0,0.01-0.01,0.01
			c-0.02,0-0.04,0-0.06-0.01c0.09,0.05,0.14,0.14,0.21,0.21c0,0-0.01,0.01-0.01,0.01c-0.02-0.02-0.04-0.04-0.06-0.06c0,0,0,0-0.01,0
			c0.01,0.01,0.01,0.03,0.02,0.04c0,0-0.01,0.01-0.01,0.01c-0.02-0.01-0.05-0.02-0.06-0.04c-0.03-0.07-0.09-0.1-0.14-0.14
			c-0.06-0.06-0.13-0.11-0.18-0.18c-0.03-0.04-0.07-0.05-0.1-0.09c0,0.08,0.07,0.1,0.1,0.16c-0.07-0.05-0.13-0.11-0.19-0.17
			c-0.04-0.04-0.09-0.09-0.13-0.13c-0.05-0.04-0.11-0.07-0.1-0.14c-0.04-0.02-0.08-0.03-0.1-0.05c-0.04-0.03-0.07-0.07-0.1-0.11
			c-0.1-0.1-0.19-0.2-0.29-0.3c-0.03-0.04-0.07-0.07-0.1-0.11c0.01-0.01,0.01-0.02,0.02-0.02c0,0,0,0,0,0c0,0,0,0,0,0
			c0-0.01,0.01-0.01,0.01-0.02c0,0-0.01-0.01-0.01-0.01c0,0,0,0,0,0c0,0,0,0,0-0.01c-0.03-0.03-0.06-0.06-0.1-0.08
			c0,0-0.01,0.01-0.01,0.01c0.03,0.03,0.05,0.07,0.08,0.1c0,0,0.01,0,0.01,0c0,0.01-0.01,0.01-0.01,0.02
			c-0.05-0.06-0.11-0.12-0.17-0.18c0,0,0,0,0,0c0.02-0.02,0.03-0.03,0.05-0.05c0.03,0.05,0.06,0.08,0.09,0.07
			c-0.03-0.02-0.06-0.05-0.08-0.07c0.03-0.03,0.06-0.06,0.09-0.09c0.03,0.03,0.06,0.06,0.08,0.08c0,0,0,0,0,0.01
			c-0.01,0-0.02-0.01-0.03-0.01c0,0-0.01,0.01-0.01,0.01c0.06,0.07,0.12,0.14,0.18,0.2c0.01,0,0.01-0.01,0.02-0.01
			c-0.02-0.03-0.05-0.06-0.07-0.09c0.04-0.02,0.04-0.04,0.01-0.06c-0.02-0.02-0.04-0.03-0.06-0.05c-0.03-0.03-0.05-0.05-0.08-0.08
			c-0.01-0.01-0.02-0.02-0.02-0.02c0.03-0.03,0.05-0.06,0.08-0.08c-0.02-0.02-0.04-0.03-0.07-0.05c-0.01,0.01-0.01,0.02-0.02,0.03
			c-0.01,0.02-0.02,0.05-0.04,0.07c-0.01-0.01-0.01-0.01-0.02-0.02c-0.01-0.01-0.01-0.01-0.02-0.01c0,0,0-0.01,0.01-0.01
			c0,0-0.01-0.01-0.01-0.01l-0.01,0.01c-0.02-0.01-0.04-0.02-0.06-0.04c0,0,0,0,0,0c0.02,0.02,0.03,0.03,0.05,0.05
			c-0.03,0.05-0.06,0.1-0.09,0.15c-0.04-0.05-0.08-0.1-0.12-0.15c0,0.01,0,0.01-0.01,0.02c-0.01-0.01-0.03-0.02-0.04-0.04
			c-0.01-0.03-0.02-0.06-0.03-0.08c-0.01-0.03-0.03-0.05-0.05-0.08c0.01-0.01,0.03-0.03,0.04-0.04c0.01-0.01,0.02-0.01,0.03-0.01
			c0.02-0.01,0.04-0.03,0.06-0.05c0.01-0.01,0.02-0.03,0.04-0.04c-0.16-0.13-0.31-0.27-0.47-0.41c-0.03-0.04-0.05-0.08-0.08-0.11
			c-0.09-0.11-0.17-0.23-0.26-0.34c-0.05-0.07-0.1-0.13-0.16-0.19c-0.08-0.09-0.17-0.17-0.26-0.25c-0.05-0.04-0.1-0.09-0.15-0.13
			c0,0-0.01,0.01-0.01,0.01c0.04,0.03,0.08,0.06,0.11,0.1c0.04,0.04,0.08,0.09,0.12,0.14c0.01,0.02,0.04,0.03,0.02,0.06
			c0,0,0.01,0.02,0.01,0.01c0.04-0.02,0.03,0.02,0.04,0.03c0.01,0.02,0.02,0.04,0.03,0.06c0.02,0.02,0.02,0.04-0.02,0.06
			c0.01,0.02,0.02,0.03,0.04,0.04c-0.26-0.24-0.51-0.49-0.77-0.73c-0.03-0.03-0.05-0.06-0.08-0.09c-0.04-0.04-0.08-0.09-0.14-0.12
			c-0.03-0.02-0.06-0.06-0.08-0.09c-0.02-0.03-0.05-0.04-0.08-0.06c-0.02-0.02-0.02-0.07-0.04-0.1c-0.03-0.04-0.06-0.08-0.1-0.12
			c-0.03-0.03-0.06-0.05-0.09-0.08c0,0,0,0,0,0c0.02,0.04,0.05,0.08,0.07,0.12c0,0-0.01,0.01-0.01,0.01
			c-0.01-0.01-0.02-0.01-0.03-0.02c-0.04-0.04-0.07-0.07-0.11-0.11c-0.04-0.03-0.07-0.07-0.11-0.1c-0.04-0.03-0.06-0.08-0.12-0.09
			c-0.01,0-0.01-0.03-0.02-0.05c0-0.02,0-0.04-0.01-0.05c0.03,0.03,0.06,0.05,0.09,0.08c0,0,0,0,0,0c-0.04-0.04-0.09-0.09-0.13-0.13
			c0,0-0.01,0.01-0.01,0.01c0.02,0.01,0.03,0.03,0.05,0.04c0,0,0,0,0,0c0,0.01,0,0.02-0.01,0.03c0,0-0.01,0-0.01,0.01
			c-0.1-0.2-0.27-0.35-0.4-0.53c0.02,0.04,0.05,0.08,0.07,0.12c0.02,0.03,0.06,0.05,0.02,0.11c-0.01-0.03-0.07-0.03-0.04-0.08
			c0,0-0.01-0.01-0.02-0.02c-0.01-0.01-0.02-0.01-0.03-0.02c-0.03-0.02-0.05-0.05-0.08-0.07c-0.04-0.04-0.08-0.09-0.11-0.14
			c0-0.01-0.01-0.01-0.01-0.02c-0.01,0.01-0.01,0.01-0.02,0.02c0.03,0.03,0.05,0.07,0.08,0.1c0.06,0.08,0.13,0.15,0.19,0.22
			c0.01,0.02,0.02,0.04,0.03,0.06c0.02,0.01,0.05,0.02,0.05,0.04c0.01,0.04,0.03,0.03,0.07,0.03c-0.03-0.04-0.06-0.08-0.08-0.11
			c0,0,0.01-0.01,0.01-0.01c0.04,0.03,0.08,0.06,0.11,0.11c-0.01,0-0.02,0.01-0.03,0.01c0.07,0.09,0.13,0.18,0.19,0.26
			c-0.01,0.01-0.02,0.01-0.03,0.02c-0.05-0.05-0.09-0.12-0.16-0.15c0,0-0.01,0.01-0.01,0.01c0.04,0.05,0.08,0.09,0.12,0.14
			c-0.01-0.01-0.01-0.01-0.02-0.02c-0.04-0.04-0.08-0.09-0.12-0.13c0,0,0-0.01,0-0.01c0.01,0,0.02,0,0.03,0
			C16.14,19,16.13,19,16.11,19c-0.06,0-0.13-0.08-0.13-0.14c0-0.01-0.01-0.02-0.01-0.03c-0.02-0.01-0.04-0.02-0.06-0.03
			c0.01-0.03,0.01-0.05,0.01-0.06l-0.01-0.01c-0.01,0.04-0.03,0.03-0.04,0.01c-0.03-0.03-0.05-0.07-0.08-0.1
			c-0.03-0.02-0.06-0.04-0.09-0.06c-0.07-0.07-0.14-0.15-0.21-0.22c-0.03-0.03-0.05-0.08-0.08-0.11c-0.01-0.01-0.02-0.04-0.03-0.03
			c-0.07,0.01-0.04-0.07-0.08-0.08c0.02-0.04-0.02-0.04-0.03-0.05c-0.01-0.03-0.04-0.06-0.05-0.09c-0.02-0.03-0.08-0.04-0.04-0.1
			c-0.02-0.01-0.03-0.01-0.05-0.02c0,0,0,0,0,0.01c-0.12-0.12-0.24-0.24-0.36-0.36l0.01-0.01c0.04,0.03,0.07,0.06,0.11,0.09
			c0.01-0.04-0.07-0.06-0.02-0.11c-0.01,0-0.02-0.01-0.02-0.01c-0.03,0.02-0.05,0-0.07-0.02c-0.08-0.06-0.15-0.13-0.23-0.2
			c-0.09-0.09-0.18-0.18-0.27-0.26c-0.02-0.02-0.04-0.06-0.06-0.07c-0.08-0.02-0.08-0.11-0.15-0.16c0.03,0,0.05,0,0.07,0
			c-0.01-0.02-0.01-0.03-0.02-0.04c-0.01-0.01-0.03-0.02-0.04-0.03c0.02-0.02,0.04-0.04,0.06-0.06c0.03,0.03,0.06,0.06,0.09,0.09
			c-0.01-0.05-0.05-0.08-0.08-0.1c0.01-0.02,0.03-0.03,0.04-0.05c0.01,0.01,0.02,0.01,0.03,0.02c0.12,0.11,0.24,0.22,0.36,0.34
			c0.1,0.09,0.2,0.19,0.3,0.28c0.02,0.02,0.04,0.04,0.06,0.07c0,0,0.01-0.01,0.01-0.01c-0.03-0.03-0.05-0.06-0.08-0.09
			c-0.11-0.11-0.23-0.22-0.34-0.33c-0.05-0.05-0.1-0.11-0.15-0.16c-0.05-0.05-0.1-0.1-0.15-0.15c0.01-0.02,0.03-0.03,0.04-0.05
			c0.04-0.05,0.08-0.1,0.12-0.15c0,0-0.01-0.01-0.01-0.01c-0.03,0.04-0.06,0.08-0.09,0.12c-0.03,0.03-0.05,0.05-0.08,0.07
			c0,0,0,0,0,0c-0.03-0.03-0.07-0.07-0.1-0.1c0.01-0.01,0.02-0.01,0.03-0.02c0.01-0.01,0.02-0.03,0.03-0.04
			c0.01-0.02,0.03-0.05,0.04-0.07c0.01-0.01,0.02,0,0.03-0.01c0.02-0.03,0.04-0.06,0.07-0.08c0.05-0.05,0.09-0.12,0.17-0.14
			c0.01,0,0.02-0.02,0.03-0.03c0.02-0.03,0.04-0.05,0.07-0.08c0.04-0.04,0.09-0.08,0.13-0.12c0.04-0.04,0.09-0.08,0.12-0.14
			c0.02-0.03,0.06-0.06,0.09-0.08c0.03-0.02,0.04-0.05,0.06-0.08c0.02-0.02,0.07-0.02,0.1-0.04c0.04-0.03,0.08-0.06,0.12-0.1
			c0.03-0.03,0.05-0.06,0.08-0.09c0,0,0,0,0,0l-0.12,0.07c0,0-0.01-0.01-0.01-0.01c0.01-0.01,0.01-0.02,0.02-0.03
			c0.04-0.04,0.07-0.07,0.11-0.11c0.03-0.04,0.07-0.08,0.1-0.12c0.03-0.04,0.08-0.06,0.09-0.12c0-0.01,0.03-0.02,0.05-0.02
			c0.02,0,0.04-0.01,0.06-0.01c0,0,0-0.01,0-0.01c-0.01,0-0.02,0-0.03,0c0,0,0-0.01-0.01-0.01c0.2-0.11,0.35-0.28,0.52-0.41
			c-0.04,0.02-0.08,0.05-0.12,0.08c-0.03,0.02-0.05,0.06-0.1,0.02c0.03-0.01,0.03-0.07,0.08-0.05c0,0,0.01-0.01,0.02-0.02
			c0.01-0.01,0.01-0.02,0.02-0.03c0.02-0.03,0.05-0.05,0.07-0.08c0.04-0.04,0.09-0.08,0.13-0.12c0.01,0,0.01-0.01,0.02-0.01
			c0.01-0.02,0.02-0.04,0.04-0.06c-0.05,0.04-0.1,0.08-0.15,0.12c-0.07,0.06-0.14,0.13-0.22,0.2c-0.02,0.01-0.04,0.02-0.06,0.03
			c-0.01,0.02-0.02,0.05-0.04,0.05c-0.04,0.01-0.03,0.03-0.03,0.07c0.04-0.03,0.07-0.06,0.11-0.09c0,0,0.01,0.01,0.01,0.01
			c-0.03,0.04-0.05,0.09-0.1,0.11c0-0.01-0.01-0.02-0.01-0.03c-0.09,0.07-0.17,0.14-0.26,0.2c-0.01-0.01-0.01-0.02-0.02-0.03
			c0.05-0.05,0.12-0.09,0.14-0.16c0,0-0.01-0.01-0.01-0.01c-0.07,0.06-0.13,0.12-0.2,0.17c0,0-0.01-0.01-0.01-0.01
			c0.02-0.02,0.05-0.03,0.07-0.05c0.02-0.02,0.03-0.04,0.05-0.07l-0.01-0.01c-0.01,0-0.02,0.01-0.03,0.01c0,0-0.01-0.01-0.01-0.01
			c0.03-0.04,0.07-0.08,0.1-0.12c0,0-0.01-0.01-0.01-0.01c-0.06,0.05-0.13,0.1-0.19,0.15c0.04-0.05,0.08-0.11,0.14-0.14
			c0.07-0.03,0.11-0.09,0.14-0.15c0.01-0.01,0.01-0.02,0.02-0.03c-0.03-0.01-0.05,0.01-0.07,0.03c-0.04,0.04-0.09,0.08-0.13,0.11
			c-0.03,0.02-0.06,0.05-0.09,0.07c-0.01,0.01-0.03,0.02-0.04,0.04c-0.02,0.02-0.03,0.05-0.08,0.03c0.02-0.02,0.04-0.05,0.06-0.07
			c-0.03,0.02-0.07,0.05-0.09,0.08c-0.02,0.05-0.06,0.08-0.1,0.11c-0.01,0.01-0.01,0.12-0.01,0.13c0,0,0,0.01,0.01,0.01
			c-0.19,0.16-0.37,0.31-0.56,0.47c0,0-0.01-0.01-0.01-0.01c0.03-0.04,0.07-0.08,0.1-0.12c0.01-0.01,0.01-0.02,0.02-0.04
			c0,0-0.02-0.01-0.02-0.01c-0.01,0.01-0.02,0.02-0.03,0.03c-0.01,0.01-0.02,0.03-0.03,0.04c0,0-0.01-0.01-0.01-0.01
			c0.01-0.01,0.02-0.02,0.03-0.04c0.02-0.03,0.05-0.06,0.05-0.09c0-0.05,0.02-0.09,0.05-0.11c0.05-0.04,0.1-0.08,0.16-0.12
			c0,0,0.01,0.01,0.01,0.01c0.01,0,0.02-0.01,0.02-0.01c0.04,0.01,0.04,0.01,0.04-0.03c0-0.03,0.05-0.08,0.09-0.09
			c-0.01,0.01-0.03,0.02-0.04,0.04c0,0,0,0.01,0.01,0.02c-0.02,0.03-0.03,0.06-0.05,0.08c-0.04,0.05-0.09,0.1-0.14,0.14
			c0,0,0.01,0.01,0.01,0.01c0.03-0.06,0.09-0.06,0.13-0.11c0.04-0.07,0.11-0.13,0.17-0.19c0.04-0.05,0.07-0.09,0.11-0.14
			c0.03-0.03,0.06-0.06,0.1-0.08c0.02-0.02,0.03-0.03,0.02-0.05c-0.02,0.03-0.04,0.06-0.07,0.07c-0.03,0.02-0.07,0.04-0.1,0.05
			c-0.01,0-0.01,0.01-0.03,0.02c0.05-0.05,0.09-0.09,0.14-0.14c0.05-0.04,0.09-0.09,0.14-0.13c0.01-0.01,0.03-0.02,0.05-0.03
			c0.03-0.01,0.06-0.02,0.06-0.06c-0.02,0.01-0.03,0.03-0.05,0.04c0,0-0.01-0.01-0.01-0.01c0.02-0.02,0.04-0.04,0.07-0.06
			c0.01,0.01,0.02,0.02,0.03,0.03c0,0,0,0,0,0c0.01-0.01,0.03-0.02,0.04-0.03c0,0.02-0.01,0.03-0.02,0.04
			c-0.03,0.03-0.07,0.06-0.1,0.09c-0.01,0.01-0.01,0.02-0.02,0.04c0.04-0.02,0.07-0.03,0.09-0.05c0.07-0.07,0.14-0.15,0.21-0.22
			c0.1-0.09,0.19-0.18,0.29-0.28c0,0.01,0,0.01,0.01,0.02c-0.01,0.02-0.03,0.04-0.04,0.06c0,0-0.01,0.01-0.01,0.01
			c-0.02,0.02-0.03,0.03-0.05,0.04c-0.02,0.01-0.03,0.02-0.05,0.03c-0.06,0.04-0.09,0.11-0.14,0.17c0-0.01,0.01-0.01,0.01-0.02
			c-0.02,0.01-0.05,0.02-0.06,0.04c0,0.01,0,0.02,0.01,0.03c-0.01,0.02-0.02,0.04-0.01,0.06c0,0.01,0,0.02-0.01,0.03
			c-0.02-0.02-0.04-0.04-0.04-0.04c-0.01,0.01-0.03,0.02-0.04,0.03c0,0,0.01,0.01,0.01,0.01l0.03-0.02c0,0,0,0.01,0,0.01
			c0.01,0.01,0.03,0.01,0.04,0.02c0,0,0,0,0,0c0,0,0,0,0,0c0.01,0,0.01,0.01,0.02,0.01c0,0,0.01,0,0.01-0.01
			c-0.01-0.01-0.01-0.02-0.01-0.03c0.01-0.01,0.02-0.01,0.03-0.03c0.02,0,0.03-0.02,0.05-0.03c0,0-0.01-0.01-0.01-0.01
			c-0.01,0-0.01,0.01-0.02,0.01c0.01-0.01,0.02-0.03,0.01-0.04c0.03-0.01,0.06-0.02,0.07-0.06c0,0,0.01-0.01,0.02-0.01
			c-0.01,0.01-0.02,0.02-0.02,0.02c0,0,0.01,0.01,0.01,0.01c-0.01,0.01-0.01,0.02-0.02,0.02c0.01,0,0.02,0,0.02,0
			c0,0,0.01,0.01,0.01,0.01c-0.04,0.04-0.08,0.08-0.12,0.12c0,0-0.01,0.01-0.02,0.01c0,0,0,0,0,0c-0.01,0.01-0.03,0.01-0.04,0.02
			c-0.01,0.01-0.02,0.03-0.03,0.03c-0.05,0-0.05,0.03-0.05,0.07c0.04-0.03,0.07-0.06,0.11-0.09c0.02,0.02,0.04,0.03,0.06,0.05
			c0-0.01,0.01-0.01,0.01-0.02c0.03,0.01,0.05,0.01,0.06,0.01c0,0,0.01-0.01,0.01-0.01c-0.04-0.01-0.03-0.03-0.01-0.04
			c0.03-0.03,0.07-0.05,0.1-0.08c0.03-0.02,0.04-0.06,0.07-0.08c0.07-0.07,0.15-0.14,0.23-0.21c0.03-0.03,0.08-0.05,0.12-0.08
			c0.01-0.01,0.04-0.02,0.03-0.03c-0.01-0.07,0.07-0.04,0.09-0.07c0.01,0,0.01,0,0.01,0c0,0,0.01,0.01,0.01,0.01
			c-0.04,0.03-0.09,0.07-0.13,0.1c0.01,0,0.02-0.01,0.04-0.02c-0.02,0.04-0.03,0.06-0.04,0.09c0.03-0.02,0.06-0.05,0.08-0.06
			c0.03-0.04,0.05-0.07,0.07-0.1c0.01,0.01,0.02,0.02,0.02,0.02c0,0,0.01-0.01,0.01-0.01c-0.01-0.01-0.02-0.02-0.03-0.02
			c0-0.01,0.01-0.01,0.02-0.02c0,0,0,0-0.01,0c-0.01,0.01-0.01,0.01-0.02,0.02c0,0,0,0-0.01-0.01c0.01-0.01,0.01-0.02,0.02-0.03
			c0.03-0.01,0.06-0.03,0.09-0.05c0.03-0.02,0.04-0.08,0.1-0.03c0,0,0-0.01,0-0.01c0.01,0,0.01,0.01,0.02,0.01
			c0.09,0.01,0.11,0.1,0.17,0.15c0.02,0.02,0.04,0.04,0.07,0.07c0-0.03-0.04-0.06,0.01-0.08c-0.02-0.01-0.03-0.02-0.04-0.03
			c-0.02-0.02-0.05-0.04-0.06-0.06c-0.02-0.03-0.04-0.06-0.08-0.06c-0.03,0-0.05-0.01-0.08-0.02c0-0.01,0-0.01,0.01-0.02
			c0,0,0,0-0.01,0c0.12-0.12,0.25-0.23,0.37-0.35c0,0,0.01,0.01,0.01,0.01c-0.03,0.04-0.07,0.07-0.1,0.11
			c0.04,0.01,0.06-0.07,0.11-0.02c0-0.01,0.01-0.02,0.01-0.02c-0.02-0.03,0-0.05,0.02-0.07c0.07-0.08,0.13-0.15,0.2-0.22
			c0.09-0.09,0.18-0.18,0.27-0.26c0.02-0.02,0.06-0.03,0.07-0.06c0.02-0.08,0.11-0.08,0.16-0.15c0,0.03,0,0.05-0.01,0.07
			c0.02-0.01,0.03-0.01,0.04-0.02c0.02-0.02,0.04-0.05,0.06-0.08c0.02-0.02,0.03-0.04,0.05-0.06c0.03-0.03,0.06-0.05,0.08-0.08
			c0.02-0.02,0.04-0.05,0.07-0.07c0.02-0.02,0.05-0.02,0.07-0.03c0.03-0.02,0.05-0.04,0.08-0.06c0.02-0.02,0.05-0.04,0.09,0
			c-0.06,0.05-0.12,0.1-0.18,0.16c0,0,0.01,0.01,0.01,0.01c0.05-0.04,0.11-0.08,0.16-0.13c0.02-0.02,0.03-0.02,0.04-0.02l0.06-0.06
			c0,0,0,0-0.01,0c0.01-0.01,0.02-0.02,0.02-0.02c-0.02,0-0.06,0.01-0.09,0.01c-0.04,0-0.08,0-0.12,0c0.01-0.01,0.02-0.04,0.04-0.05
			c0.03-0.03,0.05-0.05,0.08-0.08c0.04-0.04,0.09-0.06,0.13-0.1c0.06-0.06,0.11-0.12,0.18-0.16c0.09-0.05,0.17-0.13,0.26-0.2
			c0.01-0.01,0.03-0.02,0.04-0.02c0.03-0.01,0.06-0.02,0.08-0.04c0.08-0.09,0.15-0.18,0.22-0.27c0.07-0.09,0.14-0.19,0.2-0.28
			c0.01-0.02,0.02-0.04,0.03-0.07c-0.03,0-0.04,0-0.06,0c0,0,0,0,0-0.01c0.08-0.09,0.16-0.19,0.24-0.28
			c0.02-0.03,0.05-0.06,0.07-0.08c0.05-0.04,0.1-0.08,0.15-0.12c0.01-0.01,0.02-0.03,0.03-0.04c-0.06,0.04-0.11,0.07-0.17,0.11
			c-0.01,0-0.01,0.01-0.01,0.02c-0.01,0.05-0.05,0.05-0.09,0.07c0-0.01,0-0.02,0.01-0.02c0.08-0.07,0.17-0.14,0.25-0.22
			c0,0,0,0,0,0.01c0.03-0.03,0.05-0.05,0.05-0.06c0.03-0.03,0.06-0.07,0.09-0.1c-0.01,0.02-0.03,0.04-0.04,0.06
			c-0.02,0.05-0.04,0.1-0.06,0.15c0.03-0.04,0.05-0.08,0.09-0.1c0.04-0.02,0.06-0.05,0.09-0.09c0.01-0.01,0.02-0.02,0.04-0.02
			c0.01-0.01,0.03-0.01,0.05-0.01c0,0,0-0.01,0-0.01c-0.01,0-0.03,0-0.04,0c0,0,0-0.01-0.01-0.01c0.06-0.07,0.13-0.15,0.18-0.21
			c0.01-0.02,0.01-0.03,0.01-0.04c0.02-0.03,0.04-0.06,0.07-0.09c-0.09,0-0.1,0.01-0.15,0.07c-0.02,0.02-0.04,0.03-0.06,0.05
			c0,0-0.01-0.01-0.01-0.01c0.07-0.07,0.14-0.15,0.21-0.22c0.01-0.01,0.02,0,0.03,0c0,0-0.01,0-0.01-0.01
			c0.02-0.03,0.04-0.07,0.07-0.1c0.06-0.06,0.12-0.12,0.18-0.18c0.13-0.13,0.26-0.27,0.39-0.41c0.02-0.02,0.04-0.04,0.05-0.05
			c0,0,0.01,0.01,0.01,0.01l-0.03,0.06c0.02-0.04,0.09-0.04,0.05-0.11c0,0,0-0.01,0-0.01c0.03-0.03,0.06-0.06,0.08-0.08
			c0,0,0.01,0.01,0.01,0.01c-0.01,0.01-0.02,0.03-0.02,0.04c0.01,0,0.01,0.01,0.02,0.01c0.09-0.08,0.18-0.16,0.27-0.25
			c-0.11,0.18-0.27,0.31-0.41,0.46c0.02,0,0.03,0,0.03,0c-0.03,0.05-0.06,0.09-0.1,0.13c0,0-0.02,0-0.03,0
			c-0.06,0.06-0.13,0.13-0.2,0.2c0,0,0,0,0.01,0.01c0.02-0.01,0.04-0.03,0.06-0.04c0,0,0.01,0.01,0.01,0.01
			c-0.02,0.02-0.04,0.04-0.06,0.07c0.07-0.03,0.12-0.06,0.14-0.12c0.02-0.05,0.05-0.06,0.09-0.05c-0.01-0.04,0-0.06,0.03-0.08
			c0.03-0.01,0.05-0.03,0.08-0.05c0,0,0.01,0.01,0.01,0.01c-0.01,0.01-0.01,0.03-0.02,0.04c-0.04,0.04-0.08,0.08-0.11,0.12
			c-0.09,0.11-0.19,0.21-0.28,0.32c0,0.01-0.01,0.01-0.02,0.01c-0.06,0.02-0.06,0.02-0.07,0.08c0.24-0.22,0.44-0.47,0.7-0.67
			c-0.04,0.04-0.07,0.08-0.11,0.12c0,0,0.01,0.01,0.01,0.01c0.08-0.11,0.2-0.17,0.28-0.27c0.04-0.05,0.09-0.07,0.14-0.11
			c0.02-0.02,0.03-0.05,0.05-0.07c0.07-0.09,0.14-0.18,0.22-0.26c0.14-0.16,0.28-0.31,0.42-0.46c0.13-0.13,0.26-0.26,0.39-0.39
			c0.04-0.04,0.07-0.09,0.12-0.11c0.04-0.02,0.07-0.05,0.11-0.08c0.1-0.09,0.19-0.18,0.29-0.27c0.04-0.03,0.07-0.08,0.09-0.12
			c0.03-0.06,0.04-0.12,0.1-0.17c0.02-0.01,0.03-0.04,0.04-0.05c0,0-0.01,0-0.01-0.01c-0.01,0-0.02,0.01-0.03,0.01
			c0,0,0-0.01-0.01-0.01c0.04-0.02,0.08-0.05,0.12-0.07c0,0-0.01-0.01-0.01-0.01c-0.02,0.01-0.03,0.02-0.06,0.03
			c-0.01-0.02-0.03-0.05-0.04-0.07c-0.02-0.02-0.03-0.04-0.06-0.02c-0.03,0.01-0.07,0.01-0.1,0.02c-0.01,0-0.02,0.01-0.03,0.01
			c0.02,0.01,0.02,0.01,0.03,0.02c-0.04,0.06-0.1,0.04-0.15,0.06c0,0-0.02-0.01-0.02-0.02c0-0.02,0-0.04,0.01-0.06
			c0.01-0.05,0.03-0.09,0.03-0.14c0-0.03,0.01-0.05,0.03-0.07c0,0,0-0.01,0.01-0.01c-0.01,0-0.02-0.01-0.03-0.01
			c0.01-0.01,0.01-0.02,0.02-0.04c0,0-0.01-0.01-0.01-0.01c-0.05,0.02-0.1,0.05-0.15,0.07c0.02-0.05,0.04-0.1,0.07-0.15
			c0,0,0,0-0.01,0c-0.02,0.02-0.05,0.05-0.07,0.07c-0.01,0-0.01-0.01-0.02-0.01c0.01-0.02,0.01-0.04,0.02-0.05
			c0.03-0.03,0.06-0.05,0.09-0.06c0.03-0.01,0.04-0.07,0.07-0.09c0.04-0.04,0.09-0.07,0.14-0.11c0.03-0.02,0.07-0.04,0.11-0.05
			c0,0,0,0,0,0c-0.03,0.01-0.06,0.02-0.1,0.02l-0.01-0.01c0.05-0.04,0.11-0.08,0.16-0.12c0,0,0-0.01,0-0.01
			c-0.03,0.01-0.06,0.02-0.09,0.02c0.01-0.01,0.01-0.02,0.01-0.03c-0.02,0.01-0.05,0.03-0.08,0.04c0.01-0.03,0.01-0.06,0.02-0.08
			c-0.02-0.01-0.05-0.01-0.08-0.02c-0.01-0.06,0.07-0.08,0.08-0.15c-0.06,0.05-0.09,0.13-0.18,0.08c0-0.01,0-0.02,0-0.03
			c-0.04,0-0.08-0.01-0.12-0.01c0.03-0.06,0.06-0.12,0.09-0.18c0,0-0.01-0.01-0.01-0.01c-0.01,0.01-0.03,0.02-0.04,0.03
			c-0.04,0.06-0.09,0.11-0.16,0.15c-0.03-0.04,0-0.06,0.02-0.09c-0.06-0.07,0.04-0.11,0.02-0.18c-0.03,0.02-0.05,0.04-0.07,0.06
			c-0.01,0.01-0.03,0-0.04,0c0-0.01,0-0.02,0-0.03c0-0.01,0.01-0.02,0.02-0.03c0,0,0-0.01-0.01-0.01c0,0-0.01,0-0.01,0
			c-0.04-0.06-0.08-0.07-0.14-0.05c-0.02,0.01-0.04,0-0.07-0.01c0.02-0.04,0.03-0.07,0.04-0.11c-0.03,0.02-0.05,0.04-0.06,0.05
			c-0.01-0.03-0.02-0.06-0.03-0.08c0-0.01,0-0.02,0-0.03c0-0.02,0.01-0.04,0.02-0.07c0.01-0.05,0-0.07-0.06-0.06
			c-0.03-0.04-0.04-0.04-0.08-0.01c-0.04,0.03-0.08,0.05-0.13,0.08c0,0-0.01-0.01-0.01-0.01c0.03-0.04,0.07-0.08,0.1-0.13
			c0.04-0.07,0.1-0.11,0.2-0.1c-0.02-0.06-0.07-0.02-0.1-0.05c0.01-0.02,0.03-0.05,0.04-0.07c-0.07,0.01-0.13,0.02-0.2,0.03
			c0.04-0.06,0.08-0.11,0.11-0.16c0,0,0-0.01-0.01-0.01c-0.1,0.03-0.2,0.06-0.3,0.08c0,0,0-0.01-0.01-0.01
			c0.04-0.08,0.12-0.13,0.18-0.2c0,0,0-0.01-0.01-0.01c-0.03,0.01-0.07,0.02-0.1,0.03c0,0,0-0.01-0.01-0.01
			c0.01-0.02,0.02-0.04,0.03-0.07c-0.06,0.01-0.11,0.06-0.17,0.03c0-0.01,0.01-0.02,0.01-0.03c0,0,0,0-0.01-0.01
			c-0.02,0.02-0.05,0.04-0.07,0.05c0,0-0.01-0.01-0.01-0.01c0.02-0.02,0.03-0.04,0.05-0.06c0.02-0.02,0.03-0.04,0.01-0.07
			c-0.1-0.02-0.18,0.01-0.27,0.07c0.05-0.06,0.09-0.11,0.13-0.17c0,0-0.01-0.01-0.01-0.01c-0.01,0.01-0.03,0.02-0.04,0.04
			c-0.04,0.04-0.08,0.06-0.13,0.06c-0.01,0-0.03-0.01-0.04-0.02c0-0.01,0.01-0.02,0.01-0.03c0.02-0.03,0.05-0.05,0.08-0.08
			c0.01-0.01,0.03-0.04,0.02-0.05c-0.03-0.04,0.01-0.06,0.03-0.08c0.01-0.02,0.02-0.04,0.02-0.05c-0.01,0-0.01-0.01-0.02-0.01
			l-0.23,0.25c-0.02,0-0.04,0-0.05,0.01c-0.04,0.02-0.07,0.04-0.11,0.07c-0.04,0.03-0.1,0.04-0.12,0.09
			c-0.01,0.02-0.01,0.04-0.02,0.06c-0.01,0.04-0.04,0.05-0.07,0.03c0.05-0.14,0.18-0.22,0.28-0.32c-0.03-0.02-0.05-0.03-0.07-0.05
			c0.04-0.09,0.07-0.18,0.11-0.27c0,0-0.01,0-0.01-0.01c-0.01,0.01-0.02,0.01-0.03,0.02c-0.02,0.02-0.03,0.02-0.06,0.01
			C21.5,4.1,21.46,4.1,21.44,4.07c0,0-0.01,0-0.02,0c-0.02,0-0.04,0-0.06-0.01c-0.04-0.03-0.08-0.06-0.13-0.1
			c-0.04,0-0.07,0.04-0.11,0.03c0,0-0.01,0.01-0.01,0.01c-0.02,0.02-0.03,0.05-0.05,0.08c-0.03,0.07-0.09,0.11-0.17,0.09
			c-0.08-0.01-0.11,0.02-0.14,0.09c-0.03,0.07-0.07,0.14-0.14,0.16c-0.01,0.03-0.01,0.05-0.03,0.06c-0.09,0.1-0.19,0.19-0.28,0.28
			c0,0-0.01,0-0.02,0c0.07-0.1,0.13-0.19,0.2-0.29c0,0,0-0.01-0.01-0.01c-0.02,0.01-0.04,0.02-0.07,0.04
			c-0.02-0.04,0.01-0.08,0.06-0.09c0.04-0.01,0.06-0.03,0.08-0.07c0.03-0.06,0.05-0.11,0.08-0.17c0.02-0.04,0.05-0.08,0.07-0.12
			c0.01-0.01-0.01-0.04-0.02-0.06c-0.01,0-0.03,0-0.03,0.01c-0.04,0.06-0.08,0.11-0.12,0.17c-0.02,0.03-0.06,0.06-0.09,0.08
			c-0.08,0.07-0.17,0.13-0.23,0.22c-0.02,0.03-0.02,0.07-0.03,0.1c-0.02,0.07-0.08,0.12-0.13,0.17C20.03,4.76,20.01,4.76,20,4.77
			l-0.01-0.01c0.02-0.02,0.04-0.04,0.06-0.06c0,0-0.01-0.01-0.01-0.01c-0.06,0.01-0.06,0.09-0.11,0.12c0.02,0,0.03,0,0.05,0.01
			C19.93,4.9,19.86,4.95,19.78,5c0,0.01,0.01,0.01,0.01,0.02c0.04-0.03,0.08-0.05,0.12-0.08c0,0,0.01,0.01,0.01,0.01
			C19.91,4.97,19.9,5,19.89,5.02c0,0,0.01,0,0.01,0.01c0.01-0.01,0.03-0.02,0.04-0.03c0,0,0,0,0.01,0.01
			c-0.02,0.03-0.04,0.05-0.06,0.08c0.02-0.01,0.03-0.03,0.05-0.05c0.06-0.05,0.12-0.09,0.17-0.15c0.03-0.04,0.04-0.01,0.05,0.01
			c0.02-0.01,0.03-0.02,0.04-0.04c0,0,0.01,0.01,0.01,0.01c-0.08,0.07-0.16,0.14-0.25,0.21c0,0,0.01,0.01,0.01,0.01
			c0.08-0.05,0.16-0.11,0.24-0.16c0,0,0.01,0.01,0.01,0.01c-0.14,0.13-0.29,0.23-0.42,0.37c0,0,0.01,0.01,0.01,0.01
			c0.06-0.04,0.11-0.09,0.17-0.13c0,0,0.01,0.01,0.01,0.01c-0.01,0.02-0.02,0.04-0.04,0.06c-0.05,0.05-0.09,0.1-0.14,0.16
			c-0.07,0.07-0.13,0.15-0.2,0.22c-0.05,0.06-0.12,0.11-0.17,0.17c-0.11,0.14-0.25,0.25-0.39,0.36c-0.15,0.11-0.29,0.24-0.41,0.38
			c-0.03,0.04-0.06,0.07-0.1,0.1c-0.14,0.13-0.28,0.27-0.42,0.4C18.08,7.09,18.04,7.14,18,7.19c-0.03,0.03-0.03,0.07-0.07,0.1
			c-0.04,0.03-0.07,0.08-0.13,0.09c-0.01,0-0.01,0.01-0.02,0.02c-0.02,0.03-0.03,0.06-0.05,0.09c-0.06,0.06-0.13,0.13-0.2,0.19
			c-0.02,0.02-0.04,0.04-0.06,0.06c-0.01,0.01-0.02,0.03-0.02,0.03c0.02,0.02,0,0.03-0.01,0.05c-0.1,0.1-0.21,0.2-0.31,0.31
			c-0.08,0.08-0.17,0.16-0.25,0.25c-0.01,0.01-0.02,0.03-0.03,0.05c0,0,0.01,0,0.01,0l0.18-0.14c0,0,0,0.01,0.01,0.01
			c-0.03,0.03-0.05,0.07-0.08,0.1c0,0,0.01,0.01,0.01,0.01c0.04-0.03,0.08-0.06,0.11-0.09c0.04-0.05,0.07-0.1,0.13-0.14
			c0.05-0.03,0.09-0.08,0.13-0.12c0,0,0-0.01,0-0.01c-0.01-0.01-0.02-0.01-0.04-0.02c0.06-0.02,0.11-0.05,0.11-0.11
			c0.11-0.11,0.21-0.22,0.32-0.33c0.08-0.08,0.16-0.15,0.24-0.22c0.03-0.03,0.06-0.06,0.08-0.08c0,0,0.01,0,0.01,0.01
			c0,0.02,0,0.04-0.01,0.06c0.05-0.09,0.14-0.14,0.21-0.21c0,0,0.01,0.01,0.01,0.01c-0.02,0.02-0.04,0.04-0.06,0.06c0,0,0,0,0,0.01
			c0.01-0.01,0.03-0.01,0.04-0.02c0,0,0.01,0.01,0.01,0.01c-0.01,0.02-0.02,0.05-0.04,0.06c-0.07,0.03-0.1,0.09-0.14,0.14
			C18.05,7.45,18,7.52,17.93,7.57c-0.04,0.03-0.05,0.07-0.09,0.1c0.08,0,0.1-0.07,0.16-0.1c-0.05,0.07-0.11,0.13-0.17,0.19
			c-0.04,0.04-0.09,0.09-0.13,0.13C17.66,7.94,17.62,8,17.56,8c-0.02,0.04-0.03,0.08-0.05,0.1c-0.03,0.04-0.07,0.07-0.11,0.1
			c-0.1,0.1-0.2,0.19-0.3,0.29C17.07,8.53,17.03,8.56,17,8.6c-0.01-0.01-0.02-0.01-0.02-0.02c0,0,0,0,0,0c0,0,0,0,0,0
			c-0.01,0-0.01-0.01-0.02-0.01c0,0-0.01,0.01-0.01,0.01c0,0,0,0,0,0c0,0,0,0-0.01,0c-0.03,0.03-0.06,0.06-0.08,0.1
			c0,0,0.01,0.01,0.01,0.01c0.03-0.03,0.07-0.05,0.1-0.08c0,0,0-0.01,0-0.01c0.01,0,0.01,0.01,0.02,0.01
			c-0.06,0.05-0.12,0.11-0.18,0.17c0,0,0,0,0,0c-0.02-0.02-0.03-0.03-0.05-0.05c0.05-0.03,0.08-0.06,0.07-0.09
			c-0.02,0.03-0.05,0.06-0.07,0.08c-0.03-0.03-0.06-0.06-0.09-0.09c0.03-0.03,0.06-0.06,0.08-0.08c0,0,0,0,0.01,0
			c0,0.01-0.01,0.02-0.01,0.03c0,0,0.01,0.01,0.01,0.01c0.07-0.06,0.14-0.12,0.2-0.18c0-0.01-0.01-0.01-0.01-0.02
			c-0.03,0.02-0.06,0.05-0.09,0.07c-0.02-0.04-0.04-0.04-0.06-0.01c-0.02,0.02-0.03,0.04-0.05,0.06c-0.03,0.03-0.05,0.05-0.08,0.08
			c-0.01,0.01-0.02,0.02-0.02,0.02c-0.03-0.03-0.06-0.05-0.08-0.08c-0.02,0.02-0.03,0.04-0.05,0.07c0.01,0.01,0.02,0.01,0.03,0.02
			c0.02,0.01,0.05,0.02,0.07,0.04c-0.01,0.01-0.01,0.01-0.02,0.02c-0.01,0.01-0.01,0.01-0.01,0.02c0,0-0.01,0-0.01-0.01
			c0,0-0.01,0.01-0.01,0.01l0.01,0.01c-0.01,0.02-0.02,0.04-0.04,0.06c0,0,0,0,0,0c0.02-0.02,0.03-0.03,0.05-0.05
			c0.05,0.03,0.1,0.06,0.15,0.09c-0.05,0.04-0.1,0.08-0.15,0.12c0.01,0,0.01,0,0.02,0.01c-0.01,0.01-0.02,0.03-0.04,0.04
			c-0.03,0.01-0.06,0.02-0.08,0.03c-0.03,0.01-0.05,0.03-0.08,0.05c-0.01-0.01-0.03-0.03-0.04-0.04C16.35,9.01,16.35,9,16.35,8.99
			c-0.01-0.02-0.03-0.04-0.05-0.06c-0.01-0.01-0.03-0.02-0.04-0.04c-0.13,0.16-0.27,0.31-0.41,0.47c-0.04,0.03-0.08,0.05-0.11,0.08
			c-0.11,0.09-0.23,0.17-0.34,0.26c-0.07,0.05-0.13,0.1-0.19,0.16c-0.09,0.08-0.17,0.17-0.25,0.26c-0.04,0.05-0.09,0.1-0.13,0.15
			c0,0,0.01,0.01,0.01,0.01c0.03-0.04,0.06-0.08,0.1-0.11c0.04-0.04,0.09-0.08,0.14-0.12c0.02-0.01,0.03-0.04,0.06-0.02
			c0,0,0.02-0.01,0.01-0.01c-0.02-0.04,0.02-0.03,0.03-0.04c0.02-0.01,0.04-0.02,0.06-0.03c0.02-0.02,0.04-0.02,0.06,0.02
			c0.02-0.01,0.03-0.02,0.04-0.04c-0.24,0.26-0.49,0.51-0.73,0.77c-0.03,0.03-0.06,0.05-0.09,0.08c-0.04,0.04-0.09,0.08-0.12,0.14
			c-0.02,0.03-0.06,0.06-0.09,0.08c-0.03,0.02-0.04,0.05-0.06,0.08c-0.02,0.02-0.07,0.02-0.1,0.04c-0.04,0.03-0.08,0.06-0.12,0.1
			c-0.03,0.03-0.05,0.06-0.08,0.09c0,0,0,0,0,0c0.04-0.02,0.08-0.05,0.12-0.07c0,0,0.01,0.01,0.01,0.01
			c-0.01,0.01-0.01,0.02-0.02,0.03c-0.04,0.04-0.07,0.07-0.11,0.11c-0.03,0.04-0.07,0.07-0.1,0.11c-0.03,0.04-0.08,0.06-0.09,0.12
			c0,0.01-0.03,0.01-0.05,0.02c-0.02,0-0.04,0-0.05,0.01c0.03-0.03,0.05-0.06,0.08-0.09c0,0,0,0,0,0c-0.04,0.04-0.09,0.09-0.13,0.13
			c0,0,0.01,0.01,0.01,0.01c0.01-0.02,0.03-0.03,0.04-0.05c0,0,0,0,0,0c0.01,0,0.02,0,0.03,0.01c0,0,0,0.01,0.01,0.01
			c-0.2,0.1-0.35,0.27-0.53,0.4c0.04-0.02,0.08-0.05,0.12-0.07c0.03-0.02,0.05-0.06,0.11-0.02c-0.03,0.01-0.03,0.07-0.08,0.04
			c0,0-0.01,0.01-0.02,0.02c-0.01,0.01-0.01,0.02-0.02,0.03c-0.02,0.03-0.05,0.05-0.07,0.08c-0.04,0.04-0.09,0.08-0.14,0.11
			c-0.01,0-0.01,0.01-0.02,0.01c0.01,0.01,0.01,0.01,0.02,0.02c0.03-0.03,0.07-0.05,0.1-0.08c0.08-0.06,0.15-0.13,0.22-0.19
			c0.02-0.01,0.04-0.02,0.06-0.03c0.01-0.02,0.02-0.05,0.04-0.05c0.04-0.01,0.03-0.03,0.03-0.07c-0.04,0.03-0.08,0.06-0.11,0.08
			c0,0-0.01-0.01-0.01-0.01c0.03-0.04,0.06-0.08,0.11-0.11c0,0.01,0.01,0.02,0.01,0.03c0.09-0.07,0.18-0.13,0.26-0.19
			c0.01,0.01,0.01,0.02,0.02,0.03c-0.05,0.05-0.12,0.09-0.15,0.16c0,0,0.01,0.01,0.01,0.01c0.05-0.04,0.09-0.08,0.14-0.12
			c-0.01,0.01-0.01,0.01-0.02,0.02c-0.04,0.04-0.09,0.08-0.13,0.12c0,0-0.01,0-0.01,0c0-0.01,0-0.02,0-0.03
			c-0.01,0.01-0.02,0.03-0.02,0.04c0,0.06-0.08,0.13-0.14,0.13c-0.01,0-0.02,0.01-0.03,0.01c-0.01,0.02-0.02,0.04-0.03,0.06
			c-0.03-0.01-0.05-0.01-0.06-0.01l-0.01,0.01c0.04,0.01,0.03,0.03,0.01,0.04c-0.03,0.03-0.07,0.05-0.1,0.08
			c-0.02,0.03-0.04,0.06-0.06,0.09c-0.07,0.07-0.15,0.14-0.22,0.21c-0.03,0.03-0.08,0.05-0.11,0.08c-0.01,0.01-0.04,0.02-0.03,0.03
			c0.01,0.07-0.07,0.04-0.08,0.08c-0.04-0.02-0.04,0.02-0.05,0.03c-0.03,0.01-0.06,0.04-0.09,0.05c-0.03,0.02-0.04,0.08-0.1,0.04
			c-0.01,0.02-0.01,0.03-0.02,0.05c0,0,0,0,0.01,0c-0.12,0.12-0.24,0.24-0.36,0.36l-0.01-0.01c0.03-0.04,0.06-0.07,0.09-0.11
			c-0.04-0.01-0.06,0.07-0.11,0.02c0,0.01-0.01,0.02-0.01,0.02c0.02,0.03,0,0.05-0.02,0.07c-0.06,0.08-0.13,0.15-0.2,0.23
			c-0.09,0.09-0.18,0.18-0.26,0.27c-0.02,0.02-0.06,0.04-0.07,0.06c-0.02,0.08-0.11,0.08-0.16,0.15c0-0.03,0-0.05,0-0.07
			c-0.02,0.01-0.03,0.01-0.04,0.02c-0.02,0.02-0.04,0.05-0.06,0.08c-0.02,0.02-0.03,0.04-0.05,0.06c-0.03,0.03-0.05,0.06-0.08,0.08
			c-0.02,0.02-0.04,0.05-0.07,0.07c-0.02,0.02-0.05,0.02-0.07,0.03c-0.03,0.02-0.05,0.05-0.08,0.06c-0.02,0.02-0.05,0.04-0.09,0.01
			c0.06-0.06,0.12-0.11,0.18-0.16c0,0-0.01-0.01-0.01-0.01c-0.05,0.04-0.11,0.09-0.16,0.14c-0.03,0.03-0.06,0.03-0.09-0.01
			c0.08-0.07,0.16-0.13,0.24-0.2c0,0,0,0,0.01,0c-0.03,0.04-0.06,0.07-0.09,0.11c0,0,0.01,0.01,0.01,0.01
			c0.05-0.05,0.1-0.1,0.15-0.15c0,0,0.01,0.01,0.01,0.01c-0.01,0.01-0.02,0.03-0.03,0.04c0.01,0,0.02,0,0.03-0.01
			c0.03-0.04,0.07-0.07,0.1-0.11c0.01-0.01,0.01-0.02,0.02-0.05c-0.06,0.04-0.11,0.07-0.17,0.1c0.07-0.08,0.13-0.15,0.19-0.22
			c0.11-0.12,0.22-0.24,0.34-0.36c0.09-0.1,0.19-0.2,0.28-0.3c0.02-0.02,0.04-0.04,0.07-0.06c0,0-0.01-0.01-0.01-0.01
			c-0.03,0.03-0.06,0.05-0.09,0.08c-0.11,0.11-0.22,0.23-0.33,0.34c-0.05,0.05-0.11,0.1-0.16,0.15c-0.06,0.05-0.11,0.11-0.16,0.17
			c-0.12,0.12-0.25,0.24-0.37,0.36c-0.08,0.09-0.17,0.18-0.25,0.27c-0.09,0.1-0.19,0.2-0.28,0.3c-0.04,0.05-0.08,0.1-0.08,0.17
			c0.01-0.01,0.02-0.02,0.02-0.03c0.04-0.06,0.07-0.13,0.11-0.18c0.12-0.12,0.25-0.24,0.37-0.36c0.03-0.03,0.05-0.03,0.09,0.01
			c-0.01,0.01-0.02,0.02-0.02,0.02c0.02,0,0.06-0.01,0.09-0.01c0.04,0,0.08,0,0.12,0c-0.01,0.01-0.02,0.04-0.04,0.06
			c-0.02,0.02-0.04,0.04-0.07,0.07c-0.03-0.03-0.06-0.05-0.1-0.06c0.03,0.03,0.05,0.05,0.08,0.08c-0.04,0.04-0.09,0.06-0.13,0.1
			c-0.06,0.06-0.1,0.12-0.18,0.17c-0.09,0.06-0.17,0.13-0.25,0.2c-0.01,0.01-0.03,0.02-0.04,0.03c-0.03,0.01-0.06,0.02-0.08,0.04
			c-0.07,0.09-0.14,0.18-0.21,0.27c-0.05,0.07-0.1,0.14-0.14,0.2c-0.01-0.01-0.01-0.02-0.02-0.03c-0.01,0-0.01,0.01-0.02,0.01
			c0.01,0.01,0.02,0.02,0.02,0.03c-0.01,0.02-0.03,0.04-0.04,0.06c0,0.01-0.01,0.02-0.01,0.02c0,0-0.01-0.01-0.01-0.01
			c0,0.01,0,0.01,0.01,0.01c-0.01,0.01-0.01,0.02-0.02,0.04c0.02,0,0.03,0,0.04,0c0,0.01,0.01,0.02,0.01,0.02
			c-0.01,0.02-0.02,0.04-0.02,0.06c0,0,0,0,0.01,0c0.01-0.01,0.02-0.02,0.03-0.03c0.03,0.05-0.04,0.06-0.03,0.1
			c0.02-0.01,0.05-0.03,0.05-0.03c0.03,0.04,0.05,0.01,0.08,0c0.03,0.03,0.02,0.05-0.02,0.08c-0.03,0.02-0.07,0.05-0.09,0.07
			c-0.06,0.05-0.11,0.1-0.17,0.15c0,0-0.01,0.01-0.02,0.01c0,0,0,0,0,0c0.05-0.06,0.1-0.11,0.15-0.17c0,0-0.01-0.01-0.01-0.01
			c-0.04,0.03-0.08,0.06-0.11,0.1l-0.01-0.01c0.04-0.04,0.09-0.09,0.13-0.13l-0.01-0.01c-0.26,0.22-0.5,0.46-0.72,0.74
			C9.1,16.5,9.2,16.4,9.33,16.34c-0.05,0.1-0.14,0.16-0.22,0.23c0,0,0.01,0.01,0.01,0.01c0.14-0.13,0.28-0.25,0.42-0.38
			c0.01,0.02,0.02,0.04,0.03,0.06c-0.01,0.01-0.01,0.01-0.02,0.02c0.01,0,0.02-0.01,0.02-0.02c0,0.01,0.01,0.01,0.01,0.02
			c0,0,0.01-0.01,0.01-0.01c0-0.01-0.01-0.01-0.01-0.02c0.01,0,0.01-0.01,0.02-0.01c0.01,0.02,0.01,0.03,0.02,0.05
			c-0.04,0.04-0.09,0.07-0.13,0.11c-0.01-0.01-0.01-0.03-0.01-0.03c0.01-0.01,0-0.02,0-0.03c0,0,0,0,0-0.01c0,0,0,0,0,0
			c-0.01-0.01-0.02-0.02-0.03-0.04c0,0.03-0.01,0.05,0,0.08c0,0.01-0.01,0.02-0.01,0.03c0.01,0,0.01,0,0.02,0.01
			c0,0,0-0.01,0.01-0.01c0.01,0.01,0.02,0.01,0.03,0.01c0,0,0,0,0,0c0.01,0,0.02,0.01,0.02,0.01c0.01,0.06-0.06,0.07-0.07,0.12
			c0.02-0.02,0.04-0.03,0.07-0.05c0.01,0.02,0.02,0.03,0.02,0.05c0,0.01,0,0.04-0.01,0.04c-0.02,0.01-0.05,0.02-0.08,0.02
			c0,0.02,0,0.04,0.01,0.05c0.03,0.03,0.03,0.06,0,0.09c-0.04-0.02-0.04-0.09-0.1-0.08c0.01,0.08,0.01,0.15,0.02,0.23
			c-0.02,0.02-0.03,0.04-0.01,0.07c0.07,0.08,0.13,0.16,0.2,0.24c0,0,0.01,0.01,0.02,0.01c-0.02-0.03-0.04-0.06-0.06-0.09
			c0,0,0.01-0.01,0.01-0.01c0.07,0.09,0.17,0.16,0.21,0.28c0,0,0,0,0.01,0c-0.01,0.01-0.02,0.02-0.03,0.03
			c-0.01,0-0.02-0.01-0.02-0.01c0.01,0.01,0.01,0.01,0.02,0.02c-0.02,0.02-0.04,0.04-0.07,0.05c0,0,0.01,0.01,0.01,0.01
			c0.02-0.02,0.04-0.04,0.07-0.06c0.02,0.01,0.04,0.03,0.05,0.04c0,0-0.01,0.01-0.01,0.01c0,0,0.01,0.01,0.01,0.01
			c0,0,0.01-0.01,0.01-0.01c0.02,0.01,0.03,0.03,0.05,0.04c0.01,0.01,0.02,0.01,0.03,0.02c-0.04,0.03-0.07,0.06-0.12,0.08
			c0-0.01,0.01-0.01,0.02-0.03c-0.05,0.06-0.13,0.07-0.15,0.16c0.1-0.06,0.2-0.12,0.29-0.18c0.02,0.01,0.03,0.02,0.01,0.05
			c-0.01-0.01-0.02-0.01-0.05-0.02c0.01,0.01,0.01,0.02,0.01,0.02c0.02,0.01,0.03,0.03,0.05,0.04c-0.01,0.01-0.02,0.02-0.03,0.02
			c0,0,0,0.01,0.01,0.01c0.01-0.01,0.03-0.01,0.04-0.02c0.05,0.04,0.1,0.08,0.14,0.12c0.04,0.03,0.07,0.07,0.08,0.12
			c-0.01,0-0.02,0-0.04,0c0.05,0.06,0.1,0.11,0.14,0.17c0-0.01,0-0.02,0.01-0.03c0.01,0.01,0.03,0.02,0.03,0.03
			c0.01,0.02,0.02,0.05,0.03,0.07c-0.02,0.02-0.05,0.04-0.07,0.05c0,0,0,0,0,0c0,0,0,0-0.01,0.01c0,0,0,0,0,0
			c-0.01,0.01-0.01,0.01-0.02,0.02c-0.1-0.12-0.2-0.24-0.29-0.36c0.01-0.01,0.01-0.01,0.02-0.02c0,0-0.01-0.01-0.01-0.01
			c-0.01,0.01-0.01,0.01-0.02,0.02c-0.02-0.03-0.04-0.05-0.06-0.08c0.02-0.02,0.05-0.04,0.07-0.05c0,0-0.01-0.01-0.01-0.01
			c-0.02,0.02-0.05,0.03-0.07,0.05c0,0,0,0,0,0c0,0,0,0,0,0c-0.01,0.01-0.02,0.01-0.03,0.02c-0.03,0.02-0.06,0.05-0.09,0.08
			c0,0,0,0,0,0c0.04-0.03,0.08-0.06,0.13-0.09c0.02,0.03,0.04,0.05,0.06,0.08c-0.02,0.01-0.04,0.03-0.06,0.04
			c0,0.01,0.01,0.01,0.01,0.02c0.02-0.01,0.04-0.03,0.06-0.04c0.08,0.13,0.17,0.26,0.27,0.38c-0.01,0-0.01,0.01-0.02,0.01
			c-0.01-0.01-0.03-0.03-0.04-0.04c0,0-0.01,0.01-0.01,0.01c0.01,0.02,0.02,0.03,0.04,0.05c0,0-0.01,0-0.01,0.01
			c0,0,0.01,0,0.01-0.01c0.09,0.11,0.18,0.23,0.27,0.34c0.01,0,0.01-0.01,0.02-0.01c0-0.02-0.01-0.04-0.01-0.07
			c0.01,0.01,0.01,0.01,0.02,0.02c0,0,0.01,0.01,0.01,0.01c0,0,0,0,0,0c0.04,0.04,0.08,0.08,0.12,0.12c0-0.01,0-0.02,0-0.03
			c-0.03-0.04-0.07-0.07-0.1-0.11c0.01-0.01,0.02-0.01,0.02-0.02c0.05,0.07,0.11,0.14,0.16,0.21c0.04,0.05,0.08,0.1,0.12,0.16
			c0.09,0.11,0.18,0.23,0.27,0.34c0.05,0.07,0.11,0.13,0.17,0.19c0.08,0.08,0.17,0.16,0.26,0.24c0.05,0.04,0.1,0.08,0.15,0.12
			c0,0,0.01-0.01,0.01-0.01c-0.04-0.03-0.08-0.06-0.12-0.09c-0.04-0.04-0.08-0.09-0.12-0.14c-0.01-0.02-0.04-0.02-0.02-0.06
			c0,0-0.01-0.02-0.02-0.01c-0.03,0.02-0.03-0.02-0.04-0.03c-0.01-0.02-0.02-0.04-0.03-0.06c-0.02-0.02-0.02-0.04,0.02-0.06
			c-0.03-0.04-0.06-0.07-0.09-0.11l-0.01,0.01c0.02,0.03,0.03,0.06,0.05,0.1c-0.01-0.01-0.02-0.01-0.03-0.01
			c-0.05-0.03-0.09-0.06-0.14-0.09c-0.02-0.02-0.06-0.05-0.05-0.07c0.02-0.04-0.01-0.05-0.02-0.08c-0.02-0.03-0.03-0.06-0.04-0.09
			c0,0,0.01-0.02,0.02-0.02c0.02,0,0.04,0.01,0.05,0.02c0.03,0.03,0.05,0.06,0.07,0.09c0.05,0.06,0.11,0.12,0.17,0.18
			c0.01,0.01,0.02,0.01,0.03,0.02c0.01-0.01,0.01-0.02,0.02-0.03c0.05,0.07,0.09,0.13,0.14,0.2c0.01-0.01,0.01-0.02,0.02-0.04
			c0.03,0.04,0.05,0.08,0.08,0.12c0.01,0.01,0.03,0.02,0.04,0.03c0.02,0.01,0.05,0.03,0.07,0.04c0.01,0.01,0,0.02,0.01,0.03
			c0.03,0.02,0.06,0.04,0.08,0.07c0.05,0.05,0.12,0.09,0.14,0.17c0,0.01,0.02,0.02,0.03,0.03c0.03,0.02,0.05,0.04,0.08,0.07
			c0.04,0.04,0.08,0.09,0.12,0.13c0.04,0.04,0.08,0.09,0.14,0.12c0.03,0.02,0.06,0.06,0.08,0.09c0.02,0.03,0.05,0.04,0.08,0.06
			c0.02,0.02,0.02,0.07,0.04,0.1c0.03,0.04,0.06,0.08,0.1,0.12c0.03,0.03,0.06,0.05,0.09,0.08c0,0,0,0,0,0l-0.07-0.12
			c0,0,0.01-0.01,0.01-0.01c0.01,0.01,0.02,0.01,0.03,0.02c0.04,0.04,0.07,0.07,0.11,0.11c0.04,0.03,0.08,0.07,0.12,0.1
			c0.04,0.03,0.06,0.08,0.12,0.09c0.01,0,0.02,0.03,0.02,0.05c0,0.02,0.01,0.04,0.01,0.06c0,0,0.01,0,0.01,0c0-0.01,0-0.02,0-0.03
			c0,0,0.01,0,0.01-0.01c0.11,0.2,0.28,0.35,0.41,0.52c-0.02-0.04-0.05-0.08-0.08-0.12c-0.02-0.03-0.06-0.05-0.02-0.1
			c0.01,0.03,0.07,0.03,0.05,0.08c0,0,0.01,0.01,0.02,0.02c0.01,0.01,0.02,0.01,0.03,0.02c0.03,0.02,0.05,0.05,0.08,0.07
			c0.04,0.04,0.08,0.09,0.12,0.13c0,0.01,0.01,0.01,0.01,0.02c0.02,0.01,0.04,0.02,0.06,0.04c-0.04-0.05-0.08-0.1-0.12-0.15
			c-0.06-0.07-0.13-0.14-0.2-0.22c-0.01-0.02-0.02-0.04-0.03-0.06c-0.02-0.01-0.05-0.02-0.05-0.04c-0.01-0.04-0.03-0.03-0.07-0.03
			c0.03,0.04,0.06,0.07,0.09,0.11c0,0-0.01,0.01-0.01,0.01c-0.04-0.03-0.09-0.05-0.11-0.1c0.01,0,0.02-0.01,0.03-0.01
			c-0.07-0.09-0.14-0.17-0.2-0.26c0.01-0.01,0.02-0.01,0.03-0.02c0.05,0.05,0.09,0.12,0.16,0.14c0,0,0.01-0.01,0.01-0.01
			c-0.06-0.07-0.12-0.13-0.17-0.2c0,0,0.01-0.01,0.01-0.01c0.02,0.02,0.03,0.05,0.05,0.07c0.02,0.02,0.04,0.03,0.07,0.05l0.01-0.01
			c0-0.01-0.01-0.02-0.01-0.03c0,0,0.01-0.01,0.01-0.01c0.04,0.03,0.08,0.07,0.12,0.1c0,0,0.01-0.01,0.01-0.01
			c-0.05-0.06-0.1-0.13-0.15-0.19c0.05,0.04,0.11,0.08,0.14,0.14c0.03,0.07,0.09,0.11,0.15,0.14c0.01,0.01,0.02,0.01,0.03,0.02
			c0.01-0.03-0.01-0.05-0.03-0.07c-0.04-0.04-0.08-0.09-0.11-0.13c-0.02-0.03-0.05-0.06-0.07-0.09c-0.01-0.01-0.02-0.03-0.04-0.04
			c-0.02-0.02-0.05-0.03-0.03-0.08c0.02,0.02,0.05,0.04,0.07,0.06c-0.02-0.03-0.05-0.07-0.08-0.09c-0.05-0.02-0.08-0.06-0.11-0.1
			c-0.01-0.01-0.12-0.01-0.13-0.01c0,0-0.01,0-0.01,0.01c-0.16-0.19-0.31-0.37-0.47-0.56c0,0,0.01-0.01,0.01-0.01
			c0.04,0.03,0.08,0.07,0.12,0.1c0.01,0.01,0.02,0.01,0.04,0.02c0,0,0.01-0.02,0.01-0.02c-0.01-0.01-0.02-0.02-0.03-0.03
			c-0.01-0.01-0.03-0.02-0.04-0.03c0,0,0.01-0.01,0.01-0.01c0.01,0.01,0.02,0.02,0.04,0.03c0.03,0.02,0.06,0.05,0.09,0.05
			c0.05,0,0.09,0.02,0.11,0.05c0.04,0.05,0.08,0.1,0.12,0.16c0,0-0.01,0.01-0.01,0.01c0,0.01,0.01,0.02,0.01,0.02
			c-0.01,0.04-0.01,0.04,0.03,0.04c0.03,0,0.08,0.05,0.09,0.09c-0.01-0.01-0.02-0.03-0.04-0.04c0,0-0.01,0-0.02,0.01
			c-0.03-0.02-0.06-0.03-0.08-0.05c-0.05-0.04-0.1-0.09-0.14-0.14c0,0-0.01,0.01-0.01,0.01c0.06,0.03,0.06,0.09,0.11,0.13
			c0.07,0.04,0.13,0.11,0.19,0.17c0.05,0.04,0.09,0.07,0.14,0.11c0.03,0.03,0.06,0.06,0.08,0.1c0.02,0.02,0.03,0.03,0.05,0.02
			c-0.03-0.02-0.06-0.04-0.07-0.07c-0.02-0.03-0.04-0.07-0.05-0.1c0-0.01-0.01-0.01-0.02-0.03c0.05,0.05,0.09,0.09,0.14,0.14
			c0.04,0.05,0.09,0.09,0.13,0.14c0.01,0.01,0.02,0.03,0.03,0.05c0.01,0.03,0.02,0.06,0.06,0.06c-0.01-0.02-0.03-0.03-0.04-0.05
			c0,0,0.01-0.01,0.01-0.01c0.02,0.02,0.04,0.04,0.06,0.07c-0.01,0.01-0.02,0.02-0.03,0.03c0,0,0,0,0,0
			c0.01,0.01,0.02,0.03,0.03,0.04c-0.02,0-0.03-0.01-0.04-0.02c-0.03-0.03-0.06-0.07-0.09-0.1c-0.01-0.01-0.02-0.01-0.04-0.02
			c0.02,0.04,0.03,0.07,0.05,0.09c0.07,0.07,0.15,0.14,0.22,0.21c0.09,0.1,0.18,0.19,0.28,0.29c-0.01,0-0.01,0-0.02,0.01
			c-0.02-0.01-0.04-0.03-0.06-0.04c0,0-0.01-0.01-0.01-0.01c-0.02-0.02-0.03-0.03-0.04-0.05c-0.01-0.02-0.02-0.03-0.03-0.05
			c-0.04-0.06-0.11-0.09-0.17-0.14c0.01,0,0.01,0.01,0.02,0.01c-0.01-0.02-0.02-0.05-0.04-0.06c-0.01,0-0.02,0-0.03,0.01
			c-0.02-0.01-0.04-0.02-0.06-0.01c-0.01,0-0.02,0-0.03-0.01c0.02-0.02,0.04-0.04,0.04-0.04c-0.01-0.01-0.02-0.03-0.03-0.04
			c0,0-0.01,0.01-0.01,0.01L13.56,21c0,0-0.01,0-0.01,0c-0.01,0.01-0.01,0.03-0.02,0.04c0,0,0,0,0,0c0,0,0,0,0,0
			c0,0.01-0.01,0.01-0.01,0.02c0,0,0,0.01,0.01,0.01c0.01-0.01,0.02-0.01,0.03-0.01c0.01,0.01,0.01,0.02,0.03,0.03
			c0,0.02,0.02,0.03,0.03,0.05c0,0,0.01-0.01,0.01-0.01c0-0.01-0.01-0.01-0.01-0.02c0.01,0.01,0.03,0.02,0.04,0.01
			c0.01,0.03,0.02,0.06,0.06,0.07c0,0,0.01,0.01,0.01,0.02c-0.01-0.01-0.02-0.02-0.02-0.02c0,0-0.01,0.01-0.01,0.01
			c-0.01-0.01-0.02-0.01-0.02-0.02c0,0.01,0,0.02,0,0.02c0,0-0.01,0.01-0.01,0.01c-0.04-0.04-0.08-0.08-0.12-0.12
			c0,0-0.01-0.01-0.01-0.02c0,0,0,0,0,0c-0.01-0.01-0.01-0.03-0.02-0.04c-0.01-0.01-0.03-0.02-0.03-0.03c0-0.05-0.03-0.05-0.07-0.05
			c0.03,0.04,0.06,0.07,0.09,0.11c-0.02,0.02-0.03,0.04-0.05,0.06c0.01,0,0.01,0.01,0.02,0.01c-0.01,0.03-0.01,0.05-0.01,0.06
			c0,0,0.01,0.01,0.01,0.01c0.01-0.04,0.03-0.03,0.04-0.01c0.03,0.03,0.05,0.07,0.08,0.1c0.02,0.03,0.06,0.04,0.08,0.07
			c0.07,0.07,0.14,0.15,0.21,0.23c0.03,0.03,0.05,0.08,0.08,0.12c0.01,0.01,0.02,0.04,0.03,0.03c0.07-0.01,0.04,0.07,0.07,0.09
			c0,0.01,0,0.01,0,0.01c0,0-0.01,0.01-0.01,0.01c-0.03-0.04-0.07-0.09-0.1-0.13c0,0.01,0.01,0.02,0.02,0.04
			c-0.04-0.02-0.06-0.03-0.09-0.04c0.02,0.03,0.05,0.06,0.06,0.08c0.04,0.03,0.07,0.05,0.1,0.07C14,21.86,14,21.87,13.99,21.87
			c0,0,0.01,0.01,0.01,0.01c0.01-0.01,0.02-0.02,0.02-0.03c0.01,0,0.01,0.01,0.02,0.02c0,0,0,0,0-0.01
			c-0.01-0.01-0.01-0.01-0.02-0.02c0,0,0,0,0.01-0.01c0.01,0.01,0.02,0.01,0.03,0.02c0.01,0.03,0.03,0.06,0.05,0.09
			c0.02,0.03,0.08,0.04,0.03,0.1c0,0,0.01,0,0.01,0c0,0.01-0.01,0.01-0.01,0.02c-0.01,0.09-0.1,0.11-0.15,0.17
			c-0.02,0.02-0.04,0.04-0.07,0.07c0.03,0,0.06-0.04,0.08,0.01c0.01-0.02,0.02-0.03,0.03-0.04c0.02-0.02,0.04-0.05,0.06-0.06
			c0.03-0.02,0.06-0.04,0.06-0.08c0-0.03,0.01-0.05,0.02-0.08c0.01,0,0.01,0,0.02,0.01c0,0,0,0,0-0.01
			c0.12,0.12,0.23,0.25,0.35,0.37c0,0-0.01,0.01-0.01,0.01c-0.04-0.03-0.07-0.07-0.11-0.1c-0.01,0.04,0.07,0.06,0.02,0.11
			c0.01,0,0.02,0.01,0.02,0.01c0.03-0.02,0.05,0,0.07,0.02c0.08,0.07,0.15,0.13,0.22,0.2c0.09,0.09,0.18,0.18,0.26,0.27
			c0.02,0.02,0.03,0.06,0.06,0.07c0.08,0.02,0.08,0.11,0.15,0.16c-0.03,0-0.05,0-0.07-0.01c0.01,0.02,0.01,0.03,0.02,0.04
			c0.02,0.02,0.05,0.04,0.08,0.06c0.02,0.02,0.04,0.03,0.06,0.05c0.03,0.03,0.05,0.06,0.08,0.08c0.02,0.02,0.05,0.04,0.07,0.07
			c0.02,0.02,0.02,0.05,0.03,0.07c0.02,0.03,0.04,0.05,0.06,0.08c0.02,0.02,0.04,0.05,0,0.09c-0.05-0.06-0.1-0.12-0.16-0.18
			c0,0-0.01,0.01-0.01,0.01c0.04,0.05,0.08,0.11,0.13,0.16c0.02,0.02,0.02,0.03,0.02,0.04l0.06,0.06c0,0,0,0,0-0.01
			c0.01,0.01,0.02,0.02,0.02,0.02c0-0.02-0.01-0.06-0.01-0.09c0-0.04,0-0.08,0-0.12c0.01,0.01,0.04,0.02,0.05,0.04
			c0.03,0.03,0.05,0.05,0.08,0.08c0.04,0.04,0.06,0.09,0.1,0.13c0.06,0.06,0.12,0.11,0.16,0.18c0.05,0.09,0.13,0.17,0.2,0.26
			c0.01,0.01,0.02,0.03,0.02,0.04c0.01,0.03,0.02,0.06,0.04,0.08c0.09,0.08,0.18,0.15,0.27,0.22c0.09,0.07,0.19,0.14,0.28,0.2
			c0.02,0.01,0.04,0.02,0.07,0.03c0-0.03,0-0.04,0-0.06c0,0,0,0,0.01,0c0.09,0.08,0.19,0.16,0.28,0.24
			c0.03,0.02,0.06,0.05,0.08,0.07c0.04,0.05,0.08,0.1,0.12,0.15c0.01,0.01,0.03,0.02,0.04,0.03c-0.04-0.06-0.07-0.11-0.11-0.17
			c0-0.01-0.01-0.01-0.02-0.01c-0.05-0.01-0.05-0.05-0.07-0.09c0.01,0,0.02,0,0.02,0.01c0.07,0.08,0.14,0.17,0.22,0.25
			c0,0,0,0-0.01,0c0.03,0.03,0.05,0.05,0.06,0.05c0.03,0.03,0.07,0.06,0.1,0.09c-0.02-0.01-0.04-0.03-0.06-0.04
			c-0.05-0.02-0.1-0.04-0.15-0.06c0.04,0.03,0.08,0.05,0.1,0.09c0.02,0.04,0.05,0.06,0.09,0.09c0.01,0.01,0.02,0.02,0.02,0.04
			c0.01,0.01,0.01,0.03,0.01,0.05c0,0,0.01,0,0.01,0c0-0.01,0-0.03,0-0.04c0,0,0.01,0,0.01-0.01c0.07,0.06,0.15,0.13,0.21,0.18
			c0.02,0.01,0.03,0,0.04,0.01c0.03,0.02,0.06,0.04,0.09,0.07c0-0.09-0.01-0.1-0.07-0.15c-0.02-0.02-0.03-0.04-0.05-0.06
			c0,0,0.01-0.01,0.01-0.01c0.07,0.07,0.15,0.14,0.22,0.21c0.01,0.01,0,0.02,0,0.03c0,0,0-0.01,0.01-0.01
			c0.03,0.02,0.07,0.04,0.1,0.07c0.06,0.06,0.12,0.12,0.18,0.18c0.13,0.13,0.27,0.26,0.41,0.39c0.02,0.02,0.04,0.04,0.05,0.05
			c0,0-0.01,0.01-0.01,0.01l-0.06-0.03c0.04,0.02,0.04,0.09,0.11,0.05c0,0,0.01,0,0.01,0c0.03,0.03,0.06,0.06,0.08,0.08
			c0,0-0.01,0.01-0.01,0.01c-0.01-0.01-0.03-0.02-0.04-0.02c0,0.01-0.01,0.01-0.01,0.02c0.08,0.09,0.16,0.18,0.25,0.27
			c-0.18-0.11-0.31-0.27-0.46-0.41c0,0.02,0,0.03,0,0.03c-0.05-0.03-0.09-0.06-0.13-0.1c0,0,0-0.02,0-0.03
			c-0.06-0.06-0.13-0.13-0.2-0.2c0,0,0,0-0.01,0.01c0.01,0.02,0.03,0.04,0.04,0.06c0,0-0.01,0.01-0.01,0.01
			c-0.02-0.02-0.04-0.04-0.07-0.06c0.03,0.07,0.06,0.12,0.12,0.14c0.05,0.02,0.06,0.05,0.05,0.09c0.04-0.01,0.06,0,0.08,0.03
			c0.01,0.03,0.03,0.05,0.05,0.08c0,0-0.01,0.01-0.01,0.01c-0.01-0.01-0.03-0.01-0.04-0.02c-0.04-0.04-0.08-0.08-0.12-0.11
			c-0.11-0.09-0.21-0.19-0.32-0.28c-0.01,0-0.01-0.01-0.01-0.02c-0.02-0.06-0.02-0.06-0.08-0.07c0.22,0.24,0.47,0.44,0.67,0.7
			c-0.04-0.04-0.08-0.07-0.12-0.11c0,0-0.01,0.01-0.01,0.01c0.11,0.08,0.17,0.2,0.27,0.28c0.05,0.04,0.07,0.09,0.11,0.14
			c0.02,0.02,0.05,0.03,0.07,0.05c0.09,0.07,0.18,0.14,0.26,0.22c0.16,0.14,0.31,0.28,0.46,0.42c0.13,0.13,0.26,0.26,0.39,0.39
			c0.04,0.04,0.09,0.07,0.11,0.12c0.02,0.04,0.05,0.07,0.08,0.11c0.09,0.1,0.18,0.19,0.27,0.29c0.03,0.04,0.08,0.07,0.12,0.09
			c0.06,0.03,0.12,0.04,0.17,0.1c0.01,0.02,0.04,0.03,0.05,0.04c0,0,0-0.01,0.01-0.01c0-0.01-0.01-0.02-0.01-0.03
			c0,0,0.01,0,0.01-0.01c0.02,0.04,0.05,0.08,0.07,0.12c0,0,0.01-0.01,0.01-0.01c-0.01-0.02-0.02-0.03-0.03-0.06
			c0.02-0.01,0.05-0.03,0.07-0.04c0.02-0.02,0.04-0.03,0.02-0.06c-0.01-0.03-0.01-0.07-0.02-0.1c0-0.01-0.01-0.02-0.01-0.03
			c-0.01,0.02-0.01,0.02-0.02,0.03c-0.06-0.04-0.04-0.1-0.06-0.15c0,0,0.01-0.02,0.02-0.02c0.02,0,0.04,0,0.06,0.01
			c0.05,0.01,0.09,0.03,0.14,0.03c0.03,0,0.05,0.01,0.07,0.03c0,0,0.01,0,0.01,0.01c0-0.01,0.01-0.02,0.01-0.03
			c0.01,0.01,0.02,0.01,0.04,0.02c0,0,0.01-0.01,0.01-0.01c-0.02-0.05-0.05-0.1-0.07-0.15c0.05,0.02,0.1,0.04,0.15,0.07
			c0,0,0,0,0-0.01c-0.02-0.02-0.05-0.05-0.07-0.07c0-0.01,0.01-0.01,0.01-0.02c0.02,0.01,0.04,0.01,0.05,0.02
			c0.03,0.03,0.05,0.06,0.06,0.09c0.01,0.03,0.07,0.04,0.09,0.07c0.04,0.04,0.07,0.09,0.11,0.14c0.02,0.03,0.04,0.07,0.05,0.11
			c0,0,0,0,0,0c-0.01-0.03-0.02-0.06-0.02-0.1l0.01-0.01c0.04,0.05,0.08,0.11,0.12,0.16c0,0,0.01,0,0.01,0
			c-0.01-0.03-0.02-0.06-0.02-0.09c0.01,0.01,0.02,0.01,0.03,0.01c-0.01-0.02-0.03-0.05-0.04-0.08c0.03,0.01,0.06,0.01,0.08,0.02
			c0.01-0.02,0.01-0.05,0.02-0.08c0.06-0.01,0.08,0.07,0.15,0.08c-0.05-0.06-0.13-0.09-0.08-0.18c0.01,0,0.02,0,0.03,0
			c0-0.04,0.01-0.08,0.01-0.12c0.06,0.03,0.12,0.06,0.18,0.09c0,0,0.01-0.01,0.01-0.01c-0.01-0.01-0.02-0.03-0.03-0.04
			c-0.06-0.04-0.11-0.09-0.15-0.16c0.04-0.03,0.06,0,0.09,0.02c0.07-0.06,0.11,0.04,0.18,0.02c-0.02-0.03-0.04-0.05-0.06-0.07
			c-0.01-0.01,0-0.03,0-0.04c0.01,0,0.02,0,0.03,0c0.01,0,0.02,0.01,0.03,0.02c0,0,0.01,0,0.01-0.01c0,0,0-0.01,0-0.01
			c0.06-0.04,0.07-0.08,0.05-0.14c-0.01-0.02,0-0.04,0.01-0.07c0.04,0.02,0.07,0.03,0.11,0.04c-0.02-0.03-0.04-0.05-0.05-0.06
			c0.03-0.01,0.06-0.02,0.08-0.03c0.01,0,0.02,0,0.03,0c0.02,0,0.04,0.01,0.07,0.02c0.05,0.01,0.07,0,0.06-0.06
			c0.04-0.03,0.04-0.04,0.01-0.08c-0.03-0.04-0.05-0.08-0.08-0.13c0,0,0.01-0.01,0.01-0.01c0.04,0.03,0.08,0.07,0.13,0.1
			c0.07,0.04,0.11,0.1,0.1,0.2c0.06-0.02,0.02-0.07,0.05-0.1c0.02,0.01,0.05,0.03,0.07,0.04c-0.01-0.07-0.02-0.13-0.03-0.2
			c0.06,0.04,0.11,0.08,0.16,0.11c0,0,0.01,0,0.01-0.01c-0.03-0.1-0.06-0.2-0.08-0.3c0,0,0.01,0,0.01-0.01
			c0.08,0.04,0.13,0.12,0.2,0.18c0,0,0.01,0,0.01-0.01c-0.01-0.03-0.02-0.07-0.03-0.1c0,0,0.01,0,0.01-0.01
			c0.02,0.01,0.04,0.02,0.07,0.03c-0.01-0.06-0.06-0.11-0.03-0.17c0.01,0,0.02,0.01,0.03,0.01c0,0,0,0,0.01-0.01
			c-0.02-0.02-0.04-0.05-0.05-0.07c0,0,0.01-0.01,0.01-0.01c0.02,0.02,0.04,0.03,0.06,0.05c0.02,0.02,0.04,0.03,0.07,0.01
			c0.02-0.1-0.01-0.18-0.07-0.27c0.06,0.05,0.11,0.09,0.17,0.13c0,0,0.01-0.01,0.01-0.01c-0.01-0.01-0.02-0.03-0.04-0.04
			c-0.04-0.04-0.06-0.08-0.06-0.13c0-0.01,0.01-0.03,0.02-0.04c0.01,0,0.02,0.01,0.03,0.01c0.03,0.02,0.05,0.05,0.08,0.08
			c0.01,0.01,0.04,0.03,0.05,0.02c0.04-0.03,0.06,0.01,0.08,0.03c0.02,0.01,0.04,0.02,0.05,0.02c0-0.01,0.01-0.01,0.01-0.02
			l-0.25-0.23c0-0.02,0-0.04-0.01-0.05c-0.02-0.04-0.04-0.07-0.07-0.11c-0.03-0.04-0.04-0.1-0.09-0.12
			c-0.02-0.01-0.04-0.01-0.06-0.02c-0.04-0.01-0.05-0.04-0.03-0.07c0.14,0.05,0.22,0.18,0.32,0.28c0.02-0.03,0.03-0.05,0.05-0.07
			c0.09,0.04,0.18,0.07,0.27,0.11c0,0,0-0.01,0.01-0.01c-0.01-0.01-0.01-0.02-0.02-0.03c-0.02-0.02-0.02-0.03-0.01-0.06
			c0.01-0.03,0.02-0.06,0.05-0.08c0,0,0-0.01,0-0.02c0-0.02,0-0.04,0.01-0.06c0.03-0.04,0.06-0.08,0.1-0.13
			c0-0.04-0.04-0.07-0.03-0.11C24.02,26.52,24.02,26.51,24.01,26.51z M20.22,10.17c-0.02,0.02-0.03,0.05-0.05,0.07
			c-0.05,0.03-0.1,0.06-0.14,0.09C20.1,10.25,20.18,10.18,20.22,10.17z M19.46,11.08c0.01-0.01,0.01-0.03,0.02-0.04
			c0.01-0.01,0.01-0.01,0.02-0.02c0,0,0.01,0.01,0.01,0.01C19.49,11.05,19.47,11.07,19.46,11.08z M19.77,10.45
			c0.01-0.01,0-0.03,0-0.04c0-0.01,0-0.02,0.01-0.02c0.01,0,0.02,0,0.02,0c0.01,0,0.01,0.01,0.02,0.01
			c0.04-0.03,0.07-0.06,0.11-0.09c0,0.01,0,0.01,0,0.01c-0.06,0.05-0.13,0.11-0.19,0.16C19.75,10.47,19.76,10.46,19.77,10.45z
			 M19.65,10.77c-0.05,0.04-0.09,0.09-0.14,0.13c0,0,0.01,0.01,0.01,0.01c0.01-0.01,0.02-0.02,0.03-0.03
			c-0.01,0.01-0.03,0.03-0.04,0.04c-0.02,0.04-0.05,0.08-0.08,0.12c-0.01-0.04,0.04-0.05,0.04-0.09c-0.02,0.01-0.05,0.03-0.05,0.03
			c-0.01-0.01-0.01,0-0.01-0.01c0.02-0.02,0.04-0.04,0.06-0.05c0.01-0.01,0.01-0.02,0.01-0.02c-0.02-0.05,0.01-0.05,0.04-0.06
			c0,0-0.01,0.01-0.01,0.01c0,0,0.01,0.01,0.01,0.01c0,0,0,0.01,0,0.01c0,0,0,0,0.01,0.01c0.02-0.01,0.03-0.02,0.05-0.03
			c0,0,0-0.01-0.01-0.01c0.02-0.01,0.03-0.03,0.05-0.04C19.63,10.77,19.64,10.76,19.65,10.77C19.65,10.76,19.65,10.76,19.65,10.77z
			 M19.55,10.79c0-0.01,0-0.03,0.01-0.05c0,0.01,0.01,0.02,0.01,0.02C19.57,10.78,19.56,10.78,19.55,10.79z M19.48,10.69
			c0-0.02,0.01-0.04,0.02-0.05c0.02-0.01,0.04-0.03,0.07-0.04c-0.02-0.04,0.03-0.04,0.04-0.07c0.01,0,0.01,0,0.02,0.01
			c0,0.02-0.01,0.04-0.01,0.06c-0.04,0.04-0.09,0.07-0.13,0.11C19.49,10.69,19.48,10.69,19.48,10.69z M19.37,10.89
			c0.03-0.02,0.07-0.04,0.1-0.07c0.02-0.01,0.03-0.03,0.05-0.04c-0.01,0.03-0.03,0.05-0.06,0.07c-0.01,0.01-0.02,0.02-0.02,0.02
			c0,0.04,0,0.07-0.05,0.08c-0.01,0-0.03,0.02-0.04,0.02C19.32,10.94,19.33,10.92,19.37,10.89z M15.29,9.91
			C15.3,9.9,15.3,9.89,15.3,9.89c0.03-0.05,0.06-0.09,0.1-0.14c0.02-0.02,0.06-0.06,0.07-0.05c0.04,0.02,0.05-0.01,0.08-0.02
			c0.01-0.01,0.02-0.01,0.03-0.01c-0.06,0.07-0.13,0.14-0.19,0.2C15.36,9.88,15.33,9.9,15.29,9.91z M9.75,15.63
			C9.76,15.63,9.76,15.63,9.75,15.63C9.76,15.63,9.76,15.63,9.75,15.63C9.76,15.63,9.75,15.63,9.75,15.63z M14.18,16.56
			c-0.01,0.01-0.01,0.01-0.02,0.02c-0.02,0.01-0.02,0.04-0.06,0.02c0,0-0.02,0.01-0.01,0.02c0.02,0.03-0.02,0.03-0.03,0.04
			c0,0-0.01,0.01-0.01,0.01c-0.02-0.01-0.04-0.03-0.06-0.04c-0.01-0.01-0.03-0.02-0.04-0.04c0.02-0.02,0.05-0.03,0.07-0.05
			c0.01,0.01,0.02,0.02,0.04,0.03c0.01,0.01,0.02,0.01,0.05,0.02c-0.03-0.04-0.05-0.08-0.07-0.11c0.01,0,0.01-0.01,0.02-0.01
			C14.1,16.49,14.14,16.53,14.18,16.56z M14.3,11.61c0,0,0.01,0.01,0.01,0.01c0,0,0.01-0.01,0.01-0.01c0,0-0.01-0.01-0.01-0.01
			c0,0,0,0,0-0.01c0.01,0.01,0.01,0.01,0.02,0.02c0,0,0,0.01,0,0.01c0,0,0,0,0,0c-0.01,0-0.01,0.01-0.02,0.01
			c-0.01,0-0.02,0.02-0.02,0.03c0,0,0.01,0.01,0.01,0.02c-0.02,0.01-0.04,0.03-0.06,0.03c0.01-0.01,0.03-0.02,0.04-0.04
			c0,0,0-0.01-0.01-0.02C14.28,11.64,14.29,11.62,14.3,11.61z M14.29,11.58C14.29,11.58,14.29,11.58,14.29,11.58
			c-0.01-0.01-0.02-0.01-0.03-0.02C14.28,11.56,14.28,11.57,14.29,11.58z M13.79,11.89c0.03-0.02,0.07-0.05,0.1-0.07
			c-0.04,0.04-0.07,0.08-0.11,0.11C13.78,11.91,13.78,11.9,13.79,11.89z M13.58,12.16c-0.02,0.01-0.04,0.03-0.05,0.04
			c0,0,0-0.01,0-0.01c-0.02-0.01-0.04-0.02-0.07-0.03c0,0-0.01,0-0.01,0.01c0.03,0.04,0.01,0.04-0.02,0.05
			c-0.02,0.01-0.03,0.02-0.05,0.03c0,0,0.01,0.01,0.01,0.01c0.01-0.01,0.03-0.01,0.04-0.02c0,0.02,0,0.03-0.01,0.04
			c-0.03,0.02-0.07,0.03-0.09,0.07c0,0.01-0.02,0.01-0.02,0.01c0,0,0-0.01-0.01-0.01c0.01-0.02,0.03-0.04,0.04-0.05
			c-0.01,0-0.02,0-0.02,0c0,0-0.01-0.01-0.01-0.01c0.04-0.04,0.08-0.08,0.12-0.13c0.01-0.01,0.03-0.01,0.04-0.02
			c0.03-0.04,0.06-0.08,0.09-0.13c0.04-0.05,0.08-0.1,0.12-0.14c0.02-0.02,0.03-0.03,0.05-0.05c0,0,0,0,0.01,0
			c0.01,0,0.02-0.01,0.03-0.01c0,0,0.01,0.01,0.01,0.01c-0.03,0.04-0.07,0.08-0.1,0.12c0,0,0.01,0.01,0.01,0.01
			c0.01-0.01,0.02-0.01,0.03-0.02c-0.02,0.02-0.03,0.05-0.05,0.06c0,0-0.01,0-0.01,0.01c-0.02,0.02-0.04,0.03-0.06,0.05
			c-0.02,0.02-0.04,0.04-0.07,0.07c0.02,0,0.03-0.01,0.04-0.01c0,0,0,0,0,0c0,0,0.01,0,0.01,0c0.01,0,0.02,0,0.04,0.02
			c0.01-0.02,0.02-0.03,0.03-0.04c0.01-0.01,0.02-0.03,0.04-0.04c0.03-0.03,0.06-0.05,0.09-0.08c0.03-0.02,0.06-0.04,0.09-0.07
			c0.02-0.01,0.03-0.02,0.04-0.04c0.02-0.02,0.03-0.05,0.08-0.03c-0.02,0.02-0.04,0.05-0.06,0.07c0.03-0.02,0.08-0.04,0.09-0.08
			c0.02-0.05,0.06-0.08,0.1-0.11c0.01-0.01,0.02-0.12,0.01-0.13c0,0,0,0,0-0.01c0.01-0.01,0.01-0.01,0.02-0.02
			c0.02-0.01,0.04-0.03,0.06-0.04l0.01,0.01c-0.01,0.01-0.01,0.01-0.02,0.02c0,0,0.01,0.01,0.01,0.01c0.01-0.01,0.01-0.01,0.02-0.02
			c0.01,0.01,0.01,0.01,0.02,0.02c-0.01,0.02-0.02,0.04-0.03,0.06c0.03-0.02,0.04-0.03,0.04-0.05c0.01,0.01,0.01,0.01,0.02,0.02
			c-0.04,0.04-0.08,0.09-0.12,0.13c-0.04,0.04-0.08,0.09-0.12,0.14c-0.03,0.03-0.06,0.05-0.1,0.08c-0.02,0.02-0.03,0.03-0.02,0.05
			c0.02-0.02,0.04-0.05,0.07-0.07c0.03-0.02,0.07-0.03,0.1-0.05c-0.01,0.01-0.02,0.02-0.02,0.02c-0.07,0.05-0.15,0.09-0.21,0.16
			c-0.02,0.02-0.06,0.03-0.08,0.06c-0.05,0.04-0.09,0.09-0.14,0.13c0-0.02,0.01-0.03,0.03-0.04c0.03-0.03,0.07-0.06,0.1-0.09
			c0.01-0.01,0.01-0.02,0.03-0.04c-0.04,0.02-0.07,0.03-0.09,0.05c-0.08,0.07-0.14,0.15-0.22,0.22c-0.06,0.06-0.12,0.11-0.18,0.17
			c0.06-0.05,0.09-0.12,0.13-0.17c0.02-0.03,0.06-0.06,0.04-0.1c0-0.01,0-0.02,0.01-0.03c0.02,0.02,0.04,0.04,0.04,0.04
			c0.02-0.02,0.04-0.04,0.06-0.05C13.59,12.17,13.58,12.16,13.58,12.16z M13.15,12.73c0.02-0.02,0.05-0.05,0-0.07
			c0.01-0.02,0.03-0.04,0.04-0.06c0.01-0.01,0.02-0.02,0.03-0.03c0.03-0.02,0.05-0.04,0.08-0.06c0,0,0,0,0,0
			c0.01,0.01,0.03,0.03,0.04,0.04c-0.01,0.01-0.02,0.02-0.03,0.03c-0.06,0.06-0.12,0.13-0.18,0.19c0,0-0.01,0.01-0.02,0.01
			c0,0,0-0.01-0.01-0.01C13.12,12.75,13.14,12.74,13.15,12.73z M9.69,16.15c-0.01-0.01-0.02-0.03-0.03-0.04
			c0.03-0.02,0.05-0.05,0.08-0.07C9.74,16.08,9.72,16.12,9.69,16.15z M9.65,16.11c0.01,0.01,0.02,0.03,0.03,0.04
			c-0.01,0.01-0.03,0.03-0.04,0.04c-0.01-0.01-0.01-0.02-0.02-0.03c0-0.01-0.01-0.01-0.01-0.02C9.62,16.14,9.64,16.13,9.65,16.11z
			 M9.59,16.25c-0.01-0.02-0.02-0.04-0.03-0.06c0.01-0.01,0.02-0.01,0.02-0.02c0.01,0.02,0.02,0.04,0.02,0.05
			C9.6,16.24,9.59,16.25,9.59,16.25z M9.71,16.19c0.02,0.01,0.02,0.03,0,0.05c-0.01,0.01-0.02,0.02-0.02,0.02
			c-0.01-0.01-0.02-0.02-0.03-0.04C9.67,16.21,9.69,16.2,9.71,16.19z M9.57,16.46c0,0,0.01,0.01,0.01,0.01l-0.01,0.01c0,0,0,0,0,0
			c-0.01,0-0.02-0.01-0.02-0.01C9.56,16.47,9.56,16.47,9.57,16.46z M9.62,16.49C9.62,16.49,9.62,16.49,9.62,16.49
			c0.01,0,0.01,0,0.01,0C9.63,16.49,9.62,16.49,9.62,16.49z M9.73,17.43c0.01-0.01,0.02-0.02,0.03-0.03
			c0.02,0.01,0.04,0.02,0.05,0.03c-0.01,0.01-0.02,0.02-0.02,0.03C9.77,17.46,9.75,17.45,9.73,17.43z M9.81,17.48
			C9.81,17.48,9.81,17.48,9.81,17.48c0-0.01,0.01-0.02,0.02-0.03c0.01,0.02,0.03,0.04,0.04,0.06C9.85,17.51,9.83,17.5,9.81,17.48z
			 M10.23,18.3c-0.01-0.01-0.02-0.02-0.02-0.03c0.01,0,0.01-0.01,0.02-0.01c0.01,0.01,0.01,0.02,0.02,0.03
			C10.24,18.3,10.23,18.3,10.23,18.3z M10.32,18.33c-0.02-0.03-0.04-0.06-0.07-0.08c0.01,0,0.02-0.01,0.02-0.01
			c0.02,0.03,0.04,0.06,0.05,0.09C10.33,18.33,10.32,18.33,10.32,18.33z M10.76,18.78c-0.07-0.08-0.14-0.16-0.22-0.24
			c0.01-0.01,0.02-0.01,0.02-0.02c0,0-0.01-0.01-0.01-0.01c-0.01,0.01-0.02,0.01-0.03,0.02c-0.03-0.03-0.06-0.06-0.09-0.09
			c0.02,0.03,0.05,0.07,0.07,0.1c-0.01,0.01-0.02,0.01-0.03,0.02c-0.01-0.01-0.02-0.03-0.04-0.04c-0.03-0.03-0.05-0.09-0.03-0.11
			c-0.05-0.06-0.09-0.12-0.14-0.17c0.03-0.02,0.05-0.05,0.06-0.07c0,0.01,0,0.01,0.01,0.02c0.03,0.06,0.07,0.12,0.11,0.18
			c0.1,0.13,0.2,0.25,0.3,0.37c0.01,0.01,0.01,0.02,0.02,0.04C10.77,18.77,10.77,18.77,10.76,18.78z M15.49,18.7
			c-0.01,0.01-0.03,0.03-0.04,0.04c-0.01-0.01-0.02-0.02-0.03-0.03c-0.06-0.06-0.13-0.12-0.19-0.18c0,0-0.01-0.01-0.01-0.02
			c0,0,0.01,0,0.01-0.01c0.01,0.01,0.03,0.03,0.04,0.04c0.02,0.02,0.05,0.05,0.07,0c0.02,0.01,0.04,0.03,0.06,0.04
			c0.01,0.01,0.02,0.02,0.03,0.03C15.46,18.65,15.48,18.67,15.49,18.7C15.5,18.7,15.5,18.7,15.49,18.7z M16.19,19.29
			c-0.04-0.04-0.08-0.07-0.11-0.11c0.01,0,0.02,0.01,0.04,0.01C16.14,19.22,16.17,19.26,16.19,19.29z M16.39,19.74
			c0,0-0.01,0-0.01,0c0,0,0,0,0,0c0-0.01-0.01-0.01-0.01-0.02c0-0.01-0.02-0.02-0.03-0.02c0,0-0.01,0.01-0.02,0.01
			c-0.01-0.02-0.03-0.04-0.03-0.06c0.01,0.01,0.02,0.03,0.04,0.04c0,0,0.01,0,0.02-0.01c0.01,0.01,0.03,0.02,0.04,0.03
			c0,0-0.01,0.01-0.01,0.01c0,0,0.01,0.01,0.01,0.01c0,0,0.01-0.01,0.01-0.01c0,0,0,0,0.01,0C16.41,19.72,16.4,19.73,16.39,19.74z
			 M16.43,19.7C16.43,19.69,16.43,19.69,16.43,19.7c0.01-0.01,0.01-0.02,0.02-0.03C16.44,19.68,16.44,19.69,16.43,19.7z
			 M16.48,19.62c-0.01-0.01-0.01-0.01-0.02-0.02c0,0-0.01,0.01-0.01,0.01c0.01,0.01,0.01,0.01,0.02,0.02
			c-0.01,0.01-0.01,0.01-0.02,0.02c-0.02-0.01-0.04-0.02-0.06-0.03c0.02,0.03,0.03,0.04,0.05,0.04c-0.01,0.01-0.01,0.01-0.02,0.02
			c-0.04-0.04-0.09-0.08-0.13-0.12c-0.04-0.04-0.09-0.08-0.14-0.12c-0.03-0.03-0.05-0.06-0.08-0.1c-0.02-0.02-0.03-0.03-0.05-0.02
			c0.02,0.02,0.05,0.04,0.07,0.07c0.02,0.03,0.03,0.07,0.05,0.1c-0.01-0.01-0.02-0.02-0.02-0.02c-0.05-0.07-0.09-0.15-0.16-0.21
			c-0.02-0.02-0.03-0.06-0.06-0.08c-0.04-0.05-0.09-0.09-0.13-0.14c0.02,0,0.03,0.01,0.04,0.03c0.03,0.03,0.06,0.07,0.09,0.1
			c0.01,0.01,0.02,0.01,0.04,0.03c-0.02-0.04-0.03-0.07-0.05-0.09c-0.07-0.08-0.15-0.14-0.22-0.22c-0.06-0.06-0.11-0.12-0.17-0.18
			c0.05,0.06,0.12,0.09,0.17,0.13c0.03,0.02,0.06,0.06,0.1,0.04c0.01,0,0.02,0,0.03,0.01c-0.02,0.02-0.04,0.04-0.04,0.04
			c0.02,0.02,0.04,0.04,0.05,0.06c0,0,0.01-0.01,0.01-0.01c-0.01-0.02-0.03-0.04-0.04-0.05c0,0,0.01,0,0.01,0
			c0.01-0.02,0.02-0.04,0.03-0.07c0,0,0-0.01-0.01-0.01c-0.04,0.03-0.04,0.01-0.05-0.02c-0.01-0.02-0.02-0.03-0.03-0.05
			c0,0-0.01,0.01-0.01,0.01c0.01,0.01,0.01,0.03,0.02,0.04c-0.02,0-0.03,0-0.04-0.01c-0.02-0.03-0.03-0.07-0.07-0.09
			c-0.01,0-0.01-0.02-0.01-0.02c0,0,0.01,0,0.01-0.01c0.02,0.01,0.04,0.03,0.05,0.04c0-0.01,0-0.02,0-0.02c0,0,0.01-0.01,0.01-0.01
			c0.04,0.04,0.08,0.08,0.13,0.12c0.01,0.01,0.01,0.03,0.02,0.04c0.04,0.03,0.08,0.06,0.13,0.09c0.05,0.04,0.1,0.08,0.14,0.12
			c0.02,0.02,0.03,0.03,0.05,0.05c0,0,0,0,0,0.01c0,0.01,0.01,0.02,0.01,0.03c0,0-0.01,0.01-0.01,0.01
			c-0.04-0.03-0.08-0.07-0.12-0.1c0,0-0.01,0.01-0.01,0.01c0.01,0.01,0.01,0.02,0.02,0.03c-0.02-0.02-0.05-0.03-0.06-0.05
			c0,0,0-0.01-0.01-0.01c-0.02-0.02-0.03-0.04-0.05-0.06c-0.02-0.02-0.04-0.04-0.07-0.07c0,0.02,0.01,0.03,0.01,0.04c0,0,0,0,0,0
			c0,0,0,0.01,0,0.01c0,0.01,0,0.02-0.02,0.04c0.02,0.01,0.03,0.02,0.04,0.03c0.01,0.01,0.03,0.02,0.04,0.04
			c0.03,0.03,0.05,0.06,0.08,0.09c0.02,0.03,0.04,0.06,0.07,0.09c0.01,0.02,0.02,0.03,0.04,0.04c0.02,0.02,0.05,0.03,0.03,0.08
			c-0.02-0.02-0.05-0.04-0.07-0.06c0.02,0.03,0.04,0.08,0.08,0.09c0.05,0.02,0.08,0.06,0.11,0.1c0.01,0.01,0.12,0.02,0.13,0.01
			c0,0,0,0,0.01,0c0.01,0.01,0.01,0.01,0.02,0.02c0.01,0.02,0.03,0.04,0.04,0.06L16.48,19.62z M17.11,24.77
			c0.02,0.03,0.04,0.07,0.07,0.1c0.01,0.02,0.03,0.03,0.04,0.05c-0.03-0.01-0.05-0.03-0.07-0.06c-0.01-0.01-0.02-0.02-0.02-0.02
			c-0.04,0-0.07,0-0.08-0.05c0-0.01-0.02-0.03-0.02-0.04C17.06,24.72,17.09,24.73,17.11,24.77z M16.97,24.91
			c-0.01-0.01-0.03-0.03-0.04-0.04c0.01,0.01,0.03,0.01,0.04,0.02c0.01,0.01,0.01,0.01,0.02,0.02C16.98,24.9,16.97,24.9,16.97,24.91
			z M17.09,24.92c-0.04-0.02-0.08-0.05-0.12-0.08c0.04-0.01,0.05,0.04,0.09,0.04c-0.01-0.02-0.03-0.05-0.03-0.05
			c0.01-0.01,0-0.01,0.01-0.01c0.02,0.02,0.04,0.04,0.05,0.06c0.01,0.01,0.02,0.01,0.02,0.01c0.05-0.02,0.05,0.01,0.06,0.04
			c0,0-0.01-0.01-0.01-0.01c0,0-0.01,0.01-0.01,0.01c0,0-0.01,0-0.01,0c0,0,0,0-0.01,0.01c0.01,0.02,0.02,0.03,0.03,0.05
			c0,0,0.01,0,0.01-0.01c0.01,0.02,0.03,0.03,0.04,0.05c0,0.01,0.01,0.02,0.01,0.03c0,0,0,0-0.01,0.01
			c-0.04-0.05-0.09-0.09-0.13-0.14c0,0-0.01,0.01-0.01,0.01c0.01,0.01,0.02,0.02,0.03,0.03C17.12,24.95,17.1,24.93,17.09,24.92z
			 M17.24,24.98c-0.01-0.01-0.02-0.01-0.02-0.02c0.01,0,0.03,0,0.05,0.01C17.25,24.97,17.24,24.97,17.24,24.98z M17.47,25.03
			c-0.02,0-0.04-0.01-0.06-0.01c-0.04-0.04-0.07-0.09-0.11-0.13c0,0,0.01,0,0.01,0c0.02,0,0.04,0.01,0.05,0.02
			c0.01,0.02,0.03,0.04,0.04,0.07c0.04-0.02,0.04,0.03,0.07,0.04C17.48,25.02,17.47,25.02,17.47,25.03z M17.52,25.14
			c0.01,0.01,0.02,0.02,0.03,0.03c0.01,0.01,0.03,0,0.04,0c0.01,0,0.02,0,0.02,0.01c0,0.01,0,0.02,0,0.02
			c0,0.01-0.01,0.01-0.01,0.02c0.03,0.04,0.06,0.07,0.09,0.11c-0.01,0-0.01,0-0.01,0C17.63,25.27,17.57,25.2,17.52,25.14z
			 M17.77,25.57c-0.03-0.05-0.06-0.1-0.09-0.14c0.08,0.07,0.15,0.15,0.16,0.19C17.81,25.6,17.79,25.59,17.77,25.57z M18.14,20.8
			c-0.01-0.03-0.03-0.06-0.05-0.1c0.01,0.01,0.02,0.01,0.03,0.01c0.05,0.03,0.09,0.06,0.14,0.1c0.02,0.02,0.06,0.06,0.05,0.07
			c-0.02,0.04,0.01,0.05,0.02,0.08c0.01,0.01,0.01,0.02,0.01,0.03C18.27,20.92,18.21,20.86,18.14,20.8z"/>
		<path d="M16.44,8.72c-0.05-0.04-0.1-0.08-0.15-0.12c0,0-0.01,0.01-0.01,0.01c0.04,0.05,0.09,0.1,0.13,0.15
			C16.42,8.75,16.43,8.74,16.44,8.72z"/>
		<path d="M19.27,11.98c-0.02-0.04-0.1-0.1-0.12-0.08c0,0.01,0,0.02,0,0.04c-0.03-0.01-0.05-0.02-0.07-0.03
			c0.01,0.02,0.02,0.05,0.04,0.06c0.01,0,0.04-0.02,0.07-0.03C19.22,11.95,19.25,11.96,19.27,11.98z"/>
		<path d="M19.3,11.94c0,0-0.01,0.01-0.01,0.01c0.01,0.01,0.01,0.03,0.02,0.04c0.01,0.01,0.03,0.02,0.03,0.03
			c0,0.05,0.03,0.05,0.07,0.05C19.37,12.02,19.34,11.98,19.3,11.94z"/>
		<path d="M16.34,8.78c0.01,0,0.01-0.01,0.02-0.01c-0.01-0.02-0.03-0.03-0.04-0.05c-0.01,0-0.01,0.01-0.02,0.01
			C16.31,8.75,16.32,8.76,16.34,8.78z"/>
		<path d="M16.65,14.29c0.03,0.03,0.06,0.05,0.09,0.08c0,0,0.01-0.01,0.01-0.01C16.72,14.33,16.69,14.31,16.65,14.29
			C16.66,14.28,16.65,14.29,16.65,14.29z"/>
		<path d="M16.51,8.93c0,0,0.01-0.01,0.01-0.01c-0.03-0.02-0.05-0.04-0.08-0.07c0,0-0.01,0.01-0.01,0.01
			C16.46,8.89,16.48,8.91,16.51,8.93z"/>
		<path d="M9.06,16.24c0.02-0.01,0.03-0.02,0.04-0.02c0,0,0,0,0,0c-0.02,0.04-0.05,0.08-0.07,0.12c0,0,0,0,0.01,0
			c0.03-0.03,0.06-0.06,0.09-0.1c0.01,0,0.01,0.01,0.02,0.01c-0.03,0.05-0.05,0.09-0.09,0.15c0.01-0.01,0.02-0.01,0.02-0.02
			c0.12-0.14,0.24-0.28,0.32-0.45c0.01-0.02,0.02-0.04,0.04-0.05c0.02,0.03,0.04,0.05,0.06,0.08c0,0,0.01-0.01,0.01-0.01
			c-0.02-0.03-0.04-0.06-0.06-0.08c0,0-0.01,0-0.01,0.01c0.03-0.05,0.06-0.09,0.09-0.14c0-0.01,0.01-0.01,0.02-0.03
			c-0.02,0.02-0.04,0.02-0.06,0.04c0-0.02,0.01-0.04,0.01-0.05c0,0-0.01-0.01-0.01-0.01c-0.02,0.01-0.05,0.02-0.06,0.04
			c-0.08,0.09-0.16,0.18-0.24,0.27C9.18,16,9.18,16.01,9.17,16.02c-0.01,0.03-0.02,0.06-0.03,0.08c-0.02,0.04-0.05,0.07-0.08,0.11
			C9.06,16.21,9.06,16.23,9.06,16.24z"/>
		<path d="M17.37,8.1c0.1-0.09,0.19-0.18,0.29-0.27c0,0,0,0,0.01,0.01c0,0.01-0.01,0.03-0.01,0.04c0,0,0.01,0,0.01,0.01
			c0.02-0.02,0.04-0.05,0.06-0.07c-0.01,0-0.02,0-0.04,0c0.04-0.04,0.08-0.07,0.11-0.1c0,0-0.01-0.01-0.01-0.01
			c-0.14,0.13-0.28,0.26-0.43,0.39C17.36,8.09,17.37,8.1,17.37,8.1z"/>
		<path d="M19.72,4.71c0.04-0.03,0.04-0.07,0.05-0.11c-0.02,0.01-0.04,0.02-0.05,0.03c-0.02,0.03-0.04,0.06-0.06,0.09
			c-0.01,0.02-0.03,0.04-0.04,0.06c0.02,0.01,0.03,0.02,0.05,0.02C19.67,4.77,19.69,4.73,19.72,4.71z"/>
		<path d="M21.93,4.41c0.01,0.01,0.01,0.02,0.01,0.03C22,4.37,22.05,4.3,22.11,4.23c-0.05,0.01-0.24,0.2-0.24,0.25
			C21.89,4.46,21.91,4.44,21.93,4.41z"/>
		<path d="M23.17,7.68c0.04-0.03,0.04-0.08,0.01-0.11c-0.04,0.07-0.09,0.14-0.12,0.21C23.09,7.75,23.13,7.72,23.17,7.68z"/>
		<path d="M17.17,8.29C17.12,8.33,17.06,8.37,17,8.42c-0.02,0.02-0.04,0.05-0.06,0.08c0,0.01,0,0.02,0,0.03
			C17.02,8.44,17.1,8.36,17.17,8.29z"/>
		<path d="M8.99,17.27c0.06-0.06,0.12-0.12,0.18-0.18c0,0-0.01-0.01-0.01-0.01C9.09,17.14,9.02,17.18,8.99,17.27z"/>
		<path d="M23.29,6.83c0.05-0.02,0.09-0.04,0.12-0.05c0,0,0-0.01,0-0.01c-0.03-0.01-0.07-0.01-0.11-0.02
			C23.3,6.77,23.3,6.8,23.29,6.83z"/>
		<path d="M20.92,9.78c-0.02,0.02-0.04,0.04-0.06,0.06c0,0,0.01,0.01,0.01,0.01c0.05-0.05,0.1-0.1,0.15-0.15
			c0,0-0.01-0.01-0.01-0.02c-0.01,0-0.04,0.01-0.04,0.01C20.98,9.74,20.94,9.75,20.92,9.78z"/>
		<path d="M19.7,10.92c0.05-0.07,0.1-0.14,0.15-0.21c0,0-0.01-0.01-0.01-0.01C19.8,10.78,19.75,10.85,19.7,10.92
			C19.7,10.92,19.7,10.92,19.7,10.92z"/>
		<path d="M17.41,8.14c0-0.04,0.03-0.04,0.05-0.05c0.01,0,0.02-0.01,0.03-0.02c-0.07,0-0.11,0.04-0.12,0.1
			C17.38,8.16,17.41,8.15,17.41,8.14z"/>
		<path d="M23.4,6.59c0,0.03-0.07,0.03-0.04,0.09c0.03-0.02,0.06-0.04,0.09-0.07C23.43,6.6,23.42,6.59,23.4,6.59z"/>
		<path d="M9.63,17.63c0.04-0.04,0.08-0.07,0.12-0.1C9.67,17.56,9.63,17.6,9.63,17.63z"/>
		<path d="M11.32,13.76c-0.06,0.01-0.12,0.07-0.11,0.11C11.25,13.84,11.28,13.8,11.32,13.76z"/>
		<path d="M9.81,15.19c0.05-0.04,0.1-0.08,0.15-0.12C9.88,15.1,9.82,15.15,9.81,15.19z"/>
		<path d="M15.57,15.28c-0.06,0-0.11,0.04-0.1,0.09C15.51,15.34,15.54,15.31,15.57,15.28z"/>
		<path d="M9.54,15.83c0.04-0.04,0.08-0.08,0.12-0.12c0,0,0,0-0.01-0.01C9.61,15.74,9.57,15.78,9.54,15.83
			C9.53,15.83,9.53,15.83,9.54,15.83z"/>
		<path d="M22.77,5.23c-0.01,0-0.02,0-0.02,0c0.01-0.01,0.02-0.03,0.02-0.04c0,0,0,0-0.01,0c-0.02,0.02-0.05,0.05-0.07,0.07
			c0,0,0,0.01,0.01,0.01C22.72,5.26,22.74,5.24,22.77,5.23z"/>
		<path d="M9.12,15.92c0,0-0.01-0.01-0.01-0.01c-0.04,0.05-0.08,0.1-0.12,0.15c0,0,0.01,0.01,0.01,0.01
			C9.04,16.02,9.08,15.97,9.12,15.92z"/>
		<path d="M12.3,12.88c-0.03,0.03-0.06,0.06-0.11,0.09C12.27,12.97,12.26,12.91,12.3,12.88z"/>
		<path d="M20.33,10.26c0.03-0.04,0.06-0.08,0.1-0.13c0,0-0.01-0.01-0.01-0.01C20.38,10.17,20.35,10.21,20.33,10.26
			C20.32,10.26,20.32,10.26,20.33,10.26z"/>
		<path d="M9.44,17.22c-0.03,0.03-0.06,0.06-0.09,0.09c0,0,0.01,0.01,0.01,0.01c0.03-0.03,0.06-0.06,0.09-0.09
			C9.45,17.22,9.45,17.22,9.44,17.22z"/>
		<path d="M12.77,12.38c-0.01,0-0.01-0.01-0.01-0.01c-0.02,0.03-0.05,0.07-0.07,0.1c0,0,0.01,0.01,0.01,0.01
			C12.72,12.45,12.75,12.42,12.77,12.38z"/>
		<path d="M14.93,15.1c0.01,0,0.02-0.01,0.04-0.02c-0.08-0.01-0.08-0.01-0.08,0.02C14.9,15.1,14.92,15.1,14.93,15.1z"/>
		<path d="M14.82,15.97c-0.1,0.02-0.11,0.02-0.09,0.05C14.76,16,14.79,15.99,14.82,15.97z"/>
		<path d="M20.55,10.09c0.03-0.03,0.06-0.07,0.09-0.1c0,0-0.01-0.01-0.01-0.01c-0.03,0.03-0.06,0.07-0.09,0.1
			C20.54,10.08,20.54,10.08,20.55,10.09z"/>
		<path d="M9.11,16.75C9.11,16.75,9.11,16.75,9.11,16.75c0.04-0.03,0.08-0.07,0.12-0.11c0,0,0,0-0.01-0.01
			C9.18,16.67,9.14,16.71,9.11,16.75z"/>
		<path d="M14.83,15.92c0,0.01,0.01,0.01,0.01,0.02c0.03-0.02,0.05-0.04,0.08-0.06c0,0-0.01-0.01-0.01-0.01
			C14.88,15.88,14.86,15.9,14.83,15.92z"/>
		<path d="M17.55,7.82c-0.02,0.02-0.05,0.04-0.07,0.06c0.01,0.01,0.01,0.01,0.02,0.02c0.02-0.02,0.05-0.04,0.07-0.06
			C17.56,7.83,17.56,7.82,17.55,7.82z"/>
		<path d="M12.5,12.62c-0.02,0.01-0.02,0.01-0.04,0.02c-0.01-0.01-0.02-0.02-0.02-0.03c-0.01,0.01-0.02,0.01-0.04,0.02
			C12.44,12.64,12.47,12.67,12.5,12.62z"/>
		<path d="M20.43,3.64c-0.01-0.01-0.01-0.02-0.02-0.03c0,0-0.01,0-0.01,0c-0.01,0.03-0.01,0.05-0.02,0.08c0,0,0.01,0,0.01,0
			C20.4,3.67,20.41,3.66,20.43,3.64z"/>
		<path d="M18.01,7.39c0.02-0.01,0.04-0.01,0.05-0.02c0.01-0.01,0-0.03,0-0.04C18.04,7.35,18.02,7.36,18,7.38
			C18,7.38,18.01,7.39,18.01,7.39z"/>
		<polygon points="18.06,7.33 18.06,7.33 18.05,7.33 18.05,7.33 18.06,7.33 		"/>
		<path d="M15.5,15.08c0.03-0.01,0.05-0.03,0.07-0.04C15.5,15.04,15.48,15.05,15.5,15.08z"/>
		<path d="M15.67,15.17c0.03-0.02,0.05-0.03,0.08-0.05c0,0-0.01-0.01-0.01-0.01c-0.03,0.01-0.05,0.02-0.08,0.03
			C15.66,15.16,15.67,15.17,15.67,15.17z"/>
		<path d="M13.33,11.86C13.33,11.86,13.33,11.86,13.33,11.86c-0.04,0.02-0.06,0.05-0.09,0.08c0,0,0.01,0.01,0.01,0.01
			C13.28,11.92,13.31,11.89,13.33,11.86z"/>
		<path d="M12.95,12.38C12.95,12.37,12.95,12.37,12.95,12.38c-0.03,0.02-0.06,0.04-0.08,0.06c0,0,0,0.01,0.01,0.01
			C12.9,12.42,12.93,12.4,12.95,12.38z"/>
		<path d="M17.33,8.18c-0.02,0.03-0.05,0.05-0.07,0.08c0,0,0.01,0,0.01,0.01c0.02-0.02,0.05-0.05,0.07-0.07
			C17.33,8.19,17.33,8.18,17.33,8.18z"/>
		<path d="M10.06,18.23c0,0.01,0.01,0.01,0.01,0.02c0.02-0.02,0.05-0.04,0.07-0.06c0,0-0.01-0.01-0.01-0.01
			C10.11,18.2,10.08,18.22,10.06,18.23z"/>
		<path d="M18.11,12.65c-0.03,0.03-0.07,0.07-0.1,0.11C18,12.77,18,12.78,17.99,12.81c0.03-0.02,0.06-0.03,0.09-0.05l0.2-0.2
			c0,0-0.01-0.01-0.01-0.01c-0.05,0.05-0.1,0.1-0.15,0.15c0,0-0.01-0.01-0.01-0.01c0.01-0.01,0.02-0.03,0.03-0.04
			C18.12,12.64,18.11,12.65,18.11,12.65z"/>
	</g>
</g>
</svg>
