<?xml version="1.0" encoding="utf-8"?>
<!-- Generator: Adobe Illustrator 27.1.1, SVG Export Plug-In . SVG Version: 6.00 Build 0)  -->
<svg version="1.1" id="Layer_1" xmlns="http://www.w3.org/2000/svg" xmlns:xlink="http://www.w3.org/1999/xlink" x="0px" y="0px"
	 viewBox="0 0 193.78 201.82" style="enable-background:new 0 0 193.78 201.82;" xml:space="preserve">
<style type="text/css">
	.st0{fill:#FFD400;}
	.st1{fill:#010101;}
	.st2{fill:none;}
</style>
<g>
	<path class="st0" d="M73.12,197.26C73.36,197.37,73.5,197.36,73.12,197.26L73.12,197.26z"/>
	<path class="st0" d="M24.53,30.58c0.05-0.07,0.08-0.1,0.13-0.16c-0.05-0.25-0.08-0.48-0.08-0.67L24.53,30.58z"/>
	<path class="st0" d="M51.88,10.49c0.08-0.02,0.13-0.03,0.21-0.04C52.01,10.34,51.99,10.2,51.88,10.49z"/>
	<path class="st0" d="M1.04,102.02c0.02,0.28,0.06,0.44,0.11,0.55C1.11,102.41,1.08,102.24,1.04,102.02z"/>
	<path class="st0" d="M132.82,195.93c0,0-0.07,0.04-0.13,0.07c0.12-0.01,0.22-0.01,0.37-0.02L132.82,195.93z"/>
	<path class="st0" d="M132.3,196.48c-0.74,0.12,0.1-0.33,0.39-0.48c-0.85,0.04-1.61,0.3-2.34,0.7
		C130.45,196.98,131.89,196.4,132.3,196.48z"/>
	<path class="st0" d="M193.49,113.57l-0.03,0.31L193.49,113.57z"/>
	<path class="st0" d="M10.13,99.06l-0.01,0.45C10.16,99.27,10.15,99.15,10.13,99.06z"/>
	<path class="st0" d="M190.42,129.82l0.04,0.2C190.47,129.86,190.45,129.82,190.42,129.82z"/>
	<path class="st0" d="M24.58,29.75l0.02-0.32C24.58,29.52,24.58,29.63,24.58,29.75z"/>
	<path class="st0" d="M81.53,0.43c0.04,0.17,0.14,0.29,0.24,0.4c0.04,0,0.07-0.01,0.09-0.01L81.53,0.43z"/>
	<path class="st0" d="M191.72,82.57c0,0,0.01-0.04,0.02-0.08l-0.19-0.55C191.6,82.16,191.66,82.35,191.72,82.57z"/>
	<path class="st0" d="M123.61,4.61c0.05-0.05,0.16-0.08,0.18-0.14c-0.66-0.34-2.46-0.97-4.84-1.46l-0.27,0.63
		C120.34,3.83,121.96,4.28,123.61,4.61z"/>
	<path class="st0" d="M155.86,35.02c-0.8-1.07-1.76-1.96-2.67-2.93c2.86,1.47,4.89,3.36,6.96,4.83c2.09,1.47,3.67,3.12,5.33,4.64
		c1.64,1.53,3.31,2.98,4.83,4.75c1.53,1.75,3.43,3.42,5.17,5.62L175,51.5c0.43,0.69,1.06,1.03,2.72,3.17
		c1.7,2.11,4.41,6.11,7.87,14.54l-0.03,0.01c0.27,0.58,0.32,0.55,0.77,1.73L185.21,68c0.85,1.7,1.65,3.17,2.66,5.5
		c0.2,0.5,0.16,0.71,0.15,0.76l1.88,5.94l0.43,1.86c0.56,1.83,0.55,0.94,1.36,6c-0.18-1.92,0.53,2.49,0.49,1.86
		c0.04,0.32,0.1,0.84,0.16,1.31c0.36,3.02,0.64,8.77,0.8,10.19c0,0-0.1-2.93-0.21-6.38c0.05-3.41-0.68-7.15-0.79-8.77
		c0.64,4.27,0.2,1.12,0.12,0.27l-0.08-0.28c-0.37-2.56-0.26-2.58-0.42-3.87c0,0-0.01,0.04-0.02,0.08l0.04,0.16
		c0,0.12-0.03,0.06-0.06-0.08c-0.02,0.04-0.04-0.08-0.22-0.76l0.05,0.13c-0.28-1.1-0.73-2.84-0.94-3.64l0.1-0.04
		c-0.47-1.85-3.42-12.46-4.47-14.87c-0.91-2.45-2.4-5.33-3.83-8.26c-2.53-4.55-0.98-2.44-2.07-4.86c-1.45-2.97,0.05,0.76-0.61-0.38
		c-0.52-1.22-1.06-2.44-1.73-3.58c1.33,1.87,0.77,0.74,0.63,0.33c-1.92-2.8-4.29-7.88-5.67-8.11c-2.68-3.83-2.44-4.09-3.68-5.69
		c0.32,0.63,1.06,1.77,0.95,1.89c-0.92-1.7-0.63-0.63-0.2,0.02c-0.54-0.47-1.25-1.56-2.24-2.73c-0.95-1.16-2.12-2.58-3.22-3.93
		c-2.13-2.8-4.45-5.03-5.02-4.78l0.12-0.16c-1.02,0.24-0.69,1.54-2.52,0.68l-0.81-1.13l-1.78-0.94c-0.89-1.06-0.24-0.85-0.18-0.94
		c-1.42-0.81-3.09-1.82-4.75-3.03c-1.69-1.15-3.34-2.58-5.12-3.46c0.87,1.38,1.62,2.88,2.35,4.36c-1.2-1.18-3.03-2.63-4.7-3.75
		c-1.65-1.14-3.1-1.98-3.57-1.72l-1.42-1.72c-5.61-4.09-4.64-0.94-6.93-2.39c-0.93-0.73-1.88-1.48-2.88-2.07
		c1.1,0.26,2.14,0.68,3.19,1.09c-2.97-1.76-4.27-2.19-6.71-3.67l-0.04,0.02c0.17,0.09,0.28,0.17,0.28,0.24l-0.47-0.1
		c-0.54,0.42-2.32,0.27-4.63-0.32c-3.35-0.63-6.01-0.51-11.31-2.17l-1.44,1.05l-4.02-0.91l0.03-0.91c2.01,0.1,4.9,0.25,7.96,0.41
		c3.02,0.4,6.2,0.83,8.76,1.24l0.17-0.38c-3.05-0.53-6.57-0.7-8.57-1.12c-0.94-0.41-3.44-1.39-1.52-1.91l-2,0.76
		C101.85,0.1,99.24-0.12,96.57,0c-1.34,0.01-2.69-0.02-4.39-0.08c-1.71-0.09-3.77-0.17-6.5,0.05l1,0.32
		c-2.11,0.59-4.18,1.18-4.9,0.54c-3.28,0.3-6.51,1.17-9.56,1.62c-3.07,0.4-5.8,1.02-8.02,1.27l-0.52,1.34
		c-1.31,0.44-3.88-0.28-3.95,1.33c-0.86,0.51-1.67,1.15-2.5,1.71c-1.74,0.78-2.51,1.83-4.7,2.27l0,0l-0.01,0
		c-0.13,0.02-0.27,0.05-0.42,0.08l0.06,0.07c-4.01,1.6,0.43,0.71-4.04,2.74c-1.7,0.22-0.8,2.04-2.91,3.1l-2.8,0.07
		c-3.9,1.99-3.74,3.53-8.48,7.52c-2.49,1.66-4.36,1.83-3.6-0.36c-1.16,2.87-0.37,1.5-2.59,4.47c-0.77,0.02-0.56-0.32-0.3-1.22
		c-2.79,1.84-1.08,1.79-2.75,3.58c0.23,1.21,0.81,2.85,0.35,3.47l0.83-0.5c-1.25,2.29-3.04,4.35-5.03,6.51l-0.3-0.38l-1.64,2.68
		l-0.59-0.19c-0.8,1.27-1.68,2.48-2.41,3.78l0.44-0.44c-0.48,0.95-2.03,4.03-3.26,5.58l-0.24-0.22c-1.89,2.13-2.84,4.53-3.72,7.06
		c-0.89,2.53-1.77,5.16-2.63,8.29l-0.29-1.02c-1.23,1.91,0.66,0.9-0.42,3.3l-0.71-0.11C5.25,70.76,3.86,71,3.23,72.5l1.02-0.47
		l-0.81,2.89c-0.96,3.17-1.47,1.73-1.82,1.12l0.22,2.4l-0.82,0.27c0.56,1.83-0.56,1.59-0.34,4.6c-0.29,0.19-0.38-0.57-0.58,0.4
		l0.54,4.93L0.49,85.7l0.98,0.51c0.5,3.07-0.6,3.98-0.34,6.14c-0.09-0.49-0.21-0.99-0.24-1.49c0.15,3.48-0.19,3.63-0.39,5.58
		c0.16-0.6,0.41-1.51,0.54-0.1c0.05,1.03-0.32,0.54-0.41,1.51c0.66,0.26,0.77,2.72,0.76,4.94c-0.08-0.03-0.16-0.07-0.23-0.22
		c0.15,0.57,0.32,0.86,0.28,1.85l-0.67-0.57l0.77,1.89c-0.03,1.28,0.57,3.09,0.17,2.95l-0.19-0.71c0.15,3.21,0.87,6.36,1.45,9.5
		l-0.37,0.2c0.68,0.85,0.91,5.16,1.56,4.7c0.19,1.82,2.27,6.75,1.31,5.91c0.77,3.06,2.11,5.17,3.08,7.56
		c0.55,1.17,1.02,2.42,1.66,3.76c0.69,1.32,1.41,2.79,2.21,4.51c0.64,2.71,4.68,9,7.43,13.02c1.46,1.88,2.8,3.6,4.07,5.24
		c1.28,1.63,2.71,3,4.02,4.47c2.56,3.03,5.59,5.6,9.14,8.95c1.96,2.22,4.89,4.48,7.85,6.76c3.19,1.95,6.32,4.11,8.96,5.94l1.72,0.49
		c1.73,1.27,4.02,2.76,6.7,3.89c2.69,1.11,5.54,2.42,8.25,3.89c1.47,0.25,2.23,0.41,2.56,0.5c-0.25-0.11-0.62-0.34-0.65-0.71
		c1.57,0.77,4.97,1.52,4.57,2.15l-0.44-0.06c-0.2,0.31,1.07,0.65,2.62,1.04c1.57,0.25,3.41,0.53,4.31,1.07l-0.91-1.05l3.19,0.81
		l-0.89-0.02c1.79,0.1,3.43,0.36,4.99,0.41c1.57,0.04,3.03,0.12,4.44,0.22c2.81,0.21,5.36,0.61,7.9,0.59
		c2.54,0.07,5.08,0.2,7.81,0.01c2.7-0.37,5.61-0.94,8.83-1.93c-0.78,0.67-0.15,0.44,0.73,0.17c0.86-0.35,1.95-0.74,2.17-0.17
		c3.67,0.62,6.11-1.78,8.56-3.1c-0.02-0.06-0.01-0.14,0.11-0.28l4.58-1.56c-2.16,2.46,2.8-2.43,0.79-0.27
		c6.09-1.78,12.56-5.39,18.65-9.79c2.98-2.3,5.87-4.8,8.66-7.33c1.32-1.35,2.63-2.69,3.93-4.02c1.32-1.3,2.59-2.62,3.7-4.05
		l-0.59,0.31c2.29-2.86,4.97-6.49,6.62-8.68c1.73-2.16,2.88-5.32,3.31-6.29c1.14-2.81,2.92-4.88,2.29-3.77
		c1.49-2.84,2.19-5.83,4.07-9.77c0.24-0.3,0.62-1.16,1.08-2.26c0.39-1.13,0.76-2.54,1.16-3.89c0.78-2.71,1.56-5.21,1.73-5.23
		l-0.01-0.05c0.71-2.7,1.25-5.36,1.84-8.05c0.55-2.7,0.73-5.52,1.25-8.46c0,0-0.01,0.16-0.02,0.32c0.26-2.02,0.25-4.05,0.24-6.08
		l0.05-6.06l-0.72,3.43l-0.52,5.19c-0.17,1.73-0.68,3.41-1.03,5.1c-0.62,4.65-2.13,9.11-3.5,13.56c-1.82,4.3-3.48,8.64-5.95,12.58
		c-3.72,6.4-8.85,11.83-14.05,16.76c-6.39,6-13.32,11.09-20.57,15.46c-7.37,4.2-15.08,7.5-23.04,10.14l-3.2,1.96
		c-1.27,0.08-2.56,0.24-3.86,0.46c-1.36,0.16-2.68,0.32-4.03,0.48c-2.73,0.39-5.52,1.04-8.42,1.24c-2.88,0.32-5.8,0.81-8.69,0.67
		c-2.88-0.05-5.75,0.08-8.4-0.57l-0.33,0.78c-3.08-0.22-2.8-0.68-3.53-0.86c-14.28-1.04-28.8-6.13-40.85-14.58
		c-12.19-8.33-21.08-20.44-26.38-32.67c-1.12-2.34-3.54-9.79-3.89-11.77c-2.51-8.24-3.7-17.42-3.11-25.97l0.06,0.32
		c-0.07-1.34,0.05-2.68,0.19-4.01c0.07-0.17,0.14-0.19,0.17-0.06c0.07-2.25,0.18-5.18,0.93-8.13c0.83-2.94,1.51-6,2.52-8.56
		l-0.02,0.32c4.73-15.14,12.02-28.64,22.35-39.56c10.1-11.09,23.57-18.9,38.25-22.69c1.79-0.18,3.57-0.45,5.36-0.78l2.69-0.54
		l2.77-0.35c1.85-0.25,3.72-0.55,5.61-0.89c1.91-0.16,3.85-0.31,5.8-0.47l2.95-0.27l2.98,0.05c1.99,0.05,4.01,0.03,6.02,0.15
		c3.97,0.61,8.05,0.97,11.84,2.4c0.33,0.21,1.11,0.5,2.24,0.82c0.57,0.15,1.22,0.33,1.94,0.52c0.71,0.25,1.48,0.52,2.3,0.82
		c1.66,0.57,3.55,1.17,5.58,1.77c1.94,0.81,4.01,1.63,6.11,2.42C146.59,29.51,154.57,34.22,155.86,35.02z"/>
	<path class="st0" d="M188.03,74.27l-0.04-0.13C187.9,74.18,187.99,74.36,188.03,74.27z"/>
	<polygon class="st0" points="144.3,14.19 144.51,14.32 143.95,13.37 	"/>
	<path class="st0" d="M179.74,48.3c-1.04-1.97-1.24-1.96-1.11-1.67C179.09,47.29,179.46,47.88,179.74,48.3z"/>
	<path class="st0" d="M192.28,91.21c0.19,1.11,0.14,0.69,0.07,0.03c-0.2-1.14-0.34-1.92-0.34-1.92
		C192.08,89.87,192.19,90.63,192.28,91.21z"/>
	<path class="st0" d="M192.26,86.55l0.1,0.34C192.25,86.24,192.23,86.27,192.26,86.55z"/>
</g>
</svg>
