<?xml version="1.0" encoding="utf-8"?>
<!-- Generator: Adobe Illustrator 27.1.1, SVG Export Plug-In . SVG Version: 6.00 Build 0)  -->
<svg version="1.1" id="Layer_1" xmlns="http://www.w3.org/2000/svg" xmlns:xlink="http://www.w3.org/1999/xlink" x="0px" y="0px"
	 viewBox="0 0 202.57 202.22" style="enable-background:new 0 0 202.57 202.22;" xml:space="preserve">
<style type="text/css">
	.st0{fill:#FFD400;}
	.st1{fill:#010101;}
	.st2{fill:none;}
</style>
<g>
	<path class="st1" d="M154.54,122.6c0.01,0,0.02,0,0.03,0c-0.01-0.01-0.02-0.02-0.03-0.02V122.6z"/>
	<path class="st1" d="M201.24,165.39c-0.33-0.22-0.64-0.46-1-0.63c-0.92-0.46-1.41-1.19-1.26-2.26c0.14-1.02-0.33-1.52-1.15-1.92
		c-0.91-0.44-1.84-0.91-2.11-1.9c-0.34-0.12-0.68-0.15-0.86-0.33c-1.26-1.24-2.49-2.51-3.73-3.78c-0.04-0.04-0.02-0.13-0.03-0.26
		c1.31,0.91,2.57,1.78,3.83,2.66c0.04-0.03,0.07-0.06,0.11-0.09c-0.16-0.3-0.33-0.59-0.49-0.88c0.48-0.24,1.11,0.14,1.25,0.8
		c0.11,0.54,0.42,0.86,0.89,1.07c0.74,0.33,1.49,0.67,2.21,1.04c0.56,0.28,1.06,0.66,1.64,0.91c0.18,0.08,0.51-0.14,0.77-0.22
		c-0.06-0.16-0.06-0.38-0.18-0.46c-0.73-0.56-1.51-1.06-2.23-1.64c-0.41-0.33-0.75-0.74-1.09-1.14c-0.93-1.09-1.72-2.31-2.98-3.06
		c-0.42-0.25-0.92-0.27-1.39-0.38c-0.97-0.23-1.6-1.03-2.26-1.71c-0.13-0.13-0.17-0.36-0.25-0.54c0.05-0.04,0.1-0.09,0.15-0.13
		c0.25,0.25,0.51,0.51,0.76,0.76c0.05-0.05,0.1-0.1,0.16-0.15c-0.15-0.82-1.18-0.77-1.54-1.41c-0.02,0.21-0.04,0.41-0.07,0.69
		c-1.2-0.61-1.95-1.58-2.55-2.7c-0.07,0.06-0.14,0.12-0.2,0.18c0.35,0.53,0.7,1.06,1.05,1.58c-0.05,0.04-0.1,0.08-0.15,0.12
		c-0.33-0.13-0.67-0.25-1-0.38c-0.03,0.05-0.06,0.11-0.09,0.16c0.14,0.17,0.29,0.33,0.43,0.5c-0.03,0.03-0.06,0.07-0.08,0.1
		c-0.34-0.26-0.69-0.52-1.03-0.77c0.17,0.29,0.44,0.46,0.65,0.69c0.66,0.73,1.21,1.59,1.97,2.2c0.49,0.39,0.1,0.48-0.08,0.68
		c0.17,0.21,0.32,0.4,0.48,0.58c-0.05,0.05-0.11,0.09-0.16,0.14c-0.95-1.09-1.89-2.18-2.83-3.28c-0.04,0.04-0.08,0.07-0.12,0.11
		c0.71,1.07,1.42,2.15,2.13,3.22c-0.06,0.05-0.12,0.09-0.18,0.13c-1.68-1.82-3.09-3.9-4.86-5.63c-0.05,0.04-0.09,0.08-0.14,0.12
		c0.59,0.75,1.17,1.49,1.76,2.24c-0.05,0.05-0.1,0.1-0.15,0.15c-0.28-0.18-0.58-0.33-0.84-0.54c-0.7-0.6-1.39-1.22-2.08-1.84
		c-0.96-0.86-1.94-1.72-2.87-2.61c-0.76-0.73-1.41-1.6-2.23-2.25c-1.88-1.47-3.33-3.34-4.77-5.2c-1.51-1.96-3.16-3.79-5.04-5.4
		c-0.48-0.41-0.95-0.85-1.39-1.31c-1.79-1.87-3.55-3.76-5.34-5.62c-0.57-0.59-1.23-1.1-1.86-1.63c-0.41-0.33-0.98-0.37-1.32-0.89
		c-0.38-0.56-1.06-0.9-1.22-1.66c-0.02-0.09-0.16-0.15-0.26-0.21c-0.39-0.22-0.85-0.36-1.15-0.66c-0.86-0.85-1.66-1.77-2.48-2.66
		c-0.25-0.28-0.47-0.59-0.74-0.85c-0.12-0.12-0.42-0.29-0.46-0.25c-0.31,0.3-0.45,0.05-0.61-0.11c-1.36-1.36-2.71-2.72-4.07-4.09
		c-1.09-1.1-2.17-2.2-3.27-3.28c-0.18-0.18-0.44-0.28-0.66-0.42c-0.02,0.04-0.04,0.08-0.07,0.12c0.62,0.78,1.24,1.56,1.86,2.34
		c-0.03,0.03-0.07,0.06-0.1,0.09c-0.44-0.36-0.87-0.72-1.31-1.08c-0.04,0.05-0.09,0.09-0.13,0.14c0.4,0.5,0.74,1.08,1.23,1.48
		c0.64,0.52,1.32,0.97,1.8,1.67c0.44,0.65,1.03,1.19,1.56,1.78c0.03,0.04,0.1,0.04,0.16,0.06c0.08-0.15,0.16-0.29,0.32-0.59
		c0.29,0.77,0.61,1.4,1.43,1.44c1.46,1.42,2.93,2.82,4.36,4.26c1.01,1.02,1.94,2.1,2.92,3.14c0.35,0.38,0.73,0.74,1.1,1.1
		c-0.03,0.04-0.06,0.07-0.09,0.11c-0.25-0.03-0.5-0.05-0.76-0.08c1.21,0.66,1.86,1.84,2.75,2.8c-0.04,0.04-0.08,0.08-0.13,0.12
		c-0.28-0.25-0.57-0.5-0.85-0.75c-0.02,0.02-0.05,0.04-0.08,0.06c0.08,0.19,0.15,0.38,0.23,0.57c-0.04,0.04-0.09,0.09-0.13,0.13
		c-0.26-0.18-0.65-0.31-0.76-0.56c-0.36-0.89-1.18-1.28-1.83-1.87c-0.83-0.76-1.76-1.45-2.41-2.35c-0.38-0.52-0.88-0.72-1.33-1.16
		c0.02,1.03,0.93,1.35,1.3,2.06c-0.88-0.7-1.69-1.47-2.49-2.24c-0.59-0.57-1.16-1.17-1.77-1.71c-0.62-0.56-1.4-0.98-1.36-1.83
		c-0.53-0.24-1.02-0.36-1.38-0.65c-0.52-0.42-0.92-0.96-1.39-1.44c-1.28-1.31-2.58-2.59-3.83-3.92c-1.25-1.33-2.45-2.7-3.68-4.05
		c-0.61-0.68-1.23-1.35-1.83-2.05c-0.15-0.17-0.18-0.46-0.34-0.62c-0.7-0.68-1.44-1.31-2.13-1.98c-0.41-0.4-0.77-0.85-1.16-1.28
		c-0.04,0.04-0.07,0.07-0.11,0.11c0.44,0.53,0.88,1.06,1.3,1.6c0.18,0.22,0.44,0.44,0.46,0.7c0.04,0.44,0.31,0.52,0.63,0.59
		c0.58,0.13,0.64,0.63,0.86,1.02c-0.04,0.05-0.09,0.1-0.13,0.14c-0.68-0.47-1.35-0.95-2.11-1.48c-0.03,0.22-0.04,0.3-0.07,0.57
		c-0.74-0.65-1.4-1.22-2.05-1.8c0.05-0.06,0.1-0.11,0.15-0.17c0.53,0.4,1.05,0.8,1.58,1.21c0.05-0.05,0.09-0.09,0.14-0.14
		c-0.78-0.78-1.56-1.56-2.34-2.34c0.04-0.03,0.07-0.06,0.11-0.1c0.58,0.49,1.16,0.98,1.75,1.47c0.05-0.05,0.09-0.1,0.14-0.15
		c-0.19-0.25-0.35-0.52-0.56-0.75c-0.42-0.45-0.87-0.88-1.31-1.31c-0.1-0.1-0.18-0.26-0.31-0.31c-0.47-0.2-0.59-0.46-0.37-1.06
		c0.2,0.25,0.41,0.45,0.53,0.69c0.16,0.3,0.32,0.49,0.78,0.22c-0.48-0.48-0.94-0.94-1.42-1.42c0.13-0.11,0.27-0.23,0.4-0.35
		c0.38-0.35,0.73-0.73,1.1-1.09c-0.03-0.03-0.06-0.05-0.09-0.08c-0.08,0.02-0.16,0.05-0.25,0.07c-0.04-0.04-0.07-0.08-0.11-0.12
		c0.53-0.53,1.05-1.05,1.58-1.58c-0.06-0.07-0.11-0.14-0.17-0.2c-0.57,0.27-1.14,0.53-1.8,0.84c0.23,0.18,0.32,0.25,0.43,0.34
		c-0.13,0.14-0.22,0.26-0.32,0.37c-0.42,0.45-0.83,0.9-1.25,1.34c-0.08-0.08-0.15-0.15-0.23-0.23c0.07-0.07,0.12-0.16,0.2-0.22
		c-0.05-0.06-0.11-0.12-0.16-0.18c-0.08,0.07-0.15,0.14-0.23,0.21c-0.08-0.08-0.16-0.16-0.24-0.24c0.13-0.27,0.26-0.51,0.41-0.81
		c-0.44,0.21-0.57,0.42-0.57,0.65c-0.22-0.22-0.45-0.45-0.68-0.68c-0.04,0.04-0.09,0.08-0.13,0.12c0.26,0.26,0.52,0.52,0.78,0.78
		c-0.39-0.27-0.73-0.58-1.09-0.88c0.11-0.11,0.21-0.23,0.49-0.19c0.09,0.01,0.22-0.24,0.29-0.38c0.02-0.04-0.12-0.22-0.14-0.21
		c-0.14,0.04-0.29,0.09-0.41,0.18c-0.14,0.1-0.24,0.24-0.36,0.36c-0.03-0.18,0.02-0.28,0.1-0.34c0.31-0.27,0.67-0.5,0.92-0.81
		c0.53-0.65,1.03-1.3,1.96-1.41c0.07-0.01,0.12-0.08,0.18-0.13c0.22-0.2,0.41-0.43,0.66-0.59c0.96-0.65,1.97-1.24,2.78-2.09
		c0.3-0.31,0.76-0.46,1.08-0.75c0.67-0.62,1.28-1.3,1.94-1.93c0.54-0.51,1.13-0.95,1.66-1.46c0.23-0.22,0.33-0.58,0.55-0.82
		c0.67-0.73,1.38-1.43,2.07-2.15c0.78-0.83,1.55-1.67,2.33-2.51c0.06-0.06,0.17-0.09,0.25-0.13c0.03,0.04,0.06,0.08,0.1,0.12
		c-0.19,0.19-0.38,0.37-0.56,0.57c-0.28,0.3-0.62,0.6-0.03,0.97c-0.19,0.29-0.35,0.54-0.52,0.79c-0.1,0.15-0.2,0.32-0.34,0.43
		c-0.37,0.28-0.76,0.53-1.13,0.8c-0.85,0.61-1.23,1.59-1.85,2.39c-0.31,0.39-0.73,0.73-0.52,1.37c0.04,0.1-0.05,0.24-0.09,0.39
		c-0.22-0.22-0.48-0.52-0.51-0.5c-0.3,0.21-0.57,0.48-0.85,0.73c0.05,0.05,0.09,0.11,0.14,0.16c0.24-0.18,0.48-0.36,0.71-0.54
		c-0.01,0.06-0.02,0.12-0.03,0.18c0.29,0.12,0.58,0.24,0.86,0.37c0.05-0.03,0.1-0.06,0.15-0.09c-0.34-0.48-0.11-0.59,0.23-0.7
		c0.22-0.07,0.4-0.23,0.6-0.36c-0.05-0.06-0.09-0.13-0.14-0.19c-0.17,0.09-0.33,0.19-0.5,0.28c-0.05-0.22-0.02-0.42,0.09-0.5
		c0.4-0.29,0.98-0.35,1.18-0.91c0.03-0.08,0.21-0.09,0.32-0.13c0.03,0.04,0.06,0.07,0.09,0.11c-0.19,0.23-0.38,0.47-0.57,0.7
		c0.12,0,0.22,0,0.32,0c0.04,0.05,0.09,0.1,0.13,0.15c-0.52,0.55-1.03,1.12-1.57,1.66c-0.13,0.13-0.38,0.14-0.48,0.28
		c-0.42,0.54-0.77,1.13-1.2,1.66c-0.5,0.64-1.03,1.26-1.59,1.85c-0.59,0.63-1.28,1.16-1.83,1.82c-0.51,0.61-1.05,1.13-1.68,1.61
		c-0.49,0.37-0.73,1.06-1.08,1.61c0.05,0.03,0.11,0.07,0.16,0.11c0.29-0.35,0.89-0.48,0.66-1.19c0.67-0.02,1.04-0.43,1.38-0.9
		c0.27-0.38,0.61-0.72,0.92-1.07c0.16-0.18,0.32-0.37,0.5-0.54c0.56-0.55,1.13-1.1,1.71-1.64c0.02-0.02,0.11,0.03,0.18,0.05
		c0,0.15,0,0.29,0,0.44c0.15-0.16,0.27-0.34,0.27-0.53c0.02-0.8,1.03-1.74,1.83-1.69c0.12,0.01,0.28-0.09,0.33-0.19
		c0.16-0.28,0.28-0.58,0.36-0.76c0.38,0.07,0.62,0.12,0.85,0.16c0.03-0.04,0.06-0.09,0.1-0.13c-0.53-0.16-0.43-0.34-0.16-0.56
		c0.44-0.35,0.91-0.68,1.31-1.08c0.33-0.34,0.51-0.81,0.84-1.14c0.96-0.96,1.94-1.9,2.95-2.8c0.45-0.4,1-0.7,1.5-1.05
		c0.17-0.12,0.47-0.27,0.45-0.39c-0.12-0.9,0.89-0.53,1.11-1.02c0.55,0.28,0.48-0.21,0.64-0.41c0.44-0.18,0.81-0.47,1.22-0.69
		c0.42-0.23,0.56-1.06,1.36-0.49c0.1-0.24,0.18-0.42,0.29-0.67c-0.05,0.01-0.05,0.01-0.08,0.01c1.6-1.57,3.21-3.14,4.81-4.72
		c0.05,0.05,0.11,0.11,0.16,0.16c-0.42,0.49-0.84,0.98-1.24,1.44c0.52,0.15,0.79-0.89,1.51-0.3c0.05-0.1,0.17-0.23,0.14-0.28
		c-0.26-0.45,0.04-0.72,0.25-0.97c0.85-1.02,1.71-2.04,2.62-3.02c1.14-1.23,2.33-2.41,3.5-3.61c0.28-0.29,0.77-0.48,0.87-0.82
		c0.3-1.06,1.46-1.1,2.06-2.01c-0.02,0.4-0.03,0.62-0.05,0.99c0.24-0.1,0.46-0.12,0.56-0.24c0.28-0.33,0.5-0.71,0.75-1.06
		c0.21-0.29,0.4-0.59,0.64-0.85c0.34-0.39,0.72-0.74,1.08-1.11c0.3-0.32,0.56-0.7,0.9-0.98c0.26-0.21,0.63-0.27,0.91-0.46
		c0.37-0.25,0.68-0.6,1.06-0.85c0.31-0.21,0.64-0.56,1.23-0.07c-0.81,0.73-1.57,1.43-2.33,2.12c0.04,0.04,0.09,0.09,0.13,0.13
		c0.69-0.6,1.41-1.16,2.07-1.8c0.43-0.42,0.75-0.39,1.19,0.19c-1.06,0.87-2.11,1.73-3.16,2.6c-0.02-0.02-0.05-0.04-0.07-0.06
		c0.41-0.49,0.83-0.98,1.24-1.46c-0.06-0.05-0.12-0.11-0.18-0.16c-0.66,0.66-1.33,1.33-1.99,1.99c-0.04-0.03-0.07-0.07-0.11-0.1
		c0.15-0.2,0.3-0.39,0.44-0.59c-0.17,0-0.3,0.04-0.39,0.13c-0.44,0.47-0.88,0.95-1.3,1.44c-0.1,0.12-0.11,0.31-0.21,0.63
		c0.82-0.49,1.47-0.88,2.2-1.32c-0.88,1.02-1.66,1.96-2.48,2.87c-1.47,1.62-2.96,3.22-4.45,4.83c-1.23,1.32-2.48,2.64-3.73,3.95
		c-0.27,0.28-0.59,0.53-0.88,0.79c0.03,0.04,0.07,0.08,0.11,0.12c0.41-0.35,0.84-0.67,1.22-1.05c1.48-1.5,2.94-3.03,4.43-4.53
		c0.7-0.71,1.46-1.36,2.17-2.05c0.74-0.72,1.45-1.47,2.19-2.2c1.62-1.61,3.26-3.21,4.85-4.84c1.12-1.15,2.19-2.37,3.29-3.55
		c1.22-1.31,2.45-2.61,3.65-3.94c0.56-0.63,1.01-1.34,1.11-2.24c-0.14,0.12-0.22,0.28-0.31,0.42c-0.5,0.8-0.89,1.7-1.52,2.36
		c-1.58,1.65-3.27,3.18-4.9,4.77c-0.37,0.36-0.73,0.45-1.16-0.07c0.1-0.13,0.2-0.27,0.2-0.27c-0.32,0.03-0.74,0.09-1.17,0.11
		c-0.54,0.02-1.08,0.01-1.57,0.02c0.14-0.2,0.31-0.49,0.53-0.74c0.33-0.36,0.67-0.72,1.04-1.04c0.56-0.48,1.22-0.88,1.72-1.42
		c0.74-0.79,1.39-1.61,2.35-2.22c1.2-0.75,2.22-1.79,3.33-2.69c0.17-0.14,0.38-0.23,0.58-0.34c0.34-0.18,0.77-0.29,1-0.56
		c0.97-1.17,1.91-2.38,2.81-3.61c0.9-1.23,1.74-2.5,2.6-3.77c0.16-0.23,0.24-0.52,0.42-0.9c-0.35,0.04-0.55,0.06-0.78,0.08
		c0.15-0.41,0.29-0.77,0.43-1.13c-0.03-0.02-0.06-0.04-0.09-0.06c-0.12,0.11-0.25,0.22-0.39,0.35c-0.42-0.7,0.49-0.8,0.45-1.31
		c-0.26,0.13-0.68,0.39-0.7,0.36c-0.45-0.57-0.73-0.11-1.05,0.05c-0.37-0.39-0.28-0.73,0.27-1.12c0.43-0.3,0.86-0.6,1.26-0.95
		c0.74-0.64,1.46-1.31,2.19-1.96c0.08-0.07,0.21-0.09,0.46-0.19c-0.75,0.85-1.4,1.58-2.04,2.32c0.05,0.05,0.1,0.1,0.14,0.15
		c0.51-0.43,1.02-0.86,1.52-1.28c0.05,0.06,0.11,0.12,0.16,0.17c-0.59,0.59-1.17,1.17-1.76,1.76c0.04,0.04,0.09,0.08,0.13,0.11
		c3.45-2.95,6.68-6.11,9.54-9.88c-1.72,1.03-3.09,2.3-4.75,3.16c0.67-1.32,1.88-2.11,2.89-3.09c-0.05-0.06-0.11-0.11-0.16-0.17
		c-2.74,2.43-5.48,4.86-8.22,7.28c0.05-1.72,1.72-2.14,2.44-3.36c-0.66,0.44-1.32,0.89-2.01,1.35c-0.32-0.17-0.22-0.4-0.01-0.61
		c0.25-0.26,0.51-0.5,0.78-0.74c0.69-0.6,1.39-1.18,2.08-1.77c-0.08-0.05-0.23-0.09-0.24-0.14c-0.17-0.82,0.78-0.93,0.88-1.62
		c-0.57,0.41-1.14,0.82-1.7,1.23c-0.05-0.05-0.1-0.11-0.15-0.16c0.18-0.23,0.36-0.46,0.54-0.69c-0.04-0.05-0.07-0.09-0.11-0.13
		c-1.02,0.68-2.04,1.37-3.07,2.05c-0.03-0.04-0.06-0.07-0.09-0.11c0.29-0.36,0.58-0.71,0.98-1.19c-0.37,0.1-0.55,0.15-0.74,0.2
		c-0.04-0.04-0.08-0.09-0.11-0.13c0.64-0.72,1.27-1.45,1.91-2.17c-0.04-0.04-0.08-0.08-0.13-0.13c-0.53,0.45-1.06,0.9-1.59,1.35
		c-0.02-0.01-0.04-0.03-0.06-0.04c0.11-0.22,0.22-0.44,0.38-0.76c-0.3,0.21-0.5,0.36-0.74,0.53c-0.02-0.17-0.03-0.25-0.03-0.24
		c-0.73,0.46-1.46,0.92-2.19,1.38c-0.04-0.04-0.07-0.08-0.11-0.12c0.97-1.89,2.84-3.06,3.87-4.91c-0.73,0.55-1.4,1.16-2.12,1.7
		c-0.71,0.52-1.25,1.31-2.25,1.45c0.51-0.68,1.03-1.37,1.58-2.09c-0.22-0.02-0.34-0.03-0.5-0.04c0.12-0.23,0.21-0.41,0.29-0.56
		c-0.39,0.26-0.81,0.5-1.2,0.79c-0.4,0.3-0.77,0.64-1.15,0.96c-0.05-0.06-0.1-0.11-0.15-0.17c1.21-1.21,2.43-2.43,3.65-3.65
		c-0.21-0.11-0.41-0.21-0.59-0.3c-0.47,1.13-1.65,1.19-2.56,1.66c0.52-1.12,1.53-1.76,2.47-2.7c-0.36-0.01-0.64-0.11-0.76-0.01
		c-0.54,0.41-1,0.91-1.55,1.3c-0.37,0.27-0.84,0.41-1.26,0.61c-0.02-0.04-0.05-0.08-0.07-0.12c1-0.81,2.01-1.62,3.12-2.52
		c-0.93,0.2-1.28,1.08-2.12,1.16c0.11-0.39,0.19-0.7,0.28-1.02c-0.32-0.63,0.54-0.6,0.57-1.2c-0.45,0.27-0.8,0.48-1.29,0.78
		c0.1-0.29,0.11-0.44,0.19-0.52c0.51-0.47,1.03-0.94,1.57-1.38c0.62-0.51,1.3-0.97,1.9-1.51c0.3-0.27,0.49-0.67,0.73-1.02
		c-0.06-0.05-0.13-0.1-0.19-0.15c-0.31,0.36-0.67,0.69-0.92,1.09c-0.26,0.42-0.64,0.71-1.22,0.72c0.07-0.16,0.14-0.3,0.21-0.46
		c-0.53,0.25-1.03,0.5-1.54,0.74c-0.02-0.04-0.05-0.08-0.07-0.12c0.39-0.33,0.79-0.67,1.18-1c-0.42,0.06-0.78,0.19-1.07,0.42
		c-0.58,0.47-0.56,0.5-1.13,0.42c1.94-0.95,3.12-2.69,5.03-3.5c-0.05,0.09-0.1,0.18-0.21,0.39c0.69-0.75,1.7-0.98,2.05-2.07
		c-4.06,2.53-8,4.98-11.95,7.44c0.32-0.48,0.72-0.87,1.12-1.27c0.27-0.28,0.52-0.59,0.81-0.86c1.16-1.09,2.51-1.92,3.86-2.76
		c0.81-0.5,1.55-1.1,2.32-1.65c-0.03-0.04-0.06-0.08-0.09-0.13c-1.66,0.97-3.32,1.93-4.98,2.9c-0.04-0.05-0.07-0.1-0.11-0.15
		c0.84-0.62,1.68-1.24,2.53-1.86c-0.01-0.02-0.03-0.03-0.04-0.05c-1.34,0.71-2.67,1.43-4.01,2.14c-0.03-0.04-0.06-0.09-0.1-0.13
		c1.02-0.75,2.05-1.5,3.07-2.26c-0.05-0.07-0.09-0.13-0.14-0.2c-0.91,0.49-1.81,0.98-2.58,1.39c-0.38-0.03-0.65-0.09-0.89-0.05
		c-0.28,0.04-0.54,0.17-0.81,0.26c0.1-0.24,0.24-0.44,0.44-0.57c0.37-0.23,0.67-0.45,0.07-0.9c0.27-0.17,0.49-0.3,0.73-0.45
		c0.02,0.16,0.03,0.25,0.05,0.42c0.29-0.49,0.53-0.91,0.78-1.33c-0.02-0.03-0.05-0.07-0.07-0.1c-0.75,0.45-1.51,0.89-2.26,1.34
		c-0.02-0.04-0.05-0.07-0.07-0.11c0.37-0.28,0.74-0.56,1.13-0.86c-0.21-0.17-0.31-0.24-0.44-0.35c0.4-0.32,0.75-0.6,1.09-0.9
		c0.08-0.07,0.1-0.22,0.15-0.33c-0.14-0.05-0.3-0.15-0.41-0.13c-0.32,0.08-0.61,0.21-0.92,0.33c-0.03-0.05-0.06-0.11-0.09-0.16
		c0.46-0.28,0.92-0.56,1.4-0.85c-0.49-0.17-0.95-0.47-1.36-0.44c-0.46,0.04-0.87,0.38-1.31,0.58c-0.04-0.06-0.07-0.11-0.11-0.17
		c0.49-0.34,0.97-0.69,1.46-1.04c-0.03-0.05-0.06-0.1-0.09-0.15c-0.4,0.19-0.81,0.39-1.21,0.58c-0.03-0.03-0.06-0.05-0.08-0.08
		c0.25-0.36,0.5-0.73,0.76-1.09c-0.02-0.02-0.04-0.04-0.07-0.06c-0.46,0.36-0.91,0.72-1.41,1.11c-0.1-0.19-0.16-0.29-0.23-0.43
		c-0.51,0.43-0.98,0.84-1.45,1.24c-0.06-0.06-0.12-0.12-0.19-0.18c0.25-0.34,0.5-0.68,0.75-1.02c-0.27,0.02-0.44,0.15-0.61,0.27
		c-0.32,0.23-0.63,0.48-0.96,0.7c-0.09,0.06-0.25,0.01-0.38,0c0-0.13,0-0.27,0-0.36c-0.23,0.11-0.49,0.22-0.74,0.33
		c-0.02-0.03-0.04-0.07-0.06-0.1c0.5-0.5,0.99-0.99,1.57-1.57c-0.31,0.03-0.5,0.06-0.77,0.09c0.39-0.66,0.71-1.19,1.11-1.86
		c-0.75,0.42-1.38,0.77-2,1.12c-0.09-0.3-0.15-0.5-0.24-0.79c0.16-0.14,0.4-0.32,0.61-0.54c0.1-0.1,0.15-0.27,0.19-0.41
		c0.05-0.17-0.01-0.44,0.1-0.52c0.57-0.47,1.17-0.92,1.79-1.33c0.7-0.46,1.44-0.88,2.16-1.31c-0.04-0.09-0.09-0.17-0.13-0.26
		c-1.52,1.13-3.43,1.41-5.06,2.28c0.21-0.36,0.43-0.73,0.64-1.09c-0.05-0.06-0.11-0.12-0.16-0.17c-0.54,0.21-1.09,0.43-1.7,0.67
		c0.03-0.32,0.01-0.55,0.07-0.76c0.08-0.3,0.21-0.59,0.32-0.88c-0.06-0.04-0.12-0.09-0.19-0.13c-0.36,0.15-0.71,0.33-1.08,0.44
		c-0.16,0.05-0.5,0.01-0.55-0.09c-0.16-0.3-0.21-0.65-0.32-1.02c-0.25,0.05-0.52,0.03-0.64,0.15c-0.38,0.37-0.75,0.37-1.21,0.04
		c0.27-0.51,1.19-0.5,1.1-1.32c-1.02,0.07-2.01,0.15-3.04,0.22c-0.23-0.24-0.53-0.4-0.88-0.1c-1.05,0.89-2.09,1.78-3.13,2.67
		c-0.07,0.06-0.08,0.18-0.1,0.23c0.41-0.27,0.82-0.54,1.23-0.81c0.05,0.06,0.09,0.13,0.14,0.19c-1.25,0.88-2.12,2.25-3.7,2.75
		c-0.14,0.92-1.02,1.16-1.62,1.67c0.11-0.32,0.29-0.57,0.46-0.84c0.32-0.51,0.63-1.02,0.95-1.54c-0.53,0.66-1.07,1.32-1.59,1.99
		c-0.19,0.24-0.38,0.49-0.53,0.76c-0.16,0.29-0.31,0.54-0.71,0.21c0.08-0.16,0.15-0.32,0.29-0.62c-0.19,0.11-0.26,0.12-0.3,0.17
		c-0.76,0.91-1.49,1.85-2.27,2.74c-0.42,0.47-0.87,0.96-1.61,1.04c0-0.18,0-0.29,0.01-0.53c-0.8,0.69-1.5,1.3-2.22,1.92
		c0.14,0.03,0.23,0.06,0.43,0.11c-0.18,0.18-0.28,0.35-0.43,0.42c-0.42,0.19-0.89,0.28-1.28,0.5c-0.8,0.45-1.61,0.91-2.34,1.47
		c-1.67,1.28-3.29,2.62-4.93,3.94c-0.14,0.11-0.31,0.17-0.47,0.25c-0.05-0.07-0.1-0.14-0.15-0.21c1.09-0.97,2.18-1.93,3.26-2.92
		c0.44-0.4,0.85-0.85,1.28-1.27c-1.47,1.06-2.87,2.17-4.28,3.27c-0.68,0.53-1.38,1.04-2.06,1.57c-1.49,1.17-2.99,2.34-4.46,3.54
		c-0.87,0.71-1.73,1.42-2.52,2.21c-1.11,1.12-2.15,2.31-3.2,3.49c-0.57,0.65-1.1,1.34-1.65,2.01c0.05,0.04,0.09,0.08,0.14,0.12
		c0.42-0.52,0.8-1.06,1.26-1.54c0.56-0.58,1.19-1.11,1.79-1.65c0.2-0.18,0.32-0.57,0.75-0.3c0.02,0.01,0.2-0.16,0.18-0.2
		c-0.21-0.46,0.21-0.4,0.4-0.51c0.26-0.15,0.58-0.22,0.78-0.42c0.31-0.31,0.52-0.27,0.76,0.25c0.51-0.45,0.95-0.85,1.39-1.25
		c-0.03-0.04-0.05-0.07-0.08-0.11c-0.42,0.21-0.84,0.42-1.37,0.68c0.1-0.2,0.12-0.28,0.17-0.35c0.41-0.62,0.8-1.25,1.26-1.83
		c0.25-0.31,0.72-0.8,0.93-0.72c0.56,0.23,0.73-0.15,1.04-0.33c0.37-0.21,0.76-0.41,1.16-0.57c0.06-0.02,0.32,0.19,0.31,0.26
		c-0.03,0.25-0.08,0.55-0.24,0.7c-0.38,0.37-0.84,0.63-1.23,0.99c-0.81,0.73-1.6,1.48-2.39,2.23c-0.1,0.1-0.19,0.22-0.29,0.35
		c0.18,0.1,0.3,0.17,0.42,0.23c-0.89,0.62-1.75,1.23-2.66,1.86c0.18,0.1,0.29,0.16,0.55,0.3c-0.58,0.39-1.08,0.7-1.55,1.06
		c-0.18,0.13-0.27,0.37-0.39,0.57c-0.19,0.3-0.35,0.61-0.56,0.88c-0.07,0.09-0.32,0.02-0.4,0.1c-0.32,0.34-0.58,0.74-0.92,1.07
		c-0.7,0.69-1.25,1.55-2.25,1.9c-0.16,0.06-0.27,0.24-0.39,0.38c-0.29,0.33-0.55,0.7-0.86,1.01c-0.55,0.53-1.16,1-1.69,1.55
		c-0.56,0.59-1.21,1.1-1.59,1.88c-0.23,0.46-0.74,0.8-1.19,1.11c-0.4,0.27-0.53,0.69-0.79,1.02c-0.25,0.32-0.89,0.28-1.27,0.53
		c-0.56,0.37-1.05,0.84-1.53,1.32c-0.39,0.38-0.7,0.84-1.05,1.26c0.02,0.02,0.03,0.04,0.05,0.06c0.51-0.33,1.03-0.66,1.54-0.99
		c0.03,0.04,0.07,0.08,0.1,0.11c-0.07,0.12-0.13,0.26-0.22,0.36c-0.47,0.5-0.97,0.98-1.43,1.49c-0.45,0.5-0.88,1.02-1.28,1.55
		c-0.4,0.52-1.05,0.85-1.15,1.62c-0.02,0.12-0.38,0.2-0.6,0.25c-0.26,0.07-0.53,0.08-0.8,0.12c0.01,0.03,0.02,0.07,0.03,0.1
		c0.12,0.02,0.24,0.04,0.37,0.06c0.03,0.05,0.06,0.11,0.09,0.16c-2.68,1.4-4.59,3.69-6.93,5.5c0.55-0.29,1.03-0.67,1.53-1.02
		c0.38-0.26,0.69-0.81,1.39-0.29c-0.42,0.16-0.4,0.89-1.11,0.62c-0.05-0.02-0.19,0.14-0.26,0.24c-0.09,0.13-0.13,0.31-0.23,0.43
		c-0.3,0.36-0.61,0.72-0.95,1.04c-0.57,0.54-1.16,1.06-1.76,1.57c-0.72,0.61-1.46,1.21-2.22,1.84c0.64,0.34,0.71-0.17,0.96-0.38
		c0.86-0.71,1.77-1.37,2.62-2.11c0.99-0.86,1.92-1.79,2.9-2.66c0.22-0.2,0.55-0.27,0.78-0.38c0.18-0.25,0.31-0.64,0.53-0.69
		c0.51-0.11,0.43-0.4,0.36-0.91c-0.53,0.42-0.99,0.78-1.44,1.13c-0.05-0.05-0.1-0.1-0.15-0.15c0.33-0.59,0.7-1.14,1.37-1.5
		c0.06,0.14,0.1,0.24,0.17,0.4c1.17-0.92,2.29-1.8,3.39-2.67c0.1,0.18,0.17,0.3,0.25,0.43c-0.66,0.71-1.57,1.19-1.91,2.15
		c0.04,0.04,0.08,0.08,0.13,0.12c0.88-0.77,1.76-1.54,2.64-2.32c0.05,0.06,0.09,0.11,0.14,0.17c-0.3,0.23-0.64,0.43-0.9,0.7
		c-0.25,0.26-0.42,0.59-0.63,0.9c0.04,0.03,0.07,0.05,0.11,0.08c0.15-0.06,0.29-0.11,0.44-0.17c0.05,0.04,0.1,0.09,0.15,0.13
		c-0.44,0.53-0.89,1.07-1.33,1.6c0.06,0.06,0.11,0.11,0.17,0.17c0.84-0.66,1.69-1.32,2.53-1.98c-0.56,0.64-1.06,1.45-1.79,1.79
		c-0.94,0.44-1.41,1.16-1.9,1.95c-0.09,0.14-0.19,0.26-0.31,0.41c0.46,0.1,0.67-0.1,0.92-0.38c0.52-0.56,1.13-1.04,1.72-1.53
		c0.39-0.32,0.81-0.6,1.21-0.91c0.2-0.15,0.4-0.31,0.56-0.49c0.24-0.27,0.4-0.66,1.02-0.45c-0.28,0.33-0.52,0.61-0.76,0.9
		c0.45-0.31,0.99-0.62,1.18-1.09c0.28-0.71,0.8-1.1,1.35-1.51c0.14-0.1,0.19-1.62,0.07-1.78c-0.03-0.04-0.06-0.08-0.1-0.12
		c2.49-2.1,4.96-4.18,7.44-6.26c0.05,0.05,0.11,0.11,0.16,0.16c-0.44,0.55-0.88,1.09-1.3,1.65c-0.1,0.14-0.17,0.31-0.21,0.48
		c-0.01,0.03,0.22,0.2,0.27,0.17c0.16-0.09,0.31-0.23,0.44-0.37c0.16-0.17,0.3-0.37,0.46-0.56c0.05,0.04,0.1,0.09,0.15,0.13
		c-0.12,0.16-0.25,0.31-0.35,0.47c-0.26,0.4-0.69,0.79-0.72,1.23c-0.04,0.62-0.22,1.13-0.63,1.5c-0.65,0.59-1.38,1.09-2.08,1.63
		c-0.02-0.05-0.07-0.19-0.1-0.19c-0.11,0.01-0.22,0.11-0.31,0.09c-0.52-0.13-0.56-0.11-0.55,0.39c0,0.45-0.61,1.11-1.15,1.14
		c0.19-0.19,0.35-0.32,0.47-0.48c0.03-0.04-0.06-0.16-0.1-0.25c0.24-0.35,0.44-0.73,0.72-1.05c0.58-0.65,1.2-1.27,1.8-1.9
		c-0.05-0.05-0.09-0.09-0.14-0.14c-0.34,0.74-1.23,0.78-1.67,1.5c-0.58,0.95-1.47,1.69-2.21,2.55c-0.52,0.6-0.98,1.26-1.51,1.84
		c-0.37,0.41-0.83,0.74-1.27,1.08c-0.28,0.22-0.38,0.43-0.21,0.66c0.29-0.33,0.54-0.73,0.89-0.99c0.39-0.29,0.88-0.46,1.33-0.69
		c0.09-0.05,0.19-0.1,0.37-0.2c-0.66,0.66-1.22,1.24-1.8,1.8c-0.61,0.59-1.22,1.17-1.85,1.72c-0.19,0.17-0.45,0.32-0.7,0.37
		c-0.45,0.08-0.75,0.32-0.85,0.82c0.23-0.17,0.45-0.34,0.68-0.51c0.04,0.05,0.09,0.1,0.13,0.16c-0.68,0.59-1.36,1.19-2.04,1.78
		c0.01-0.26,0.23-0.49,0.17-0.61c-0.21-0.45,0.1-0.61,0.32-0.82c0.44-0.42,0.92-0.81,1.36-1.23c0.12-0.11,0.19-0.28,0.33-0.52
		c-0.46,0.26-0.87,0.38-1.14,0.65c-0.97,0.97-1.87,2.01-2.84,2.97c-1.57,1.55-3.19,3.04-4.77,4.58c-0.8,0.77-1.56,1.57-2.33,2.38
		c-0.13,0.14-0.19,0.36-0.29,0.59c1.37-0.36,1.86-1.73,3.08-2.12c-0.32,0.4-0.72,0.72-1.02,1.12c-0.73,0.96-0.71,0.97-0.56,1.24
		c1.01-1.01,2.01-2.01,3.01-3.01c0.05,0.05,0.11,0.11,0.16,0.16c-0.66,0.66-1.32,1.32-1.98,1.98c-0.67,0.67-1.33,1.33-2,2
		c-0.05-0.04-0.09-0.09-0.14-0.13c0.18-0.2,0.35-0.41,0.53-0.61c-1.2,0.72-1.29,0.73-1.85,0.25c0.13-0.19,0.26-0.39,0.4-0.58
		c-0.01,0-0.03,0-0.04-0.01c-0.18,0.18-0.36,0.36-0.53,0.53c-0.09-0.11-0.22-0.15-0.34-0.22c0.28-0.38,0.56-0.75,0.84-1.13
		c-0.32-0.44-0.48-0.02-0.65,0.1c-0.2,0.13-0.33,0.36-0.51,0.52c-0.1,0.09-0.19,0.17-0.29,0.26c-0.08-0.57-0.42-0.93-0.85-1.24
		c-0.38-0.27-0.72-0.61-1.07-0.92c-0.18-0.16-0.37-0.32-0.54-0.5c-0.55-0.56-1.1-1.13-1.64-1.71c-0.02-0.02,0.03-0.11,0.05-0.18
		c0.15,0,0.29,0,0.43,0c-0.16-0.15-0.34-0.27-0.53-0.27c-0.8-0.02-1.74-1.03-1.69-1.83c0.01-0.12-0.09-0.28-0.19-0.33
		c-0.28-0.16-0.58-0.28-0.76-0.36c0.07-0.38,0.12-0.62,0.16-0.85c-0.04-0.03-0.09-0.07-0.13-0.1c-0.16,0.53-0.34,0.43-0.56,0.16
		c-0.35-0.44-0.68-0.91-1.08-1.31c-0.34-0.33-0.81-0.51-1.14-0.84c-0.96-0.96-1.9-1.94-2.81-2.95c-0.4-0.45-0.7-1-1.05-1.51
		c-0.12-0.17-0.27-0.47-0.39-0.45c-0.9,0.12-0.53-0.89-1.02-1.11c0.28-0.55-0.21-0.48-0.41-0.64c-0.18-0.44-0.47-0.81-0.69-1.22
		c-0.23-0.42-1.06-0.56-0.49-1.36c-0.24-0.1-0.42-0.18-0.67-0.29c0.01,0.05,0.01,0.05,0.01,0.08c-1.57-1.6-3.14-3.21-4.72-4.82
		c0.05-0.05,0.11-0.11,0.16-0.16c0.49,0.42,0.98,0.84,1.44,1.24c0.15-0.52-0.89-0.79-0.3-1.51c-0.1-0.05-0.23-0.17-0.28-0.14
		c-0.45,0.26-0.72-0.04-0.97-0.25c-1.02-0.85-2.04-1.71-3.02-2.62c-1.23-1.14-2.41-2.33-3.61-3.5c-0.29-0.28-0.48-0.77-0.82-0.87
		c-1.06-0.3-1.1-1.46-2.01-2.06c0.4,0.02,0.62,0.03,0.99,0.05c-0.1-0.24-0.12-0.46-0.24-0.56c-0.33-0.28-0.71-0.5-1.06-0.75
		c-0.29-0.21-0.59-0.4-0.85-0.64c-0.39-0.34-0.74-0.72-1.11-1.08c-0.32-0.3-0.7-0.56-0.98-0.9c-0.21-0.26-0.27-0.63-0.46-0.91
		c-0.25-0.37-0.6-0.68-0.85-1.06c-0.21-0.31-0.56-0.64-0.07-1.23c0.73,0.81,1.43,1.57,2.12,2.33c0.04-0.04,0.09-0.09,0.13-0.13
		c-0.6-0.69-1.16-1.41-1.8-2.07c-0.42-0.43-0.39-0.75,0.19-1.19c0.87,1.06,1.73,2.11,2.6,3.16c-0.02,0.02-0.04,0.05-0.06,0.07
		c-0.49-0.41-0.98-0.83-1.47-1.24c-0.05,0.06-0.11,0.12-0.16,0.18c0.66,0.66,1.33,1.33,1.99,1.99c-0.03,0.04-0.07,0.07-0.1,0.11
		c-0.2-0.15-0.39-0.3-0.59-0.44c0,0.17,0.04,0.3,0.13,0.39c0.47,0.44,0.95,0.88,1.44,1.3c0.12,0.1,0.31,0.11,0.63,0.21
		c-0.49-0.82-0.88-1.47-1.32-2.2c1.02,0.88,1.96,1.66,2.87,2.48c1.62,1.47,3.22,2.96,4.83,4.45c1.32,1.23,2.64,2.48,3.95,3.73
		c0.28,0.27,0.53,0.59,0.79,0.88c0.04-0.03,0.08-0.07,0.12-0.11c-0.35-0.41-0.67-0.84-1.05-1.22c-1.5-1.49-3.03-2.94-4.53-4.43
		c-0.71-0.7-1.36-1.46-2.05-2.17c-0.72-0.74-1.47-1.45-2.2-2.19c-1.61-1.62-3.21-3.26-4.84-4.85c-1.15-1.12-2.37-2.19-3.55-3.29
		c-1.31-1.22-2.61-2.45-3.94-3.65c-0.63-0.56-1.34-1.01-2.24-1.11c0.12,0.14,0.27,0.22,0.42,0.31c0.8,0.5,1.7,0.89,2.36,1.52
		c1.65,1.58,3.18,3.27,4.77,4.9c0.36,0.37,0.45,0.73-0.07,1.16c-0.13-0.1-0.27-0.2-0.27-0.2c0.03,0.32,0.09,0.74,0.11,1.17
		c0.02,0.54,0.01,1.08,0.02,1.57c-0.2-0.14-0.49-0.31-0.74-0.53c-0.36-0.33-0.72-0.67-1.04-1.04c-0.49-0.56-0.88-1.22-1.42-1.72
		c-0.79-0.74-1.61-1.39-2.22-2.35c-0.75-1.2-1.79-2.22-2.69-3.33c-0.14-0.17-0.23-0.38-0.34-0.58c-0.18-0.34-0.29-0.77-0.56-1
		c-1.17-0.97-2.38-1.91-3.61-2.81c-1.23-0.9-2.5-1.74-3.77-2.6c-0.23-0.16-0.52-0.24-0.9-0.42c0.04,0.35,0.06,0.55,0.08,0.78
		c-0.41-0.15-0.77-0.29-1.13-0.43c-0.02,0.03-0.04,0.06-0.06,0.09c0.11,0.12,0.22,0.25,0.35,0.39c-0.7,0.42-0.8-0.49-1.31-0.45
		c0.13,0.26,0.39,0.68,0.36,0.7c-0.57,0.45-0.11,0.73,0.05,1.05c-0.39,0.37-0.73,0.28-1.12-0.27c-0.3-0.43-0.6-0.86-0.95-1.26
		c-0.64-0.74-1.31-1.46-1.96-2.19c-0.07-0.08-0.09-0.21-0.19-0.46c0.85,0.75,1.58,1.4,2.32,2.04c0.05-0.05,0.1-0.1,0.15-0.14
		c-0.43-0.51-0.86-1.02-1.28-1.52c0.06-0.05,0.12-0.11,0.17-0.16c0.59,0.59,1.17,1.17,1.76,1.76c0.04-0.04,0.08-0.09,0.11-0.13
		c-2.95-3.45-6.11-6.68-9.88-9.54c1.03,1.72,2.3,3.09,3.16,4.75c-1.31-0.67-2.11-1.88-3.09-2.89c-0.06,0.05-0.11,0.11-0.17,0.16
		c2.43,2.74,4.86,5.48,7.28,8.22c-1.72-0.05-2.14-1.72-3.36-2.44c0.44,0.66,0.89,1.32,1.35,2.01c-0.17,0.32-0.4,0.22-0.61,0.01
		c-0.26-0.25-0.5-0.51-0.74-0.78c-0.6-0.69-1.18-1.39-1.77-2.08c-0.05,0.08-0.09,0.23-0.14,0.24c-0.82,0.17-0.93-0.77-1.62-0.88
		c0.41,0.57,0.82,1.14,1.23,1.7c-0.05,0.05-0.11,0.1-0.16,0.15c-0.23-0.18-0.46-0.36-0.69-0.54c-0.04,0.04-0.09,0.07-0.13,0.11
		c0.68,1.02,1.37,2.04,2.05,3.07c-0.04,0.03-0.07,0.06-0.11,0.09c-0.36-0.29-0.71-0.58-1.19-0.98c0.1,0.37,0.15,0.55,0.2,0.74
		c-0.04,0.04-0.09,0.08-0.13,0.11c-0.72-0.64-1.45-1.27-2.17-1.91c-0.04,0.04-0.08,0.08-0.13,0.13c0.45,0.53,0.9,1.06,1.35,1.59
		c-0.01,0.02-0.02,0.04-0.04,0.06c-0.22-0.11-0.44-0.22-0.76-0.38c0.21,0.3,0.36,0.5,0.53,0.74c-0.17,0.02-0.25,0.03-0.24,0.03
		c0.46,0.73,0.92,1.46,1.38,2.19c-0.04,0.04-0.08,0.07-0.12,0.11c-1.89-0.97-3.06-2.84-4.91-3.87c0.55,0.73,1.16,1.4,1.7,2.12
		c0.52,0.71,1.31,1.25,1.45,2.25c-0.68-0.51-1.37-1.03-2.1-1.58c-0.02,0.22-0.03,0.34-0.04,0.5c-0.23-0.12-0.41-0.21-0.56-0.29
		c0.26,0.39,0.51,0.81,0.79,1.2c0.3,0.4,0.64,0.77,0.96,1.15c-0.06,0.05-0.11,0.1-0.17,0.15c-1.21-1.21-2.43-2.43-3.65-3.65
		c-0.11,0.21-0.21,0.41-0.3,0.59c1.13,0.47,1.19,1.65,1.66,2.56c-1.12-0.52-1.76-1.53-2.7-2.47c-0.01,0.36-0.11,0.64-0.01,0.76
		c0.41,0.54,0.91,1,1.3,1.55c0.27,0.37,0.41,0.84,0.61,1.26c-0.04,0.02-0.08,0.05-0.12,0.07c-0.81-1-1.62-2.01-2.52-3.12
		c0.2,0.93,1.08,1.28,1.16,2.12c-0.39-0.11-0.71-0.19-1.02-0.28c0,0,0,0,0,0c0,0,0,0,0,0c0,0,0,0,0,0c0,0,0,0,0,0l0,0
		c-0.63,0.32-0.6-0.54-1.2-0.57c0.27,0.45,0.48,0.8,0.78,1.29c-0.29-0.1-0.44-0.11-0.52-0.19c-0.47-0.51-0.94-1.03-1.38-1.57
		c-0.51-0.62-0.97-1.3-1.51-1.9c-0.27-0.3-0.67-0.49-1.02-0.73c-0.05,0.06-0.1,0.13-0.15,0.19c0.36,0.31,0.69,0.67,1.09,0.92
		c0.42,0.26,0.71,0.64,0.72,1.22c-0.16-0.07-0.3-0.14-0.46-0.21c0.25,0.53,0.5,1.03,0.74,1.54c-0.04,0.02-0.08,0.05-0.12,0.07
		c-0.33-0.39-0.67-0.79-1-1.18c0.06,0.42,0.19,0.78,0.42,1.07c0.48,0.58,0.5,0.56,0.42,1.13c-0.95-1.94-2.69-3.12-3.5-5.03
		c0.09,0.05,0.18,0.1,0.39,0.21c-0.75-0.69-0.98-1.7-2.07-2.05c2.53,4.06,4.98,8,7.44,11.95c-0.48-0.32-0.87-0.72-1.28-1.12
		c-0.28-0.27-0.59-0.52-0.86-0.81c-1.09-1.16-1.92-2.51-2.76-3.86c-0.5-0.81-1.1-1.55-1.65-2.32c-0.04,0.03-0.08,0.06-0.13,0.09
		c0.97,1.66,1.93,3.32,2.9,4.98c-0.05,0.04-0.1,0.07-0.15,0.11c-0.62-0.84-1.24-1.68-1.86-2.53c-0.02,0.01-0.03,0.03-0.05,0.04
		c0.71,1.34,1.43,2.67,2.14,4.01c-0.04,0.03-0.09,0.06-0.13,0.1c-0.75-1.02-1.5-2.05-2.26-3.07c-0.07,0.05-0.13,0.09-0.2,0.14
		c0.49,0.91,0.98,1.81,1.39,2.58c-0.03,0.38-0.09,0.65-0.05,0.89c0.04,0.28,0.17,0.54,0.26,0.81c-0.24-0.1-0.44-0.24-0.57-0.44
		c-0.24-0.37-0.45-0.67-0.9-0.07c-0.17-0.27-0.3-0.49-0.45-0.73c0.16-0.02,0.25-0.03,0.42-0.05c-0.49-0.29-0.91-0.53-1.33-0.78
		c-0.03,0.02-0.07,0.05-0.1,0.07c0.45,0.75,0.89,1.51,1.34,2.26c-0.04,0.02-0.08,0.05-0.11,0.07c-0.28-0.37-0.56-0.74-0.86-1.13
		c-0.17,0.21-0.24,0.3-0.35,0.44c-0.32-0.4-0.6-0.75-0.9-1.09c-0.07-0.08-0.22-0.1-0.33-0.15c-0.05,0.14-0.15,0.3-0.13,0.41
		c0.08,0.32,0.21,0.61,0.33,0.92c-0.05,0.03-0.11,0.06-0.16,0.09c-0.28-0.46-0.56-0.92-0.85-1.4c-0.17,0.49-0.47,0.95-0.44,1.36
		c0.04,0.46,0.38,0.87,0.58,1.31c-0.06,0.04-0.11,0.07-0.17,0.11c-0.35-0.49-0.69-0.97-1.04-1.46c-0.05,0.03-0.1,0.06-0.15,0.09
		c0.19,0.4,0.39,0.81,0.58,1.21c-0.03,0.03-0.05,0.06-0.08,0.08c-0.36-0.25-0.73-0.5-1.09-0.76c-0.02,0.02-0.04,0.04-0.06,0.07
		c0.36,0.46,0.72,0.91,1.11,1.41c-0.19,0.1-0.29,0.16-0.43,0.23c0.43,0.51,0.84,0.98,1.24,1.45c-0.06,0.06-0.12,0.12-0.18,0.19
		c-0.34-0.25-0.68-0.5-1.02-0.75c0.02,0.27,0.15,0.44,0.27,0.61c0.23,0.32,0.48,0.63,0.7,0.96c0.06,0.09,0.01,0.25,0,0.38
		c-0.13,0-0.27,0-0.36,0c0.11,0.23,0.22,0.49,0.33,0.74c-0.03,0.02-0.07,0.04-0.1,0.06c-0.5-0.5-0.99-0.99-1.57-1.57
		c0.04,0.31,0.06,0.5,0.09,0.77c-0.66-0.39-1.19-0.71-1.86-1.11c0.42,0.75,0.77,1.38,1.12,2c-0.3,0.09-0.5,0.15-0.79,0.24
		c-0.14-0.16-0.32-0.4-0.54-0.61c-0.1-0.1-0.27-0.15-0.41-0.19c-0.17-0.05-0.44,0.01-0.52-0.1c-0.47-0.57-0.92-1.17-1.33-1.79
		c-0.46-0.7-0.88-1.44-1.31-2.16c-0.09,0.04-0.17,0.09-0.26,0.13c1.13,1.52,1.41,3.43,2.28,5.06c-0.36-0.21-0.73-0.43-1.09-0.64
		c-0.06,0.05-0.12,0.11-0.17,0.16c0.21,0.54,0.43,1.08,0.67,1.7c-0.32-0.03-0.55-0.01-0.76-0.07c-0.3-0.08-0.59-0.21-0.88-0.32
		c-0.04,0.06-0.09,0.12-0.13,0.19c0.15,0.36,0.33,0.71,0.44,1.08c0.05,0.16,0.01,0.5-0.09,0.55c-0.3,0.15-0.65,0.21-1.02,0.32
		c0.05,0.25,0.03,0.52,0.15,0.64c0.37,0.37,0.37,0.75,0.04,1.21c-0.51-0.27-0.5-1.19-1.32-1.1c0.07,1.02,0.15,2.01,0.22,3.04
		c-0.24,0.23-0.4,0.53-0.1,0.88c0.89,1.05,1.78,2.09,2.68,3.13c0.06,0.07,0.18,0.08,0.23,0.1c-0.27-0.41-0.54-0.82-0.81-1.23
		c0.06-0.05,0.13-0.09,0.19-0.14c0.88,1.25,2.25,2.12,2.75,3.7c0.92,0.14,1.16,1.02,1.67,1.62c-0.32-0.11-0.57-0.29-0.84-0.46
		c-0.51-0.32-1.02-0.63-1.53-0.95c0.66,0.53,1.32,1.07,1.99,1.59c0.24,0.19,0.49,0.38,0.76,0.53c0.29,0.16,0.54,0.31,0.21,0.71
		c-0.16-0.08-0.32-0.15-0.62-0.29c0.11,0.19,0.12,0.26,0.17,0.3c0.91,0.76,1.85,1.49,2.74,2.27c0.47,0.42,0.96,0.87,1.04,1.61
		c-0.18,0-0.29,0-0.53-0.01c0.69,0.8,1.3,1.5,1.92,2.22c0.03-0.14,0.06-0.23,0.11-0.43c0.17,0.17,0.35,0.28,0.42,0.43
		c0.19,0.42,0.28,0.89,0.5,1.28c0.45,0.8,0.91,1.61,1.47,2.34c1.28,1.67,2.62,3.29,3.94,4.93c0.11,0.14,0.17,0.31,0.25,0.47
		c-0.07,0.05-0.14,0.1-0.21,0.15c-0.97-1.09-1.93-2.18-2.92-3.26c-0.4-0.44-0.85-0.85-1.27-1.28c1.06,1.47,2.17,2.87,3.27,4.28
		c0.53,0.68,1.04,1.38,1.57,2.06c1.17,1.49,2.34,2.99,3.54,4.46c0.71,0.87,1.42,1.73,2.21,2.52c1.12,1.11,2.31,2.15,3.49,3.2
		c0.65,0.57,1.34,1.1,2.01,1.65c0.04-0.05,0.08-0.09,0.12-0.14c-0.52-0.42-1.06-0.8-1.54-1.26c-0.58-0.56-1.11-1.19-1.65-1.79
		c-0.18-0.2-0.57-0.32-0.3-0.75c0.01-0.02-0.16-0.2-0.2-0.18c-0.46,0.21-0.4-0.21-0.51-0.4c-0.15-0.26-0.22-0.58-0.42-0.78
		c-0.31-0.31-0.27-0.52,0.25-0.76c-0.45-0.51-0.85-0.95-1.25-1.39c-0.04,0.03-0.07,0.05-0.11,0.08c0.21,0.42,0.42,0.84,0.68,1.37
		c-0.2-0.1-0.28-0.12-0.35-0.17c-0.62-0.41-1.25-0.8-1.83-1.26c-0.31-0.25-0.8-0.72-0.72-0.93c0.23-0.56-0.15-0.73-0.33-1.04
		c-0.21-0.37-0.41-0.76-0.57-1.16c-0.02-0.06,0.19-0.32,0.26-0.31c0.25,0.03,0.55,0.08,0.7,0.24c0.37,0.38,0.63,0.84,0.99,1.23
		c0.73,0.81,1.48,1.6,2.23,2.39c0.1,0.1,0.22,0.19,0.35,0.29c0.1-0.18,0.17-0.3,0.23-0.42c0.62,0.89,1.23,1.75,1.86,2.66
		c0.1-0.18,0.16-0.29,0.3-0.55c0.39,0.58,0.7,1.08,1.06,1.55c0.13,0.18,0.37,0.27,0.57,0.39c0.3,0.19,0.61,0.35,0.88,0.56
		c0.09,0.07,0.02,0.32,0.1,0.41c0.34,0.32,0.74,0.58,1.07,0.92c0.69,0.7,1.55,1.25,1.9,2.25c0.06,0.16,0.24,0.27,0.38,0.39
		c0.33,0.29,0.7,0.55,1.01,0.86c0.53,0.55,1,1.16,1.55,1.69c0.59,0.56,1.1,1.21,1.87,1.59c0.46,0.23,0.8,0.74,1.11,1.19
		c0.27,0.4,0.69,0.53,1.02,0.79c0.32,0.25,0.28,0.89,0.53,1.27c0.37,0.56,0.84,1.05,1.32,1.53c0.38,0.39,0.84,0.7,1.26,1.05
		c0.02-0.02,0.04-0.03,0.06-0.05c-0.33-0.51-0.66-1.03-0.99-1.54c0.04-0.03,0.08-0.07,0.11-0.1c0.12,0.07,0.26,0.13,0.36,0.22
		c0.5,0.47,0.98,0.97,1.49,1.43c0.5,0.45,1.02,0.88,1.55,1.28c0.52,0.4,0.85,1.05,1.62,1.15c0.12,0.02,0.2,0.38,0.25,0.6
		c0.07,0.26,0.08,0.53,0.12,0.8c0.03-0.01,0.07-0.02,0.1-0.03c0.02-0.12,0.04-0.24,0.06-0.37c0.05-0.03,0.11-0.06,0.16-0.09
		c1.4,2.68,3.69,4.59,5.49,6.93c-0.29-0.55-0.67-1.03-1.02-1.53c-0.26-0.38-0.81-0.69-0.29-1.39c0.16,0.42,0.89,0.4,0.62,1.11
		c-0.02,0.05,0.14,0.19,0.24,0.26c0.13,0.09,0.31,0.13,0.43,0.23c0.36,0.3,0.72,0.61,1.04,0.95c0.11,0.11,0.2,0.23,0.31,0.34
		c-1.02,1.09-2.06,2.17-2.98,3.34c-1.08,1.37-1.93,2.92-2.88,4.4c-0.1,0.15-0.11,0.36-0.16,0.54c0.77-0.49,1.45-1.01,2.05-1.62
		c0.37-0.37,0.49-0.98,1.11-1.1c0.08-0.02,0.12-0.13,0.18-0.21c0.42-0.54,0.84-1.09,1.27-1.62c0.41-0.5,0.84-0.97,1.25-1.46
		c0.35-0.42,0.69-0.85,1.04-1.28c0.12,0.14,0.26,0.28,0.38,0.43c0.57,0.67,1.12,1.35,1.7,2.05c-1.29,1.27-2.51,2.61-3.75,3.92
		c0.07,0.07,0.14,0.14,0.21,0.21c2.02-1.82,3.96-3.71,5.66-5.84c0.11,0.13,0.22,0.29,0.34,0.41c0.17,0.18,0.35,0.34,0.52,0.51
		c-0.39,0.45-0.86,0.83-1.32,1.2c-0.02-0.03-0.04-0.06-0.07-0.08c0.01,0.02,0.04,0.07,0.06,0.09c-0.07,0.06-0.13,0.12-0.21,0.18
		c-0.26-0.12-0.54-0.25-0.76-0.36c0.18,0.23,0.31,0.4,0.47,0.61c-0.05,0.03-0.09,0.09-0.14,0.12c-0.09,0.05-0.11,0.22-0.16,0.33
		c-0.06,0.13-0.09,0.29-0.18,0.4c-0.39,0.43-0.81,0.85-1.21,1.27c-0.56,0.58-1.11,1.18-1.68,1.75c-0.27,0.27-0.59,0.49-0.88,0.74
		c-0.13,0.11-0.39,0.27-0.36,0.36c0.14,0.5-0.21,0.69-0.47,0.95c-0.49,0.49-0.98,0.99-1.48,1.47c-0.07,0.07-0.19,0.09-0.32,0.15
		c0.01-0.2,0.02-0.35,0.03-0.51c-0.3,0.36-0.95,0.5-0.63,1.18c0.02,0.05-0.07,0.18-0.14,0.23c-0.29,0.19-0.59,0.36-0.91,0.55
		c0.32,0.55-0.35,0.57-0.55,0.87c-0.07-0.03-0.15-0.05-0.22-0.08c0.09-0.4,0.18-0.79,0.26-1.1c-0.68,0.68-1.43,1.41-2.15,2.17
		c-0.1,0.11,0,0.39-0.02,0.58c-0.01,0.1-0.06,0.24-0.13,0.28c-0.07,0.04-0.22,0.01-0.31-0.03c-0.09-0.04-0.15-0.14-0.21-0.2
		c-0.51,0.44-0.99,0.84-1.46,1.24c-0.11-0.23-0.14-0.37-0.08-0.44c0.49-0.56,0.96-1.15,1.5-1.65c0.59-0.54,1.26-0.98,1.87-1.5
		c0.41-0.35,0.76-0.75,1.21-1.2c-0.21,0.02-0.29,0.02-0.41,0.03c0.68-0.88,0.84-0.95,1.04-0.5c0.07-0.08,0.19-0.15,0.18-0.22
		c-0.17-0.88,0.37-1.3,0.96-1.7c0.12-0.08,0.3-0.21,0.29-0.32c-0.06-0.58,0.03-1.03,0.71-1.08c0.03,0,0.06-0.04,0.09-0.07
		c0.46-0.62,0.93-1.24,1.39-1.86c-0.96,0.8-1.83,1.66-2.69,2.53c-0.07,0.07-0.15,0.22-0.12,0.3c0.27,0.73-0.39,0.69-0.73,0.91
		c0.07-0.16,0.14-0.32,0.21-0.47c-0.03-0.02-0.06-0.05-0.09-0.07c-0.21,0.15-0.43,0.31-0.62,0.45c0.29,0.34,0.42,0.65,0.1,1.08
		c-0.11-0.26-0.17-0.41-0.23-0.55c-0.54,0.24-1.04,0.46-1.5,0.67c0.1,0.23,0.23,0.43,0.19,0.46c-0.12,0.12-0.36,0.31-0.44,0.26
		c-0.51-0.31-0.72,0.06-0.96,0.32c-0.52,0.59-1.19,1.05-1.45,1.85c-0.03,0.1-0.18,0.15-0.39,0.33c-0.01-0.37-0.01-0.6-0.01-0.81
		c-0.78,0.77-0.87,0.96-0.69,1.24c0.3-0.12,0.59-0.23,1.02-0.4c-0.39,0.79-3.22,4.1-4.24,4.27c0.49-0.68,0.93-1.27,1.35-1.88
		c0.41-0.61,0.83-1.22,1.16-1.87c0.31-0.61,0.51-1.28,0.77-1.96c-0.43,0.5-0.72,1.09-1.2,1.34c-0.55,0.28-0.84,0.72-1.2,1.14
		c-0.12,0.14-0.32,0.23-0.5,0.31c-0.19,0.08-0.4,0.12-0.61,0.18c0.02,0.04,0.04,0.09,0.06,0.13c0.19,0,0.38-0.01,0.57-0.01
		c0.03,0.05,0.06,0.1,0.09,0.15c-0.84,0.97-1.67,1.95-2.41,2.81c-0.07,0.28-0.07,0.45-0.15,0.57c-0.28,0.4-0.59,0.78-0.92,1.22
		c1.24-0.02,1.35-0.09,1.98-0.88c0.21-0.26,0.51-0.44,0.77-0.65c0.05,0.05,0.09,0.1,0.14,0.16c-0.91,0.97-1.81,1.95-2.73,2.91
		c-0.07,0.07-0.28,0.01-0.43,0.01c0.04,0.03,0.09,0.06,0.13,0.08c-0.3,0.44-0.55,0.92-0.91,1.3c-0.75,0.81-1.58,1.54-2.35,2.34
		c-1.73,1.79-3.44,3.59-5.17,5.38c-0.24,0.25-0.48,0.48-0.73,0.73c-0.05-0.04-0.11-0.09-0.16-0.13c0.12-0.26,0.25-0.53,0.37-0.79
		c-0.24,0.47-1.23,0.51-0.71,1.41c0.02,0.04,0,0.13-0.03,0.16c-0.37,0.38-0.74,0.74-1.11,1.12c-0.04-0.04-0.07-0.08-0.11-0.12
		c0.11-0.19,0.22-0.38,0.32-0.58c-0.07-0.06-0.13-0.12-0.2-0.18c-1.17,1.09-2.35,2.18-3.52,3.27c1.39-2.39,3.55-4.07,5.5-6.09
		c-0.24,0.03-0.34,0.04-0.43,0.06c0.39-0.64,0.86-1.17,1.36-1.67c0.07-0.07,0.28,0.02,0.42,0.04c0.85-0.85,1.74-1.74,2.63-2.63
		c-0.03-0.03-0.05-0.05-0.08-0.08c-0.25,0.2-0.51,0.4-0.76,0.59c-0.04-0.04-0.07-0.07-0.11-0.11c0.24-0.28,0.47-0.56,0.77-0.92
		c-0.99,0.33-1.55,0.82-1.87,1.57c-0.28,0.66-0.61,0.86-1.24,0.71c0.14,0.49-0.03,0.8-0.46,1c-0.36,0.17-0.68,0.41-1.01,0.62
		c-0.04-0.04-0.09-0.08-0.13-0.12c0.07-0.16,0.11-0.35,0.22-0.47c0.48-0.54,1-1.06,1.48-1.6c1.24-1.41,2.47-2.83,3.7-4.25
		c0.06-0.07,0.14-0.12,0.23-0.15c0.74-0.26,0.78-0.31,0.92-1.04c-3.18,2.88-5.84,6.3-9.3,8.9c0.47-0.55,0.94-1.1,1.41-1.65
		c-0.04-0.04-0.09-0.08-0.13-0.12c-1.01,1.47-2.67,2.25-3.78,3.64c-0.48,0.61-1.23,0.98-1.81,1.52c-0.28,0.26-0.42,0.66-0.67,0.96
		c-0.97,1.18-1.92,2.37-2.93,3.51c-1.85,2.07-3.71,4.12-5.62,6.14c-1.67,1.77-3.41,3.48-5.11,5.21c-0.5,0.51-0.93,1.15-1.54,1.48
		c-0.55,0.3-0.99,0.68-1.43,1.1c-1.28,1.2-2.58,2.37-3.83,3.59c-0.47,0.46-0.9,1-1.2,1.59c-0.39,0.77-0.58,1.63-1.29,2.21
		c-0.22,0.18-0.33,0.48-0.49,0.73c0.05,0.03,0.09,0.06,0.14,0.09c0.13-0.03,0.27-0.07,0.4-0.1c0.03,0.05,0.05,0.1,0.08,0.15
		c-0.55,0.31-1.1,0.62-1.65,0.93c0.04,0.06,0.07,0.12,0.11,0.18c0.22-0.11,0.45-0.22,0.75-0.36c0.19,0.3,0.34,0.62,0.57,0.87
		c0.2,0.22,0.43,0.47,0.82,0.32c0.42-0.15,0.89-0.18,1.34-0.27c0.11-0.02,0.22-0.09,0.4-0.16c-0.21-0.12-0.32-0.19-0.45-0.27
		c0.49-0.74,1.35-0.58,2.03-0.79c0.06-0.02,0.28,0.19,0.28,0.28c0,0.25-0.07,0.49-0.12,0.73c-0.14,0.64-0.34,1.26-0.42,1.91
		c-0.05,0.38-0.07,0.72-0.41,0.95c-0.04,0.03-0.06,0.08-0.11,0.15c0.14,0.04,0.26,0.08,0.39,0.11c-0.1,0.18-0.19,0.32-0.27,0.47
		c0.04,0.05,0.08,0.1,0.13,0.15c0.68-0.32,1.36-0.64,2.03-0.95c-0.3,0.67-0.58,1.32-0.87,1.97c0.02,0.02,0.05,0.03,0.07,0.05
		c0.33-0.33,0.66-0.66,0.98-0.98c0.08,0.05,0.15,0.11,0.23,0.16c-0.1,0.23-0.16,0.5-0.31,0.67c-0.33,0.38-0.73,0.63-1.25,0.81
		c-0.41,0.15-0.54,0.87-0.91,1.22c-0.56,0.53-1.2,0.98-1.84,1.41c-0.44,0.29-0.95,0.49-1.43,0.73c0.01,0.02,0.02,0.04,0.03,0.07
		c0.42-0.11,0.85-0.22,1.27-0.33c0.04,0.06,0.07,0.12,0.11,0.18c-0.71,0.51-1.41,1.02-2.12,1.53c0.01,0.04,0.02,0.08,0.04,0.12
		c0.39-0.1,0.78-0.2,1.25-0.32c-0.07,0.19-0.12,0.3-0.18,0.46c0.33-0.18,0.62-0.34,1.01-0.56c-0.11,0.43-0.18,0.74-0.26,1.05
		c0.33,0.09,0.65,0.18,1.06,0.29c0.1,0.8-0.91,1.07-1.03,2.06c0.76-0.64,1.24-1.66,2.39-1c0.02,0.14,0.03,0.28,0.05,0.46
		c0.54,0.04,1.04,0.07,1.57,0.11c-0.42,0.81-0.83,1.61-1.23,2.41c0.05,0.05,0.1,0.11,0.16,0.16c0.19-0.15,0.44-0.26,0.57-0.45
		c0.53-0.82,1.17-1.52,2.07-1.98c0.41,0.56,0,0.84-0.28,1.14c0.8,0.93-0.52,1.43-0.25,2.33c0.34-0.29,0.62-0.57,0.94-0.78
		c0.11-0.08,0.34,0.01,0.51,0.02c-0.01,0.15,0.01,0.31-0.04,0.45c-0.05,0.16-0.17,0.29-0.25,0.42c0.04,0.06,0.05,0.1,0.08,0.13
		c0.03,0.02,0.09,0.02,0.11,0.05c0.48,0.83,1.12,0.93,1.92,0.62c0.23-0.09,0.56,0.06,0.9,0.11c-0.21,0.5-0.36,0.88-0.57,1.4
		c0.38-0.31,0.64-0.52,0.82-0.66c0.14,0.41,0.27,0.77,0.37,1.13c0.03,0.11,0.02,0.23-0.01,0.34c-0.07,0.3-0.15,0.6-0.22,0.9
		c-0.16,0.7,0.05,0.94,0.75,0.86c0.4,0.53,0.58,0.54,1.1,0.19c0.54-0.36,1.12-0.68,1.68-1.02c0.05,0.06,0.1,0.12,0.15,0.18
		c-0.43,0.57-0.9,1.11-1.29,1.7c-0.59,0.9-1.38,1.41-2.62,1.26c0.26,0.76,0.94,0.25,1.27,0.67c-0.19,0.3-0.39,0.62-0.58,0.93
		c0.87-0.13,1.7-0.26,2.65-0.4c-0.53,0.74-1.01,1.41-1.48,2.07c0.03,0.04,0.06,0.07,0.09,0.11c1.33-0.37,2.66-0.74,3.99-1.11
		c0.03,0.06,0.06,0.12,0.1,0.18c-0.56,1.07-1.63,1.7-2.36,2.62c0.03,0.05,0.05,0.09,0.08,0.14c0.45-0.11,0.91-0.23,1.36-0.34
		c0.03,0.04,0.06,0.09,0.09,0.13c-0.13,0.26-0.26,0.51-0.44,0.87c0.83-0.08,1.42-0.85,2.27-0.36c-0.04,0.12-0.08,0.25-0.12,0.39
		c0.03,0.03,0.06,0.06,0.1,0.09c0.33-0.24,0.65-0.47,0.98-0.71c0.04,0.05,0.09,0.09,0.13,0.14c-0.21,0.24-0.4,0.5-0.62,0.73
		c-0.26,0.28-0.34,0.58-0.13,0.89c1.34,0.33,2.41-0.19,3.53-0.89c-0.64,0.83-1.16,1.51-1.69,2.19c0.06,0.06,0.12,0.11,0.18,0.17
		c0.19-0.16,0.39-0.31,0.57-0.49c0.49-0.47,1.08-0.75,1.78-0.77c0.17,0,0.35,0.15,0.53,0.23c-0.06,0.15-0.09,0.33-0.19,0.44
		c-0.33,0.36-0.71,0.69-1.02,1.06c-0.15,0.18-0.34,0.53-0.26,0.64c0.4,0.59-0.16,0.74-0.34,1.06c-0.13,0.23-0.21,0.48-0.32,0.73
		c0.07,0.05,0.15,0.09,0.22,0.14c1-1.13,2-2.25,2.99-3.38c0.27,0.05,0.52,0.02,0.72-0.09c0.5-0.27,0.98-0.58,1.46-0.88
		c0.56-0.36,1.28-0.53,1.55-1.23c0.1-0.24,0.12-0.52,0.2-0.77c0.18-0.54,0.54-0.63,0.99-0.35c-0.69,1.9-2.33,2.99-3.76,4.28
		c0.4,0.28,0.66,0.45,0.96,0.66c-0.48,1.21-0.94,2.38-1.4,3.55c0.05,0.03,0.1,0.07,0.16,0.1c0.12-0.08,0.25-0.15,0.36-0.24
		c0.24-0.2,0.38-0.33,0.82-0.12c0.38,0.18,0.79,0.22,1.09,0.6c0.04,0.05,0.18,0.01,0.28,0.03c0.27,0.06,0.58,0.05,0.79,0.2
		c0.57,0.39,1.1,0.85,1.68,1.3c0.5,0.05,0.88-0.57,1.51-0.34c0.04,0.01,0.13-0.08,0.17-0.13c0.22-0.33,0.46-0.64,0.63-1
		c0.46-0.92,1.19-1.41,2.26-1.26c1.02,0.14,1.52-0.33,1.92-1.15c0.44-0.91,0.91-1.84,1.9-2.11c0.12-0.34,0.15-0.68,0.33-0.86
		c1.24-1.26,2.51-2.49,3.78-3.73c0.04-0.04,0.13-0.02,0.26-0.03c-0.91,1.31-1.78,2.57-2.66,3.83c0.03,0.04,0.06,0.08,0.09,0.11
		c0.3-0.16,0.59-0.33,0.88-0.49c0.24,0.48-0.13,1.11-0.8,1.25c-0.54,0.11-0.86,0.42-1.07,0.89c-0.33,0.74-0.67,1.49-1.04,2.21
		c-0.28,0.56-0.66,1.06-0.91,1.64c-0.08,0.18,0.14,0.51,0.22,0.77c0.16-0.06,0.38-0.06,0.46-0.18c0.56-0.73,1.06-1.51,1.64-2.23
		c0.33-0.41,0.74-0.75,1.14-1.09c1.09-0.93,2.31-1.72,3.06-2.98c0.25-0.42,0.27-0.92,0.39-1.39c0.23-0.97,1.02-1.6,1.71-2.26
		c0.13-0.13,0.36-0.17,0.54-0.25c0.04,0.05,0.09,0.1,0.13,0.15c-0.25,0.25-0.51,0.51-0.76,0.76c0.05,0.05,0.1,0.1,0.15,0.16
		c0.82-0.15,0.77-1.18,1.41-1.54c-0.21-0.02-0.41-0.04-0.69-0.07c0.61-1.2,1.58-1.95,2.7-2.55c-0.06-0.07-0.12-0.14-0.18-0.2
		c-0.53,0.35-1.06,0.7-1.58,1.05c-0.04-0.05-0.08-0.1-0.12-0.15c0.13-0.33,0.25-0.67,0.38-1c-0.05-0.03-0.11-0.06-0.16-0.09
		c-0.17,0.14-0.33,0.29-0.5,0.43c-0.03-0.03-0.07-0.06-0.1-0.08c0.26-0.34,0.52-0.69,0.77-1.03c-0.29,0.17-0.46,0.44-0.69,0.65
		c-0.73,0.66-1.59,1.21-2.2,1.97c-0.39,0.49-0.48,0.1-0.68-0.07c-0.21,0.17-0.4,0.32-0.58,0.48c-0.05-0.05-0.09-0.11-0.14-0.16
		c1.09-0.95,2.18-1.89,3.28-2.83c-0.04-0.04-0.07-0.08-0.11-0.12c-1.07,0.71-2.15,1.42-3.22,2.13c-0.04-0.06-0.09-0.12-0.13-0.18
		c1.82-1.68,3.9-3.09,5.63-4.86c-0.04-0.05-0.08-0.09-0.12-0.14c-0.75,0.59-1.49,1.17-2.24,1.76c-0.05-0.05-0.1-0.1-0.15-0.15
		c0.18-0.28,0.33-0.58,0.54-0.83c0.6-0.7,1.22-1.39,1.84-2.08c0.87-0.96,1.72-1.94,2.61-2.87c0.73-0.76,1.6-1.41,2.25-2.23
		c1.47-1.88,3.34-3.33,5.2-4.77c1.96-1.51,3.79-3.16,5.4-5.05c0.41-0.48,0.85-0.95,1.31-1.39c1.87-1.79,3.76-3.55,5.62-5.34
		c0.59-0.57,1.1-1.23,1.63-1.86c0.33-0.41,0.37-0.98,0.89-1.32c0.56-0.38,0.9-1.06,1.66-1.22c0.09-0.02,0.15-0.16,0.21-0.26
		c0.22-0.39,0.36-0.85,0.66-1.15c0.85-0.86,1.77-1.66,2.66-2.48c0.28-0.25,0.59-0.47,0.85-0.74c0.12-0.12,0.29-0.42,0.25-0.46
		c-0.3-0.31-0.05-0.45,0.11-0.61c1.36-1.36,2.72-2.71,4.09-4.07c1.1-1.09,2.2-2.17,3.28-3.27c0.18-0.18,0.28-0.44,0.42-0.66
		c-0.04-0.02-0.08-0.04-0.12-0.07c-0.78,0.62-1.56,1.24-2.34,1.86c-0.03-0.03-0.06-0.07-0.09-0.1c0.36-0.44,0.72-0.87,1.08-1.31
		c-0.05-0.04-0.09-0.09-0.14-0.13c-0.5,0.4-1.08,0.74-1.48,1.22c-0.52,0.64-0.97,1.32-1.67,1.8c-0.65,0.44-1.19,1.03-1.78,1.56
		c-0.04,0.03-0.04,0.1-0.06,0.16c0.15,0.08,0.29,0.16,0.59,0.32c-0.77,0.29-1.4,0.61-1.44,1.43c-1.42,1.46-2.82,2.93-4.26,4.36
		c-1.02,1.01-2.1,1.94-3.14,2.92c-0.38,0.35-0.74,0.73-1.1,1.1c-0.04-0.03-0.07-0.06-0.11-0.09c0.03-0.25,0.05-0.5,0.08-0.76
		c-0.66,1.21-1.84,1.86-2.8,2.75c-0.04-0.04-0.08-0.08-0.12-0.13c0.25-0.28,0.5-0.57,0.75-0.85c-0.02-0.02-0.04-0.05-0.06-0.07
		c-0.19,0.08-0.38,0.15-0.57,0.23c-0.04-0.04-0.09-0.09-0.13-0.13c0.18-0.26,0.31-0.65,0.57-0.76c0.89-0.36,1.28-1.18,1.87-1.83
		c0.76-0.83,1.45-1.76,2.35-2.41c0.52-0.38,0.72-0.88,1.16-1.33c-1.03,0.02-1.35,0.93-2.06,1.3c0.7-0.88,1.47-1.69,2.24-2.49
		c0.57-0.59,1.17-1.16,1.71-1.77c0.56-0.62,0.98-1.4,1.83-1.36c0.24-0.53,0.36-1.02,0.65-1.38c0.42-0.52,0.96-0.92,1.44-1.39
		c1.31-1.28,2.59-2.58,3.92-3.83c0.48-0.45,0.97-0.88,1.46-1.33c0.11,0.09,0.21,0.18,0.32,0.27c0,0,0,0,0,0.01c0,0,0.01,0,0.01,0
		c0.07,0.06,0.14,0.12,0.2,0.17c0.05-0.06,0.1-0.12,0.15-0.18c-0.01-0.01-0.02-0.02-0.03-0.03c0.02-0.01,0.07,0.01,0.08-0.01
		c0.39-0.4,0.74-0.84,1.1-1.26c-0.04-0.04-0.08-0.07-0.12-0.11c-0.44,0.34-0.89,0.67-1.31,1.03c-0.02,0.02-0.01,0.08-0.02,0.11
		c-0.07-0.06-0.13-0.12-0.2-0.17c0.81-0.73,1.61-1.46,2.42-2.19c0.01-0.01,0.03-0.02,0.04-0.04c0.22,0.22,0.45,0.44,0.67,0.66
		c-0.71,0.4-1.02,0.77-0.9,1.14c0.33-0.39,0.63-0.75,0.94-1.11c0.38,0.38,0.77,0.76,1.15,1.14c-0.37,0.37-0.75,0.75-1.12,1.12
		c-0.03-0.02-0.05-0.04-0.08-0.07c0.05-0.12,0.1-0.23,0.15-0.35c-0.05-0.04-0.1-0.09-0.15-0.13c-0.9,0.8-1.8,1.6-2.7,2.41
		c0.06,0.07,0.11,0.14,0.17,0.21c0.38-0.3,0.77-0.6,1.17-0.92c0.25,0.54,0.5,0.47,0.77,0.13c0.21-0.26,0.44-0.52,0.67-0.76
		c0.35-0.37,0.71-0.73,1.08-1.08c0.1-0.1,0.2-0.2,0.31-0.3c0.57,0.57,1.13,1.14,1.71,1.7c1.53,1.48,3.09,2.93,4.77,4.25
		c1.37,1.08,2.92,1.93,4.4,2.88c0.15,0.1,0.36,0.11,0.54,0.16c-0.49-0.77-1.01-1.45-1.62-2.05c-0.37-0.37-0.98-0.49-1.1-1.11
		c-0.02-0.08-0.13-0.12-0.21-0.18c-0.54-0.42-1.09-0.84-1.62-1.27c-0.5-0.41-0.97-0.84-1.46-1.25c-1.06-0.88-2.13-1.75-3.21-2.61
		c-0.25-0.2-0.53-0.36-0.8-0.52c-0.29-0.17-0.6-0.31-0.88-0.49c0.08-0.08,0.17-0.14,0.24-0.23c0.07-0.08,0.11-0.19,0.17-0.27
		c0.04,0.03,0.09,0.06,0.13,0.09c0.05-0.06,0.09-0.11,0.14-0.17c-0.05-0.03-0.11-0.07-0.16-0.1c0.16-0.26,0.32-0.52,0.48-0.78
		c-0.02-0.02-0.03-0.03-0.05-0.05c-0.22,0.22-0.45,0.45-0.67,0.67c-0.73-0.47-1.47-0.94-2.2-1.41c0.43-0.39,0.85-0.78,1.29-1.15
		c0.17-0.15,0.46-0.18,0.62-0.34c0.68-0.7,1.31-1.44,1.98-2.13c0.02-0.02,0.04-0.04,0.06-0.06c0.38,0.38,0.76,0.75,1.13,1.13
		c0.08,0.08,0.09,0.23,0.13,0.35c0.14,0.28,0.42,0.5,0.66,0.75c1.01,1.08,2.36,1.84,3.11,3.19c0.05,0.09,0.22,0.11,0.33,0.16
		c0.13,0.06,0.29,0.09,0.4,0.18c0.43,0.39,0.85,0.81,1.27,1.21c0.58,0.56,1.18,1.11,1.75,1.68c0.27,0.27,0.49,0.59,0.74,0.88
		c0.11,0.13,0.27,0.39,0.36,0.36c0.5-0.14,0.69,0.21,0.95,0.47c0.49,0.49,0.99,0.98,1.47,1.48c0.07,0.07,0.09,0.19,0.15,0.32
		c-0.2-0.01-0.35-0.02-0.51-0.03c0.36,0.3,0.5,0.95,1.18,0.63c0.05-0.02,0.18,0.07,0.23,0.14c0.19,0.29,0.36,0.59,0.55,0.91
		c0.55-0.32,0.57,0.35,0.87,0.55c-0.03,0.07-0.05,0.15-0.08,0.22c-0.4-0.09-0.79-0.18-1.1-0.26c0.68,0.68,1.41,1.43,2.17,2.15
		c0.11,0.1,0.39,0,0.58,0.02c0.1,0.01,0.24,0.06,0.28,0.13c0.04,0.07,0.01,0.22-0.03,0.31c-0.04,0.09-0.14,0.15-0.2,0.21
		c0.44,0.51,0.84,0.99,1.24,1.46c-0.23,0.11-0.37,0.14-0.44,0.08c-0.56-0.49-1.15-0.96-1.65-1.5c-0.54-0.59-0.98-1.26-1.5-1.87
		c-0.35-0.41-0.75-0.76-1.2-1.21c0.02,0.21,0.02,0.29,0.03,0.41c-0.88-0.68-0.95-0.84-0.5-1.04c-0.08-0.07-0.15-0.19-0.22-0.18
		c-0.88,0.17-1.3-0.37-1.7-0.96c-0.08-0.12-0.21-0.3-0.32-0.29c-0.58,0.06-1.03-0.03-1.08-0.71c0-0.03-0.04-0.06-0.07-0.09
		c-0.62-0.46-1.24-0.93-1.86-1.39c0.8,0.96,1.66,1.83,2.53,2.69c0.07,0.07,0.22,0.15,0.3,0.12c0.73-0.27,0.69,0.39,0.91,0.73
		c-0.16-0.07-0.32-0.14-0.47-0.21c-0.02,0.03-0.05,0.06-0.07,0.09c0.15,0.21,0.31,0.43,0.45,0.62c0.34-0.29,0.65-0.42,1.08-0.1
		c-0.26,0.11-0.41,0.17-0.55,0.23c0.24,0.54,0.46,1.04,0.67,1.5c0.23-0.1,0.43-0.23,0.46-0.19c0.12,0.12,0.31,0.36,0.26,0.44
		c-0.31,0.51,0.06,0.72,0.32,0.96c0.59,0.52,1.05,1.19,1.85,1.45c0.1,0.03,0.15,0.18,0.33,0.39c-0.37,0.01-0.6,0.01-0.81,0.01
		c0.77,0.78,0.96,0.88,1.24,0.69c-0.12-0.3-0.23-0.59-0.4-1.02c0.79,0.39,4.1,3.22,4.27,4.24c-0.68-0.49-1.27-0.93-1.88-1.35
		c-0.61-0.41-1.22-0.83-1.87-1.16c-0.61-0.31-1.28-0.51-1.96-0.77c0.5,0.43,1.09,0.72,1.34,1.2c0.28,0.55,0.72,0.84,1.14,1.2
		c0.14,0.12,0.23,0.32,0.31,0.5c0.08,0.19,0.12,0.4,0.18,0.61c0.04-0.02,0.09-0.04,0.13-0.06c0-0.19-0.01-0.38-0.01-0.57
		c0.05-0.03,0.1-0.06,0.15-0.09c0.97,0.84,1.95,1.67,2.81,2.41c0.28,0.07,0.45,0.07,0.57,0.15c0.4,0.28,0.78,0.59,1.22,0.92
		c-0.02-1.24-0.09-1.35-0.88-1.98c-0.26-0.21-0.44-0.51-0.65-0.77c0.05-0.05,0.1-0.09,0.16-0.14c0.97,0.91,1.95,1.81,2.91,2.73
		c0.07,0.07,0.01,0.28,0.01,0.43c0.03-0.04,0.06-0.09,0.09-0.13c0.44,0.3,0.92,0.55,1.3,0.91c0.81,0.75,1.54,1.58,2.34,2.35
		c1.78,1.73,3.59,3.44,5.38,5.17c0.25,0.24,0.48,0.48,0.73,0.72c-0.04,0.05-0.08,0.11-0.13,0.16c-0.26-0.12-0.53-0.25-0.79-0.37
		c0.47,0.24,0.51,1.23,1.41,0.71c0.04-0.02,0.13,0,0.16,0.03c0.38,0.37,0.74,0.74,1.12,1.11c-0.04,0.04-0.08,0.07-0.12,0.11
		c-0.19-0.11-0.38-0.22-0.58-0.32c-0.06,0.07-0.12,0.13-0.18,0.2c1.09,1.17,2.18,2.35,3.27,3.52c-2.39-1.4-4.07-3.55-6.09-5.5
		c0.03,0.24,0.04,0.34,0.06,0.43c-0.64-0.39-1.17-0.86-1.67-1.36c-0.07-0.07,0.02-0.28,0.04-0.42c-0.85-0.85-1.74-1.74-2.63-2.63
		c-0.03,0.03-0.05,0.05-0.08,0.08c0.2,0.25,0.4,0.51,0.59,0.76c-0.04,0.04-0.07,0.07-0.11,0.11c-0.28-0.24-0.56-0.47-0.92-0.77
		c0.33,0.99,0.82,1.55,1.57,1.87c0.66,0.28,0.86,0.61,0.71,1.24c0.49-0.14,0.8,0.03,1,0.46c0.17,0.36,0.41,0.68,0.63,1.01
		c-0.04,0.04-0.08,0.09-0.12,0.13c-0.16-0.07-0.35-0.11-0.47-0.22c-0.54-0.48-1.06-1-1.6-1.48c-1.41-1.24-2.83-2.47-4.25-3.7
		c-0.07-0.06-0.12-0.14-0.15-0.23c-0.26-0.74-0.31-0.78-1.04-0.92c2.88,3.18,6.3,5.84,8.9,9.3c-0.55-0.47-1.1-0.94-1.65-1.41
		c-0.04,0.04-0.08,0.09-0.12,0.13c1.47,1.01,2.25,2.67,3.64,3.78c0.61,0.48,0.98,1.23,1.52,1.81c0.26,0.28,0.66,0.42,0.96,0.67
		c1.18,0.97,2.37,1.92,3.51,2.93c2.07,1.85,4.12,3.71,6.14,5.62c1.77,1.67,3.48,3.41,5.21,5.11c0.51,0.5,1.15,0.93,1.48,1.54
		c0.3,0.55,0.68,0.99,1.1,1.43c1.2,1.28,2.37,2.58,3.6,3.83c0.46,0.47,1,0.9,1.59,1.2c0.77,0.38,1.63,0.58,2.21,1.29
		c0.18,0.22,0.48,0.33,0.73,0.49c0.03-0.05,0.06-0.09,0.09-0.14c-0.03-0.13-0.07-0.27-0.1-0.4c0.05-0.03,0.1-0.05,0.15-0.08
		c0.31,0.55,0.62,1.1,0.93,1.65c0.06-0.04,0.12-0.07,0.18-0.11c-0.11-0.22-0.21-0.45-0.36-0.75c0.3-0.19,0.62-0.34,0.87-0.57
		c0.22-0.2,0.47-0.43,0.32-0.82c-0.15-0.42-0.18-0.89-0.27-1.34c-0.02-0.11-0.09-0.22-0.16-0.4c-0.12,0.21-0.19,0.32-0.27,0.45
		c-0.74-0.49-0.58-1.35-0.79-2.03c-0.02-0.06,0.19-0.28,0.28-0.28c0.25,0,0.49,0.07,0.73,0.12c0.64,0.14,1.26,0.34,1.91,0.42
		c0.38,0.05,0.72,0.07,0.95,0.41c0.03,0.04,0.08,0.06,0.15,0.11c0.04-0.14,0.08-0.26,0.11-0.39c0.18,0.1,0.32,0.19,0.47,0.27
		c0.05-0.04,0.1-0.08,0.15-0.12c-0.32-0.68-0.64-1.36-0.95-2.03c0.67,0.3,1.32,0.58,1.97,0.87c0.02-0.02,0.03-0.05,0.05-0.07
		c-0.33-0.33-0.66-0.66-0.98-0.98c0.05-0.08,0.11-0.15,0.16-0.23c0.23,0.1,0.5,0.16,0.67,0.32c0.38,0.33,0.63,0.73,0.81,1.25
		c0.15,0.41,0.87,0.54,1.22,0.91c0.53,0.56,0.98,1.2,1.41,1.84c0.29,0.44,0.49,0.95,0.73,1.43c0.02-0.01,0.04-0.02,0.07-0.03
		c-0.11-0.42-0.22-0.85-0.33-1.27c0.06-0.04,0.12-0.07,0.18-0.11c0.51,0.71,1.02,1.41,1.53,2.12c0.04-0.01,0.08-0.02,0.12-0.04
		c-0.1-0.39-0.2-0.78-0.32-1.25c0.19,0.07,0.3,0.12,0.46,0.18c-0.18-0.33-0.34-0.62-0.56-1.01c0.43,0.11,0.74,0.18,1.05,0.26
		c0.09-0.33,0.18-0.65,0.28-1.06c0.8-0.1,1.07,0.91,2.06,1.03c-0.64-0.77-1.66-1.24-1-2.39c0.14-0.02,0.28-0.03,0.46-0.05
		c0.04-0.54,0.07-1.04,0.11-1.57c0.81,0.42,1.61,0.83,2.41,1.23c0.06-0.05,0.11-0.1,0.17-0.16c-0.15-0.19-0.26-0.44-0.45-0.57
		c-0.82-0.53-1.52-1.17-1.98-2.07c0.56-0.41,0.84,0,1.14,0.28c0.93-0.8,1.42,0.52,2.33,0.25c-0.29-0.34-0.57-0.62-0.78-0.94
		c-0.08-0.11,0.01-0.34,0.02-0.51c0.15,0.01,0.31-0.01,0.45,0.04c0.16,0.06,0.29,0.17,0.42,0.25c0.06-0.04,0.1-0.05,0.13-0.08
		c0.02-0.03,0.02-0.09,0.05-0.11c0.83-0.48,0.93-1.12,0.62-1.92c-0.09-0.23,0.06-0.56,0.11-0.9c0.5,0.21,0.88,0.36,1.4,0.57
		c-0.31-0.38-0.52-0.64-0.66-0.82c0.41-0.14,0.77-0.27,1.13-0.37c0.11-0.03,0.23-0.02,0.34,0.01c0.3,0.07,0.6,0.15,0.9,0.22
		c0.7,0.16,0.94-0.05,0.86-0.75c0.53-0.4,0.54-0.58,0.19-1.1c-0.36-0.54-0.68-1.12-1.02-1.68c0.06-0.05,0.12-0.1,0.18-0.15
		c0.57,0.43,1.11,0.9,1.7,1.29c0.91,0.59,1.41,1.38,1.26,2.62c0.76-0.26,0.25-0.94,0.67-1.27c0.3,0.19,0.62,0.39,0.93,0.58
		c-0.13-0.87-0.26-1.7-0.4-2.65c0.74,0.53,1.41,1.01,2.07,1.48c0.04-0.03,0.07-0.06,0.11-0.09c-0.37-1.33-0.74-2.66-1.11-3.99
		c0.06-0.03,0.12-0.06,0.18-0.1c1.07,0.56,1.7,1.63,2.62,2.36c0.05-0.03,0.09-0.05,0.14-0.08c-0.11-0.45-0.23-0.91-0.34-1.36
		c0.04-0.03,0.09-0.06,0.13-0.09c0.26,0.13,0.51,0.26,0.87,0.44c-0.08-0.83-0.85-1.42-0.36-2.27c0.12,0.04,0.25,0.08,0.39,0.12
		c0.03-0.03,0.06-0.06,0.09-0.1c-0.24-0.33-0.47-0.65-0.71-0.98c0.05-0.04,0.09-0.09,0.14-0.13c0.24,0.21,0.5,0.4,0.73,0.62
		c0.28,0.26,0.58,0.34,0.89,0.13c0.33-1.34-0.19-2.41-0.89-3.53c0.83,0.64,1.51,1.16,2.19,1.69c0.06-0.06,0.11-0.12,0.17-0.18
		c-0.16-0.19-0.31-0.39-0.49-0.57c-0.47-0.49-0.75-1.08-0.77-1.78c0-0.17,0.15-0.35,0.23-0.53c0.15,0.06,0.33,0.09,0.44,0.19
		c0.36,0.33,0.69,0.71,1.06,1.02c0.18,0.15,0.53,0.34,0.64,0.26c0.59-0.4,0.74,0.16,1.06,0.34c0.23,0.13,0.48,0.21,0.73,0.32
		c0.05-0.07,0.09-0.15,0.14-0.22c-1.13-1-2.25-2-3.38-2.99c0.05-0.27,0.02-0.52-0.09-0.72c-0.27-0.5-0.58-0.98-0.89-1.46
		c-0.36-0.56-0.53-1.28-1.23-1.55c-0.24-0.1-0.52-0.12-0.77-0.2c-0.54-0.18-0.63-0.54-0.35-0.99c1.9,0.69,2.99,2.33,4.28,3.76
		c0.28-0.4,0.45-0.66,0.66-0.96c1.21,0.48,2.38,0.94,3.55,1.4c0.03-0.05,0.07-0.1,0.1-0.16c-0.08-0.12-0.15-0.25-0.24-0.36
		c-0.2-0.24-0.33-0.38-0.12-0.82c0.18-0.38,0.22-0.79,0.6-1.09c0.05-0.04,0.01-0.18,0.02-0.28c0.06-0.27,0.05-0.58,0.2-0.79
		c0.39-0.57,0.85-1.1,1.3-1.68c0.05-0.5-0.57-0.88-0.34-1.51C201.39,165.52,201.3,165.43,201.24,165.39z M133.09,39.78L133.09,39.78
		c0.4-0.48,0.81-0.95,1.21-1.42C133.9,38.83,133.49,39.31,133.09,39.78z M66.17,95.38c0.03-0.05,0.05-0.11,0.09-0.16
		c0.04-0.06,0.09-0.11,0.14-0.16c0.15,0.16,0.3,0.31,0.45,0.47c-0.08,0.12-0.16,0.25-0.24,0.37C66.46,95.72,66.31,95.55,66.17,95.38
		z M65.98,95.71c0.1,0.29,0.2,0.58,0.32,0.92c-0.22-0.16-0.38-0.29-0.58-0.44C65.8,96.03,65.9,95.88,65.98,95.71z M99.15,72.2
		c0.01,0.03,0.03,0.06,0.04,0.09c-0.02,0.01-0.04,0.02-0.07,0.04C99.13,72.29,99.14,72.23,99.15,72.2z M99.3,72.53
		c0.02,0.03,0.03,0.06,0.04,0.1c0.07-0.08,0.08-0.1,0.12-0.15c0.02-0.01,0.06-0.01,0.07-0.03c0.04-0.06,0.07-0.13,0.1-0.2
		c0.01-0.01,0.03-0.04,0.04-0.05c0.11,0.1,0.19,0.17,0.28,0.25c-0.61,0.61-1.21,1.21-1.82,1.82c-0.03-0.03-0.06-0.05-0.09-0.08
		c0.09-0.19,0.17-0.39,0.26-0.58c-0.06-0.03-0.11-0.07-0.17-0.1c-0.14,0.19-0.37,0.42-0.44,0.58c-0.07-0.07-0.11-0.16-0.17-0.24
		c0.37-0.37,0.74-0.75,1.12-1.12c0.07-0.06,0.21-0.05,0.31-0.08C99.08,72.61,99.18,72.56,99.3,72.53z M125.45,100.36
		c0.1,0.11,0.21,0.23,0.34,0.28c0.45,0.17,0.52,0.28,0.51,0.58c-0.06,0.06-0.12,0.11-0.18,0.17c-0.05-0.03-0.1-0.07-0.16-0.09
		c-0.68-0.24-0.68-0.23-0.83-0.9c-0.02-0.08-0.13-0.18-0.2-0.18c-0.21,0.03-0.32-0.1-0.47-0.16c0.11-0.11,0.26-0.26,0.38-0.38
		C125.05,99.91,125.25,100.13,125.45,100.36z M123.52,99.4c0.15-0.02,0.27-0.09,0.45-0.05c-0.03,0.11-0.07,0.23-0.08,0.26
		c0.14,0.14,0.25,0.25,0.37,0.37C124.01,99.8,123.77,99.59,123.52,99.4z M126.26,98.39c-0.03-0.01-0.05-0.03-0.08-0.04
		c0.03-0.03,0.05-0.05,0.09-0.09C126.26,98.33,126.26,98.34,126.26,98.39z M69.7,96.36c-0.01,0.01-0.02,0.02-0.02,0.03
		c-0.01-0.01-0.03-0.03-0.04-0.04c0.05-0.05,0.11-0.11,0.16-0.16c0.59,0.59,1.18,1.18,1.76,1.76c-0.05,0.05-0.11,0.11-0.16,0.16
		c-0.53-0.53-1.06-1.06-1.59-1.6c0.01-0.01,0.02-0.02,0.03-0.04C69.8,96.44,69.75,96.4,69.7,96.36z M71.05,98.47
		c-0.03,0.03-0.06,0.06-0.09,0.09c-0.02,0.02-0.06,0.02-0.08,0.03c-0.21-0.26-0.48-0.47-0.58-0.81C70.57,98,70.8,98.23,71.05,98.47z
		 M115.23,52.03L115.23,52.03c-0.11-0.02-0.21-0.04-0.32-0.06C115.02,51.99,115.12,52.01,115.23,52.03z M101.17,71.24
		c-0.22,0.22-0.43,0.43-0.65,0.65c-0.03-0.03-0.06-0.06-0.09-0.09c-0.03,0.03-0.05,0.06-0.08,0.09c0.01,0.05,0.03,0.09,0.04,0.14
		c-0.05,0.05-0.1,0.1-0.15,0.15c-0.12-0.12-0.24-0.24-0.36-0.36c0.07-0.16,0.15-0.31,0.24-0.45c0.12-0.19,0.27-0.36,0.41-0.54
		c0.05,0.03,0.08,0.07,0.13,0.1c-0.07,0.09-0.14,0.18-0.2,0.28c0.07,0.05,0.13,0.1,0.2,0.15c0.07-0.1,0.14-0.19,0.21-0.29
		C100.96,71.13,101.06,71.19,101.17,71.24z M100.99,70.2c0.04,0.03,0.08,0.06,0.12,0.1c-0.1,0.14-0.21,0.28-0.31,0.42
		c-0.06-0.01-0.1-0.05-0.18-0.03C100.75,70.53,100.87,70.36,100.99,70.2z M84.66,59.27c0.19,0.19,0.37,0.38,0.57,0.56
		c0.3,0.28,0.6,0.62,0.97,0.03c0.28,0.19,0.54,0.35,0.79,0.52c0.15,0.1,0.32,0.2,0.43,0.34c0.28,0.37,0.53,0.76,0.8,1.13
		c0.61,0.85,1.59,1.23,2.39,1.85c0.39,0.31,0.73,0.73,1.37,0.52c0.1-0.04,0.24,0.05,0.39,0.09c-0.22,0.22-0.52,0.48-0.5,0.51
		c0.21,0.3,0.48,0.57,0.73,0.85c0.05-0.05,0.11-0.09,0.16-0.14c-0.18-0.24-0.36-0.48-0.54-0.71c0.06,0.01,0.12,0.02,0.18,0.03
		c0.12-0.29,0.25-0.58,0.37-0.86c-0.03-0.05-0.06-0.1-0.09-0.15c-0.48,0.34-0.59,0.11-0.7-0.23c-0.07-0.22-0.23-0.4-0.36-0.6
		c-0.06,0.05-0.13,0.09-0.19,0.14c0.09,0.17,0.19,0.33,0.28,0.5c-0.22,0.05-0.42,0.02-0.5-0.09c-0.29-0.4-0.35-0.98-0.91-1.18
		c-0.08-0.03-0.09-0.21-0.13-0.32c0.04-0.03,0.07-0.06,0.11-0.09c0.23,0.19,0.47,0.38,0.71,0.57c0-0.12,0-0.22,0-0.32
		c0.05-0.04,0.1-0.09,0.15-0.13c0.56,0.52,1.12,1.03,1.66,1.57c0.13,0.13,0.14,0.38,0.28,0.48c0.54,0.42,1.13,0.77,1.66,1.19
		c0.64,0.5,1.26,1.03,1.85,1.59c0.63,0.59,1.16,1.28,1.82,1.83c0.61,0.51,1.13,1.05,1.61,1.68c0.08,0.11,0.21,0.17,0.32,0.25
		c-0.23,0.21-0.46,0.41-0.69,0.62c-0.05,0.05-0.07,0.17-0.05,0.24c-0.29-0.29-0.58-0.58-0.86-0.87c-0.07,0.06-0.14,0.11-0.2,0.17
		c0.18,0.38,0.37,0.79,0.56,1.2c-0.57,0.57-1.06,1.13-1.58,1.69c-0.17-0.25-0.34-0.5-0.38-0.86c-0.01-0.07-0.08-0.12-0.13-0.18
		c-0.09-0.1-0.18-0.21-0.28-0.31c0.12-0.19,0.18-0.4,0.34-0.57c0.08-0.08,0.09-0.22,0.17-0.44c-0.27,0.25-0.51,0.48-0.77,0.73
		c-0.02-0.02-0.04-0.04-0.06-0.07c-0.16-0.24-0.37-0.46-0.53-0.7c0.13-0.2,0.35-0.46,0.37-0.6c-0.21,0.16-0.3,0.28-0.49,0.43
		c-0.44-0.67-0.86-1.36-1.44-1.92c-0.31-0.3-0.46-0.76-0.75-1.08c-0.62-0.67-1.3-1.28-1.93-1.94c-0.51-0.54-0.95-1.13-1.46-1.66
		c-0.22-0.23-0.58-0.33-0.82-0.55c-0.73-0.67-1.43-1.38-2.15-2.06c-0.83-0.78-1.67-1.55-2.51-2.33c-0.06-0.06-0.09-0.17-0.13-0.25
		C84.58,59.33,84.62,59.3,84.66,59.27z M42.03,70.13L42.03,70.13c-0.47-0.4-0.95-0.81-1.42-1.21
		C41.09,69.33,41.56,69.73,42.03,70.13z M54.29,87.99L54.29,87.99c-0.02,0.11-0.04,0.21-0.06,0.32
		C54.25,88.21,54.27,88.1,54.29,87.99z M60.65,95.17c-0.2-0.22-0.27-0.55-0.38-0.78c-0.25-0.18-0.64-0.31-0.69-0.53
		c-0.11-0.51-0.4-0.43-0.91-0.36c0.42,0.53,0.78,0.99,1.13,1.44c-0.05,0.05-0.1,0.1-0.15,0.15c-0.59-0.33-1.14-0.7-1.5-1.37
		c0.14-0.06,0.24-0.1,0.41-0.17c-0.92-1.17-1.8-2.29-2.67-3.39c0.18-0.1,0.3-0.17,0.43-0.25c0.71,0.66,1.19,1.57,2.15,1.91
		c0.04-0.04,0.08-0.08,0.12-0.13c-0.77-0.88-1.54-1.76-2.32-2.64c0.06-0.05,0.11-0.09,0.17-0.14c0.23,0.3,0.43,0.64,0.7,0.9
		c0.26,0.25,0.59,0.42,0.9,0.63c0.03-0.04,0.05-0.07,0.08-0.11c-0.06-0.15-0.11-0.3-0.17-0.44c0.04-0.05,0.09-0.1,0.13-0.15
		c0.53,0.44,1.07,0.89,1.6,1.33c0.06-0.06,0.11-0.11,0.17-0.17c-0.66-0.85-1.32-1.69-1.98-2.53c0.64,0.56,1.45,1.06,1.79,1.79
		c0.43,0.94,1.16,1.41,1.95,1.9c0.14,0.09,0.26,0.19,0.41,0.31c0.1-0.46-0.1-0.67-0.38-0.92c-0.56-0.52-1.04-1.13-1.53-1.72
		c-0.32-0.39-0.6-0.81-0.91-1.21c-0.15-0.2-0.31-0.4-0.49-0.56c-0.28-0.24-0.66-0.4-0.45-1.02c0.33,0.28,0.61,0.52,0.9,0.76
		c-0.31-0.45-0.62-0.99-1.09-1.18c-0.71-0.28-1.1-0.8-1.51-1.35c-0.1-0.14-1.62-0.19-1.78-0.07c-0.04,0.03-0.08,0.06-0.12,0.1
		c-2.1-2.49-4.18-4.96-6.26-7.44c0.06-0.05,0.11-0.11,0.17-0.16c0.55,0.44,1.09,0.88,1.65,1.3c0.14,0.1,0.31,0.17,0.48,0.21
		c0.03,0.01,0.2-0.22,0.17-0.27c-0.09-0.16-0.23-0.31-0.37-0.44c-0.17-0.16-0.37-0.3-0.56-0.46c0.04-0.05,0.08-0.1,0.13-0.15
		c0.16,0.12,0.31,0.25,0.47,0.35c0.4,0.26,0.79,0.69,1.23,0.72c0.62,0.04,1.13,0.22,1.5,0.63c0.59,0.65,1.09,1.38,1.63,2.08
		c-0.05,0.02-0.19,0.07-0.19,0.1c0.01,0.11,0.11,0.22,0.09,0.31c-0.13,0.52-0.11,0.56,0.39,0.55c0.45,0,1.11,0.61,1.14,1.15
		c-0.19-0.19-0.32-0.35-0.48-0.47c-0.04-0.03-0.16,0.06-0.25,0.1c-0.35-0.24-0.73-0.44-1.05-0.72c-0.65-0.58-1.27-1.2-1.9-1.8
		c-0.05,0.05-0.09,0.09-0.14,0.14c0.74,0.34,0.78,1.23,1.5,1.67c0.95,0.58,1.69,1.47,2.54,2.21c0.6,0.52,1.26,0.98,1.84,1.51
		c0.41,0.37,0.74,0.83,1.08,1.27c0.22,0.28,0.44,0.38,0.66,0.21c-0.33-0.29-0.73-0.54-0.99-0.89c-0.29-0.39-0.46-0.88-0.69-1.33
		c-0.05-0.09-0.1-0.19-0.2-0.37c0.66,0.66,1.24,1.22,1.8,1.8c0.59,0.61,1.17,1.22,1.72,1.85c0.17,0.19,0.32,0.45,0.37,0.7
		c0.08,0.45,0.32,0.75,0.82,0.85c-0.17-0.23-0.34-0.45-0.51-0.68c0.05-0.04,0.1-0.09,0.16-0.13c0.59,0.68,1.19,1.36,1.78,2.04
		c-0.26-0.01-0.49-0.23-0.61-0.17c-0.45,0.21-0.61-0.1-0.82-0.32c-0.42-0.44-0.81-0.92-1.23-1.36c-0.11-0.12-0.28-0.18-0.52-0.33
		c0.26,0.46,0.38,0.87,0.65,1.14c0.97,0.97,2.01,1.87,2.97,2.84c0.36,0.37,0.72,0.75,1.08,1.12c-0.34,0.34-0.67,0.67-1,1.01
		c-0.14-0.11-0.31-0.23-0.44-0.34c-0.14-0.11-0.25-0.25-0.38-0.37c-0.01-0.01-0.17,0.13-0.16,0.14c0.1,0.18,0.19,0.36,0.32,0.51
		c0.1,0.11,0.24,0.18,0.37,0.25c0.02,0.01,0.05,0.02,0.07,0.03c-0.25,0.26-0.51,0.51-0.76,0.77c-0.35,0.36-0.65,0.75-0.99,1.12
		C62.2,96.85,61.4,96.03,60.65,95.17z M65.8,101.35c0-0.31-0.23-0.47-0.39-0.66c-0.54-0.65-1.06-1.32-1.6-1.98
		c0.44-0.55,0.89-1.09,1.33-1.64c0.09-0.11,0.16-0.24,0.23-0.36c0.07,0.07,0.13,0.14,0.22,0.18c0.36,0.17,0.73,0.32,1.1,0.47
		c-0.02,0.05-0.05,0.1-0.07,0.15c-0.23-0.06-0.47-0.12-0.7-0.18c-0.03,0.05-0.07,0.1-0.1,0.14c0.21,0.3,0.41,0.58,0.55,0.77
		c-0.31,0.38-0.63,0.77-0.94,1.14c0.04,0.04,0.09,0.09,0.13,0.13c0.45-0.39,0.91-0.78,1.37-1.17c0.09,0,0.22,0.01,0.3,0.01
		c-0.03-0.07-0.05-0.13-0.08-0.2c0.04-0.03,0.07-0.06,0.11-0.09c0.13,0.15,0.26,0.3,0.39,0.44c-0.14,0.11-0.28,0.21-0.42,0.32
		c-0.07,0.01-0.11,0.02-0.19,0.03c0.02,0.02,0.04,0.04,0.06,0.07c-0.04,0.03-0.09,0.06-0.13,0.1c0.06,0.09,0.13,0.17,0.19,0.26
		c0.05-0.04,0.09-0.08,0.14-0.11c0.14,0.17,0.28,0.34,0.41,0.5C67.02,100.2,66.4,100.77,65.8,101.35z M68.48,99.73
		c-0.11-0.11-0.24-0.24-0.36-0.36c0.04-0.05,0.08-0.09,0.12-0.14c-0.05,0.03-0.09,0.09-0.14,0.12c-0.15-0.15-0.29-0.29-0.45-0.45
		c0.06-0.05,0.11-0.09,0.17-0.14c-0.05-0.07-0.11-0.13-0.16-0.2c0.31,0.35,0.62,0.7,0.93,1.06C68.56,99.65,68.52,99.69,68.48,99.73z
		 M69.35,99.56c-0.03-0.57-0.02-1.14-0.58-1.51c-0.45-0.3-0.87-0.66-1.24-1.06c-0.28-0.29-0.52-0.61-0.78-0.92
		c0.08-0.13,0.16-0.26,0.25-0.39c0.81,0.86,1.63,1.71,2.45,2.56c0.26,0.26,0.53,0.51,0.79,0.77c-0.07,0.07-0.15,0.12-0.22,0.19
		c-0.12-0.1-0.23-0.19-0.42-0.33c0.01,0.25-0.03,0.4,0.03,0.47c0.04,0.05,0.07,0.09,0.11,0.14c-0.1,0.1-0.19,0.21-0.29,0.32
		C69.43,99.7,69.36,99.65,69.35,99.56z M97.77,136.38c-0.15,0.15-0.3,0.3-0.46,0.46c-0.42-0.33-0.81-0.69-1.22-1.04
		c-0.25-0.21-0.51-0.42-0.76-0.63c0.08-0.07,0.16-0.14,0.24-0.22C96.3,135.43,97.04,135.9,97.77,136.38z M96.87,133.18
		c-0.05-0.04-0.1-0.09-0.14-0.13c0.17-0.25,0.36-0.52,0.54-0.77c0.13,0.11,0.26,0.23,0.4,0.34
		C97.45,132.87,97.15,133.01,96.87,133.18z M99.19,131.23c-0.22,0.18-0.44,0.44-0.7,0.46c-0.44,0.04-0.52,0.31-0.59,0.63
		c-0.03,0.12-0.12,0.15-0.17,0.23c-0.13-0.13-0.25-0.25-0.38-0.38c0.28-0.4,0.55-0.79,0.87-1.23c-0.22-0.03-0.3-0.04-0.57-0.07
		c0.29-0.33,0.53-0.61,0.8-0.92c0.08,0.07,0.16,0.15,0.24,0.22c-0.09,0.12-0.19,0.24-0.28,0.36c0.05,0.05,0.1,0.09,0.14,0.14
		c0.11-0.11,0.22-0.22,0.33-0.33c0.06,0.06,0.13,0.11,0.19,0.17c0.15,0.14,0.29,0.29,0.44,0.44
		C99.4,131.05,99.29,131.14,99.19,131.23z M193.9,173.43c0.12,0.11,0.28,0.17,0.43,0.25c0,0,0,0,0,0
		C194.19,173.6,194.02,173.54,193.9,173.43z"/>
	<path class="st1" d="M33.94,2.96c0.15,0.17,0.19,0.24,0.25,0.29c1.85,1.61,3.67,3.24,5.98,4.26c0.96,0.42,1.76,1.15,2.63,1.74
		c0.09,0.06,0.19,0.1,0.44,0.22c-0.21-0.33-0.33-0.51-0.48-0.76c0.29,0.06,0.48,0.11,0.68,0.15c0.05-0.04,0.1-0.09,0.15-0.13
		c-0.16-0.27-0.26-0.6-0.48-0.8c-1.18-1.07-2.39-2.11-3.6-3.16c-0.08-0.07-0.2-0.08-0.3-0.12c-0.35-0.14-0.74-0.23-1.06-0.43
		c-0.49-0.31-0.92-0.7-1.4-1.02c-0.12-0.08-0.32-0.06-0.57-0.1c0.14,0.24,0.22,0.38,0.3,0.52c-0.02,0.02-0.04,0.04-0.06,0.06
		c-0.52-0.33-1.04-0.65-1.57-0.98c-0.02,0.02-0.03,0.05-0.05,0.07c0.43,0.39,0.86,0.78,1.29,1.17C36.05,4,36,4.07,35.94,4.14
		C35.33,3.78,34.71,3.41,33.94,2.96z"/>
	<path class="st1" d="M11.15,47.06c1.5,2.41,3.08,4.76,4.9,6.94c-0.06,0.05-0.13,0.1-0.19,0.15c-0.3-0.34-0.6-0.67-0.9-1.01
		c-0.05,0.04-0.09,0.08-0.14,0.12c1.35,1.73,2.7,3.45,4.05,5.18c0.07-0.03,0.14-0.07,0.22-0.1c-0.06-0.29-0.12-0.57-0.19-0.93
		c0.7,0.7,1.35,1.35,2,2c0.05-0.17,0.04-0.3-0.02-0.38c-0.66-0.72-1.3-1.46-2.01-2.13c-0.45-0.42-0.71-1.13-0.43-1.41
		c-0.68-0.86-1.35-1.72-2.02-2.57c-0.03,0.03-0.06,0.06-0.09,0.08c0.3,0.47,0.6,0.94,0.89,1.42c-0.05,0.04-0.11,0.08-0.16,0.12
		C14.91,52.2,12.96,49.69,11.15,47.06z"/>
	<path class="st1" d="M109.9,145.42c-0.06-0.09-0.18-0.16-0.28-0.17c-0.63-0.09-0.66-0.66-0.98-1.15c0.23,0.06,0.35,0.09,0.52,0.13
		c-0.77-0.77-1.38-1.63-2.22-2.15c-0.82-0.5-1.67-0.96-2.41-1.57c0.33,0.39,0.66,0.79,0.99,1.18c-0.05,0.05-0.1,0.09-0.14,0.14
		c-0.54-0.53-1.07-1.07-1.61-1.61c-0.04,0.03-0.08,0.07-0.11,0.1c0.07,0.09,0.13,0.19,0.22,0.26c1.43,1.25,2.87,2.49,4.3,3.74
		c0.37,0.32,0.75,0.63,1.06,0.99c0.54,0.64,1.02,1.32,1.55,1.97c0.13,0.16,0.36,0.22,0.6,0.36
		C110.83,146.85,110.37,146.13,109.9,145.42z"/>
	<path class="st1" d="M105.55,138.66c-1.98-2.2-4.02-4.33-6.38-6.14c1.66,2.52,4.02,4.32,6.17,6.35
		C105.41,138.8,105.48,138.73,105.55,138.66z"/>
	<path class="st1" d="M139.64,105.7c-0.26-0.21-0.52-0.44-0.76-0.67c-0.37-0.35-0.73-0.71-1.08-1.08c-0.34-0.35-0.64-0.75-1.02-1.06
		c-0.37-0.3-0.82-0.51-1.24-0.77c-0.02,0.02-0.03,0.03-0.05,0.05c0.96,0.95,1.91,1.91,2.86,2.86c-0.02,0.03-0.04,0.05-0.07,0.08
		c-0.12-0.05-0.23-0.1-0.35-0.15c-0.04,0.05-0.09,0.1-0.13,0.15c0.8,0.9,1.6,1.8,2.41,2.7c0.07-0.06,0.14-0.11,0.21-0.17
		c-0.3-0.38-0.6-0.77-0.92-1.17C140.05,106.22,139.98,105.97,139.64,105.7z"/>
	<path class="st1" d="M92.14,64.93c0.28,0.41,0.53,0.73,1.11,0.76c0.44,0.02,0.89,0.17,1.27,0.36c0.26,0.13,0.41,0.45,0.64,0.71
		c0.09-0.49-0.49-1.25-1.07-1.31c-1.23-0.14-1.48-1.36-2.3-1.95c-0.31-0.22-0.56-0.54-0.9-0.88c-0.03,0.45,0.55,0.81-0.19,1.12
		c0.24,0.16,0.42,0.27,0.57,0.4C91.58,64.39,91.92,64.61,92.14,64.93z"/>
	<path class="st1" d="M144.32,113.54c1.18,1.28,2.37,2.57,3.55,3.85c-0.02,0.02-0.05,0.05-0.07,0.08c-0.18-0.06-0.36-0.12-0.53-0.18
		c-0.03,0.04-0.06,0.09-0.09,0.13c0.32,0.26,0.65,0.51,0.96,0.77c0.01-0.1,0.01-0.21,0.03-0.48c0.5,0.55,0.91,1,1.32,1.45
		c0.06-0.05,0.11-0.1,0.17-0.16c-1.71-1.88-3.42-3.77-5.13-5.65C144.47,113.41,144.39,113.48,144.32,113.54z"/>
	<path class="st1" d="M190.9,145.31c-0.08-0.29-0.21-0.54-0.41-0.71c-0.36-0.31-0.76-0.58-1.16-0.85c-0.28-0.19-0.57-0.37-0.84-0.54
		c-0.13,0.29-0.21,0.45-0.28,0.61c0.39,0.27,0.91,0.5,1.21,0.89C189.8,145.22,190.28,145.3,190.9,145.31z"/>
	<path class="st1" d="M192.46,173.25c0.3,0.3,0.56,0.56,0.86,0.86c-0.17,0.09-0.29,0.16-0.36,0.2c0.94,0.72,1.87,1.42,2.81,2.13
		C195.57,175.71,193.11,173.29,192.46,173.25z"/>
	<path class="st1" d="M101.95,138.1c0.03-0.04,0.06-0.09,0.09-0.13c0.18,0.05,0.37,0.11,0.55,0.16c0.03-0.05,0.06-0.1,0.08-0.15
		c-0.67-0.37-1.35-0.74-2.02-1.11c-0.02,0.01-0.04,0.03-0.06,0.04c0.37,0.43,0.74,0.86,1.12,1.3c-0.03,0.03-0.07,0.06-0.1,0.1
		c-0.14-0.1-0.27-0.2-0.47-0.34c0.47,0.47,0.88,0.88,1.28,1.28c0.03-0.03,0.06-0.06,0.09-0.1c-0.15-0.15-0.3-0.3-0.56-0.56
		c0.41,0.1,0.64,0.16,0.96,0.24C102.54,138.55,102.25,138.32,101.95,138.1z"/>
	<path class="st1" d="M20.4,64.54c1.64,1.52,3.28,3.04,4.92,4.56c0.04-0.04,0.08-0.08,0.12-0.13c-1.63-1.53-3.26-3.07-4.89-4.6
		C20.5,64.42,20.45,64.48,20.4,64.54z"/>
	<path class="st1" d="M149.89,190.5c0.41,0.47,1,0.52,1.5,0.13c-0.95-0.57-1.88-1.14-2.73-1.65
		C149.02,189.43,149.44,189.98,149.89,190.5z"/>
	<path class="st1" d="M139.08,107.76c-0.08-0.05-0.22-0.01-0.34-0.01c1.11,1.11,2.18,2.18,3.15,3.15c-0.53-0.71-1.13-1.55-1.79-2.34
		C139.83,108.23,139.44,108.01,139.08,107.76z"/>
	<path class="st1" d="M99.48,135.22c-0.57-0.67-1.15-1.35-1.73-2.03c-0.14,0.17-0.25,0.32-0.41,0.51c0.69,0.57,1.35,1.11,2,1.65
		C99.39,135.3,99.44,135.26,99.48,135.22z"/>
	<path class="st1" d="M22.56,14.02c0.06,0.16,0.12,0.33,0.19,0.5c-0.13-0.02-0.23-0.03-0.38-0.05c0.14,0.47,0.23,0.91,0.81,0.92
		c-0.07-0.18-0.13-0.35-0.23-0.62c0.56,0.56,1.02,1.02,1.49,1.49c-0.57-0.79-1.14-1.57-1.71-2.36
		C22.67,13.94,22.61,13.98,22.56,14.02z"/>
	<path class="st1" d="M25.1,4.36c-0.79-0.79-1.36-1.81-2.53-2.2c0.79,0.79,1.57,1.57,2.36,2.36C24.98,4.46,25.04,4.41,25.1,4.36z"/>
	<path class="st1" d="M161.89,193.8c0.06-0.02,0.12-0.03,0.18-0.05c0.09-0.45,0.18-0.9,0.29-1.45c-0.4-0.05-0.72-0.08-1.18-0.13
		C161.46,192.81,161.68,193.3,161.89,193.8z"/>
	<path class="st1" d="M62.14,91.33c-0.16-0.26-0.26-0.67-0.5-0.75c-0.19-0.07-0.54,0.27-0.87,0.45c-0.32-0.17-0.71-0.37-1.09-0.57
		c0.24,0.55,1.29,1.28,1.62,1.09c-0.01-0.13-0.01-0.27-0.02-0.56C61.64,91.14,61.9,91.24,62.14,91.33z"/>
	<path class="st1" d="M25.45,67.57c0.74,0.82,1.39,1.54,2.03,2.26C27.27,68.91,26.2,67.74,25.45,67.57z"/>
	<path class="st1" d="M10.84,20.25c-0.63-0.78-1.22-1.52-1.82-2.26C9.56,19.46,10.28,20.32,10.84,20.25z"/>
	<path class="st1" d="M122.05,160.7c-0.3-0.22-0.54-0.52-0.8-0.79c-0.03,0.04-0.07,0.08-0.1,0.11c0.67,0.67,1.34,1.34,2.01,2.01
		c0.07-0.04,0.13-0.07,0.2-0.11c-0.06-0.19-0.14-0.56-0.17-0.55C122.57,161.51,122.4,160.96,122.05,160.7z"/>
	<path class="st1" d="M22.93,64.1c0.31-0.74-0.35-0.76-0.62-1.07c-0.06,0.05-0.13,0.1-0.19,0.15c0.57,0.72,1.14,1.43,1.71,2.15
		c0.1-0.09,0.2-0.18,0.3-0.26c-0.31-0.24-0.63-0.49-0.94-0.73C23.1,64.26,22.92,64.14,22.93,64.1z"/>
	<path class="st1" d="M13.95,18.04c0.43,0.85,1.02,1.55,1.74,2.13c0.04-0.04,0.08-0.09,0.12-0.13c-0.58-0.71-1.15-1.41-1.73-2.12
		C14.04,17.96,13.99,18,13.95,18.04z"/>
	<path class="st1" d="M106.84,144.51c0.92,0.68,1.83,1.37,2.75,2.05c0.04-0.06,0.09-0.12,0.13-0.18c-0.93-0.67-1.85-1.33-2.78-2
		C106.9,144.42,106.87,144.46,106.84,144.51z"/>
	<path class="st1" d="M19.86,63.91c-0.84-0.84-1.64-1.64-2.43-2.43C17.49,61.95,19.24,63.75,19.86,63.91z"/>
	<path class="st1" d="M6.26,29.21c-0.09-0.27-0.24-0.48-0.19-0.6c0.27-0.55-0.21-0.66-0.43-0.98C5.6,28.26,5.23,28.99,6.26,29.21z"
		/>
	<path class="st1" d="M16.57,14.96c-0.32-0.46-0.61-0.93-0.95-1.37c-0.33-0.43-0.7-0.83-1.05-1.24c-0.02,0.02-0.03,0.03-0.05,0.05
		c0.64,0.89,1.28,1.78,1.92,2.67C16.49,15.03,16.53,15,16.57,14.96z"/>
	<path class="st1" d="M138.06,108.08c-0.01-0.14,0.04-0.34-0.04-0.41c-0.4-0.39-0.84-0.74-1.26-1.1c-0.04,0.04-0.07,0.08-0.11,0.12
		c0.34,0.44,0.67,0.89,1.03,1.31C137.75,108.08,137.93,108.06,138.06,108.08z"/>
	<path class="st1" d="M8.65,42.17c0.02,0.01,0.03,0.03,0.05,0.04l0,0c0.03,0.02,0.05,0.03,0.08,0.05c-0.03-0.02-0.05-0.04-0.08-0.06
		C8.68,42.19,8.66,42.18,8.65,42.17z"/>
	<path class="st1" d="M8.65,42.17c-0.89-0.79-1.75-1.63-3.1-1.81C6.62,40.99,7.64,41.58,8.65,42.17z"/>
	<path class="st1" d="M58.74,89.96c-0.03-0.61-0.45-0.6-0.88-0.68c0.5,0.6,0.97,1.16,1.44,1.73c0.06-0.05,0.12-0.1,0.19-0.15
		c-0.1-0.17-0.18-0.35-0.3-0.49C59.04,90.22,58.75,90.11,58.74,89.96z"/>
	<path class="st1" d="M143.35,113.4c0.14,0.23,0.29,0.67,0.43,0.66c0.53-0.04,0.54,0.35,0.69,0.65c0.06,0.12,0.14,0.23,0.21,0.35
		C144.68,114.14,144.16,113.65,143.35,113.4z"/>
	<path class="st1" d="M163.29,193.02c0.32,0.42,0.59,0.78,0.87,1.16c0.11-0.21,0.19-0.37,0.29-0.56
		C164.02,193.57,164.07,192.63,163.29,193.02z"/>
	<path class="st1" d="M17.73,10.69c0.48,0.54,0.93,1.05,1.38,1.56C18.76,11.25,18.17,10.66,17.73,10.69z"/>
	<path class="st1" d="M25.2,66.93c-0.18-0.79-0.49-1.05-1.14-1.14c-0.04,0.04-0.07,0.09-0.11,0.13
		C24.37,66.26,24.79,66.59,25.2,66.93z"/>
	<path class="st1" d="M67.65,31.69c0.5,0.5,0.97,0.97,1.5,1.5C69.05,32.42,68.21,31.59,67.65,31.69z"/>
	<path class="st1" d="M50.18,13.04c0.54,0.69,1.03,1.32,1.56,1.99C51.35,13.98,50.74,13.17,50.18,13.04z"/>
	<path class="st1" d="M47.81,88.32c0.41,0.45,0.79,0.87,1.18,1.3C48.93,88.81,48.42,88.23,47.81,88.32z"/>
	<path class="st1" d="M41.69,9.45c0.55,0.55,1.1,1.1,1.65,1.65c0.03-0.03,0.06-0.06,0.09-0.09c-0.55-0.55-1.1-1.1-1.65-1.65
		C41.75,9.39,41.72,9.42,41.69,9.45z"/>
	<path class="st1" d="M181.98,184.26c0.15,0.32,0.31,0.63,0.46,0.95c0.01-0.11,0.03-0.22,0.04-0.33c0.19,0.1,0.38,0.2,0.57,0.31
		c0.01-0.02,0.03-0.05,0.04-0.08c-0.32-0.32-0.63-0.63-0.95-0.95C182.09,184.19,182.03,184.22,181.98,184.26z"/>
	<path class="st1" d="M40.62,3.81c-0.65-0.52-1.29-1.05-1.94-1.57c-0.04,0.05-0.08,0.09-0.11,0.14c0.64,0.53,1.27,1.05,1.91,1.58
		C40.53,3.91,40.57,3.86,40.62,3.81z"/>
	<path class="st1" d="M80.89,46.1c-0.37-0.43-0.74-0.86-1.2-1.4C79.62,45.72,80.52,45.66,80.89,46.1z"/>
	<path class="st1" d="M115.61,152.79c0.55,0.42,1.11,0.85,1.66,1.27c0.05-0.06,0.1-0.13,0.15-0.19c-0.57-0.4-1.14-0.81-1.71-1.21
		C115.68,152.7,115.64,152.74,115.61,152.79z"/>
	<path class="st1" d="M21.15,12.74c-0.47-0.59-0.94-1.18-1.41-1.77c-0.06,0.05-0.11,0.1-0.17,0.16c0.49,0.57,0.98,1.14,1.48,1.71
		C21.08,12.8,21.12,12.77,21.15,12.74z"/>
	<path class="st1" d="M23.27,8.2c-0.41-0.41-0.83-0.83-1.24-1.24c-0.05,0.05-0.09,0.09-0.14,0.14c0.42,0.42,0.83,0.83,1.25,1.25
		C23.18,8.3,23.23,8.25,23.27,8.2z"/>
	<path class="st1" d="M87.6,52.26c-0.45-0.32-0.91-0.64-1.36-0.96c-0.04,0.05-0.08,0.1-0.12,0.15c0.44,0.34,0.89,0.67,1.33,1.01
		C87.5,52.39,87.55,52.32,87.6,52.26z"/>
	<path class="st1" d="M51.35,81.08c0.02,0.16,0.13,0.29,0.25,0.55c0.17-1.02,0.17-1.02-0.2-1.11
		C51.38,80.74,51.33,80.92,51.35,81.08z"/>
	<path class="st1" d="M8.93,25.77c-0.33-0.43-0.65-0.85-0.98-1.27c-0.1-0.13-0.23-0.24-0.35-0.35c-0.01,0.02-0.02,0.03-0.02,0.05
		c0.41,0.56,0.81,1.12,1.22,1.69C8.84,25.85,8.88,25.81,8.93,25.77z"/>
	<path class="st1" d="M135.94,104.94c0.45,0.88,0.85,1.2,1.26,1.07C136.76,105.63,136.35,105.28,135.94,104.94z"/>
	<path class="st1" d="M14.93,15.19c-0.28-0.39-0.55-0.77-0.83-1.16c-0.07,0.05-0.14,0.1-0.21,0.16c0.28,0.38,0.56,0.76,0.84,1.14
		C14.81,15.28,14.87,15.23,14.93,15.19z"/>
	<path class="st1" d="M39.18,78.46c0.22,0.39,0.43,0.77,0.64,1.15C39.58,78.25,39.54,78.2,39.18,78.46z"/>
	<path class="st1" d="M117.97,155.72c0.45,0.38,0.9,0.76,1.35,1.15c0.04-0.05,0.09-0.1,0.13-0.15c-0.44-0.39-0.88-0.78-1.33-1.17
		C118.07,155.61,118.02,155.66,117.97,155.72z"/>
	<path class="st1" d="M30.99,5.24c-0.5-0.5-1-1-1.5-1.5c-0.03,0.03-0.06,0.06-0.09,0.09c0.5,0.5,1,1,1.5,1.5
		C30.94,5.3,30.96,5.27,30.99,5.24z"/>
	<path class="st1" d="M41.25,80.83c-0.25-0.36-0.5-0.73-0.75-1.09c-0.08,0.06-0.17,0.13-0.25,0.19c0.28,0.34,0.56,0.67,0.84,1.01
		C41.14,80.9,41.19,80.86,41.25,80.83z"/>
	<path class="st1" d="M147.33,114.99c-0.08,0.07-0.16,0.14-0.24,0.21c0.27,0.3,0.54,0.6,0.81,0.9c0.07-0.06,0.13-0.12,0.2-0.18
		C147.85,115.61,147.59,115.3,147.33,114.99z"/>
	<path class="st1" d="M84.14,48.32c0.16-0.11,0.28-0.2,0.43-0.3c-0.09-0.17-0.16-0.31-0.28-0.53c-0.22,0.51-0.6,0.91,0.08,1.3
		C84.26,48.59,84.2,48.47,84.14,48.32z"/>
	<path class="st1" d="M153.73,121.98c0.07,0.22,0.09,0.49,0.23,0.63c0.09,0.09,0.36,0,0.56-0.02c-0.2-0.24-0.4-0.48-0.6-0.71
		C153.86,121.91,153.79,121.94,153.73,121.98z"/>
	<path class="st1" d="M154.53,122.6c0,0,0-0.02,0-0.02c-0.01,0-0.01,0-0.02,0C154.52,122.59,154.53,122.6,154.53,122.6z"/>
	<path class="st1" d="M51.63,88.61c0.19,0.33,0.38,0.66,0.57,0.99C52.2,88.66,52.04,88.41,51.63,88.61z"/>
	<path class="st1" d="M6.15,23.05c-0.26-0.37-0.53-0.75-0.79-1.12c-0.06,0.05-0.13,0.1-0.19,0.15C5.44,22.44,5.72,22.8,6,23.16
		C6.05,23.13,6.1,23.09,6.15,23.05z"/>
	<path class="st1" d="M50.42,90.92c0.2,0.34,0.4,0.68,0.6,1.02c0.04-0.04,0.08-0.07,0.12-0.11c-0.15-0.35-0.3-0.71-0.45-1.06
		C50.6,90.82,50.51,90.87,50.42,90.92z"/>
	<path class="st1" d="M98.7,132.94c-0.08,0.06-0.15,0.12-0.23,0.18c0.17,0.23,0.34,0.46,0.52,0.69c0.09-0.06,0.17-0.13,0.26-0.19
		C99.07,133.39,98.89,133.17,98.7,132.94z"/>
	<path class="st1" d="M94.51,59.77c-0.4-0.34-0.81-0.68-1.21-1.01c-0.03,0.04-0.07,0.07-0.1,0.11c0.4,0.34,0.8,0.69,1.2,1.03
		C94.43,59.85,94.47,59.81,94.51,59.77z"/>
	<path class="st1" d="M27.59,12.32c-0.25-0.25-0.5-0.5-0.75-0.75c-0.03,0.03-0.07,0.07-0.1,0.1c0.25,0.25,0.5,0.5,0.75,0.75
		C27.52,12.38,27.55,12.35,27.59,12.32z"/>
	<path class="st1" d="M33.96,8.25c-0.03,0.07-0.07,0.14-0.1,0.2c0.32,0.14,0.64,0.29,0.96,0.43c0.04-0.1,0.09-0.19,0.13-0.29
		C34.62,8.49,34.29,8.37,33.96,8.25z"/>
	<path class="st1" d="M86.6,53.86c0.32,0.32,0.64,0.64,0.95,0.95c0.03-0.03,0.07-0.07,0.1-0.1c-0.32-0.32-0.64-0.64-0.95-0.95
		C86.67,53.79,86.64,53.82,86.6,53.86z"/>
	<path class="st1" d="M96.3,131.07c0.33,0.29,0.67,0.58,1,0.87c0.04-0.05,0.09-0.1,0.13-0.15c-0.34-0.28-0.67-0.57-1.01-0.85
		C96.38,130.98,96.34,131.02,96.3,131.07z"/>
	<path class="st1" d="M143.31,112.91c-0.34-0.3-0.67-0.6-1.01-0.9c-0.03,0.04-0.07,0.08-0.1,0.11c0.32,0.32,0.64,0.64,0.96,0.96
		C143.22,113.02,143.27,112.97,143.31,112.91z"/>
	<path class="st1" d="M10.46,17.37c-0.24-0.32-0.48-0.64-0.72-0.96c-0.07,0.06-0.14,0.12-0.21,0.18c0.26,0.31,0.52,0.61,0.78,0.92
		C10.36,17.46,10.41,17.41,10.46,17.37z"/>
	<path class="st1" d="M7.53,27.33c-0.23-0.43-0.46-0.86-0.69-1.28c-0.06,0.03-0.12,0.07-0.18,0.11c0.22,0.43,0.45,0.86,0.67,1.29
		C7.4,27.4,7.46,27.36,7.53,27.33z"/>
	<polygon class="st1" points="182.2,22.05 182.19,22.05 182.19,22.05 	"/>
	<path class="st1" d="M156.25,6.31c-0.02,0.02-0.03,0.05-0.05,0.07c0.02-0.03,0.04-0.05,0.06-0.08L156.25,6.31z"/>
	<path class="st1" d="M193.81,36.81c0.14-0.35,0.23-0.74,0.43-1.06c0.31-0.49,0.7-0.92,1.02-1.4c0.08-0.12,0.06-0.32,0.1-0.57
		c-0.24,0.14-0.38,0.22-0.52,0.3c-0.02-0.02-0.04-0.04-0.06-0.06c0.33-0.52,0.65-1.04,0.98-1.57c-0.02-0.02-0.05-0.03-0.07-0.05
		c-0.39,0.43-0.78,0.86-1.17,1.29c-0.07-0.05-0.14-0.11-0.21-0.16c0.36-0.62,0.73-1.23,1.18-2c-0.17,0.15-0.24,0.19-0.29,0.25
		c-1.61,1.85-3.24,3.67-4.26,5.98c-0.42,0.96-1.15,1.76-1.74,2.63c-0.06,0.09-0.1,0.19-0.22,0.44c0.33-0.21,0.51-0.33,0.75-0.48
		c-0.06,0.29-0.11,0.48-0.15,0.68c0.04,0.05,0.09,0.1,0.13,0.15c0.27-0.16,0.6-0.26,0.8-0.48c1.07-1.18,2.11-2.39,3.16-3.6
		C193.76,37.04,193.77,36.92,193.81,36.81z"/>
	<path class="st1" d="M102.02,62.33c-0.47,0.39-0.91,0.7-1.29,1.07c-0.71,0.69-1.42,1.38-2.07,2.12c-0.34,0.39-0.55,0.88-0.82,1.33
		c0.05,0.03,0.09,0.07,0.14,0.1c0.51-0.25,1.01-0.5,1.58-0.78c0.26-0.78,0.83-1.37,1.8-1.54c0.57-0.03,1.14-0.02,1.51-0.58
		c0.3-0.45,0.66-0.87,1.06-1.24c0.51-0.48,1.08-0.9,1.61-1.36c0.08-0.07,0.11-0.19,0.22-0.37c-0.52,0.18-0.93,0.32-1.48,0.51
		c0.51-0.67,0.93-1.24,1.37-1.8c0.11-0.14,0.25-0.25,0.37-0.38c0.01-0.01-0.13-0.17-0.14-0.16c-0.18,0.1-0.36,0.19-0.51,0.32
		c-0.11,0.1-0.18,0.24-0.25,0.37c-0.16,0.32-0.31,0.64-0.48,1c-0.19-0.19-0.28-0.28-0.37-0.37c-0.09,0.1-0.21,0.19-0.27,0.32
		c-0.17,0.36-0.32,0.73-0.47,1.1c-0.05-0.02-0.1-0.05-0.15-0.07c0.06-0.23,0.12-0.47,0.18-0.7c-0.05-0.03-0.1-0.07-0.14-0.1
		c-0.34,0.24-0.68,0.48-0.87,0.62c-0.01,0.37-0.02,0.57-0.03,0.79c0.13-0.05,0.25-0.1,0.37-0.15c0.01,0.02,0.03,0.05,0.04,0.07
		c-0.55,0.48-1.1,0.97-1.65,1.45c-0.04-0.04-0.07-0.08-0.11-0.11c0.3-0.3,0.6-0.6,0.93-0.93C102.09,62.73,102.06,62.56,102.02,62.33
		z"/>
	<path class="st1" d="M139.43,18.5c0.72-0.66,1.46-1.3,2.13-2.02c0.42-0.45,1.13-0.71,1.41-0.43c0.86-0.68,1.72-1.35,2.57-2.02
		c-0.03-0.03-0.06-0.06-0.08-0.09c-0.47,0.3-0.94,0.6-1.42,0.89c-0.04-0.05-0.08-0.11-0.12-0.16c2.34-2.15,4.85-4.1,7.48-5.91
		c-2.41,1.49-4.76,3.08-6.94,4.9c-0.05-0.06-0.1-0.13-0.15-0.19c0.34-0.3,0.67-0.6,1.01-0.9c-0.04-0.05-0.08-0.09-0.12-0.14
		c-1.73,1.35-3.45,2.7-5.18,4.05c0.03,0.07,0.07,0.14,0.1,0.21c0.29-0.06,0.57-0.12,0.93-0.19c-0.7,0.7-1.35,1.35-2,2
		C139.22,18.57,139.35,18.56,139.43,18.5z"/>
	<path class="st1" d="M50.8,108.97c0.81-0.53,1.52-0.99,2.23-1.47c0.09-0.06,0.16-0.18,0.17-0.28c0.09-0.63,0.66-0.66,1.15-0.98
		c-0.06,0.23-0.09,0.35-0.13,0.52c0.77-0.77,1.63-1.38,2.15-2.22c0.5-0.82,0.96-1.67,1.57-2.42c-0.39,0.33-0.79,0.66-1.18,0.99
		c-0.05-0.05-0.09-0.1-0.14-0.14c0.53-0.53,1.07-1.07,1.61-1.61c-0.03-0.04-0.07-0.08-0.1-0.11c-0.09,0.07-0.19,0.13-0.26,0.21
		c-1.25,1.43-2.49,2.87-3.74,4.3c-0.32,0.37-0.63,0.75-0.99,1.06c-0.64,0.54-1.32,1.02-1.97,1.55
		C51.01,108.5,50.94,108.73,50.8,108.97z"/>
	<path class="st1" d="M133.01,91.7c0.14-1.23,1.36-1.48,1.95-2.3c0.22-0.31,0.54-0.56,0.88-0.9c-0.45-0.04-0.81,0.55-1.12-0.19
		c-0.16,0.24-0.27,0.42-0.4,0.57c-0.25,0.3-0.48,0.64-0.79,0.86c-0.41,0.28-0.73,0.53-0.76,1.11c-0.02,0.44-0.17,0.89-0.36,1.27
		c-0.13,0.26-0.45,0.41-0.71,0.64C132.18,92.86,132.95,92.28,133.01,91.7z"/>
	<path class="st1" d="M84.92,141.93c-1.28,1.18-2.57,2.37-3.85,3.55c-0.02-0.02-0.05-0.05-0.08-0.07c0.06-0.18,0.12-0.35,0.18-0.53
		c-0.04-0.03-0.09-0.06-0.13-0.09c-0.26,0.32-0.52,0.65-0.77,0.96c0.1,0.01,0.21,0.01,0.48,0.03c-0.55,0.5-1,0.91-1.45,1.32
		c0.05,0.06,0.1,0.11,0.16,0.17c1.88-1.71,3.77-3.42,5.65-5.13C85.05,142.07,84.98,142,84.92,141.93z"/>
	<path class="st1" d="M53.75,187.03c-0.51,0.38-0.59,0.86-0.6,1.48c0.29-0.08,0.54-0.21,0.71-0.41c0.31-0.36,0.58-0.76,0.85-1.16
		c0.19-0.28,0.37-0.57,0.54-0.84c-0.29-0.13-0.45-0.21-0.61-0.28C54.37,186.21,54.15,186.73,53.75,187.03z"/>
	<path class="st1" d="M24.35,190.92c-0.09-0.17-0.16-0.29-0.2-0.36c-0.72,0.94-1.42,1.87-2.13,2.81c0.73-0.18,3.15-2.65,3.19-3.3
		C24.91,190.36,24.65,190.63,24.35,190.92z"/>
	<path class="st1" d="M59.22,100.03c0.03,0.03,0.06,0.06,0.1,0.09c0.15-0.15,0.3-0.3,0.56-0.56c-0.1,0.41-0.16,0.64-0.24,0.97
		c0.28-0.37,0.51-0.67,0.74-0.96c0.04,0.03,0.09,0.06,0.13,0.09c-0.05,0.18-0.11,0.37-0.16,0.55c0.05,0.03,0.1,0.06,0.15,0.08
		c0.37-0.67,0.74-1.35,1.11-2.02c-0.01-0.02-0.03-0.04-0.04-0.06c-0.43,0.37-0.86,0.74-1.3,1.11c-0.03-0.03-0.06-0.07-0.1-0.1
		c0.1-0.14,0.2-0.27,0.34-0.47C60.03,99.21,59.62,99.62,59.22,100.03z"/>
	<path class="st1" d="M134.09,18.16c-0.06-0.05-0.11-0.1-0.17-0.15c-1.52,1.64-3.04,3.28-4.56,4.92c0.04,0.04,0.08,0.08,0.13,0.12
		C131.03,21.42,132.56,19.79,134.09,18.16z"/>
	<path class="st1" d="M7.96,147.5c-0.47,0.41-0.52,1-0.13,1.5c0.57-0.95,1.14-1.88,1.65-2.73C9.03,146.63,8.48,147.05,7.96,147.5z"
		/>
	<path class="st1" d="M99.64,67.16c-0.01,0-0.01,0.01-0.02,0.01c0,0,0,0,0,0c0,0-0.01,0.01-0.01,0.02c0,0.01,0.01,0,0.01,0
		C99.62,67.18,99.63,67.17,99.64,67.16z"/>
	<path class="st1" d="M101.58,65.48c0.15-0.15,0.26-0.33,0.46-0.58c-0.25,0.01-0.4-0.03-0.47,0.03c-0.79,0.62-1.67,1.16-1.94,2.24
		c0.14-0.06,0.3-0.1,0.41-0.2C100.57,66.48,101.08,65.98,101.58,65.48z"/>
	<path class="st1" d="M96.9,64.12c0.03,0.02,0.06,0.04,0.09,0.06c0.09-0.07,0.18-0.14,0.27-0.21c0.45,0.41,0.91,0.81,1.36,1.22
		c0.01-0.01,0.02-0.02,0.04-0.03c-0.43-0.43-0.85-0.85-1.28-1.28c0.58-0.45,1.16-0.9,1.72-1.34c-0.1,0.06-0.23,0.14-0.48,0.3
		c0.24-0.5,0.41-0.86,0.57-1.21c-0.39,0.31-0.79,0.61-1.03,0.8c-0.37,0.49-0.65,0.88-0.95,1.28c-0.11-0.11-0.22-0.22-0.33-0.33
		c-0.04,0.05-0.09,0.1-0.13,0.14c0.12,0.11,0.24,0.21,0.36,0.32C97.05,63.93,96.97,64.04,96.9,64.12z"/>
	<path class="st1" d="M87.56,139.5c0.71-0.54,1.55-1.13,2.34-1.79c0.33-0.27,0.55-0.66,0.8-1.01c0.05-0.08,0.01-0.22,0.01-0.34
		C89.6,137.46,88.53,138.53,87.56,139.5z"/>
	<polygon class="st1" points="182.2,22.05 182.19,22.05 182.2,22.05 	"/>
	<path class="st1" d="M184.44,20.17c-0.16,0.06-0.33,0.12-0.5,0.19c0.02-0.13,0.03-0.23,0.05-0.38c-0.47,0.15-0.91,0.23-0.92,0.81
		c0.18-0.07,0.35-0.13,0.62-0.23c-0.56,0.56-1.02,1.02-1.49,1.49c0.79-0.57,1.57-1.14,2.36-1.71
		C184.52,20.28,184.48,20.22,184.44,20.17z"/>
	<path class="st1" d="M196.3,20.18c-0.79,0.79-1.57,1.57-2.36,2.36c0.05,0.06,0.1,0.11,0.15,0.17
		C194.89,21.92,195.9,21.35,196.3,20.18z"/>
	<path class="st1" d="M6.3,158.79c-0.64,0.28-1.14,0.49-1.63,0.71c0.02,0.06,0.04,0.12,0.05,0.18c0.45,0.09,0.9,0.18,1.44,0.29
		C6.21,159.57,6.24,159.24,6.3,158.79z"/>
	<path class="st1" d="M106.9,58.89c0.13-0.01,0.27-0.01,0.56-0.02c-0.15,0.38-0.25,0.64-0.34,0.88c0.26-0.16,0.67-0.26,0.75-0.5
		c0.07-0.19-0.27-0.54-0.45-0.88c0.17-0.32,0.37-0.71,0.57-1.09C107.45,57.51,106.72,58.57,106.9,58.89z"/>
	<path class="st1" d="M130.89,23.06c-0.82,0.74-1.54,1.39-2.26,2.03C129.55,24.88,130.72,23.81,130.89,23.06z"/>
	<path class="st1" d="M178.21,8.45c0.78-0.63,1.52-1.22,2.26-1.82C179,7.17,178.14,7.89,178.21,8.45z"/>
	<path class="st1" d="M37.08,120.8c-0.13-0.62,0.42-0.79,0.68-1.14c0.22-0.3,0.52-0.54,0.79-0.8c-0.04-0.03-0.08-0.07-0.11-0.1
		c-0.67,0.67-1.34,1.34-2.01,2.01c0.04,0.07,0.07,0.13,0.11,0.2C36.72,120.91,37.08,120.83,37.08,120.8z"/>
	<path class="st1" d="M133.4,21.75c0.24-0.31,0.49-0.63,0.73-0.94c0.07-0.09,0.19-0.28,0.23-0.26c0.74,0.31,0.76-0.35,1.07-0.62
		c-0.05-0.06-0.1-0.13-0.15-0.19c-0.72,0.57-1.43,1.14-2.15,1.71C133.22,21.55,133.31,21.65,133.4,21.75z"/>
	<path class="st1" d="M178.29,13.3c0.04,0.04,0.09,0.08,0.14,0.12c0.71-0.58,1.41-1.15,2.12-1.73c-0.04-0.04-0.08-0.09-0.12-0.13
		C179.58,11.99,178.87,12.58,178.29,13.3z"/>
	<path class="st1" d="M54.08,104.54c-0.04-0.03-0.09-0.07-0.13-0.1c-0.68,0.92-1.37,1.83-2.05,2.75c0.06,0.04,0.12,0.09,0.18,0.13
		C52.75,106.4,53.41,105.47,54.08,104.54z"/>
	<path class="st1" d="M134.55,17.47c0.84-0.84,1.64-1.64,2.43-2.43C136.51,15.1,134.71,16.85,134.55,17.47z"/>
	<path class="st1" d="M170.84,3.25c-0.64-0.04-1.37-0.41-1.59,0.62c0.27-0.09,0.48-0.24,0.6-0.19
		C170.41,3.95,170.52,3.47,170.84,3.25z"/>
	<path class="st1" d="M183.5,14.18c0.46-0.32,0.93-0.61,1.37-0.95c0.43-0.33,0.83-0.7,1.24-1.05c-0.01-0.02-0.03-0.03-0.05-0.05
		c-0.89,0.64-1.78,1.28-2.67,1.92C183.43,14.1,183.46,14.14,183.5,14.18z"/>
	<path class="st1" d="M156.29,6.25c0.79-0.89,1.63-1.75,1.81-3.1C157.47,4.23,156.88,5.24,156.29,6.25z"/>
	<path class="st1" d="M156.25,6.31c0,0,0.01,0,0.01,0c0.01-0.02,0.02-0.03,0.03-0.05C156.28,6.27,156.26,6.29,156.25,6.31z"/>
	<path class="st1" d="M108.5,56.35c0.61-0.03,0.6-0.45,0.68-0.88c-0.6,0.5-1.16,0.97-1.73,1.44c0.05,0.06,0.1,0.12,0.15,0.19
		c0.17-0.1,0.35-0.18,0.49-0.31C108.24,56.65,108.35,56.36,108.5,56.35z"/>
	<path class="st1" d="M84.4,141.4c0.04,0.53-0.35,0.54-0.65,0.69c-0.12,0.06-0.23,0.14-0.35,0.21c0.91-0.01,1.4-0.53,1.65-1.34
		C84.83,141.11,84.39,141.25,84.4,141.4z"/>
	<path class="st1" d="M4.85,162.06c0.04-0.43,0.98-0.38,0.6-1.16c-0.42,0.32-0.78,0.59-1.16,0.87
		C4.5,161.88,4.66,161.96,4.85,162.06z"/>
	<path class="st1" d="M186.21,16.71c1-0.35,1.59-0.94,1.56-1.38C187.23,15.82,186.72,16.26,186.21,16.71z"/>
	<path class="st1" d="M132.67,21.67c-0.04-0.04-0.09-0.07-0.13-0.11c-0.34,0.42-0.67,0.83-1.01,1.25
		C132.33,22.64,132.58,22.33,132.67,21.67z"/>
	<path class="st1" d="M165.27,66.77c0.77-0.11,1.6-0.95,1.5-1.5C166.27,65.76,165.8,66.24,165.27,66.77z"/>
	<path class="st1" d="M185.42,47.79c-0.69,0.54-1.32,1.03-1.99,1.56C184.48,48.96,185.29,48.35,185.42,47.79z"/>
	<path class="st1" d="M110.13,45.42c-0.45,0.41-0.87,0.79-1.3,1.18C109.65,46.54,110.23,46.03,110.13,45.42z"/>
	<path class="st1" d="M189.01,39.3c-0.55,0.55-1.1,1.1-1.65,1.65c0.03,0.03,0.06,0.06,0.09,0.09c0.55-0.55,1.1-1.1,1.65-1.65
		C189.07,39.36,189.04,39.33,189.01,39.3z"/>
	<path class="st1" d="M13.25,180.05c0.11,0.01,0.22,0.03,0.33,0.04c-0.1,0.19-0.21,0.38-0.31,0.57c0.02,0.01,0.05,0.03,0.08,0.04
		c0.32-0.32,0.63-0.63,0.95-0.95c-0.03-0.06-0.06-0.11-0.09-0.17C13.89,179.74,13.57,179.89,13.25,180.05z"/>
	<path class="st1" d="M196.22,36.29c-0.05-0.04-0.09-0.08-0.14-0.11c-0.53,0.64-1.05,1.27-1.58,1.91c0.05,0.05,0.1,0.1,0.15,0.14
		C195.17,37.58,195.7,36.94,196.22,36.29z"/>
	<path class="st1" d="M153.77,77.3c-1.03-0.07-0.96,0.83-1.4,1.2C152.79,78.13,153.23,77.76,153.77,77.3z"/>
	<path class="st1" d="M45.67,113.21c-0.42,0.55-0.85,1.11-1.27,1.66c0.06,0.05,0.12,0.1,0.19,0.15c0.4-0.57,0.81-1.14,1.21-1.71
		C45.76,113.29,45.72,113.25,45.67,113.21z"/>
	<path class="st1" d="M187.33,17.18c-0.57,0.49-1.14,0.98-1.71,1.48c0.03,0.03,0.06,0.07,0.09,0.1c0.59-0.47,1.18-0.94,1.77-1.41
		C187.44,17.29,187.39,17.24,187.33,17.18z"/>
	<path class="st1" d="M191.49,19.64c-0.05-0.05-0.09-0.09-0.14-0.14c-0.42,0.42-0.83,0.83-1.25,1.25c0.05,0.04,0.1,0.09,0.15,0.13
		C190.67,20.47,191.08,20.06,191.49,19.64z"/>
	<path class="st1" d="M146,85.06c0.07,0.05,0.13,0.1,0.2,0.15c0.32-0.45,0.64-0.91,0.96-1.36c-0.05-0.04-0.1-0.08-0.15-0.12
		C146.68,84.17,146.34,84.62,146,85.06z"/>
	<path class="st1" d="M133.3,96.27c0.59-0.59,1.19-1.19,1.78-1.78c-0.05-0.04-0.1-0.09-0.14-0.13c-0.56,0.62-1.11,1.25-1.67,1.87
		C133.28,96.24,133.29,96.25,133.3,96.27z"/>
	<path class="st1" d="M117.37,48.96c-0.15,0.02-0.29,0.13-0.55,0.25c1.02,0.17,1.02,0.17,1.1-0.2
		C117.72,48.99,117.54,48.94,117.37,48.96z"/>
	<path class="st1" d="M94.94,69.36c0.17,0.31,0.35,0.62,0.53,0.94c0.39-0.27,0.39-0.27-0.39-1C95.03,69.32,94.99,69.34,94.94,69.36z
		"/>
	<path class="st1" d="M172.69,6.54c0.43-0.33,0.85-0.65,1.27-0.98c0.13-0.1,0.24-0.23,0.35-0.35c-0.02-0.01-0.03-0.02-0.05-0.02
		c-0.56,0.41-1.12,0.81-1.69,1.22C172.61,6.45,172.65,6.49,172.69,6.54z"/>
	<path class="st1" d="M184.43,11.71c-0.05-0.07-0.1-0.14-0.16-0.21c-0.38,0.28-0.76,0.56-1.14,0.84c0.05,0.06,0.09,0.12,0.14,0.19
		C183.66,12.26,184.04,11.99,184.43,11.71z"/>
	<path class="st1" d="M120,36.79c-0.39,0.22-0.77,0.43-1.15,0.64C120.2,37.19,120.26,37.15,120,36.79z"/>
	<path class="st1" d="M42.74,115.58c-0.38,0.45-0.76,0.9-1.15,1.35c0.05,0.04,0.1,0.09,0.15,0.13c0.39-0.44,0.78-0.88,1.17-1.33
		C42.85,115.68,42.8,115.63,42.74,115.58z"/>
	<path class="st1" d="M194.72,27.1c-0.03-0.03-0.06-0.06-0.09-0.09c-0.5,0.5-1,1-1.5,1.5c0.03,0.03,0.06,0.06,0.09,0.09
		C193.72,28.1,194.22,27.6,194.72,27.1z"/>
	<path class="st1" d="M118.72,38.11c-0.06-0.08-0.13-0.17-0.19-0.25c-0.34,0.28-0.67,0.56-1.01,0.84c0.04,0.05,0.08,0.1,0.12,0.15
		C118,38.61,118.36,38.36,118.72,38.11z"/>
	<path class="st1" d="M82.54,145.72c0.31-0.26,0.62-0.52,0.93-0.77c-0.07-0.08-0.14-0.16-0.21-0.23c-0.3,0.27-0.6,0.54-0.9,0.81
		C82.42,145.59,82.48,145.65,82.54,145.72z"/>
	<path class="st1" d="M150.14,81.75c0.11,0.16,0.2,0.28,0.3,0.43c0.17-0.09,0.31-0.16,0.53-0.28c-0.51-0.22-0.91-0.6-1.3,0.08
		C149.87,81.87,149.99,81.81,150.14,81.75z"/>
	<path class="st1" d="M44.36,201.16c0.07,0.15,0.14,0.3,0.22,0.45c0.05,0.01,0.09,0.01,0.14,0.02c0.08-0.33,0.16-0.67,0.24-1.01
		c-0.04-0.02-0.08-0.03-0.11-0.05C44.68,200.77,44.52,200.97,44.36,201.16z"/>
	<path class="st1" d="M76.48,151.34c-0.22,0.07-0.49,0.09-0.63,0.23c-0.09,0.09,0,0.36,0.02,0.56c0.24-0.2,0.48-0.4,0.71-0.6
		C76.55,151.47,76.52,151.4,76.48,151.34z"/>
	<path class="st1" d="M75.87,152.13c-0.01,0-0.01,0.01-0.02,0.02h0c0,0.01,0,0.02,0,0.03c0.01-0.01,0.02-0.02,0.02-0.03
		C75.87,152.14,75.87,152.13,75.87,152.13z"/>
	<path class="st1" d="M109.85,49.24c-0.33,0.19-0.66,0.38-0.99,0.57C109.8,49.8,110.05,49.65,109.85,49.24z"/>
	<path class="st1" d="M176.53,2.97c-0.05-0.07-0.1-0.13-0.15-0.19c-0.36,0.28-0.72,0.56-1.09,0.84c0.04,0.05,0.07,0.1,0.11,0.15
		C175.78,3.49,176.15,3.23,176.53,2.97z"/>
	<path class="st1" d="M107.69,48.3c-0.05-0.09-0.1-0.18-0.15-0.27c-0.34,0.2-0.68,0.4-1.02,0.6c0.04,0.04,0.07,0.08,0.11,0.12
		C106.99,48.6,107.34,48.45,107.69,48.3z"/>
	<path class="st1" d="M139.6,90.81c-0.34,0.4-0.69,0.8-1.03,1.2c0.04,0.04,0.09,0.08,0.13,0.12c0.34-0.4,0.68-0.81,1.01-1.21
		C139.67,90.87,139.63,90.84,139.6,90.81z"/>
	<path class="st1" d="M186.14,25.2c0.25-0.25,0.5-0.5,0.75-0.75c-0.03-0.03-0.07-0.07-0.1-0.1c-0.25,0.25-0.5,0.5-0.75,0.75
		C186.08,25.13,186.11,25.16,186.14,25.2z"/>
	<path class="st1" d="M189.85,32.56c0.12-0.33,0.24-0.66,0.35-0.99c-0.07-0.03-0.14-0.07-0.2-0.1c-0.14,0.32-0.29,0.64-0.43,0.96
		C189.66,32.48,189.76,32.52,189.85,32.56z"/>
	<path class="st1" d="M143.75,85.27c0.32-0.32,0.64-0.64,0.95-0.95c-0.03-0.03-0.07-0.07-0.1-0.1c-0.32,0.32-0.64,0.64-0.95,0.95
		C143.68,85.2,143.72,85.24,143.75,85.27z"/>
	<path class="st1" d="M85.55,140.92c0.3-0.34,0.6-0.67,0.9-1.01c-0.04-0.03-0.08-0.06-0.11-0.1c-0.32,0.32-0.64,0.64-0.96,0.96
		C85.44,140.83,85.49,140.88,85.55,140.92z"/>
	<path class="st1" d="M182.05,7.35c-0.06-0.07-0.12-0.14-0.18-0.21c-0.31,0.26-0.61,0.52-0.92,0.78c0.05,0.05,0.09,0.1,0.14,0.16
		C181.41,7.83,181.73,7.59,182.05,7.35z"/>
	<path class="st1" d="M172.42,4.45c-0.04-0.06-0.07-0.12-0.11-0.18c-0.43,0.22-0.86,0.45-1.29,0.67c0.04,0.06,0.07,0.13,0.11,0.19
		C171.56,4.91,171.99,4.68,172.42,4.45z"/>
</g>
</svg>
