<?xml version="1.0" encoding="utf-8"?>
<!-- Generator: Adobe Illustrator 27.1.1, SVG Export Plug-In . SVG Version: 6.00 Build 0)  -->
<svg version="1.1" id="Layer_1" xmlns="http://www.w3.org/2000/svg" xmlns:xlink="http://www.w3.org/1999/xlink" x="0px" y="0px"
	 viewBox="0 0 202.57 11.85" style="enable-background:new 0 0 202.57 11.85;" xml:space="preserve">
<style type="text/css">
	.st0{fill:#FFD400;}
	.st1{fill:#010101;}
	.st2{fill:none;}
</style>
<g>
	<path class="st0" d="M59.26,1.36C59.18,1.34,59.13,1.38,59.26,1.36L59.26,1.36z"/>
	<path class="st0" d="M125.72,0.46c0.03,0,0.04,0,0.06,0c0.05-0.12,0.09-0.23,0.13-0.31L125.72,0.46z"/>
	<path class="st0" d="M136.41,1.23c0.02,0.01,0.04,0.02,0.07,0.03C136.47,1.19,136.49,1.11,136.41,1.23z"/>
	<path class="st0" d="M101.09,1.6c-0.09-0.01-0.14,0.02-0.18,0.06C100.96,1.64,101.02,1.61,101.09,1.6z"/>
	<path class="st0" d="M39.67,2.01c0,0,0.03-0.01,0.05-0.01c-0.04-0.02-0.08-0.04-0.11-0.07L39.67,2.01z"/>
	<path class="st0" d="M39.89,1.8c0.24,0.09-0.06,0.17-0.17,0.2c0.26,0.17,0.52,0.18,0.78,0.1C40.5,1.91,40.01,1.94,39.89,1.8z"/>
	<path class="st0" d="M4.14,2.53l0.11-0.08C4.2,2.48,4.17,2.5,4.14,2.53z"/>
	<path class="st0" d="M102.14,10.86c-0.05,0.02-0.11,0.03-0.16,0.04C102.06,10.91,102.11,10.89,102.14,10.86z"/>
	<path class="st0" d="M9.75,2.72l0.06-0.3C9.75,2.55,9.74,2.64,9.75,2.72z"/>
	<path class="st0" d="M125.92,0.15L126,0.04C125.97,0.06,125.95,0.11,125.92,0.15z"/>
	<path class="st0" d="M146.29,1.42c0,0.09,0.03,0.16,0.05,0.23c0.01,0,0.02,0,0.03,0L146.29,1.42z"/>
	<path class="st0" d="M196.08,6.18c0-0.04-0.01-0.08-0.03-0.12l-0.2,0.21C195.96,6.25,196.03,6.22,196.08,6.18z"/>
	<path class="st0" d="M159.84,2.72c0.01-0.03,0.04-0.07,0.05-0.1c-0.23-0.1-0.84-0.12-1.62-0.11l-0.05,0.37L159.84,2.72z"/>
	<path class="st0" d="M174.65,11.28l-1.44-0.74c4.64-0.34,6.8,0.4,10.77-0.2l-0.22,0.16c0.58,0.17,0.9-1.49,7.28,0.54v0.07
		c0.22-0.01,0.22-0.16,0.66,0.04l-1.1-0.45c0.66-0.19,1.24-0.54,2.12-0.59c0.19,0.08,0.25,0.23,0.27,0.35l2.16-0.12l0.66,0.48
		c0.66-0.26,0.36-1.27,2.13-0.7c-0.67-0.7,0.88-0.42,0.66-0.77c0.09,0.09,0.29,0.22,0.45,0.34c1.05-0.08,3.03-0.28,3.52-0.64
		c0,0-4.11-1.47-5.22-2.22c1.48,0.19,0.39-0.09,0.1-0.32l-0.1,0.17c-0.89-0.17-0.89-0.61-1.33-0.73c0,0.04,0.01,0.08,0.03,0.12
		L196.11,6c0.04,0.08,0.02,0.13-0.03,0.18c0.01,0.09-0.03,0.17-0.27,0.14l0.05-0.05c-0.37,0.06-1.01,0-1.29-0.04l-0.01-0.37
		c-0.66,0.7-4.42-1.07-5.3-1.09c-0.89-0.46-1.99,0.11-3.09-0.12c-1.76-0.12-0.88-0.54-1.77-0.86c-1.11-0.23,0.22,0.43-0.22,0.45
		l-1.32-0.51c0.77-0.04,0.35-0.27,0.21-0.41c-1.14-0.06-2.95-0.74-3.3,0c-1.54-0.35-1.55-0.65-2.21-0.68
		c0.22,0.13,0.66,0.26,0.67,0.4c-0.62-0.32-0.3,0.08-0.04,0.15c-0.94,0.32-4.9-1.34-5.1-0.53V2.53c-0.22,0.6,0.13,1.18-0.53,1.52
		l-0.44-0.27l-0.66,0.26c-0.44-0.2-0.23-0.36-0.23-0.43c-1.08,0.28-2.58-0.05-3.89-0.13l1.38,1.64c-1.1-0.38-3.09-1.15-3.31-0.62
		l-0.66-0.55c-2.21-1.05-1.54,0.46-2.42,0.14l-1.11-0.6l1.1,0.01c-1.1-0.3-1.55-0.5-2.43-0.89c0,0.01-0.01,0.01-0.01,0.02
		c0.06,0.02,0.1,0.05,0.11,0.09l-0.15,0.01c-0.13,0.3-0.71,0.5-1.49,0.48c-1.11-0.08-1.97,0.36-3.73-0.28l-0.44,0.61l-1.32-0.37
		V2.68c1.3,0.03,3.74-0.16,5.41-0.18l0.03-0.22c-0.99,0-2.11,0.22-2.77,0.17c-0.32-0.1-1.13-0.61-0.54-0.93l-0.61,0.48
		c-3.3,0.05-3.32,0.08-6.77-0.47l0.3,0.25c-0.68,0.14-1.37,0.28-1.56-0.11c-2.07-0.08-4.21-0.39-5.56-1.01l-0.29,0.58
		c-0.44-0.03-1.09-0.9-1.3-0.1l-0.93,0.25c-0.6-0.04-0.96,0.28-1.64-0.05c0,0,0,0,0,0c0,0,0,0,0,0c-0.04-0.02-0.09-0.04-0.13-0.07
		c0,0.02,0,0.03,0.01,0.05c-1.35-0.25,0.01,0.52-1.53,0.18c-0.5-0.41-0.55,0.73-1.3,0.6l-0.76-0.83c-1.37-0.47-1.6,0.35-3.58,0.36
		c-0.95-0.29-1.41-1-0.78-1.62c-0.87,0.76-0.39,0.49-1.54,0.86c-0.18-0.31-0.05-0.38,0.2-0.66c-1.02-0.36-0.63,0.28-1.4,0.26
		c-0.22,0.59-0.48,1.52-0.73,1.56l0.3,0.18c-0.81,0.31-1.7,0.46-2.65,0.17l0.04-0.29l-1.01,0.15l-0.06-0.38l-1.44,0.12l0.2,0.1
		c-0.34,0.05-1.45,0.18-2.08-0.02l0.02-0.21c-1.79-0.65-3.27,0.2-5.36,0.27l0.28-0.43c-0.71-0.42-0.2,0.66-1.05,0.45l-0.04-0.53
		c-0.75,0.69-0.97-0.15-1.48-0.41l0.24,0.69l-0.97-0.15c-1.07-0.23-0.66-0.87-0.5-1.23l-0.73,0.54l-0.14-0.61
		c-0.53,0.71-0.53-0.11-1.47,0.27c-0.08-0.23,0.16-0.36-0.16-0.46l-1.54,0.86l0.93-0.38l-0.11,0.89c-0.97,0.67-1.31-0.1-2,0.15
		l0.48-0.26c-1.13,0.22-1.19-0.16-1.82-0.36c0.2,0.16,0.5,0.41,0.04,0.53c-0.33,0.05-0.18-0.31-0.5-0.41
		c-0.08,0.59-0.88,0.9-1.62,0.63c0.01-0.08,0.02-0.17,0.07-0.22c-0.19,0.1-0.28,0.25-0.61,0.11l0.19-0.66l-0.63,0.63
		c-0.42-0.18-1.03,0.3-0.97-0.15l0.24-0.13L95.97,1.3l-0.04-0.53C95.61,1.5,94.2,0.5,94.3,1.4c-0.6-0.49-2.35,0.35-2-0.67
		c-2.08-0.08-3.2,0.9-5.73,0.41c-0.9-0.86-3.37-0.58-4.99-0.68c-3.17,0.36-5.22,0.69-8.46,0.96c-1.95-1.21-4.86,0.42-6.96-0.27
		l-0.57,0.48c-1.39-0.76-3.52,0.17-5.48-0.57c-0.48,0.21-0.73,0.28-0.84,0.29c0.09,0.02,0.22,0.11,0.27,0.42
		c-0.56-0.21-1.69,0.05-1.61-0.55l0.14-0.06c0.08-0.61-1.7,0.28-2.32-0.24l0.34,0.65l-1.06-0.11l0.28-0.13
		c-4.6,1.45-6.67-0.62-10.99,0.7c0.57-0.71-0.85,0.37-0.91-0.4c-1.09-0.98-2.02,0.21-2.91,0.47c0,0.04-0.01,0.08-0.06,0.14
		l-1.56-0.09c0.93-0.98-1.12,0.81-0.27-0.02c-4.07-0.73-9.38,0.01-14.09-0.32l0.21,0.25c-1.19-0.05-2.68,0.26-3.59-0.15
		c-0.91-0.4-1.98,0.64-2.33,0.68c-0.99,0.43-1.9-0.43-1.47-0.39c-1.06,0.12-2.06,1.02-3.53,0.63c-0.5-0.83-4.02,0.82-4.06-0.12
		L9.73,2.8c-1.89-0.66-3.67,0.46-5.7-0.13c0,0,0.04-0.07,0.11-0.13L0,5.38l1.18,3.13l3.59,2.54l9.72-0.55l7.76,0.99l18.88-0.34
		l1.35-0.71c3.71,1.24,8.47-0.19,12.46,0.7l0.08-0.61c1.13-0.04,1.05,0.34,1.33,0.45c10.48-0.13,21.27-0.95,30.7-0.18
		c0.91,0.4,3.67,0.17,4.39,0.59c3.06-0.74,6.31-0.74,9.37-0.66l-0.12,0.07l1.44-0.12c0.06,0.05,0.07,0.12,0.02,0.17
		c1.63-0.54,4.2-0.01,6.19,0.21l-0.12,0.07c11.64,0.11,22.44-1.02,33.99-0.18c5.37,0.99,11.61-0.38,17.77,0.45
		C161.1,12.02,173.55,11.56,174.65,11.28z"/>
	<path class="st0" d="M192.99,10.46l-0.05,0C192.94,10.72,193.01,10.63,192.99,10.46z"/>
	<path class="st0" d="M167.26,3.46c0.03,0,0.05,0,0.08,0.01l-0.31-0.36L167.26,3.46z"/>
	<path class="st0" d="M183.74,3.25c-0.74-0.08-0.77-0.02-0.67,0.08C183.34,3.35,183.57,3.33,183.74,3.25z"/>
	<path class="st0" d="M199.04,9.98c0.39,0.02,0.24-0.13,0.01-0.3c-0.4,0.03-0.67,0.05-0.67,0.05C198.6,9.78,198.81,9.92,199.04,9.98
		z"/>
	<path class="st0" d="M197.45,6.5l0.12-0.21C197.34,6.34,197.35,6.42,197.45,6.5z"/>
</g>
</svg>
