<?xml version="1.0" encoding="UTF-8"?>
<svg id="Layer_1" data-name="Layer 1" xmlns="http://www.w3.org/2000/svg" viewBox="0 0 202.57 202.22">
  <path d="m154.54,122.6s.02,0,.03,0c-.01,0-.02-.02-.03-.02v.02Z" fill="#010101"/>
  <path d="m201.24,165.39c-.33-.22-.64-.46-1-.63-.92-.46-1.41-1.19-1.26-2.26.14-1.02-.33-1.52-1.15-1.92-.91-.44-1.84-.91-2.11-1.9-.34-.12-.68-.15-.86-.33-1.26-1.24-2.49-2.51-3.73-3.78-.04-.04-.02-.13-.03-.26,1.31.91,2.57,1.78,3.83,2.66.04-.03.07-.06.11-.09-.16-.3-.33-.59-.49-.88.48-.24,1.11.14,1.25.8.11.54.42.86.89,1.07.74.33,1.49.67,2.21,1.04.56.28,1.06.66,1.64.91.18.08.51-.14.77-.22-.06-.16-.06-.38-.18-.46-.73-.56-1.51-1.06-2.23-1.64-.41-.33-.75-.74-1.09-1.14-.93-1.09-1.72-2.31-2.98-3.06-.42-.25-.92-.27-1.39-.38-.97-.23-1.6-1.03-2.26-1.71-.13-.13-.17-.36-.25-.54.05-.04.1-.09.15-.13.25.25.51.51.76.76.05-.05.1-.1.16-.15-.15-.82-1.18-.77-1.54-1.41-.02.21-.04.41-.07.69-1.2-.61-1.95-1.58-2.55-2.7-.07.06-.14.12-.2.18.35.53.7,1.06,1.05,1.58l-.15.12c-.33-.13-.67-.25-1-.38-.03.05-.06.11-.09.16.14.17.29.33.43.5-.03.03-.06.07-.08.1-.34-.26-.69-.52-1.03-.77.17.29.44.46.65.69.66.73,1.21,1.59,1.97,2.2.49.39.1.48-.08.68.17.21.32.4.48.58-.05.05-.11.09-.16.14-.95-1.09-1.89-2.18-2.83-3.28-.04.04-.08.07-.12.11.71,1.07,1.42,2.15,2.13,3.22-.06.05-.12.09-.18.13-1.68-1.82-3.09-3.9-4.86-5.63-.05.04-.09.08-.14.12.59.75,1.17,1.49,1.76,2.24l-.15.15c-.28-.18-.58-.33-.84-.54-.7-.6-1.39-1.22-2.08-1.84-.96-.86-1.94-1.72-2.87-2.61-.76-.73-1.41-1.6-2.23-2.25-1.88-1.47-3.33-3.34-4.77-5.2-1.51-1.96-3.16-3.79-5.04-5.4-.48-.41-.95-.85-1.39-1.31-1.79-1.87-3.55-3.76-5.34-5.62-.57-.59-1.23-1.1-1.86-1.63-.41-.33-.98-.37-1.32-.89-.38-.56-1.06-.9-1.22-1.66-.02-.09-.16-.15-.26-.21-.39-.22-.85-.36-1.15-.66-.86-.85-1.66-1.77-2.48-2.66-.25-.28-.47-.59-.74-.85-.12-.12-.42-.29-.46-.25-.31.3-.45.05-.61-.11-1.36-1.36-2.71-2.72-4.07-4.09-1.09-1.1-2.17-2.2-3.27-3.28-.18-.18-.44-.28-.66-.42-.02.04-.04.08-.07.12.62.78,1.24,1.56,1.86,2.34-.03.03-.07.06-.1.09-.44-.36-.87-.72-1.31-1.08-.04.05-.09.09-.13.14.4.5.74,1.08,1.23,1.48.64.52,1.32.97,1.8,1.67.44.65,1.03,1.19,1.56,1.78.03.04.1.04.16.06.08-.15.16-.29.32-.59.29.77.61,1.4,1.43,1.44,1.46,1.42,2.93,2.82,4.36,4.26,1.01,1.02,1.94,2.1,2.92,3.14.35.38.73.74,1.1,1.1-.03.04-.06.07-.09.11-.25-.03-.5-.05-.76-.08,1.21.66,1.86,1.84,2.75,2.8-.04.04-.08.08-.13.12-.28-.25-.57-.5-.85-.75-.02.02-.05.04-.08.06.08.19.15.38.23.57-.04.04-.09.09-.13.13-.26-.18-.65-.31-.76-.56-.36-.89-1.18-1.28-1.83-1.87-.83-.76-1.76-1.45-2.41-2.35-.38-.52-.88-.72-1.33-1.16.02,1.03.93,1.35,1.3,2.06-.88-.7-1.69-1.47-2.49-2.24-.59-.57-1.16-1.17-1.77-1.71-.62-.56-1.4-.98-1.36-1.83-.53-.24-1.02-.36-1.38-.65-.52-.42-.92-.96-1.39-1.44-1.28-1.31-2.58-2.59-3.83-3.92-1.25-1.33-2.45-2.7-3.68-4.05-.61-.68-1.23-1.35-1.83-2.05-.15-.17-.18-.46-.34-.62-.7-.68-1.44-1.31-2.13-1.98-.41-.4-.77-.85-1.16-1.28l-.11.11c.44.53.88,1.06,1.3,1.6.18.22.44.44.46.7.04.44.31.52.63.59.58.13.64.63.86,1.02-.04.05-.09.1-.13.14-.68-.47-1.35-.95-2.11-1.48-.03.22-.04.3-.07.57-.74-.65-1.4-1.22-2.05-1.8l.15-.17c.53.4,1.05.8,1.58,1.21.05-.05.09-.09.14-.14-.78-.78-1.56-1.56-2.34-2.34.04-.03.07-.06.11-.1.58.49,1.16.98,1.75,1.47.05-.05.09-.1.14-.15-.19-.25-.35-.52-.56-.75-.42-.45-.87-.88-1.31-1.31-.1-.1-.18-.26-.31-.31-.47-.2-.59-.46-.37-1.06.2.25.41.45.53.69.16.3.32.49.78.22l-1.42-1.42c.13-.11.27-.23.4-.35.38-.35.73-.73,1.1-1.09-.03-.03-.06-.05-.09-.08-.08.02-.16.05-.25.07-.04-.04-.07-.08-.11-.12l1.58-1.58c-.06-.07-.11-.14-.17-.2-.57.27-1.14.53-1.8.84.23.18.32.25.43.34-.13.14-.22.26-.32.37-.42.45-.83.9-1.25,1.34l-.23-.23c.07-.07.12-.16.2-.22-.05-.06-.11-.12-.16-.18-.08.07-.15.14-.23.21l-.24-.24c.13-.27.26-.51.41-.81-.44.21-.57.42-.57.65l-.68-.68s-.09.08-.13.12l.78.78c-.39-.27-.73-.58-1.09-.88.11-.11.21-.23.49-.19.09.01.22-.24.29-.38.02-.04-.12-.22-.14-.21-.14.04-.29.09-.41.18-.14.1-.24.24-.36.36-.03-.18.02-.28.1-.34.31-.27.67-.5.92-.81.53-.65,1.03-1.3,1.96-1.41.07,0,.12-.08.18-.13.22-.2.41-.43.66-.59.96-.65,1.97-1.24,2.78-2.09.3-.31.76-.46,1.08-.75.67-.62,1.28-1.3,1.94-1.93.54-.51,1.13-.95,1.66-1.46.23-.22.33-.58.55-.82.67-.73,1.38-1.43,2.07-2.15.78-.83,1.55-1.67,2.33-2.51.06-.06.17-.09.25-.13l.1.12c-.19.19-.38.37-.56.57-.28.3-.62.6-.03.97-.19.29-.35.54-.52.79-.1.15-.2.32-.34.43-.37.28-.76.53-1.13.8-.85.61-1.23,1.59-1.85,2.39-.31.39-.73.73-.52,1.37.04.1-.05.24-.09.39-.22-.22-.48-.52-.51-.5-.3.21-.57.48-.85.73.05.05.09.11.14.16.24-.18.48-.36.71-.54,0,.06-.02.12-.03.18.29.12.58.24.86.37.05-.03.1-.06.15-.09-.34-.48-.11-.59.23-.7.22-.07.4-.23.6-.36-.05-.06-.09-.13-.14-.19-.17.09-.33.19-.5.28-.05-.22-.02-.42.09-.5.4-.29.98-.35,1.18-.91.03-.08.21-.09.32-.13.03.04.06.07.09.11-.19.23-.38.47-.57.7.12,0,.22,0,.32,0,.04.05.09.1.13.15-.52.55-1.03,1.12-1.57,1.66-.13.13-.38.14-.48.28-.42.54-.77,1.13-1.2,1.66-.5.64-1.03,1.26-1.59,1.85-.59.63-1.28,1.16-1.83,1.82-.51.61-1.05,1.13-1.68,1.61-.49.37-.73,1.06-1.08,1.61.05.03.11.07.16.11.29-.35.89-.48.66-1.19.67-.02,1.04-.43,1.38-.9.27-.38.61-.72.92-1.07.16-.18.32-.37.5-.54.56-.55,1.13-1.1,1.71-1.64.02-.02.11.03.18.05,0,.15,0,.29,0,.44.15-.16.27-.34.27-.53.02-.8,1.03-1.74,1.83-1.69.12,0,.28-.09.33-.19.16-.28.28-.58.36-.76.38.07.62.12.85.16.03-.04.06-.09.1-.13-.53-.16-.43-.34-.16-.56.44-.35.91-.68,1.31-1.08.33-.34.51-.81.84-1.14.96-.96,1.94-1.9,2.95-2.8.45-.4,1-.7,1.5-1.05.17-.12.47-.27.45-.39-.12-.9.89-.53,1.11-1.02.55.28.48-.21.64-.41.44-.18.81-.47,1.22-.69.42-.23.56-1.06,1.36-.49.1-.24.18-.42.29-.67t-.08.01c1.6-1.57,3.21-3.14,4.81-4.72.05.05.11.11.16.16-.42.49-.84.98-1.24,1.44.52.15.79-.89,1.51-.3.05-.1.17-.23.14-.28-.26-.45.04-.72.25-.97.85-1.02,1.71-2.04,2.62-3.02,1.14-1.23,2.33-2.41,3.5-3.61.28-.29.77-.48.87-.82.3-1.06,1.46-1.1,2.06-2.01-.02.4-.03.62-.05.99.24-.1.46-.12.56-.24.28-.33.5-.71.75-1.06.21-.29.4-.59.64-.85.34-.39.72-.74,1.08-1.11.3-.32.56-.7.9-.98.26-.21.63-.27.91-.46.37-.25.68-.6,1.06-.85.31-.21.64-.56,1.23-.07-.81.73-1.57,1.43-2.33,2.12l.13.13c.69-.6,1.41-1.16,2.07-1.8.43-.42.75-.39,1.19.19-1.06.87-2.11,1.73-3.16,2.6-.02-.02-.05-.04-.07-.06.41-.49.83-.98,1.24-1.46-.06-.05-.12-.11-.18-.16-.66.66-1.33,1.33-1.99,1.99-.04-.03-.07-.07-.11-.1.15-.2.3-.39.44-.59-.17,0-.3.04-.39.13-.44.47-.88.95-1.3,1.44-.1.12-.11.31-.21.63.82-.49,1.47-.88,2.2-1.32-.88,1.02-1.66,1.96-2.48,2.87-1.47,1.62-2.96,3.22-4.45,4.83-1.23,1.32-2.48,2.64-3.73,3.95-.27.28-.59.53-.88.79.03.04.07.08.11.12.41-.35.84-.67,1.22-1.05,1.48-1.5,2.94-3.03,4.43-4.53.7-.71,1.46-1.36,2.17-2.05.74-.72,1.45-1.47,2.19-2.2,1.62-1.61,3.26-3.21,4.85-4.84,1.12-1.15,2.19-2.37,3.29-3.55,1.22-1.31,2.45-2.61,3.65-3.94.56-.63,1.01-1.34,1.11-2.24-.14.12-.22.28-.31.42-.5.8-.89,1.7-1.52,2.36-1.58,1.65-3.27,3.18-4.9,4.77-.37.36-.73.45-1.16-.07.1-.13.2-.27.2-.27-.32.03-.74.09-1.17.11-.54.02-1.08.01-1.57.02.14-.2.31-.49.53-.74.33-.36.67-.72,1.04-1.04.56-.48,1.22-.88,1.72-1.42.74-.79,1.39-1.61,2.35-2.22,1.2-.75,2.22-1.79,3.33-2.69.17-.14.38-.23.58-.34.34-.18.77-.29,1-.56.97-1.17,1.91-2.38,2.81-3.61.9-1.23,1.74-2.5,2.6-3.77.16-.23.24-.52.42-.9-.35.04-.55.06-.78.08.15-.41.29-.77.43-1.13-.03-.02-.06-.04-.09-.06-.12.11-.25.22-.39.35-.42-.7.49-.8.45-1.31-.26.13-.68.39-.7.36-.45-.57-.73-.11-1.05.05-.37-.39-.28-.73.27-1.12.43-.3.86-.6,1.26-.95.74-.64,1.46-1.31,2.19-1.96.08-.07.21-.09.46-.19-.75.85-1.4,1.58-2.04,2.32.05.05.1.1.14.15.51-.43,1.02-.86,1.52-1.28.05.06.11.12.16.17-.59.59-1.17,1.17-1.76,1.76.04.04.09.08.13.11,3.45-2.95,6.68-6.11,9.54-9.88-1.72,1.03-3.09,2.3-4.75,3.16.67-1.32,1.88-2.11,2.89-3.09-.05-.06-.11-.11-.16-.17-2.74,2.43-5.48,4.86-8.22,7.28.05-1.72,1.72-2.14,2.44-3.36-.66.44-1.32.89-2.01,1.35-.32-.17-.22-.4-.01-.61.25-.26.51-.5.78-.74.69-.6,1.39-1.18,2.08-1.77-.08-.05-.23-.09-.24-.14-.17-.82.78-.93.88-1.62-.57.41-1.14.82-1.7,1.23-.05-.05-.1-.11-.15-.16.18-.23.36-.46.54-.69-.04-.05-.07-.09-.11-.13-1.02.68-2.04,1.37-3.07,2.05l-.09-.11c.29-.36.58-.71.98-1.19-.37.1-.55.15-.74.2-.04-.04-.08-.09-.11-.13.64-.72,1.27-1.45,1.91-2.17-.04-.04-.08-.08-.13-.13-.53.45-1.06.9-1.59,1.35-.02-.01-.04-.03-.06-.04.11-.22.22-.44.38-.76-.3.21-.5.36-.74.53-.02-.17-.03-.25-.03-.24-.73.46-1.46.92-2.19,1.38-.04-.04-.07-.08-.11-.12.97-1.89,2.84-3.06,3.87-4.91-.73.55-1.4,1.16-2.12,1.7-.71.52-1.25,1.31-2.25,1.45.51-.68,1.03-1.37,1.58-2.09-.22-.02-.34-.03-.5-.04.12-.23.21-.41.29-.56-.39.26-.81.5-1.2.79-.4.3-.77.64-1.15.96-.05-.06-.1-.11-.15-.17,1.21-1.21,2.43-2.43,3.65-3.65-.21-.11-.41-.21-.59-.3-.47,1.13-1.65,1.19-2.56,1.66.52-1.12,1.53-1.76,2.47-2.7-.36-.01-.64-.11-.76-.01-.54.41-1,.91-1.55,1.3-.37.27-.84.41-1.26.61-.02-.04-.05-.08-.07-.12,1-.81,2.01-1.62,3.12-2.52-.93.2-1.28,1.08-2.12,1.16.11-.39.19-.7.28-1.02-.32-.63.54-.6.57-1.2-.45.27-.8.48-1.29.78.1-.29.11-.44.19-.52.51-.47,1.03-.94,1.57-1.38.62-.51,1.3-.97,1.9-1.51.3-.27.49-.67.73-1.02-.06-.05-.13-.1-.19-.15-.31.36-.67.69-.92,1.09-.26.42-.64.71-1.22.72.07-.16.14-.3.21-.46-.53.25-1.03.5-1.54.74-.02-.04-.05-.08-.07-.12.39-.33.79-.67,1.18-1-.42.06-.78.19-1.07.42-.58.47-.56.5-1.13.42,1.94-.95,3.12-2.69,5.03-3.5-.05.09-.1.18-.21.39.69-.75,1.7-.98,2.05-2.07-4.06,2.53-8,4.98-11.95,7.44.32-.48.72-.87,1.12-1.27.27-.28.52-.59.81-.86,1.16-1.09,2.51-1.92,3.86-2.76.81-.5,1.55-1.1,2.32-1.65-.03-.04-.06-.08-.09-.13-1.66.97-3.32,1.93-4.98,2.9-.04-.05-.07-.1-.11-.15.84-.62,1.68-1.24,2.53-1.86-.01-.02-.03-.03-.04-.05-1.34.71-2.67,1.43-4.01,2.14-.03-.04-.06-.09-.1-.13,1.02-.75,2.05-1.5,3.07-2.26-.05-.07-.09-.13-.14-.2-.91.49-1.81.98-2.58,1.39-.38-.03-.65-.09-.89-.05-.28.04-.54.17-.81.26.1-.24.24-.44.44-.57.37-.23.67-.45.07-.9.27-.17.49-.3.73-.45.02.16.03.25.05.42.29-.49.53-.91.78-1.33-.02-.03-.05-.07-.07-.1-.75.45-1.51.89-2.26,1.34-.02-.04-.05-.07-.07-.11.37-.28.74-.56,1.13-.86-.21-.17-.31-.24-.44-.35.4-.32.75-.6,1.09-.9.08-.07.1-.22.15-.33-.14-.05-.3-.15-.41-.13-.32.08-.61.21-.92.33-.03-.05-.06-.11-.09-.16.46-.28.92-.56,1.4-.85-.49-.17-.95-.47-1.36-.44-.46.04-.87.38-1.31.58-.04-.06-.07-.11-.11-.17.49-.34.97-.69,1.46-1.04-.03-.05-.06-.1-.09-.15-.4.19-.81.39-1.21.58-.03-.03-.06-.05-.08-.08.25-.36.5-.73.76-1.09-.02-.02-.04-.04-.07-.06-.46.36-.91.72-1.41,1.11-.1-.19-.16-.29-.23-.43-.51.43-.98.84-1.45,1.24-.06-.06-.12-.12-.19-.18.25-.34.5-.68.75-1.02-.27.02-.44.15-.61.27-.32.23-.63.48-.96.7-.09.06-.25,0-.38,0,0-.13,0-.27,0-.36-.23.11-.49.22-.74.33-.02-.03-.04-.07-.06-.1.5-.5.99-.99,1.57-1.57-.31.03-.5.06-.77.09.39-.66.71-1.19,1.11-1.86-.75.42-1.38.77-2,1.12-.09-.3-.15-.5-.24-.79.16-.14.4-.32.61-.54.1-.1.15-.27.19-.41.05-.17,0-.44.1-.52.57-.47,1.17-.92,1.79-1.33.7-.46,1.44-.88,2.16-1.31-.04-.09-.09-.17-.13-.26-1.52,1.13-3.43,1.41-5.06,2.28.21-.36.43-.73.64-1.09-.05-.06-.11-.12-.16-.17-.54.21-1.09.43-1.7.67.03-.32.01-.55.07-.76.08-.3.21-.59.32-.88-.06-.04-.12-.09-.19-.13-.36.15-.71.33-1.08.44-.16.05-.5,0-.55-.09-.16-.3-.21-.65-.32-1.02-.25.05-.52.03-.64.15-.38.37-.75.37-1.21.04.27-.51,1.19-.5,1.1-1.32-1.02.07-2.01.15-3.04.22-.23-.24-.53-.4-.88-.1-1.05.89-2.09,1.78-3.13,2.67-.07.06-.08.18-.1.23.41-.27.82-.54,1.23-.81.05.06.09.13.14.19-1.25.88-2.12,2.25-3.7,2.75-.14.92-1.02,1.16-1.62,1.67.11-.32.29-.57.46-.84.32-.51.63-1.02.95-1.54-.53.66-1.07,1.32-1.59,1.99-.19.24-.38.49-.53.76-.16.29-.31.54-.71.21.08-.16.15-.32.29-.62-.19.11-.26.12-.3.17-.76.91-1.49,1.85-2.27,2.74-.42.47-.87.96-1.61,1.04,0-.18,0-.29,0-.53-.8.69-1.5,1.3-2.22,1.92.14.03.23.06.43.11-.18.18-.28.35-.43.42-.42.19-.89.28-1.28.5-.8.45-1.61.91-2.34,1.47-1.67,1.28-3.29,2.62-4.93,3.94-.14.11-.31.17-.47.25-.05-.07-.1-.14-.15-.21,1.09-.97,2.18-1.93,3.26-2.92.44-.4.85-.85,1.28-1.27-1.47,1.06-2.87,2.17-4.28,3.27-.68.53-1.38,1.04-2.06,1.57-1.49,1.17-2.99,2.34-4.46,3.54-.87.71-1.73,1.42-2.52,2.21-1.11,1.12-2.15,2.31-3.2,3.49-.57.65-1.1,1.34-1.65,2.01.05.04.09.08.14.12.42-.52.8-1.06,1.26-1.54.56-.58,1.19-1.11,1.79-1.65.2-.18.32-.57.75-.3.02.01.2-.16.18-.2-.21-.46.21-.4.4-.51.26-.15.58-.22.78-.42.31-.31.52-.27.76.25.51-.45.95-.85,1.39-1.25-.03-.04-.05-.07-.08-.11-.42.21-.84.42-1.37.68.1-.2.12-.28.17-.35.41-.62.8-1.25,1.26-1.83.25-.31.72-.8.93-.72.56.23.73-.15,1.04-.33.37-.21.76-.41,1.16-.57.06-.02.32.19.31.26-.03.25-.08.55-.24.7-.38.37-.84.63-1.23.99-.81.73-1.6,1.48-2.39,2.23-.1.1-.19.22-.29.35.18.1.3.17.42.23-.89.62-1.75,1.23-2.66,1.86.18.1.29.16.55.3-.58.39-1.08.7-1.55,1.06-.18.13-.27.37-.39.57-.19.3-.35.61-.56.88-.07.09-.32.02-.4.1-.32.34-.58.74-.92,1.07-.7.69-1.25,1.55-2.25,1.9-.16.06-.27.24-.39.38-.29.33-.55.7-.86,1.01-.55.53-1.16,1-1.69,1.55-.56.59-1.21,1.1-1.59,1.88-.23.46-.74.8-1.19,1.11-.4.27-.53.69-.79,1.02-.25.32-.89.28-1.27.53-.56.37-1.05.84-1.53,1.32-.39.38-.7.84-1.05,1.26.02.02.03.04.05.06.51-.33,1.03-.66,1.54-.99.03.04.07.08.1.11-.07.12-.13.26-.22.36-.47.5-.97.98-1.43,1.49-.45.5-.88,1.02-1.28,1.55-.4.52-1.05.85-1.15,1.62-.02.12-.38.2-.6.25-.26.07-.53.08-.8.12,0,.03.02.07.03.1.12.02.24.04.37.06l.09.16c-2.68,1.4-4.59,3.69-6.93,5.5.55-.29,1.03-.67,1.53-1.02.38-.26.69-.81,1.39-.29-.42.16-.4.89-1.11.62-.05-.02-.19.14-.26.24-.09.13-.13.31-.23.43-.3.36-.61.72-.95,1.04-.57.54-1.16,1.06-1.76,1.57-.72.61-1.46,1.21-2.22,1.84.64.34.71-.17.96-.38.86-.71,1.77-1.37,2.62-2.11.99-.86,1.92-1.79,2.9-2.66.22-.2.55-.27.78-.38.18-.25.31-.64.53-.69.51-.11.43-.4.36-.91-.53.42-.99.78-1.44,1.13-.05-.05-.1-.1-.15-.15.33-.59.7-1.14,1.37-1.5.06.14.1.24.17.4,1.17-.92,2.29-1.8,3.39-2.67.1.18.17.3.25.43-.66.71-1.57,1.19-1.91,2.15l.13.12c.88-.77,1.76-1.54,2.64-2.32.05.06.09.11.14.17-.3.23-.64.43-.9.7-.25.26-.42.59-.63.9.04.03.07.05.11.08.15-.06.29-.11.44-.17.05.04.1.09.15.13-.44.53-.89,1.07-1.33,1.6.06.06.11.11.17.17.84-.66,1.69-1.32,2.53-1.98-.56.64-1.06,1.45-1.79,1.79-.94.44-1.41,1.16-1.9,1.95-.09.14-.19.26-.31.41.46.1.67-.1.92-.38.52-.56,1.13-1.04,1.72-1.53.39-.32.81-.6,1.21-.91.2-.15.4-.31.56-.49.24-.27.4-.66,1.02-.45-.28.33-.52.61-.76.9.45-.31.99-.62,1.18-1.09.28-.71.8-1.1,1.35-1.51.14-.1.19-1.62.07-1.78-.03-.04-.06-.08-.1-.12,2.49-2.1,4.96-4.18,7.44-6.26.05.05.11.11.16.16-.44.55-.88,1.09-1.3,1.65-.1.14-.17.31-.21.48,0,.03.22.2.27.17.16-.09.31-.23.44-.37.16-.17.3-.37.46-.56.05.04.1.09.15.13-.12.16-.25.31-.35.47-.26.4-.69.79-.72,1.23-.04.62-.22,1.13-.63,1.5-.65.59-1.38,1.09-2.08,1.63-.02-.05-.07-.19-.1-.19-.11,0-.22.11-.31.09-.52-.13-.56-.11-.55.39,0,.45-.61,1.11-1.15,1.14.19-.19.35-.32.47-.48.03-.04-.06-.16-.1-.25.24-.35.44-.73.72-1.05.58-.65,1.2-1.27,1.8-1.9-.05-.05-.09-.09-.14-.14-.34.74-1.23.78-1.67,1.5-.58.95-1.47,1.69-2.21,2.55-.52.6-.98,1.26-1.51,1.84-.37.41-.83.74-1.27,1.08-.28.22-.38.43-.21.66.29-.33.54-.73.89-.99.39-.29.88-.46,1.33-.69.09-.05.19-.1.37-.2-.66.66-1.22,1.24-1.8,1.8-.61.59-1.22,1.17-1.85,1.72-.19.17-.45.32-.7.37-.45.08-.75.32-.85.82.23-.17.45-.34.68-.51.04.05.09.1.13.16-.68.59-1.36,1.19-2.04,1.78.01-.26.23-.49.17-.61-.21-.45.1-.61.32-.82.44-.42.92-.81,1.36-1.23.12-.11.19-.28.33-.52-.46.26-.87.38-1.14.65-.97.97-1.87,2.01-2.84,2.97-1.57,1.55-3.19,3.04-4.77,4.58-.8.77-1.56,1.57-2.33,2.38-.13.14-.19.36-.29.59,1.37-.36,1.86-1.73,3.08-2.12-.32.4-.72.72-1.02,1.12-.73.96-.71.97-.56,1.24,1.01-1.01,2.01-2.01,3.01-3.01.05.05.11.11.16.16-.66.66-1.32,1.32-1.98,1.98-.67.67-1.33,1.33-2,2-.05-.04-.09-.09-.14-.13.18-.2.35-.41.53-.61-1.2.72-1.29.73-1.85.25.13-.19.26-.39.4-.58-.01,0-.03,0-.04,0l-.53.53c-.09-.11-.22-.15-.34-.22.28-.38.56-.75.84-1.13-.32-.44-.48-.02-.65.1-.2.13-.33.36-.51.52-.1.09-.19.17-.29.26-.08-.57-.42-.93-.85-1.24-.38-.27-.72-.61-1.07-.92-.18-.16-.37-.32-.54-.5-.55-.56-1.1-1.13-1.64-1.71-.02-.02.03-.11.05-.18.15,0,.29,0,.43,0-.16-.15-.34-.27-.53-.27-.8-.02-1.74-1.03-1.69-1.83,0-.12-.09-.28-.19-.33-.28-.16-.58-.28-.76-.36.07-.38.12-.62.16-.85-.04-.03-.09-.07-.13-.1-.16.53-.34.43-.56.16-.35-.44-.68-.91-1.08-1.31-.34-.33-.81-.51-1.14-.84-.96-.96-1.9-1.94-2.81-2.95-.4-.45-.7-1-1.05-1.51-.12-.17-.27-.47-.39-.45-.9.12-.53-.89-1.02-1.11.28-.55-.21-.48-.41-.64-.18-.44-.47-.81-.69-1.22-.23-.42-1.06-.56-.49-1.36-.24-.1-.42-.18-.67-.29,0,.05,0,.05.01.08-1.57-1.6-3.14-3.21-4.72-4.82.05-.05.11-.11.16-.16.49.42.98.84,1.44,1.24.15-.52-.89-.79-.3-1.51-.1-.05-.23-.17-.28-.14-.45.26-.72-.04-.97-.25-1.02-.85-2.04-1.71-3.02-2.62-1.23-1.14-2.41-2.33-3.61-3.5-.29-.28-.48-.77-.82-.87-1.06-.3-1.1-1.46-2.01-2.06.4.02.62.03.99.05-.1-.24-.12-.46-.24-.56-.33-.28-.71-.5-1.06-.75-.29-.21-.59-.4-.85-.64-.39-.34-.74-.72-1.11-1.08-.32-.3-.7-.56-.98-.9-.21-.26-.27-.63-.46-.91-.25-.37-.6-.68-.85-1.06-.21-.31-.56-.64-.07-1.23.73.81,1.43,1.57,2.12,2.33.04-.04.09-.09.13-.13-.6-.69-1.16-1.41-1.8-2.07-.42-.43-.39-.75.19-1.19.87,1.06,1.73,2.11,2.6,3.16-.02.02-.04.05-.06.07l-1.47-1.24c-.05.06-.11.12-.16.18.66.66,1.33,1.33,1.99,1.99-.03.04-.07.07-.1.11-.2-.15-.39-.3-.59-.44,0,.17.04.3.13.39.47.44.95.88,1.44,1.3.12.1.31.11.63.21-.49-.82-.88-1.47-1.32-2.2,1.02.88,1.96,1.66,2.87,2.48,1.62,1.47,3.22,2.96,4.83,4.45,1.32,1.23,2.64,2.48,3.95,3.73.28.27.53.59.79.88.04-.03.08-.07.12-.11-.35-.41-.67-.84-1.05-1.22-1.5-1.49-3.03-2.94-4.53-4.43-.71-.7-1.36-1.46-2.05-2.17-.72-.74-1.47-1.45-2.2-2.19-1.61-1.62-3.21-3.26-4.84-4.85-1.15-1.12-2.37-2.19-3.55-3.29-1.31-1.22-2.61-2.45-3.94-3.65-.63-.56-1.34-1.01-2.24-1.11.12.14.27.22.42.31.8.5,1.7.89,2.36,1.52,1.65,1.58,3.18,3.27,4.77,4.9.36.37.45.73-.07,1.16-.13-.1-.27-.2-.27-.2.03.32.09.74.11,1.17.02.54.01,1.08.02,1.57-.2-.14-.49-.31-.74-.53-.36-.33-.72-.67-1.04-1.04-.49-.56-.88-1.22-1.42-1.72-.79-.74-1.61-1.39-2.22-2.35-.75-1.2-1.79-2.22-2.69-3.33-.14-.17-.23-.38-.34-.58-.18-.34-.29-.77-.56-1-1.17-.97-2.38-1.91-3.61-2.81-1.23-.9-2.5-1.74-3.77-2.6-.23-.16-.52-.24-.9-.42.04.35.06.55.08.78-.41-.15-.77-.29-1.13-.43-.02.03-.04.06-.06.09.11.12.22.25.35.39-.7.42-.8-.49-1.31-.45.13.26.39.68.36.7-.57.45-.11.73.05,1.05-.39.37-.73.28-1.12-.27-.3-.43-.6-.86-.95-1.26-.64-.74-1.31-1.46-1.96-2.19-.07-.08-.09-.21-.19-.46.85.75,1.58,1.4,2.32,2.04.05-.05.1-.1.15-.14-.43-.51-.86-1.02-1.28-1.52.06-.05.12-.11.17-.16.59.59,1.17,1.17,1.76,1.76.04-.04.08-.09.11-.13-2.95-3.45-6.11-6.68-9.88-9.54,1.03,1.72,2.3,3.09,3.16,4.75-1.31-.67-2.11-1.88-3.09-2.89-.06.05-.11.11-.17.16,2.43,2.74,4.86,5.48,7.28,8.22-1.72-.05-2.14-1.72-3.36-2.44.44.66.89,1.32,1.35,2.01-.17.32-.4.22-.61.01-.26-.25-.5-.51-.74-.78-.6-.69-1.18-1.39-1.77-2.08-.05.08-.09.23-.14.24-.82.17-.93-.77-1.62-.88.41.57.82,1.14,1.23,1.7-.05.05-.11.1-.16.15-.23-.18-.46-.36-.69-.54-.04.04-.09.07-.13.11.68,1.02,1.37,2.04,2.05,3.07l-.11.09c-.36-.29-.71-.58-1.19-.98.1.37.15.55.2.74-.04.04-.09.08-.13.11-.72-.64-1.45-1.27-2.17-1.91-.04.04-.08.08-.13.13.45.53.9,1.06,1.35,1.59-.01.02-.02.04-.04.06-.22-.11-.44-.22-.76-.38.21.3.36.5.53.74-.17.02-.25.03-.24.03.46.73.92,1.46,1.38,2.19-.04.04-.08.07-.12.11-1.89-.97-3.06-2.84-4.91-3.87.55.73,1.16,1.4,1.7,2.12.52.71,1.31,1.25,1.45,2.25-.68-.51-1.37-1.03-2.1-1.58-.02.22-.03.34-.04.5-.23-.12-.41-.21-.56-.29.26.39.51.81.79,1.2.3.4.64.77.96,1.15-.06.05-.11.1-.17.15-1.21-1.21-2.43-2.43-3.65-3.65-.11.21-.21.41-.3.59,1.13.47,1.19,1.65,1.66,2.56-1.12-.52-1.76-1.53-2.7-2.47-.01.36-.11.64-.01.76.41.54.91,1,1.3,1.55.27.37.41.84.61,1.26-.04.02-.08.05-.12.07-.81-1-1.62-2.01-2.52-3.12.2.93,1.08,1.28,1.16,2.12-.39-.11-.71-.19-1.02-.28h0s0,0,0,0c0,0,0,0,0,0,0,0,0,0,0,0h0c-.63.32-.6-.54-1.2-.57.27.45.48.8.78,1.29-.29-.1-.44-.11-.52-.19-.47-.51-.94-1.03-1.38-1.57-.51-.62-.97-1.3-1.51-1.9-.27-.3-.67-.49-1.02-.73-.05.06-.1.13-.15.19.36.31.69.67,1.09.92.42.26.71.64.72,1.22-.16-.07-.3-.14-.46-.21.25.53.5,1.03.74,1.54-.04.02-.08.05-.12.07-.33-.39-.67-.79-1-1.18.06.42.19.78.42,1.07.48.58.5.56.42,1.13-.95-1.94-2.69-3.12-3.5-5.03.09.05.18.1.39.21-.75-.69-.98-1.7-2.07-2.05,2.53,4.06,4.98,8,7.44,11.95-.48-.32-.87-.72-1.28-1.12-.28-.27-.59-.52-.86-.81-1.09-1.16-1.92-2.51-2.76-3.86-.5-.81-1.1-1.55-1.65-2.32-.04.03-.08.06-.13.09.97,1.66,1.93,3.32,2.9,4.98-.05.04-.1.07-.15.11-.62-.84-1.24-1.68-1.86-2.53-.02.01-.03.03-.05.04.71,1.34,1.43,2.67,2.14,4.01-.04.03-.09.06-.13.1-.75-1.02-1.5-2.05-2.26-3.07-.07.05-.13.09-.2.14.49.91.98,1.81,1.39,2.58-.03.38-.09.65-.05.89.04.28.17.54.26.81-.24-.1-.44-.24-.57-.44-.24-.37-.45-.67-.9-.07-.17-.27-.3-.49-.45-.73.16-.02.25-.03.42-.05-.49-.29-.91-.53-1.33-.78-.03.02-.07.05-.1.07.45.75.89,1.51,1.34,2.26-.04.02-.08.05-.11.07-.28-.37-.56-.74-.86-1.13-.17.21-.24.3-.35.44-.32-.4-.6-.75-.9-1.09-.07-.08-.22-.1-.33-.15-.05.14-.15.3-.13.41.08.32.21.61.33.92-.05.03-.11.06-.16.09-.28-.46-.56-.92-.85-1.4-.17.49-.47.95-.44,1.36.04.46.38.87.58,1.31-.06.04-.11.07-.17.11-.35-.49-.69-.97-1.04-1.46-.05.03-.1.06-.15.09.19.4.39.81.58,1.21l-.08.08c-.36-.25-.73-.5-1.09-.76-.02.02-.04.04-.06.07.36.46.72.91,1.11,1.41-.19.1-.29.16-.43.23.43.51.84.98,1.24,1.45-.06.06-.12.12-.18.19-.34-.25-.68-.5-1.02-.75.02.27.15.44.27.61.23.32.48.63.7.96.06.09,0,.25,0,.38-.13,0-.27,0-.36,0,.11.23.22.49.33.74-.03.02-.07.04-.1.06-.5-.5-.99-.99-1.57-1.57.04.31.06.5.09.77-.66-.39-1.19-.71-1.86-1.11.42.75.77,1.38,1.12,2-.3.09-.5.15-.79.24-.14-.16-.32-.4-.54-.61-.1-.1-.27-.15-.41-.19-.17-.05-.44,0-.52-.1-.47-.57-.92-1.17-1.33-1.79-.46-.7-.88-1.44-1.31-2.16-.09.04-.17.09-.26.13,1.13,1.52,1.41,3.43,2.28,5.06-.36-.21-.73-.43-1.09-.64-.06.05-.12.11-.17.16.21.54.43,1.08.67,1.7-.32-.03-.55-.01-.76-.07-.3-.08-.59-.21-.88-.32-.04.06-.09.12-.13.19.15.36.33.71.44,1.08.05.16,0,.5-.09.55-.3.15-.65.21-1.02.32.05.25.03.52.15.64.37.37.37.75.04,1.21-.51-.27-.5-1.19-1.32-1.1.07,1.02.15,2.01.22,3.04-.24.23-.4.53-.1.88.89,1.05,1.78,2.09,2.68,3.13.06.07.18.08.23.1-.27-.41-.54-.82-.81-1.23.06-.05.13-.09.19-.14.88,1.25,2.25,2.12,2.75,3.7.92.14,1.16,1.02,1.67,1.62-.32-.11-.57-.29-.84-.46-.51-.32-1.02-.63-1.53-.95.66.53,1.32,1.07,1.99,1.59.24.19.49.38.76.53.29.16.54.31.21.71-.16-.08-.32-.15-.62-.29.11.19.12.26.17.3.91.76,1.85,1.49,2.74,2.27.47.42.96.87,1.04,1.61-.18,0-.29,0-.53,0,.69.8,1.3,1.5,1.92,2.22.03-.14.06-.23.11-.43.17.17.35.28.42.43.19.42.28.89.5,1.28.45.8.91,1.61,1.47,2.34,1.28,1.67,2.62,3.29,3.94,4.93.11.14.17.31.25.47-.07.05-.14.1-.21.15-.97-1.09-1.93-2.18-2.92-3.26-.4-.44-.85-.85-1.27-1.28,1.06,1.47,2.17,2.87,3.27,4.28.53.68,1.04,1.38,1.57,2.06,1.17,1.49,2.34,2.99,3.54,4.46.71.87,1.42,1.73,2.21,2.52,1.12,1.11,2.31,2.15,3.49,3.2.65.57,1.34,1.1,2.01,1.65.04-.05.08-.09.12-.14-.52-.42-1.06-.8-1.54-1.26-.58-.56-1.11-1.19-1.65-1.79-.18-.2-.57-.32-.3-.75.01-.02-.16-.2-.2-.18-.46.21-.4-.21-.51-.4-.15-.26-.22-.58-.42-.78-.31-.31-.27-.52.25-.76-.45-.51-.85-.95-1.25-1.39l-.11.08c.21.42.42.84.68,1.37-.2-.1-.28-.12-.35-.17-.62-.41-1.25-.8-1.83-1.26-.31-.25-.8-.72-.72-.93.23-.56-.15-.73-.33-1.04-.21-.37-.41-.76-.57-1.16-.02-.06.19-.32.26-.31.25.03.55.08.7.24.37.38.63.84.99,1.23.73.81,1.48,1.6,2.23,2.39.1.1.22.19.35.29.1-.18.17-.3.23-.42.62.89,1.23,1.75,1.86,2.66.1-.18.16-.29.3-.55.39.58.7,1.08,1.06,1.55.13.18.37.27.57.39.3.19.61.35.88.56.09.07.02.32.1.41.34.32.74.58,1.07.92.69.7,1.55,1.25,1.9,2.25.06.16.24.27.38.39.33.29.7.55,1.01.86.53.55,1,1.16,1.55,1.69.59.56,1.1,1.21,1.87,1.59.46.23.8.74,1.11,1.19.27.4.69.53,1.02.79.32.25.28.89.53,1.27.37.56.84,1.05,1.32,1.53.38.39.84.7,1.26,1.05.02-.02.04-.03.06-.05-.33-.51-.66-1.03-.99-1.54.04-.03.08-.07.11-.1.12.07.26.13.36.22.5.47.98.97,1.49,1.43.5.45,1.02.88,1.55,1.28.52.4.85,1.05,1.62,1.15.12.02.2.38.25.6.07.26.08.53.12.8.03,0,.07-.02.1-.03.02-.12.04-.24.06-.37.05-.03.11-.06.16-.09,1.4,2.68,3.69,4.59,5.49,6.93-.29-.55-.67-1.03-1.02-1.53-.26-.38-.81-.69-.29-1.39.16.42.89.4.62,1.11-.02.05.14.19.24.26.13.09.31.13.43.23.36.3.72.61,1.04.95.11.11.2.23.31.34-1.02,1.09-2.06,2.17-2.98,3.34-1.08,1.37-1.93,2.92-2.88,4.4-.1.15-.11.36-.16.54.77-.49,1.45-1.01,2.05-1.62.37-.37.49-.98,1.11-1.1.08-.02.12-.13.18-.21.42-.54.84-1.09,1.27-1.62.41-.5.84-.97,1.25-1.46.35-.42.69-.85,1.04-1.28.12.14.26.28.38.43.57.67,1.12,1.35,1.7,2.05-1.29,1.27-2.51,2.61-3.75,3.92.07.07.14.14.21.21,2.02-1.82,3.96-3.71,5.66-5.84.11.13.22.29.34.41.17.18.35.34.52.51-.39.45-.86.83-1.32,1.2-.02-.03-.04-.06-.07-.08.01.02.04.07.06.09-.07.06-.13.12-.21.18-.26-.12-.54-.25-.76-.36.18.23.31.4.47.61-.05.03-.09.09-.14.12-.09.05-.11.22-.16.33-.06.13-.09.29-.18.4-.39.43-.81.85-1.21,1.27-.56.58-1.11,1.18-1.68,1.75-.27.27-.59.49-.88.74-.13.11-.39.27-.36.36.14.5-.21.69-.47.95-.49.49-.98.99-1.48,1.47-.07.07-.19.09-.32.15.01-.2.02-.35.03-.51-.3.36-.95.5-.63,1.18.02.05-.07.18-.14.23-.29.19-.59.36-.91.55.32.55-.35.57-.55.87-.07-.03-.15-.05-.22-.08.09-.4.18-.79.26-1.1-.68.68-1.43,1.41-2.15,2.17-.1.11,0,.39-.02.58-.01.1-.06.24-.13.28-.07.04-.22.01-.31-.03-.09-.04-.15-.14-.21-.2-.51.44-.99.84-1.46,1.24-.11-.23-.14-.37-.08-.44.49-.56.96-1.15,1.5-1.65.59-.54,1.26-.98,1.87-1.5.41-.35.76-.75,1.21-1.2-.21.02-.29.02-.41.03.68-.88.84-.95,1.04-.5.07-.08.19-.15.18-.22-.17-.88.37-1.3.96-1.7.12-.08.3-.21.29-.32-.06-.58.03-1.03.71-1.08.03,0,.06-.04.09-.07.46-.62.93-1.24,1.39-1.86-.96.8-1.83,1.66-2.69,2.53-.07.07-.15.22-.12.3.27.73-.39.69-.73.91.07-.16.14-.32.21-.47-.03-.02-.06-.05-.09-.07-.21.15-.43.31-.62.45.29.34.42.65.1,1.08-.11-.26-.17-.41-.23-.55-.54.24-1.04.46-1.5.67.1.23.23.43.19.46-.12.12-.36.31-.44.26-.51-.31-.72.06-.96.32-.52.59-1.19,1.05-1.45,1.85-.03.1-.18.15-.39.33,0-.37,0-.6-.01-.81-.78.77-.87.96-.69,1.24.3-.12.59-.23,1.02-.4-.39.79-3.22,4.1-4.24,4.27.49-.68.93-1.27,1.35-1.88.41-.61.83-1.22,1.16-1.87.31-.61.51-1.28.77-1.96-.43.5-.72,1.09-1.2,1.34-.55.28-.84.72-1.2,1.14-.12.14-.32.23-.5.31-.19.08-.4.12-.61.18.02.04.04.09.06.13.19,0,.38,0,.57,0,.03.05.06.1.09.15-.84.97-1.67,1.95-2.41,2.81-.07.28-.07.45-.15.57-.28.4-.59.78-.92,1.22,1.24-.02,1.35-.09,1.98-.88.21-.26.51-.44.77-.65.05.05.09.1.14.16-.91.97-1.81,1.95-2.73,2.91-.07.07-.28.01-.43.01.04.03.09.06.13.08-.3.44-.55.92-.91,1.3-.75.81-1.58,1.54-2.35,2.34-1.73,1.79-3.44,3.59-5.17,5.38-.24.25-.48.48-.73.73-.05-.04-.11-.09-.16-.13l.37-.79c-.24.47-1.23.51-.71,1.41.02.04,0,.13-.03.16-.37.38-.74.74-1.11,1.12-.04-.04-.07-.08-.11-.12.11-.19.22-.38.32-.58-.07-.06-.13-.12-.2-.18-1.17,1.09-2.35,2.18-3.52,3.27,1.39-2.39,3.55-4.07,5.5-6.09-.24.03-.34.04-.43.06.39-.64.86-1.17,1.36-1.67.07-.07.28.02.42.04.85-.85,1.74-1.74,2.63-2.63-.03-.03-.05-.05-.08-.08-.25.2-.51.4-.76.59-.04-.04-.07-.07-.11-.11.24-.28.47-.56.77-.92-.99.33-1.55.82-1.87,1.57-.28.66-.61.86-1.24.71.14.49-.03.8-.46,1-.36.17-.68.41-1.01.62l-.13-.12c.07-.16.11-.35.22-.47.48-.54,1-1.06,1.48-1.6,1.24-1.41,2.47-2.83,3.7-4.25.06-.07.14-.12.23-.15.74-.26.78-.31.92-1.04-3.18,2.88-5.84,6.3-9.3,8.9l1.41-1.65s-.09-.08-.13-.12c-1.01,1.47-2.67,2.25-3.78,3.64-.48.61-1.23.98-1.81,1.52-.28.26-.42.66-.67.96-.97,1.18-1.92,2.37-2.93,3.51-1.85,2.07-3.71,4.12-5.62,6.14-1.67,1.77-3.41,3.48-5.11,5.21-.5.51-.93,1.15-1.54,1.48-.55.3-.99.68-1.43,1.1-1.28,1.2-2.58,2.37-3.83,3.59-.47.46-.9,1-1.2,1.59-.39.77-.58,1.63-1.29,2.21-.22.18-.33.48-.49.73.05.03.09.06.14.09.13-.03.27-.07.4-.1.03.05.05.1.08.15-.55.31-1.1.62-1.65.93.04.06.07.12.11.18.22-.11.45-.22.75-.36.19.3.34.62.57.87.2.22.43.47.82.32.42-.15.89-.18,1.34-.27.11-.02.22-.09.4-.16-.21-.12-.32-.19-.45-.27.49-.74,1.35-.58,2.03-.79.06-.02.28.19.28.28,0,.25-.07.49-.12.73-.14.64-.34,1.26-.42,1.91-.05.38-.07.72-.41.95-.04.03-.06.08-.11.15.14.04.26.08.39.11-.1.18-.19.32-.27.47.04.05.08.1.13.15.68-.32,1.36-.64,2.03-.95-.3.67-.58,1.32-.87,1.97.02.02.05.03.07.05.33-.33.66-.66.98-.98.08.05.15.11.23.16-.1.23-.16.5-.31.67-.33.38-.73.63-1.25.81-.41.15-.54.87-.91,1.22-.56.53-1.2.98-1.84,1.41-.44.29-.95.49-1.43.73.01.02.02.04.03.07.42-.11.85-.22,1.27-.33l.11.18c-.71.51-1.41,1.02-2.12,1.53.01.04.02.08.04.12.39-.1.78-.2,1.25-.32-.07.19-.12.3-.18.46.33-.18.62-.34,1.01-.56-.11.43-.18.74-.26,1.05.33.09.65.18,1.06.29.1.8-.91,1.07-1.03,2.06.76-.64,1.24-1.66,2.39-1,.02.14.03.28.05.46.54.04,1.04.07,1.57.11-.42.81-.83,1.61-1.23,2.41.05.05.1.11.16.16.19-.15.44-.26.57-.45.53-.82,1.17-1.52,2.07-1.98.41.56,0,.84-.28,1.14.8.93-.52,1.43-.25,2.33.34-.29.62-.57.94-.78.11-.08.34,0,.51.02-.01.15,0,.31-.04.45-.05.16-.17.29-.25.42.04.06.05.1.08.13.03.02.09.02.11.05.48.83,1.12.93,1.92.62.23-.09.56.06.9.11-.21.5-.36.88-.57,1.4.38-.31.64-.52.82-.66.14.41.27.77.37,1.13.03.11.02.23,0,.34-.07.3-.15.6-.22.9-.16.7.05.94.75.86.4.53.58.54,1.1.19.54-.36,1.12-.68,1.68-1.02l.15.18c-.43.57-.9,1.11-1.29,1.7-.59.9-1.38,1.41-2.62,1.26.26.76.94.25,1.27.67-.19.3-.39.62-.58.93.87-.13,1.7-.26,2.65-.4-.53.74-1.01,1.41-1.48,2.07.03.04.06.07.09.11,1.33-.37,2.66-.74,3.99-1.11.03.06.06.12.1.18-.56,1.07-1.63,1.7-2.36,2.62.03.05.05.09.08.14.45-.11.91-.23,1.36-.34.03.04.06.09.09.13-.13.26-.26.51-.44.87.83-.08,1.42-.85,2.27-.36-.04.12-.08.25-.12.39.03.03.06.06.1.09.33-.24.65-.47.98-.71.04.05.09.09.13.14-.21.24-.4.5-.62.73-.26.28-.34.58-.13.89,1.34.33,2.41-.19,3.53-.89-.64.83-1.16,1.51-1.69,2.19.06.06.12.11.18.17.19-.16.39-.31.57-.49.49-.47,1.08-.75,1.78-.77.17,0,.35.15.53.23-.06.15-.09.33-.19.44-.33.36-.71.69-1.02,1.06-.15.18-.34.53-.26.64.4.59-.16.74-.34,1.06-.13.23-.21.48-.32.73.07.05.15.09.22.14,1-1.13,2-2.25,2.99-3.38.27.05.52.02.72-.09.5-.27.98-.58,1.46-.88.56-.36,1.28-.53,1.55-1.23.1-.24.12-.52.2-.77.18-.54.54-.63.99-.35-.69,1.9-2.33,2.99-3.76,4.28.4.28.66.45.96.66-.48,1.21-.94,2.38-1.4,3.55.05.03.1.07.16.1.12-.08.25-.15.36-.24.24-.2.38-.33.82-.12.38.18.79.22,1.09.6.04.05.18,0,.28.03.27.06.58.05.79.2.57.39,1.1.85,1.68,1.3.5.05.88-.57,1.51-.34.04.01.13-.08.17-.13.22-.33.46-.64.63-1,.46-.92,1.19-1.41,2.26-1.26,1.02.14,1.52-.33,1.92-1.15.44-.91.91-1.84,1.9-2.11.12-.34.15-.68.33-.86,1.24-1.26,2.51-2.49,3.78-3.73.04-.04.13-.02.26-.03-.91,1.31-1.78,2.57-2.66,3.83.03.04.06.08.09.11.3-.16.59-.33.88-.49.24.48-.13,1.11-.8,1.25-.54.11-.86.42-1.07.89-.33.74-.67,1.49-1.04,2.21-.28.56-.66,1.06-.91,1.64-.08.18.14.51.22.77.16-.06.38-.06.46-.18.56-.73,1.06-1.51,1.64-2.23.33-.41.74-.75,1.14-1.09,1.09-.93,2.31-1.72,3.06-2.98.25-.42.27-.92.39-1.39.23-.97,1.02-1.6,1.71-2.26.13-.13.36-.17.54-.25l.13.15c-.25.25-.51.51-.76.76.05.05.1.1.15.16.82-.15.77-1.18,1.41-1.54-.21-.02-.41-.04-.69-.07.61-1.2,1.58-1.95,2.7-2.55-.06-.07-.12-.14-.18-.2-.53.35-1.06.7-1.58,1.05l-.12-.15c.13-.33.25-.67.38-1-.05-.03-.11-.06-.16-.09-.17.14-.33.29-.5.43-.03-.03-.07-.06-.1-.08.26-.34.52-.69.77-1.03-.29.17-.46.44-.69.65-.73.66-1.59,1.21-2.2,1.97-.39.49-.48.1-.68-.07-.21.17-.4.32-.58.48-.05-.05-.09-.11-.14-.16,1.09-.95,2.18-1.89,3.28-2.83-.04-.04-.07-.08-.11-.12-1.07.71-2.15,1.42-3.22,2.13-.04-.06-.09-.12-.13-.18,1.82-1.68,3.9-3.09,5.63-4.86-.04-.05-.08-.09-.12-.14-.75.59-1.49,1.17-2.24,1.76l-.15-.15c.18-.28.33-.58.54-.83.6-.7,1.22-1.39,1.84-2.08.87-.96,1.72-1.94,2.61-2.87.73-.76,1.6-1.41,2.25-2.23,1.47-1.88,3.34-3.33,5.2-4.77,1.96-1.51,3.79-3.16,5.4-5.05.41-.48.85-.95,1.31-1.39,1.87-1.79,3.76-3.55,5.62-5.34.59-.57,1.1-1.23,1.63-1.86.33-.41.37-.98.89-1.32.56-.38.9-1.06,1.66-1.22.09-.02.15-.16.21-.26.22-.39.36-.85.66-1.15.85-.86,1.77-1.66,2.66-2.48.28-.25.59-.47.85-.74.12-.12.29-.42.25-.46-.3-.31-.05-.45.11-.61,1.36-1.36,2.72-2.71,4.09-4.07,1.1-1.09,2.2-2.17,3.28-3.27.18-.18.28-.44.42-.66-.04-.02-.08-.04-.12-.07-.78.62-1.56,1.24-2.34,1.86-.03-.03-.06-.07-.09-.1.36-.44.72-.87,1.08-1.31-.05-.04-.09-.09-.14-.13-.5.4-1.08.74-1.48,1.22-.52.64-.97,1.32-1.67,1.8-.65.44-1.19,1.03-1.78,1.56-.04.03-.04.1-.06.16.15.08.29.16.59.32-.77.29-1.4.61-1.44,1.43-1.42,1.46-2.82,2.93-4.26,4.36-1.02,1.01-2.1,1.94-3.14,2.92-.38.35-.74.73-1.1,1.1-.04-.03-.07-.06-.11-.09.03-.25.05-.5.08-.76-.66,1.21-1.84,1.86-2.8,2.75-.04-.04-.08-.08-.12-.13.25-.28.5-.57.75-.85-.02-.02-.04-.05-.06-.07-.19.08-.38.15-.57.23-.04-.04-.09-.09-.13-.13.18-.26.31-.65.57-.76.89-.36,1.28-1.18,1.87-1.83.76-.83,1.45-1.76,2.35-2.41.52-.38.72-.88,1.16-1.33-1.03.02-1.35.93-2.06,1.3.7-.88,1.47-1.69,2.24-2.49.57-.59,1.17-1.16,1.71-1.77.56-.62.98-1.4,1.83-1.36.24-.53.36-1.02.65-1.38.42-.52.96-.92,1.44-1.39,1.31-1.28,2.59-2.58,3.92-3.83.48-.45.97-.88,1.46-1.33.11.09.21.18.32.27,0,0,0,0,0,0,0,0,0,0,0,0,.07.06.14.12.2.17.05-.06.1-.12.15-.18-.01,0-.02-.02-.03-.03.02,0,.07,0,.08,0,.39-.4.74-.84,1.1-1.26-.04-.04-.08-.07-.12-.11-.44.34-.89.67-1.31,1.03-.02.02-.01.08-.02.11-.07-.06-.13-.12-.2-.17.81-.73,1.61-1.46,2.42-2.19.01-.01.03-.02.04-.04.22.22.45.44.67.66-.71.4-1.02.77-.9,1.14.33-.39.63-.75.94-1.11.38.38.77.76,1.15,1.14-.37.37-.75.75-1.12,1.12-.03-.02-.05-.04-.08-.07.05-.12.1-.23.15-.35-.05-.04-.1-.09-.15-.13-.9.8-1.8,1.6-2.7,2.41.06.07.11.14.17.21.38-.3.77-.6,1.17-.92.25.54.5.47.77.13.21-.26.44-.52.67-.76.35-.37.71-.73,1.08-1.08.1-.1.2-.2.31-.3.57.57,1.13,1.14,1.71,1.7,1.53,1.48,3.09,2.93,4.77,4.25,1.37,1.08,2.92,1.93,4.4,2.88.15.1.36.11.54.16-.49-.77-1.01-1.45-1.62-2.05-.37-.37-.98-.49-1.1-1.11-.02-.08-.13-.12-.21-.18-.54-.42-1.09-.84-1.62-1.27-.5-.41-.97-.84-1.46-1.25-1.06-.88-2.13-1.75-3.21-2.61-.25-.2-.53-.36-.8-.52-.29-.17-.6-.31-.88-.49.08-.08.17-.14.24-.23.07-.08.11-.19.17-.27.04.03.09.06.13.09.05-.06.09-.11.14-.17-.05-.03-.11-.07-.16-.1.16-.26.32-.52.48-.78-.02-.02-.03-.03-.05-.05-.22.22-.45.45-.67.67-.73-.47-1.47-.94-2.2-1.41.43-.39.85-.78,1.29-1.15.17-.15.46-.18.62-.34.68-.7,1.31-1.44,1.98-2.13.02-.02.04-.04.06-.06.38.38.76.75,1.13,1.13.08.08.09.23.13.35.14.28.42.5.66.75,1.01,1.08,2.36,1.84,3.11,3.19.05.09.22.11.33.16.13.06.29.09.4.18.43.39.85.81,1.27,1.21.58.56,1.18,1.11,1.75,1.68.27.27.49.59.74.88.11.13.27.39.36.36.5-.14.69.21.95.47.49.49.99.98,1.47,1.48.07.07.09.19.15.32-.2-.01-.35-.02-.51-.03.36.3.5.95,1.18.63.05-.02.18.07.23.14.19.29.36.59.55.91.55-.32.57.35.87.55-.03.07-.05.15-.08.22-.4-.09-.79-.18-1.1-.26.68.68,1.41,1.43,2.17,2.15.11.1.39,0,.58.02.1.01.24.06.28.13.04.07.01.22-.03.31-.04.09-.14.15-.2.21.44.51.84.99,1.24,1.46-.23.11-.37.14-.44.08-.56-.49-1.15-.96-1.65-1.5-.54-.59-.98-1.26-1.5-1.87-.35-.41-.75-.76-1.2-1.21.02.21.02.29.03.41-.88-.68-.95-.84-.5-1.04-.08-.07-.15-.19-.22-.18-.88.17-1.3-.37-1.7-.96-.08-.12-.21-.3-.32-.29-.58.06-1.03-.03-1.08-.71,0-.03-.04-.06-.07-.09-.62-.46-1.24-.93-1.86-1.39.8.96,1.66,1.83,2.53,2.69.07.07.22.15.3.12.73-.27.69.39.91.73-.16-.07-.32-.14-.47-.21-.02.03-.05.06-.07.09.15.21.31.43.45.62.34-.29.65-.42,1.08-.1-.26.11-.41.17-.55.23.24.54.46,1.04.67,1.5.23-.1.43-.23.46-.19.12.12.31.36.26.44-.31.51.06.72.32.96.59.52,1.05,1.19,1.85,1.45.1.03.15.18.33.39-.37,0-.6,0-.81.01.77.78.96.88,1.24.69-.12-.3-.23-.59-.4-1.02.79.39,4.1,3.22,4.27,4.24-.68-.49-1.27-.93-1.88-1.35-.61-.41-1.22-.83-1.87-1.16-.61-.31-1.28-.51-1.96-.77.5.43,1.09.72,1.34,1.2.28.55.72.84,1.14,1.2.14.12.23.32.31.5.08.19.12.4.18.61l.13-.06c0-.19,0-.38,0-.57.05-.03.1-.06.15-.09.97.84,1.95,1.67,2.81,2.41.28.07.45.07.57.15.4.28.78.59,1.22.92-.02-1.24-.09-1.35-.88-1.98-.26-.21-.44-.51-.65-.77l.16-.14c.97.91,1.95,1.81,2.91,2.73.07.07.01.28.01.43.03-.04.06-.09.09-.13.44.3.92.55,1.3.91.81.75,1.54,1.58,2.34,2.35,1.78,1.73,3.59,3.44,5.38,5.17.25.24.48.48.73.72-.04.05-.08.11-.13.16-.26-.12-.53-.25-.79-.37.47.24.51,1.23,1.41.71.04-.02.13,0,.16.03.38.37.74.74,1.12,1.11-.04.04-.08.07-.12.11l-.58-.32c-.06.07-.12.13-.18.2,1.09,1.17,2.18,2.34,3.27,3.52-2.39-1.4-4.07-3.55-6.09-5.5.03.24.04.34.06.43-.64-.39-1.17-.86-1.67-1.36-.07-.07.02-.28.04-.42-.85-.85-1.74-1.74-2.63-2.63-.03.03-.05.05-.08.08.2.25.4.51.59.76-.04.04-.07.07-.11.11-.28-.24-.56-.47-.92-.77.33.99.82,1.55,1.57,1.87.66.28.86.61.71,1.24.49-.14.8.03,1,.46.17.36.41.68.63,1.01l-.12.13c-.16-.07-.35-.11-.47-.22-.54-.48-1.06-1-1.6-1.48-1.41-1.24-2.83-2.47-4.25-3.7-.07-.06-.12-.14-.15-.23-.26-.74-.31-.78-1.04-.92,2.88,3.18,6.3,5.84,8.9,9.3-.55-.47-1.1-.94-1.65-1.41-.04.04-.08.09-.12.13,1.47,1.01,2.25,2.67,3.64,3.78.61.48.98,1.23,1.52,1.81.26.28.66.42.96.67,1.18.97,2.37,1.92,3.51,2.93,2.07,1.85,4.12,3.71,6.14,5.62,1.77,1.67,3.48,3.41,5.21,5.11.51.5,1.15.93,1.48,1.54.3.55.68.99,1.1,1.43,1.2,1.28,2.37,2.58,3.6,3.83.46.47,1,.9,1.59,1.2.77.38,1.63.58,2.21,1.29.18.22.48.33.73.49.03-.05.06-.09.09-.14-.03-.13-.07-.27-.1-.4.05-.03.1-.05.15-.08.31.55.62,1.1.93,1.65l.18-.11c-.11-.22-.21-.45-.36-.75.3-.19.62-.34.87-.57.22-.2.47-.43.32-.82-.15-.42-.18-.89-.27-1.34-.02-.11-.09-.22-.16-.4-.12.21-.19.32-.27.45-.74-.49-.58-1.35-.79-2.03-.02-.06.19-.28.28-.28.25,0,.49.07.73.12.64.14,1.26.34,1.91.42.38.05.72.07.95.41.03.04.08.06.15.11.04-.14.08-.26.11-.39.18.1.32.19.47.27.05-.04.1-.08.15-.12-.32-.68-.64-1.36-.95-2.03.67.3,1.32.58,1.97.87.02-.02.03-.05.05-.07-.33-.33-.66-.66-.98-.98.05-.08.11-.15.16-.23.23.1.5.16.67.32.38.33.63.73.81,1.25.15.41.87.54,1.22.91.53.56.98,1.2,1.41,1.84.29.44.49.95.73,1.43.02,0,.04-.02.07-.03-.11-.42-.22-.85-.33-1.27l.18-.11c.51.71,1.02,1.41,1.53,2.12.04-.01.08-.02.12-.04-.1-.39-.2-.78-.32-1.25.19.07.3.12.46.18-.18-.33-.34-.62-.56-1.01.43.11.74.18,1.05.26.09-.33.18-.65.28-1.06.8-.1,1.07.91,2.06,1.03-.64-.77-1.66-1.24-1-2.39.14-.02.28-.03.46-.05.04-.54.07-1.04.11-1.57.81.42,1.61.83,2.41,1.23.06-.05.11-.1.17-.16-.15-.19-.26-.44-.45-.57-.82-.53-1.52-1.17-1.98-2.07.56-.41.84,0,1.14.28.93-.8,1.42.52,2.33.25-.29-.34-.57-.62-.78-.94-.08-.11,0-.34.02-.51.15.01.31,0,.45.04.16.06.29.17.42.25.06-.04.1-.05.13-.08.02-.03.02-.09.05-.11.83-.48.93-1.12.62-1.92-.09-.23.06-.56.11-.9.5.21.88.36,1.4.57-.31-.38-.52-.64-.66-.82.41-.14.77-.27,1.13-.37.11-.03.23-.02.34,0,.3.07.6.15.9.22.7.16.94-.05.86-.75.53-.4.54-.58.19-1.1-.36-.54-.68-1.12-1.02-1.68.06-.05.12-.1.18-.15.57.43,1.11.9,1.7,1.29.91.59,1.41,1.38,1.26,2.62.76-.26.25-.94.67-1.27.3.19.62.39.93.58-.13-.87-.26-1.7-.4-2.65.74.53,1.41,1.01,2.07,1.48.04-.03.07-.06.11-.09-.37-1.33-.74-2.66-1.11-3.99.06-.03.12-.06.18-.1,1.07.56,1.7,1.63,2.62,2.36.05-.03.09-.05.14-.08-.11-.45-.23-.91-.34-1.36.04-.03.09-.06.13-.09.26.13.51.26.87.44-.08-.83-.85-1.42-.36-2.27.12.04.25.08.39.12.03-.03.06-.06.09-.1-.24-.33-.47-.65-.71-.98.05-.04.09-.09.14-.13.24.21.5.4.73.62.28.26.58.34.89.13.33-1.34-.19-2.41-.89-3.53.83.64,1.51,1.16,2.19,1.69.06-.06.11-.12.17-.18-.16-.19-.31-.39-.49-.57-.47-.49-.75-1.08-.77-1.78,0-.17.15-.35.23-.53.15.06.33.09.44.19.36.33.69.71,1.06,1.02.18.15.53.34.64.26.59-.4.74.16,1.06.34.23.13.48.21.73.32.05-.07.09-.15.14-.22-1.13-1-2.25-2-3.38-2.99.05-.27.02-.52-.09-.72-.27-.5-.58-.98-.89-1.46-.36-.56-.53-1.28-1.23-1.55-.24-.1-.52-.12-.77-.2-.54-.18-.63-.54-.35-.99,1.9.69,2.99,2.33,4.28,3.76.28-.4.45-.66.66-.96,1.21.48,2.38.94,3.55,1.4.03-.05.07-.1.1-.16-.08-.12-.15-.25-.24-.36-.2-.24-.33-.38-.12-.82.18-.38.22-.79.6-1.09.05-.04,0-.18.02-.28.06-.27.05-.58.2-.79.39-.57.85-1.1,1.3-1.68.05-.5-.57-.88-.34-1.51.01-.04-.08-.13-.13-.17Zm-68.15-125.61h0c.4-.48.81-.95,1.21-1.42-.4.47-.81.95-1.21,1.42Zm-66.93,55.6c.03-.05.05-.11.09-.16.04-.06.09-.11.14-.16.15.16.3.31.45.47-.08.12-.16.25-.24.37-.14-.18-.29-.34-.43-.52Zm-.19.33c.1.29.2.58.32.92-.22-.16-.38-.29-.58-.44.09-.16.18-.32.26-.48Zm33.17-23.51s.03.06.04.09c-.02.01-.04.02-.07.04,0-.03.02-.09.02-.12Zm.15.33s.03.06.04.1c.07-.08.08-.1.12-.15.02-.01.06,0,.07-.03.04-.06.07-.13.1-.2l.04-.05c.11.1.19.17.28.25-.61.61-1.21,1.21-1.82,1.82-.03-.03-.06-.05-.09-.08.09-.19.17-.39.26-.58-.06-.03-.11-.07-.17-.1-.14.19-.37.42-.44.58-.07-.07-.11-.16-.17-.24.37-.37.74-.75,1.12-1.12.07-.06.21-.05.31-.08.11-.03.21-.08.33-.12Zm26.15,27.83c.1.11.21.23.34.28.45.17.52.28.51.58l-.18.17c-.05-.03-.1-.07-.16-.09-.68-.24-.68-.23-.83-.9-.02-.08-.13-.18-.2-.18-.21.03-.32-.1-.47-.16l.38-.38c.2.23.4.45.6.68Zm-1.94-.95c.15-.02.27-.09.45-.05-.03.11-.07.23-.08.26l.37.37c-.26-.19-.49-.4-.75-.58Zm2.74-1.01s-.05-.03-.08-.04l.09-.09c0,.07,0,.08,0,.13Zm-56.55-2.04s-.02.02-.02.03l-.04-.04c.05-.05.11-.11.16-.16.59.59,1.18,1.18,1.76,1.76-.05.05-.11.11-.16.16-.53-.53-1.06-1.06-1.59-1.6,0-.01.02-.02.03-.04-.05-.04-.09-.08-.14-.12Zm1.34,2.11s-.06.06-.09.09c-.02.02-.06.02-.08.03-.21-.26-.48-.47-.58-.81.27.22.51.45.75.69Zm44.18-46.43h0c-.11-.02-.21-.04-.32-.06.11.02.21.04.32.06Zm-14.07,19.21c-.22.22-.43.43-.65.65-.03-.03-.06-.06-.09-.09-.03.03-.05.06-.08.09.01.05.03.09.04.14l-.15.15c-.12-.12-.24-.24-.36-.36.07-.16.15-.31.24-.45.12-.19.27-.36.41-.54.05.03.08.07.13.1l-.2.28c.07.05.13.1.2.15.07-.1.14-.19.21-.29.1.06.2.12.31.17Zm-.17-1.04s.08.06.12.1c-.1.14-.21.28-.31.42-.06,0-.1-.05-.18-.03.13-.16.24-.32.37-.48Zm-16.33-10.93c.19.19.37.38.57.56.3.28.6.62.97.03.28.19.54.35.79.52.15.1.32.2.43.34.28.37.53.76.8,1.13.61.85,1.59,1.23,2.39,1.85.39.31.73.73,1.37.52.1-.04.24.05.39.09-.22.22-.52.48-.5.51.21.3.48.57.73.85.05-.05.11-.09.16-.14-.18-.24-.36-.48-.54-.71.06,0,.12.02.18.03.12-.29.25-.58.37-.86-.03-.05-.06-.1-.09-.15-.48.34-.59.11-.7-.23-.07-.22-.23-.4-.36-.6-.06.05-.13.09-.19.14.09.17.19.33.28.5-.22.05-.42.02-.5-.09-.29-.4-.35-.98-.91-1.18-.08-.03-.09-.21-.13-.32.04-.03.07-.06.11-.09.23.19.47.38.71.57,0-.12,0-.22,0-.32.05-.04.1-.09.15-.13.56.52,1.12,1.03,1.66,1.57.13.13.14.38.28.48.54.42,1.13.77,1.66,1.19.64.5,1.26,1.03,1.85,1.59.63.59,1.16,1.28,1.82,1.83.61.51,1.13,1.05,1.61,1.68.08.11.21.17.32.25-.23.21-.46.41-.69.62-.05.05-.07.17-.05.24-.29-.29-.58-.58-.86-.87-.07.06-.14.11-.2.17.18.38.37.79.56,1.2-.57.57-1.06,1.13-1.58,1.69-.17-.25-.34-.5-.38-.86,0-.07-.08-.12-.13-.18-.09-.1-.18-.21-.28-.31.12-.19.18-.4.34-.57.08-.08.09-.22.17-.44-.27.25-.51.48-.77.73-.02-.02-.04-.04-.06-.07-.16-.24-.37-.46-.53-.7.13-.2.35-.46.37-.6-.21.16-.3.28-.49.43-.44-.67-.86-1.36-1.44-1.92-.31-.3-.46-.76-.75-1.08-.62-.67-1.3-1.28-1.93-1.94-.51-.54-.95-1.13-1.46-1.66-.22-.23-.58-.33-.82-.55-.73-.67-1.43-1.38-2.15-2.06-.83-.78-1.67-1.55-2.51-2.33-.06-.06-.09-.17-.13-.25.04-.03.08-.06.12-.09Zm-42.62,10.86h0c-.47-.4-.95-.81-1.42-1.21.47.4.95.81,1.42,1.21Zm12.25,17.86h0c-.02.11-.04.21-.06.32.02-.11.04-.21.06-.32Zm6.36,7.18c-.2-.22-.27-.55-.38-.78-.25-.18-.64-.31-.69-.53-.11-.51-.4-.43-.91-.36.42.53.78.99,1.13,1.44-.05.05-.1.1-.15.15-.59-.33-1.14-.7-1.5-1.37.14-.06.24-.1.41-.17-.92-1.17-1.8-2.29-2.67-3.39.18-.1.3-.17.43-.25.71.66,1.19,1.57,2.15,1.91.04-.04.08-.08.12-.13-.77-.88-1.54-1.76-2.32-2.64.06-.05.11-.09.17-.14.23.3.43.64.7.9.26.25.59.42.9.63.03-.04.05-.07.08-.11-.06-.15-.11-.3-.17-.44.04-.05.09-.1.13-.15.53.44,1.07.89,1.6,1.33.06-.06.11-.11.17-.17-.66-.85-1.32-1.69-1.98-2.53.64.56,1.45,1.06,1.79,1.79.43.94,1.16,1.41,1.95,1.9.14.09.26.19.41.31.1-.46-.1-.67-.38-.92-.56-.52-1.04-1.13-1.53-1.72-.32-.39-.6-.81-.91-1.21-.15-.2-.31-.4-.49-.56-.28-.24-.66-.4-.45-1.02.33.28.61.52.9.76-.31-.45-.62-.99-1.09-1.18-.71-.28-1.1-.8-1.51-1.35-.1-.14-1.62-.19-1.78-.07-.04.03-.08.06-.12.1-2.1-2.49-4.18-4.96-6.26-7.44.06-.05.11-.11.17-.16.55.44,1.09.88,1.65,1.3.14.1.31.17.48.21.03,0,.2-.22.17-.27-.09-.16-.23-.31-.37-.44-.17-.16-.37-.3-.56-.46.04-.05.08-.1.13-.15.16.12.31.25.47.35.4.26.79.69,1.23.72.62.04,1.13.22,1.5.63.59.65,1.09,1.38,1.63,2.08-.05.02-.19.07-.19.1,0,.11.11.22.09.31-.13.52-.11.56.39.55.45,0,1.11.61,1.14,1.15-.19-.19-.32-.35-.48-.47-.04-.03-.16.06-.25.1-.35-.24-.73-.44-1.05-.72-.65-.58-1.27-1.2-1.9-1.8-.05.05-.09.09-.14.14.74.34.78,1.23,1.5,1.67.95.58,1.69,1.47,2.54,2.21.6.52,1.26.98,1.84,1.51.41.37.74.83,1.08,1.27.22.28.44.38.66.21-.33-.29-.73-.54-.99-.89-.29-.39-.46-.88-.69-1.33-.05-.09-.1-.19-.2-.37.66.66,1.24,1.22,1.8,1.8.59.61,1.17,1.22,1.72,1.85.17.19.32.45.37.7.08.45.32.75.82.85-.17-.23-.34-.45-.51-.68.05-.04.1-.09.16-.13.59.68,1.19,1.36,1.78,2.04-.26-.01-.49-.23-.61-.17-.45.21-.61-.1-.82-.32-.42-.44-.81-.92-1.23-1.36-.11-.12-.28-.18-.52-.33.26.46.38.87.65,1.14.97.97,2.01,1.87,2.97,2.84.36.37.72.75,1.08,1.12-.34.34-.67.67-1,1.01-.14-.11-.31-.23-.44-.34-.14-.11-.25-.25-.38-.37,0,0-.17.13-.16.14.1.18.19.36.32.51.1.11.24.18.37.25.02.01.05.02.07.03-.25.26-.51.51-.76.77-.35.36-.65.75-.99,1.12-.76-.85-1.56-1.68-2.32-2.53Zm5.15,6.18c0-.31-.23-.47-.39-.66-.54-.65-1.06-1.32-1.6-1.98.44-.55.89-1.09,1.33-1.64.09-.11.16-.24.23-.36.07.07.13.14.22.18.36.17.73.32,1.1.47-.02.05-.05.1-.07.15-.23-.06-.47-.12-.7-.18-.03.05-.07.1-.1.14.21.3.41.58.55.77-.31.38-.63.77-.94,1.14l.13.13c.45-.39.91-.78,1.37-1.17.09,0,.22,0,.3.01-.03-.07-.05-.13-.08-.2.04-.03.07-.06.11-.09.13.15.26.3.39.44-.14.11-.28.21-.42.32-.07.01-.11.02-.19.03.02.02.04.04.06.07-.04.03-.09.06-.13.1.06.09.13.17.19.26.05-.04.09-.08.14-.11.14.17.28.34.41.5-.69.5-1.31,1.07-1.91,1.65Zm2.69-1.62l-.36-.36s.08-.09.12-.14c-.05.03-.09.09-.14.12-.15-.15-.29-.29-.45-.45.06-.05.11-.09.17-.14-.05-.07-.11-.13-.16-.2.31.35.62.7.93,1.06-.04.04-.08.07-.11.11Zm.86-.17c-.03-.57-.02-1.14-.58-1.51-.45-.3-.87-.66-1.24-1.06-.28-.29-.52-.61-.78-.92.08-.13.16-.26.25-.39.81.86,1.63,1.71,2.45,2.56.26.26.53.51.79.77-.07.07-.15.12-.22.19-.12-.1-.23-.19-.42-.33,0,.25-.03.4.03.47.04.05.07.09.11.14-.1.1-.19.21-.29.32-.02-.09-.09-.13-.11-.23Zm28.42,36.82c-.15.15-.3.3-.46.46-.42-.33-.81-.69-1.22-1.04-.25-.21-.51-.42-.76-.63.08-.07.16-.14.24-.22.73.48,1.47.95,2.2,1.43Zm-.9-3.2s-.1-.09-.14-.13c.17-.25.36-.52.54-.77.13.11.26.23.4.34-.22.25-.51.39-.79.55Zm2.32-1.95c-.22.18-.44.44-.7.46-.44.04-.52.31-.59.63-.03.12-.12.15-.17.23-.13-.13-.25-.25-.38-.38.28-.4.55-.79.87-1.23-.22-.03-.3-.04-.57-.07.29-.33.53-.61.8-.92.08.07.16.15.24.22-.09.12-.19.24-.28.36.05.05.1.09.14.14.11-.11.22-.22.33-.33.06.06.13.11.19.17.15.14.29.29.44.44-.11.09-.21.18-.32.26Zm94.72,42.2c.12.11.28.17.43.25h0c-.14-.08-.31-.14-.43-.25Z" fill="#010101"/>
  <path d="m33.94,2.96c.15.17.19.24.25.29,1.85,1.61,3.67,3.24,5.98,4.26.96.42,1.76,1.15,2.63,1.74.09.06.19.1.44.22-.21-.33-.33-.51-.48-.76.29.06.48.11.68.15.05-.04.1-.09.15-.13-.16-.27-.26-.6-.48-.8-1.18-1.07-2.39-2.11-3.6-3.16-.08-.07-.2-.08-.3-.12-.35-.14-.74-.23-1.06-.43-.49-.31-.92-.7-1.4-1.02-.12-.08-.32-.06-.57-.1.14.24.22.38.3.52-.02.02-.04.04-.06.06-.52-.33-1.04-.65-1.57-.98-.02.02-.03.05-.05.07.43.39.86.78,1.29,1.17-.05.07-.11.14-.16.21-.62-.36-1.23-.73-2-1.18Z" fill="#010101"/>
  <path d="m11.15,47.06c1.5,2.41,3.08,4.76,4.9,6.94-.06.05-.13.1-.19.15-.3-.34-.6-.67-.9-1.01-.05.04-.09.08-.14.12,1.35,1.73,2.7,3.45,4.05,5.18.07-.03.14-.07.22-.1-.06-.29-.12-.57-.19-.93.7.7,1.35,1.35,2,2,.05-.17.04-.3-.02-.38-.66-.72-1.3-1.46-2.01-2.13-.45-.42-.71-1.13-.43-1.41-.68-.86-1.35-1.72-2.02-2.57-.03.03-.06.06-.09.08.3.47.6.94.89,1.42-.05.04-.11.08-.16.12-2.15-2.34-4.09-4.85-5.91-7.48Z" fill="#010101"/>
  <path d="m109.9,145.42c-.06-.09-.18-.16-.28-.17-.63-.09-.66-.66-.98-1.15.23.06.35.09.52.13-.77-.77-1.38-1.63-2.22-2.15-.82-.5-1.67-.96-2.41-1.57.33.39.66.79.99,1.18-.05.05-.1.09-.14.14-.54-.53-1.07-1.07-1.61-1.61-.04.03-.08.07-.11.1.07.09.13.19.22.26,1.43,1.25,2.87,2.49,4.3,3.74.37.32.75.63,1.06.99.54.64,1.02,1.32,1.55,1.97.13.16.36.22.6.36-.53-.81-.99-1.52-1.47-2.23Z" fill="#010101"/>
  <path d="m105.55,138.66c-1.98-2.2-4.02-4.33-6.38-6.14,1.66,2.52,4.02,4.32,6.17,6.35.07-.07.14-.14.21-.21Z" fill="#010101"/>
  <path d="m139.64,105.7c-.26-.21-.52-.44-.76-.67-.37-.35-.73-.71-1.08-1.08-.34-.35-.64-.75-1.02-1.06-.37-.3-.82-.51-1.24-.77-.02.02-.03.03-.05.05.96.95,1.91,1.91,2.86,2.86-.02.03-.04.05-.07.08-.12-.05-.23-.1-.35-.15-.04.05-.09.1-.13.15.8.9,1.6,1.8,2.41,2.7.07-.06.14-.11.21-.17-.3-.38-.6-.77-.92-1.17.54-.25.47-.5.13-.77Z" fill="#010101"/>
  <path d="m92.14,64.93c.28.41.53.73,1.11.76.44.02.89.17,1.27.36.26.13.41.45.64.71.09-.49-.49-1.25-1.07-1.31-1.23-.14-1.48-1.36-2.3-1.95-.31-.22-.56-.54-.9-.88-.03.45.55.81-.19,1.12.24.16.42.27.57.4.3.25.64.48.86.79Z" fill="#010101"/>
  <path d="m144.32,113.54c1.18,1.28,2.37,2.57,3.55,3.85-.02.02-.05.05-.07.08-.18-.06-.36-.12-.53-.18-.03.04-.06.09-.09.13.32.26.65.51.96.77,0-.1.01-.21.03-.48.5.55.91,1,1.32,1.45.06-.05.11-.1.17-.16-1.71-1.88-3.42-3.77-5.13-5.65l-.21.2Z" fill="#010101"/>
  <path d="m190.9,145.31c-.08-.29-.21-.54-.41-.71-.36-.31-.76-.58-1.16-.85-.28-.19-.57-.37-.84-.54-.13.29-.21.45-.28.61.39.27.91.5,1.21.89.38.51.86.59,1.48.6Z" fill="#010101"/>
  <path d="m192.46,173.25c.3.3.56.56.86.86-.17.09-.29.16-.36.2.94.72,1.87,1.42,2.81,2.13-.19-.73-2.65-3.15-3.3-3.19Z" fill="#010101"/>
  <path d="m101.95,138.1l.09-.13c.18.05.37.11.55.16.03-.05.06-.1.08-.15-.67-.37-1.35-.74-2.02-1.11-.02.01-.04.03-.06.04.37.43.74.86,1.12,1.3l-.1.1c-.14-.1-.27-.2-.47-.34.47.47.88.88,1.28,1.28.03-.03.06-.06.09-.1-.15-.15-.3-.3-.56-.56.41.1.64.16.96.24-.37-.28-.67-.51-.96-.74Z" fill="#010101"/>
  <path d="m20.4,64.54c1.64,1.52,3.28,3.04,4.92,4.56.04-.04.08-.08.12-.13-1.63-1.53-3.26-3.07-4.89-4.6-.05.06-.1.11-.15.17Z" fill="#010101"/>
  <path d="m149.89,190.5c.41.47,1,.52,1.5.13-.95-.57-1.88-1.14-2.73-1.65.37.46.78,1.01,1.23,1.52Z" fill="#010101"/>
  <path d="m139.08,107.76c-.08-.05-.22,0-.34,0,1.11,1.11,2.18,2.18,3.15,3.15-.53-.71-1.13-1.55-1.79-2.34-.27-.33-.66-.55-1.01-.8Z" fill="#010101"/>
  <path d="m99.48,135.22c-.57-.67-1.15-1.35-1.73-2.03-.14.17-.25.32-.41.51.69.57,1.35,1.11,2,1.65.04-.04.09-.09.13-.13Z" fill="#010101"/>
  <path d="m22.56,14.02c.06.16.12.33.19.5-.13-.02-.23-.03-.38-.05.14.47.23.91.81.92-.07-.18-.13-.35-.23-.62.56.56,1.02,1.02,1.49,1.49-.57-.79-1.14-1.57-1.71-2.36-.06.04-.12.08-.17.12Z" fill="#010101"/>
  <path d="m25.1,4.36c-.79-.79-1.36-1.81-2.53-2.2.79.79,1.57,1.57,2.36,2.36.06-.05.11-.1.17-.16Z" fill="#010101"/>
  <path d="m161.89,193.8c.06-.02.12-.03.18-.05.09-.45.18-.9.29-1.45-.4-.05-.72-.08-1.18-.13.28.64.49,1.14.71,1.63Z" fill="#010101"/>
  <path d="m62.14,91.33c-.16-.26-.26-.67-.5-.75-.19-.07-.54.27-.87.45-.32-.17-.71-.37-1.09-.57.24.55,1.29,1.28,1.62,1.09,0-.13-.01-.27-.02-.56.38.15.64.25.88.34Z" fill="#010101"/>
  <path d="m25.45,67.57c.74.82,1.39,1.54,2.03,2.26-.21-.92-1.29-2.08-2.03-2.26Z" fill="#010101"/>
  <path d="m10.84,20.25c-.63-.78-1.22-1.52-1.82-2.26.54,1.47,1.26,2.32,1.82,2.26Z" fill="#010101"/>
  <path d="m122.05,160.7c-.3-.22-.54-.52-.8-.79-.03.04-.07.08-.1.11.67.67,1.34,1.34,2.01,2.01l.2-.11c-.06-.19-.14-.56-.17-.55-.62.13-.79-.42-1.14-.68Z" fill="#010101"/>
  <path d="m22.93,64.1c.31-.74-.35-.76-.62-1.07-.06.05-.13.1-.19.15.57.72,1.14,1.43,1.71,2.15.1-.09.2-.18.3-.26-.31-.24-.63-.49-.94-.73-.09-.07-.28-.19-.26-.23Z" fill="#010101"/>
  <path d="m13.95,18.04c.43.85,1.02,1.55,1.74,2.13.04-.04.08-.09.12-.13-.58-.71-1.15-1.41-1.73-2.12-.04.04-.09.08-.13.12Z" fill="#010101"/>
  <path d="m106.84,144.51c.92.68,1.83,1.37,2.75,2.05.04-.06.09-.12.13-.18-.93-.67-1.85-1.33-2.78-2-.03.04-.07.09-.1.13Z" fill="#010101"/>
  <path d="m19.86,63.91c-.84-.84-1.64-1.64-2.43-2.43.05.46,1.8,2.26,2.43,2.43Z" fill="#010101"/>
  <path d="m6.26,29.21c-.09-.27-.24-.48-.19-.6.27-.55-.21-.66-.43-.98-.04.64-.41,1.37.62,1.59Z" fill="#010101"/>
  <path d="m16.57,14.96c-.32-.46-.61-.93-.95-1.37-.33-.43-.7-.83-1.05-1.24-.02.02-.03.03-.05.05.64.89,1.28,1.78,1.92,2.67.04-.04.09-.08.13-.11Z" fill="#010101"/>
  <path d="m138.06,108.08c0-.14.04-.34-.04-.41-.4-.39-.84-.74-1.26-1.1-.04.04-.07.08-.11.12.34.44.67.89,1.03,1.31.07.08.25.06.38.08Z" fill="#010101"/>
  <path d="m8.65,42.17s.03.03.05.04h0s.05.03.08.05c-.03-.02-.05-.04-.08-.06-.02,0-.03-.02-.05-.03Z" fill="#010101"/>
  <path d="m8.65,42.17c-.89-.79-1.75-1.63-3.1-1.81,1.08.63,2.09,1.22,3.1,1.81Z" fill="#010101"/>
  <path d="m58.74,89.96c-.03-.61-.45-.6-.88-.68.5.6.97,1.16,1.44,1.73.06-.05.12-.1.19-.15-.1-.17-.18-.35-.3-.49-.13-.15-.43-.26-.43-.41Z" fill="#010101"/>
  <path d="m143.35,113.4c.14.23.29.67.43.66.53-.04.54.35.69.65.06.12.14.23.21.35-.01-.91-.53-1.4-1.34-1.65Z" fill="#010101"/>
  <path d="m163.29,193.02c.32.42.59.78.87,1.16.11-.21.19-.37.29-.56-.43-.04-.38-.98-1.16-.6Z" fill="#010101"/>
  <path d="m17.73,10.69c.48.54.93,1.05,1.38,1.56-.35-1-.94-1.59-1.38-1.56Z" fill="#010101"/>
  <path d="m25.2,66.93c-.18-.79-.49-1.05-1.14-1.14l-.11.13c.42.34.83.67,1.25,1.01Z" fill="#010101"/>
  <path d="m67.65,31.69c.5.5.97.97,1.5,1.5-.11-.77-.95-1.6-1.5-1.5Z" fill="#010101"/>
  <path d="m50.18,13.04c.54.69,1.03,1.32,1.56,1.99-.39-1.06-1-1.87-1.56-1.99Z" fill="#010101"/>
  <path d="m47.81,88.32c.41.45.79.87,1.18,1.3-.06-.82-.57-1.4-1.18-1.3Z" fill="#010101"/>
  <path d="m41.69,9.45c.55.55,1.1,1.1,1.65,1.65.03-.03.06-.06.09-.09-.55-.55-1.1-1.1-1.65-1.65-.03.03-.06.06-.09.09Z" fill="#010101"/>
  <path d="m181.98,184.26c.15.32.31.63.46.95.01-.11.03-.22.04-.33.19.1.38.2.57.31.01-.02.03-.05.04-.08-.32-.32-.63-.63-.95-.95-.06.03-.11.06-.17.09Z" fill="#010101"/>
  <path d="m40.62,3.81c-.65-.52-1.29-1.05-1.94-1.57-.04.05-.08.09-.11.14.64.53,1.27,1.05,1.91,1.58.05-.05.1-.1.14-.15Z" fill="#010101"/>
  <path d="m80.89,46.1c-.37-.43-.74-.86-1.2-1.4-.07,1.03.83.96,1.2,1.4Z" fill="#010101"/>
  <path d="m115.61,152.79c.55.42,1.11.85,1.66,1.27.05-.06.1-.13.15-.19-.57-.4-1.14-.81-1.71-1.21-.04.04-.07.09-.11.13Z" fill="#010101"/>
  <path d="m21.15,12.74c-.47-.59-.94-1.18-1.41-1.77-.06.05-.11.1-.17.16.49.57.98,1.14,1.48,1.71.03-.03.07-.06.1-.09Z" fill="#010101"/>
  <path d="m23.27,8.2c-.41-.41-.83-.83-1.24-1.24-.05.05-.09.09-.14.14.42.42.83.83,1.25,1.25.04-.05.09-.1.13-.15Z" fill="#010101"/>
  <path d="m87.6,52.26c-.45-.32-.91-.64-1.36-.96-.04.05-.08.1-.12.15.44.34.89.67,1.33,1.01l.15-.2Z" fill="#010101"/>
  <path d="m51.35,81.08c.02.16.13.29.25.55q.17-1.02-.2-1.11c-.02.22-.07.4-.05.56Z" fill="#010101"/>
  <path d="m8.93,25.77c-.33-.43-.65-.85-.98-1.27-.1-.13-.23-.24-.35-.35,0,.02-.02.03-.02.05.41.56.81,1.12,1.22,1.69.05-.04.09-.07.14-.11Z" fill="#010101"/>
  <path d="m135.94,104.94c.45.88.85,1.2,1.26,1.07-.44-.38-.85-.72-1.26-1.07Z" fill="#010101"/>
  <path d="m14.93,15.19c-.28-.39-.55-.77-.83-1.16-.07.05-.14.1-.21.16.28.38.56.76.84,1.14.06-.05.12-.09.19-.14Z" fill="#010101"/>
  <path d="m39.18,78.46c.22.39.43.77.64,1.15-.24-1.36-.28-1.41-.64-1.15Z" fill="#010101"/>
  <path d="m117.97,155.72c.45.38.9.76,1.35,1.15.04-.05.09-.1.13-.15-.44-.39-.88-.78-1.33-1.17-.05.06-.1.11-.15.17Z" fill="#010101"/>
  <path d="m30.99,5.24l-1.5-1.5s-.06.06-.09.09c.5.5,1,1,1.5,1.5.03-.03.06-.06.09-.09Z" fill="#010101"/>
  <path d="m41.25,80.83c-.25-.36-.5-.73-.75-1.09-.08.06-.17.13-.25.19.28.34.56.67.84,1.01.05-.04.1-.08.15-.12Z" fill="#010101"/>
  <path d="m147.33,114.99c-.08.07-.16.14-.24.21.27.3.54.6.81.9.07-.06.13-.12.2-.18-.26-.31-.52-.62-.77-.93Z" fill="#010101"/>
  <path d="m84.14,48.32c.16-.11.28-.2.43-.3-.09-.17-.16-.31-.28-.53-.22.51-.6.91.08,1.3-.1-.2-.16-.33-.22-.47Z" fill="#010101"/>
  <path d="m153.73,121.98c.07.22.09.49.23.63.09.09.36,0,.56-.02-.2-.24-.4-.48-.6-.71-.06.03-.13.07-.19.11Z" fill="#010101"/>
  <path d="m154.53,122.6s0-.02,0-.02c0,0-.01,0-.02,0,0,0,.01.01.02.02Z" fill="#010101"/>
  <path d="m51.63,88.61c.19.33.38.66.57.99,0-.94-.15-1.19-.57-.99Z" fill="#010101"/>
  <path d="m6.15,23.05c-.26-.37-.53-.75-.79-1.12-.06.05-.13.1-.19.15.28.36.56.72.84,1.09.05-.04.1-.07.15-.11Z" fill="#010101"/>
  <path d="m50.42,90.92c.2.34.4.68.6,1.02l.12-.11c-.15-.35-.3-.71-.45-1.06-.09.05-.18.1-.27.15Z" fill="#010101"/>
  <path d="m98.7,132.94c-.08.06-.15.12-.23.18l.52.69c.09-.06.17-.13.26-.19-.18-.22-.37-.45-.55-.67Z" fill="#010101"/>
  <path d="m94.51,59.77c-.4-.34-.81-.68-1.21-1.01-.03.04-.07.07-.1.11.4.34.8.69,1.2,1.03.04-.04.08-.09.12-.13Z" fill="#010101"/>
  <path d="m27.59,12.32c-.25-.25-.5-.5-.75-.75-.03.03-.07.07-.1.1.25.25.5.5.75.75.04-.03.07-.06.11-.09Z" fill="#010101"/>
  <path d="m33.96,8.25c-.03.07-.07.14-.1.2.32.14.64.29.96.43l.13-.29c-.33-.12-.66-.24-.99-.35Z" fill="#010101"/>
  <path d="m86.6,53.86c.32.32.64.64.95.95.03-.03.07-.07.1-.1-.32-.32-.64-.64-.95-.95-.04.03-.07.07-.11.1Z" fill="#010101"/>
  <path d="m96.3,131.07c.33.29.67.58,1,.87l.13-.15c-.34-.28-.67-.57-1.01-.85-.04.05-.08.09-.12.14Z" fill="#010101"/>
  <path d="m143.31,112.91c-.34-.3-.67-.6-1.01-.9-.03.04-.07.08-.1.11.32.32.64.64.96.96.05-.06.1-.11.15-.17Z" fill="#010101"/>
  <path d="m10.46,17.37c-.24-.32-.48-.64-.72-.96-.07.06-.14.12-.21.18.26.31.52.61.78.92.05-.05.1-.09.16-.13Z" fill="#010101"/>
  <path d="m7.53,27.33c-.23-.43-.46-.86-.69-1.28-.06.03-.12.07-.18.11.22.43.45.86.67,1.29.06-.04.13-.07.19-.11Z" fill="#010101"/>
  <polygon points="182.2 22.05 182.19 22.05 182.19 22.05 182.2 22.05" fill="#010101"/>
  <path d="m156.25,6.31s-.03.05-.05.07l.06-.08h-.02Z" fill="#010101"/>
  <path d="m193.81,36.81c.14-.35.23-.74.43-1.06.31-.49.7-.92,1.02-1.4.08-.12.06-.32.1-.57-.24.14-.38.22-.52.3-.02-.02-.04-.04-.06-.06.33-.52.65-1.04.98-1.57-.02-.02-.05-.03-.07-.05-.39.43-.78.86-1.17,1.29l-.21-.16c.36-.62.73-1.23,1.18-2-.17.15-.24.19-.29.25-1.61,1.85-3.24,3.67-4.26,5.98-.42.96-1.15,1.76-1.74,2.63-.06.09-.1.19-.22.44.33-.21.51-.33.75-.48-.06.29-.11.48-.15.68l.13.15c.27-.16.6-.26.8-.48,1.07-1.18,2.11-2.39,3.16-3.6.07-.08.08-.2.12-.3Z" fill="#010101"/>
  <path d="m102.02,62.33c-.47.39-.91.7-1.29,1.07-.71.69-1.42,1.38-2.07,2.12-.34.39-.55.88-.82,1.33.05.03.09.07.14.1.51-.25,1.01-.5,1.58-.78.26-.78.83-1.37,1.8-1.54.57-.03,1.14-.02,1.51-.58.3-.45.66-.87,1.06-1.24.51-.48,1.08-.9,1.61-1.36.08-.07.11-.19.22-.37-.52.18-.93.32-1.48.51.51-.67.93-1.24,1.37-1.8.11-.14.25-.25.37-.38,0,0-.13-.17-.14-.16-.18.1-.36.19-.51.32-.11.1-.18.24-.25.37-.16.32-.31.64-.48,1-.19-.19-.28-.28-.37-.37-.09.1-.21.19-.27.32-.17.36-.32.73-.47,1.1-.05-.02-.1-.05-.15-.07.06-.23.12-.47.18-.7-.05-.03-.1-.07-.14-.1-.34.24-.68.48-.87.62-.01.37-.02.57-.03.79.13-.05.25-.1.37-.15.01.02.03.05.04.07-.55.48-1.1.97-1.65,1.45-.04-.04-.07-.08-.11-.11.3-.3.6-.6.93-.93-.02-.12-.05-.29-.09-.52Z" fill="#010101"/>
  <path d="m139.43,18.5c.72-.66,1.46-1.3,2.13-2.02.42-.45,1.13-.71,1.41-.43.86-.68,1.72-1.35,2.57-2.02-.03-.03-.06-.06-.08-.09-.47.3-.94.6-1.42.89-.04-.05-.08-.11-.12-.16,2.34-2.15,4.85-4.1,7.48-5.91-2.41,1.49-4.76,3.08-6.94,4.9-.05-.06-.1-.13-.15-.19.34-.3.67-.6,1.01-.9-.04-.05-.08-.09-.12-.14-1.73,1.35-3.45,2.7-5.18,4.05.03.07.07.14.1.21.29-.06.57-.12.93-.19-.7.7-1.35,1.35-2,2,.17.05.3.04.38-.02Z" fill="#010101"/>
  <path d="m50.8,108.97c.81-.53,1.52-.99,2.23-1.47.09-.06.16-.18.17-.28.09-.63.66-.66,1.15-.98-.06.23-.09.35-.13.52.77-.77,1.63-1.38,2.15-2.22.5-.82.96-1.67,1.57-2.42-.39.33-.79.66-1.18.99-.05-.05-.09-.1-.14-.14l1.61-1.61s-.07-.08-.1-.11c-.09.07-.19.13-.26.21-1.25,1.43-2.49,2.87-3.74,4.3-.32.37-.63.75-.99,1.06-.64.54-1.32,1.02-1.97,1.55-.16.13-.22.36-.36.6Z" fill="#010101"/>
  <path d="m133.01,91.7c.14-1.23,1.36-1.48,1.95-2.3.22-.31.54-.56.88-.9-.45-.04-.81.55-1.12-.19-.16.24-.27.42-.4.57-.25.3-.48.64-.79.86-.41.28-.73.53-.76,1.11-.02.44-.17.89-.36,1.27-.13.26-.45.41-.71.64.49.09,1.25-.49,1.31-1.07Z" fill="#010101"/>
  <path d="m84.92,141.93c-1.28,1.18-2.57,2.37-3.85,3.55-.02-.02-.05-.05-.08-.07.06-.18.12-.35.18-.53-.04-.03-.09-.06-.13-.09-.26.32-.52.65-.77.96.1,0,.21.01.48.03-.55.5-1,.91-1.45,1.32l.16.17c1.88-1.71,3.77-3.42,5.65-5.13-.07-.07-.13-.14-.2-.21Z" fill="#010101"/>
  <path d="m53.75,187.03c-.51.38-.59.86-.6,1.48.29-.08.54-.21.71-.41.31-.36.58-.76.85-1.16.19-.28.37-.57.54-.84-.29-.13-.45-.21-.61-.28-.27.39-.5.91-.89,1.21Z" fill="#010101"/>
  <path d="m24.35,190.92c-.09-.17-.16-.29-.2-.36-.72.94-1.42,1.87-2.13,2.81.73-.18,3.15-2.65,3.19-3.3l-.86.86Z" fill="#010101"/>
  <path d="m59.22,100.03s.06.06.1.09l.56-.56c-.1.41-.16.64-.24.97.28-.37.51-.67.74-.96l.13.09c-.05.18-.11.37-.16.55.05.03.1.06.15.08.37-.67.74-1.35,1.11-2.02-.01-.02-.03-.04-.04-.06-.43.37-.86.74-1.3,1.11-.03-.03-.06-.07-.1-.1.1-.14.2-.27.34-.47l-1.28,1.28Z" fill="#010101"/>
  <path d="m134.09,18.16c-.06-.05-.11-.1-.17-.15-1.52,1.64-3.04,3.28-4.56,4.92.04.04.08.08.13.12,1.53-1.63,3.07-3.26,4.6-4.89Z" fill="#010101"/>
  <path d="m7.96,147.5c-.47.41-.52,1-.13,1.5.57-.95,1.14-1.88,1.65-2.73-.46.37-1,.78-1.52,1.23Z" fill="#010101"/>
  <path d="m99.64,67.16s-.01,0-.02,0h0s0,.01-.01.02c0,0,0,0,.01,0,0-.01.01-.02.02-.03Z" fill="#010101"/>
  <path d="m101.58,65.48c.15-.15.26-.33.46-.58-.25.01-.4-.03-.47.03-.79.62-1.67,1.16-1.94,2.24.14-.06.3-.1.41-.2.52-.48,1.03-.98,1.53-1.48Z" fill="#010101"/>
  <path d="m96.9,64.12s.06.04.09.06c.09-.07.18-.14.27-.21.45.41.91.81,1.36,1.22.01-.01.02-.02.04-.03-.43-.43-.85-.85-1.28-1.28.58-.45,1.16-.9,1.72-1.34-.1.06-.23.14-.48.3.24-.5.41-.86.57-1.21-.39.31-.79.61-1.03.8-.37.49-.65.88-.95,1.28-.11-.11-.22-.22-.33-.33-.04.05-.09.1-.13.14.12.11.24.21.36.32-.06.09-.14.19-.21.28Z" fill="#010101"/>
  <path d="m87.56,139.5c.71-.54,1.55-1.13,2.34-1.79.33-.27.55-.66.8-1.01.05-.08,0-.22,0-.34-1.11,1.11-2.18,2.18-3.15,3.15Z" fill="#010101"/>
  <polygon points="182.2 22.05 182.19 22.05 182.2 22.05 182.2 22.05" fill="#010101"/>
  <path d="m184.44,20.17c-.16.06-.33.12-.5.19.02-.13.03-.23.05-.38-.47.15-.91.23-.92.81.18-.07.35-.13.62-.23-.56.56-1.02,1.02-1.49,1.49.79-.57,1.57-1.14,2.36-1.71-.04-.06-.08-.12-.12-.17Z" fill="#010101"/>
  <path d="m196.3,20.18c-.79.79-1.57,1.57-2.36,2.36.05.06.1.11.15.17.79-.79,1.81-1.36,2.2-2.53Z" fill="#010101"/>
  <path d="m6.3,158.79c-.64.28-1.14.49-1.63.71l.05.18c.45.09.9.18,1.44.29.05-.4.08-.72.13-1.18Z" fill="#010101"/>
  <path d="m106.9,58.89c.13,0,.27-.01.56-.02-.15.38-.25.64-.34.88.26-.16.67-.26.75-.5.07-.19-.27-.54-.45-.88.17-.32.37-.71.57-1.09-.55.24-1.28,1.29-1.09,1.62Z" fill="#010101"/>
  <path d="m130.89,23.06c-.82.74-1.54,1.39-2.26,2.03.92-.21,2.08-1.29,2.26-2.03Z" fill="#010101"/>
  <path d="m178.21,8.45c.78-.63,1.52-1.22,2.26-1.82-1.47.54-2.32,1.26-2.26,1.82Z" fill="#010101"/>
  <path d="m37.08,120.8c-.13-.62.42-.79.68-1.14.22-.3.52-.54.79-.8-.04-.03-.08-.07-.11-.1-.67.67-1.34,1.34-2.01,2.01.04.07.07.13.11.2.19-.06.56-.14.55-.17Z" fill="#010101"/>
  <path d="m133.4,21.75c.24-.31.49-.63.73-.94.07-.09.19-.28.23-.26.74.31.76-.35,1.07-.62-.05-.06-.1-.13-.15-.19-.72.57-1.43,1.14-2.15,1.71.09.1.18.2.26.3Z" fill="#010101"/>
  <path d="m178.29,13.3s.09.08.14.12c.71-.58,1.41-1.15,2.12-1.73-.04-.04-.08-.09-.12-.13-.85.43-1.55,1.02-2.13,1.74Z" fill="#010101"/>
  <path d="m54.08,104.54s-.09-.07-.13-.1c-.68.92-1.37,1.83-2.05,2.75.06.04.12.09.18.13.67-.93,1.33-1.85,2-2.78Z" fill="#010101"/>
  <path d="m134.55,17.47c.84-.84,1.64-1.64,2.43-2.43-.46.05-2.26,1.8-2.43,2.43Z" fill="#010101"/>
  <path d="m170.84,3.25c-.64-.04-1.37-.41-1.59.62.27-.09.48-.24.6-.19.55.27.66-.21.98-.43Z" fill="#010101"/>
  <path d="m183.5,14.18c.46-.32.93-.61,1.37-.95.43-.33.83-.7,1.24-1.05-.01-.02-.03-.03-.05-.05-.89.64-1.78,1.28-2.67,1.92.04.04.08.09.11.13Z" fill="#010101"/>
  <path d="m156.29,6.25c.79-.89,1.63-1.75,1.81-3.1-.63,1.08-1.22,2.09-1.81,3.1Z" fill="#010101"/>
  <path d="m156.25,6.31s.01,0,.01,0c0-.02.02-.03.03-.05-.01.02-.03.03-.04.05Z" fill="#010101"/>
  <path d="m108.5,56.35c.61-.03.6-.45.68-.88-.6.5-1.16.97-1.73,1.44.05.06.1.12.15.19.17-.1.35-.18.49-.31.15-.13.26-.43.41-.43Z" fill="#010101"/>
  <path d="m84.4,141.4c.04.53-.35.54-.65.69-.12.06-.23.14-.35.21.91-.01,1.4-.53,1.65-1.34-.23.14-.67.29-.66.43Z" fill="#010101"/>
  <path d="m4.85,162.06c.04-.43.98-.38.6-1.16-.42.32-.78.59-1.16.87.21.11.37.19.56.29Z" fill="#010101"/>
  <path d="m186.21,16.71c1-.35,1.59-.94,1.56-1.38-.54.48-1.05.93-1.56,1.38Z" fill="#010101"/>
  <path d="m132.67,21.67l-.13-.11c-.34.42-.67.83-1.01,1.25.79-.18,1.05-.49,1.14-1.14Z" fill="#010101"/>
  <path d="m165.27,66.77c.77-.11,1.6-.95,1.5-1.5-.5.5-.97.97-1.5,1.5Z" fill="#010101"/>
  <path d="m185.42,47.79c-.69.54-1.32,1.03-1.99,1.56,1.06-.39,1.87-1,1.99-1.56Z" fill="#010101"/>
  <path d="m110.13,45.42c-.45.41-.87.79-1.3,1.18.82-.06,1.4-.57,1.3-1.18Z" fill="#010101"/>
  <path d="m189.01,39.3l-1.65,1.65s.06.06.09.09c.55-.55,1.1-1.1,1.65-1.65-.03-.03-.06-.06-.09-.09Z" fill="#010101"/>
  <path d="m13.25,180.05c.11.01.22.03.33.04-.1.19-.21.38-.31.57.02.01.05.03.08.04.32-.32.63-.63.95-.95-.03-.06-.06-.11-.09-.17-.32.15-.63.31-.95.46Z" fill="#010101"/>
  <path d="m196.22,36.29s-.09-.08-.14-.11c-.53.64-1.05,1.27-1.58,1.91.05.05.1.1.15.14.52-.65,1.05-1.29,1.57-1.94Z" fill="#010101"/>
  <path d="m153.77,77.3c-1.03-.07-.96.83-1.4,1.2.43-.37.86-.74,1.4-1.2Z" fill="#010101"/>
  <path d="m45.67,113.21l-1.27,1.66c.06.05.12.1.19.15.4-.57.81-1.14,1.21-1.71-.04-.04-.09-.07-.13-.11Z" fill="#010101"/>
  <path d="m187.33,17.18c-.57.49-1.14.98-1.71,1.48.03.03.06.07.09.1.59-.47,1.18-.94,1.77-1.41-.05-.06-.1-.11-.16-.17Z" fill="#010101"/>
  <path d="m191.49,19.64s-.09-.09-.14-.14c-.42.42-.83.83-1.25,1.25.05.04.1.09.15.13.41-.41.83-.83,1.24-1.24Z" fill="#010101"/>
  <path d="m146,85.06c.07.05.13.1.2.15.32-.45.64-.91.96-1.36-.05-.04-.1-.08-.15-.12-.34.44-.67.89-1.01,1.33Z" fill="#010101"/>
  <path d="m133.3,96.27c.59-.59,1.19-1.19,1.78-1.78-.05-.04-.1-.09-.14-.13-.56.62-1.11,1.25-1.67,1.87.01.01.02.02.03.04Z" fill="#010101"/>
  <path d="m117.37,48.96c-.15.02-.29.13-.55.25q1.02.17,1.1-.2c-.22-.02-.4-.07-.56-.05Z" fill="#010101"/>
  <path d="m94.94,69.36c.17.31.35.62.53.94q.39-.27-.39-1s-.09.04-.14.06Z" fill="#010101"/>
  <path d="m172.69,6.54c.43-.33.85-.65,1.27-.98.13-.1.24-.23.35-.35-.02,0-.03-.02-.05-.02-.56.41-1.12.81-1.69,1.22.04.05.07.09.11.14Z" fill="#010101"/>
  <path d="m184.43,11.71c-.05-.07-.1-.14-.16-.21-.38.28-.76.56-1.14.84.05.06.09.12.14.19.39-.27.77-.55,1.16-.83Z" fill="#010101"/>
  <path d="m120,36.79c-.39.22-.77.43-1.15.64,1.36-.24,1.41-.28,1.15-.64Z" fill="#010101"/>
  <path d="m42.74,115.58c-.38.45-.76.9-1.15,1.35.05.04.1.09.15.13.39-.44.78-.88,1.17-1.33-.06-.05-.11-.1-.17-.15Z" fill="#010101"/>
  <path d="m194.72,27.1s-.06-.06-.09-.09c-.5.5-1,1-1.5,1.5.03.03.06.06.09.09.5-.5,1-1,1.5-1.5Z" fill="#010101"/>
  <path d="m118.72,38.11c-.06-.08-.13-.17-.19-.25-.34.28-.67.56-1.01.84.04.05.08.1.12.15.36-.25.72-.5,1.09-.75Z" fill="#010101"/>
  <path d="m82.54,145.72l.93-.77c-.07-.08-.14-.16-.21-.23-.3.27-.6.54-.9.81.06.07.12.13.18.2Z" fill="#010101"/>
  <path d="m150.14,81.75c.11.16.2.28.3.43.17-.09.31-.16.53-.28-.51-.22-.91-.6-1.3.08.2-.1.33-.16.47-.22Z" fill="#010101"/>
  <path d="m44.36,201.16c.07.15.14.3.22.45.05,0,.09.01.14.02.08-.33.16-.67.24-1.01-.04-.02-.08-.03-.11-.05-.16.19-.32.38-.49.58Z" fill="#010101"/>
  <path d="m76.48,151.34c-.22.07-.49.09-.63.23-.09.09,0,.36.02.56.24-.2.48-.4.71-.6-.03-.06-.07-.13-.11-.19Z" fill="#010101"/>
  <path d="m75.87,152.13s-.01.01-.02.02h0s0,.02,0,.03c0-.01.02-.02.02-.03,0,0,0,0,0-.02Z" fill="#010101"/>
  <path d="m109.85,49.24c-.33.19-.66.38-.99.57.94,0,1.19-.15.99-.57Z" fill="#010101"/>
  <path d="m176.53,2.97c-.05-.07-.1-.13-.15-.19-.36.28-.72.56-1.09.84.04.05.07.1.11.15.37-.26.75-.53,1.12-.79Z" fill="#010101"/>
  <path d="m107.69,48.3c-.05-.09-.1-.18-.15-.27-.34.2-.68.4-1.02.6l.11.12c.35-.15.71-.3,1.06-.45Z" fill="#010101"/>
  <path d="m139.6,90.81c-.34.4-.69.8-1.03,1.2.04.04.09.08.13.12.34-.4.68-.81,1.01-1.21-.04-.03-.07-.07-.11-.1Z" fill="#010101"/>
  <path d="m186.14,25.2c.25-.25.5-.5.75-.75-.03-.03-.07-.07-.1-.1-.25.25-.5.5-.75.75.03.04.06.07.09.11Z" fill="#010101"/>
  <path d="m189.85,32.56c.12-.33.24-.66.35-.99-.07-.03-.14-.07-.2-.1-.14.32-.29.64-.43.96.1.04.19.09.29.13Z" fill="#010101"/>
  <path d="m143.75,85.27l.95-.95-.1-.1c-.32.32-.64.64-.95.95.03.03.07.07.1.1Z" fill="#010101"/>
  <path d="m85.55,140.92c.3-.34.6-.67.9-1.01-.04-.03-.08-.06-.11-.1-.32.32-.64.64-.96.96.06.05.11.1.17.15Z" fill="#010101"/>
  <path d="m182.05,7.35c-.06-.07-.12-.14-.18-.21-.31.26-.61.52-.92.78.05.05.09.1.14.16.32-.24.64-.48.96-.72Z" fill="#010101"/>
  <path d="m172.42,4.45c-.04-.06-.07-.12-.11-.18-.43.22-.86.45-1.29.67.04.06.07.13.11.19.43-.23.86-.46,1.28-.69Z" fill="#010101"/>
</svg>