<?xml version="1.0" encoding="utf-8"?>
<!-- Generator: Adobe Illustrator 27.1.1, SVG Export Plug-In . SVG Version: 6.00 Build 0)  -->
<svg version="1.1" id="Layer_1" xmlns="http://www.w3.org/2000/svg" xmlns:xlink="http://www.w3.org/1999/xlink" x="0px" y="0px"
	 viewBox="0 0 33.71 36.06" style="enable-background:new 0 0 33.71 36.06;" xml:space="preserve">
<style type="text/css">
	.st0{fill:#FFFFFF;}
	.st1{fill:#FFD400;}
	.st2{fill:#010101;}
	.st3{fill:none;}
	.st4{fill:#FED519;}
	.st5{fill:#FDFEFE;}
	.st6{fill:#FED419;}
</style>
<g>
	<g>
		<circle class="st0" cx="16.66" cy="17.84" r="16.36"/>
		<g>
			<path d="M25.7,2.97C25.67,2.94,25.64,2.93,25.7,2.97L25.7,2.97z"/>
			<path d="M25.91,33.49c-0.01,0.01-0.02,0.01-0.03,0.02c0,0.05,0,0.1-0.01,0.13L25.91,33.49z"/>
			<path d="M20.29,35.55c-0.02,0-0.02,0-0.04,0C20.26,35.57,20.26,35.6,20.29,35.55z"/>
			<path d="M33.21,22.47c0.01-0.05,0.01-0.08,0.01-0.1C33.22,22.41,33.21,22.45,33.21,22.47z"/>
			<path d="M15.58,0.28c0,0,0.01,0,0.03-0.01c-0.02-0.01-0.04-0.01-0.06-0.02L15.58,0.28z"/>
			<path d="M15.7,0.2c0.13,0.02-0.03,0.06-0.09,0.07c0.14,0.04,0.29,0.04,0.43,0C16.03,0.21,15.76,0.24,15.7,0.2z"/>
			<path d="M1.53,11.31l0.02-0.05C1.54,11.28,1.54,11.29,1.53,11.31z"/>
			<path d="M31.25,22.44c0.01-0.03,0.01-0.05,0.02-0.07C31.26,22.41,31.25,22.43,31.25,22.44z"/>
			<path d="M2.81,8.74l0-0.04C2.8,8.73,2.81,8.74,2.81,8.74z"/>
			<path d="M25.87,33.64l-0.02,0.06C25.86,33.68,25.86,33.66,25.87,33.64z"/>
			<path d="M14.78,35.82c0-0.04-0.01-0.07-0.02-0.09c-0.01,0-0.02,0-0.02,0L14.78,35.82z"/>
			<path d="M0.37,16.57c0,0,0,0.01-0.01,0.01l0.01,0.1C0.37,16.66,0.37,16.62,0.37,16.57z"/>
			<path d="M7.9,32.99C7.89,33,7.86,33,7.86,33.01C7.95,33.1,8.22,33.3,8.6,33.5l0.09-0.11C8.41,33.27,8.16,33.12,7.9,32.99z"/>
			<path d="M4.28,26.08c0.08,0.22,0.19,0.41,0.28,0.62c-0.77-0.78-1.22-1.45-1.62-2.11c-0.43-0.65-0.76-1.3-1.21-2.16l0.06,0.09
				c-0.04-0.13-0.14-0.22-0.32-0.65c-0.19-0.43-0.46-1.22-0.64-2.78l0.01,0c-0.02-0.11-0.03-0.11-0.05-0.32l0.05,0.54
				c-0.07-0.32-0.14-0.6-0.2-1.04c-0.01-0.09,0.01-0.12,0.01-0.13L0.6,17.06l0.02-0.33c-0.01-0.33-0.06-0.18,0.05-1.06
				c-0.07,0.33,0.02-0.44,0-0.33c0.01-0.06,0.02-0.14,0.04-0.22c0.08-0.52,0.31-1.49,0.35-1.74c0,0-0.53,2-0.57,2.57
				c0.1-0.74,0.02-0.2-0.01-0.05l0,0.05c-0.06,0.44-0.09,0.44-0.12,0.66c0,0,0-0.01,0.01-0.01l0-0.03c0.01-0.02,0.01-0.01,0.01,0.02
				c0.01-0.01,0,0.02,0,0.14l0-0.02c-0.01,0.22-0.01,0.5-0.02,0.65l-0.02,0c0,0.33-0.04,2.24,0.02,2.69c0.02,0.45,0.15,1,0.24,1.56
				c0.2,0.88,0.03,0.46,0.09,0.92c0.09,0.57,0.04-0.13,0.09,0.09c0.02,0.23,0.05,0.46,0.1,0.69c-0.13-0.38-0.1-0.16-0.1-0.08
				c0.18,0.56,0.3,1.54,0.55,1.64c0.25,0.78,0.18,0.82,0.31,1.15c-0.02-0.12-0.08-0.35-0.05-0.37c0.06,0.34,0.08,0.14,0.04,0
				c0.23,0.42,0.9,2.5,1.17,2.45l-0.03,0.03c0.2-0.01,0.23-0.26,0.51-0.03l0.07,0.24l0.26,0.24c0.09,0.23-0.01,0.17-0.03,0.18
				c0.43,0.38,0.85,1.07,1.33,1.58c-0.06-0.3-0.09-0.61-0.12-0.91c0.27,0.52,0.9,1.39,1.1,1.34l0.14,0.38
				c0.71,1.01,0.75,0.36,1.05,0.73c0.11,0.18,0.23,0.36,0.36,0.52c-0.17-0.1-0.33-0.22-0.48-0.34c0.4,0.46,0.59,0.6,0.92,0.99
				l0.01,0c-0.02-0.03-0.04-0.05-0.03-0.06l0.07,0.04c0.12-0.06,0.42,0.04,0.78,0.25c0.53,0.27,0.99,0.36,1.79,0.93l0.31-0.14
				l0.63,0.37l-0.06,0.18c-0.33-0.11-0.81-0.28-1.32-0.45c-0.49-0.22-1.01-0.45-1.42-0.63l-0.05,0.07c0.49,0.24,1.08,0.43,1.4,0.6
				c0.14,0.12,0.5,0.44,0.14,0.45l0.38-0.06c0.86,0.29,1.29,0.46,1.75,0.57c0.46,0.11,0.89,0.35,1.84,0.56l-0.15-0.12
				c0.39-0.01,0.77-0.01,0.85,0.15c1.14,0.15,2.34,0.27,3.12,0.42l0.15-0.24c0.24-0.01,0.65,0.29,0.74-0.03
				c0.17-0.05,0.34-0.12,0.5-0.19c0.33-0.05,0.51-0.21,0.91-0.16l0,0l0,0c0.02,0,0.05,0.01,0.08,0.01c0-0.01-0.01-0.02-0.01-0.02
				c0.76-0.06-0.04-0.17,0.81-0.28c0.3,0.07,0.22-0.35,0.63-0.42L22.18,35c0.76-0.13,0.8-0.44,1.79-0.89
				c0.51-0.15,0.85-0.05,0.63,0.31c0.32-0.47,0.12-0.26,0.63-0.68c0.14,0.05,0.09,0.1,0.01,0.25c0.57-0.16,0.26-0.27,0.63-0.49
				c0-0.24-0.04-0.59,0.07-0.68l-0.17,0.04c0.31-0.34,0.71-0.61,1.16-0.87l0.04,0.09l0.4-0.38l0.1,0.08
				c0.19-0.18,0.4-0.34,0.58-0.53l-0.1,0.05c0.12-0.14,0.53-0.59,0.82-0.79l0.04,0.06c0.43-0.26,0.71-0.62,0.97-1.01
				c0.26-0.39,0.53-0.8,0.82-1.29l0.02,0.2c0.31-0.25-0.09-0.2,0.21-0.55l0.13,0.07c0.06-0.46,0.33-0.41,0.52-0.63l-0.22,0.01
				l0.28-0.45c0.32-0.49,0.36-0.2,0.4-0.08L32,26.43l0.17,0.01c-0.03-0.35,0.17-0.24,0.26-0.77c0.07-0.01,0.05,0.12,0.13-0.03
				l0.11-0.87l-0.1,0.51l-0.17-0.15c0.04-0.55,0.29-0.64,0.34-1.02c-0.01,0.09,0,0.18-0.02,0.27c0.13-0.6,0.21-0.6,0.34-0.92
				c-0.06,0.09-0.15,0.23-0.11-0.01c0.04-0.18,0.09-0.07,0.15-0.23c-0.12-0.08-0.03-0.5,0.08-0.88c0.02,0.01,0.03,0.02,0.03,0.05
				c0-0.1-0.02-0.16,0.04-0.33l0.11,0.13l-0.06-0.36c0.07-0.21,0.04-0.55,0.11-0.5l0,0.13c0.13-0.55,0.15-1.11,0.2-1.67l0.09-0.01
				c-0.09-0.18,0.09-0.91-0.06-0.87c0.07-0.31-0.07-1.24,0.07-1.06c0.01-0.55-0.12-0.97-0.17-1.42c-0.05-0.45-0.15-0.92-0.26-1.57
				c0.04-0.49-0.35-1.74-0.61-2.54c-0.6-1.56-1.11-2.51-1.99-3.96c-0.21-0.48-0.59-1-0.97-1.52c-0.44-0.48-0.86-0.99-1.21-1.44
				l-0.27-0.16c-0.4-0.67-1.36-1.28-2.11-2.07C25.87,3.06,25.75,3,25.7,2.97c0.04,0.03,0.09,0.09,0.07,0.17
				c-0.22-0.21-0.76-0.5-0.65-0.61l0.07,0.03c0.06-0.05-0.14-0.17-0.39-0.31c-0.25-0.12-0.55-0.26-0.67-0.4l0.09,0.25l-0.5-0.3
				l0.15,0.04c-0.59-0.23-1.1-0.38-1.56-0.55c-0.46-0.18-0.87-0.37-1.3-0.5c-0.42-0.14-0.85-0.29-1.31-0.39
				c-0.47-0.07-0.99-0.11-1.59-0.08c0.33-0.2-0.47,0.07-0.49-0.16c-0.59-0.33-1.12,0.02-1.59,0.13c0,0.01,0,0.03-0.03,0.05
				l-0.85,0.04c0.48-0.36-0.59,0.32-0.15,0.01c-2.25-0.02-5.02,1.18-7.08,2.6l0.12-0.02C7.58,3.31,7.26,3.55,6.53,4.11
				c-0.4,0.28-0.72,0.78-0.84,0.92C5.38,5.46,4.97,5.71,5.13,5.55C4.75,5.97,4.5,6.45,4,7.02C3.74,7.15,2.89,8.78,2.81,8.74l0,0.01
				c-0.5,0.83-0.88,1.66-1.3,2.62c0,0,0.01-0.03,0.02-0.05c-0.26,0.66-0.4,1.35-0.61,2.02l0.3-0.53c0.22-0.56,0.45-1.12,0.77-1.63
				C2.68,9.7,3.68,8.39,4.84,7.31c0.94-0.87,2.07-1.49,3.18-2.03c1.36-0.66,2.74-1.14,4.14-1.49c1.41-0.32,2.82-0.49,4.25-0.55
				l0.62-0.21c1.65,0.41,3.89,0.33,5.58,1.18l0.1-0.14c0.5,0.17,0.42,0.25,0.53,0.32c2.31,0.8,4.51,2.28,6.13,4.24
				c1.65,1.94,2.55,4.38,2.83,6.66c0.06,0.44,0.11,1.79,0.06,2.14c0.03,1.48-0.23,3.05-0.75,4.43l0-0.06
				c-0.05,0.22-0.14,0.44-0.23,0.65c-0.02,0.02-0.04,0.02-0.04,0c-0.17,0.76-0.84,1.82-1.4,2.56l0.02-0.05
				c-1.53,2.24-3.36,4.09-5.56,5.39c-2.17,1.34-4.75,1.97-7.32,1.86c-1.19-0.25-2.46-0.26-3.76-0.57c-0.66-0.09-1.3-0.34-1.95-0.53
				c-0.62-0.28-1.27-0.53-1.81-0.95c-0.16-0.22-1.48-0.91-2.67-1.86C5.59,27.38,4.46,26.26,4.28,26.08z"/>
			<path d="M0.64,18.13l0,0.02C0.66,18.15,0.65,18.12,0.64,18.13z"/>
			<polygon points="4.91,30.33 4.88,30.3 4.92,30.5 			"/>
			<path d="M0.66,22.88c0.07,0.38,0.11,0.39,0.1,0.33C0.73,23.1,0.7,23.03,0.66,22.88z"/>
			<path d="M0.71,15.11c0.02-0.19,0.01-0.12-0.01-0.01c-0.02,0.2-0.03,0.34-0.03,0.34C0.68,15.35,0.7,15.2,0.71,15.11z"/>
			<path d="M0.47,15.88l0-0.06C0.46,15.94,0.46,15.93,0.47,15.88z"/>
		</g>
	</g>
	<g>
		<g>
			<polygon points="14.79,12.85 14.78,12.85 14.78,12.85 			"/>
			<path d="M14.53,7.48c0.01,0.03,0.01,0.07,0.02,0.1c0.03,0.09,0.01,0.17-0.06,0.22C14.41,7.86,14.41,7.92,14.44,8
				c0.03,0.09,0.06,0.17,0.01,0.25c0.01,0.03,0.03,0.05,0.03,0.08c0,0.16,0,0.32,0,0.48c0,0-0.01,0.01-0.01,0.02
				c-0.03-0.14-0.05-0.28-0.07-0.41c0,0-0.01,0-0.01,0c-0.01,0.03-0.02,0.06-0.02,0.09c-0.05-0.02-0.06-0.08-0.03-0.13
				c0.03-0.04,0.03-0.08,0.01-0.12c-0.03-0.07-0.05-0.14-0.07-0.21c-0.02-0.05-0.03-0.11-0.05-0.16c-0.01-0.02-0.04-0.02-0.06-0.03
				c-0.01,0.01-0.02,0.03-0.02,0.04c0.01,0.08,0.03,0.16,0.04,0.25c0.01,0.05,0,0.09,0,0.14c-0.01,0.13-0.04,0.26-0.01,0.38
				c0.01,0.04,0.04,0.08,0.06,0.11c0.05,0.08,0.04,0.17,0.04,0.25c0,0.02-0.01,0.03-0.02,0.05c-0.01,0-0.01,0-0.02,0
				c0-0.03,0-0.06,0-0.1c-0.01,0-0.01,0-0.02,0c-0.04,0.06,0.03,0.12,0.01,0.19c0.01-0.01,0.03-0.02,0.05-0.04
				c0.04,0.11,0.02,0.22-0.01,0.33c0.01,0,0.02,0,0.02,0c0.01-0.06,0.02-0.11,0.03-0.17c0.01,0,0.01,0,0.02,0
				c0.01,0.03,0.03,0.06,0.04,0.09c0.01,0,0.01,0,0.02,0c0-0.02,0-0.04,0-0.06c0,0,0.01,0,0.01,0c0.01,0.04,0.01,0.08,0.02,0.11
				c0.01-0.03,0-0.06,0-0.09c0-0.09,0.02-0.18,0.01-0.26c-0.01-0.06,0.02-0.04,0.05-0.04c0-0.02,0-0.05,0.01-0.07
				c0.01,0,0.01,0,0.02,0c-0.01,0.13-0.02,0.26-0.03,0.39c0,0,0.01,0,0.01,0c0.02-0.11,0.05-0.23,0.07-0.34c0.01,0,0.01,0,0.02,0
				c-0.01,0.22-0.05,0.44-0.05,0.67c0.01,0,0.01,0,0.02,0c0.01-0.08,0.02-0.17,0.03-0.25c0.01,0,0.01,0,0.02,0
				c0.01,0.03,0.02,0.06,0.02,0.09c0.01,0.08,0.01,0.17,0.02,0.25c0.01,0.12,0.01,0.23,0.02,0.35c0,0.09-0.01,0.19,0,0.28
				c0.03,0.21,0,0.42-0.03,0.63c-0.03,0.22-0.04,0.44-0.02,0.66c0,0.06,0.01,0.11,0.01,0.17c-0.01,0.23-0.01,0.46-0.02,0.7
				c0,0.07,0.01,0.15,0.01,0.22c0,0.05,0.04,0.09,0.03,0.14c-0.01,0.06,0.01,0.12-0.03,0.18c0,0.01,0,0.02,0,0.03
				c0.01,0.04,0.03,0.08,0.03,0.11c0,0.11-0.01,0.22-0.01,0.33c0,0.03-0.01,0.07-0.01,0.1c0,0.02,0.01,0.04,0.01,0.05
				c0.04,0,0.03,0.03,0.03,0.05c0,0.17,0,0.34,0,0.52c0,0.14,0,0.28,0,0.42c0,0.02,0.01,0.05,0.02,0.07c0,0,0.01,0,0.01,0
				c0.01-0.09,0.02-0.18,0.03-0.27c0,0,0.01,0,0.01,0c0,0.05,0.01,0.1,0.01,0.15c0.01,0,0.01,0,0.02,0
				c0.01-0.06,0.02-0.12,0.02-0.17c-0.01-0.07-0.02-0.14-0.01-0.22c0.01-0.07,0.01-0.14,0.01-0.21c0,0,0-0.01-0.01-0.01
				c-0.01,0-0.03,0.01-0.06,0.02c0.03-0.07,0.05-0.13,0-0.18c0-0.18-0.01-0.36-0.01-0.55c0-0.13,0.01-0.26,0.01-0.38
				c0-0.05,0-0.09,0-0.14c0,0,0.01,0,0.01,0c0.01,0.02,0.03,0.04,0.04,0.05c-0.03-0.12,0-0.23,0-0.35c0.01,0,0.01,0,0.02,0
				c0,0.03,0,0.07,0.01,0.1c0,0,0.01,0,0.01,0c0.01-0.02,0.01-0.03,0.02-0.05c0.01,0,0.01,0,0.02,0c0,0.03,0.02,0.06,0.01,0.08
				c-0.03,0.08-0.01,0.16,0,0.23c0,0.1,0.02,0.2,0,0.3c-0.01,0.06,0.01,0.1,0.01,0.16c0.06-0.07,0.03-0.14,0.05-0.21
				c0.01,0.1,0.01,0.2,0.02,0.3c0,0.07,0,0.15,0,0.22c0,0.07,0.03,0.15-0.03,0.2c0.02,0.05,0.04,0.09,0.05,0.13
				c0.01,0.06,0,0.12,0,0.18c0,0.16,0,0.33-0.01,0.49c0,0.16-0.02,0.33-0.02,0.49c0,0.08-0.01,0.16-0.01,0.25
				c0,0.02-0.02,0.04-0.02,0.06c0,0.09,0.01,0.17,0.01,0.26c0,0.05,0,0.1-0.01,0.15c0,0,0.01,0,0.01,0
				c0.01-0.06,0.01-0.12,0.02-0.18c0-0.03,0-0.06,0.02-0.07c0.03-0.03,0.01-0.05,0-0.08c-0.03-0.04,0-0.08,0.01-0.12
				c0.01,0,0.01,0,0.02,0c0.01,0.07,0.03,0.15,0.04,0.23c0.02-0.01,0.02-0.02,0.04-0.03c0.01,0.09,0.01,0.17,0.02,0.24
				c-0.01,0-0.01,0-0.02,0c-0.01-0.06-0.02-0.12-0.02-0.18c-0.01,0-0.01,0-0.02,0c0,0.1,0,0.2,0,0.3c0,0-0.01,0-0.01,0
				c-0.01-0.07-0.01-0.14-0.02-0.2c-0.01,0-0.01,0-0.02,0c0,0.03-0.01,0.06-0.01,0.08c0,0.06,0,0.11,0,0.17c0,0.01,0,0.03,0,0.04
				c0.02,0.04,0.01,0.07-0.04,0.09c0-0.03,0-0.05,0.01-0.08c0.01-0.03,0.01-0.05-0.04-0.06c0,0.06,0,0.12,0,0.18
				c-0.02,0-0.03,0-0.05,0c-0.05,0-0.09,0-0.14,0c0,0,0,0.01,0,0.01c0.01,0,0.01,0.01,0.02,0.01c0,0,0,0.01,0,0.01
				c-0.07,0-0.13,0-0.2,0c0,0.01,0,0.02,0,0.02c0.05,0.02,0.11,0.04,0.17,0.06c0-0.03,0-0.04-0.01-0.05c0.02,0,0.03,0,0.04,0
				c0.05,0,0.11,0,0.16-0.01c0,0.01,0,0.02,0,0.03c-0.01,0-0.02,0-0.03,0c0,0.01,0,0.01,0,0.02c0.01,0,0.02,0,0.03,0
				c0,0.01,0,0.02,0,0.03c-0.03,0.01-0.05,0.02-0.08,0.03c0.04,0.01,0.06,0.01,0.08-0.01c0,0.03,0,0.06,0,0.09c0.01,0,0.01,0,0.02,0
				c0-0.03,0-0.07,0-0.1c0.01,0.04,0.01,0.08,0.01,0.13c-0.01,0-0.03,0-0.04-0.02c0-0.01-0.03,0-0.04,0.01c0,0-0.01,0.02,0,0.02
				c0.01,0.01,0.02,0.01,0.04,0.01c0.01,0,0.03,0,0.05,0c-0.01,0.01-0.02,0.02-0.03,0.02c-0.04,0-0.07-0.01-0.11-0.01
				c-0.07,0.01-0.15,0.02-0.21-0.04c0,0-0.01,0-0.02,0c-0.03,0-0.05,0-0.08,0c-0.1-0.02-0.2-0.05-0.31-0.04
				c-0.04,0-0.08-0.02-0.12-0.02c-0.08,0-0.16,0-0.25,0c-0.07,0-0.13-0.01-0.2-0.01c-0.03,0-0.06,0.02-0.09,0.02
				c-0.09,0-0.18,0-0.27,0.01c-0.1,0-0.2,0.01-0.31,0.01c-0.01,0-0.02-0.01-0.02-0.01c0,0,0-0.01,0-0.01c0.02,0,0.05,0,0.07,0
				c0.04,0,0.08,0,0.06-0.06c0.03-0.01,0.06-0.01,0.08-0.02c0.02,0,0.03-0.01,0.05-0.01c0.04,0.01,0.08,0.01,0.12,0.02
				c0.09,0.02,0.18-0.02,0.27-0.03c0.04-0.01,0.09,0,0.12-0.05c0-0.01,0.02-0.01,0.03-0.02c0,0.03,0,0.06,0,0.06
				c0.03,0.01,0.07,0.01,0.1,0.01c0-0.01,0-0.01,0-0.02c-0.03,0-0.05-0.01-0.08-0.01c0,0,0.01-0.01,0.01-0.01
				c-0.01-0.03-0.02-0.05-0.03-0.08c-0.01,0-0.01,0-0.02,0c-0.01,0.05-0.03,0.04-0.06,0.03c-0.02-0.01-0.04-0.01-0.06-0.02
				c0,0.01,0,0.01,0,0.02c0.02,0,0.03,0.01,0.05,0.01c-0.01,0.02-0.03,0.03-0.04,0.03c-0.04-0.01-0.08-0.04-0.13-0.02
				c-0.01,0-0.02-0.01-0.03-0.01c0,0,0-0.01,0-0.01c0.03,0,0.05-0.01,0.08-0.01c-0.01-0.01-0.01-0.01-0.02-0.02
				c0-0.01,0-0.01,0-0.02c0.07,0,0.14-0.01,0.2-0.01c0.02,0,0.03,0.02,0.05,0.01c0.06-0.01,0.12-0.02,0.18-0.03
				c0.07-0.01,0.15-0.01,0.22-0.02c0.08,0,0.15,0.01,0.23,0c0.07-0.01,0.14-0.01,0.21,0c0.05,0.01,0.11-0.02,0.17-0.03
				c0-0.01,0-0.01,0-0.02c-0.04,0-0.09-0.03-0.12,0.03c-0.04-0.04-0.09-0.04-0.14-0.03c-0.04,0.01-0.08,0.01-0.13,0.01
				c-0.02,0-0.04,0-0.07,0c-0.07,0-0.14,0-0.21,0c0,0-0.01-0.01-0.01-0.01c0.01-0.01,0.02-0.02,0.03-0.03c-0.02,0-0.04,0-0.05,0.02
				c-0.05,0.05-0.18,0.04-0.22-0.01c-0.01-0.01-0.02-0.01-0.03-0.01c-0.03,0.01-0.05,0.02-0.07,0.03c-0.02-0.03-0.03-0.05-0.04-0.06
				c0,0-0.01,0-0.01,0c0.02,0.04,0.01,0.05-0.03,0.05c-0.05-0.01-0.1-0.02-0.15-0.01c-0.04,0-0.08,0.02-0.13,0.02
				c-0.12,0-0.24,0-0.36-0.01c-0.05,0-0.11-0.02-0.16-0.03c-0.02,0-0.05-0.01-0.05,0c-0.05,0.06-0.09-0.02-0.13-0.01
				c-0.02-0.05-0.04-0.02-0.07-0.01c-0.04-0.02-0.08-0.02-0.12-0.03c-0.04-0.01-0.1,0.03-0.12-0.06c-0.02,0.01-0.04,0.02-0.06,0.02
				c0,0,0,0,0.01,0c-0.2,0-0.4,0-0.6-0.01c0-0.01,0-0.01,0-0.02c0.06,0,0.12-0.01,0.17-0.01c-0.02-0.04-0.11,0.01-0.11-0.08
				c-0.01,0-0.03,0-0.03,0.01c-0.01,0.04-0.05,0.04-0.08,0.05c-0.12,0.01-0.24,0.02-0.36,0.03c-0.15,0.01-0.3,0.01-0.45,0.01
				c-0.04,0-0.08-0.02-0.11,0c-0.09,0.05-0.16-0.02-0.26,0c0.03-0.02,0.04-0.04,0.07-0.06c-0.02-0.01-0.04-0.02-0.05-0.02
				c-0.04,0-0.08,0.01-0.12,0.02c-0.03,0.01-0.06,0.01-0.09,0.01c-0.05,0-0.09,0-0.14,0c-0.04,0-0.08,0.01-0.12,0.01
				c-0.03,0-0.06-0.02-0.09-0.03C9.87,15.8,9.83,15.8,9.79,15.8c-0.03-0.01-0.08-0.01-0.08-0.07c0.1,0,0.19,0.01,0.28,0.01
				c0-0.01,0-0.01,0-0.02c-0.08-0.01-0.16-0.02-0.25-0.02c-0.05,0-0.07-0.02-0.06-0.09c0.12,0.01,0.24,0.02,0.37,0.04
				c0,0,0,0.01,0,0.01c-0.06,0-0.11,0.01-0.17,0.01c0,0.01,0,0.01,0,0.02c0.08,0,0.17,0,0.25,0c0,0,0,0.01,0,0.01
				c-0.02,0-0.04,0.01-0.07,0.01c0.01,0.01,0.02,0.02,0.03,0.02c0.06,0,0.12,0,0.17-0.01c0.01,0,0.03-0.01,0.05-0.03
				c-0.08-0.02-0.15-0.04-0.22-0.06c0.12-0.01,0.23-0.02,0.34-0.02c0.2-0.01,0.39-0.02,0.59-0.02c0.16-0.01,0.32-0.01,0.49-0.01
				c0.04,0,0.07,0,0.11,0.01c0,0,0-0.01,0-0.01c-0.05,0-0.1-0.01-0.14-0.01c-0.19,0-0.38,0.01-0.57,0.01
				c-0.09,0-0.18-0.01-0.27-0.01c-0.09,0-0.19,0-0.28,0c-0.21,0-0.41,0-0.62,0c-0.14,0-0.29,0.01-0.43,0.02
				C9.16,15.58,9,15.59,8.84,15.6c-0.08,0-0.15,0.02-0.21,0.07c0.02,0,0.03,0,0.05-0.01c0.08-0.02,0.16-0.05,0.25-0.05
				c0.2,0,0.41,0.01,0.61,0.01c0.05,0,0.07,0.02,0.07,0.08c-0.01,0-0.03,0-0.03,0c0.02,0.02,0.05,0.04,0.08,0.07
				c0.04,0.03,0.07,0.07,0.1,0.1c-0.02,0-0.05,0.01-0.08,0.01c-0.04,0-0.09,0-0.13,0c-0.07,0-0.13-0.02-0.2-0.02
				c-0.1,0-0.19,0.01-0.29-0.01c-0.12-0.03-0.25-0.03-0.38-0.04c-0.02,0-0.04-0.01-0.06-0.02c-0.03-0.01-0.07-0.03-0.1-0.03
				c-0.14,0.01-0.27,0.03-0.41,0.05c-0.14,0.02-0.27,0.05-0.4,0.07c-0.02,0-0.05,0.02-0.08,0.03c0.02,0.02,0.04,0.03,0.05,0.04
				c-0.04,0.02-0.07,0.03-0.1,0.04c0,0,0,0.01,0,0.01c0.01,0,0.03,0,0.05,0c-0.02,0.07-0.08,0.02-0.11,0.05
				c0.02,0.01,0.07,0.02,0.07,0.02c-0.01,0.06,0.04,0.05,0.07,0.06c0,0.05-0.03,0.06-0.09,0.05c-0.05-0.01-0.09-0.02-0.14-0.02
				c-0.09-0.01-0.18-0.01-0.26-0.01c-0.01,0-0.02-0.01-0.04-0.02c0.1-0.01,0.19-0.01,0.28-0.02c0-0.01,0-0.01,0-0.02
				c-0.06-0.01-0.12-0.01-0.18-0.02c0-0.01,0-0.01,0-0.02c0.07,0,0.15,0,0.22,0c0-0.01,0-0.01,0-0.02
				c-0.41-0.03-0.81-0.04-1.23,0.02c0.17,0.04,0.34,0.05,0.5,0.1c-0.13,0.04-0.25,0.01-0.38,0.01c0,0.01,0,0.01,0,0.02
				c0.33,0.02,0.66,0.04,0.98,0.06c-0.11,0.11-0.25,0.03-0.37,0.06c0.07,0.01,0.14,0.03,0.21,0.04c0.01,0.03-0.01,0.04-0.04,0.04
				c-0.03,0-0.06,0-0.1,0c-0.08-0.01-0.16-0.01-0.24-0.02c0,0.01,0.01,0.02,0.01,0.02c-0.04,0.06-0.11,0.01-0.16,0.05
				c0.06,0.01,0.12,0.02,0.19,0.03c0,0.01,0,0.01,0,0.02c-0.03,0-0.05,0.01-0.08,0.01c0,0.01,0,0.01,0,0.02
				c0.11,0.02,0.22,0.04,0.32,0.06c0,0,0,0.01,0,0.01c-0.04,0-0.08,0.01-0.14,0.01c0.03,0.02,0.04,0.03,0.06,0.03
				c0,0.01,0,0.01,0,0.02c-0.09,0.01-0.17,0.01-0.26,0.02c0,0.01,0,0.01,0,0.02c0.06,0.01,0.12,0.01,0.19,0.02c0,0,0,0,0,0.01
				c-0.02,0.01-0.04,0.01-0.07,0.02c0.03,0.01,0.05,0.01,0.08,0.01C6.9,16.8,6.9,16.8,6.9,16.8c0.08,0.02,0.15,0.03,0.23,0.05
				c0,0,0,0.01,0,0.01c-0.18,0.06-0.37,0.01-0.56,0.07c0.08,0.01,0.16,0.02,0.24,0.03c0.08,0.01,0.16,0,0.23,0.05
				c-0.08,0.01-0.15,0.02-0.23,0.03c0.01,0.02,0.02,0.02,0.03,0.03c-0.02,0.01-0.04,0.01-0.05,0.02c0.04,0.01,0.08,0.02,0.13,0.03
				c0.04,0.01,0.09,0.01,0.13,0.01c0,0.01,0,0.01,0,0.02c-0.15,0-0.31,0-0.46,0c0.01,0.02,0.01,0.04,0.02,0.06
				c0.1-0.04,0.18,0.03,0.27,0.06c-0.1,0.04-0.21,0.01-0.33,0.01c0.02,0.02,0.03,0.05,0.05,0.05c0.06,0.01,0.12,0.01,0.18,0.02
				c0.04,0.01,0.08,0.03,0.12,0.04c0,0,0,0.01,0,0.01c-0.12-0.01-0.23-0.02-0.36-0.04c0.07,0.05,0.15,0.01,0.21,0.06
				c-0.03,0.02-0.06,0.03-0.08,0.05c-0.02,0.06-0.07,0-0.11,0.04c0.05,0.01,0.08,0.02,0.13,0.03c-0.02,0.01-0.04,0.02-0.05,0.02
				c-0.06,0-0.12-0.01-0.19-0.01c-0.07-0.01-0.14-0.02-0.22-0.02c-0.04,0-0.07,0.01-0.11,0.02c0,0.01,0,0.01,0,0.02
				c0.04,0,0.09,0,0.13-0.01c0.04-0.01,0.09,0,0.12,0.03c-0.01,0.01-0.03,0.01-0.04,0.02c0.05,0.02,0.1,0.03,0.14,0.05
				c0,0,0,0.01,0,0.01c-0.05,0-0.09-0.01-0.14-0.01c0.03,0.02,0.06,0.04,0.09,0.04c0.07,0.01,0.07,0,0.1,0.04
				c-0.18-0.06-0.37-0.03-0.54-0.1c0.01,0,0.02-0.01,0.04-0.01c-0.09,0-0.17-0.05-0.26,0c0.42,0.1,0.82,0.19,1.23,0.29
				c-0.05,0.01-0.1,0.01-0.15,0.01c-0.04,0-0.07,0-0.11,0c-0.14,0-0.28-0.04-0.42-0.07c-0.08-0.02-0.17-0.03-0.25-0.04
				c0,0,0,0.01,0,0.01c0.17,0.04,0.33,0.09,0.5,0.13c0,0.01,0,0.01,0,0.02c-0.09-0.01-0.19-0.03-0.28-0.04c0,0,0,0,0,0.01
				c0.13,0.04,0.26,0.08,0.39,0.12c0,0,0,0.01,0,0.01c-0.11-0.02-0.23-0.03-0.34-0.05c0,0.01,0,0.01,0,0.02
				c0.09,0.03,0.18,0.05,0.25,0.08c0.02,0.03,0.04,0.05,0.05,0.06c0.02,0.02,0.05,0.02,0.07,0.03c-0.02,0.01-0.04,0.01-0.06,0.01
				c-0.04-0.01-0.07-0.01-0.06,0.05c-0.03-0.01-0.05-0.01-0.08-0.02c0.01-0.01,0.01-0.02,0.02-0.03c-0.05,0.01-0.09,0.02-0.13,0.04
				c0,0,0,0.01,0,0.01c0.08,0.02,0.15,0.04,0.23,0.06c0,0,0,0.01,0,0.01c-0.04-0.01-0.08-0.01-0.13-0.02c0,0.02,0,0.03,0.01,0.05
				c-0.05,0-0.09-0.01-0.13-0.01c-0.01,0-0.02,0.01-0.03,0.01c0.01,0.01,0.01,0.03,0.02,0.03c0.02,0.02,0.05,0.03,0.08,0.04
				c0,0.01,0,0.01,0,0.02c-0.05-0.01-0.09-0.02-0.14-0.03c0.02,0.04,0.03,0.09,0.06,0.11c0.03,0.03,0.08,0.03,0.12,0.05
				c0,0.01,0,0.01,0,0.02c-0.05-0.01-0.11-0.02-0.16-0.03c0,0,0,0.01,0,0.01c0.04,0.01,0.08,0.03,0.11,0.04c0,0,0,0.01,0,0.01
				c-0.04,0.01-0.08,0.01-0.12,0.02c0,0,0,0.01,0,0.01c0.05,0.01,0.1,0.01,0.16,0.02c-0.01,0.02-0.01,0.03-0.01,0.04
				c0.06,0,0.12,0.01,0.17,0.01c0,0.01,0,0.02,0,0.02c-0.04,0.01-0.07,0.01-0.11,0.02c0.02,0.02,0.04,0.02,0.06,0.02
				c0.04,0.01,0.07,0.01,0.11,0.02c0.01,0,0.02,0.02,0.02,0.02c-0.01,0.01-0.02,0.02-0.02,0.02c0.02,0.01,0.04,0.02,0.07,0.03
				c0,0,0,0.01,0,0.01c-0.06,0-0.13,0-0.2,0c0.02,0.02,0.04,0.03,0.05,0.04c-0.07,0.02-0.12,0.03-0.19,0.05
				c0.07,0.02,0.14,0.04,0.2,0.06c-0.01,0.02-0.02,0.04-0.04,0.07c-0.02,0-0.05,0-0.07,0c-0.01,0-0.03,0.01-0.04,0.01
				c-0.01,0.01-0.03,0.03-0.04,0.03c-0.07-0.01-0.13-0.02-0.2-0.03c-0.07-0.02-0.15-0.04-0.22-0.05c0,0.01-0.01,0.02-0.01,0.02
				c0.17,0.02,0.31,0.13,0.47,0.18c-0.04,0.01-0.07,0.02-0.11,0.03c0,0.01,0,0.01,0,0.02c0.05,0.02,0.1,0.04,0.15,0.07
				c-0.02,0.02-0.04,0.03-0.05,0.04c-0.02,0.01-0.05,0.02-0.08,0.04c0,0.01,0,0.01,0,0.02c0.03,0.01,0.07,0.02,0.1,0.04
				c0.01,0.01,0.03,0.03,0.03,0.04c-0.01,0.03-0.03,0.05-0.04,0.09c0.02,0.01,0.03,0.03,0.05,0.03c0.05,0,0.07,0.02,0.08,0.07
				c-0.05,0.01-0.11-0.04-0.15,0.01c0.07,0.06,0.14,0.12,0.21,0.18c0,0.03,0.01,0.06,0.05,0.06c0.12,0.01,0.25,0.02,0.37,0.03
				c0.01,0,0.02-0.01,0.02-0.01c-0.04-0.01-0.09-0.02-0.13-0.03c0-0.01,0-0.01,0-0.02c0.14,0.02,0.28-0.01,0.41,0.06
				c0.07-0.05,0.14-0.01,0.21,0c-0.03,0.01-0.05,0.02-0.08,0.02c-0.05,0.01-0.11,0.02-0.16,0.04c0.08-0.01,0.15-0.02,0.23-0.03
				c0.03,0,0.06-0.01,0.08-0.01c0.03-0.01,0.05-0.01,0.06,0.03c-0.02,0.01-0.03,0.01-0.06,0.02c0.02,0.01,0.02,0.01,0.03,0.01
				c0.11-0.01,0.21-0.02,0.32-0.03c0.06,0,0.12-0.01,0.17,0.04c-0.01,0.01-0.02,0.02-0.03,0.03c0.09,0.01,0.18,0.01,0.26,0.02
				c-0.01-0.01-0.01-0.02-0.02-0.03c0.02,0,0.04,0,0.05,0c0.04,0.01,0.07,0.04,0.11,0.05c0.08,0.02,0.16,0.04,0.24,0.06
				c0.19,0.02,0.37,0.04,0.56,0.06c0.02,0,0.03,0.01,0.05,0.01c0,0.01,0,0.02,0,0.02c-0.13-0.01-0.26-0.02-0.39-0.02
				c-0.05,0-0.11,0-0.16,0c0.16,0.03,0.32,0.04,0.48,0.06c0.08,0.01,0.15,0.02,0.23,0.03c0.17,0.02,0.34,0.04,0.51,0.06
				c0.1,0.01,0.2,0.02,0.3,0.02c0.14,0,0.28-0.01,0.42-0.02c0.08,0,0.15-0.02,0.23-0.02c0-0.01,0-0.01,0-0.02
				c-0.06,0.01-0.12,0.02-0.18,0.02c-0.07,0-0.15,0-0.22-0.01c-0.02,0-0.06,0.02-0.07-0.03c0,0-0.02,0-0.02,0
				c-0.02,0.04-0.04,0.01-0.06,0.01c-0.03-0.01-0.05-0.02-0.08-0.02c-0.04,0-0.05-0.02-0.03-0.06c-0.06,0-0.11-0.01-0.17-0.01
				c0,0,0,0.01,0,0.01c0.04,0.01,0.08,0.03,0.13,0.04c-0.02,0.01-0.03,0.01-0.03,0.01c-0.07,0.01-0.13,0.03-0.2,0.04
				c-0.04,0-0.1,0-0.1-0.01c-0.02-0.05-0.06-0.04-0.09-0.05c-0.04-0.01-0.07-0.02-0.11-0.04c-0.01,0-0.01-0.03,0-0.04
				c0.02-0.01,0.04-0.03,0.06-0.03c0.05,0,0.09,0.01,0.14,0.02c0.1,0.01,0.2,0.01,0.29,0.01c0.01,0,0.03,0,0.04,0
				c-0.01-0.02-0.01-0.03-0.01-0.04c0.1,0.02,0.19,0.03,0.29,0.05c-0.01-0.02-0.01-0.03-0.02-0.05c0.06,0.01,0.11,0.02,0.17,0.03
				c0.02,0,0.04-0.01,0.06-0.01c0.03-0.01,0.06-0.02,0.09-0.02c0.01,0,0.02,0.02,0.03,0.02c0.04,0,0.08-0.01,0.13-0.01
				c0.09,0,0.18-0.02,0.26,0.02c0.01,0.01,0.03,0,0.05,0c0.04,0,0.08-0.01,0.12-0.01c0.07,0,0.14,0.01,0.21,0.01
				c0.07,0,0.15,0.01,0.22-0.02c0.04-0.01,0.1,0,0.15,0.01c0.04,0.01,0.08-0.01,0.11-0.01c0.04,0,0.07,0.04,0.11,0.05
				c0.06,0.01,0.12,0.01,0.18,0.01c0.05,0,0.1-0.01,0.15-0.01c0,0,0,0,0-0.01c-0.05-0.01-0.11-0.02-0.16-0.03c0,0,0-0.01,0-0.01
				c0.01,0,0.02-0.01,0.04-0.01c0.06,0,0.12,0,0.19,0c0.06,0,0.12-0.01,0.18-0.02c0.06-0.01,0.12,0.01,0.18-0.03
				c0.01-0.01,0.04,0.01,0.05,0.02c0.02,0.01,0.04,0.03,0.06,0.04c0,0,0-0.01,0-0.01c-0.01-0.01-0.01-0.02-0.02-0.03
				c0-0.01,0-0.01,0-0.02c0.26,0.08,0.53,0.06,0.79,0.09c-0.05-0.02-0.11-0.02-0.16-0.03c-0.04-0.01-0.09,0.01-0.11-0.07
				c0.04,0.02,0.08-0.03,0.11,0.03c0,0,0.02,0,0.03,0c0.01,0,0.03-0.01,0.04-0.01c0.04,0,0.08-0.01,0.13-0.01
				c0.07,0,0.14,0.01,0.21,0.01c0.08,0.01,0.17,0.02,0.26,0.02c-0.02-0.06-0.06-0.03-0.09-0.04c-0.1-0.01-0.2-0.03-0.3-0.03
				c-0.12-0.01-0.24-0.01-0.35-0.02c-0.03,0-0.05-0.02-0.07-0.03c-0.03,0-0.06,0.02-0.08,0.01c-0.04-0.03-0.05,0-0.08,0.03
				c0.06,0.01,0.11,0.01,0.16,0.02c0,0.01,0,0.01,0,0.02c-0.06,0.02-0.12,0.03-0.18,0.01c0-0.01,0.01-0.02,0.01-0.04
				c-0.13-0.02-0.26-0.03-0.38-0.05c0-0.02,0.01-0.03,0.01-0.04c0.09,0,0.17,0.02,0.26-0.02c0-0.01,0-0.01,0-0.02
				c-0.1-0.01-0.21-0.01-0.31-0.02c0-0.01,0-0.01,0-0.02c0.03,0,0.07,0.01,0.1,0.01c0.03,0,0.06-0.01,0.1-0.02c0,0,0-0.01,0-0.01
				c-0.01-0.01-0.03-0.01-0.04-0.02c0-0.01,0-0.01,0-0.02c0.06-0.01,0.12-0.01,0.19-0.02c0-0.01,0-0.01,0-0.02
				c-0.1-0.01-0.19-0.02-0.29-0.04c0.08-0.01,0.16-0.03,0.23,0c0.09,0.03,0.16,0.02,0.24,0c0.01,0,0.03,0,0.05-0.01
				c-0.02-0.04-0.05-0.04-0.08-0.03c-0.07,0-0.14-0.01-0.21-0.01c-0.04,0-0.09-0.01-0.13-0.02c-0.02,0-0.04-0.01-0.07,0
				c-0.03,0-0.07,0.02-0.09-0.04c0.04,0,0.07-0.01,0.11-0.01c-0.05-0.01-0.1-0.02-0.14-0.01c-0.06,0.03-0.12,0.02-0.18,0.01
				c-0.02,0-0.12,0.09-0.12,0.11c0,0,0,0.01,0,0.01c-0.29-0.03-0.58-0.05-0.87-0.07c0-0.01,0-0.01,0-0.02
				c0.06-0.01,0.13-0.01,0.19-0.02c0.02,0,0.03-0.01,0.04-0.02c0,0,0-0.03-0.01-0.03c-0.02,0-0.03-0.01-0.05,0
				c-0.02,0-0.04,0-0.06,0.01c0-0.01,0-0.01,0-0.02c0.02,0,0.03,0,0.05-0.01c0.04-0.01,0.09-0.01,0.12-0.03
				c0.04-0.04,0.09-0.06,0.13-0.06c0.08,0,0.16,0.02,0.24,0.03c0,0-0.01,0.02-0.01,0.02c0.01,0.01,0.02,0.01,0.03,0.01
				c0.02,0.04,0.03,0.04,0.06,0.01c0.03-0.03,0.11-0.03,0.15,0c-0.02,0-0.04,0-0.06,0c0,0-0.01,0.01-0.01,0.02
				c-0.04,0.01-0.07,0.02-0.11,0.02c-0.08,0-0.16,0-0.23,0.01c0,0.01,0,0.01,0,0.02c0.07-0.03,0.13,0.03,0.2,0.01
				c0.1-0.02,0.2-0.01,0.3-0.02c0.07-0.01,0.14-0.02,0.21-0.02c0.05,0,0.1,0.01,0.15,0.01c0.03,0,0.05,0,0.06-0.03
				c-0.04,0-0.08,0.01-0.12,0.01c-0.04-0.01-0.09-0.03-0.13-0.04c-0.01,0-0.02-0.01-0.04-0.01c0.08,0,0.16,0,0.23,0
				c0.08,0,0.15,0,0.23,0.01c0.02,0,0.05,0.01,0.07,0.02c0.03,0.02,0.07,0.03,0.11,0c-0.03,0-0.05-0.01-0.08-0.01
				c0-0.01,0-0.01,0-0.02c0.08,0.01,0.16,0.01,0.24,0.02c-0.02,0.02-0.05,0.02-0.05,0.03c-0.01,0.04-0.05,0.03-0.07,0.03
				c-0.05,0-0.11-0.01-0.16-0.01c-0.01,0-0.03,0.01-0.05,0.01c0.05,0.01,0.08,0.03,0.11,0.03c0.12,0,0.25-0.01,0.37-0.01
				c0.2,0,0.4,0.01,0.59,0.01c0.1,0,0.2,0,0.3,0c0.02,0,0.03-0.01,0.06-0.02c-0.11-0.06-0.23-0.01-0.33-0.06
				c0.05,0,0.09,0,0.14-0.01c0.11-0.01,0.11-0.02,0.11-0.04c-0.13,0-0.25,0-0.38,0c0-0.01,0-0.01,0-0.02c0.08,0,0.17,0,0.25,0
				c0.08,0,0.17,0,0.25,0c0,0.01,0,0.01,0,0.02c-0.02,0-0.05,0-0.07,0.01c0.12,0.03,0.13,0.04,0.13,0.1c-0.02,0-0.04,0.01-0.06,0.01
				c0,0,0,0,0,0c0.02,0,0.05,0,0.07,0c0,0.01,0,0.02,0.01,0.04c-0.04,0.01-0.08,0.01-0.12,0.02c-0.01,0.05,0.03,0.03,0.05,0.03
				c0.02,0,0.04,0,0.07,0c0.01,0,0.02,0,0.03,0c-0.03,0.04-0.03,0.09-0.02,0.13c0.01,0.04,0.01,0.08,0.01,0.13c0,0.02,0,0.04,0,0.07
				c0,0.07,0,0.14,0,0.21c0,0-0.01,0.01-0.01,0.01c-0.01-0.01-0.02-0.02-0.03-0.03c0,0.02,0,0.04,0.02,0.05
				c0.05,0.05,0.04,0.18-0.01,0.22c-0.01,0.01-0.01,0.02-0.01,0.03c0.01,0.03,0.02,0.05,0.03,0.07c-0.03,0.02-0.05,0.03-0.06,0.04
				c0,0,0,0.01,0,0.01c0.04-0.02,0.05-0.01,0.05,0.03c-0.01,0.05-0.01,0.1-0.01,0.15c0,0.04,0.02,0.08,0.02,0.13
				c0,0.12,0,0.24-0.01,0.36c0,0.05-0.02,0.11-0.03,0.16c0,0.02-0.01,0.05,0,0.05c0.06,0.05-0.02,0.09-0.01,0.13
				c-0.05,0.02-0.02,0.04-0.01,0.07c-0.02,0.04-0.02,0.08-0.03,0.12c-0.01,0.04,0.03,0.1-0.06,0.12c0.01,0.02,0.02,0.04,0.02,0.06
				c0,0,0,0,0-0.01c0,0.2,0,0.4-0.01,0.6c-0.01,0-0.01,0-0.02,0c0-0.06-0.01-0.12-0.01-0.17c-0.04,0.02,0.01,0.11-0.08,0.11
				c0,0.01,0,0.03,0.01,0.03c0.04,0.01,0.04,0.05,0.05,0.08c0.01,0.12,0.02,0.24,0.03,0.36c0.01,0.15,0.01,0.3,0.01,0.45
				c0,0.04-0.02,0.08,0,0.11c0.05,0.09-0.02,0.16,0,0.26c-0.02-0.03-0.04-0.04-0.06-0.07c-0.01,0.02-0.02,0.04-0.02,0.05
				c0,0.04,0.01,0.08,0.02,0.11c0.01,0.03,0.01,0.06,0.01,0.09c0,0.05,0,0.09,0,0.14c0,0.04,0.01,0.08,0.01,0.12
				c0,0.03-0.02,0.06-0.03,0.09c-0.01,0.04-0.01,0.08-0.01,0.12c-0.01,0.03-0.01,0.08-0.07,0.08c0-0.1,0.01-0.19,0.01-0.28
				c-0.01,0-0.01,0-0.02,0c-0.01,0.08-0.02,0.16-0.02,0.25c0,0.05-0.02,0.07-0.09,0.06c0.01-0.12,0.02-0.24,0.04-0.37
				c0,0,0.01,0,0.01,0c0,0.06,0.01,0.11,0.01,0.17c0.01,0,0.01,0,0.02,0c0-0.08,0-0.17,0-0.25c0,0,0.01,0,0.01,0
				c0,0.02,0.01,0.04,0.01,0.07c0.01-0.01,0.02-0.02,0.02-0.03c0-0.06,0-0.12-0.01-0.17c0-0.01-0.01-0.03-0.03-0.05
				c-0.02,0.08-0.04,0.15-0.06,0.22c-0.01-0.12-0.02-0.23-0.02-0.34c-0.01-0.2-0.02-0.39-0.02-0.59c-0.01-0.16-0.01-0.32-0.01-0.49
				c0-0.04,0-0.07,0.01-0.11c0,0-0.01,0-0.01,0c0,0.05-0.01,0.1-0.01,0.14c0,0.19,0.01,0.38,0.01,0.57c0,0.09-0.01,0.18-0.01,0.27
				c0,0.09,0,0.19,0,0.28c0,0.21,0,0.41,0,0.62c0,0.14,0.01,0.29,0.02,0.43c0.01,0.16,0.01,0.32,0.02,0.48
				c0,0.08,0.02,0.15,0.07,0.21c0-0.02,0-0.03-0.01-0.05c-0.02-0.08-0.05-0.16-0.05-0.25c0-0.2,0.01-0.41,0.01-0.61
				c0-0.05,0.02-0.07,0.08-0.07c0,0.01,0,0.03,0,0.03c0.02-0.02,0.04-0.05,0.07-0.08c0.03-0.04,0.07-0.07,0.1-0.1
				c0,0.02,0.01,0.05,0.01,0.08c0,0.04,0,0.09,0,0.13c0,0.07-0.02,0.13-0.02,0.2c0,0.1,0.01,0.19-0.01,0.29
				c-0.03,0.12-0.03,0.25-0.04,0.38c0,0.02-0.01,0.04-0.02,0.06c-0.01,0.03-0.03,0.07-0.03,0.1c0.01,0.14,0.03,0.27,0.05,0.41
				c0.02,0.14,0.05,0.27,0.07,0.4c0,0.02,0.02,0.05,0.03,0.08c0.02-0.02,0.03-0.04,0.04-0.05c0.02,0.04,0.03,0.07,0.04,0.1
				c0,0,0.01,0,0.01,0c0-0.01,0-0.03,0-0.05c0.07,0.02,0.02,0.08,0.05,0.11c0.01-0.02,0.02-0.07,0.02-0.07
				c0.06,0.01,0.05-0.04,0.06-0.07c0.05,0,0.06,0.03,0.05,0.09c-0.01,0.05-0.02,0.09-0.02,0.14c-0.01,0.09-0.01,0.18-0.01,0.26
				c0,0.01-0.01,0.02-0.02,0.04c-0.01-0.1-0.01-0.19-0.02-0.28c-0.01,0-0.01,0-0.02,0c-0.01,0.06-0.01,0.12-0.02,0.18
				c-0.01,0-0.01,0-0.02,0c0-0.07,0-0.15,0-0.22c-0.01,0-0.01,0-0.02,0c-0.03,0.41-0.04,0.81,0.02,1.23c0.04-0.17,0.05-0.34,0.1-0.5
				c0.04,0.13,0.01,0.25,0.01,0.38c0.01,0,0.01,0,0.02,0c0.02-0.33,0.04-0.66,0.06-0.98c0.11,0.11,0.03,0.25,0.06,0.37
				c0.01-0.07,0.03-0.14,0.04-0.21c0.03-0.01,0.04,0.01,0.04,0.04c0,0.03,0,0.06,0,0.1c-0.01,0.08-0.01,0.16-0.02,0.24
				c0.01,0,0.02-0.01,0.02-0.01c0.06,0.04,0.01,0.11,0.05,0.16c0.01-0.06,0.02-0.12,0.03-0.19c0.01,0,0.01,0,0.02,0
				c0,0.03,0.01,0.05,0.01,0.08c0.01,0,0.01,0,0.02,0c0.02-0.11,0.04-0.22,0.06-0.32c0,0,0.01,0,0.01,0c0,0.04,0.01,0.08,0.01,0.14
				c0.02-0.03,0.03-0.04,0.03-0.06c0.01,0,0.01,0,0.02,0c0.01,0.09,0.01,0.17,0.02,0.26c0.01,0,0.01,0,0.02,0
				c0.01-0.06,0.01-0.12,0.02-0.19c0,0,0,0,0.01,0c0.01,0.02,0.01,0.04,0.02,0.07c0.01-0.03,0.01-0.05,0.01-0.08
				c0.01,0.01,0.02,0.01,0.02,0.01c0.02-0.08,0.03-0.15,0.05-0.23c0,0,0.01,0,0.01,0c0.06,0.18,0.01,0.37,0.07,0.56
				c0.01-0.08,0.02-0.16,0.03-0.24c0.01-0.08,0-0.16,0.05-0.23c0.01,0.08,0.02,0.15,0.03,0.23c0.02-0.01,0.02-0.02,0.03-0.03
				c0.01,0.02,0.01,0.04,0.02,0.05c0.01-0.04,0.02-0.08,0.03-0.13c0.01-0.04,0.01-0.09,0.01-0.13c0.01,0,0.01,0,0.02,0
				c0,0.15,0,0.31,0,0.46c0.02-0.01,0.04-0.01,0.06-0.02c-0.04-0.1,0.03-0.18,0.06-0.27c0.04,0.1,0.01,0.21,0.01,0.33
				c0.02-0.02,0.05-0.03,0.05-0.05c0.01-0.06,0.01-0.12,0.02-0.18c0.01-0.04,0.03-0.08,0.04-0.12c0,0,0.01,0,0.01,0
				c-0.01,0.12-0.02,0.23-0.04,0.36c0.05-0.07,0.01-0.15,0.06-0.21c0.02,0.03,0.03,0.06,0.05,0.08c0,0,0,0,0,0c0,0,0,0,0,0
				c0,0,0,0,0,0c0,0,0,0,0,0l0,0c0.06,0.02,0,0.07,0.04,0.11c0.01-0.05,0.02-0.08,0.03-0.13c0.01,0.02,0.02,0.04,0.02,0.05
				c0,0.06-0.01,0.12-0.01,0.19c-0.01,0.07-0.02,0.14-0.02,0.22c0,0.04,0.01,0.07,0.02,0.11c0.01,0,0.01,0,0.02,0
				c0-0.04,0-0.09-0.01-0.13c-0.01-0.04,0-0.09,0.03-0.12c0.01,0.01,0.01,0.03,0.02,0.04c0.02-0.05,0.03-0.1,0.05-0.14
				c0,0,0.01,0,0.01,0c0,0.05-0.01,0.09-0.01,0.14c0.02-0.03,0.04-0.06,0.04-0.09c0.01-0.07,0-0.07,0.04-0.1
				c-0.06,0.18-0.03,0.37-0.1,0.54c0-0.01-0.01-0.02-0.01-0.04c0,0.09-0.05,0.17,0,0.26c0.1-0.42,0.19-0.82,0.29-1.23
				c0.01,0.05,0.01,0.1,0.01,0.15c0,0.04,0,0.07,0,0.11c0,0.14-0.04,0.28-0.07,0.42c-0.02,0.08-0.03,0.17-0.04,0.25
				c0,0,0.01,0,0.01,0c0.04-0.17,0.09-0.33,0.13-0.5c0.01,0,0.01,0,0.02,0c-0.01,0.09-0.03,0.19-0.04,0.28c0,0,0,0,0.01,0
				c0.04-0.13,0.08-0.26,0.12-0.39c0,0,0.01,0,0.01,0c-0.02,0.11-0.03,0.23-0.05,0.34c0.01,0,0.01,0,0.02,0
				c0.03-0.09,0.05-0.18,0.08-0.25c0.03-0.02,0.05-0.04,0.06-0.05c0.02-0.02,0.02-0.05,0.03-0.07c0.01,0.02,0.01,0.04,0.01,0.06
				c-0.01,0.04-0.01,0.07,0.05,0.06c-0.01,0.03-0.01,0.05-0.02,0.08C17.07,28,17.06,28,17.05,27.99c0.01,0.05,0.02,0.09,0.04,0.13
				c0,0,0.01,0,0.01,0c0.02-0.08,0.04-0.15,0.06-0.23c0,0,0.01,0,0.01,0c-0.01,0.04-0.01,0.08-0.02,0.13c0.02,0,0.03,0,0.05-0.01
				c0,0.05-0.01,0.09-0.01,0.13c0,0.01,0.01,0.02,0.01,0.03c0.01-0.01,0.03-0.01,0.03-0.02c0.02-0.02,0.03-0.05,0.04-0.08
				c0.01,0,0.01,0,0.02,0c-0.01,0.05-0.02,0.09-0.03,0.14c0.04-0.02,0.09-0.03,0.11-0.06c0.03-0.03,0.03-0.08,0.05-0.12
				c0.01,0,0.01,0,0.02,0c-0.01,0.05-0.02,0.11-0.03,0.16c0,0,0.01,0,0.01,0c0.01-0.04,0.03-0.08,0.04-0.11c0,0,0.01,0,0.01,0
				c0.01,0.04,0.01,0.08,0.02,0.12c0,0,0.01,0,0.01,0c0.01-0.05,0.01-0.1,0.02-0.16c0.02,0.01,0.03,0.01,0.04,0.01
				c0-0.06,0.01-0.12,0.01-0.17c0.01,0,0.02,0,0.02,0c0.01,0.04,0.01,0.07,0.02,0.11c0.02-0.02,0.02-0.04,0.02-0.06
				c0.01-0.04,0.01-0.07,0.02-0.11c0-0.01,0.02-0.02,0.02-0.02c0.01,0.01,0.02,0.02,0.02,0.02c0.01-0.02,0.02-0.04,0.03-0.07
				c0,0,0.01,0,0.01,0c0,0.06,0,0.13,0,0.2c0.02-0.02,0.03-0.04,0.04-0.05c0.02,0.07,0.03,0.12,0.05,0.19
				c0.02-0.07,0.04-0.14,0.06-0.2c0.02,0.01,0.04,0.02,0.07,0.04c0,0.02,0,0.05,0,0.07c0,0.01,0.01,0.03,0.01,0.04
				c0.01,0.01,0.03,0.03,0.03,0.04c-0.01,0.07-0.02,0.13-0.03,0.2c-0.02,0.07-0.04,0.15-0.05,0.22c0.01,0,0.02,0.01,0.02,0.01
				c0.02-0.17,0.13-0.31,0.18-0.47c0.01,0.04,0.02,0.07,0.03,0.11c0.01,0,0.01,0,0.02,0c0.02-0.05,0.04-0.1,0.07-0.15
				c0.02,0.02,0.03,0.04,0.04,0.05c0.01,0.02,0.02,0.05,0.04,0.08c0.01,0,0.01,0,0.02,0c0.01-0.03,0.02-0.07,0.04-0.1
				c0.01-0.01,0.03-0.03,0.04-0.03c0.03,0.01,0.05,0.03,0.09,0.04c0.01-0.02,0.03-0.03,0.03-0.05c0-0.05,0.02-0.07,0.07-0.08
				c0.01,0.05-0.04,0.11,0.01,0.15c0.06-0.07,0.12-0.14,0.18-0.21c0.03,0,0.06-0.01,0.06-0.05c0.01-0.12,0.02-0.25,0.03-0.37
				c0-0.01-0.01-0.02-0.01-0.02c-0.01,0.04-0.02,0.09-0.03,0.13c-0.01,0-0.01,0-0.02,0c0.02-0.14-0.01-0.28,0.06-0.41
				c-0.05-0.07-0.01-0.14,0-0.21c0.01,0.03,0.02,0.05,0.02,0.08c0.01,0.05,0.02,0.1,0.04,0.16c-0.01-0.08-0.02-0.15-0.03-0.23
				c0-0.03-0.01-0.06-0.01-0.08c-0.01-0.03-0.01-0.05,0.03-0.06c0.01,0.02,0.01,0.03,0.02,0.06c0.01-0.02,0.01-0.02,0.01-0.03
				c-0.01-0.11-0.02-0.21-0.03-0.32c0-0.06-0.01-0.12,0.04-0.17c0.01,0.01,0.02,0.02,0.03,0.03c0.01-0.09,0.01-0.18,0.02-0.26
				C19,26.14,19,26.15,18.98,26.16c0-0.02,0-0.04,0-0.05c0.01-0.04,0.04-0.07,0.05-0.11c0.02-0.08,0.04-0.16,0.06-0.24
				c0.02-0.19,0.04-0.37,0.06-0.56c0-0.02,0.01-0.03,0.01-0.05c0.01,0,0.02,0,0.02,0c-0.01,0.13-0.02,0.26-0.02,0.39
				c0,0.05,0,0.11,0,0.16c0.03-0.16,0.04-0.32,0.06-0.48c0.01-0.08,0.02-0.15,0.03-0.23c0.02-0.17,0.04-0.34,0.06-0.51
				c0.01-0.1,0.02-0.2,0.02-0.3c0-0.14-0.01-0.28-0.02-0.42c0-0.08-0.02-0.15-0.02-0.23c-0.01,0-0.01,0-0.02,0
				c0.01,0.06,0.02,0.12,0.02,0.18c0,0.07,0,0.15-0.01,0.22c0,0.02,0.02,0.06-0.03,0.07c0,0,0,0.02,0,0.02
				c0.04,0.02,0.01,0.04,0.01,0.06c-0.01,0.03-0.02,0.05-0.02,0.08c0,0.04-0.02,0.05-0.06,0.03c0,0.06-0.01,0.11-0.01,0.17
				c0,0,0.01,0,0.01,0c0.01-0.04,0.03-0.08,0.04-0.13c0.01,0.02,0.01,0.03,0.01,0.03c0.01,0.07,0.03,0.13,0.04,0.2
				c0,0.04,0,0.1-0.01,0.1c-0.05,0.02-0.04,0.06-0.05,0.09c-0.01,0.04-0.02,0.07-0.04,0.11c0,0.01-0.03,0.01-0.04,0
				c-0.01-0.02-0.03-0.04-0.03-0.06c0-0.05,0.01-0.09,0.02-0.14c0.01-0.1,0.01-0.2,0.01-0.29c0-0.01,0-0.03,0-0.04
				c-0.02,0.01-0.03,0.01-0.04,0.01c0.02-0.1,0.03-0.19,0.05-0.29c-0.02,0.01-0.03,0.01-0.05,0.02c0.01-0.06,0.02-0.11,0.03-0.17
				c0-0.02-0.01-0.04-0.01-0.06c-0.01-0.03-0.02-0.06-0.02-0.09c0-0.01,0.02-0.02,0.02-0.03c0-0.04-0.01-0.08-0.01-0.13
				c0-0.09-0.02-0.18,0.02-0.26c0.01-0.01,0-0.03,0-0.05c0-0.04-0.01-0.08-0.01-0.12c0-0.07,0.01-0.14,0.01-0.21
				c0-0.07,0.01-0.15-0.02-0.22c-0.01-0.04,0-0.1,0.01-0.15c0.01-0.04-0.01-0.08-0.01-0.11c0-0.04,0.04-0.07,0.05-0.11
				c0.01-0.06,0.01-0.12,0.01-0.18c0-0.05-0.01-0.1-0.01-0.15c0,0,0,0-0.01,0c-0.01,0.05-0.02,0.11-0.03,0.16c0,0-0.01,0-0.01,0
				c0-0.01-0.01-0.02-0.01-0.04c0-0.06,0-0.12,0-0.19c0-0.06-0.01-0.12-0.02-0.18c-0.01-0.06,0.01-0.12-0.03-0.18
				c-0.01-0.01,0.01-0.04,0.02-0.05c0.01-0.02,0.03-0.04,0.04-0.06c0,0-0.01,0-0.01,0c-0.01,0.01-0.02,0.01-0.03,0.02
				c-0.01,0-0.01,0-0.02,0c0.08-0.26,0.06-0.53,0.09-0.79c-0.02,0.05-0.02,0.11-0.03,0.16c-0.01,0.04,0.01,0.09-0.07,0.11
				c0.02-0.04-0.03-0.08,0.03-0.11c0,0,0-0.02,0-0.03c0-0.01-0.01-0.03-0.01-0.04c0-0.04-0.01-0.08-0.01-0.13c0-0.01,0-0.03,0-0.04
				c0.13,0,0.27-0.01,0.4-0.02c0.16-0.02,0.31-0.06,0.46-0.1c0.02,0,0.03-0.02,0.04-0.02c-0.08-0.02-0.16-0.03-0.23-0.03
				c-0.05,0-0.09,0.03-0.14,0c-0.01,0-0.02,0-0.02,0c-0.06,0.01-0.12,0.02-0.18,0.02c-0.06,0.01-0.11,0.01-0.17,0.01
				c-0.05,0-0.1,0.01-0.15,0.02c0-0.02,0-0.03,0-0.05c0.01-0.08,0.01-0.16,0.02-0.24c0.16,0,0.32-0.01,0.49-0.01
				c0-0.01,0-0.02,0-0.03c-0.24-0.01-0.49-0.02-0.73,0.01c0-0.02,0-0.03,0-0.05c0-0.02,0-0.04,0-0.07c0.05,0,0.11,0,0.16,0.01
				c0,0,0,0.01,0,0.01c0,0,0-0.01,0-0.01c0.01,0,0.02,0,0.02,0c0.01,0.02,0.02,0.05,0.03,0.07c0-0.03,0.01-0.05,0.01-0.07
				c0.01,0,0.01,0,0.02,0c0.01,0,0.02-0.01,0.03-0.01c0.01,0,0.02-0.01,0.04-0.01c0.05,0,0.1,0,0.16,0c0.07,0,0.15,0,0.22,0
				c0.03,0,0.07,0.01,0.1,0.01c0.02,0,0.04,0.01,0.05,0c0.02-0.04,0.06-0.03,0.09-0.03c0.06,0,0.12,0,0.19,0
				c0.01,0,0.02,0.01,0.03,0.01c-0.01,0.01-0.02,0.02-0.03,0.03c0.04,0,0.09,0.03,0.11-0.03c0,0,0.02-0.01,0.02-0.01
				c0.03,0.01,0.06,0.01,0.09,0.02c0.01-0.06,0.06-0.01,0.09-0.02c0,0.01,0.01,0.01,0.01,0.02c-0.03,0.02-0.06,0.04-0.09,0.05
				c0.09,0,0.18,0,0.27,0c0.01,0,0.02-0.02,0.04-0.04c0.01-0.01,0.02-0.01,0.03-0.01c0.01,0,0.01,0.01,0.02,0.02
				c0,0.01,0,0.02,0,0.03c0.06,0,0.12,0.01,0.17,0.01c-0.01,0.02-0.01,0.03-0.02,0.03c-0.07,0-0.13,0.01-0.2,0.01
				c-0.07,0-0.14-0.02-0.21-0.02c-0.05,0-0.1,0-0.15,0c0.01,0.01,0.02,0.02,0.03,0.02c-0.1,0.01-0.11,0.01-0.1-0.03
				c-0.01,0-0.02,0-0.02,0c-0.04,0.07-0.11,0.06-0.17,0.05c-0.01,0-0.03-0.01-0.04,0c-0.03,0.04-0.07,0.06-0.11,0.02
				c0,0-0.01,0-0.01,0c-0.07,0.01-0.14,0.02-0.21,0.03c0.11,0.01,0.22,0.01,0.33,0.01c0.01,0,0.02,0,0.03-0.01
				c0.03-0.06,0.07-0.02,0.1-0.01c-0.01,0.01-0.03,0.01-0.04,0.02c0,0,0,0.01,0,0.01c0.02,0,0.05,0.01,0.07,0.01
				c0-0.04,0.01-0.07,0.06-0.07c-0.01,0.02-0.02,0.04-0.02,0.05c0.05,0.02,0.1,0.04,0.14,0.05c0.01-0.02,0.01-0.04,0.02-0.04
				c0.02,0,0.04,0,0.04,0.01c0.01,0.05,0.05,0.04,0.08,0.04c0.07,0,0.14,0.01,0.21-0.03c0.01,0,0.02,0,0.05,0
				c-0.02,0.02-0.04,0.04-0.05,0.05c0.1,0,0.12-0.01,0.12-0.03c-0.03-0.01-0.05-0.02-0.09-0.04c0.07-0.03,0.46-0.06,0.54,0
				c-0.07,0.01-0.14,0.02-0.2,0.03c-0.06,0.01-0.13,0.02-0.19,0.04c-0.06,0.02-0.11,0.05-0.17,0.08c0.06,0,0.11-0.02,0.16-0.01
				c0.05,0.02,0.1,0.01,0.15,0c0.02,0,0.04,0.01,0.05,0.01c0.02,0.01,0.03,0.02,0.05,0.03c0,0,0-0.01,0-0.01
				c-0.01-0.01-0.02-0.02-0.04-0.04c0-0.01,0-0.01,0-0.02c0.11-0.01,0.23-0.02,0.33-0.03c0.02-0.01,0.03-0.02,0.05-0.03
				c0.04-0.01,0.09-0.01,0.14-0.02c-0.08-0.08-0.09-0.08-0.18-0.07c-0.03,0-0.06,0-0.09-0.01c0-0.01,0-0.01,0-0.02
				c0.12,0,0.24-0.01,0.36-0.01c0.01,0,0.02,0.02,0.03,0.03c0,0,0-0.01,0-0.01c0.05-0.01,0.09-0.02,0.14-0.02c0.1,0,0.2,0,0.3,0
				c0.22,0,0.45-0.01,0.67-0.01c0.03,0,0.06,0,0.09,0c0,0.01,0,0.01,0,0.02c-0.02,0.01-0.05,0.02-0.07,0.03
				c0.05-0.01,0.11,0.05,0.13-0.04c0,0,0.01-0.01,0.01-0.01c0.05,0,0.09,0,0.14,0c0,0,0,0.01,0,0.01c-0.02,0.01-0.04,0.01-0.06,0.02
				c0,0.01,0,0.02,0,0.02c0.14,0.01,0.29,0.01,0.43,0.02c-0.24,0.06-0.48,0.03-0.73,0.04c0.02,0.01,0.02,0.02,0.03,0.02
				c-0.07,0.02-0.13,0.02-0.19,0.02c-0.01,0-0.02-0.02-0.02-0.03c-0.11,0-0.22,0-0.33,0c0,0,0,0.01,0,0.01
				c0.03,0,0.06,0.01,0.09,0.01c0,0,0,0.01,0,0.01c-0.03,0-0.07,0.01-0.11,0.01c0.08,0.04,0.15,0.05,0.22,0.02
				c0.06-0.02,0.09-0.02,0.12,0.03c0.02-0.04,0.05-0.05,0.09-0.03c0.03,0.01,0.07,0.02,0.1,0.02c0,0.01,0,0.01,0,0.02
				c-0.01,0.01-0.03,0.01-0.04,0.02c-0.06,0-0.13,0-0.2,0.01c-0.17,0.01-0.34,0.02-0.5,0.03c-0.01,0-0.02,0-0.02,0
				c-0.06-0.03-0.07-0.03-0.12,0.01c0.38,0.02,0.77-0.03,1.15,0.03c-0.06,0.01-0.13,0.01-0.19,0.02c0,0.01,0,0.01,0,0.02
				c0.16-0.03,0.31,0.03,0.47,0.01c0.07-0.01,0.14,0.02,0.21,0.02c0.03,0,0.07-0.02,0.1-0.02c0.14-0.01,0.27-0.03,0.41-0.04
				c0.25-0.01,0.5-0.03,0.75-0.03c0.22-0.01,0.44,0,0.66-0.01c0.06,0,0.13-0.01,0.19,0c0.05,0.02,0.11,0.02,0.16,0.02
				c0.16,0,0.31,0.01,0.47,0.01c0.06,0,0.12-0.01,0.18-0.02c0.07-0.02,0.14-0.07,0.22-0.06c0.03,0,0.05-0.01,0.08-0.01
				c0,0,0-0.01,0-0.01c-0.01-0.01-0.02-0.01-0.03-0.02c0,0,0-0.01,0-0.01c0.05,0.02,0.11,0.03,0.16,0.05c0-0.01,0-0.01,0-0.02
				c-0.02-0.01-0.04-0.01-0.07-0.02c0.01-0.03,0.02-0.06,0.02-0.09c0-0.03,0-0.06-0.03-0.07c-0.04-0.02-0.07-0.04-0.1-0.07
				c-0.01-0.01-0.02-0.01-0.04-0.01c0.01,0.02,0.01,0.03,0.01,0.05c-0.08,0.02-0.12-0.05-0.18-0.08c0,0-0.01-0.03,0-0.04
				c0.02-0.02,0.04-0.03,0.05-0.04c0.05-0.03,0.1-0.06,0.15-0.09c0.03-0.02,0.05-0.04,0.09-0.03c0,0,0.01,0,0.02,0
				c-0.01-0.01-0.01-0.02-0.02-0.03c0.02,0,0.03-0.01,0.05-0.01c0-0.01,0-0.01,0-0.02c-0.06-0.02-0.13-0.05-0.19-0.07
				c0.06-0.02,0.12-0.05,0.18-0.07c0,0,0-0.01,0-0.01c-0.04,0-0.08,0-0.12,0c0-0.01,0-0.02,0-0.02c0.02-0.01,0.04-0.02,0.06-0.02
				c0.05,0,0.09,0.01,0.13,0.03c0.04,0.02,0.09-0.02,0.14-0.02c0.07,0,0.14,0.01,0.21,0.03c0.05,0.01,0.09,0.03,0.14,0.04
				c0,0,0,0,0-0.01c-0.03-0.02-0.07-0.04-0.1-0.06c0-0.01,0-0.01,0-0.02c0.08,0.01,0.15,0.03,0.23,0.04c0,0,0-0.01,0.01-0.01
				c-0.03-0.02-0.06-0.04-0.1-0.06c0.02-0.01,0.03-0.01,0.04-0.02c-0.03-0.01-0.06-0.02-0.1-0.03c0.03-0.02,0.06-0.04,0.08-0.05
				c-0.02-0.03-0.03-0.05-0.05-0.09c0.04-0.06,0.13-0.01,0.2-0.07c-0.09-0.01-0.18,0.03-0.22-0.09c0.01-0.01,0.02-0.02,0.03-0.03
				c-0.03-0.04-0.06-0.07-0.09-0.11c0.08-0.03,0.15-0.05,0.23-0.07c0-0.01,0-0.01,0-0.02c-0.02,0-0.04-0.01-0.06-0.01
				c-0.09,0.02-0.17,0.02-0.26-0.01c0.01-0.06,0.05-0.05,0.09-0.05c0.01-0.11,0.12-0.06,0.16-0.13c-0.04,0-0.08,0-0.11-0.01
				c-0.01,0-0.02-0.02-0.03-0.03c0.01-0.01,0.02-0.02,0.03-0.03c0.01-0.01,0.03-0.01,0.04-0.01c0-0.01,0-0.01,0-0.01
				c0,0,0-0.01,0-0.01c0.02-0.08-0.01-0.13-0.08-0.16c-0.02-0.01-0.03-0.04-0.05-0.06c0.04-0.02,0.08-0.03,0.13-0.05
				c-0.04,0-0.07-0.01-0.09-0.01c0.02-0.03,0.03-0.07,0.05-0.1c0-0.01,0.01-0.02,0.02-0.02c0.02-0.01,0.05-0.03,0.07-0.04
				c0.05-0.03,0.06-0.06,0.01-0.1c0.01-0.06,0-0.07-0.06-0.08c-0.06-0.01-0.11-0.03-0.17-0.04c0-0.01,0-0.01,0-0.02
				c0.06-0.01,0.13-0.01,0.19-0.03c0.09-0.02,0.18,0,0.25,0.09c0.03-0.06-0.04-0.07-0.04-0.12c0.03-0.01,0.06-0.01,0.1-0.02
				c-0.06-0.05-0.12-0.09-0.19-0.14c0.08-0.01,0.15-0.03,0.23-0.04c0,0,0-0.01,0-0.01c-0.11-0.06-0.22-0.12-0.32-0.18
				c0-0.01,0-0.01,0.01-0.02c0.1-0.03,0.21,0,0.32-0.02c0,0,0-0.01,0-0.01c-0.04-0.02-0.07-0.04-0.11-0.06c0,0,0-0.01,0-0.01
				c0.02-0.01,0.05-0.02,0.08-0.03c-0.06-0.05-0.14-0.04-0.17-0.12c0.01-0.01,0.02-0.01,0.03-0.02c0,0,0-0.01,0-0.01
				c-0.04-0.01-0.07-0.01-0.11-0.02c0-0.01,0-0.01,0-0.02c0.03,0,0.06-0.01,0.09-0.01c0.03,0,0.06-0.02,0.06-0.05
				c-0.06-0.11-0.17-0.14-0.28-0.17c0.09-0.01,0.17-0.02,0.25-0.03c0-0.01,0-0.01,0-0.02c-0.02,0-0.04,0-0.07-0.01
				c-0.06,0-0.12-0.02-0.16-0.06c-0.01-0.01-0.01-0.03-0.02-0.05c0.01-0.01,0.03-0.02,0.04-0.02c0.04,0,0.09,0,0.13,0
				c0.02,0,0.06-0.01,0.06-0.02c0.01-0.06,0.06-0.04,0.09-0.05c0.02-0.01,0.04-0.02,0.07-0.03c0-0.01,0-0.02-0.01-0.02
				c-0.13,0.01-0.27,0.02-0.4,0.02c-0.01-0.02-0.03-0.03-0.05-0.04c-0.05-0.01-0.1-0.03-0.15-0.04c-0.06-0.01-0.11-0.05-0.18-0.02
				c-0.02,0.01-0.04,0.03-0.06,0.04c-0.05,0.02-0.07,0.01-0.08-0.04c0.16-0.08,0.34-0.04,0.51-0.03c-0.01-0.04-0.01-0.07-0.02-0.1
				c0.11-0.05,0.21-0.09,0.31-0.14c0-0.01,0-0.01,0-0.02c-0.01,0-0.03-0.01-0.04-0.01c-0.03,0-0.04,0-0.06-0.04
				c-0.01-0.04-0.04-0.06-0.03-0.11c0-0.01-0.01-0.01-0.02-0.02c-0.01-0.02-0.03-0.04-0.04-0.06c-0.01-0.06-0.02-0.12-0.02-0.19
				c-0.03-0.04-0.09-0.02-0.12-0.07c0,0-0.01,0-0.02,0c-0.03,0.01-0.07,0.01-0.1,0.02c-0.09,0.03-0.17,0.01-0.22-0.06
				c-0.06-0.07-0.12-0.08-0.19-0.05c-0.09,0.03-0.17,0.06-0.25,0.01c-0.03,0.01-0.05,0.03-0.08,0.03c-0.16,0-0.32,0-0.48,0
				c0,0-0.01-0.01-0.02-0.01c0.14-0.03,0.28-0.05,0.41-0.07c0,0,0-0.01,0-0.01c-0.03-0.01-0.06-0.02-0.09-0.02
				c0.02-0.05,0.08-0.06,0.13-0.03c0.04,0.03,0.08,0.03,0.12,0.01c0.07-0.03,0.14-0.05,0.21-0.07c0.05-0.02,0.11-0.03,0.16-0.05
				c0.02-0.01,0.02-0.04,0.03-0.06c-0.01-0.01-0.03-0.02-0.04-0.02c-0.08,0.01-0.16,0.03-0.25,0.04c-0.05,0.01-0.09,0-0.14,0
				c-0.13-0.01-0.26-0.04-0.38-0.01c-0.04,0.01-0.08,0.04-0.11,0.06c-0.08,0.05-0.17,0.04-0.25,0.04c-0.02,0-0.03-0.01-0.05-0.02
				c0-0.01,0-0.01,0-0.02c0.03,0,0.06,0,0.1,0c0-0.01,0-0.01,0-0.02c-0.06-0.04-0.12,0.03-0.19,0.01c0.01,0.01,0.02,0.03,0.04,0.05
				c-0.11,0.04-0.22,0.02-0.33-0.01c0,0.01,0,0.02,0,0.02c0.06,0.01,0.11,0.02,0.17,0.03c0,0.01,0,0.01,0,0.02
				c-0.03,0.01-0.06,0.03-0.09,0.04c0,0.01,0,0.01,0,0.02c0.02,0,0.04,0,0.06,0c0,0,0,0.01,0,0.01c-0.04,0.01-0.08,0.01-0.11,0.02
				c0.03,0.01,0.06,0,0.09,0c0.09,0,0.18,0.02,0.26,0.01c0.06-0.01,0.04,0.02,0.04,0.05c0.02,0,0.05,0,0.07,0.01
				c0,0.01,0,0.01,0,0.02c-0.13-0.01-0.26-0.02-0.39-0.03c0,0,0,0.01,0,0.01c0.11,0.02,0.23,0.05,0.34,0.07c0,0.01,0,0.01,0,0.02
				c-0.22-0.01-0.44-0.05-0.67-0.05c0,0.01,0,0.01,0,0.02c0.08,0.01,0.17,0.02,0.25,0.03c0,0.01,0,0.01,0,0.02
				c-0.03,0.01-0.06,0.02-0.09,0.02c-0.08,0.01-0.17,0.01-0.25,0.02c-0.12,0.01-0.23,0.01-0.35,0.02c-0.09,0-0.19-0.01-0.28,0
				c-0.21,0.03-0.42,0-0.63-0.03c-0.22-0.03-0.44-0.04-0.66-0.02c-0.06,0-0.11,0.01-0.17,0.01c-0.23-0.01-0.46-0.01-0.7-0.02
				c-0.07,0-0.15,0.01-0.22,0.01c-0.05,0-0.09,0.04-0.14,0.03c-0.06-0.01-0.12,0.01-0.18-0.03c-0.01,0-0.02,0-0.03,0
				c-0.04,0.01-0.08,0.03-0.11,0.03c-0.11,0-0.22-0.01-0.33-0.01c-0.03,0-0.07-0.01-0.1-0.01c-0.02,0-0.04,0.01-0.05,0.01
				c0,0.04-0.03,0.03-0.05,0.03c-0.17,0-0.34,0-0.52,0c-0.14,0-0.28,0-0.42,0c-0.02,0-0.05,0.01-0.07,0.02c0,0,0,0.01,0,0.01
				c0.09,0.01,0.18,0.02,0.27,0.03c0,0,0,0.01,0,0.01c-0.05,0-0.1,0.01-0.15,0.01c0,0.01,0,0.01,0,0.02
				c0.06,0.01,0.12,0.02,0.17,0.02c0.07-0.01,0.14-0.02,0.22-0.01c0.07,0.01,0.14,0.01,0.21,0.01c0,0,0.01,0,0.01-0.01
				c0-0.01-0.01-0.03-0.02-0.06c0.07,0.03,0.13,0.05,0.18,0c0.18,0,0.36-0.01,0.55-0.01c0.13,0,0.26,0.01,0.38,0.01
				c0.05,0,0.09,0,0.14,0c0,0,0,0.01,0,0.01c-0.02,0.01-0.04,0.03-0.05,0.04c0.12-0.03,0.23,0,0.35,0c0,0.01,0,0.01,0,0.02
				c-0.03,0-0.07,0-0.1,0.01c0,0,0,0.01,0,0.01c0.02,0.01,0.03,0.01,0.05,0.02c0,0.01,0,0.01,0,0.02c-0.03,0-0.06,0.02-0.08,0.01
				c-0.08-0.03-0.16-0.01-0.23,0c-0.1,0-0.2,0.02-0.3,0c-0.06-0.01-0.1,0.01-0.16,0.01c0.07,0.06,0.14,0.03,0.21,0.05
				c-0.1,0.01-0.2,0.01-0.3,0.02c-0.07,0-0.15,0-0.22,0c-0.07,0-0.15,0.03-0.2-0.03c-0.05,0.02-0.09,0.04-0.13,0.05
				c-0.06,0.01-0.12,0-0.18,0c-0.16,0-0.33,0-0.49-0.01c-0.06,0-0.12-0.01-0.18-0.01c0-0.01,0-0.03,0-0.04c0,0,0,0,0,0c0,0,0,0,0,0
				c0-0.01,0-0.02,0-0.02c-0.01,0-0.01,0-0.02,0c0,0,0,0,0,0c0,0,0,0-0.01,0c-0.05,0-0.1,0.01-0.15,0.01c0,0,0,0.01,0,0.01
				c0.05,0.01,0.1,0.01,0.15,0.02c0,0,0.01,0,0.01-0.01c0,0.01,0,0.02,0,0.02c-0.1,0-0.19-0.01-0.29-0.01c0,0,0,0,0,0
				c0-0.03,0-0.06,0-0.08c0.07,0.02,0.11,0.02,0.13-0.02c-0.05,0-0.09,0.01-0.13,0.01c0-0.05,0-0.1,0-0.15c0.05,0,0.09,0,0.14,0
				c0,0,0,0.01,0,0.01c-0.01,0-0.02,0.01-0.03,0.01c0,0.01,0,0.01,0,0.02c0.11,0.01,0.22,0.01,0.32,0.02c0-0.01,0-0.02,0-0.02
				c-0.04-0.01-0.09-0.01-0.13-0.02c0.02-0.05,0-0.06-0.04-0.06c-0.03,0-0.06,0.01-0.09,0.01c-0.05,0-0.09,0-0.14,0
				c-0.01,0-0.03,0-0.04,0c0-0.07,0-0.14,0-0.22c0-0.19-0.01-0.38-0.03-0.57c-0.02-0.16-0.06-0.31-0.1-0.46
				c0-0.02-0.02-0.03-0.02-0.04c-0.02,0.08-0.03,0.16-0.03,0.23c0,0.05,0.03,0.09,0,0.14c0,0.01,0,0.02,0,0.02
				c0.01,0.06,0.02,0.12,0.02,0.18c0.01,0.06,0.01,0.11,0.01,0.17c0.01,0.12,0.02,0.25,0.04,0.37c0,0.03,0.01,0.06,0.02,0.08
				c0.01,0.03,0.02,0.06,0.02,0.09c-0.01,0-0.02,0-0.03,0c-0.01,0-0.02,0-0.03,0.01c0,0,0-0.01,0-0.01c-0.01,0-0.01,0-0.02,0
				c0,0.01,0,0.01,0,0.02c-0.03,0.01-0.05,0.01-0.08,0.02c0,0,0,0,0,0.01c0.03,0,0.06,0,0.09,0c0.02,0.08,0.03,0.15,0.05,0.23
				c-0.05,0-0.1,0-0.15-0.01c-0.02,0-0.04-0.02-0.06-0.02c-0.09,0-0.17,0.01-0.26,0.01c0,0-0.01,0-0.01,0c0-0.05,0-0.1,0-0.14
				c0-0.01,0.01-0.02,0.01-0.03c0.01-0.03,0-0.06,0.01-0.09c0-0.13-0.03-0.27,0.01-0.4c0-0.01-0.01-0.02-0.01-0.03
				c0-0.01-0.01-0.02-0.01-0.04c0-0.05,0-0.1,0-0.16c0-0.07,0-0.15,0-0.22c0-0.03,0.01-0.07,0.01-0.1c0-0.02,0.01-0.04,0-0.05
				c-0.04-0.02-0.03-0.06-0.03-0.09c0-0.06,0-0.12,0-0.19c0-0.01,0.01-0.02,0.01-0.03c0.01,0.01,0.02,0.02,0.03,0.03
				c0-0.04,0.03-0.09-0.03-0.11c0,0-0.01-0.02-0.01-0.02c0.01-0.03,0.01-0.06,0.02-0.09c-0.06-0.01-0.01-0.06-0.02-0.09
				c0.01,0,0.01-0.01,0.02-0.01c0.02,0.03,0.04,0.06,0.05,0.09c0-0.09,0-0.18,0-0.27c0-0.01-0.02-0.02-0.04-0.04
				C18.8,14,18.8,13.99,18.8,13.98c0-0.01,0.01-0.01,0.02-0.02c0.01,0,0.02,0,0.03,0c0-0.06,0.01-0.12,0.01-0.17
				c0.02,0.01,0.03,0.01,0.03,0.02c0,0.07,0.01,0.13,0.01,0.2c0,0.07-0.02,0.14-0.02,0.21c0,0.05,0,0.1,0,0.15
				c0.01-0.01,0.02-0.02,0.02-0.03c0.01,0.1,0.01,0.11-0.03,0.1c0,0.01,0,0.02,0,0.02c0.07,0.04,0.06,0.11,0.05,0.17
				c0,0.01-0.01,0.03,0,0.04c0.04,0.03,0.06,0.07,0.02,0.11c0,0,0,0.01,0,0.01c0.01,0.07,0.02,0.14,0.03,0.21
				c0.01-0.11,0.01-0.22,0.01-0.33c0-0.01,0-0.02-0.01-0.03c-0.06-0.03-0.02-0.07-0.01-0.1c0.01,0.01,0.01,0.03,0.02,0.04
				c0,0,0.01,0,0.01,0c0-0.02,0.01-0.05,0.01-0.07c-0.04,0-0.07-0.01-0.07-0.06c0.02,0.01,0.04,0.02,0.05,0.02
				c0.02-0.05,0.04-0.1,0.05-0.14c-0.02-0.01-0.04-0.01-0.04-0.02c0-0.02,0-0.04,0.01-0.04c0.05-0.01,0.04-0.05,0.04-0.08
				c0-0.07,0.01-0.14-0.03-0.21c0-0.01,0-0.02,0-0.05c0.02,0.02,0.04,0.04,0.05,0.05c0-0.1-0.01-0.12-0.03-0.12
				c-0.01,0.03-0.02,0.05-0.04,0.09c-0.03-0.07-0.06-0.46,0-0.54c0.01,0.07,0.02,0.14,0.03,0.2c0.01,0.06,0.02,0.13,0.04,0.19
				c0.02,0.06,0.05,0.11,0.08,0.17c0-0.06-0.02-0.11-0.01-0.16c0.02-0.05,0.01-0.1,0-0.15c0-0.02,0.01-0.04,0.01-0.05
				c0.01-0.02,0.02-0.03,0.03-0.05c0,0-0.01,0-0.01,0c-0.01,0.01-0.02,0.02-0.04,0.04c-0.01,0-0.01,0-0.02,0
				c-0.01-0.11-0.02-0.23-0.03-0.33c-0.01-0.02-0.02-0.03-0.03-0.05c-0.01-0.04-0.01-0.09-0.02-0.14c-0.08,0.08-0.08,0.09-0.07,0.18
				c0,0.03,0,0.06-0.01,0.09c-0.01,0-0.01,0-0.02,0c0-0.12-0.01-0.24-0.01-0.36c0-0.01,0.02-0.02,0.03-0.03c0,0-0.01,0-0.01,0
				c-0.01-0.05-0.02-0.09-0.02-0.14c0-0.1,0-0.2,0-0.3c0-0.22-0.01-0.45-0.01-0.67c0-0.03,0-0.06,0-0.09c0.01,0,0.01,0,0.02,0
				c0.01,0.02,0.02,0.05,0.03,0.07c-0.01-0.05,0.05-0.11-0.04-0.13c0,0-0.01-0.01-0.01-0.01c0-0.05,0-0.09,0-0.14c0,0,0.01,0,0.01,0
				c0.01,0.02,0.01,0.04,0.02,0.06c0.01,0,0.02,0,0.02,0c0.01-0.14,0.01-0.29,0.02-0.43c0.06,0.24,0.03,0.48,0.04,0.73
				c0.01-0.02,0.02-0.02,0.02-0.03c0.02,0.07,0.02,0.13,0.02,0.19c0,0.01-0.02,0.02-0.03,0.02c0,0.11,0,0.22,0,0.33
				c0,0,0.01,0,0.01,0c0-0.03,0.01-0.06,0.01-0.09c0,0,0.01,0,0.01,0c0,0.03,0.01,0.07,0.01,0.11c0.04-0.08,0.05-0.15,0.02-0.22
				c-0.02-0.06-0.02-0.09,0.03-0.12c-0.04-0.02-0.05-0.05-0.03-0.09c0.01-0.03,0.02-0.07,0.02-0.1c0.01,0,0.01,0,0.02,0
				c0.01,0.01,0.01,0.03,0.02,0.04c0,0.06,0,0.13,0.01,0.2c0.01,0.17,0.02,0.34,0.03,0.5c0,0.01,0,0.02,0,0.02
				c-0.03,0.06-0.03,0.07,0.01,0.12c0.02-0.38-0.03-0.77,0.03-1.15c0.01,0.06,0.01,0.13,0.02,0.19c0.01,0,0.01,0,0.02,0
				c-0.03-0.16,0.03-0.31,0.01-0.47c-0.01-0.07,0.02-0.14,0.02-0.21c0-0.03-0.02-0.07-0.02-0.1c-0.01-0.14-0.03-0.27-0.04-0.41
				c-0.01-0.25-0.03-0.5-0.03-0.75c-0.01-0.22,0-0.44-0.01-0.66c0-0.06-0.01-0.13,0-0.19c0.02-0.05,0.02-0.11,0.02-0.16
				c0-0.16,0.01-0.31,0.01-0.47c0-0.06-0.01-0.12-0.02-0.18c-0.02-0.07-0.07-0.14-0.06-0.22c0-0.03-0.01-0.05-0.01-0.08
				c0,0-0.01,0-0.01,0C19.1,7.99,19.09,8,19.08,8.01c0,0-0.01,0-0.01,0c0.02-0.05,0.03-0.11,0.05-0.16c-0.01,0-0.01,0-0.02,0
				c-0.01,0.02-0.01,0.04-0.02,0.07c-0.03-0.01-0.06-0.02-0.09-0.02c-0.03,0-0.06,0-0.07,0.03c-0.02,0.04-0.04,0.07-0.07,0.1
				c-0.01,0.01-0.01,0.02-0.01,0.04c0.02-0.01,0.03-0.01,0.05-0.01c0.02,0.08-0.05,0.12-0.08,0.18c0,0-0.03,0.01-0.04,0
				c-0.02-0.02-0.03-0.04-0.04-0.05c-0.03-0.05-0.06-0.1-0.09-0.15C18.6,8,18.58,7.97,18.59,7.94c0,0,0-0.01,0-0.02
				c-0.01,0.01-0.02,0.01-0.03,0.02c0-0.02-0.01-0.03-0.01-0.05c-0.01,0-0.01,0-0.02,0c-0.02,0.06-0.05,0.13-0.07,0.19
				c-0.02-0.06-0.05-0.12-0.07-0.18c0,0-0.01,0-0.01,0c0,0.04,0,0.08,0,0.12c-0.01,0-0.02,0-0.02,0c-0.01-0.02-0.02-0.04-0.02-0.06
				c0-0.04,0.01-0.09,0.03-0.13c0.02-0.04-0.02-0.09-0.02-0.14c0-0.07,0.01-0.14,0.03-0.21c0.01-0.05,0.03-0.09,0.04-0.14
				c0,0,0,0-0.01,0c-0.02,0.03-0.04,0.07-0.06,0.1c-0.01,0-0.01,0-0.02,0c0.01-0.08,0.03-0.15,0.04-0.23c0,0-0.01,0-0.01-0.01
				c-0.02,0.03-0.04,0.06-0.06,0.1c-0.01-0.02-0.01-0.03-0.02-0.04c-0.01,0.03-0.02,0.06-0.03,0.1c-0.02-0.03-0.04-0.06-0.05-0.08
				c-0.03,0.02-0.05,0.03-0.09,0.05c-0.06-0.04-0.01-0.13-0.07-0.2c-0.01,0.09,0.03,0.18-0.09,0.22c-0.01-0.01-0.02-0.02-0.03-0.03
				c-0.04,0.03-0.07,0.06-0.11,0.09c-0.03-0.08-0.05-0.15-0.07-0.23c-0.01,0-0.01,0-0.02,0c0,0.02-0.01,0.04-0.01,0.06
				c0.02,0.09,0.02,0.17-0.01,0.26c-0.06-0.01-0.05-0.05-0.05-0.09c-0.11-0.01-0.06-0.12-0.13-0.16c0,0.04,0,0.08-0.01,0.11
				c0,0.01-0.02,0.02-0.03,0.03c-0.01-0.01-0.02-0.02-0.03-0.03c-0.01-0.01-0.01-0.03-0.01-0.04c-0.01,0-0.01,0-0.01,0
				c0,0-0.01,0-0.01,0c-0.08-0.02-0.13,0.01-0.16,0.08c-0.01,0.02-0.04,0.03-0.06,0.05c-0.02-0.04-0.03-0.08-0.05-0.13
				c0,0.04-0.01,0.07-0.01,0.09c-0.03-0.02-0.07-0.03-0.1-0.05c-0.01,0-0.02-0.01-0.02-0.02c-0.01-0.02-0.03-0.05-0.04-0.07
				c-0.03-0.05-0.06-0.06-0.1-0.01c-0.06-0.01-0.07,0-0.08,0.06c-0.01,0.06-0.03,0.11-0.04,0.17c-0.01,0-0.01,0-0.02,0
				c-0.01-0.06-0.01-0.13-0.03-0.19c-0.02-0.09,0-0.18,0.09-0.25c-0.06-0.03-0.07,0.04-0.12,0.04c-0.01-0.03-0.01-0.06-0.02-0.1
				c-0.05,0.06-0.09,0.12-0.14,0.19c-0.01-0.08-0.03-0.15-0.04-0.23c0,0-0.01,0-0.01,0c-0.06,0.11-0.12,0.22-0.18,0.32
				c-0.01,0-0.01,0-0.02-0.01c-0.03-0.1,0-0.21-0.02-0.32c0,0-0.01,0-0.01,0c-0.02,0.04-0.04,0.07-0.06,0.11c0,0-0.01,0-0.01,0
				c-0.01-0.02-0.02-0.05-0.03-0.08c-0.05,0.06-0.04,0.14-0.12,0.17c-0.01-0.01-0.01-0.02-0.02-0.03c0,0-0.01,0-0.01,0
				c-0.01,0.04-0.01,0.07-0.02,0.11c-0.01,0-0.01,0-0.02,0c0-0.03-0.01-0.06-0.01-0.09c0-0.03-0.02-0.06-0.05-0.06
				c-0.11,0.06-0.14,0.17-0.17,0.28c-0.01-0.09-0.02-0.17-0.03-0.25c-0.01,0-0.01,0-0.02,0c0,0.02,0,0.04-0.01,0.07
				c0,0.06-0.02,0.12-0.06,0.16c-0.01,0.01-0.03,0.01-0.05,0.02c-0.01-0.01-0.02-0.03-0.02-0.04c0-0.04,0-0.09,0-0.13
				c0-0.02-0.01-0.06-0.02-0.06c-0.06-0.01-0.04-0.06-0.05-0.09C15.44,7.04,15.43,7.02,15.42,7c-0.01,0-0.02,0-0.02,0.01
				c0.01,0.13,0.02,0.27,0.02,0.4c-0.02,0.01-0.03,0.03-0.04,0.05c-0.01,0.05-0.03,0.1-0.04,0.15c-0.01,0.06-0.05,0.11-0.02,0.18
				c0.01,0.02,0.03,0.04,0.04,0.06c0.02,0.05,0.01,0.07-0.04,0.08c-0.08-0.16-0.04-0.34-0.03-0.51c-0.04,0.01-0.07,0.01-0.1,0.02
				c-0.05-0.11-0.09-0.21-0.14-0.31c-0.01,0-0.01,0-0.02,0c0,0.01-0.01,0.03-0.01,0.04c0,0.03,0,0.04-0.04,0.06
				c-0.04,0.01-0.06,0.04-0.11,0.03c-0.01,0-0.01,0.01-0.02,0.02c-0.02,0.01-0.04,0.03-0.06,0.04c-0.06,0.01-0.12,0.02-0.19,0.02
				c-0.04,0.03-0.02,0.09-0.07,0.12C14.53,7.46,14.53,7.47,14.53,7.48z M10.88,19.76L10.88,19.76c-0.06,0-0.11,0.01-0.17,0.01
				C10.77,19.77,10.83,19.77,10.88,19.76z M18.65,20.48c-0.01,0-0.01,0-0.02,0c-0.01,0-0.01,0-0.02,0c0-0.02,0-0.04,0-0.06
				c0.01,0,0.03-0.01,0.04-0.01C18.66,20.44,18.66,20.46,18.65,20.48z M18.69,20.47c0.01-0.03,0.02-0.05,0.04-0.08
				c0,0.02,0.01,0.04,0.01,0.06C18.72,20.46,18.7,20.47,18.69,20.47z M15.09,19.86C15.09,19.86,15.09,19.86,15.09,19.86
				C15.1,19.85,15.1,19.85,15.09,19.86C15.1,19.86,15.1,19.86,15.09,19.86z M15.1,19.83C15.1,19.83,15.11,19.83,15.1,19.83
				c-0.01-0.01-0.01-0.01-0.01-0.01c0,0,0,0-0.01,0c-0.01,0-0.01,0-0.02,0.01c0,0,0,0-0.01,0c0-0.01,0-0.02,0-0.03
				c0.08,0,0.15,0,0.23,0c0,0,0,0.01,0,0.01c-0.02,0.01-0.04,0.01-0.05,0.02c0,0.01,0,0.01,0,0.02c0.02,0,0.05,0,0.06-0.01
				c0,0.01,0,0.02,0,0.03c-0.05,0-0.09,0-0.14,0c-0.01,0-0.02-0.01-0.02-0.01C15.12,19.84,15.11,19.84,15.1,19.83z M15.21,16.41
				c0-0.01,0-0.03,0-0.04c-0.02-0.04-0.02-0.05,0-0.07c0.01,0,0.01,0,0.02,0c0,0.01,0,0.01,0,0.02c0.03,0.06,0.03,0.06,0,0.11
				c0,0.01,0,0.02,0,0.02c0.02,0.01,0.01,0.03,0.02,0.04c-0.01,0-0.03,0-0.05,0C15.21,16.46,15.21,16.43,15.21,16.41z M15.27,16.59
				c-0.01-0.01-0.02-0.01-0.03-0.03c0.01-0.01,0.02-0.01,0.02-0.01c0-0.02,0-0.03,0-0.05C15.27,16.53,15.27,16.56,15.27,16.59z
				 M15.03,16.48C15.03,16.48,15.04,16.49,15.03,16.48C15.03,16.49,15.03,16.49,15.03,16.48C15.03,16.48,15.03,16.48,15.03,16.48z
				 M18.49,20.2C18.49,20.2,18.49,20.2,18.49,20.2C18.5,20.2,18.5,20.2,18.49,20.2c0,0-0.01,0-0.02,0c0-0.07,0-0.15,0-0.22
				c0.01,0,0.01,0,0.02,0c0,0.07,0,0.13,0,0.2c0,0,0,0,0,0C18.49,20.19,18.49,20.19,18.49,20.2z M18.54,19.98c0,0,0.01,0,0.01,0
				c0,0,0,0,0.01,0c0,0.03,0,0.06-0.01,0.09C18.54,20.04,18.54,20.01,18.54,19.98z M12.79,20.12L12.79,20.12
				c0.01,0.01,0.01,0.02,0.02,0.02C12.8,20.14,12.8,20.13,12.79,20.12z M14.9,19.79c0.03,0,0.05,0,0.08,0c0,0,0,0.01,0,0.01
				c0,0,0.01,0,0.01,0c0,0,0-0.01,0.01-0.01c0.01,0,0.01,0,0.02,0c0,0.02,0,0.03,0,0.05c-0.01,0.01-0.03,0.01-0.04,0.01
				c-0.02,0-0.04,0.01-0.06,0.01c0,0,0-0.01,0-0.01c0.01,0,0.02,0,0.03,0c0-0.01,0-0.01,0-0.02c-0.01,0-0.02,0-0.03,0
				C14.91,19.81,14.91,19.8,14.9,19.79z M14.85,19.87c0,0,0-0.01,0-0.01c0.02,0,0.03,0,0.05-0.01c0,0,0,0.01,0.01,0.01
				C14.88,19.87,14.87,19.87,14.85,19.87z M15.19,21.6c0-0.02,0-0.05,0-0.07c0-0.04,0-0.08-0.06-0.06
				c-0.01-0.03-0.01-0.06-0.02-0.08c0-0.02-0.01-0.03-0.01-0.05c0.01-0.04,0.01-0.08,0.02-0.12c0.02-0.09-0.02-0.18-0.03-0.27
				c-0.01-0.04,0-0.09-0.05-0.12c-0.01,0-0.01-0.02-0.02-0.03c0.03,0,0.06,0,0.06,0c0.01-0.03,0.01-0.07,0.01-0.1
				c-0.01,0-0.01,0-0.02,0c0,0.03-0.01,0.05-0.01,0.08c0,0-0.01-0.01-0.01-0.01c-0.03,0.01-0.05,0.02-0.08,0.03
				c0,0.01,0,0.01,0,0.02c0.05,0.01,0.04,0.03,0.03,0.06c-0.01,0.02-0.01,0.04-0.02,0.06c0.01,0,0.01,0,0.02,0
				c0-0.02,0.01-0.03,0.01-0.05c0.02,0.01,0.03,0.03,0.03,0.04c-0.01,0.04-0.04,0.08-0.02,0.13c0,0.01-0.01,0.02-0.01,0.03
				c0,0-0.01,0-0.01,0c0-0.03-0.01-0.05-0.01-0.08c-0.01,0.01-0.01,0.01-0.02,0.02c-0.01,0-0.01,0-0.02,0c0-0.07-0.01-0.14-0.01-0.2
				c0-0.02,0.02-0.03,0.01-0.05c-0.01-0.06-0.02-0.12-0.03-0.18c-0.01-0.07-0.01-0.15-0.02-0.22c0-0.08,0.01-0.15,0-0.23
				c-0.01-0.07-0.01-0.14,0-0.21c0-0.01,0-0.02,0-0.04c0.03,0,0.06,0,0.08,0c0.01,0,0.02-0.01,0.02-0.01c0,0.04,0,0.07,0,0.11
				c0.01,0,0.02,0,0.02,0c0.01-0.04,0.03-0.07,0.04-0.11c0.07,0,0.14,0,0.21-0.01c-0.01,0.03-0.01,0.05-0.03,0.08c0,0,0,0.01,0,0.02
				c0,0.01,0,0.02,0,0.04c-0.02,0-0.04,0.01-0.06,0.01c-0.01,0-0.02,0.01-0.04,0.02c0.03,0,0.06,0,0.1,0c0,0,0,0.01,0,0.01
				c-0.01,0.03-0.01,0.05-0.01,0.08c-0.02,0-0.05,0.01-0.06,0.01c0.02,0,0.04,0,0.06,0c-0.01,0.07-0.03,0.14-0.03,0.21
				c0,0.04-0.02,0.08-0.02,0.12c0,0.08,0,0.16,0,0.25c0,0.07-0.01,0.13-0.01,0.2c0,0.03,0.02,0.06,0.02,0.09
				c0,0.09,0,0.18,0.01,0.27c0,0.1,0.01,0.2,0.01,0.31c0,0.01-0.01,0.02-0.01,0.02C15.2,21.6,15.2,21.6,15.19,21.6z M18.58,23.61
				L18.58,23.61c0,0.06,0.01,0.11,0.01,0.17C18.59,23.73,18.59,23.67,18.58,23.61z M18.94,21.7L18.94,21.7
				c0.01-0.01,0.02-0.01,0.02-0.02C18.96,21.69,18.95,21.7,18.94,21.7z M18.99,20.85c0,0.03-0.02,0.05-0.03,0.07
				c0,0.03,0.02,0.06,0.01,0.08c-0.03,0.04,0,0.05,0.03,0.08c0.01-0.06,0.01-0.11,0.02-0.16c0.01,0,0.01,0,0.02,0
				c0.02,0.06,0.03,0.12,0.01,0.18c-0.01,0-0.02-0.01-0.04-0.01c-0.02,0.13-0.03,0.26-0.05,0.38c-0.02,0-0.03-0.01-0.04-0.01
				c0-0.09,0.02-0.17-0.02-0.26c-0.01,0-0.01,0-0.02,0c-0.01,0.1-0.01,0.21-0.02,0.31c-0.01,0-0.01,0-0.02,0
				c0-0.03,0.01-0.07,0.01-0.1c0-0.03-0.01-0.06-0.02-0.1c0,0-0.01,0-0.01,0c-0.01,0.01-0.01,0.03-0.02,0.04c-0.01,0-0.01,0-0.02,0
				c-0.01-0.06-0.01-0.12-0.02-0.19c-0.01,0-0.01,0-0.02,0c-0.01,0.1-0.02,0.19-0.04,0.29c-0.01-0.08-0.03-0.16,0-0.23
				c0.03-0.09,0.02-0.16,0-0.24c0-0.01,0-0.03-0.01-0.05c-0.04,0.02-0.04,0.05-0.03,0.08c0,0.07-0.01,0.14-0.01,0.21
				c0,0.04-0.01,0.09-0.02,0.13c0,0.02-0.01,0.04,0,0.07c0,0.03,0.02,0.07-0.04,0.09c0-0.04-0.01-0.07-0.01-0.11
				c-0.01,0.05-0.02,0.1-0.01,0.14c0.03,0.06,0.02,0.12,0.01,0.18c0,0.02,0.09,0.12,0.11,0.12c0,0,0.01,0,0.01,0
				c-0.03,0.29-0.05,0.58-0.07,0.87c-0.01,0-0.01,0-0.02,0c-0.01-0.06-0.01-0.13-0.02-0.19c0-0.02-0.01-0.03-0.02-0.04
				c0,0-0.03,0-0.03,0.01c0,0.02-0.01,0.03,0,0.05c0,0.02,0,0.04,0.01,0.06c-0.01,0-0.01,0-0.02,0c0-0.02,0-0.03-0.01-0.05
				c-0.01-0.04-0.01-0.09-0.03-0.12c-0.04-0.04-0.06-0.09-0.06-0.13c0-0.08,0.02-0.16,0.03-0.24c0,0,0.02,0.01,0.02,0.01
				c0.01-0.01,0.01-0.02,0.01-0.03c0.04-0.02,0.04-0.03,0.01-0.06c-0.03-0.03-0.03-0.11,0-0.15c0,0.02,0,0.04,0,0.06
				c0,0,0.01,0.01,0.02,0.01c0.01,0.04,0.02,0.07,0.02,0.11c0,0.08,0,0.16,0.01,0.23c0.01,0,0.01,0,0.02,0
				c-0.03-0.07,0.03-0.13,0.01-0.2c-0.02-0.1-0.01-0.2-0.02-0.3c-0.01-0.07-0.02-0.14-0.02-0.21c0-0.05,0.01-0.1,0.01-0.15
				c0-0.03,0-0.05-0.03-0.06c0,0.04,0.01,0.08,0.01,0.12c-0.01,0.04-0.03,0.09-0.04,0.13c0,0.01-0.01,0.02-0.01,0.04
				c0-0.08,0-0.16,0-0.23c0-0.08,0-0.15,0.01-0.23c0-0.02,0.01-0.05,0.02-0.07c0.02-0.03,0.03-0.07,0-0.11
				c0,0.03-0.01,0.05-0.01,0.08c-0.01,0-0.01,0-0.02,0c0.01-0.08,0.01-0.16,0.02-0.24c0.02,0.02,0.02,0.05,0.03,0.05
				c0.04,0.01,0.03,0.05,0.03,0.07c0,0.05-0.01,0.11-0.01,0.16c0,0.01,0.01,0.03,0.01,0.05c0.01-0.05,0.03-0.08,0.03-0.11
				c0-0.12-0.01-0.25-0.01-0.37c0-0.05,0-0.09,0-0.14c0.04,0,0.09,0,0.13,0c0,0.02,0,0.03,0.01,0.05c0,0.02,0,0.03,0,0.05
				c0,0,0.02,0,0.02,0c0.01-0.02,0.01-0.03,0.01-0.05c0-0.01,0-0.03-0.01-0.04c0,0,0,0,0-0.01c0.03,0,0.06,0,0.1,0
				c0.04,0,0.09-0.01,0.13-0.01C19,20.64,19,20.74,18.99,20.85z M19.06,20.13c-0.02,0.02-0.02,0.04-0.02,0.07
				c-0.01,0.08-0.02,0.15-0.02,0.23c-0.06,0.01-0.13,0.01-0.19,0.02c-0.01,0-0.02,0.01-0.04,0.01c0-0.01,0-0.02,0-0.03
				c-0.01-0.03-0.03-0.07-0.04-0.1c0,0,0.01,0,0.01-0.01c0.01,0.02,0.02,0.04,0.03,0.06c0.01,0,0.01,0,0.02,0
				c0.01-0.03,0.01-0.06,0.01-0.08c0.04,0,0.09-0.01,0.13-0.01c0-0.01,0-0.01,0-0.02c-0.05,0-0.11-0.01-0.16-0.01
				c-0.01-0.01-0.01-0.01-0.02-0.02c0,0.01-0.01,0.01-0.01,0.02c0,0-0.01,0-0.01,0c0-0.02,0-0.04,0-0.05c0.02,0,0.03,0,0.05,0.01
				c0.01,0,0.01,0.01,0.01,0.01c0,0,0,0,0-0.01c0,0,0.01,0,0.01,0c0-0.01,0-0.02,0-0.03c-0.01,0-0.01,0-0.02,0
				c0-0.02,0-0.04,0.01-0.06C18.91,20.12,18.98,20.13,19.06,20.13z M18.78,20.06c0,0.01,0,0.03,0,0.05c-0.01,0-0.01,0-0.02,0
				c0.01,0,0.01,0,0.02,0c0,0.02,0,0.04,0,0.06c-0.01,0-0.01,0-0.02,0c0,0.01,0,0.02,0,0.02c0-0.04,0.01-0.08,0.01-0.13
				C18.77,20.06,18.78,20.06,18.78,20.06z M18.72,20.02c-0.03,0.04-0.07,0.07-0.06,0.13c0.01,0.05,0.01,0.1,0.01,0.15
				c0,0.04-0.01,0.07-0.01,0.11c-0.01,0-0.03,0.01-0.04,0.01c0-0.11,0-0.21,0.01-0.32c0-0.03,0-0.07,0-0.1c0.01,0,0.02,0,0.03,0
				c0,0.01,0,0.03,0.01,0.05c0.02-0.02,0.03-0.02,0.03-0.03c0-0.01,0-0.01,0-0.02c0.01,0,0.03,0,0.04,0
				C18.72,20,18.72,20.01,18.72,20.02z M19.25,15.88c0.02,0,0.04,0,0.06,0c0.01,0.05,0.01,0.1,0.01,0.14c0,0.03,0.01,0.06,0.01,0.09
				c-0.01,0-0.02,0-0.03,0C19.28,16.03,19.27,15.95,19.25,15.88z M19.1,16.14c0,0.01,0,0.01,0,0.02c-0.03,0-0.06,0.01-0.08,0.01
				c0-0.02,0-0.03,0-0.05C19.05,16.12,19.08,16.13,19.1,16.14z M18.83,16.12c0.03,0,0.06,0,0.07,0.02c0.03,0.03,0.05,0.01,0.08,0
				c0.01-0.01,0.02,0,0.03,0c0,0.02,0,0.03,0,0.05c-0.04,0.01-0.09,0.01-0.13,0.02c0.01,0.02,0.02,0.02,0.03,0.04
				c-0.04,0-0.07,0-0.11,0.01c0-0.01,0-0.02,0-0.03c0.01,0,0.03,0,0.04-0.01c0-0.01,0-0.01,0-0.02c-0.01,0-0.03,0-0.04,0
				c0-0.01,0-0.02,0-0.02c0-0.02,0-0.04,0-0.06C18.81,16.11,18.82,16.11,18.83,16.12z M15.5,7.43c0-0.01-0.01-0.03-0.01-0.04
				c0,0,0,0,0,0C15.5,7.4,15.5,7.42,15.5,7.43z"/>
			<path d="M14.85,28.09c0-0.02,0-0.03,0-0.03c-0.02-0.22-0.03-0.44-0.11-0.65c-0.03-0.09-0.04-0.18-0.06-0.28
				c0-0.01-0.01-0.02-0.01-0.04c-0.01,0.03-0.01,0.05-0.02,0.08c-0.01-0.02-0.02-0.04-0.03-0.05c-0.01,0-0.01,0-0.02,0
				c-0.01,0.03-0.02,0.05-0.02,0.08c0.01,0.14,0.02,0.29,0.03,0.43c0,0.01,0.01,0.02,0.01,0.03c0.01,0.03,0.03,0.06,0.04,0.09
				c0.01,0.05,0.01,0.1,0.02,0.15c0,0.01,0.02,0.02,0.03,0.04c0.01-0.02,0.01-0.04,0.01-0.05c0,0,0.01,0,0.01,0
				c0.01,0.05,0.02,0.11,0.04,0.16c0,0,0,0,0.01,0c0-0.05-0.01-0.1-0.01-0.16c0.01,0,0.02,0,0.02,0
				C14.81,27.95,14.83,28.01,14.85,28.09z"/>
			<path d="M19.09,26.73c0.06-0.25,0.11-0.5,0.13-0.75c0.01,0,0.01,0,0.02,0c0,0.04,0,0.08-0.01,0.12c0.01,0,0.01,0,0.02,0
				c0.02-0.2,0.05-0.39,0.07-0.59c-0.01,0-0.01,0-0.02-0.01c-0.01,0.02-0.03,0.04-0.05,0.07c0-0.09,0-0.17,0-0.25
				c-0.01,0.01-0.02,0.02-0.02,0.03c0,0.09-0.01,0.18-0.01,0.26c0,0.05-0.03,0.12-0.06,0.12c-0.01,0.1-0.02,0.19-0.03,0.29
				c0,0,0.01,0,0.01,0c0.01-0.05,0.02-0.1,0.03-0.15c0.01,0,0.01,0,0.02,0C19.18,26.17,19.14,26.45,19.09,26.73z"/>
			<path d="M19.06,14.23c0,0.01,0,0.02,0.01,0.03c0.03,0.05,0,0.08-0.01,0.13c-0.01-0.02-0.02-0.03-0.02-0.04
				c0,0.1-0.02,0.19,0,0.28c0.02,0.08,0.05,0.17,0.05,0.25c0-0.05,0.01-0.09,0.01-0.14c0.01,0,0.01,0,0.02,0c0,0.07,0,0.14,0,0.2
				c0,0,0.01,0,0.01,0c0-0.01,0-0.02,0-0.03c-0.01-0.17-0.02-0.34-0.04-0.51c0-0.04-0.01-0.09,0-0.13c0.01-0.07,0.02-0.15,0.03-0.22
				c0-0.02-0.01-0.04-0.01-0.06C19.09,14.08,19.08,14.16,19.06,14.23z"/>
			<path d="M18.91,14.94c-0.01,0.26-0.02,0.53,0.02,0.79c0.05-0.27,0.02-0.53,0.01-0.79C18.93,14.94,18.92,14.94,18.91,14.94z"/>
			<path d="M14.66,14.87c0,0.03,0.01,0.06,0.01,0.09c0,0.05,0,0.09,0,0.14c0,0.04-0.01,0.09,0,0.13c0,0.04,0.02,0.08,0.03,0.13
				c0,0,0,0,0.01,0c0-0.12,0-0.24,0-0.36c0,0,0.01,0,0.01,0c0,0.01,0.01,0.02,0.01,0.03c0.01,0,0.01,0,0.02,0
				c0.01-0.11,0.01-0.22,0.02-0.32c-0.01,0-0.02,0-0.02,0c-0.01,0.04-0.01,0.09-0.02,0.13C14.66,14.81,14.65,14.83,14.66,14.87z"/>
			<path d="M15.08,20.46c0.01-0.04,0.01-0.08-0.02-0.12c-0.03-0.03-0.05-0.07-0.06-0.1c-0.01-0.02,0-0.05,0-0.09
				c-0.04,0.03-0.05,0.11-0.02,0.15c0.07,0.09,0.01,0.18,0.02,0.27c0.01,0.03,0,0.07,0,0.11c0.03-0.03,0.02-0.09,0.08-0.06
				c0-0.03-0.01-0.04-0.01-0.06C15.09,20.53,15.08,20.5,15.08,20.46z"/>
			<path d="M14.86,14.07c0.01-0.16,0.01-0.31,0.02-0.47c0,0,0.01,0,0.01,0c0.01,0.02,0.01,0.03,0.02,0.05c0,0,0.01,0,0.01,0
				c0-0.04-0.01-0.07-0.01-0.11c-0.01,0.01-0.01,0.01-0.03,0.03c0-0.07,0.01-0.12,0.01-0.18c-0.01,0-0.01,0-0.02,0
				c-0.01,0.23-0.02,0.46-0.03,0.68C14.84,14.07,14.85,14.07,14.86,14.07z"/>
			<path d="M13.92,9.1c-0.01,0.02-0.02,0.05-0.02,0.07c0,0.04,0.01,0.09,0.02,0.13c0.01,0.03,0.01,0.06,0.02,0.09
				c0.03-0.01,0.04-0.02,0.06-0.02c-0.01-0.04-0.03-0.09-0.02-0.13C13.98,9.18,13.96,9.14,13.92,9.1z"/>
			<path d="M15.59,7.23c0-0.04,0-0.07,0-0.11c0.02,0,0.03,0.01,0.04,0.01c-0.01-0.11-0.03-0.21-0.04-0.31
				C15.55,6.88,15.55,7.19,15.59,7.23z"/>
			<path d="M19.1,15.2c0,0-0.01,0-0.01,0c-0.01-0.02-0.02-0.03-0.02-0.05c0,0-0.01,0-0.01,0c0.02,0.07,0.04,0.13,0.06,0.2
				c0,0,0,0,0.01,0c0-0.05,0.01-0.1,0.01-0.15c0,0,0.01,0,0.01,0c0,0.01,0,0.03,0.01,0.05c0-0.06,0-0.11,0-0.16c0,0-0.01,0-0.01,0
				c0,0.02,0,0.04,0,0.07c-0.02-0.03-0.03-0.05-0.05-0.08C19.09,15.14,19.1,15.17,19.1,15.2z"/>
			<path d="M19.61,25.04c-0.01-0.2-0.02-0.4-0.02-0.6c-0.01,0-0.01,0-0.02,0c0.01,0.2,0.01,0.4,0.02,0.6
				C19.6,25.04,19.6,25.04,19.61,25.04z"/>
			<path d="M19.39,8.84c0-0.06-0.03-0.1-0.09-0.1c0.02,0.1,0.05,0.19,0.07,0.28C19.37,8.96,19.38,8.9,19.39,8.84z"/>
			<path d="M14.82,14.77c0,0.01,0.01,0.01,0.02,0.02c0-0.14,0-0.28,0-0.4c-0.01,0.08-0.03,0.17-0.03,0.26
				C14.81,14.69,14.82,14.73,14.82,14.77z"/>
			<path d="M19.08,15.54c-0.01,0.08-0.01,0.16-0.02,0.24c0.02,0,0.04,0,0.06-0.01c-0.01-0.08-0.02-0.16-0.02-0.23
				C19.09,15.54,19.08,15.54,19.08,15.54z"/>
			<path d="M16.27,28.11c0.01-0.01,0.01-0.03,0.02-0.04c0.01,0.01,0.01,0.02,0.02,0.03c0.02-0.04,0.04-0.07,0.01-0.11
				c-0.01,0.02-0.01,0.03-0.02,0.05c0-0.07,0-0.13,0-0.19c-0.01,0.09-0.03,0.17-0.04,0.26C16.26,28.1,16.26,28.11,16.27,28.11z"/>
			<path d="M15.5,28.56c0,0.1-0.03,0.2,0.02,0.3c0-0.1,0-0.2,0-0.3C15.51,28.56,15.5,28.56,15.5,28.56z"/>
			<path d="M18.83,7.87c0,0-0.01-0.01-0.01-0.01c-0.03,0.02-0.07,0.05-0.11,0.07c0.02,0.03,0.04,0.05,0.07,0.08
				C18.8,7.96,18.82,7.91,18.83,7.87z"/>
			<path d="M18.66,20.69c-0.01,0.03-0.03,0.06-0.02,0.08c0.01,0.02,0.05,0.02,0.08,0.03c0.01,0.03,0.02,0.07,0.03,0.11
				c0.02-0.05,0-0.16-0.03-0.17c-0.01,0.01-0.02,0.02-0.03,0.04C18.68,20.74,18.67,20.71,18.66,20.69z"/>
			<path d="M19.48,24.53c0.01-0.1,0.01-0.19,0.01-0.27C19.45,24.33,19.45,24.47,19.48,24.53z"/>
			<path d="M17.41,28.46c-0.01,0.09-0.02,0.17-0.03,0.26C17.44,28.59,17.45,28.49,17.41,28.46z"/>
			<path d="M19.26,12.49c0,0.03,0,0.07,0,0.1c0,0,0.01,0,0.01,0c0-0.09,0-0.17,0-0.26c-0.01,0-0.01,0-0.02-0.01
				c-0.01,0.02-0.03,0.04-0.02,0.05C19.28,12.41,19.26,12.45,19.26,12.49z"/>
			<path d="M19.42,24.91c-0.07,0.03-0.03,0.07-0.03,0.11c0.01,0,0.01,0,0.02,0c0.01-0.08,0.02-0.16,0.03-0.25c-0.01,0-0.02,0-0.04,0
				c0,0.04,0.01,0.07,0.01,0.11C19.42,24.89,19.43,24.91,19.42,24.91z"/>
			<path d="M17.07,28.4c0.03-0.08,0.03-0.16,0.03-0.25c-0.01,0-0.01,0-0.02,0c-0.01,0.08-0.02,0.16-0.02,0.24
				C17.06,28.4,17.06,28.4,17.07,28.4z"/>
			<path d="M19.2,14.49c-0.01-0.1-0.03-0.2-0.04-0.3c-0.01,0-0.01,0-0.02,0c0.02,0.1,0.03,0.2,0.05,0.3
				C19.19,14.49,19.19,14.49,19.2,14.49z"/>
			<path d="M19.6,25.11c0,0.11,0,0.21,0,0.31C19.63,25.39,19.63,25.16,19.6,25.11z"/>
			<path d="M18.27,28.18c-0.01,0.02-0.02,0.05-0.03,0.05c-0.05,0.02-0.03,0.06-0.03,0.09C18.25,28.28,18.32,28.26,18.27,28.18z"/>
			<path d="M16.71,28.43c-0.01,0.05-0.02,0.1-0.03,0.15c-0.01,0.05-0.01,0.1-0.01,0.14c0,0,0,0,0.01,0c0.02-0.1,0.03-0.19,0.05-0.29
				C16.72,28.43,16.71,28.43,16.71,28.43z"/>
			<path d="M14.91,14.82c-0.01,0.01-0.02,0.02-0.02,0.03c0,0.05,0.01,0.1,0.01,0.15c0.01,0,0.01,0,0.02,0
				c0.01-0.05,0.01-0.1,0.02-0.15C14.93,14.84,14.92,14.82,14.91,14.82z"/>
			<polygon points="18.94,27.2 18.94,27.2 18.94,27.2 18.93,27.19 18.94,27.2 			"/>
			<path d="M18.94,27.2c0.01,0.11,0.01,0.21,0.08,0.31C18.99,27.41,18.96,27.31,18.94,27.2z"/>
			<path d="M18.79,21c-0.04,0.04-0.01,0.07,0.01,0.1c0.01-0.07,0.01-0.14,0.02-0.2c-0.01,0-0.01,0-0.02,0
				c0,0.02-0.01,0.03-0.01,0.05C18.79,20.96,18.8,20.99,18.79,21z"/>
			<path d="M14.91,14.14c0.01-0.02,0.02-0.06,0.01-0.07c-0.04-0.03-0.01-0.06,0-0.08c0-0.01,0.01-0.02,0.01-0.04
				C14.87,14.01,14.88,14.08,14.91,14.14z"/>
			<path d="M18.7,7.83c0.01-0.05,0.01-0.09,0.02-0.13c-0.02,0.01-0.04,0.01-0.05,0.02C18.68,7.75,18.62,7.8,18.7,7.83z"/>
			<path d="M16.36,28.62c0-0.06,0.01-0.13,0.01-0.19C16.33,28.52,16.33,28.6,16.36,28.62z"/>
			<path d="M19.46,24.58c-0.04,0.06-0.04,0.1,0,0.14c0.01,0,0.01,0,0.02,0C19.47,24.68,19.46,24.63,19.46,24.58z"/>
			<path d="M14.53,24.13c0-0.06,0-0.12,0-0.19C14.49,23.99,14.49,24.1,14.53,24.13z"/>
			<path d="M14.45,26.42c0.01-0.08,0.02-0.15,0.03-0.23C14.44,26.28,14.43,26.37,14.45,26.42z"/>
			<path d="M19.38,21.79c0-0.05,0.01-0.1,0.01-0.16C19.34,21.69,19.34,21.76,19.38,21.79z"/>
			<path d="M14.77,27.18c0-0.07,0-0.14,0-0.21c0,0-0.01,0-0.01,0c0,0.07,0,0.14,0,0.21C14.76,27.18,14.76,27.18,14.77,27.18z"/>
			<path d="M16.95,7.2c0.01-0.03,0.02-0.06,0.03-0.09c-0.01,0.01-0.02,0.01-0.02,0.02c-0.01-0.02-0.01-0.04-0.02-0.06
				c0,0,0,0-0.01,0c0,0.04,0,0.08,0,0.12C16.94,7.2,16.95,7.2,16.95,7.2z"/>
			<path d="M14.48,27.61c0.01,0.07,0.02,0.15,0.02,0.22c0.01,0,0.01,0,0.02,0c-0.01-0.07-0.01-0.15-0.02-0.22
				C14.49,27.61,14.48,27.61,14.48,27.61z"/>
			<path d="M14.6,22.37c0,0.05-0.01,0.1-0.01,0.16C14.66,22.48,14.6,22.42,14.6,22.37z"/>
			<path d="M19.17,13.4c-0.01-0.06-0.02-0.12-0.02-0.19c-0.01,0-0.01,0-0.02,0c0.01,0.06,0.02,0.12,0.03,0.19
				C19.16,13.41,19.16,13.4,19.17,13.4z"/>
			<path d="M16.28,28.28c-0.01,0.07-0.02,0.13-0.02,0.2c0.01,0,0.01,0,0.02,0c0-0.07,0.01-0.13,0.01-0.2
				C16.29,28.28,16.28,28.28,16.28,28.28z"/>
			<path d="M15.85,28.43c0,0.05,0,0.1,0,0.16c0.01,0,0.01,0,0.02,0c0-0.05,0-0.11,0-0.16C15.87,28.43,15.86,28.43,15.85,28.43z"/>
			<path d="M14.57,21.56c0.01,0.05,0.02,0.1,0.03,0.15c0.01,0,0.01,0,0.02,0c-0.01-0.05-0.01-0.1-0.02-0.15
				C14.58,21.55,14.58,21.56,14.57,21.56z"/>
			<path d="M18.7,22.03c0.01-0.01,0.01-0.03,0.02-0.05c-0.08,0.05-0.08,0.05-0.06,0.08C18.67,22.05,18.69,22.04,18.7,22.03z"/>
			<path d="M17.88,28.23c-0.01,0.05-0.01,0.1-0.02,0.14c0,0.01,0,0.03,0,0.04c0,0,0,0,0,0c0.01-0.06,0.02-0.12,0.03-0.18
				C17.89,28.23,17.88,28.23,17.88,28.23z"/>
			<path d="M14.84,15.15c0.03-0.08,0.02-0.13-0.01-0.15C14.84,15.05,14.84,15.1,14.84,15.15z"/>
			<path d="M16.83,28.52c-0.01,0.04-0.01,0.08-0.02,0.13c0.01,0,0.02,0,0.02,0c0.01-0.04,0.01-0.08,0.02-0.13
				C16.84,28.52,16.83,28.52,16.83,28.52z"/>
			<path d="M19.3,22.97c0.01-0.04,0.02-0.08,0.03-0.11C19.26,22.95,19.26,22.96,19.3,22.97z"/>
			<path d="M19.2,13.07c0-0.05-0.01-0.11-0.01-0.16c-0.01,0-0.01,0-0.02,0c0,0.05,0.01,0.11,0.01,0.16
				C19.19,13.07,19.2,13.07,19.2,13.07z"/>
			<path d="M15.18,28.13c0,0.06,0,0.13,0,0.19c0,0,0.01,0,0.01,0c0-0.06,0-0.13,0-0.19C15.18,28.13,15.18,28.13,15.18,28.13z"/>
			<path d="M19.32,22.68c-0.01,0.04-0.01,0.08-0.02,0.12c0.01,0,0.02,0,0.03,0c0-0.04,0.01-0.08,0.01-0.12
				C19.33,22.69,19.33,22.69,19.32,22.68z"/>
			<path d="M14.76,13.79c0.01,0,0.02,0,0.03,0c0-0.04,0-0.07,0.01-0.11c-0.01,0-0.02,0-0.02,0C14.77,13.72,14.76,13.75,14.76,13.79z
				"/>
			<path d="M14.54,22.03c-0.02,0-0.03-0.01-0.05-0.01c-0.01,0.02-0.01,0.03-0.02,0.05c0.05-0.02,0.1-0.02,0.08-0.09
				C14.55,22,14.54,22.01,14.54,22.03z"/>
			<path d="M13.67,7.81c0,0,0.01,0,0.01,0c0-0.02,0-0.04-0.01-0.07c-0.01-0.01-0.03-0.01-0.04-0.02c0,0-0.01,0-0.01,0.01
				C13.64,7.76,13.65,7.79,13.67,7.81z"/>
			<path d="M14.8,12.94c0.01-0.02,0.03-0.04,0.03-0.05c0-0.01-0.02-0.02-0.04-0.03c0,0.03,0,0.06-0.01,0.08
				C14.78,12.94,14.79,12.94,14.8,12.94z"/>
			<polygon points="14.79,12.85 14.78,12.85 14.78,12.85 			"/>
			<path d="M19.16,21.53c0.01-0.03,0.02-0.07,0.03-0.1C19.12,21.49,19.12,21.52,19.16,21.53z"/>
			<path d="M17.88,28.58c-0.01,0.04-0.01,0.08-0.02,0.12c0.01,0,0.01,0,0.02,0c0.01-0.04,0.01-0.08,0.02-0.12
				C17.89,28.58,17.89,28.58,17.88,28.58z"/>
			<path d="M19.38,21.46c0.01-0.03,0.02-0.07,0.03-0.1c0,0-0.01,0-0.01,0c-0.01,0.03-0.03,0.06-0.04,0.1
				C19.36,21.46,19.37,21.46,19.38,21.46z"/>
			<path d="M18.98,15.73c0.01,0,0.02,0,0.03,0c0-0.03,0.01-0.05,0.01-0.08c-0.01,0-0.02,0-0.03,0
				C18.99,15.68,18.98,15.71,18.98,15.73z"/>
			<path d="M14.61,20.64c0,0.05,0.01,0.09,0.01,0.14c0,0,0.01,0,0.01,0c0-0.05-0.01-0.09-0.01-0.14
				C14.62,20.64,14.61,20.64,14.61,20.64z"/>
			<path d="M15.84,27.9c0,0.03,0,0.06,0,0.1c0,0,0.01,0,0.01,0c0-0.03,0-0.06,0-0.09C15.85,27.9,15.85,27.9,15.84,27.9z"/>
			<path d="M15.18,27.75c0.01,0,0.01,0,0.02-0.01c-0.01-0.03-0.02-0.06-0.03-0.09c-0.01,0-0.02,0.01-0.03,0.01
				C15.15,27.69,15.17,27.72,15.18,27.75z"/>
			<path d="M14.73,21.52c0-0.04,0-0.08,0-0.12c0,0-0.01,0-0.01,0c0,0.04,0,0.08,0,0.12C14.72,21.52,14.73,21.52,14.73,21.52z"/>
			<path d="M19.02,16.01c0-0.04-0.01-0.08-0.01-0.12c-0.01,0-0.01,0-0.02,0c0,0.04,0.01,0.08,0.01,0.12
				C19,16.01,19.01,16.01,19.02,16.01z"/>
			<path d="M14.88,14.18c0,0.04,0,0.08,0.01,0.12c0,0,0.01,0,0.01,0c0-0.04,0-0.08,0-0.12C14.9,14.17,14.89,14.18,14.88,14.18z"/>
			<path d="M17.25,28.66c-0.01,0.04-0.01,0.07-0.02,0.11c0.01,0,0.02,0,0.02,0c0-0.04,0.01-0.07,0.01-0.11
				C17.26,28.66,17.25,28.66,17.25,28.66z"/>
			<path d="M18.07,28.22c-0.01,0.04-0.03,0.08-0.04,0.13c0.01,0,0.01,0,0.02,0c0.01-0.04,0.03-0.08,0.04-0.12
				C18.08,28.22,18.07,28.22,18.07,28.22z"/>
			<polygon points="6.65,17.47 6.65,17.47 6.65,17.47 			"/>
			<polygon points="7.3,20.12 7.31,20.12 7.3,20.12 			"/>
			<path d="M6.85,15.8c-0.03,0.01-0.06,0.03-0.09,0.04c-0.05,0.01-0.1,0.01-0.15,0.02c-0.01,0-0.02,0.02-0.04,0.03
				c0.02,0.01,0.04,0.01,0.05,0.01c0,0,0,0.01,0,0.01c-0.05,0.01-0.11,0.02-0.16,0.04c0,0,0,0,0,0.01c0.05,0,0.1-0.01,0.16-0.01
				c0,0.01,0,0.02,0,0.02c-0.06,0.02-0.12,0.03-0.2,0.05c0.02,0,0.03,0,0.03,0C6.67,16.01,6.88,16,7.1,15.92
				c0.09-0.03,0.18-0.04,0.28-0.06c0.01,0,0.02-0.01,0.04-0.01c-0.03-0.01-0.05-0.01-0.08-0.02c0.02-0.01,0.04-0.02,0.05-0.03
				c0-0.01,0-0.01,0-0.02c-0.03-0.01-0.05-0.02-0.08-0.02c-0.14,0.01-0.29,0.02-0.43,0.03C6.87,15.79,6.86,15.8,6.85,15.8z"/>
			<path d="M14.29,20c0.05,0.01,0.1,0.01,0.15,0.01c0.09,0,0.18,0,0.27,0c0.05,0,0.09-0.02,0.14-0.03c0-0.01,0-0.01,0-0.02
				c-0.05-0.02-0.1-0.03-0.15-0.05c-0.07,0.03-0.14,0.03-0.21-0.02c-0.04-0.03-0.07-0.07-0.13-0.06c-0.05,0.01-0.1,0.01-0.15,0.01
				c-0.06,0-0.13-0.01-0.19-0.02c-0.01,0-0.02,0-0.04,0.01c0.04,0.02,0.08,0.04,0.13,0.06c-0.07,0.01-0.14,0.02-0.2,0.03
				c-0.02,0-0.03,0-0.05,0c0,0,0,0.02,0,0.02c0.02,0.01,0.03,0.01,0.05,0.01c0.01,0,0.03,0,0.04-0.01c0.03-0.01,0.06-0.02,0.09-0.03
				c0,0.02,0,0.04,0,0.05c0.01,0,0.03,0,0.04,0c0.03-0.01,0.07-0.03,0.1-0.04c0,0,0,0.01,0.01,0.01c-0.02,0.01-0.04,0.02-0.06,0.03
				c0,0.01,0,0.01,0,0.02C14.16,20,14.2,20,14.22,20.01c0.02-0.02,0.04-0.03,0.05-0.05c-0.01,0-0.02-0.01-0.03-0.01c0,0,0,0,0-0.01
				c0.07,0,0.13,0.01,0.2,0.01c0,0,0,0.01,0,0.01c-0.04,0-0.08,0-0.12,0C14.31,19.97,14.3,19.99,14.29,20z"/>
			<path d="M9.14,20.41c-0.09,0-0.18-0.01-0.26-0.01c-0.05,0-0.12-0.03-0.12-0.06c-0.1-0.01-0.19-0.02-0.29-0.03c0,0,0,0.01,0,0.01
				c0.05,0.01,0.1,0.02,0.15,0.03c0,0.01,0,0.01,0,0.02c-0.29-0.01-0.57-0.05-0.85-0.1c0.25,0.06,0.5,0.11,0.75,0.13
				c0,0.01,0,0.01,0,0.02c-0.04,0-0.08,0-0.12-0.01c0,0.01,0,0.01,0,0.02c0.2,0.02,0.39,0.05,0.59,0.07c0-0.01,0-0.01,0.01-0.02
				c-0.02-0.01-0.04-0.03-0.07-0.05c0.09,0,0.17,0,0.25,0C9.16,20.42,9.15,20.41,9.14,20.41z"/>
			<path d="M20.5,20.29c-0.08-0.02-0.16-0.03-0.23-0.05c-0.01,0-0.02,0-0.03,0.01c-0.05,0.03-0.08,0-0.13-0.01
				c0.02-0.01,0.03-0.02,0.04-0.02c-0.1,0-0.19-0.02-0.28,0c-0.08,0.02-0.17,0.05-0.25,0.05c0.05,0,0.09,0.01,0.14,0.01
				c0,0.01,0,0.01,0,0.02c-0.07,0-0.14,0-0.2,0c0,0,0,0.01,0,0.01c0.01,0,0.02,0,0.03,0c0.17-0.01,0.34-0.02,0.51-0.04
				c0.04,0,0.09-0.01,0.13,0c0.07,0.01,0.15,0.02,0.22,0.03C20.46,20.31,20.48,20.3,20.5,20.29z"/>
			<path d="M14.19,16.17c-0.09,0.07-0.18,0.01-0.27,0.02c-0.03,0.01-0.07,0-0.11,0c0.03,0.03,0.09,0.02,0.06,0.08
				c0.03,0,0.04-0.01,0.06-0.01c0.03,0,0.07-0.01,0.1,0c0.04,0.01,0.08,0.01,0.12-0.02c0.03-0.03,0.07-0.05,0.1-0.06
				c0.02-0.01,0.05,0,0.09,0C14.32,16.15,14.23,16.14,14.19,16.17z"/>
			<path d="M20.43,16.04c0.16,0.01,0.31,0.01,0.47,0.02c0,0,0,0.01,0,0.01c-0.02,0.01-0.03,0.01-0.05,0.02c0,0,0,0.01,0,0.01
				c0.04,0,0.07-0.01,0.11-0.01c-0.01-0.01-0.01-0.01-0.03-0.03c0.07,0,0.12,0.01,0.18,0.01c0-0.01,0-0.01,0-0.02
				c-0.23-0.01-0.46-0.02-0.68-0.03C20.43,16.02,20.43,16.03,20.43,16.04z"/>
			<path d="M25.26,15.16c0.06,0.01,0.09-0.02,0.13-0.06c-0.02-0.01-0.05-0.02-0.07-0.02c-0.04,0-0.09,0.01-0.13,0.02
				c-0.03,0.01-0.06,0.01-0.09,0.02c0.01,0.03,0.02,0.04,0.02,0.06C25.17,15.17,25.22,15.15,25.26,15.16z"/>
			<path d="M27.38,16.77c0,0.02-0.01,0.03-0.01,0.04c0.11-0.01,0.21-0.03,0.31-0.04c-0.06-0.03-0.37-0.03-0.41,0.01
				C27.3,16.77,27.34,16.77,27.38,16.77z"/>
			<path d="M19.4,20.33c0,0,0-0.01,0-0.01c-0.02,0-0.04,0-0.07,0c0.03-0.02,0.05-0.03,0.08-0.05c-0.04,0.01-0.07,0.01-0.11,0.01
				c0,0,0-0.01,0-0.01c0.02-0.01,0.03-0.02,0.05-0.02c0,0,0-0.01,0-0.01c-0.07,0.02-0.13,0.04-0.2,0.06c0,0,0,0,0,0.01
				c0.05,0,0.1,0.01,0.15,0.01c0,0,0,0.01,0,0.01c-0.01,0-0.03,0-0.05,0.01C19.3,20.33,19.35,20.33,19.4,20.33z"/>
			<path d="M9.46,20.77c0,0.01,0,0.01,0,0.02c0.2-0.01,0.4-0.02,0.6-0.02c0-0.01,0-0.01,0-0.02C9.86,20.76,9.66,20.76,9.46,20.77z"
				/>
			<path d="M25.66,20.57c0.06,0,0.1-0.03,0.1-0.09c-0.1,0.02-0.19,0.05-0.28,0.07C25.54,20.55,25.6,20.56,25.66,20.57z"/>
			<polygon points="14.75,19.85 14.75,19.85 14.75,19.85 14.75,19.85 14.75,19.85 			"/>
			<path d="M14.52,19.83c-0.02,0-0.04,0-0.07,0.01c0.02,0.02,0.02,0.03,0.03,0.03c0.09,0.01,0.18,0.03,0.26-0.02
				c-0.01,0-0.03-0.01-0.04-0.01C14.65,19.83,14.58,19.83,14.52,19.83z"/>
			<path d="M14.73,20.21C14.73,20.21,14.73,20.21,14.73,20.21c-0.01-0.01-0.02-0.01-0.03-0.01c0-0.05-0.01-0.11-0.01-0.16
				c0,0,0,0,0,0c0,0.05,0,0.11,0,0.16c-0.07-0.01-0.13-0.02-0.19-0.02c0.01,0,0.02,0.01,0.05,0.01c-0.05,0.02-0.08,0.03-0.11,0.04
				c0.04,0.01,0.09,0.01,0.12,0.01c0.05-0.01,0.1-0.01,0.14-0.02c0,0.01,0,0.03,0,0.04c0.01,0,0.01,0,0.02,0c0-0.01,0-0.03,0-0.04
				C14.71,20.22,14.72,20.22,14.73,20.21z"/>
			<path d="M20.1,16.03c-0.08-0.01-0.17-0.03-0.26-0.03c-0.04,0-0.08,0.01-0.12,0.01c-0.01,0-0.01,0.01-0.02,0.02
				C19.85,16.03,19.98,16.03,20.1,16.03z"/>
			<polygon points="6.65,17.47 6.65,17.47 6.65,17.47 			"/>
			<path d="M6.39,17.45c0.01,0.01,0.03,0.01,0.04,0.02c-0.01,0.01-0.02,0.01-0.03,0.02c0.04,0.02,0.07,0.04,0.11,0.01
				c-0.02-0.01-0.03-0.01-0.05-0.02c0.07,0,0.13,0,0.19,0c-0.09-0.01-0.17-0.03-0.26-0.04C6.39,17.44,6.39,17.44,6.39,17.45z"/>
			<path d="M5.64,16.7c0.1,0,0.2,0,0.3,0c0-0.01,0-0.01,0-0.02C5.84,16.68,5.74,16.65,5.64,16.7z"/>
			<path d="M26.48,19.96c0.06,0.02,0.1,0.04,0.15,0.06c0,0,0.01-0.01,0.01-0.01c-0.02-0.03-0.05-0.07-0.07-0.11
				C26.54,19.91,26.51,19.93,26.48,19.96z"/>
			<path d="M13.77,19.91c-0.01-0.01-0.02-0.02-0.04-0.03c0.03-0.01,0.06-0.02,0.08-0.03c-0.03-0.01-0.06-0.03-0.08-0.02
				c-0.02,0.01-0.02,0.05-0.03,0.08c-0.03,0.01-0.07,0.02-0.11,0.03C13.64,19.96,13.76,19.94,13.77,19.91z"/>
			<path d="M9.97,20.66c0.1,0.01,0.19,0.01,0.27,0.01C10.17,20.63,10.03,20.63,9.97,20.66z"/>
			<path d="M6.04,18.59c-0.09-0.01-0.17-0.02-0.26-0.03C5.91,18.62,6.01,18.63,6.04,18.59z"/>
			<path d="M22.12,20.41c-0.03,0.05-0.08,0.02-0.12,0.03c-0.03,0-0.07,0-0.1,0c0,0,0,0.01,0,0.01c0.09,0,0.17,0,0.26,0
				c0-0.01,0-0.01,0.01-0.02C22.15,20.43,22.12,20.41,22.12,20.41z"/>
			<path d="M9.73,20.59c-0.04,0-0.07,0.01-0.11,0.01c-0.01,0-0.03,0.01-0.03,0c-0.03-0.07-0.07-0.03-0.11-0.03c0,0.01,0,0.01,0,0.02
				c0.08,0.01,0.16,0.02,0.25,0.03C9.73,20.61,9.73,20.6,9.73,20.59z"/>
			<path d="M6.35,18.28c0-0.01,0-0.01,0-0.02c-0.08-0.01-0.16-0.02-0.24-0.02c0,0.01,0,0.01,0,0.02
				C6.18,18.28,6.26,18.28,6.35,18.28z"/>
			<path d="M20.01,20.37c0,0,0,0.01,0,0.01c0.1-0.01,0.2-0.03,0.3-0.04c0-0.01,0-0.01,0-0.02C20.21,20.33,20.11,20.35,20.01,20.37z"
				/>
			<path d="M9.38,20.79c-0.11,0-0.21,0-0.31,0C9.11,20.81,9.33,20.81,9.38,20.79z"/>
			<path d="M6.18,19.39c0.04,0.04,0.06,0.11,0.14,0.06c-0.02-0.01-0.05-0.02-0.05-0.03C6.25,19.37,6.21,19.39,6.18,19.39z"/>
			<path d="M6.07,17.89c-0.05-0.01-0.1-0.02-0.15-0.03c-0.05-0.01-0.1-0.01-0.15-0.01c0,0,0,0,0,0.01c0.1,0.02,0.19,0.03,0.29,0.05
				C6.07,17.9,6.07,17.89,6.07,17.89z"/>
			<path d="M7.29,20.12c-0.11,0.01-0.21,0.01-0.31,0.08C7.09,20.17,7.19,20.14,7.29,20.12z"/>
			<polygon points="7.3,20.12 7.3,20.12 7.29,20.12 			"/>
			<path d="M13.5,19.97c-0.04-0.04-0.07-0.01-0.1,0.01c0.07,0.01,0.14,0.01,0.2,0.02c0-0.01,0-0.01,0-0.02
				c-0.02,0-0.03-0.01-0.05-0.01C13.54,19.97,13.51,19.98,13.5,19.97z"/>
			<path d="M20.43,16.11c0.03-0.04,0.06-0.01,0.08,0c0.01,0,0.02,0.01,0.04,0.01c-0.06-0.06-0.12-0.06-0.19-0.02
				C20.38,16.1,20.42,16.12,20.43,16.11z"/>
			<path d="M26.78,19.84c-0.03,0.02-0.09-0.04-0.11,0.04c0.05,0.01,0.09,0.01,0.13,0.02C26.79,19.87,26.79,19.86,26.78,19.84z"/>
			<path d="M6.06,17.56c-0.09-0.04-0.16-0.04-0.19-0.01C5.94,17.55,6,17.55,6.06,17.56z"/>
			<path d="M9.77,20.64c0,0.01,0,0.01,0,0.02c0.05-0.01,0.1-0.01,0.14-0.02C9.85,20.6,9.82,20.6,9.77,20.64z"/>
			<path d="M10.56,15.71c-0.06-0.04-0.16-0.04-0.19,0C10.44,15.71,10.5,15.71,10.56,15.71z"/>
			<path d="M8.08,15.64c0.08,0.01,0.15,0.02,0.23,0.03C8.21,15.62,8.12,15.61,8.08,15.64z"/>
			<path d="M12.71,20.56c0.05,0,0.1,0.01,0.16,0.01C12.81,20.52,12.74,20.52,12.71,20.56z"/>
			<path d="M7.31,15.95c0.07,0,0.14,0,0.21,0c0,0,0-0.01,0-0.01c-0.07,0-0.14,0-0.21,0C7.31,15.94,7.31,15.94,7.31,15.95z"/>
			<path d="M27.39,18.17c-0.01-0.01-0.01-0.02-0.02-0.02c0.02-0.01,0.04-0.01,0.06-0.02c0,0,0,0,0-0.01c-0.04,0-0.08,0-0.12,0
				c0,0.01,0,0.01,0,0.02C27.33,18.15,27.36,18.16,27.39,18.17z"/>
			<path d="M6.67,15.68c0,0.01,0,0.01,0,0.02c0.07-0.01,0.15-0.01,0.22-0.02c0-0.01,0-0.01,0-0.02C6.82,15.66,6.74,15.67,6.67,15.68
				z"/>
			<path d="M11.96,15.77c0.06,0.07,0.11,0.01,0.16,0.01C12.07,15.78,12.02,15.78,11.96,15.77z"/>
			<path d="M21.09,20.35c0.06-0.01,0.12-0.02,0.19-0.02c0-0.01,0-0.01,0-0.02c-0.06,0.01-0.12,0.02-0.19,0.03
				C21.09,20.34,21.09,20.34,21.09,20.35z"/>
			<path d="M6.02,17.46c0.07,0,0.13,0.01,0.2,0.01c0,0,0-0.01,0-0.01c-0.07-0.01-0.13-0.02-0.2-0.02
				C6.02,17.44,6.02,17.45,6.02,17.46z"/>
			<path d="M5.91,17.04c0,0.01,0,0.01,0,0.02c0.05,0,0.11,0,0.16,0c0-0.01,0-0.01,0-0.02C6.02,17.04,5.96,17.04,5.91,17.04z"/>
			<path d="M12.94,15.77c0-0.01,0-0.01,0-0.02c-0.05,0.01-0.1,0.02-0.15,0.03c0,0.01,0,0.01,0,0.02
				C12.85,15.79,12.9,15.78,12.94,15.77z"/>
			<path d="M14.46,15.87c-0.08,0-0.15,0-0.23,0c0,0.01,0,0.01,0,0.02C14.31,15.88,14.39,15.88,14.46,15.87
				C14.46,15.87,14.46,15.87,14.46,15.87z"/>
			<path d="M12.47,19.88c0.01,0.01,0.03,0.01,0.05,0.02c-0.05-0.08-0.05-0.08-0.08-0.06C12.45,19.85,12.46,19.87,12.47,19.88z"/>
			<path d="M15.19,20.01c0.01-0.03,0.02-0.06,0.03-0.09c-0.04-0.01-0.04-0.01-0.04,0.09C15.18,20,15.18,20,15.19,20.01z"/>
			<path d="M6.27,19.06c-0.05-0.01-0.1-0.01-0.14-0.02c-0.01,0-0.03,0-0.04,0c0,0,0,0,0,0c0.06,0.01,0.12,0.02,0.18,0.03
				C6.27,19.07,6.27,19.06,6.27,19.06z"/>
			<path d="M5.86,17.99c0,0.01,0,0.02,0,0.02c0.04,0.01,0.08,0.01,0.13,0.02c0-0.01,0-0.01,0-0.02C5.94,18,5.9,17.99,5.86,17.99z"/>
			<path d="M11.53,20.48c0.04,0.01,0.08,0.02,0.11,0.03C11.54,20.44,11.54,20.44,11.53,20.48z"/>
			<path d="M21.43,20.39c0.05,0,0.11-0.01,0.16-0.01c0-0.01,0-0.01,0-0.02c-0.05,0-0.11,0.01-0.16,0.01
				C21.43,20.37,21.43,20.38,21.43,20.39z"/>
			<path d="M6.18,16.36c0,0,0,0.01,0,0.01c0.06,0,0.13,0,0.19,0c0,0,0-0.01,0-0.01C6.31,16.36,6.24,16.36,6.18,16.36z"/>
			<path d="M11.7,20.48c0,0.01,0,0.02,0,0.03c0.04,0,0.08,0.01,0.12,0.01c0-0.01,0-0.01,0-0.02C11.77,20.49,11.74,20.49,11.7,20.48z
				"/>
			<path d="M20.82,15.95c-0.04,0-0.07-0.01-0.11-0.01c0,0.01,0,0.02,0,0.03c0.04,0,0.07,0,0.11,0.01
				C20.82,15.97,20.82,15.96,20.82,15.95z"/>
			<path d="M12.47,15.72c0-0.02,0.01-0.03,0.01-0.05c-0.02,0-0.03-0.01-0.05-0.02c0.02,0.05,0.02,0.1,0.09,0.08
				C12.5,15.73,12.49,15.72,12.47,15.72z"/>
			<path d="M26.76,14.85c0.01-0.01,0.01-0.03,0.01-0.04c0,0,0-0.01-0.01-0.01c-0.03,0.02-0.05,0.03-0.08,0.05c0,0,0,0.01,0,0.01
				C26.71,14.86,26.73,14.86,26.76,14.85z"/>
			<path d="M21.56,15.98c0.02,0.01,0.04,0.03,0.05,0.03c0.01,0,0.02-0.02,0.03-0.04c-0.03,0-0.06,0-0.08-0.01
				C21.56,15.96,21.56,15.97,21.56,15.98z"/>
			<polygon points="21.65,15.97 21.65,15.97 21.65,15.97 21.65,15.96 21.65,15.96 			"/>
			<path d="M12.97,20.34c0.03,0.01,0.07,0.02,0.1,0.03C13,20.3,12.98,20.3,12.97,20.34z"/>
			<path d="M5.8,19.04c0,0.01,0,0.01,0,0.02c0.04,0.01,0.08,0.01,0.12,0.02c0-0.01,0-0.01,0-0.02C5.88,19.06,5.84,19.05,5.8,19.04z"
				/>
			<path d="M13.04,20.53c0,0.01-0.01,0.02-0.01,0.03c0.03,0.01,0.07,0.02,0.1,0.03c0,0,0-0.01,0-0.01
				C13.11,20.56,13.08,20.55,13.04,20.53z"/>
			<path d="M13.72,15.81c0.05,0,0.09-0.01,0.14-0.01c0-0.01,0-0.01,0-0.02c-0.05,0-0.09,0.01-0.14,0.01
				C13.72,15.8,13.72,15.81,13.72,15.81z"/>
			<path d="M6.6,17.02c-0.03,0-0.06,0-0.1,0c0,0,0,0.01,0,0.01c0.03,0,0.06,0,0.09,0C6.6,17.03,6.6,17.03,6.6,17.02z"/>
			<path d="M6.83,16.32c-0.03,0.01-0.06,0.03-0.09,0.04c0,0.01,0,0.01,0.01,0.02c0.03-0.01,0.06-0.02,0.09-0.03
				C6.84,16.34,6.84,16.33,6.83,16.32z"/>
			<path d="M13.1,15.9c-0.04,0-0.08,0-0.12,0c0,0,0,0.01,0,0.01c0.04,0,0.08,0,0.12,0C13.1,15.91,13.1,15.91,13.1,15.9z"/>
			<path d="M20.32,16.06c-0.04,0-0.08,0-0.12,0.01c0,0,0,0.01,0,0.01c0.04,0,0.08,0,0.12,0C20.32,16.08,20.32,16.07,20.32,16.06z"/>
			<path d="M5.73,18.41c0,0.01,0,0.02,0,0.02c0.04,0,0.07,0.01,0.11,0.01c0-0.01,0-0.01,0-0.02C5.8,18.42,5.77,18.42,5.73,18.41z"/>
			<path d="M6.16,19.21c0,0.01,0,0.01,0,0.02c0.04,0.01,0.08,0.03,0.12,0.04c0-0.01,0-0.01,0-0.02C6.24,19.23,6.2,19.22,6.16,19.21z
				"/>
		</g>
	</g>
</g>
</svg>
