<?xml version="1.0" encoding="utf-8"?>
<!-- Generator: Adobe Illustrator 27.1.1, SVG Export Plug-In . SVG Version: 6.00 Build 0)  -->
<svg version="1.1" id="Layer_1" xmlns="http://www.w3.org/2000/svg" xmlns:xlink="http://www.w3.org/1999/xlink" x="0px" y="0px"
	 viewBox="0 0 58.4 100.37" style="enable-background:new 0 0 58.4 100.37;" xml:space="preserve">
<style type="text/css">
	.st0{fill:#FFD400;}
	.st1{fill:#010101;}
	.st2{fill:#FFFFFF;}
	.st3{fill:none;}
	.st4{fill:#FED519;}
	.st5{fill:#FDFEFE;}
</style>
<g>
	<g>
		<g>
			<g>
				<g>
					<g>
						<path class="st0" d="M44.84,30.47C44.82,30.41,44.79,30.4,44.84,30.47L44.84,30.47z"/>
						<path class="st0" d="M53.35,75.35c-0.01,0.02-0.02,0.02-0.03,0.04c0.02,0.06,0.03,0.1,0.04,0.15L53.35,75.35z"/>
						<path class="st0" d="M47.66,81.01c-0.02,0.01-0.03,0.01-0.05,0.02C47.64,81.05,47.65,81.08,47.66,81.01z"/>
						<path class="st0" d="M56.96,57.62c0-0.07-0.02-0.1-0.03-0.13C56.94,57.52,56.95,57.56,56.96,57.62z"/>
						<path class="st0" d="M36.38,19.57c0,0,0.01,0.01,0.02,0.02c-0.01-0.03-0.02-0.05-0.03-0.08L36.38,19.57z"/>
						<path class="st0" d="M36.54,19.64c0.08,0.15-0.08,0-0.13-0.05c0.07,0.18,0.18,0.33,0.31,0.46
							C36.78,20,36.55,19.73,36.54,19.64z"/>
						<path class="st0" d="M19.5,1.14l0.07,0.03C19.54,1.16,19.52,1.15,19.5,1.14z"/>
						<path class="st0" d="M53.6,58.64l-0.03-0.1C53.58,58.59,53.59,58.62,53.6,58.64z"/>
						<path class="st0" d="M22.23,3.99l0.11-0.05C22.28,3.94,22.25,3.96,22.23,3.99z"/>
						<path class="st0" d="M53.36,75.54l0,0.07C53.37,75.59,53.36,75.57,53.36,75.54z"/>
						<path class="st0" d="M41.45,84.77c-0.02-0.03-0.04-0.05-0.07-0.06c-0.01,0-0.01,0.01-0.02,0.01L41.45,84.77z"/>
						<path class="st0" d="M6.56,87.16c0,0.01,0.01,0.03,0.02,0.04l0.14-0.07C6.65,87.14,6.6,87.15,6.56,87.16z"/>
						<path class="st0" d="M32.03,87.45c-0.01,0.01-0.03,0.03-0.02,0.04c0.17,0,0.6-0.09,1.14-0.22l0-0.14L32.03,87.45z"/>
						<path class="st0" d="M21.42,85.61l1,0.22c-3.16,0.3-4.65,0.02-7.38,0.2l0.15-0.06c-0.39-0.08-0.64,0.58-5.02-0.39l0-0.03
							c-0.15,0-0.16,0.05-0.46-0.04l0.75,0.21c-0.46,0.04-0.87,0.15-1.48,0.13c-0.13-0.04-0.17-0.1-0.18-0.14l-1.5-0.05l-0.45-0.21
							c-0.46,0.06-0.28,0.45-1.49,0.16c0.44,0.29-0.62,0.11-0.48,0.25c-0.06-0.04-0.2-0.09-0.31-0.15
							c-0.73-0.02-2.12-0.06-2.47,0.05c0,0,2.82,0.76,3.57,1.09c-1.03-0.15-0.27,0.01-0.08,0.11l0.07-0.06
							c0.61,0.11,0.6,0.27,0.91,0.34c0-0.01-0.01-0.03-0.01-0.05l-0.04,0.02c-0.03-0.03-0.01-0.05,0.03-0.06
							c-0.01-0.04,0.03-0.06,0.19-0.04l-0.03,0.01c0.26-0.01,0.7,0.05,0.9,0.07l-0.01,0.14c0.47-0.22,3.06,0.59,3.68,0.62
							c0.61,0.2,1.39,0.02,2.16,0.13c1.24,0.08,0.61,0.22,1.23,0.36c0.78,0.1-0.15-0.16,0.16-0.17l0.93,0.21
							c-0.54,0.01-0.25,0.09-0.15,0.15c0.8,0.05,2.08,0.28,2.33,0.01c1.09,0.13,1.1,0.22,1.57,0.23c-0.16-0.05-0.47-0.08-0.47-0.14
							c0.44,0.11,0.21-0.04,0.03-0.06c0.66-0.12,3.49,0.37,3.62,0.06l0,0.05c0.14-0.23-0.12-0.43,0.34-0.59l0.32,0.07l0.46-0.13
							c0.32,0.05,0.17,0.12,0.17,0.15c0.75-0.15,1.82-0.15,2.75-0.23l-1.04-0.5c0.78,0.07,2.21,0.16,2.34-0.07l0.49,0.13
							c1.61,0.14,1.05-0.35,1.68-0.34l0.82,0.08l-0.77,0.14c0.79-0.02,1.12-0.02,1.76-0.02l0.01-0.01c-0.04,0-0.07,0-0.08-0.02
							l0.11-0.03c0.07-0.13,0.45-0.29,1-0.41c0.77-0.17,1.32-0.48,2.6-0.61l0.23-0.31c0.31-0.05,0.63-0.1,0.94-0.16l0.06,0.17
							c-0.89,0.3-2.55,0.84-3.71,1.14l0,0.09c0.69-0.18,1.45-0.47,1.9-0.57c0.23-0.02,0.85-0.02,0.47,0.23l0.37-0.3
							c2.22-0.75,2.19-0.74,4.66-1.57l-0.24,0c0.44-0.24,0.86-0.51,1.05-0.44c1.38-0.61,2.79-1.31,3.76-1.65l0.07-0.3
							c0.27-0.17,0.86-0.16,0.83-0.5l0.51-0.48c0.37-0.25,0.52-0.49,0.98-0.71l0,0l0,0c0.03-0.01,0.06-0.03,0.09-0.04l-0.02-0.01
							c0.84-0.56-0.12-0.14,0.84-0.77c0.38-0.13,0.13-0.48,0.57-0.81c0.21-0.05,0.42-0.1,0.62-0.16c0.85-0.59,0.77-0.93,1.74-2.03
							c0.53-0.48,0.95-0.6,0.83-0.08c0.19-0.7,0.06-0.34,0.47-1.12c0.17-0.04,0.14,0.05,0.11,0.27c0.56-0.56,0.19-0.46,0.54-0.93
							c-0.08-0.26-0.26-0.61-0.18-0.78l-0.17,0.15c0.21-0.59,0.54-1.15,0.95-1.73L54,73.12l0.3-0.69l0.15,0.02
							c0.15-0.33,0.27-0.66,0.41-0.99l-0.09,0.12c0.1-0.23,0.37-1.01,0.59-1.43l0.07,0.04c0.69-1.18,0.7-2.34,0.97-3.85l0.12,0.23
							c0.26-0.49-0.21-0.19-0.01-0.79l0.2,0c-0.16-0.59,0.16-0.7,0.31-1.07l-0.28,0.14l0.15-0.7c0.16-0.78,0.37-0.45,0.49-0.32
							l-0.15-0.56l0.23-0.09c-0.22-0.42,0.08-0.4-0.03-1.1c0.09-0.05,0.13,0.12,0.18-0.11c-0.08-0.39-0.18-0.77-0.29-1.15
							c0.05,0.23,0.1,0.46,0.14,0.69l-0.33-0.09c-0.25-0.71,0.03-0.96-0.06-1.47l0.1,0.35c-0.09-0.83,0.03-0.87,0.08-1.35
							c-0.05,0.15-0.13,0.37-0.19,0.04c-0.03-0.24,0.11-0.14,0.13-0.38c-0.22-0.04-0.39-0.62-0.34-1.16c0.03,0,0.06,0.01,0.09,0.04
							c-0.05-0.13-0.11-0.2-0.08-0.44l0.26,0.11l-0.29-0.43c0.03-0.31-0.21-0.73-0.04-0.71l0.07,0.17c-0.08-0.77-0.2-1.54-0.34-2.3
							l0.18-0.07c-0.31-0.17-0.17-1.26-0.49-1.11c0.07-0.47-0.56-1.63-0.13-1.48c-0.4-1.48-1.01-2.13-1.48-3.91
							c0.06-0.73-0.73-2.35-1.21-3.42c-1.11-2.01-1.93-3.25-3.18-5.19c-0.32-1.44-1.94-2.87-2.54-4.25l-0.37-0.24
							c-0.31-0.98-1.44-2.03-2-3.32c-0.26-0.23-0.38-0.36-0.43-0.43c0.03,0.06,0.06,0.15-0.02,0.24c-0.16-0.37-0.69-0.97-0.48-1.05
							l0.08,0.07c0.22-0.08-0.78-0.91-0.88-1.38l-0.06,0.34l-0.4-0.63l0.15,0.14c-2.33-2.3-2.59-3.94-4.84-6.05
							c0.46,0.16-0.48-0.39-0.27-0.6c-0.18-0.83-0.94-1.07-1.41-1.5c-0.01,0.01-0.03,0.01-0.07,0L36,19.16
							c0.69,0.28-0.73-0.43-0.11-0.15c-1.59-2.4-4.21-5.09-6.31-7.65l0.03,0.17c-0.54-0.65-1.33-1.34-1.64-1.92
							c-0.32-0.57-1.11-0.87-1.29-1.04c-0.59-0.4-0.79-1.09-0.6-0.85c-0.54-0.52-1.26-0.8-1.87-1.65c-0.02-0.48-2.18-1.83-1.95-2.09
							L22.2,4c-0.75-1.13-1.94-1.71-2.79-2.88c0,0,0.04,0,0.09,0.02l-2.82-1.26l-0.22,1.41l1.12,2.42c1.64,1.53,3.27,3.08,4.86,4.67
							c1.14,1.39,2.27,2.79,3.38,4.2c2.95,3.2,5.79,6.51,8.53,9.9l0.79,0.57c1.22,2.3,3.63,4.62,4.98,7.06l0.22-0.09
							c0.46,0.63,0.32,0.67,0.4,0.85c4.26,5.87,8.63,11.99,10.61,18.05c0.08,0.62,0.77,2.33,0.74,2.84c0.85,1.86,1.31,3.99,1.47,6
							l-0.03-0.07l0.13,0.94c-0.01,0.04-0.04,0.05-0.06,0.02c0.28,1.06,0.11,2.76-0.07,4.05l-0.02-0.08
							c-0.29,3.77-1.26,7.32-3.16,10.35c-1.9,3.04-4.71,5.55-8.06,7.34c-3.19,1.48-6.89,3.44-11.04,4.01
							c-0.39-0.01-2.62,0.42-4.89,0.73C24.1,85.37,21.79,85.53,21.42,85.61z"/>
						<path class="st0" d="M8.81,85.72l0.03,0C8.85,85.62,8.8,85.65,8.81,85.72z"/>
						<polygon class="st0" points="26.78,88.07 26.72,88.07 26.95,88.18 						"/>
						<path class="st0" d="M15.15,88.66c0.52,0.04,0.55,0.02,0.47-0.02C15.43,88.63,15.27,88.64,15.15,88.66z"/>
						<path class="st0" d="M4.6,85.61c-0.27-0.03-0.17,0.04-0.02,0.11c0.28,0.01,0.47,0.02,0.47,0.02
							C4.92,85.7,4.74,85.65,4.6,85.61z"/>
						<path class="st0" d="M5.61,86.98l-0.09,0.07C5.68,87.04,5.68,87.01,5.61,86.98z"/>
					</g>
				</g>
			</g>
		</g>
	</g>
	<g>
		<g>
			<g>
				<g>
					<g>
						<path class="st0" d="M4.4,81.6C4.39,81.6,4.39,81.61,4.4,81.6L4.4,81.6z"/>
						<path class="st0" d="M8.52,77.3L8.52,77.3c-0.02-0.04-0.04-0.07-0.06-0.1L8.52,77.3z"/>
						<path class="st0" d="M9.44,76.89l0.01,0.01C9.43,76.88,9.41,76.86,9.44,76.89z"/>
						<path class="st0" d="M7.16,79.08c-0.01,0,0,0.01,0,0.03C7.16,79.1,7.16,79.09,7.16,79.08z"/>
						<path class="st0" d="M3.35,83.02L3.35,83.02C3.34,83.01,3.33,83.01,3.32,83L3.35,83.02z"/>
						<path class="st0" d="M3.3,82.95c0.04,0.01,0.04,0.05,0.04,0.06c0.06,0.03,0.08,0.01,0.08-0.02
							C3.37,82.94,3.35,82.98,3.3,82.95z"/>
						<path class="st0" d="M1.35,85.48l-0.01-0.03C1.34,85.46,1.34,85.47,1.35,85.48z"/>
						<path class="st0" d="M9.55,81.56c0,0.01,0,0.01,0,0.02C9.55,81.58,9.55,81.57,9.55,81.56z"/>
						<path class="st0" d="M1.73,85.15l-0.08-0.08C1.68,85.11,1.71,85.13,1.73,85.15z"/>
						<path class="st0" d="M8.46,77.2l-0.02-0.04C8.44,77.17,8.45,77.19,8.46,77.2z"/>
						<path class="st0" d="M10.16,76.38c0.02,0.03,0.04,0.04,0.06,0.06l0,0L10.16,76.38z"/>
						<path class="st0" d="M14.71,75.05l-0.03-0.03l0.03,0.07C14.72,75.08,14.72,75.07,14.71,75.05z"/>
						<path class="st0" d="M11.4,75.99l-0.02-0.03c-0.04-0.02-0.09,0.01-0.14,0.06l0.08,0.11L11.4,75.99z"/>
						<path class="st0" d="M14.38,77.68l-0.27-0.14c0.23-0.35,0.55-0.24,0.69-0.62l0.02,0.06c0.08,0.02-0.27-0.49,0.62-0.22
							l0.02,0.02c0.01-0.02-0.02-0.06,0.05-0.02l-0.18-0.08c0-0.09-0.03-0.22,0.01-0.28c0.03,0.01,0.07,0.06,0.1,0.09l0.12-0.15
							l0.15,0.11c-0.01-0.11-0.26-0.4-0.01-0.32c-0.2-0.17-0.03-0.17-0.13-0.27c0.03,0.02,0.07,0.05,0.11,0.08
							c0.05-0.08,0.15-0.24,0.1-0.37c0,0-0.61-0.23-0.85-0.39c0.15-0.02,0.01-0.05-0.06-0.1l0.03,0.06c-0.1,0-0.2-0.14-0.26-0.15
							l0.03,0.04L14.67,75c0.02,0.02,0.03,0.04,0.04,0.05c0.02,0.03,0.04,0.05,0.01,0.06l-0.01-0.02c-0.01,0.04-0.07,0.05-0.1,0.06
							l-0.08-0.11c0.11,0.24-0.55-0.09-0.62-0.05c-0.17-0.09-0.11,0.14-0.24,0.13c-0.15,0.06-0.18-0.11-0.32-0.16
							c-0.13-0.01,0.11,0.11,0.09,0.15l-0.21-0.08c0.04-0.05-0.04-0.1-0.08-0.13c-0.09,0.04-0.37-0.06-0.23,0.18
							c-0.19-0.02-0.26-0.11-0.31-0.08c0.05,0.03,0.1,0.04,0.14,0.08c-0.12-0.06,0,0.04,0.03,0.05c0.01,0.14-0.65-0.12-0.48,0.12
							l-0.03-0.04c0.12,0.19,0.28,0.34,0.31,0.47l-0.09-0.05l0.01,0.11c-0.08-0.03-0.1-0.09-0.11-0.11
							c-0.01,0.14-0.19,0.13-0.3,0.17l0.47,0.4c-0.16-0.05-0.48-0.17-0.37,0l-0.17-0.12c-0.4-0.18,0,0.22-0.13,0.18l-0.22-0.11
							l0.08-0.06c-0.15-0.03-0.22-0.06-0.37-0.12l0,0.01c0.01,0,0.02,0.01,0.03,0.02l-0.01,0.01c0.06,0.09,0.07,0.19,0.01,0.22
							c-0.1,0.04-0.05,0.21-0.32,0.13l0.11,0.2l-0.18-0.03l-0.11-0.14c0.1-0.06,0.22-0.25,0.33-0.35l-0.05-0.07
							c-0.07,0.06-0.1,0.18-0.15,0.2c-0.04-0.01-0.22-0.11-0.26-0.24l0.07,0.17c-0.22,0.2-0.21,0.21-0.58,0.25l0.08,0.05
							c-0.01,0.08-0.03,0.16-0.13,0.06c-0.16,0.09-0.38,0.13-0.62,0.03l0.12,0.18c-0.04,0.02-0.29-0.19-0.11,0.05l0,0.13
							c-0.05,0.02,0,0.14-0.12,0.08l0,0l0,0L9.45,76.9l0.01,0.01c-0.15,0.01,0.12,0.15-0.06,0.14c-0.13-0.09,0.14,0.24,0.06,0.25
							l-0.25-0.19C9,77.06,9.18,77.3,9.05,77.42c-0.14-0.03-0.34-0.2-0.45-0.41c0.12,0.26,0.09,0.16,0.1,0.33
							c-0.09-0.08-0.1-0.1-0.15-0.2C8.4,77.1,8.58,77.26,8.53,77.3c0.13,0.18,0.34,0.45,0.33,0.48l0.06,0.03
							c0.02,0.14,0,0.23-0.14,0.2l-0.07-0.08l-0.03,0.1l-0.1-0.1l-0.07,0.12l0.04,0.02c-0.01,0.03-0.05,0.14-0.14,0.12l-0.05-0.06
							c-0.28-0.08-0.17,0.25-0.29,0.39l-0.09-0.13c-0.15-0.08,0.15,0.19,0.04,0.19l-0.13-0.14c0.12,0.24-0.1,0.02-0.2-0.02
							l0.19,0.18l-0.1,0.02c-0.13,0-0.26-0.2-0.34-0.31l0.09,0.19l-0.16-0.16c0.14,0.23-0.06,0-0.03,0.16
							c-0.06-0.06-0.08-0.11-0.12-0.12l0.11,0.33l-0.03-0.16l0.21,0.25c0.1,0.24-0.11,0.05-0.09,0.16l-0.03-0.1
							c-0.02,0.13-0.12,0.03-0.21,0.01c0.05,0.03,0.14,0.08,0.13,0.14c-0.01,0.03-0.09-0.07-0.14-0.08c0.14,0.17,0.17,0.3,0.05,0.27
							c-0.02-0.02-0.04-0.05-0.05-0.06c0.01,0.04,0.04,0.09-0.01,0.07L7,78.99l0.12,0.21c-0.07-0.02,0.01,0.14-0.1,0.02l-0.02-0.05
							l-0.25,0.15l-0.14-0.14c0.16,0.22-0.18,0.03,0.05,0.27c-0.16-0.1-0.07,0.24-0.3-0.06c-0.16,0.11,0.02,0.44-0.27,0.46
							c-0.28-0.18-0.37,0.05-0.5,0.13c-0.11,0.29-0.16,0.51-0.3,0.78c-0.44-0.2-0.2,0.41-0.51,0.36l0.09,0.16
							c-0.29-0.11-0.18,0.27-0.5,0.19C4.4,81.56,4.4,81.59,4.4,81.6c0.01,0,0.04,0.02,0.13,0.09c-0.09-0.02-0.09,0.12-0.25-0.04
							l-0.01-0.03c-0.15-0.16-0.03,0.18-0.21,0.08l0.19,0.15l-0.1,0.04l-0.02-0.05c0.09,0.67-0.58,0.26-0.5,0.88
							c-0.15-0.22,0.05,0.15-0.16-0.05c-0.33-0.18-0.07,0.18-0.05,0.31c0.01,0.01,0.02,0.02,0.03,0.04l-0.12,0.08
							c-0.21-0.31,0.15,0.28-0.02,0.01c-0.45,0.08-0.57,0.61-0.95,0.83L2.45,84c-0.09,0.07-0.09,0.24-0.26,0.2
							c-0.16-0.04,0.06,0.29,0.05,0.32c0.06,0.17-0.23,0.02-0.19,0c-0.03,0.1,0.16,0.39-0.04,0.39c-0.26-0.18-0.01,0.47-0.27,0.24
							l0.02,0.02c-0.29-0.04-0.09,0.36-0.37,0.34c0,0-0.02-0.02-0.03-0.04l0.55,0.97l0.94,0.69l0.91,0.4l0.4-0.76l0.72-0.24
							l1.01-1.26l-0.11-0.26c0.55,0.09,0.45-0.57,0.93-0.58l-0.16-0.16c0.06-0.08,0.15,0.03,0.2,0.04c0.59-0.67,1.05-1.53,1.83-1.88
							c0.16,0.05,0.27-0.17,0.42-0.1c0-0.38,0.21-0.57,0.42-0.72l0.01,0.03l0.06-0.12c0.02,0.01,0.03,0.03,0.04,0.05
							c-0.03-0.24,0.27-0.24,0.45-0.3L10,81.29c0.76-0.63,1.19-1.56,2.15-1.95c0.59-0.01,0.67-0.74,1.28-0.83
							C13.64,78.61,14.37,77.82,14.38,77.68z"/>
						<path class="st0" d="M15.45,76.49L15.45,76.49C15.5,76.57,15.48,76.54,15.45,76.49z"/>
						<polygon class="st0" points="12.08,75.8 12.09,75.79 11.99,75.71 						"/>
						<path class="st0" d="M13.19,74.84c-0.07,0.02-0.06,0.04-0.03,0.06C13.18,74.89,13.19,74.87,13.19,74.84z"/>
						<path class="st0" d="M15.76,76.04c0.03-0.01-0.01-0.05-0.07-0.09c-0.02,0.03-0.04,0.05-0.04,0.05
							C15.68,76,15.73,76.03,15.76,76.04z"/>
						<path class="st0" d="M14.88,75.08l-0.04-0.07C14.83,75.04,14.85,75.06,14.88,75.08z"/>
					</g>
				</g>
			</g>
		</g>
	</g>
	<g>
		<g>
			<g>
				<g>
					<g>
						<path class="st0" d="M7.52,87.36C7.52,87.35,7.51,87.36,7.52,87.36L7.52,87.36z"/>
						<path class="st0" d="M12.38,91.06L12.38,91.06c0.04-0.03,0.07-0.05,0.09-0.07L12.38,91.06z"/>
						<path class="st0" d="M12.87,91.96l0,0.01C12.89,91.95,12.91,91.93,12.87,91.96z"/>
						<path class="st0" d="M10.43,89.84c0-0.01-0.01,0-0.03,0.01C10.41,89.84,10.42,89.84,10.43,89.84z"/>
						<path class="st0" d="M5.93,86.52L5.93,86.52c0.01-0.01,0.01-0.02,0.01-0.03L5.93,86.52z"/>
						<path class="st0" d="M5.99,86.46c0,0.04-0.04,0.05-0.05,0.05c-0.02,0.06,0,0.08,0.04,0.07C6.01,86.53,5.97,86.51,5.99,86.46z"
							/>
						<path class="st0" d="M3.11,84.94l0.02-0.02L3.11,84.94z"/>
						<path class="st0" d="M8.22,92.48c-0.01,0-0.01,0-0.02,0C8.21,92.49,8.21,92.48,8.22,92.48z"/>
						<path class="st0" d="M3.51,85.26l0.06-0.09C3.54,85.21,3.52,85.23,3.51,85.26z"/>
						<path class="st0" d="M12.47,90.99l0.04-0.03C12.5,90.97,12.48,90.98,12.47,90.99z"/>
						<path class="st0" d="M13.45,92.66c-0.02,0.02-0.04,0.04-0.06,0.06l0,0L13.45,92.66z"/>
						<path class="st0" d="M15.03,97.19l0.03-0.03l-0.07,0.03C15,97.2,15.02,97.19,15.03,97.19z"/>
						<path class="st0" d="M13.93,93.89l0.03-0.02c0.01-0.04-0.02-0.09-0.07-0.14l-0.1,0.09L13.93,93.89z"/>
						<path class="st0" d="M12.4,96.96l0.13-0.27c0.36,0.21,0.26,0.54,0.64,0.65l-0.06,0.02c-0.02,0.08,0.48-0.29,0.23,0.6
							l-0.02,0.02c0.02,0.01,0.06-0.02,0.02,0.05l0.07-0.18c0.09,0,0.22-0.04,0.28,0.01c-0.01,0.03-0.05,0.07-0.09,0.1l0.15,0.12
							l-0.1,0.15c0.11-0.02,0.39-0.27,0.32-0.02c0.17-0.2,0.17-0.04,0.26-0.13c-0.02,0.03-0.05,0.07-0.07,0.11
							c0.08,0.05,0.24,0.14,0.37,0.09c0,0,0.22-0.61,0.37-0.86c0.02,0.15,0.05,0.01,0.1-0.07l-0.06,0.03c0-0.1,0.13-0.2,0.14-0.26
							l-0.03,0.03l0.02-0.01c-0.02,0.02-0.04,0.03-0.05,0.04c-0.03,0.02-0.05,0.04-0.06,0.01l0.02-0.01
							c-0.04-0.01-0.05-0.07-0.06-0.1l0.11-0.09c-0.24,0.12,0.07-0.55,0.03-0.62c0.08-0.17-0.15-0.11-0.14-0.24
							c-0.07-0.15,0.1-0.19,0.15-0.32c0-0.13-0.11,0.12-0.14,0.09L15,95.7c0.06,0.04,0.1-0.04,0.13-0.08
							c-0.05-0.09,0.04-0.38-0.19-0.23c0.01-0.19,0.1-0.26,0.07-0.32c-0.03,0.05-0.03,0.11-0.08,0.14c0.06-0.12-0.04,0-0.05,0.03
							c-0.14,0.01,0.09-0.66-0.15-0.48l0.04-0.04c-0.18,0.13-0.33,0.3-0.46,0.33l0.05-0.09l-0.11,0.02c0.03-0.08,0.09-0.1,0.11-0.12
							c-0.14-0.01-0.14-0.19-0.19-0.3l-0.38,0.49c0.04-0.17,0.14-0.49-0.02-0.37l0.11-0.18c0.16-0.41-0.22,0.01-0.18-0.13l0.1-0.22
							l0.06,0.08c0.02-0.15,0.04-0.23,0.1-0.38l-0.01,0c0,0.01-0.01,0.02-0.02,0.03l-0.01-0.01c-0.09,0.07-0.18,0.08-0.22,0.02
							c-0.04-0.09-0.22-0.04-0.15-0.32l-0.19,0.13l0.02-0.18l0.13-0.12c0.07,0.09,0.27,0.21,0.38,0.32l0.06-0.05
							c-0.06-0.07-0.19-0.09-0.22-0.14c0.01-0.05,0.1-0.23,0.22-0.27l-0.17,0.08c-0.22-0.21-0.23-0.2-0.29-0.57l-0.05,0.08
							c-0.08-0.01-0.16-0.02-0.07-0.13c-0.11-0.16-0.16-0.38-0.08-0.63l-0.17,0.13c-0.02-0.04,0.17-0.31-0.06-0.11l-0.13,0.01
							c-0.03-0.05-0.14,0.01-0.09-0.12l0,0l0,0l0.01-0.03l-0.01,0.01c-0.02-0.15-0.14,0.14-0.15-0.05c0.08-0.14-0.23,0.16-0.24,0.07
							l0.17-0.27c0.04-0.21-0.2-0.01-0.32-0.14c0.02-0.14,0.17-0.36,0.37-0.48c-0.25,0.14-0.15,0.11-0.32,0.13
							c0.07-0.09,0.09-0.1,0.18-0.16c0.03-0.16-0.11,0.03-0.16-0.02c-0.17,0.14-0.42,0.37-0.45,0.37L11.9,91.5
							c-0.13,0.03-0.23,0.02-0.22-0.12l0.08-0.08l-0.1-0.02l0.09-0.11l-0.12-0.06l-0.01,0.04c-0.04-0.01-0.14-0.04-0.13-0.14
							l0.05-0.06c0.05-0.29-0.27-0.15-0.42-0.26l0.13-0.1c0.06-0.16-0.18,0.17-0.18,0.06l0.13-0.15c-0.22,0.14-0.03-0.1,0-0.2
							l-0.16,0.2L11,90.42c-0.02-0.13,0.17-0.28,0.27-0.37l-0.19,0.1l0.14-0.18c-0.21,0.16-0.01-0.06-0.17-0.02
							c0.05-0.07,0.1-0.09,0.1-0.14l-0.32,0.14l0.16-0.05l-0.23,0.24c-0.23,0.13-0.06-0.11-0.17-0.08l0.1-0.04
							c-0.13-0.01-0.04-0.12-0.04-0.21c-0.03,0.06-0.07,0.14-0.13,0.15c-0.03-0.01,0.06-0.1,0.07-0.14
							c-0.15,0.16-0.28,0.2-0.26,0.08c0.02-0.02,0.04-0.04,0.06-0.06c-0.04,0.02-0.08,0.05-0.07-0.01l0.17-0.17l-0.2,0.14
							c0.02-0.08-0.14,0.02-0.03-0.1l0.05-0.02l-0.18-0.23l0.12-0.15c-0.2,0.18-0.05-0.18-0.26,0.08c0.08-0.17-0.25-0.04,0.02-0.31
							c-0.13-0.15-0.44,0.06-0.5-0.22c0.14-0.3-0.1-0.36-0.19-0.48c-0.31-0.08-0.53-0.11-0.83-0.21c0.14-0.46-0.45-0.15-0.44-0.47
							l-0.15,0.11c0.07-0.3-0.29-0.15-0.27-0.47c-0.08,0.04-0.12,0.04-0.13,0.04c0,0.01-0.01,0.05-0.07,0.14
							c0.01-0.09-0.14-0.08,0.01-0.25l0.02-0.01c0.14-0.18-0.19-0.01-0.12-0.2l-0.12,0.21l-0.05-0.09l0.05-0.02
							c-0.65,0.18-0.36-0.55-0.97-0.37c0.19-0.19-0.14,0.07,0.02-0.17c0.13-0.35-0.2-0.04-0.32-0.01c-0.01,0.01-0.02,0.02-0.03,0.04
							l-0.1-0.11c0.28-0.25-0.25,0.19-0.02-0.02c-0.15-0.43-0.71-0.47-1-0.81l-0.04,0.09c-0.08-0.07-0.26-0.05-0.25-0.22
							c0.01-0.17-0.28,0.1-0.31,0.1c-0.16,0.09-0.06-0.23-0.04-0.19c-0.11-0.01-0.36,0.22-0.39,0.03c0.12-0.29-0.47,0.07-0.29-0.23
							l-0.02,0.02c-0.02-0.3-0.37-0.02-0.42-0.31c0,0,0.02-0.02,0.03-0.04l-0.85,0.72l-0.5,1.06l-0.22,0.97l0.81,0.25l0.36,0.66
							c0.47,0.25,0.93,0.51,1.39,0.78l0.24-0.15c-0.01,0.56,0.63,0.35,0.71,0.82l0.14-0.18c0.08,0.05,0,0.15-0.01,0.2
							c0.74,0.48,1.65,0.82,2.08,1.55c-0.04,0.16,0.2,0.25,0.14,0.41c0.37-0.04,0.58,0.14,0.76,0.33l-0.02,0.01l0.12,0.05
							c-0.01,0.02-0.03,0.04-0.04,0.05c0.24-0.06,0.27,0.24,0.34,0.41L8.53,92.9c0.7,0.68,1.65,1.03,2.11,1.95
							c0.05,0.58,0.78,0.61,0.9,1.21C11.45,96.27,12.26,96.95,12.4,96.96z"/>
						<path class="st0" d="M13.62,97.96L13.62,97.96C13.54,98.02,13.57,98,13.62,97.96z"/>
						<polygon class="st0" points="14.17,94.57 14.18,94.58 14.26,94.47 						"/>
						<path class="st0" d="M15.19,95.65c-0.02-0.07-0.04-0.06-0.06-0.03C15.14,95.64,15.16,95.66,15.19,95.65z"/>
						<path class="st0" d="M14.08,98.25c0.01,0.03,0.05-0.01,0.09-0.07c-0.03-0.02-0.05-0.03-0.05-0.03
							C14.11,98.18,14.08,98.23,14.08,98.25z"/>
						<path class="st0" d="M15.01,97.35l0.07-0.04C15.05,97.31,15.03,97.33,15.01,97.35z"/>
					</g>
				</g>
			</g>
		</g>
	</g>
</g>
</svg>
