<?xml version="1.0" encoding="utf-8"?>
<!-- Generator: Adobe Illustrator 27.1.1, SVG Export Plug-In . SVG Version: 6.00 Build 0)  -->
<svg version="1.1" id="Layer_1" xmlns="http://www.w3.org/2000/svg" xmlns:xlink="http://www.w3.org/1999/xlink" x="0px" y="0px"
	 viewBox="0 0 16.72 15.58" style="enable-background:new 0 0 16.72 15.58;" xml:space="preserve">
<style type="text/css">
	.st0{fill:#FFD400;}
	.st1{fill:#010101;}
	.st2{fill:#FFFFFF;}
	.st3{fill:none;}
	.st4{fill:#FED519;}
</style>
<g id="_x32_3tjAF_00000001646063636312539640000015674811927407061949_">
	<g>
		<g>
			<path d="M13.78,12.17c-3.59-0.32-7.19-0.43-10.79-0.08c-0.85,0.08-0.85-0.33-0.66-0.9C2.79,9.85,3.76,9,5.11,8.64
				c2.17-0.58,4.35-0.58,6.5,0.06c1.4,0.42,2.41,1.28,2.76,2.77C14.55,12.22,14.53,12.23,13.78,12.17z"/>
			<g>
				<path d="M13.79,12.44c-0.04-0.01-0.03,0.04-0.04,0.05C13.82,12.48,13.79,12.43,13.79,12.44z"/>
				<path d="M14.59,12.17l0.01,0.03c0.01-0.05,0.01-0.1,0-0.15C14.6,12.09,14.6,12.13,14.59,12.17z"/>
				<path d="M14.53,11.4c-0.06,0.08,0.07,0.22,0.07,0.39l-0.01,0.02c0.03,0.02,0.05,0.05,0.07,0.08
					C14.62,11.67,14.53,11.5,14.53,11.4z"/>
				<path d="M14.59,11.01c-0.02,0.03-0.05-0.07,0.02,0.09c0-0.01,0-0.01,0-0.02C14.6,11.06,14.6,11.05,14.59,11.01z"/>
				<path d="M14.61,11.07C14.63,11.14,14.62,11.02,14.61,11.07L14.61,11.07z"/>
				<path d="M14.48,10.76l0.06,0.08c0.01-0.03-0.02-0.11,0-0.08C14.49,10.67,14.48,10.7,14.48,10.76z"/>
				<path d="M14.39,10.7l0.03,0.04C14.42,10.73,14.42,10.72,14.39,10.7z"/>
				<path d="M14.48,10.83l-0.06-0.09c-0.01,0.02-0.03,0.03,0.03,0.04C14.42,10.78,14.45,10.79,14.48,10.83z"/>
				<path d="M14.49,10.89c0,0.06,0.01,0.12-0.04,0.04C14.52,11.1,14.56,11.06,14.49,10.89z"/>
				<path d="M14.44,11.39l0,0.07l0.04,0.05C14.45,11.49,14.46,11.38,14.44,11.39z"/>
				<path d="M14.24,10.2c-0.02,0-0.02,0.05-0.04,0.07l0.05,0.05C14.25,10.28,14.22,10.22,14.24,10.2z"/>
				<path d="M14.21,10.27l-0.08-0.08C14.17,10.27,14.19,10.28,14.21,10.27z"/>
				<polygon points="14.3,10.72 14.42,10.85 14.29,10.69 				"/>
				<polygon points="14.01,9.85 14.08,9.88 13.97,9.83 				"/>
				<path d="M13.83,9.64c0.05,0.01,0-0.08,0.05-0.06c-0.06-0.05-0.12-0.08-0.18-0.1C13.75,9.51,13.79,9.56,13.83,9.64z"/>
				<path d="M13.6,9.44c0.02,0.01,0.06,0.03,0.09,0.04C13.67,9.46,13.64,9.44,13.6,9.44z"/>
				<path d="M14.03,10.03c0-0.01,0.02-0.04-0.01-0.1L14.01,10L14.03,10.03z"/>
				<path d="M14.01,10L14.01,10c-0.02-0.04-0.04-0.07-0.05-0.08C13.96,9.93,13.98,9.96,14.01,10z"/>
				<path d="M14.04,10.04L14.04,10.04C14.03,10.04,14.03,10.04,14.04,10.04z"/>
				<path d="M14.22,10.45c-0.05-0.04-0.14-0.14-0.11-0.01C14.16,10.46,14.15,10.39,14.22,10.45z"/>
				<path d="M14.02,10.12l0.05,0.1c0.01-0.01,0.01-0.04,0.04-0.02L14.02,10.12z"/>
				<polygon points="13.98,10.08 14.02,10.12 14,10.08 				"/>
				<path d="M13.71,9.61c-0.05-0.02-0.09-0.06-0.13-0.1c0.04,0.05,0.08,0.1,0.13,0.15C13.72,9.65,13.76,9.66,13.71,9.61z"/>
				<path d="M13.86,9.8L13.86,9.8C13.85,9.8,13.85,9.8,13.86,9.8z"/>
				<polygon points="13.12,9.13 13.12,9.14 13.13,9.14 				"/>
				<path d="M13.7,9.67c0.03,0.04,0.05,0.06,0.08,0.07c-0.03-0.03-0.06-0.06-0.08-0.08C13.69,9.66,13.69,9.66,13.7,9.67z"/>
				<path d="M13.46,9.34c0.02,0.03,0.03,0.05,0.05,0.08C13.5,9.39,13.48,9.34,13.46,9.34z"/>
				<path d="M13.85,9.77L13.85,9.77C13.85,9.75,13.85,9.76,13.85,9.77z"/>
				<path d="M13.85,9.77c-0.02-0.02-0.04-0.02-0.06-0.03c0.02,0.02,0.04,0.04,0.06,0.05L13.85,9.77z"/>
				<path d="M12.81,9.28c0.03-0.03,0.15,0,0.21,0.1c0.1,0.04,0.14-0.12,0.11-0.24c-0.01,0.01-0.02,0.03-0.13-0.01
					c0.02,0.04,0.16,0.18,0.07,0.16c-0.13-0.06-0.09-0.08-0.13-0.14c0.02,0.08-0.19-0.03-0.21,0.06l0.12,0.04
					C12.83,9.26,12.79,9.26,12.81,9.28z"/>
				<path d="M13.29,9.27l0.04,0.02c-0.04-0.04-0.05-0.07-0.09-0.14c-0.07-0.03-0.1-0.02-0.11-0.02l0.18,0.14L13.29,9.27z"/>
				<path d="M13.48,9.43c-0.06,0.01-0.15-0.05-0.14,0.04c0.1,0.08,0.09,0.03,0.17,0.07C13.35,9.4,13.58,9.56,13.48,9.43
					c0.03,0.03,0.07,0.05,0.09,0.07c-0.02-0.03-0.04-0.06-0.07-0.09l0,0.01l0,0l0,0c0,0.01,0,0.02,0,0.01l0,0L13.48,9.43
					c-0.04-0.05,0-0.02,0.02-0.01l0.01,0l0,0c-0.06-0.04-0.12-0.09-0.18-0.12C13.36,9.33,13.4,9.37,13.48,9.43z"/>
				<path d="M13.97,10.4c0-0.01,0.01-0.01,0.01-0.01C13.96,10.38,13.95,10.37,13.97,10.4z"/>
				<path d="M13.95,10.31c0.01,0.01,0.04,0.01,0.06,0.05c0.01,0.04-0.02,0.01-0.03,0.02c0.03,0.02,0.08,0.07,0.05-0.02l-0.01-0.01
					c-0.03-0.08-0.04-0.2-0.02-0.2C13.97,10.21,13.95,10.24,13.95,10.31z"/>
				<path d="M13.74,9.86c-0.04-0.04-0.09-0.08-0.13-0.12l0.03,0.09l0.02-0.02C13.7,9.9,13.71,9.87,13.74,9.86z"/>
				<polygon points="13.12,9.1 13.17,9.07 13.04,9.07 				"/>
				<polygon points="12.92,8.97 12.95,8.94 12.88,8.93 				"/>
				<path d="M2.49,11.69l0.02,0.01C2.5,11.7,2.49,11.7,2.49,11.69z"/>
				<path d="M2.53,11.46l-0.02-0.01C2.51,11.46,2.52,11.47,2.53,11.46z"/>
				<path d="M7.53,7.96C7.45,7.93,7.37,7.87,7.38,7.92l0.03,0.05C7.46,7.95,7.5,7.95,7.53,7.96z"/>
				<polygon points="4,9.11 4.03,9.11 4.05,9.05 				"/>
				<path d="M4.06,9.31L3.97,9.33C3.99,9.33,4.02,9.32,4.06,9.31z"/>
				<path d="M3.99,11.69l0.05-0.05C3.95,11.65,3.99,11.67,3.99,11.69z"/>
				<path d="M10.72,8.21c-0.06-0.03-0.11-0.05-0.15-0.06C10.64,8.19,10.69,8.24,10.72,8.21z"/>
				<path d="M1.99,11.59c0.01,0.04,0.01,0.06,0.03,0.06C2.01,11.6,2,11.58,1.99,11.59z"/>
				<path d="M10.39,8.12c0.01,0.01,0.02,0.01,0.03,0.02c0.05,0,0.09,0,0.15,0.02C10.52,8.12,10.46,8.09,10.39,8.12z"/>
				<path d="M11.13,11.7l0.02,0.01C11.14,11.7,11.14,11.7,11.13,11.7z"/>
				<path d="M13.16,12.33c-0.03,0-0.06,0-0.08,0C13.09,12.33,13.12,12.33,13.16,12.33z"/>
				<path d="M12.08,8.55C12.13,8.56,12.09,8.55,12.08,8.55L12.08,8.55z"/>
				<path d="M12.23,8.81c-0.01,0-0.02,0-0.03,0.01C12.21,8.81,12.22,8.81,12.23,8.81z"/>
				<path d="M9.88,8.33L9.88,8.33C9.89,8.34,9.89,8.34,9.88,8.33z"/>
				<path d="M12.15,8.59c-0.02-0.01-0.03-0.02-0.05-0.04C12.11,8.57,12.12,8.58,12.15,8.59z"/>
				<path d="M12.14,8.57c0.02,0.01,0.03,0.01,0.04,0.02C12.19,8.58,12.19,8.58,12.14,8.57z"/>
				<path d="M12.02,8.53c0.03,0.01,0.05,0.02,0.07,0.03c-0.01-0.01-0.01-0.01-0.01-0.01C12.07,8.54,12.05,8.54,12.02,8.53z"/>
				<path d="M7.31,11.73l0.01,0C7.36,11.72,7.34,11.72,7.31,11.73z"/>
				<polygon points="6.38,8.59 6.39,8.59 6.38,8.59 				"/>
				<path d="M6.23,8.65c0.06-0.07,0.1-0.07,0.15-0.07L6.3,8.46L6.23,8.65z"/>
				<path d="M2.9,11.82c-0.03-0.01-0.07-0.02-0.1-0.04c0.11-0.07,0.2-0.06,0.1-0.11c0,0.08-0.1,0.09-0.18,0.09
					c-0.1,0-0.1-0.01-0.14,0.06c0-0.01-0.01-0.03-0.01-0.04c0.01,0,0.01,0,0.02,0c0.02-0.08-0.11,0.07-0.14-0.03
					c0-0.04,0.03-0.06,0.04-0.04c-0.01-0.01-0.03-0.04-0.04-0.08c0.01-0.03,0.03-0.02,0.03,0.01c0-0.05,0.01-0.12,0.02-0.18l0,0
					c-0.01-0.03-0.03-0.11-0.03-0.15c0.04-0.05,0.01,0.03,0.03,0.02l0.01-0.13c0.05-0.03,0.05,0.07,0.02,0.15
					c0.17-0.06,0-0.11,0.16-0.3l-0.02,0.11c0.1-0.04,0.11-0.13,0.21-0.22c-0.04,0.01-0.22,0.18-0.21,0.04
					c0.03-0.03,0.05-0.07,0.05-0.15c0.05,0.02,0.07-0.04,0.1-0.12l0.06,0.04c0.02-0.09-0.01-0.1-0.01-0.16
					c0.06-0.08,0.12-0.07,0.17-0.07C3.13,10.39,2.91,10.57,3,10.4c0.1-0.1,0.13-0.19,0.2-0.34c0.08-0.06,0.02,0.04,0.06,0.03
					l0.01-0.1c0.01-0.01,0.02,0,0.03,0.01c0.03-0.07-0.05-0.05,0.01-0.15C3.28,9.76,3.55,9.75,3.6,9.6
					c0.04-0.01,0.02,0.04,0.04,0.06c0.11-0.17,0.1-0.13,0.18-0.29l0.14-0.04C3.85,9.34,3.93,9.22,4,9.11c-0.05,0-0.08-0.01-0.11,0
					c0.05-0.05,0.1-0.09,0.14-0.13c0.03,0,0.02,0.03,0.01,0.07l0.02-0.03c0.07-0.01,0.06,0.04,0.04,0.1l-0.08,0
					C4.01,9.17,4,9.23,4.03,9.27c0.01-0.01,0.02-0.03,0.04-0.05c0,0.02-0.01,0.03,0,0.03c0.01,0,0.02-0.02,0.03-0.05l0.07,0.05
					L4.17,9.22C4.25,9.19,4.32,9.17,4.4,9.15c0.11-0.14,0.21-0.31,0.46-0.43C4.81,8.8,4.87,8.82,4.89,8.88
					C4.8,8.84,4.71,8.98,4.58,9.02C4.64,9,4.64,9.04,4.63,9.05C4.7,9,4.77,8.95,4.84,8.91C4.85,8.96,4.9,8.93,4.97,8.93
					C4.89,8.84,5.12,8.81,5.21,8.75c0.02,0.04,0,0.07-0.12,0.1c0.15,0.04,0.14-0.17,0.29-0.14C5.35,8.72,5.33,8.72,5.33,8.74
					c0.06-0.05,0.24-0.07,0.21-0.03L5.5,8.72c0.2-0.04,0.6-0.13,0.62-0.22c0,0.01-0.01,0.12-0.01,0.14l0.31-0.37
					C6.39,8.35,6.55,8.52,6.39,8.59c0.05,0,0.11,0.01,0.21-0.03c-0.03-0.01-0.1-0.1-0.05-0.12c0.14,0.07,0.09,0.03,0.25,0.09
					C6.74,8.51,6.78,8.38,6.86,8.38C6.85,8.4,6.88,8.5,6.85,8.52l0.18-0.14c-0.05,0.03,0,0.11,0.05,0.14
					C7.06,8.48,7.25,8.49,7.3,8.48L7.22,8.45c0.22,0,0.2-0.19,0.42-0.2C7.61,8.28,7.58,8.42,7.69,8.43
					c0.05-0.06,0.21-0.32,0.41-0.37L8.14,8.1L8.3,8.05c-0.1,0.1-0.36,0.3-0.49,0.38c0.08,0.03,0.02,0.04,0.15,0.03
					C8,8.5,7.89,8.52,7.85,8.53l0.28,0.02C8.12,8.47,8.35,8.47,8.34,8.41L8.03,8.49c-0.01-0.07,0.18-0.21,0.38-0.2
					c0.05,0.03-0.04,0.13-0.04,0.16C8.41,8.42,8.57,8.4,8.59,8.42L8.5,8.45c0.11,0.03,0.19-0.1,0.32-0.02
					c0.05,0.01,0.13,0.1,0.14,0.06C8.9,8.41,8.9,8.15,8.95,8.09c0.02,0.01,0.25,0.09,0.3,0.14C9.32,8.3,9.12,8.38,9.18,8.44
					c0-0.02,0.05-0.04,0.07-0.05C9.3,8.41,9.22,8.45,9.33,8.45C9.35,8.38,9.55,8.48,9.39,8.4C9.49,8.39,9.5,8.42,9.62,8.43
					C9.59,8.38,9.75,8.28,9.86,8.28C9.85,8.29,9.87,8.32,9.88,8.33c0.22,0.04,0.32,0.09,0.52,0.13c0.02,0.02,0.11,0.06,0.06,0.09
					c0.03-0.01,0.06-0.03,0.12-0.02c0.1,0.09-0.14-0.02-0.06,0.08c0.02-0.04,0.17-0.03,0.26-0.04c-0.01-0.07-0.2-0.05-0.29-0.04
					c0.02-0.09,0.19-0.16,0.41-0.15c0.17,0.02,0.06,0.08,0.09,0.07c0.31,0.09,0.31-0.09,0.55,0.04c0.09,0.09-0.03,0.11-0.02,0.16
					c-0.14-0.02-0.19-0.09-0.29-0.12l0.1,0.06c-0.05,0.01-0.14,0-0.18-0.03c0.07,0.07,0.52,0.15,0.73,0.28c0.05,0,0.12,0,0.1-0.03
					l-0.08-0.02c-0.05-0.07,0.16-0.01,0.08-0.07c0.11,0,0.24,0,0.37,0.09l0,0.07c0.01-0.02-0.07-0.08-0.12-0.07
					c0.07,0,0.17,0.17,0.27,0.13l-0.07-0.09c0.11,0.02,0.27,0.01,0.37,0.1c-0.02-0.09-0.03-0.01-0.08-0.13
					c0.03,0.12-0.31-0.16-0.24-0.01c-0.05-0.13-0.14-0.11-0.23-0.23c-0.01,0.02,0.03,0.06-0.08,0c-0.01,0-0.02,0.01-0.03,0.01
					l-0.01,0l0,0c-0.01,0-0.01,0,0,0c0.02,0.02,0.04,0.04,0.04,0.05c-0.07,0.03-0.24-0.04-0.3-0.03c-0.06-0.03,0.03-0.02,0.01-0.05
					l-0.1,0.01c0.01-0.05-0.15-0.13,0.01-0.11l-0.14-0.05c-0.07-0.05-0.18-0.09-0.25-0.09c-0.06-0.03-0.17,0.01-0.11-0.01L11.1,8.3
					l0-0.01c-0.21-0.06-0.45-0.02-0.68-0.15c-0.07,0-0.15,0-0.27-0.03l-0.02-0.05c-0.09,0-0.27-0.08-0.32-0.04
					C9.73,7.88,9.36,7.93,9.2,7.9L9.19,7.95c-0.11-0.01-0.22,0-0.36,0.01l0.01,0.05c-0.12,0.03-0.31-0.05-0.5-0.04
					c0.01-0.02,0.06-0.01,0.1,0C8.2,7.86,7.95,8.05,7.74,7.98C7.69,8,7.65,8,7.61,7.99l0.01,0l-0.02,0
					C7.58,7.98,7.55,7.97,7.53,7.96c0.02,0.01,0.04,0.02,0.06,0.02c-0.04,0-0.1,0.01-0.16,0.03L7.41,7.96c-0.01,0-0.01,0-0.01,0
					C7.33,7.95,7.35,8,7.38,8.03C7.35,8.04,7.33,8.06,7.31,8.07C7.25,7.99,7.15,8.11,7.08,8.03C7.05,8.08,6.79,8.1,6.77,8.19
					c0-0.01-0.02-0.02,0.01-0.02c-0.07,0-0.13,0-0.19,0.03L6.56,8.14L6.43,8.25C6.34,8.22,6.3,8.2,6.37,8.14
					C6.18,8.25,6.21,8.2,6.05,8.31l0-0.04C5.99,8.28,5.9,8.35,5.86,8.32C5.7,8.27,5.17,8.46,4.79,8.5c0.11,0.1-0.18,0-0.16,0.1
					C4.6,8.58,4.54,8.58,4.59,8.54C4.42,8.63,4.3,8.6,4.21,8.74C4.18,8.72,4.23,8.68,4.21,8.67C4.2,8.68,4.16,8.72,4.14,8.71
					C4.11,8.71,4.15,8.68,4.17,8.65C3.99,8.74,4.02,8.84,4.05,8.92C3.95,8.94,3.9,8.96,3.88,9.05c-0.04-0.01-0.11,0-0.01-0.07
					C3.8,9.01,3.49,9.18,3.53,9.24c-0.03,0-0.08,0.05-0.09,0.07c-0.12,0.1-0.14,0.1-0.24,0.21L3.24,9.5c0.02,0.1-0.08,0.1-0.15,0.19
					l0-0.01C2.86,9.85,3.03,9.79,2.8,9.96l0.05,0.02c0.08,0.09-0.2,0.15-0.24,0.32l0.05-0.03c-0.01,0.09-0.26,0.13-0.31,0.2
					c-0.02,0.01,0-0.03,0.01-0.06c-0.17,0.18,0.05,0.06-0.02,0.22c-0.05,0.01-0.07-0.08-0.12,0.03C2.17,10.69,2.2,11,2.08,11.13
					c0.04-0.02,0.08-0.05,0.07,0.04c-0.03,0.11-0.2,0.3-0.12,0.45c-0.01,0.02-0.02,0.03-0.02,0.03c0,0.14,0.12,0.41,0.23,0.41
					c-0.04,0.11,0.18,0.21,0.34,0.2c0.15,0,0.27-0.04,0.28,0.05l0.28-0.03l-0.01,0.02c0.17,0,0.23-0.05,0.29-0.1
					c0.04,0.01,0.01,0.03,0.01,0.04c0.26,0.01,0.28,0,0.49-0.1l0.03,0.05c0.06-0.03,0.37,0.06,0.62-0.02c0,0.01-0.01,0.02-0.03,0.03
					c0.28-0.08,0.68,0.11,0.77-0.09l0.18-0.06c-0.24,0,0.03-0.09-0.07-0.12c0.09-0.02,0.25,0.05,0.13,0.06l-0.02-0.01
					c-0.04,0.1,0.3,0.02,0.3,0.1c0.47-0.02,0.93,0.03,1.37,0.03l-0.05-0.08l0.15,0c0.04,0.02,0.05,0.06-0.06,0.06
					c0.06,0.05,0.18-0.04,0.19-0.06c0.22,0.03-0.08,0.09-0.02,0.1l0.09-0.01L7.5,12.12c0.07-0.03,0.08-0.07,0.21-0.06
					c0.08,0.02,0.04,0.05,0.08,0.05c0,0.01,0.01,0.01,0.05,0l0.19,0.01l-0.08-0.06c0.09-0.03,0.18,0,0.09-0.07
					c0.13,0.11,0.73,0.05,0.81,0.09c0.12-0.04,0.24-0.04,0.39-0.03c-0.04-0.01-0.06-0.09,0.07-0.07c-0.05,0.15,0.23,0.07,0.33,0.18
					c-0.09-0.07,0.36,0,0.22-0.11c0.11,0.02,0,0.06,0.08,0.09c0.26-0.05,0.55,0.06,0.87,0.06c0.01-0.02-0.04-0.05,0.02-0.08
					l0.16,0.1c0.06-0.01,0.06-0.11,0.17-0.03c-0.01-0.02-0.04-0.04,0-0.05c0.61,0.13,1.26,0,1.86,0.23
					c-0.08-0.04-0.02-0.04,0.04-0.04c-0.04-0.01,0-0.05,0-0.07l0.25,0.09c0.05-0.07,0.28,0.02,0.31-0.05l-0.08,0.01
					c0.12-0.07-0.14-0.19-0.11-0.3c-0.13,0.08-0.31-0.17-0.53-0.05c-0.04-0.02,0.04-0.03,0.02-0.06c-0.05,0.04-0.12,0.05-0.23,0.02
					l0.01-0.01c-0.32-0.01-0.46-0.07-0.82-0.12l0.02,0.05c-0.08-0.01-0.09-0.03-0.13-0.05c-0.09,0.07,0.22,0.02,0.13,0.1
					c-0.1-0.11-0.55-0.04-0.61-0.16c-0.12-0.01,0.03,0.06-0.09,0.05l-0.03-0.03l-0.03,0.04c-0.08-0.01-0.12-0.05-0.12-0.08
					c0.02,0,0.05-0.01,0.08-0.01c-0.1-0.04-0.29,0-0.32-0.02l0.11,0.03c-0.33,0.01-0.73-0.05-1.04,0.01l0.02,0.03
					c-0.24,0.04-0.19-0.03-0.46-0.02l0.01-0.01c-0.05,0.02-0.12,0.03-0.2,0.03c0.07-0.03-0.12-0.06-0.04-0.09
					c-0.26,0.04-0.13,0.03-0.31,0.12l-0.04-0.04c-0.06,0.04-0.06,0.06-0.2,0.06c0.11-0.03-0.08-0.06,0.04-0.11
					c-0.28-0.1-0.41,0.08-0.54-0.05c-0.13,0.11,0.24,0.06,0.17,0.09c0.06,0.04-0.11,0.08-0.19,0.07c-0.09,0-0.15-0.15-0.37-0.14
					c0.02,0,0.02-0.01,0.05-0.01c-0.08-0.03-0.16,0.04-0.27-0.01c-0.06,0.07-0.13,0-0.15,0.08l0.2-0.02
					c-0.12,0.02-0.22,0.13-0.42,0.08c0.01-0.02,0.07-0.04,0.11-0.05c-0.06-0.03-0.11,0.02-0.17-0.01c0.02-0.09,0.25-0.02,0.37-0.09
					C7.45,11.6,7.28,11.7,7.34,11.6c-0.09,0.12-0.22-0.01-0.37,0.08l0.01-0.05c-0.02,0.01-0.07,0.03-0.12,0.03l0.08-0.07
					c-0.12,0.06-0.24-0.05-0.35-0.01c0.25-0.01,0.06,0.06,0.16,0.1c-0.3,0.08-0.18-0.14-0.52-0.1c0.05-0.01,0.17,0.03,0.1,0.05
					c-0.06-0.01-0.15-0.03-0.19-0.05c-0.23,0.02,0.04,0.05-0.06,0.09C6,11.61,5.97,11.7,5.87,11.72l0-0.05
					c-0.26-0.03-0.06,0.11-0.3,0.08l0.09-0.08l-0.12,0.02l0.02-0.06c-0.13,0.05-0.17,0.04-0.3,0.03c0.03,0.04-0.01,0.1-0.13,0.1
					c-0.08-0.03,0.04-0.05-0.12-0.04c0.03-0.03,0.07-0.08,0.14-0.03c0.01-0.02,0.03-0.03,0.04-0.05c-0.09-0.03-0.21,0-0.27,0
					c0.02,0,0.05,0,0.06,0.01l-0.23,0.09c-0.04-0.02-0.01-0.04,0.02-0.05c-0.05,0.01-0.08,0.03-0.15,0.04
					c0.02-0.04,0.01-0.09,0.11-0.11l-0.22,0.06c-0.02-0.02-0.12-0.04-0.09-0.06c-0.13-0.02-0.3,0.1-0.46,0.08
					c-0.01,0.01-0.02,0.02-0.06,0.03c-0.15,0-0.29-0.04-0.47,0.03l-0.11-0.07c-0.14,0.03,0.15,0.08-0.09,0.13
					c-0.17,0.04-0.07-0.06-0.13-0.08c-0.08,0.05-0.22,0.14-0.35,0.08C2.82,11.82,2.86,11.83,2.9,11.82z M2.67,10.98
					c0,0.03,0,0.11-0.03,0.12C2.59,11.04,2.63,11.03,2.67,10.98z M4.27,9.08C4.26,9.1,4.22,9.11,4.17,9.12
					C4.2,9.1,4.23,9.08,4.27,9.08z M11.57,8.42L11.57,8.42C11.49,8.39,11.52,8.4,11.57,8.42z M11.71,8.49
					c0.02,0,0.02-0.01,0.01-0.02c-0.01,0.01-0.05,0-0.09-0.02C11.65,8.47,11.66,8.49,11.71,8.49z M7.8,12.09l-0.03-0.01
					C7.84,12.06,7.82,12.07,7.8,12.09z"/>
				<path d="M4.05,9.28c-0.01,0-0.02-0.01-0.03-0.02C4.02,9.28,4.03,9.29,4.05,9.28z"/>
				<polygon points="3.98,11.7 3.98,11.7 3.99,11.69 				"/>
				<path d="M9.24,8.47C9.21,8.46,9.19,8.45,9.18,8.44C9.18,8.45,9.19,8.46,9.24,8.47z"/>
				<path d="M12.56,8.73l-0.1-0.03c0.05,0.02,0.06,0.04,0.08,0.06C12.54,8.74,12.53,8.71,12.56,8.73z"/>
				<path d="M13.15,9.49c0.02,0,0.03,0.02,0.04,0.02l0.01-0.02C13.16,9.45,13.11,9.44,13.15,9.49z"/>
				<path d="M12.57,8.93c-0.01,0.04,0.05,0.06,0.12,0.09c0,0-0.01,0-0.01-0.01C12.73,8.97,12.65,8.95,12.57,8.93z"/>
				<path d="M12.71,9.03c0.02,0.01,0.04,0.02,0.06,0.03C12.78,9.04,12.74,9.04,12.71,9.03z"/>
				<path d="M11.92,8.53c0.03,0.02,0.04-0.05,0.05-0.02C12.03,8.46,11.73,8.5,11.92,8.53z"/>
				<polygon points="12.55,9.09 12.56,9.03 12.5,9.05 				"/>
				<path d="M12.06,8.82l0.1,0.06c0-0.01,0.02-0.01,0.04-0.01C12.14,8.84,12.07,8.8,12.06,8.82z"/>
				<path d="M12.2,8.87c0.03,0.02,0.07,0.03,0.09,0.03C12.27,8.89,12.23,8.87,12.2,8.87z"/>
				<polygon points="12.41,9.03 12.39,9.01 12.32,8.97 				"/>
				<path d="M10.9,8.46l-0.12-0.01c-0.02,0.02,0.01,0.03,0.06,0.04C10.87,8.48,10.91,8.49,10.9,8.46z"/>
				<path d="M11.22,8.7c-0.03-0.02-0.03-0.03-0.04-0.05l-0.02,0.07L11.22,8.7z"/>
				<path d="M10.87,8.63c-0.02,0.02-0.18,0.01-0.03,0.04C10.86,8.66,10.98,8.67,10.87,8.63z"/>
				<polygon points="9.07,8.27 9.1,8.27 9.1,8.16 				"/>
				<path d="M7.46,8.54C7.6,8.56,7.49,8.47,7.62,8.49c0.03-0.03-0.11-0.02-0.07-0.05C7.46,8.48,7.41,8.47,7.46,8.54z"/>
				<path d="M7.54,8.45c0.01-0.01,0.02-0.01,0.04-0.02C7.56,8.44,7.55,8.44,7.54,8.45z"/>
				<polygon points="13.5,12.42 13.59,12.45 13.53,12.4 				"/>
				<path d="M13.68,12.35l0.02,0.07l0.06-0.06C13.74,12.36,13.7,12.37,13.68,12.35z"/>
				<path d="M2.9,10.83l-0.01-0.01c-0.02,0-0.03,0.02-0.05,0.06L2.9,10.83z"/>
				<path d="M2.57,11.71L2.57,11.71c-0.02,0.01-0.04,0.02-0.06,0.04L2.57,11.71z"/>
				<path d="M3.2,11.65c-0.04,0.01-0.1,0.01-0.14,0.02C3.16,11.65,3.22,11.73,3.2,11.65z"/>
			</g>
		</g>
		<g>
			<path d="M7.74,13.28c2.26,0.04,4.51,0.14,6.75,0.47c0.46,0.07,0.91,0.15,1.3,0.41c0.28,0.18,0.39,0.46,0.23,0.79
				c-0.15,0.31-0.43,0.37-0.7,0.24c-1.46-0.68-3.05-0.6-4.58-0.69C8,14.34,5.25,14.34,2.52,14.71c-0.37,0.05-0.72,0.1-1.06,0.27
				c-0.33,0.17-0.68,0.22-0.84-0.2c-0.16-0.4,0.01-0.7,0.41-0.88c0.74-0.33,1.55-0.36,2.33-0.42C4.81,13.36,6.28,13.34,7.74,13.28z"
				/>
			<g>
				<path d="M7.69,13.01c0.05,0,0.03-0.04,0.04-0.05C7.65,12.97,7.69,13.02,7.69,13.01z"/>
				<polygon points="6.9,13.15 6.91,13.13 6.8,13.19 				"/>
				<path d="M6.15,13.19c0.08,0.08,0.27-0.03,0.4,0l0.02,0.02l0.06-0.07C6.47,13.15,6.27,13.2,6.15,13.19z"/>
				<path d="M5.74,13.04c0.03,0.03-0.08,0.03,0.09,0.01c-0.01,0-0.01,0-0.02-0.01C5.8,13.04,5.78,13.04,5.74,13.04z"/>
				<path d="M5.82,13.04C5.9,13.03,5.76,13.01,5.82,13.04L5.82,13.04z"/>
				<path d="M5.45,13.07l0.1-0.03c-0.02-0.02-0.12-0.02-0.08-0.03C5.37,13.03,5.39,13.04,5.45,13.07z"/>
				<path d="M5.36,13.13l0.05-0.01C5.4,13.11,5.39,13.11,5.36,13.13z"/>
				<path d="M5.53,13.09l-0.11,0.03c0.02,0.01,0.02,0.04,0.05-0.01C5.46,13.13,5.48,13.11,5.53,13.09z"/>
				<path d="M5.59,13.1c0.06,0.01,0.14,0.02,0.03,0.05C5.82,13.13,5.79,13.08,5.59,13.1z"/>
				<path d="M6.12,13.27l0.08,0.02l0.07-0.03C6.23,13.28,6.11,13.25,6.12,13.27z"/>
				<path d="M4.81,13.06c-0.01,0.02,0.04,0.04,0.05,0.06l0.08-0.02C4.89,13.09,4.81,13.08,4.81,13.06z"/>
				<path d="M4.85,13.12l-0.11,0.03C4.84,13.16,4.86,13.14,4.85,13.12z"/>
				<polygon points="5.35,13.22 5.53,13.15 5.31,13.22 				"/>
				<polygon points="4.37,13.08 4.43,13.04 4.32,13.1 				"/>
				<path d="M4.08,13.1c0.05-0.03-0.07-0.05-0.02-0.07c-0.08,0.01-0.14,0.04-0.2,0.07C3.92,13.08,3.99,13.08,4.08,13.1z"/>
				<path d="M3.75,13.13c0.03-0.01,0.06-0.02,0.1-0.04C3.82,13.1,3.79,13.12,3.75,13.13z"/>
				<path d="M4.54,13.16c-0.01-0.01-0.03-0.04-0.09-0.04l0.05,0.04L4.54,13.16z"/>
				<path d="M4.5,13.16L4.5,13.16c-0.05,0-0.08,0-0.1,0C4.41,13.16,4.44,13.16,4.5,13.16z"/>
				<path d="M4.56,13.16l-0.01,0C4.55,13.16,4.55,13.16,4.56,13.16z"/>
				<path d="M5.04,13.19c-0.07,0.03-0.2,0.06-0.07,0.1C5.02,13.26,4.95,13.24,5.04,13.19z"/>
				<path d="M4.62,13.21l0.12,0c0-0.01-0.03-0.03,0.01-0.04L4.62,13.21z"/>
				<polygon points="4.56,13.23 4.62,13.21 4.57,13.21 				"/>
				<path d="M3.97,13.17c-0.05,0.02-0.11,0.03-0.17,0.03c0.07,0.01,0.14,0.01,0.21,0C4.01,13.19,4.04,13.16,3.97,13.17z"/>
				<path d="M4.23,13.17l-0.01,0C4.22,13.18,4.23,13.18,4.23,13.17z"/>
				<polygon points="3.16,13.24 3.17,13.25 3.17,13.24 				"/>
				<path d="M4.02,13.21c0.05,0.01,0.08-0.01,0.11-0.02C4.08,13.2,4.04,13.2,4,13.21C4,13.21,4,13.22,4.02,13.21z"/>
				<path d="M3.58,13.17c0.03,0.01,0.06,0.01,0.09,0.02C3.64,13.17,3.59,13.15,3.58,13.17z"/>
				<path d="M4.2,13.16L4.2,13.16C4.19,13.15,4.19,13.15,4.2,13.16z"/>
				<path d="M4.2,13.16c-0.03,0.01-0.05,0.02-0.07,0.03c0.03-0.01,0.06-0.01,0.09-0.02L4.2,13.16z"/>
				<path d="M2.99,13.55c0.01-0.04,0.14-0.09,0.26-0.06c0.11-0.04,0.03-0.18-0.08-0.25c0,0.02,0,0.04-0.12,0.07
					c0.04,0.02,0.27,0.03,0.17,0.08c-0.16,0.03-0.13-0.01-0.21-0.02c0.07,0.05-0.2,0.09-0.15,0.17l0.14-0.04
					C3,13.52,2.95,13.55,2.99,13.55z"/>
				<path d="M3.39,13.23l0.05-0.01c-0.06,0-0.1-0.02-0.18-0.05c-0.08,0.03-0.1,0.05-0.1,0.06l0.24-0.01L3.39,13.23z"/>
				<path d="M3.67,13.22c-0.03,0.05-0.15,0.07-0.08,0.12c0.14-0.01,0.1-0.04,0.18-0.07C3.54,13.29,3.84,13.24,3.67,13.22
					c0.05,0,0.09-0.01,0.13-0.01c-0.04,0-0.08-0.01-0.12-0.02l0.01,0l0,0l0,0c0.01,0.01,0.01,0.01,0,0.01l0,0
					C3.67,13.2,3.67,13.21,3.67,13.22C3.6,13.21,3.65,13.2,3.67,13.2l0-0.01l0,0l-0.23,0.04C3.49,13.23,3.56,13.23,3.67,13.22z"/>
				<path d="M4.86,13.4c-0.01,0-0.01-0.01-0.01-0.01C4.84,13.39,4.83,13.4,4.86,13.4z"/>
				<path d="M4.76,13.37c0.02-0.01,0.03-0.03,0.09-0.02c0.05,0.01,0,0.02,0,0.04c0.03-0.01,0.11-0.04,0.01-0.06l-0.02,0.01
					c-0.1-0.01-0.22-0.07-0.21-0.07C4.67,13.31,4.7,13.33,4.76,13.37z"/>
				<path d="M4.21,13.31l-0.19,0.03l0.1,0.04l-0.01-0.02C4.22,13.36,4.2,13.33,4.21,13.31z"/>
				<polygon points="3.13,13.22 3.15,13.16 3.05,13.24 				"/>
				<polygon points="2.88,13.24 2.88,13.2 2.82,13.23 				"/>
				<path d="M11.71,14.28l0.06-0.01C11.74,14.27,11.72,14.28,11.71,14.28z"/>
				<path d="M11.29,14.26l-0.01,0.02C11.3,14.27,11.31,14.26,11.29,14.26z"/>
				<path d="M3.64,14.86c0.09,0.03,0.18,0.09,0.17,0.04l-0.03-0.05C3.73,14.86,3.68,14.86,3.64,14.86z"/>
				<polygon points="7.88,14.39 7.86,14.38 7.8,14.42 				"/>
				<path d="M7.94,14.19l0.11,0.03C8.03,14.22,7.99,14.2,7.94,14.19z"/>
				<path d="M14.02,14.45l0.08-0.03C13.99,14.39,14.03,14.42,14.02,14.45z"/>
				<path d="M0.32,14.31c-0.04,0.1-0.05,0.19-0.05,0.26C0.28,14.45,0.35,14.35,0.32,14.31z"/>
				<path d="M11.53,14.78c0.04-0.01,0.05-0.02,0.05-0.03C11.54,14.76,11.52,14.77,11.53,14.78z"/>
				<path d="M0.33,14.85c0-0.02,0-0.03-0.01-0.05c-0.03-0.06-0.05-0.13-0.06-0.23C0.26,14.67,0.27,14.78,0.33,14.85z"/>
				<path d="M10.82,13.66c-0.01,0-0.01,0-0.02-0.01C10.8,13.66,10.81,13.66,10.82,13.66z"/>
				<path d="M8.44,13.08c0.03,0,0.06,0,0.1,0C8.52,13.08,8.49,13.08,8.44,13.08z"/>
				<path d="M1.83,13.35C1.89,13.34,1.84,13.34,1.83,13.35L1.83,13.35z"/>
				<path d="M2.13,13.49c-0.01,0.01-0.02,0.02-0.02,0.03C2.11,13.51,2.12,13.5,2.13,13.49z"/>
				<path d="M0.98,15.1L0.98,15.1C0.97,15.08,0.97,15.09,0.98,15.1z"/>
				<path d="M1.92,13.36c-0.03,0-0.05,0-0.07,0C1.86,13.36,1.89,13.36,1.92,13.36z"/>
				<path d="M1.9,13.34c0.02,0,0.04,0,0.05,0C1.96,13.32,1.95,13.32,1.9,13.34z"/>
				<path d="M1.75,13.37c0.03-0.01,0.06-0.01,0.09-0.01c-0.01,0-0.01-0.01-0.01-0.01C1.81,13.35,1.79,13.36,1.75,13.37z"/>
				<path d="M15.17,14.03C15.17,14.03,15.16,14.02,15.17,14.03C15.1,14.02,15.13,14.03,15.17,14.03z"/>
				<polygon points="5,14.25 4.99,14.25 5,14.25 				"/>
				<path d="M5.19,14.2C5.11,14.27,5.07,14.26,5,14.25l0.07,0.13L5.19,14.2z"/>
				<path d="M12.71,14.32l-0.13-0.05c0.17-0.06,0.29-0.03,0.17-0.1c-0.03,0.15-0.54-0.02-0.56,0.13l-0.09-0.04
					c0.03,0,0.03-0.01,0.06,0c-0.17-0.08-0.14,0.1-0.36,0.07c-0.08-0.01-0.13-0.04-0.08-0.05l-0.18,0.03
					c-0.05,0-0.04-0.03,0.01-0.03l-0.27,0l0,0c-0.04,0.02-0.13,0.05-0.17,0.07c-0.07-0.02,0.03-0.01,0.02-0.03l-0.15,0.03
					c-0.06-0.04,0.06-0.07,0.17-0.06c-0.13-0.15-0.12,0.03-0.41-0.07l0.14-0.01c-0.08-0.09-0.19-0.06-0.35-0.13
					c0.04,0.03,0.31,0.15,0.15,0.18c-0.04-0.01-0.1-0.02-0.19,0c0-0.05-0.08-0.04-0.19-0.05l0.01-0.07
					c-0.12,0.01-0.11,0.05-0.18,0.08C10,14.21,9.98,14.15,9.95,14.1c-0.2-0.02,0.14,0.09-0.1,0.1c-0.17-0.04-0.29-0.01-0.49,0.02
					c-0.12-0.03,0.02-0.04-0.02-0.06l-0.11,0.05c-0.03,0-0.02-0.02-0.01-0.03c-0.09,0.02-0.01,0.07-0.15,0.09
					c-0.04,0.08-0.28-0.12-0.46-0.04c-0.04-0.02,0.02-0.04,0.01-0.07c-0.24,0.05-0.2,0.04-0.4,0.11l-0.16-0.05
					c0.12,0.05-0.04,0.12-0.17,0.17c0.05,0.03,0.08,0.05,0.1,0.06l-0.22,0.04c-0.03-0.01,0-0.04,0.03-0.06l-0.04,0.02
					c-0.08-0.03-0.04-0.07,0.02-0.11l0.08,0.04c0.05-0.04,0.1-0.09,0.09-0.13c-0.01,0.01-0.04,0.01-0.07,0.02
					c0.01-0.01,0.02-0.02,0.02-0.03c-0.01-0.01-0.03,0.01-0.07,0.03l-0.05-0.08l-0.01,0.03l-0.28-0.05c-0.2,0.08-0.38,0.2-0.7,0.23
					c0.08-0.06,0.02-0.09,0.02-0.16c0.09,0.07,0.25-0.03,0.42-0.02c-0.09-0.01-0.07-0.04-0.05-0.05l-0.3,0.07
					c0.01-0.06-0.06-0.04-0.14-0.06c0.06,0.11-0.22,0.08-0.34,0.11c-0.01-0.04,0.02-0.08,0.17-0.07c-0.17-0.08-0.21,0.13-0.37,0.07
					c0.04,0,0.06,0,0.07-0.02c-0.08,0.03-0.29,0.02-0.24-0.02l0.04,0c-0.24-0.01-0.73,0.03-0.76,0.13c0-0.01,0.03-0.11,0.04-0.13
					l-0.41,0.34c0.03-0.08-0.12-0.26,0.07-0.32c-0.06-0.01-0.13-0.02-0.25,0.02c0.04,0.01,0.1,0.11,0.05,0.12
					c-0.15-0.08-0.1-0.04-0.29-0.1c0.06,0.01,0,0.14-0.09,0.15c0.01-0.02-0.02-0.12,0.02-0.14l-0.22,0.14
					c0.06-0.03,0-0.11-0.05-0.14c0.03,0.02-0.2,0.01-0.26,0.03L4,14.35c-0.26,0.01-0.24,0.2-0.5,0.22c0.03-0.03,0.06-0.16-0.07-0.17
					c-0.05,0.07-0.23,0.33-0.45,0.41l-0.05-0.03l-0.17,0.06c0.09-0.11,0.37-0.34,0.53-0.44c-0.1-0.02-0.03-0.04-0.18-0.02
					c-0.06-0.03,0.07-0.06,0.12-0.07L2.9,14.33c0.02,0.07-0.25,0.11-0.23,0.17l0.36-0.12c0.02,0.07-0.19,0.23-0.43,0.25
					c-0.06-0.02,0.03-0.14,0.02-0.16c-0.03,0.03-0.22,0.08-0.24,0.06l0.1-0.05c-0.14-0.01-0.2,0.13-0.38,0.09
					c-0.06,0-0.19-0.06-0.19-0.01c0.11,0.06,0.18,0.31,0.14,0.39c-0.02-0.01-0.29-0.01-0.36-0.02c-0.11-0.03,0.08-0.19-0.01-0.22
					c0,0.02-0.04,0.06-0.06,0.08c-0.06,0.01,0-0.07-0.12-0.01c0,0.08-0.25,0.11-0.03,0.08c-0.11,0.07-0.12,0.05-0.24,0.09
					c0.06,0.03-0.06,0.2-0.21,0.22c0.01-0.02-0.02-0.04-0.03-0.06c-0.25-0.06-0.28-0.24-0.35-0.44c0.01-0.03,0.02-0.13,0.06-0.09
					c-0.02-0.03-0.05-0.05-0.04-0.11c0.07-0.11,0,0.13,0.09,0.05c-0.05,0-0.05-0.15-0.02-0.23c-0.08-0.01-0.1,0.2-0.05,0.28
					c-0.08,0.03-0.25-0.19-0.08-0.48C0.72,13.88,0.68,14.04,0.7,14c0.33-0.22,0.23-0.32,0.55-0.38c0.14,0.02,0.04,0.11,0.08,0.14
					c-0.14,0.07-0.24,0.05-0.35,0.1l0.14-0.03c-0.04,0.04-0.13,0.09-0.19,0.11c0.11-0.01,0.58-0.23,0.87-0.23
					c0.04-0.03,0.13-0.07,0.08-0.08L1.8,13.65c-0.09-0.03,0.15-0.1,0.04-0.1c0.11-0.06,0.24-0.13,0.42-0.13l0.04,0.06
					c-0.01-0.02-0.12-0.03-0.16,0c0.07-0.04,0.27,0.06,0.34-0.04l-0.12-0.03c0.12-0.05,0.26-0.13,0.42-0.13
					c-0.07-0.06-0.03,0.01-0.15-0.06c0.1,0.09-0.39,0.04-0.23,0.12c-0.12-0.08-0.2-0.02-0.36-0.07c0.01,0.02,0.06,0.03-0.07,0.04
					c0,0.01-0.02,0.02-0.03,0.02l-0.01,0l0.01,0c-0.01,0-0.01,0.01,0,0c0.03,0,0.06,0.01,0.07,0.02c-0.06,0.06-0.26,0.1-0.32,0.14
					c-0.08,0.01,0.03-0.03-0.02-0.05l-0.09,0.06c-0.02-0.05-0.22-0.02-0.05-0.1l-0.16,0.04c-0.1,0-0.24,0.04-0.31,0.09
					c-0.08,0.02-0.17,0.13-0.12,0.07c-0.08,0.05-0.17,0.11-0.25,0.18l-0.01-0.01c-0.29,0.17-0.39,0.64-0.33,1
					c0.05,0.1,0.08,0.19,0.23,0.37l0,0.06c0.12,0.14,0.51,0.25,0.57,0.17c0.09,0.05,0.28,0.01,0.43-0.07
					c0.14-0.08,0.21-0.12,0.3-0.14l-0.01-0.06c0.09-0.03,0.19-0.06,0.36-0.12l-0.02-0.05c0.12-0.06,0.34-0.02,0.56-0.05
					c-0.01,0.02-0.07,0.02-0.11,0.02c0.27,0.08,0.53-0.15,0.77-0.09c0.06-0.02,0.1-0.02,0.14-0.01c-0.01,0-0.01,0-0.01,0l0.02,0
					c0.03,0.01,0.06,0.01,0.08,0.02c-0.03-0.01-0.05-0.02-0.07-0.02c0.04-0.01,0.11-0.02,0.18-0.04l0.03,0.05c0.01,0,0.01,0,0.02,0
					c0.07,0.01,0.05-0.03,0.01-0.07c0.03-0.01,0.06-0.03,0.09-0.04c0.06,0.08,0.17-0.05,0.25,0.04c0.04-0.05,0.33-0.06,0.36-0.16
					c0,0.01,0.02,0.02-0.01,0.02c0.08,0,0.15,0.01,0.22-0.02l0.04,0.07l0.16-0.1c0.1,0.03,0.14,0.06,0.05,0.11
					c0.23-0.1,0.19-0.04,0.39-0.13l-0.01,0.04c0.07-0.01,0.18-0.07,0.23-0.04c0.16,0.07,0.8-0.02,1.22,0.05
					c-0.08-0.13,0.19,0.05,0.21-0.04c0.02,0.03,0.08,0.05,0.02,0.07c0.21-0.03,0.32,0.05,0.46-0.04c0.02,0.03-0.05,0.04-0.02,0.06
					c0.02-0.01,0.07-0.03,0.09-0.01c0.02,0.02-0.03,0.03-0.06,0.04c0.22-0.01,0.24-0.1,0.25-0.19c0.11,0.04,0.16,0.04,0.24-0.02
					c0.04,0.03,0.1,0.06-0.03,0.07c0.08,0,0.46,0.05,0.47-0.02c0.02,0.02,0.11,0.01,0.13,0c0.17,0.01,0.18,0.01,0.35,0.01
					l-0.05-0.01c0.07-0.08,0.14-0.01,0.27-0.02l0,0.01c0.31,0.07,0.13-0.02,0.44,0.06l-0.01-0.05c0.03-0.11,0.27,0.08,0.44,0.04
					l-0.06-0.03c0.1-0.03,0.26,0.17,0.36,0.19c0.02,0.01-0.03,0.01-0.06,0.02c0.25,0.08,0.04-0.07,0.23-0.07
					c0.03,0.04-0.05,0.09,0.08,0.11c0.06,0.03,0.38-0.1,0.55-0.02c-0.04-0.03-0.07-0.06,0.02-0.08c0.14,0,0.36,0.12,0.49,0.04
					c0.02,0.01,0.02,0.02,0.02,0.02c0.1-0.02,0.34-0.03,0.4-0.07c0.09,0.18,0.64-0.06,0.63,0.11l0.31,0.02l-0.01,0.02
					c0.2,0.03,0.27,0,0.35-0.03c0.04,0.02,0.01,0.03,0,0.04c0.28,0.07,0.31,0.07,0.57,0.03l0.01,0.06c0.07-0.02,0.39,0.16,0.67,0.19
					c0,0.01-0.01,0.01-0.04,0.01c0.34,0.02,0.62,0.39,0.85,0.27c0.09,0.02,0.19,0.02,0.28,0c-0.33-0.04,0.05-0.08-0.08-0.12
					c0.1,0.01,0.31,0.01,0.17,0.06l-0.03-0.01c-0.02,0.05,0.09,0.06,0.2,0c0.11-0.05,0.19-0.15,0.21-0.13
					c0.21-0.25,0.3-0.68,0.07-0.99c-0.22-0.29-0.48-0.4-0.75-0.5l0.03,0.1l-0.18-0.06c-0.04-0.03-0.05-0.08,0.08-0.04
					c-0.06-0.07-0.23-0.03-0.24-0.01c-0.25-0.09,0.12-0.07,0.04-0.09l-0.11-0.02l0.02,0.01c-0.09,0.01-0.11,0.04-0.26,0.01
					c-0.1-0.03-0.04-0.06-0.08-0.07c0-0.01-0.01-0.01-0.06-0.01l-0.23-0.04l0.08,0.08c-0.1,0.02-0.21-0.03-0.12,0.05
					c-0.14-0.13-0.83-0.15-0.92-0.19c-0.15,0.03-0.28,0.01-0.45-0.01c0.04,0.02,0.06,0.09-0.09,0.07c0.07-0.14-0.26-0.09-0.37-0.21
					c0.1,0.08-0.42-0.02-0.26,0.09c-0.12-0.02,0-0.06-0.09-0.1c-0.3,0.03-0.65-0.09-1.01-0.09c-0.01,0.02,0.05,0.05-0.03,0.08
					l-0.19-0.11c-0.07,0.01-0.07,0.11-0.2,0.03c0.02,0.02,0.04,0.04,0,0.05c-0.71-0.13-1.46,0.01-2.18-0.19
					c0.1,0.04,0.03,0.04-0.04,0.04c0.05,0.01,0,0.05,0.01,0.07l-0.3-0.08c-0.06,0.07-0.32,0-0.36,0.07l0.1-0.01
					c-0.13,0.08,0.17,0.19,0.15,0.29c0.14-0.09,0.37,0.15,0.61,0.02c0.05,0.02-0.04,0.03-0.02,0.06c0.06-0.04,0.13-0.05,0.26-0.03
					l-0.02,0.01c0.37,0,0.53,0.05,0.95,0.1L9.9,13.53c0.09,0.01,0.11,0.03,0.15,0.04c0.11-0.07-0.25-0.02-0.15-0.1
					c0.11,0.11,0.63,0.03,0.71,0.16c0.14,0.01-0.04-0.06,0.1-0.05l0.03,0.03l0.04-0.04c0.09,0.01,0.13,0.06,0.13,0.08
					c-0.02,0-0.06,0-0.09,0c0.11,0.05,0.33,0.01,0.37,0.02l-0.13-0.03c0.38-0.01,0.83,0.07,1.2,0.04l-0.03-0.03
					c0.28-0.02,0.22,0.05,0.52,0.05l-0.01,0c0.06-0.02,0.15-0.02,0.23-0.01c-0.08,0.02,0.14,0.07,0.03,0.09
					c0.3-0.02,0.15-0.02,0.36-0.09l0.04,0.05c0.07-0.03,0.08-0.05,0.23-0.04c-0.13,0.02,0.09,0.07-0.06,0.1
					c0.31,0.13,0.48-0.03,0.61,0.12c0.16-0.09-0.27-0.1-0.18-0.11c-0.06-0.05,0.13-0.07,0.23-0.04c0.1,0.02,0.15,0.17,0.4,0.2
					c-0.02,0-0.03,0-0.05,0c0.09,0.04,0.19-0.01,0.29,0.06c0.08-0.05,0.14,0.04,0.18-0.04l-0.23-0.03c0.13,0,0.28-0.07,0.47,0.05
					c-0.02,0.01-0.09,0.01-0.13,0.01c0.05,0.04,0.12,0.02,0.17,0.07c-0.04,0.07-0.26-0.07-0.41-0.03c0.06,0.05,0.26,0,0.17,0.08
					c0.13-0.09,0.21,0.08,0.39,0.07l-0.03,0.04c0.02,0,0.08,0,0.12,0.03l-0.1,0.02c0.14,0.01,0.18,0.16,0.24,0.19
					c-0.14-0.12,0.01-0.07-0.03-0.16c0.25,0.12,0.04,0.2,0.1,0.32c0-0.02,0.02-0.09,0.05-0.06c0,0.04-0.02,0.09-0.06,0.1
					c-0.03,0.14,0.06-0.01,0.07,0.06c-0.08,0.03,0,0.09-0.03,0.18l-0.04-0.03c-0.14,0.09,0.05,0.13-0.12,0.17
					c0.02-0.03,0.02-0.06,0.03-0.09c-0.02,0.01-0.03,0.03-0.05,0.04l0-0.06c-0.05,0.06-0.09,0.04-0.17,0c0,0.04-0.03,0.09-0.17,0.03
					c-0.07-0.07,0.07-0.03-0.11-0.1c0.05-0.01,0.11-0.03,0.17,0.05c0.02-0.01,0.05-0.01,0.07-0.03c-0.08-0.07-0.23-0.11-0.3-0.13
					c0.03,0.01,0.05,0.03,0.07,0.04l-0.29-0.03c-0.03-0.03,0-0.04,0.04-0.04c-0.06-0.01-0.1-0.01-0.18-0.03
					c0.03-0.03,0.04-0.08,0.16-0.06l-0.27-0.04c-0.01-0.02-0.12-0.09-0.08-0.09c-0.14-0.06-0.38-0.01-0.56-0.08
					c-0.01,0.01-0.03,0.01-0.08,0.01c-0.18-0.04-0.33-0.12-0.55-0.09l-0.11-0.09c-0.17,0,0.15,0.12-0.13,0.11
					c-0.2,0-0.07-0.07-0.13-0.1c-0.1,0.03-0.28,0.09-0.45,0.02C12.61,14.3,12.66,14.32,12.71,14.32z M10.68,14.25
					c0.04-0.01,0.12-0.04,0.15-0.01C10.78,14.31,10.74,14.28,10.68,14.25z M7.58,14.29c0.03-0.02,0.07-0.01,0.13,0.01
					C7.67,14.3,7.63,14.3,7.58,14.29z M1.23,13.55L1.23,13.55C1.14,13.57,1.17,13.56,1.23,13.55z M1.43,13.52
					c0.02-0.01,0.01-0.02,0-0.02c-0.01,0.02-0.05,0.03-0.1,0.04C1.35,13.54,1.37,13.54,1.43,13.52z M14.68,13.56l0.03,0.02
					C14.63,13.58,14.66,13.57,14.68,13.56z"/>
				<path d="M7.93,14.22c0.01,0.01,0.01,0.02,0.02,0.03C7.96,14.24,7.97,14.23,7.93,14.22z"/>
				<polygon points="14,14.45 14.01,14.45 14.02,14.45 				"/>
				<path d="M1.59,14.69c0.04-0.01,0.07-0.01,0.08,0C1.67,14.68,1.65,14.68,1.59,14.69z"/>
				<path d="M2.4,13.24l-0.12,0.03c0.06-0.01,0.08,0,0.11,0C2.39,13.26,2.37,13.25,2.4,13.24z"/>
				<path d="M3.45,13.48c0.02-0.01,0.04,0,0.05-0.01l-0.01-0.02C3.42,13.46,3.37,13.48,3.45,13.48z"/>
				<path d="M2.53,13.41c0.01,0.04,0.09,0.02,0.17,0.01c-0.01,0-0.01,0-0.01,0C2.7,13.35,2.62,13.38,2.53,13.41z"/>
				<path d="M2.72,13.41c0.03,0,0.05-0.01,0.08-0.01C2.8,13.37,2.76,13.4,2.72,13.41z"/>
				<path d="M1.66,13.43c0.04,0,0.01-0.06,0.04-0.05C1.73,13.31,1.44,13.51,1.66,13.43z"/>
				<polygon points="2.61,13.55 2.58,13.49 2.54,13.54 				"/>
				<path d="M1.97,13.59l0.13-0.01c0-0.01,0.01-0.02,0.03-0.02C2.05,13.57,1.96,13.57,1.97,13.59z"/>
				<path d="M2.13,13.56c0.04-0.01,0.08-0.01,0.1-0.02C2.21,13.54,2.16,13.55,2.13,13.56z"/>
				<polygon points="2.44,13.58 2.4,13.57 2.31,13.58 				"/>
				<path d="M0.65,14.11c-0.03,0.04-0.05,0.09-0.07,0.14c0.01,0.02,0.04-0.01,0.06-0.06C0.65,14.15,0.68,14.11,0.65,14.11z"/>
				<path d="M1.08,13.99c-0.04,0-0.04-0.01-0.07-0.01l0.03,0.06L1.08,13.99z"/>
				<path d="M0.79,14.21c0,0.02-0.05,0.16,0.02,0.05C0.8,14.24,0.87,14.14,0.79,14.21z"/>
				<polygon points="1.86,14.8 1.83,14.81 1.86,14.92 				"/>
				<path d="M3.72,14.28c-0.17-0.01-0.03,0.07-0.19,0.05c-0.04,0.03,0.13,0.02,0.09,0.04C3.72,14.33,3.77,14.34,3.72,14.28z"/>
				<path d="M3.62,14.37c-0.01,0.01-0.03,0.01-0.05,0.02C3.59,14.38,3.61,14.38,3.62,14.37z"/>
				<polygon points="8.05,13.01 7.94,12.99 8.01,13.03 				"/>
				<path d="M7.84,13.09l-0.02-0.07l-0.07,0.06C7.77,13.08,7.82,13.08,7.84,13.09z"/>
				<path d="M10.38,14.09l-0.01,0.02c0.02,0.02,0.04,0.02,0.09,0.03L10.38,14.09z"/>
				<polygon points="11.85,14.21 11.82,14.21 11.87,14.28 				"/>
				<path d="M13.11,14.21c-0.05-0.01-0.11,0-0.17-0.01C13.06,14.2,13.12,14.29,13.11,14.21z"/>
			</g>
		</g>
		<g>
			<path d="M6.52,2.74c0-0.28,0-0.55,0.01-0.83c0.01-0.59-0.15-1.27,0.72-1.44c1.01-0.2,2-0.33,2.87,0.39
				c0.12,0.1,0.17,0.33,0.17,0.5c0,0.95-0.03,1.9-0.02,2.84c0,0.46-0.16,0.58-0.61,0.48c-0.84-0.19-1.71-0.2-2.55-0.04
				C6.58,4.75,6.47,4.59,6.5,4.11C6.53,3.65,6.51,3.19,6.52,2.74z M7.43,2.26C7.49,2.73,7.79,3.1,8.42,3.09
				c0.64-0.01,0.94-0.44,0.96-1.01c0.01-0.62-0.43-0.98-1-0.96C7.82,1.14,7.41,1.48,7.43,2.26z"/>
			<g>
				<path class="st3" d="M6.52,2.74c0-0.28,0-0.55,0.01-0.83c0.01-0.59-0.15-1.27,0.72-1.44c1.01-0.2,2-0.33,2.87,0.39
					c0.12,0.1,0.17,0.33,0.17,0.5c0,0.95-0.03,1.9-0.02,2.84c0,0.46-0.16,0.58-0.61,0.48c-0.84-0.19-1.71-0.2-2.55-0.04
					C6.58,4.75,6.47,4.59,6.5,4.11C6.53,3.65,6.51,3.19,6.52,2.74z M7.43,2.26C7.49,2.73,7.79,3.1,8.42,3.09
					c0.64-0.01,0.94-0.44,0.96-1.01c0.01-0.62-0.43-0.98-1-0.96C7.82,1.14,7.41,1.48,7.43,2.26z"/>
				<g>
					<path d="M7.7,2.25c0,0.01,0.04,0,0.05,0.01C7.74,2.24,7.69,2.25,7.7,2.25z"/>
					<polygon points="7.6,2.11 7.62,2.11 7.57,2.09 					"/>
					<path d="M7.61,1.98c-0.08,0,0.01,0.05-0.02,0.07l-0.02,0l0.06,0.02C7.63,2.04,7.59,2,7.61,1.98z"/>
					<path d="M7.79,1.95c-0.03,0-0.02-0.02-0.01,0.01l0.01,0C7.79,1.96,7.79,1.95,7.79,1.95z"/>
					<path d="M7.79,1.96C7.79,1.97,7.81,1.96,7.79,1.96L7.79,1.96z"/>
					<path d="M7.78,1.91L7.8,1.93c0.02,0,0.03-0.01,0.04,0C7.83,1.91,7.81,1.9,7.78,1.91z"/>
					<path d="M7.73,1.88l0.01,0.01C7.75,1.89,7.75,1.89,7.73,1.88z"/>
					<path d="M7.76,1.91L7.74,1.89c-0.01,0-0.04-0.01,0.01,0.01C7.72,1.89,7.74,1.9,7.76,1.91z"/>
					<path d="M7.74,1.92c-0.02,0-0.03,0.01-0.05-0.01C7.69,1.94,7.75,1.95,7.74,1.92z"/>
					<path d="M7.53,1.97L7.51,1.98l0.02,0.02C7.52,1.98,7.56,1.97,7.53,1.97z"/>
					<path d="M7.84,1.83c-0.02,0-0.04-0.01-0.06-0.02l0.01,0.02C7.81,1.83,7.82,1.83,7.84,1.83z"/>
					<path d="M7.78,1.82L7.76,1.79C7.75,1.8,7.76,1.81,7.78,1.82z"/>
					<polygon points="7.64,1.85 7.7,1.9 7.65,1.85 					"/>
					<polygon points="7.87,1.78 7.9,1.8 7.85,1.77 					"/>
					<path d="M7.88,1.75C7.9,1.77,7.93,1.77,7.94,1.78c0-0.01-0.02-0.03-0.04-0.05C7.91,1.75,7.9,1.75,7.88,1.75z"/>
					<path d="M7.88,1.71C7.88,1.71,7.89,1.72,7.9,1.73C7.9,1.73,7.89,1.72,7.88,1.71z"/>
					<path d="M7.78,1.77c0.01,0,0.03,0.01,0.05,0.01L7.78,1.77L7.78,1.77z"/>
					<path d="M7.78,1.76L7.78,1.76c0.01,0,0.01-0.01,0.01-0.01S7.78,1.76,7.78,1.76z"/>
					<path d="M7.78,1.77L7.78,1.77C7.78,1.77,7.77,1.77,7.78,1.77z"/>
					<path d="M7.7,1.82C7.68,1.8,7.66,1.77,7.61,1.78C7.64,1.8,7.67,1.79,7.7,1.82z"/>
					<path d="M7.72,1.76L7.7,1.77c0.01,0,0.03,0.01,0.04,0.02L7.72,1.76z"/>
					<polygon points="7.71,1.74 7.72,1.76 7.72,1.75 					"/>
					<path d="M7.82,1.7C7.81,1.69,7.81,1.68,7.82,1.67c-0.01,0-0.02,0.01-0.03,0.02C7.8,1.7,7.82,1.71,7.82,1.7z"/>
					<path d="M7.8,1.73L7.8,1.73C7.8,1.73,7.79,1.73,7.8,1.73z"/>
					<polygon points="7.86,1.6 7.86,1.6 7.86,1.61 					"/>
					<path d="M7.78,1.69c-0.01,0,0,0.01,0.01,0.02C7.79,1.7,7.79,1.7,7.78,1.69C7.78,1.69,7.78,1.69,7.78,1.69z"/>
					<path d="M7.87,1.68l-0.03,0C7.86,1.68,7.88,1.68,7.87,1.68z"/>
					<path d="M7.81,1.73L7.81,1.73C7.82,1.74,7.82,1.73,7.81,1.73z"/>
					<path d="M7.81,1.73C7.8,1.73,7.8,1.72,7.79,1.71c0,0.01,0,0.01,0.01,0.02L7.81,1.73z"/>
					<path d="M7.65,1.38c0.03,0.03,0.05,0.08,0,0.06C7.66,1.48,7.79,1.56,7.86,1.6C7.84,1.59,7.83,1.58,7.82,1.55
						c-0.02-0.01-0.07,0-0.09-0.04c0-0.04,0.03-0.01,0.05,0c-0.05-0.03-0.04-0.08-0.1-0.13l0,0.04C7.68,1.41,7.67,1.38,7.65,1.38z"
						/>
					<path d="M7.83,1.62L7.83,1.62c0.01,0.01,0.03,0.01,0.06,0.03C7.88,1.63,7.87,1.61,7.86,1.61L7.83,1.62L7.83,1.62z"/>
					<path d="M7.82,1.65C7.78,1.62,7.77,1.6,7.73,1.58C7.72,1.6,7.75,1.61,7.76,1.64C7.77,1.6,7.78,1.66,7.82,1.65
						c0,0.01,0,0.01,0,0.02l0.03,0l0,0l0,0l0,0c-0.01,0-0.01,0-0.01,0l0,0L7.82,1.65c0.01,0,0.01,0.01,0.01,0.01l0.01,0l0,0
						L7.83,1.63C7.83,1.63,7.82,1.64,7.82,1.65z"/>
					<path d="M7.52,1.72l0.01,0C7.53,1.72,7.53,1.72,7.52,1.72z"/>
					<path d="M7.56,1.72c0.01,0.01,0.02,0.01,0.01,0.02c-0.02,0-0.02-0.01-0.04-0.01c0.01,0.01,0.02,0.03,0.05,0.02l-0.01,0
						c0.02-0.01,0.08-0.01,0.09,0C7.63,1.73,7.6,1.72,7.56,1.72z"/>
					<path d="M7.68,1.67L7.67,1.63l-0.04,0l0.02,0.01C7.63,1.65,7.66,1.66,7.68,1.67z"/>
					<polygon points="7.88,1.62 7.92,1.65 7.87,1.59 					"/>
					<polygon points="7.9,1.59 7.93,1.62 7.92,1.6 					"/>
					<path d="M9.56,2.56l0.01,0.02C9.57,2.57,9.56,2.57,9.56,2.56z"/>
					<path d="M9.59,2.47L9.57,2.46C9.58,2.47,9.59,2.47,9.59,2.47z"/>
					<path d="M8.71,1.45c0,0.04-0.02,0.1,0,0.06l0.01-0.05C8.71,1.46,8.71,1.46,8.71,1.45z"/>
					<path d="M9.35,1.76c0,0,0.01-0.01,0.01-0.01l-0.05,0L9.35,1.76z"/>
					<path d="M9.54,1.72L9.52,1.75C9.53,1.74,9.54,1.73,9.54,1.72z"/>
					<path d="M9.31,3.07l0.02,0.05C9.35,3.1,9.32,3.09,9.31,3.07z"/>
					<path d="M8.18,1.41C8.2,1.43,8.21,1.43,8.22,1.43C8.2,1.41,8.18,1.37,8.18,1.41z"/>
					<path d="M9.09,2.38C9.09,2.39,9.1,2.39,9.11,2.4C9.11,2.39,9.1,2.38,9.09,2.38z"/>
					<path d="M8.24,1.43c0,0-0.01-0.01-0.01-0.01C8.23,1.42,8.23,1.43,8.22,1.43C8.23,1.45,8.24,1.46,8.24,1.43z"/>
					<path d="M7.45,2.98L7.45,2.98C7.45,2.98,7.45,2.98,7.45,2.98z"/>
					<path d="M7.66,2.35c0,0,0.01,0.01,0.01,0.01C7.67,2.36,7.67,2.35,7.66,2.35z"/>
					<path d="M8.01,1.53C8,1.53,8.01,1.53,8.01,1.53L8.01,1.53z"/>
					<path d="M7.87,1.39c0-0.01,0-0.01-0.01-0.02C7.86,1.38,7.87,1.39,7.87,1.39z"/>
					<path d="M8.29,1.12L8.29,1.12C8.29,1.11,8.29,1.11,8.29,1.12z"/>
					<path d="M7.99,1.51C7.99,1.52,8,1.52,8,1.52S7.99,1.52,7.99,1.51z"/>
					<path d="M8,1.53L8,1.53C8,1.54,8,1.54,8,1.53z"/>
					<polygon points="8.01,1.52 8,1.52 8.01,1.53 					"/>
					<path d="M8.42,3.24L8.42,3.24C8.41,3.25,8.41,3.25,8.42,3.24z"/>
					<polygon points="9.17,1.14 9.17,1.14 9.17,1.14 					"/>
					<path d="M9.23,1.14c-0.05,0.03-0.06,0.02-0.06,0L9.1,1.26L9.23,1.14z"/>
					<path d="M9.48,2.79l0.05-0.01c0.04,0.07,0,0.09,0.07,0.09c-0.13-0.08,0.05-0.14-0.08-0.2l0.04-0.01c0,0.01,0,0.01,0,0.01
						c0.08-0.01-0.09-0.07-0.05-0.11c0.02-0.01,0.04-0.02,0.05,0L9.54,2.51c0.01-0.01,0.03,0,0.02,0.01l0.01-0.06l0,0
						C9.55,2.45,9.52,2.42,9.51,2.41C9.53,2.4,9.52,2.42,9.54,2.42L9.51,2.38c0.04-0.01,0.07,0.03,0.06,0.05
						c0.15,0-0.03-0.03,0.07-0.08l0.01,0.04c0.09-0.01,0.06-0.04,0.12-0.07C9.74,2.32,9.63,2.37,9.6,2.33
						c0.01-0.01,0.02-0.02-0.01-0.04c0.05,0.01,0.04-0.01,0.04-0.04L9.7,2.26C9.69,2.23,9.65,2.23,9.62,2.21
						c0.01-0.03,0.06-0.03,0.11-0.03c0.01-0.05-0.09,0.03-0.1-0.03c0.03-0.04,0-0.06-0.04-0.11c0.02-0.03,0.04,0,0.06-0.01
						L9.59,2.01C9.6,2,9.61,2,9.62,2C9.6,1.98,9.55,2,9.53,1.98c-0.08,0,0.11-0.07,0.01-0.1c0.02-0.01,0.04,0,0.07-0.01
						C9.55,1.82,9.57,1.82,9.48,1.8l0.04-0.05C9.47,1.79,9.41,1.77,9.35,1.76C9.33,1.77,9.31,1.79,9.3,1.79L9.25,1.77
						c0.01-0.01,0.03-0.01,0.06-0.01l-0.02,0c0.02-0.02,0.06-0.03,0.1-0.03L9.36,1.75c0.04,0,0.09,0,0.13-0.02
						c-0.01,0-0.02,0-0.02-0.01c0.01,0,0.02,0,0.03,0c0.01,0-0.01,0-0.03-0.01l0.07-0.03L9.51,1.69l0.02-0.08
						c-0.09-0.02-0.21,0-0.27-0.04c0.06-0.01,0.08-0.04,0.14-0.08C9.36,1.54,9.46,1.53,9.47,1.57c0-0.02,0.03-0.03,0.04-0.03
						L9.42,1.5c0.05-0.03,0.03-0.03,0.04-0.06C9.37,1.51,9.37,1.44,9.33,1.43c0.03-0.02,0.06-0.04,0.08,0
						c0.05-0.08-0.13,0.03-0.1-0.04c0.01,0.01,0,0.01,0.02,0c-0.04,0-0.05-0.05-0.01-0.06l0.01,0.01C9.3,1.29,9.2,1.22,9.14,1.29
						c0.01-0.01,0.08-0.08,0.09-0.09c-0.1,0.06-0.18,0.12-0.26,0.19c0.05-0.06,0.14-0.24,0.2-0.24c0-0.02-0.01-0.04-0.05-0.03
						c0,0.01-0.05,0.11-0.06,0.11c0.02-0.09,0.01-0.05,0.01-0.14C9.08,1.1,9,1.2,8.98,1.19C9,1.17,9.04,1.08,9.06,1.07l-0.1,0.08
						C8.97,1.14,9,1.06,9.01,1.03C9,1.05,8.97,1,8.95,1.01l0.01,0.04C8.91,1,8.84,1.18,8.79,1.16c0.01-0.02,0.07-0.14,0.05-0.17
						C8.8,1.05,8.69,1.27,8.65,1.3l0-0.04L8.61,1.3c0.03-0.09,0.14-0.27,0.2-0.33C8.8,0.93,8.82,0.92,8.79,0.92
						c0-0.04,0.03-0.04,0.04-0.04L8.76,0.83C8.74,0.9,8.68,0.89,8.67,0.95C8.7,0.93,8.74,0.91,8.77,0.9
						c-0.02,0.07-0.1,0.19-0.14,0.17C8.62,1.04,8.66,0.94,8.67,0.92C8.66,0.94,8.61,0.95,8.61,0.94L8.64,0.9
						C8.61,0.87,8.57,0.99,8.55,0.92c-0.01-0.01-0.03-0.1-0.04-0.06c0.02,0.09,0,0.35-0.02,0.41c0-0.01-0.04-0.08-0.06-0.12
						C8.42,1.08,8.47,0.99,8.45,0.93c0,0.02-0.01,0.04-0.02,0.05C8.42,0.97,8.44,0.92,8.41,0.93C8.41,1.01,8.36,0.93,8.4,1
						C8.38,1.02,8.37,0.98,8.34,0.99c0.01,0.05-0.02,0.17-0.04,0.19c0-0.02-0.01-0.04-0.01-0.05c-0.05,0-0.08-0.03-0.13-0.02
						C8.16,1.08,8.13,1.06,8.14,1.03c0,0.01-0.01,0.04-0.02,0.05C8.07,1.02,8.15,1.06,8.11,0.99c0.01,0.04-0.03,0.07-0.04,0.1
						c0.02,0.06,0.05,0,0.07-0.03C8.15,1.15,8.14,1.25,8.12,1.3C8.09,1.33,8.08,1.25,8.08,1.26C8.01,1.27,8.09,1.43,8.02,1.39
						C7.98,1.34,7.97,1.28,7.95,1.24c0.02-0.03,0.06,0.01,0.07,0.01L7.99,1.23C7.99,1.21,8,1.19,8.02,1.2
						C7.98,1.16,7.91,1.24,7.84,1.23c0,0.02,0,0.05,0.02,0.06l0.01-0.02C7.9,1.31,7.88,1.35,7.9,1.35c0,0.04,0.02,0.09-0.02,0.09
						L7.84,1.39c0.01,0.01,0.04,0.02,0.03,0c0.01,0.03-0.09-0.04-0.05,0.03l0.05,0.02c0,0.04,0.04,0.11,0.01,0.1
						c0.05,0.04,0-0.01,0.06,0.04C7.87,1.53,7.98,1.56,7.9,1.5c0.07,0.06,0.05,0.01,0.1,0.07C7.99,1.54,7.98,1.53,7.99,1.53
						c0-0.01-0.01-0.02-0.01-0.02l0,0l0,0l0,0C7.98,1.5,7.97,1.5,7.96,1.49c-0.02-0.05,0-0.06,0-0.09c0.01,0,0.01,0.02,0.03,0.04
						L7.98,1.4C8,1.44,8.04,1.46,8.03,1.49l0.02-0.01c0.02,0.02,0.04,0.02,0.04,0c0.01,0.01,0-0.06,0.01-0.02l0.02-0.04l0,0.01
						c0.03-0.01,0.05-0.1,0.11-0.02C8.25,1.4,8.26,1.39,8.28,1.4l0.01,0.04C8.3,1.42,8.34,1.48,8.34,1.43
						c0.02,0.11,0.07,0.02,0.1,0.04l0-0.06c0.02,0,0.04-0.01,0.06-0.03l0-0.05C8.54,1.3,8.56,1.38,8.59,1.38
						c-0.01,0.02-0.01,0.01-0.02,0c0.01,0.11,0.1-0.06,0.11,0.03C8.7,1.39,8.71,1.4,8.71,1.41l0,0l0,0l0,0.03c0-0.01,0-0.02,0-0.03
						c0.01,0,0.02,0,0.03-0.01L8.72,1.46l0,0c0,0.02,0.02-0.02,0.03-0.06c0.01-0.01,0.02-0.01,0.03-0.02
						C8.75,1.46,8.82,1.36,8.79,1.45C8.81,1.41,8.84,1.44,8.9,1.36C8.89,1.37,8.89,1.38,8.89,1.38c0,0.02,0.01,0.03,0.03,0.01
						L8.88,1.45l0.07-0.06c-0.01,0.04-0.02,0.07-0.06,0.1c0.08-0.04,0.04-0.01,0.12-0.05L8.98,1.47c0.01,0,0.06-0.02,0.04,0.01
						c-0.04,0.07,0.08,0.1,0.04,0.2c0.11-0.07-0.04,0.05,0.05,0.01C9.09,1.7,9.08,1.72,9.05,1.72c0.04,0.02-0.02,0.06,0.06,0.04
						C9.08,1.78,9.06,1.78,9.05,1.79c0.01,0,0.03,0,0.01,0.01C9.04,1.8,9.04,1.8,9.02,1.8c0.01,0.02,0.1,0,0.19-0.03
						C9.18,1.8,9.18,1.81,9.24,1.81C9.22,1.82,9.19,1.84,9.17,1.82c0,0.01-0.03,0.08,0.04,0.07c-0.02,0.01,0,0.02,0.01,0.02
						c0,0.03-0.01,0.03,0,0.06l0.01-0.01c0.09,0,0.02,0.02,0.03,0.04L9.26,2C9.2,2.05,9.29,2.02,9.22,2.07l0.05,0
						c0.11,0.01-0.07,0.05-0.03,0.08l0.03-0.01c0.04,0.02-0.16,0.04-0.17,0.05c-0.01,0-0.02-0.01-0.02-0.01
						C9.01,2.21,9.15,2.19,9.16,2.22c-0.04,0-0.09-0.02-0.1,0c-0.03,0,0.11,0.08,0.03,0.09c0.03,0,0.06,0,0.08,0.02
						C9.18,2.36,9.05,2.36,9.14,2.4l-0.02,0c0.02,0.02,0.02,0.06,0.06,0.09C9,2.43,9.21,2.62,9.06,2.54L9.05,2.59L9.03,2.58
						c-0.02,0.02,0,0.05,0.03,0.08c-0.01,0-0.02-0.01-0.03-0.02c-0.05,0.01-0.05,0.02-0.01,0.1L8.97,2.71
						c0.01,0.03-0.1-0.02-0.09,0.05c0-0.01-0.01-0.01-0.01-0.02c-0.01,0.08-0.16-0.08-0.09,0.1L8.77,2.9c0.05,0,0.02,0.08,0.06,0.11
						C8.81,3.02,8.75,2.97,8.77,2.95l0.01,0.01c-0.03-0.1-0.07-0.01-0.09-0.08C8.61,2.9,8.52,2.86,8.44,2.86l0.01,0.08l-0.03,0
						C8.41,2.91,8.41,2.87,8.43,2.87C8.42,2.83,8.39,2.91,8.39,2.93c-0.04-0.03,0.02-0.09,0-0.1L8.38,2.84l0,0.01
						C8.37,2.88,8.37,2.91,8.34,2.91C8.32,2.89,8.33,2.86,8.33,2.86c0-0.01,0-0.01-0.01,0L8.29,2.84l0.01,0.06
						C8.27,2.94,8.26,2.9,8.27,2.97c-0.01-0.11-0.13-0.06-0.14-0.1C8.1,2.91,8.07,2.91,8.05,2.89c0,0.01-0.02,0.08-0.04,0.07
						c0.06-0.13-0.02-0.08,0.01-0.18C8,2.85,7.96,2.76,7.93,2.86C7.92,2.84,7.96,2.81,7.96,2.78C7.89,2.8,7.91,2.7,7.86,2.68
						C7.85,2.69,7.83,2.72,7.8,2.73l0.05-0.09c-0.01,0-0.09,0.07-0.05,0.01C7.79,2.67,7.78,2.69,7.77,2.69
						c0.01-0.13-0.2-0.17-0.06-0.33c-0.03,0.02-0.04,0.02-0.04,0C7.66,2.37,7.62,2.37,7.6,2.38l0.06-0.06
						C7.58,2.32,7.64,2.27,7.57,2.27l0.01,0.01C7.5,2.27,7.41,2.34,7.31,2.36c0.1,0.01-0.12,0.11,0.03,0.13
						c-0.02,0.02-0.04,0-0.06,0.01c0.05,0,0.06,0.01,0.05,0.05l-0.01,0c0.04,0.07,0.01,0.12,0.03,0.23l0.04-0.03
						c0,0.02-0.01,0.03-0.01,0.05c0.08-0.02-0.03-0.05,0.06-0.08C7.36,2.8,7.51,2.84,7.43,2.93c0.02,0.03,0.04-0.05,0.06-0.02
						L7.47,2.93l0.04-0.02C7.52,2.93,7.5,2.97,7.48,2.99c0-0.01-0.02-0.01-0.02-0.01C7.45,3.03,7.52,3.03,7.52,3.05L7.51,3.01
						C7.6,3.05,7.67,3.16,7.78,3.14l0.01-0.02c0.08-0.01,0.03,0.05,0.11,0.06l0,0c0.02-0.02,0.04-0.02,0.06-0.01
						C7.92,3.19,7.96,3.23,7.93,3.25c0.08-0.03,0.05-0.03,0.11-0.1l0,0.04C8.06,3.16,8.07,3.15,8.1,3.14
						c-0.03,0.03,0.01,0.06-0.03,0.1c0.05,0.1,0.12-0.07,0.13,0.06C8.25,3.2,8.15,3.24,8.17,3.22C8.16,3.18,8.21,3.14,8.23,3.15
						c0.02,0,0.02,0.15,0.08,0.15C8.3,3.3,8.3,3.31,8.29,3.31c0.02,0.03,0.04-0.04,0.07,0.01c0.02-0.07,0.03,0,0.04-0.08L8.35,3.26
						c0.03-0.02,0.06-0.12,0.1-0.07c0,0.02-0.02,0.04-0.03,0.05c0.01,0.03,0.03-0.02,0.04,0.01c0,0.09-0.06,0.02-0.09,0.09
						c0.02,0.04,0.06-0.06,0.04,0.03c0.02-0.12,0.06,0.01,0.09-0.08l0,0.05C8.51,3.33,8.52,3.3,8.54,3.3L8.52,3.37
						c0.03-0.06,0.07,0.05,0.1,0.01C8.55,3.39,8.59,3.32,8.56,3.28C8.63,3.2,8.63,3.41,8.72,3.37C8.7,3.38,8.66,3.35,8.68,3.32
						C8.7,3.33,8.73,3.35,8.74,3.37c0.06-0.03-0.02-0.05,0-0.09c0.04,0.06,0.02-0.03,0.04-0.06L8.8,3.28
						c0.08,0.01-0.02-0.11,0.05-0.09l0,0.08l0.02-0.03l0.01,0.06c0.02-0.06,0.03-0.05,0.07-0.05c-0.02-0.03-0.03-0.09-0.01-0.1
						C8.99,3.16,8.97,3.19,9,3.17C9.01,3.2,9.02,3.24,8.98,3.21l0.01,0.05c0.04,0.02,0.06-0.02,0.07-0.03c-0.01,0-0.02,0-0.02,0
						l0.02-0.1c0.02,0.01,0.02,0.03,0.02,0.05c0.01-0.01,0-0.04,0.02-0.05C9.12,3.16,9.15,3.2,9.13,3.23l0.03-0.08
						C9.18,3.17,9.22,3.18,9.22,3.2C9.27,3.19,9.24,3.07,9.3,3.06c0-0.01-0.01-0.02,0-0.03c0.04-0.02,0.11-0.02,0.1-0.1l0.08,0.02
						c0.01-0.04-0.1-0.02-0.09-0.1c0-0.05,0.06,0.02,0.09,0.02C9.46,2.83,9.41,2.76,9.49,2.75C9.49,2.77,9.48,2.78,9.48,2.79z
						 M9.6,2.33c0.01,0.01,0.04,0.03,0.01,0.04C9.55,2.34,9.58,2.34,9.6,2.33z M9.43,1.67c0.02,0,0.01,0.01,0,0.03
						C9.42,1.69,9.42,1.69,9.43,1.67z M8.05,1.45L8.05,1.45C8.07,1.46,8.07,1.46,8.05,1.45z M8.02,1.44c0,0.01,0,0.01,0.01,0.02
						c0-0.01,0-0.02,0.01-0.01C8.03,1.43,8.02,1.43,8.02,1.44z M8.32,2.88l0,0.01C8.31,2.91,8.32,2.89,8.32,2.88z"/>
					<path d="M9.52,1.72L9.49,1.73C9.5,1.74,9.51,1.73,9.52,1.72z"/>
					<polygon points="9.3,3.06 9.3,3.06 9.31,3.07 					"/>
					<path d="M8.44,0.91c0.01,0.01,0.01,0.02,0.02,0.03C8.45,0.92,8.45,0.91,8.44,0.91z"/>
					<path d="M7.97,1.58l0-0.02c0,0.01-0.01,0-0.02-0.01C7.96,1.57,7.97,1.58,7.97,1.58z"/>
					<path d="M7.63,1.48c0,0.01,0,0.01,0,0.01L7.65,1.5C7.65,1.49,7.64,1.47,7.63,1.48z"/>
					<path d="M7.84,1.46c-0.03-0.03-0.03-0.01-0.03,0l0,0C7.85,1.51,7.85,1.49,7.84,1.46z"/>
					<path d="M7.81,1.47L7.81,1.47C7.82,1.49,7.81,1.48,7.81,1.47z"/>
					<path d="M8.01,1.48C8,1.48,8.03,1.53,8.02,1.52C8.05,1.57,8.02,1.44,8.01,1.48z"/>
					<polygon points="7.74,1.36 7.78,1.4 7.75,1.36 					"/>
					<path d="M7.85,1.32l-0.03,0c0.01,0.01,0.01,0.01,0.01,0.02C7.84,1.33,7.86,1.33,7.85,1.32z"/>
					<path d="M7.83,1.34c-0.01,0-0.01,0.01-0.01,0.02C7.82,1.36,7.83,1.35,7.83,1.34z"/>
					<polygon points="7.75,1.32 7.76,1.33 7.78,1.32 					"/>
					<path d="M8.09,1.22L8.11,1.2c0-0.02-0.01-0.03-0.02-0.02C8.09,1.19,8.08,1.2,8.09,1.22z"/>
					<path d="M7.96,1.1c0.01,0.01,0.02,0.02,0.03,0.03L7.96,1.07L7.96,1.1z"/>
					<path d="M8.04,1.06c0-0.02,0.03-0.07-0.01-0.05C8.03,1.03,8.01,1.05,8.04,1.06z"/>
					<polygon points="8.48,1.09 8.47,1.09 8.47,1.21 					"/>
					<path d="M8.94,0.92C8.91,0.88,8.9,0.98,8.88,0.94c-0.02,0.02,0.02,0.04,0,0.05C8.91,0.98,8.92,0.99,8.94,0.92z"/>
					<path d="M8.88,0.99L8.87,1C8.87,1,8.88,1,8.88,0.99z"/>
					<polygon points="7.71,2.27 7.73,2.26 7.69,2.27 					"/>
					<path d="M7.62,2.25l0.07-0.01l-0.07,0C7.63,2.24,7.64,2.25,7.62,2.25z"/>
					<path d="M9.75,2.28l-0.02,0c-0.02,0-0.02,0.01-0.03,0.02L9.75,2.28z"/>
					<polygon points="9.62,2.62 9.62,2.61 9.55,2.6 					"/>
					<path d="M9.54,2.95c0.01-0.01,0.01-0.03,0.02-0.04C9.55,2.94,9.47,2.91,9.54,2.95z"/>
				</g>
				<g>
					<path d="M6.25,2.75c0-0.02-0.04-0.01-0.05-0.02C6.21,2.77,6.26,2.75,6.25,2.75z"/>
					<polygon points="6.35,3.12 6.33,3.11 6.38,3.16 					"/>
					<path d="M6.34,3.46c0.08-0.03-0.01-0.12,0.02-0.18l0.02-0.01L6.32,3.23C6.33,3.31,6.37,3.4,6.34,3.46z"/>
					<path d="M6.17,3.63C6.2,3.62,6.2,3.67,6.18,3.59L6.17,3.59C6.17,3.6,6.17,3.61,6.17,3.63z"/>
					<path d="M6.17,3.59C6.17,3.56,6.15,3.62,6.17,3.59L6.17,3.59z"/>
					<path d="M6.19,3.76L6.16,3.71C6.15,3.72,6.14,3.76,6.13,3.75C6.14,3.79,6.16,3.79,6.19,3.76z"/>
					<path d="M6.25,3.81L6.24,3.78C6.23,3.79,6.23,3.79,6.25,3.81z"/>
					<path d="M6.21,3.73l0.02,0.05c0.01-0.01,0.04-0.01-0.01-0.02C6.25,3.76,6.23,3.75,6.21,3.73z"/>
					<path d="M6.22,3.7c0.02-0.03,0.03-0.06,0.06-0.01C6.27,3.6,6.21,3.61,6.22,3.7z"/>
					<path d="M6.43,3.48l0.02-0.03L6.42,3.41C6.44,3.43,6.4,3.48,6.43,3.48z"/>
					<path d="M6.15,4.05c0.02,0,0.04-0.01,0.07-0.02L6.19,4C6.18,4.02,6.17,4.05,6.15,4.05z"/>
					<path d="M6.21,4.03l0.03,0.05C6.24,4.04,6.23,4.03,6.21,4.03z"/>
					<polygon points="6.33,3.82 6.27,3.73 6.33,3.84 					"/>
					<polygon points="6.14,4.29 6.1,4.25 6.16,4.33 					"/>
					<path d="M6.18,4.53C6.14,4.5,6.14,4.6,6.11,4.57C6.13,4.63,6.18,4.67,6.23,4.7C6.19,4.66,6.17,4.61,6.18,4.53z"/>
					<path d="M6.3,4.75C6.28,4.74,6.25,4.72,6.23,4.7C6.24,4.72,6.27,4.74,6.3,4.75z"/>
					<path d="M6.23,4.19c-0.01,0-0.04,0.01-0.05,0.05l0.05-0.03L6.23,4.19z"/>
					<path d="M6.23,4.21L6.23,4.21c0,0.03,0,0.05,0,0.06C6.22,4.26,6.23,4.25,6.23,4.21z"/>
					<path d="M6.23,4.18L6.23,4.18C6.23,4.18,6.23,4.18,6.23,4.18z"/>
					<path d="M6.29,3.95c0.03,0.03,0.05,0.1,0.09,0.04C6.35,3.97,6.33,4,6.29,3.95z"/>
					<path d="M6.29,4.15L6.3,4.09c-0.01,0-0.03,0.01-0.04-0.01L6.29,4.15z"/>
					<polygon points="6.3,4.18 6.29,4.15 6.28,4.18 					"/>
					<path d="M6.26,4.59c0.03,0.03,0.05,0.06,0.08,0.1C6.31,4.61,6.3,4.57,6.29,4.55C6.27,4.55,6.24,4.54,6.26,4.59z"/>
					<path d="M6.23,4.4L6.23,4.4C6.24,4.4,6.24,4.39,6.23,4.4z"/>
					<polygon points="6.71,4.93 6.7,4.92 6.7,4.92 					"/>
					<path d="M6.29,4.53c0-0.04-0.02-0.06-0.03-0.07C6.27,4.5,6.28,4.53,6.29,4.55C6.3,4.55,6.3,4.54,6.29,4.53z"/>
					<path d="M6.4,4.84C6.39,4.81,6.38,4.79,6.37,4.77C6.37,4.8,6.39,4.84,6.4,4.84z"/>
					<path d="M6.22,4.42L6.22,4.42C6.21,4.43,6.22,4.43,6.22,4.42z"/>
					<path d="M6.22,4.42c0.01,0.02,0.02,0.03,0.04,0.04C6.25,4.44,6.24,4.42,6.23,4.4C6.23,4.4,6.23,4.41,6.22,4.42z"/>
					<path d="M6.88,4.64c0,0.04-0.09,0.09-0.12,0.03C6.69,4.69,6.65,4.82,6.7,4.92C6.71,4.9,6.72,4.88,6.8,4.86
						c-0.03-0.02-0.15-0.08-0.07-0.1C6.82,4.75,6.8,4.78,6.84,4.81c-0.03-0.05,0.12-0.08,0.1-0.16L6.87,4.68
						C6.87,4.67,6.89,4.65,6.88,4.64z"/>
					<path d="M6.55,4.86L6.52,4.85C6.55,4.88,6.57,4.9,6.6,4.95c0.07,0,0.09-0.02,0.09-0.03C6.64,4.91,6.59,4.89,6.54,4.86
						L6.55,4.86z"/>
					<path d="M6.4,4.75c0.05-0.01,0.12,0.02,0.12-0.05C6.46,4.65,6.45,4.69,6.4,4.66C6.5,4.77,6.35,4.64,6.4,4.75
						C6.37,4.73,6.36,4.71,6.34,4.69c0.01,0.02,0.02,0.05,0.04,0.08l0,0l0,0l0,0c0-0.01,0-0.01,0-0.01l0,0L6.4,4.75
						c0.02,0.04,0,0.01-0.02,0.01l-0.01,0l0,0C6.42,4.8,6.47,4.83,6.52,4.85C6.49,4.83,6.45,4.81,6.4,4.75z"/>
					<path d="M6.48,4.06c0,0-0.01,0-0.01,0C6.48,4.07,6.48,4.07,6.48,4.06z"/>
					<path d="M6.46,4.1C6.45,4.09,6.43,4.08,6.43,4.06c0.01-0.02,0.02,0,0.04,0C6.46,4.04,6.44,4,6.42,4.05l0.01,0.01
						C6.41,4.1,6.34,4.15,6.34,4.15C6.38,4.13,6.41,4.12,6.46,4.1z"/>
					<path d="M6.37,4.38c0.01,0.04,0.03,0.07,0.04,0.1c0.01-0.02,0.01-0.05,0.03-0.07L6.41,4.43C6.41,4.37,6.39,4.39,6.37,4.38z"/>
					<polygon points="6.72,4.95 6.68,5 6.79,4.94 					"/>
					<path d="M6.91,4.95L6.9,5c0.02-0.01,0.04-0.02,0.05-0.03L6.91,4.95z"/>
					<path d="M10.03,1.38l-0.01-0.03C10.02,1.37,10.02,1.38,10.03,1.38z"/>
					<path d="M10.02,1.58l0.02,0C10.03,1.57,10.03,1.57,10.02,1.58z"/>
					<path d="M9.7,4.97c0.05,0.05,0.11,0.12,0.11,0.07L9.79,4.99C9.75,5,9.72,4.99,9.7,4.97z"/>
					<polygon points="10.27,3.13 10.25,3.15 10.3,3.17 					"/>
					<path d="M10.07,3.11l0.03-0.05C10.09,3.07,10.08,3.09,10.07,3.11z"/>
					<path d="M9.58,0.87L9.54,0.9C9.57,0.92,9.57,0.89,9.58,0.87z"/>
					<path d="M8.1,4.8c0.03,0.02,0.06,0.03,0.08,0.03C8.14,4.8,8.11,4.76,8.1,4.8z"/>
					<path d="M10.53,1.46c-0.01-0.02-0.02-0.02-0.03-0.02C10.51,1.45,10.52,1.46,10.53,1.46z"/>
					<path d="M8.27,4.82L8.26,4.81C8.23,4.82,8.21,4.83,8.18,4.82C8.21,4.84,8.24,4.86,8.27,4.82z"/>
					<path d="M6.8,1.33L6.8,1.33C6.8,1.34,6.8,1.33,6.8,1.33z"/>
					<path d="M6.31,2.41c0-0.01,0-0.03,0-0.05C6.31,2.38,6.31,2.39,6.31,2.41z"/>
					<path d="M7.42,4.9C7.4,4.91,7.42,4.91,7.42,4.9L7.42,4.9z"/>
					<path d="M7.28,4.73c0-0.01,0.01-0.01,0.01-0.02C7.28,4.72,7.28,4.73,7.28,4.73z"/>
					<path d="M8.52,4.53L8.52,4.53C8.51,4.52,8.51,4.52,8.52,4.53z"/>
					<path d="M7.38,4.88l0.03,0.01C7.41,4.89,7.4,4.89,7.38,4.88z"/>
					<path d="M7.39,4.91c-0.01,0-0.02,0-0.02,0C7.37,4.91,7.37,4.92,7.39,4.91z"/>
					<path d="M7.45,4.89c-0.01,0-0.03,0-0.04,0c0.01,0,0.01,0.01,0.01,0.01C7.43,4.9,7.44,4.9,7.45,4.89z"/>
					<path d="M8.04,0.48L8.04,0.48C8.02,0.5,8.03,0.5,8.04,0.48z"/>
					<polygon points="10.04,4.36 10.04,4.37 10.04,4.36 					"/>
					<path d="M10.01,4.32c0.06,0.03,0.05,0.04,0.03,0.05c0.04,0.01,0.09,0.02,0.14,0.03C10.12,4.36,10.07,4.33,10.01,4.32z"/>
					<path d="M9.96,1.09C9.95,1.1,9.94,1.12,9.93,1.12c-0.07,0.02-0.05,0.01-0.1,0.04c0.12-0.1,0.04,0.07,0.18,0.05L9.99,1.25
						c0-0.01-0.01-0.01-0.01-0.02c-0.06,0.07,0.12,0.03,0.1,0.11c-0.01,0.03-0.03,0.06-0.05,0.03l0.04,0.08
						c0,0.02-0.03,0.02-0.03-0.01l0.01,0.12l0,0c0.02,0.02,0.06,0.06,0.07,0.08c-0.02,0.03-0.02-0.02-0.03-0.01l0.04,0.07
						c-0.04,0.03-0.08-0.03-0.07-0.07C9.9,1.7,10.09,1.7,10,1.83L9.98,1.77C9.9,1.81,9.93,1.86,9.87,1.93
						c0.03-0.02,0.13-0.14,0.17-0.07c-0.01,0.02-0.02,0.05,0.01,0.09c-0.05,0-0.04,0.04-0.04,0.09l-0.07,0
						c0.02,0.05,0.06,0.05,0.09,0.08C10.03,2.17,9.97,2.18,9.93,2.2c-0.01,0.09,0.09-0.06,0.1,0.05c-0.03,0.08,0,0.13,0.04,0.22
						c-0.02,0.05-0.04-0.01-0.06,0.01l0.06,0.05c0,0.01-0.02,0.01-0.03,0.01c0.02,0.04,0.07,0,0.09,0.07
						c0.08,0.02-0.11,0.13-0.03,0.21c-0.02,0.02-0.04-0.01-0.07,0c0.06,0.11,0.04,0.09,0.12,0.18L10.1,3.06
						c0.05-0.06,0.12,0.01,0.17,0.08c0.03-0.02,0.05-0.04,0.06-0.05l0.04,0.1c-0.01,0.01-0.04,0-0.06-0.01l0.02,0.02
						c-0.03,0.04-0.07,0.02-0.11-0.01l0.04-0.04c-0.04-0.02-0.09-0.05-0.13-0.04c0.01,0.01,0.01,0.02,0.02,0.03
						c-0.01-0.01-0.02-0.01-0.03-0.01c-0.01,0,0.01,0.01,0.03,0.03l-0.08,0.02l0.03,0.01l-0.05,0.13c0.08,0.09,0.19,0.17,0.23,0.32
						c-0.06-0.04-0.09-0.01-0.16-0.01c0.07-0.04-0.03-0.11-0.01-0.19c-0.01,0.04-0.04,0.03-0.05,0.02l0.06,0.14
						c-0.06,0-0.04,0.03-0.07,0.07c0.11-0.03,0.07,0.1,0.11,0.16c-0.04,0-0.07-0.01-0.07-0.08c-0.08,0.08,0.13,0.1,0.06,0.17
						c0-0.02,0-0.03-0.01-0.03c0.03,0.04,0.01,0.13-0.03,0.11l0-0.02c-0.01,0.11,0,0.33,0.09,0.34c-0.01,0-0.11-0.02-0.13-0.03
						c0.1,0.05,0.2,0.13,0.27,0.25c-0.07-0.04-0.26-0.1-0.29-0.17c-0.01,0.01-0.03,0.01-0.01,0.05c0.01,0,0.11,0.04,0.11,0.06
						c-0.1-0.02-0.06,0-0.15-0.02c0.02,0,0.11,0.12,0.07,0.14c-0.01-0.02-0.08-0.11-0.08-0.13c0.01,0.05,0.01,0.1,0.01,0.14
						C10,4.59,9.94,4.51,9.92,4.48c0.01,0.02-0.04,0-0.05,0.01l0.03,0.03C9.83,4.5,9.82,4.7,9.7,4.67c0.02-0.02,0.06-0.15,0.01-0.17
						C9.68,4.55,9.53,4.77,9.43,4.8L9.41,4.76L9.33,4.78C9.39,4.7,9.57,4.53,9.66,4.47c-0.04-0.04,0-0.04-0.07-0.06
						C9.57,4.37,9.64,4.37,9.66,4.37L9.5,4.32C9.5,4.39,9.37,4.37,9.36,4.43l0.19-0.04C9.54,4.46,9.41,4.57,9.31,4.54
						C9.28,4.51,9.35,4.42,9.35,4.39C9.33,4.41,9.24,4.42,9.23,4.4l0.05-0.03c-0.06-0.04-0.12,0.08-0.18,0
						c-0.03-0.01-0.07-0.1-0.08-0.06C9.06,4.4,9.03,4.66,9,4.72C8.99,4.72,8.88,4.63,8.85,4.58C8.82,4.51,8.93,4.43,8.9,4.37
						c0,0.02-0.03,0.04-0.04,0.05C8.84,4.4,8.88,4.36,8.82,4.37C8.8,4.44,8.7,4.35,8.79,4.43C8.73,4.44,8.73,4.41,8.66,4.41
						c0.02,0.05-0.07,0.16-0.13,0.18c0-0.02-0.01-0.04-0.01-0.06C8.4,4.52,8.34,4.49,8.23,4.48C8.22,4.47,8.17,4.45,8.19,4.41
						C8.18,4.43,8.16,4.45,8.13,4.46C8.06,4.39,8.2,4.44,8.15,4.37c0,0.04-0.09,0.06-0.13,0.09c0.02,0.07,0.11,0.01,0.16-0.02
						c0,0.09-0.08,0.19-0.19,0.24C7.9,4.71,7.95,4.62,7.93,4.64c-0.17,0-0.13,0.17-0.27,0.12C7.61,4.7,7.65,4.64,7.63,4.6
						C7.71,4.57,7.75,4.62,7.8,4.61L7.74,4.59c0.02-0.02,0.07-0.04,0.1-0.03C7.78,4.52,7.55,4.58,7.41,4.55
						C7.39,4.58,7.36,4.6,7.38,4.62l0.04-0.01C7.46,4.65,7.35,4.69,7.41,4.7c-0.05,0.04-0.1,0.1-0.18,0.09L7.2,4.73
						c0.01,0.02,0.06,0.03,0.07,0.01C7.25,4.77,7.14,4.66,7.12,4.76l0.06,0.04c-0.05,0.04-0.1,0.13-0.2,0.12
						C7.03,4.97,7.01,4.9,7.08,4.97c-0.06-0.09,0.19-0.03,0.1-0.12c0.06,0.08,0.09,0.02,0.16,0.09C7.34,4.92,7.31,4.9,7.37,4.9
						c0-0.01,0.01-0.02,0.01-0.02l0,0l0,0l0,0C7.36,4.87,7.35,4.86,7.34,4.85c0.02-0.05,0.11-0.07,0.13-0.1
						C7.51,4.76,7.47,4.78,7.49,4.8l0.04-0.04c0.01,0.05,0.1,0.07,0.02,0.11l0.07-0.01c0.04,0.02,0.1,0.03,0.13,0
						C7.79,4.87,7.83,4.8,7.81,4.84l0.11-0.04l0,0.01c0.11,0,0.22-0.09,0.34-0.01C8.29,4.8,8.33,4.78,8.39,4.8L8.4,4.84
						c0.05-0.01,0.14,0.05,0.16,0c0.04,0.12,0.22,0.04,0.3,0.07l0.01-0.06c0.06,0.01,0.11,0,0.18-0.01l0-0.05
						C9.12,4.76,9.2,4.85,9.3,4.86c-0.01,0.02-0.03,0.01-0.05,0C9.34,4.98,9.5,4.82,9.59,4.92c0.03-0.01,0.05,0,0.07,0.01l-0.01,0
						c0.01,0,0.01,0,0.01,0C9.68,4.95,9.69,4.96,9.7,4.97C9.69,4.96,9.68,4.95,9.67,4.94c0.02,0,0.07,0,0.11,0l0.01,0.06
						c0,0,0,0,0.01,0c0.05,0.02,0.04-0.02,0.02-0.06C9.84,4.92,9.86,4.91,9.88,4.9c0.05,0.09,0.11-0.03,0.18,0.05
						c0.02-0.04,0.21-0.11,0.16-0.21c0.01,0.01,0.02,0.01,0.01,0.02c0.04-0.02,0.08-0.05,0.08-0.1l0.06,0.02
						c0-0.05-0.02-0.1-0.03-0.14c0.05-0.03,0.08-0.06,0.11,0.03c-0.03-0.18,0-0.15-0.06-0.27l0.04,0.01c0-0.04-0.06-0.1-0.02-0.12
						c0.08-0.08,0.01-0.37,0.09-0.56c-0.13,0.04,0.06-0.09-0.04-0.1c0.03-0.01,0.05-0.04,0.07-0.01c-0.03-0.1,0.05-0.15-0.03-0.21
						c0.03-0.01,0.04,0.02,0.06,0.01c-0.01-0.01-0.03-0.03-0.01-0.04c0.02-0.01,0.03,0.01,0.04,0.03c0-0.1-0.1-0.11-0.19-0.12
						c0.04-0.05,0.04-0.08-0.02-0.11c0.03-0.02,0.06-0.05,0.07,0.01c0-0.03,0.04-0.21-0.03-0.22c0.02-0.01,0.01-0.05,0-0.06
						c0-0.08,0.01-0.08,0.01-0.16l-0.01,0.02c-0.08-0.03-0.02-0.06-0.03-0.13l0.01,0c0.06-0.14-0.03-0.06,0.04-0.2l-0.05,0.01
						c-0.11-0.01,0.07-0.12,0.03-0.2L10.38,2.2c-0.04-0.04,0.16-0.12,0.17-0.17c0.01-0.01,0.02,0.02,0.02,0.03
						c0.07-0.12-0.07-0.01-0.08-0.1c0.04-0.02,0.09,0.02,0.1-0.04c0.03-0.03-0.12-0.17-0.05-0.25c-0.03,0.02-0.06,0.04-0.08,0
						c-0.01-0.06,0.11-0.17,0.02-0.22c0.01-0.01,0.02-0.01,0.02-0.01c-0.02-0.04-0.04-0.17-0.09-0.19c0.18-0.09-0.15-0.3-0.02-0.36
						c-0.04-0.06-0.08-0.12-0.13-0.17l0.02-0.01l-0.02-0.02c-0.08-0.07-0.12-0.05-0.17-0.04c-0.01-0.02,0.01-0.03,0.02-0.03
						c-0.1-0.11-0.12-0.11-0.27-0.1l0.02-0.05C9.81,0.47,9.7,0.28,9.54,0.28c0-0.01,0.01-0.01,0.02-0.02C9.4,0.27,9.22,0,9.12,0.19
						L9.01,0.22C9.14,0.26,8.98,0.3,9.02,0.34c-0.05,0-0.12-0.08-0.06-0.08l0.01,0.01c0.04-0.1-0.16-0.06-0.15-0.13
						C8.56,0.13,8.3,0.08,8.06,0.1l0.04,0.08l-0.08,0C7.98,0.17,7.97,0.12,8.03,0.12c-0.04-0.04-0.1,0.05-0.1,0.07
						c-0.12-0.02,0.03-0.1,0-0.1L7.88,0.1L7.9,0.11C7.86,0.15,7.86,0.18,7.79,0.19C7.74,0.18,7.76,0.14,7.74,0.14
						c0-0.01-0.01-0.01-0.03,0L7.61,0.16l0.05,0.06c-0.04,0.04-0.1,0.01-0.04,0.08C7.53,0.19,7.23,0.31,7.18,0.3
						C7.12,0.36,7.05,0.37,6.97,0.4c0.03,0,0.06,0.07-0.01,0.08c-0.03-0.15-0.15,0-0.27-0.04c0.09,0.01-0.18,0.18-0.03,0.18
						C6.6,0.67,6.61,0.59,6.55,0.61C6.48,0.77,6.32,0.93,6.31,1.14c0.02,0.01,0.05-0.02,0.08,0.02L6.28,1.25
						c0.01,0.04,0.11,0.04,0.04,0.1c0.02-0.01,0.04-0.02,0.05,0c-0.09,0.35,0.08,0.66-0.1,1C6.3,2.3,6.31,2.33,6.31,2.37
						c0.01-0.02,0.05,0,0.07,0L6.31,2.5c0.07,0.03,0,0.15,0.07,0.16L6.37,2.62c0.08,0.06,0.18-0.08,0.29-0.07
						C6.57,2.49,6.8,2.38,6.67,2.28C6.69,2.25,6.7,2.3,6.72,2.28C6.68,2.26,6.67,2.22,6.69,2.16L6.7,2.17
						C6.69,2,6.74,1.93,6.77,1.73L6.72,1.74C6.72,1.7,6.74,1.69,6.75,1.67c-0.08-0.05,0,0.12-0.09,0.08c0.11-0.06,0-0.29,0.12-0.32
						c0-0.06-0.06,0.02-0.06-0.04l0.03-0.01L6.71,1.35C6.72,1.31,6.76,1.3,6.79,1.3c0,0.01,0.01,0.03,0.01,0.03
						c0.04-0.05,0-0.13,0.01-0.14L6.79,1.24c-0.01-0.16,0.07-0.27,0.1-0.39L6.86,0.84c0.04-0.1,0.07-0.03,0.15-0.1l0,0.01
						c0.01-0.03,0.03-0.06,0.06-0.07C7.06,0.71,7.15,0.71,7.12,0.75C7.21,0.66,7.16,0.7,7.22,0.59l0.03,0.04
						c0.02-0.04,0.02-0.06,0.08-0.09c-0.05,0.05,0.06,0.05,0,0.11c0.16,0.06,0.2-0.13,0.28-0.01c0.05-0.12-0.13-0.04-0.1-0.07
						C7.47,0.53,7.55,0.47,7.6,0.47C7.64,0.47,7.7,0.6,7.81,0.58C7.8,0.59,7.8,0.59,7.79,0.6c0.05,0.02,0.08-0.05,0.14-0.01
						c0.02-0.07,0.07,0,0.07-0.09l-0.1,0.03c0.06-0.03,0.1-0.14,0.21-0.1C8.09,0.44,8.06,0.47,8.04,0.48c0.03,0.02,0.05-0.02,0.09,0
						c0,0.09-0.12,0.03-0.18,0.11c0.03,0.03,0.11-0.08,0.09,0.02c0.03-0.12,0.11,0,0.18-0.09l0,0.05c0.01-0.01,0.03-0.03,0.06-0.03
						L8.24,0.6C8.3,0.54,8.36,0.65,8.42,0.61c-0.12,0.01-0.03-0.06-0.08-0.1c0.15-0.08,0.09,0.13,0.25,0.11
						C8.57,0.63,8.5,0.59,8.54,0.57C8.57,0.58,8.61,0.6,8.63,0.63c0.11-0.01-0.01-0.05,0.03-0.08C8.7,0.61,8.72,0.52,8.77,0.5
						l0,0.05C8.88,0.6,8.81,0.45,8.92,0.5L8.86,0.57l0.06-0.01L8.9,0.62C8.97,0.58,8.99,0.6,9.04,0.62
						C9.04,0.59,9.07,0.53,9.13,0.54C9.16,0.58,9.09,0.59,9.17,0.6C9.15,0.63,9.12,0.66,9.1,0.61L9.07,0.65
						C9.1,0.7,9.16,0.68,9.19,0.69c-0.01,0-0.02-0.01-0.03-0.02C9.2,0.65,9.24,0.64,9.29,0.63C9.3,0.66,9.28,0.67,9.26,0.68
						c0.02,0,0.05-0.02,0.08-0.01C9.32,0.7,9.3,0.75,9.26,0.75l0.11-0.01c0,0.02,0.03,0.07,0.01,0.08c0.04,0.04,0.16-0.02,0.21,0.04
						C9.6,0.86,9.61,0.85,9.63,0.85C9.68,0.9,9.71,0.98,9.81,0.97L9.8,1.07c0.06,0.03,0.01-0.12,0.11-0.07
						c0.08,0.03-0.02,0.07-0.02,0.1c0.03-0.03,0.12-0.04,0.08,0.02C9.96,1.1,9.97,1.1,9.96,1.09z M10.05,1.86
						C10.03,1.84,10,1.81,10.03,1.79C10.09,1.81,10.06,1.83,10.05,1.86z M10.16,3.27c-0.02-0.01-0.01-0.03,0.01-0.06
						C10.18,3.23,10.18,3.25,10.16,3.27z M7.67,4.82L7.67,4.82C7.71,4.84,7.7,4.83,7.67,4.82z M7.59,4.81
						c-0.01,0.01-0.01,0.02,0,0.02c0-0.01,0.02-0.02,0.04-0.02C7.62,4.8,7.61,4.79,7.59,4.81z M7.74,0.16l0.02,0.01
						C7.72,0.2,7.73,0.18,7.74,0.16z"/>
					<path d="M10.09,3.11c0.01-0.01,0.02-0.01,0.03-0.01C10.11,3.1,10.1,3.1,10.09,3.11z"/>
					<polygon points="9.59,0.86 9.59,0.86 9.58,0.87 					"/>
					<path d="M8.87,4.34C8.89,4.35,8.9,4.36,8.9,4.37C8.9,4.36,8.9,4.35,8.87,4.34z"/>
					<path d="M7.18,4.96l0.05-0.02c-0.02,0.01-0.03,0-0.05-0.01C7.19,4.94,7.2,4.96,7.18,4.96z"/>
					<path d="M6.67,4.64c-0.01,0-0.02-0.01-0.03,0L6.63,4.66C6.66,4.67,6.69,4.66,6.67,4.64z"/>
					<path d="M7.1,4.8C7.09,4.76,7.06,4.78,7.02,4.79c0,0,0,0,0.01,0C7.02,4.85,7.06,4.83,7.1,4.8z"/>
					<path d="M7.01,4.79C6.99,4.8,6.98,4.8,6.97,4.8C6.96,4.83,6.98,4.8,7.01,4.79z"/>
					<path d="M7.49,4.85c-0.02-0.01,0,0.06-0.01,0.04C7.47,4.95,7.58,4.81,7.49,4.85z"/>
					<polygon points="7.04,4.66 7.07,4.71 7.08,4.66 					"/>
					<path d="M7.34,4.65L7.28,4.64c0,0.01,0,0.02-0.01,0.02C7.3,4.66,7.35,4.67,7.34,4.65z"/>
					<path d="M7.27,4.66c-0.02,0-0.04,0.01-0.05,0.02C7.23,4.68,7.25,4.67,7.27,4.66z"/>
					<polygon points="7.12,4.63 7.14,4.64 7.18,4.63 					"/>
					<path d="M7.98,4.59l0.06-0.02c0.01-0.02-0.01-0.03-0.04-0.02C7.99,4.57,7.97,4.58,7.98,4.59z"/>
					<path d="M7.77,4.46C7.79,4.47,7.79,4.48,7.8,4.5l0-0.07L7.77,4.46z"/>
					<path d="M7.96,4.43c0.01-0.02,0.09-0.06,0.01-0.05C7.97,4.4,7.9,4.41,7.96,4.43z"/>
					<polygon points="8.95,4.54 8.94,4.54 8.93,4.65 					"/>
					<path d="M9.83,4.41C9.79,4.38,9.81,4.48,9.77,4.44C9.75,4.46,9.81,4.48,9.79,4.49C9.82,4.47,9.84,4.49,9.83,4.41z"/>
					<path d="M9.79,4.49c-0.01,0-0.01,0.01-0.02,0.01C9.78,4.5,9.78,4.5,9.79,4.49z"/>
					<polygon points="6.25,2.6 6.23,2.65 6.26,2.61 					"/>
					<path d="M6.33,2.69L6.26,2.7l0.06,0.03C6.32,2.72,6.32,2.7,6.33,2.69z"/>
					<path d="M9.9,2l0.02,0c0.02-0.01,0.02-0.02,0.02-0.04L9.9,2z"/>
					<polygon points="9.96,1.34 9.96,1.34 10.02,1.33 					"/>
					<path d="M9.82,1.14c0.01,0.01,0.02,0.01,0.02,0.01l0,0l0,0C9.85,1.14,9.85,1.09,9.82,1.14z"/>
				</g>
			</g>
		</g>
		<g>
			<path d="M8.35,5.96c1.05-0.02,1.98,0.09,2.89,0.38c0.31,0.1,0.73,0.23,0.57,0.66c-0.15,0.41-0.5,0.14-0.78,0.07
				c-1.76-0.48-3.53-0.52-5.3-0.01c-0.27,0.08-0.56,0.24-0.71-0.1C4.85,6.57,5.21,6.4,5.48,6.32C6.45,6.03,7.44,5.89,8.35,5.96z"/>
			<g>
				<path d="M8.35,5.69c0.02,0.01,0.02-0.04,0.02-0.05C8.33,5.65,8.35,5.7,8.35,5.69z"/>
				<polygon points="7.97,5.78 7.98,5.76 7.92,5.81 				"/>
				<path d="M7.62,5.78c0.04,0.08,0.12-0.02,0.19,0.01l0.01,0.02l0.03-0.06C7.77,5.76,7.68,5.8,7.62,5.78z"/>
				<path d="M7.43,5.62c0.01,0.03-0.04,0.03,0.04,0.01L7.46,5.62C7.46,5.62,7.45,5.62,7.43,5.62z"/>
				<path d="M7.46,5.62C7.5,5.62,7.44,5.6,7.46,5.62L7.46,5.62z"/>
				<path d="M7.29,5.65l0.05-0.03C7.33,5.6,7.29,5.6,7.3,5.59C7.25,5.61,7.26,5.62,7.29,5.65z"/>
				<path d="M7.25,5.71L7.28,5.7C7.27,5.69,7.26,5.69,7.25,5.71z"/>
				<path d="M7.33,5.67L7.28,5.7C7.28,5.71,7.29,5.74,7.3,5.69C7.3,5.71,7.31,5.69,7.33,5.67z"/>
				<path d="M7.36,5.68C7.39,5.7,7.42,5.7,7.38,5.73C7.47,5.72,7.45,5.66,7.36,5.68z"/>
				<path d="M7.61,5.86l0.04,0.02l0.03-0.03C7.66,5.87,7.6,5.84,7.61,5.86z"/>
				<path d="M6.99,5.64c0,0.02,0.02,0.04,0.03,0.06l0.03-0.02C7.03,5.67,6.99,5.66,6.99,5.64z"/>
				<path d="M7.01,5.7L6.96,5.74C7.01,5.74,7.02,5.72,7.01,5.7z"/>
				<polygon points="7.25,5.8 7.33,5.73 7.23,5.8 				"/>
				<polygon points="6.78,5.66 6.81,5.62 6.76,5.69 				"/>
				<path d="M6.65,5.69c0.02-0.04-0.04-0.05-0.02-0.07C6.59,5.63,6.57,5.66,6.54,5.69C6.57,5.67,6.6,5.67,6.65,5.69z"/>
				<path d="M6.5,5.74c0.01-0.01,0.03-0.03,0.04-0.04C6.53,5.7,6.51,5.71,6.5,5.74z"/>
				<path d="M6.87,5.74C6.87,5.73,6.86,5.71,6.82,5.7l0.03,0.04L6.87,5.74z"/>
				<path d="M6.85,5.74L6.85,5.74c-0.02,0-0.04,0-0.05,0C6.81,5.75,6.83,5.75,6.85,5.74z"/>
				<path d="M6.88,5.74L6.88,5.74C6.88,5.75,6.88,5.75,6.88,5.74z"/>
				<path d="M7.11,5.77C7.08,5.8,7.02,5.84,7.09,5.87C7.1,5.83,7.07,5.81,7.11,5.77z"/>
				<path d="M6.91,5.8l0.06,0c0-0.01-0.01-0.03,0-0.04L6.91,5.8z"/>
				<polygon points="6.89,5.81 6.91,5.8 6.89,5.79 				"/>
				<path d="M6.6,5.76C6.58,5.79,6.56,5.79,6.53,5.8c0.03,0,0.07,0,0.1,0C6.63,5.78,6.64,5.76,6.6,5.76z"/>
				<path d="M6.73,5.76L6.73,5.76C6.72,5.76,6.73,5.76,6.73,5.76z"/>
				<polygon points="6.23,5.86 6.24,5.86 6.24,5.86 				"/>
				<path d="M6.63,5.81C6.66,5.81,6.67,5.8,6.68,5.78C6.67,5.79,6.65,5.8,6.63,5.81C6.63,5.81,6.63,5.81,6.63,5.81z"/>
				<path d="M6.42,5.77l0.05,0.02C6.45,5.78,6.42,5.76,6.42,5.77z"/>
				<path d="M6.71,5.75L6.71,5.75C6.7,5.74,6.71,5.74,6.71,5.75z"/>
				<path d="M6.71,5.75C6.7,5.76,6.69,5.77,6.68,5.78C6.7,5.78,6.71,5.77,6.72,5.76C6.72,5.76,6.71,5.75,6.71,5.75z"/>
				<path d="M6.21,6.17C6.2,6.13,6.26,6.07,6.32,6.11C6.37,6.07,6.3,5.93,6.24,5.86c0,0.02,0.01,0.04-0.04,0.07
					c0.02,0.02,0.13,0.03,0.09,0.08c-0.07,0.04-0.06,0-0.1-0.02c0.04,0.05-0.07,0.1-0.04,0.17L6.2,6.13
					C6.21,6.14,6.19,6.16,6.21,6.17z"/>
				<path d="M6.35,5.85l0.02-0.01c-0.03,0-0.05-0.02-0.09-0.04C6.24,5.82,6.24,5.84,6.24,5.86L6.35,5.85L6.35,5.85z"/>
				<path d="M6.47,5.82C6.46,5.87,6.41,5.9,6.45,5.94C6.52,5.93,6.49,5.9,6.53,5.87C6.42,5.9,6.55,5.84,6.47,5.82
					C6.49,5.81,6.51,5.81,6.53,5.8c-0.02,0-0.04-0.01-0.06-0.01l0,0l0,0l0,0c0.01,0,0.01,0.01,0,0.01l0,0L6.47,5.82
					c-0.03,0-0.01-0.01,0-0.02l0-0.01l0,0l-0.1,0.05C6.39,5.84,6.42,5.83,6.47,5.82z"/>
				<path d="M7.04,5.98c0,0,0-0.01,0-0.01C7.03,5.97,7.03,5.98,7.04,5.98z"/>
				<path d="M6.99,5.95C7,5.94,7,5.93,7.03,5.93c0.02,0.01,0,0.02,0.01,0.04c0.01-0.01,0.05-0.04,0-0.06L7.03,5.92
					C6.98,5.9,6.92,5.85,6.93,5.84C6.94,5.89,6.96,5.91,6.99,5.95z"/>
				<path d="M6.73,5.89L6.65,5.93L6.7,5.96L6.69,5.94C6.74,5.94,6.73,5.91,6.73,5.89z"/>
				<polygon points="6.22,5.84 6.22,5.78 6.18,5.86 				"/>
				<polygon points="6.1,5.87 6.1,5.82 6.07,5.86 				"/>
				<path d="M9.77,6.54L9.8,6.53C9.79,6.53,9.78,6.53,9.77,6.54z"/>
				<path d="M9.58,6.51L9.58,6.53C9.59,6.52,9.59,6.51,9.58,6.51z"/>
				<path d="M6.16,7.22c0.05,0.03,0.1,0.08,0.08,0.04L6.23,7.21C6.2,7.22,6.18,7.22,6.16,7.22z"/>
				<polygon points="8.01,6.68 8,6.67 7.98,6.71 				"/>
				<path d="M8.03,6.48l0.05,0.03C8.07,6.5,8.06,6.49,8.03,6.48z"/>
				<path d="M10.82,6.69l0.04-0.04C10.81,6.64,10.83,6.67,10.82,6.69z"/>
				<path d="M4.88,6.36C4.83,6.39,4.8,6.42,4.77,6.45C4.83,6.41,4.9,6.4,4.88,6.36z"/>
				<path d="M9.63,7.03C9.65,7.02,9.65,7.01,9.66,7C9.64,7.01,9.63,7.02,9.63,7.03z"/>
				<path d="M4.71,6.62C4.71,6.61,4.72,6.6,4.73,6.59c0-0.05,0.02-0.09,0.05-0.14C4.73,6.49,4.69,6.55,4.71,6.62z"/>
				<path d="M9.71,6.29L9.71,6.29C9.7,6.29,9.71,6.29,9.71,6.29z"/>
				<path d="M8.66,5.75c0.01,0,0.03,0,0.05,0C8.7,5.74,8.69,5.74,8.66,5.75z"/>
				<path d="M5.64,5.96C5.66,5.95,5.64,5.96,5.64,5.96L5.64,5.96z"/>
				<path d="M5.8,6.11c0,0.01-0.01,0.01,0,0.03C5.8,6.13,5.8,6.12,5.8,6.11z"/>
				<path d="M5.02,6.93L5.02,6.93C5.02,6.92,5.02,6.92,5.02,6.93z"/>
				<path d="M5.68,5.97L5.64,5.97C5.65,5.97,5.66,5.97,5.68,5.97z"/>
				<path d="M5.67,5.95c0.01,0,0.02,0,0.02,0C5.69,5.94,5.69,5.94,5.67,5.95z"/>
				<path d="M5.6,5.97c0.01,0,0.03-0.01,0.04-0.01c-0.01,0-0.01-0.01-0.01-0.01C5.63,5.96,5.62,5.97,5.6,5.97z"/>
				<path d="M11.57,6.64L11.57,6.64C11.55,6.64,11.56,6.64,11.57,6.64z"/>
				<polygon points="6.68,6.6 6.68,6.61 6.68,6.61 				"/>
				<path d="M6.77,6.55C6.74,6.62,6.71,6.61,6.68,6.61l0.05,0.13L6.77,6.55z"/>
				<path d="M10.23,6.6l-0.05-0.05c0.09-0.05,0.14-0.02,0.09-0.09c-0.04,0.14-0.25-0.03-0.28,0.12L9.95,6.54
					c0.01,0,0.01-0.01,0.03,0C9.91,6.45,9.9,6.63,9.8,6.59C9.77,6.58,9.75,6.55,9.77,6.54L9.69,6.56C9.67,6.56,9.68,6.53,9.7,6.54
					l-0.12,0l0,0C9.56,6.55,9.51,6.58,9.49,6.59C9.46,6.57,9.51,6.58,9.5,6.56L9.43,6.59C9.41,6.55,9.47,6.52,9.51,6.53
					C9.47,6.37,9.45,6.56,9.33,6.46l0.07-0.01C9.36,6.36,9.31,6.38,9.24,6.32C9.25,6.35,9.37,6.47,9.29,6.5
					C9.27,6.48,9.25,6.48,9.21,6.5c0-0.05-0.04-0.04-0.08-0.05l0.01-0.07C9.08,6.4,9.08,6.44,9.04,6.47
					C8.98,6.46,8.98,6.4,8.97,6.36c-0.09-0.02,0.06,0.09-0.05,0.1C8.84,6.42,8.78,6.45,8.68,6.49C8.63,6.46,8.69,6.44,8.68,6.42
					L8.63,6.48c-0.01,0-0.01-0.02-0.01-0.03C8.58,6.47,8.61,6.52,8.55,6.54C8.53,6.61,8.42,6.42,8.34,6.51
					c-0.02-0.02,0.01-0.04,0-0.07C8.23,6.5,8.25,6.48,8.16,6.56L8.08,6.51c0.06,0.05-0.01,0.11-0.07,0.17
					c0.02,0.02,0.04,0.05,0.05,0.06l-0.1,0.04c-0.01-0.01,0-0.04,0.01-0.07L7.96,6.73c-0.04-0.02-0.02-0.07,0-0.11L8,6.67
					c0.02-0.04,0.04-0.09,0.04-0.13C8.03,6.54,8.02,6.55,8.01,6.55c0.01-0.01,0.01-0.02,0.01-0.03c0-0.01-0.01,0.01-0.03,0.03
					L7.96,6.48l0,0.03L7.82,6.46c-0.09,0.08-0.16,0.2-0.31,0.25c0.03-0.06,0-0.09,0-0.16C7.56,6.62,7.62,6.51,7.7,6.52
					c-0.04,0-0.03-0.04-0.02-0.05L7.55,6.54c0-0.06-0.03-0.04-0.07-0.06c0.04,0.11-0.1,0.08-0.15,0.12c-0.01-0.04,0-0.08,0.07-0.07
					C7.31,6.46,7.31,6.67,7.23,6.61c0.02,0,0.03,0,0.03-0.02C7.23,6.63,7.13,6.61,7.15,6.58l0.02,0c-0.11,0-0.33,0.05-0.33,0.14
					c0-0.01,0-0.11,0-0.13L6.69,6.93c0-0.08-0.1-0.26-0.01-0.32C6.65,6.6,6.62,6.59,6.57,6.63c0.02,0.01,0.06,0.11,0.04,0.12
					c-0.08-0.08-0.05-0.04-0.15-0.1C6.49,6.66,6.48,6.79,6.44,6.8c0-0.02-0.03-0.12-0.02-0.14L6.35,6.8C6.37,6.77,6.33,6.7,6.3,6.67
					C6.32,6.69,6.21,6.69,6.19,6.7l0.05,0.02c-0.12,0.01-0.08,0.2-0.19,0.22c0.01-0.03,0-0.16-0.07-0.16
					C5.97,6.85,5.94,7.1,5.86,7.18L5.83,7.15L5.76,7.21c0.02-0.1,0.1-0.33,0.15-0.43C5.87,6.76,5.9,6.74,5.83,6.76
					C5.8,6.73,5.85,6.7,5.87,6.69L5.71,6.71c0.03,0.07-0.1,0.1-0.07,0.16l0.14-0.12C5.81,6.83,5.75,6.98,5.64,7
					C5.6,6.98,5.62,6.87,5.61,6.85C5.6,6.88,5.52,6.93,5.51,6.91l0.03-0.05C5.47,6.85,5.48,6.98,5.4,6.93
					c-0.02,0-0.07-0.08-0.07-0.04c0.04,0.08,0.11,0.33,0.09,0.4c-0.01,0-0.17-0.06-0.19-0.11C5.21,7.11,5.3,7.03,5.28,6.97
					c0,0.02-0.02,0.04-0.02,0.05C5.25,7,5.27,6.96,5.25,6.96C5.22,7.03,5.22,6.93,5.22,7.01c-0.04,0-0.02-0.03-0.04-0.05
					c-0.03,0.05-0.16,0.06-0.21,0c0.02,0,0.04-0.03,0.05-0.03c-0.03-0.11,0-0.17,0.03-0.26c0.02,0,0.06-0.03,0.08,0
					C5.11,6.66,5.1,6.64,5.11,6.61c0.08,0-0.02,0.05,0.06,0.07c-0.04-0.02-0.01-0.08,0-0.13C5.12,6.51,5.09,6.61,5.1,6.65
					c-0.08-0.04-0.12-0.18-0.03-0.3c0.08-0.08,0.07,0.03,0.08,0C5.32,6.29,5.23,6.14,5.4,6.15C5.47,6.19,5.44,6.26,5.46,6.3
					C5.4,6.34,5.34,6.3,5.3,6.32l0.07,0C5.35,6.35,5.31,6.38,5.28,6.38C5.34,6.4,5.55,6.29,5.69,6.3C5.7,6.28,5.73,6.25,5.71,6.23
					L5.67,6.25c-0.05-0.04,0.06-0.08,0-0.09c0.04-0.05,0.09-0.11,0.17-0.11l0.03,0.06c-0.01-0.02-0.06-0.03-0.08,0
					c0.02-0.04,0.14,0.06,0.15-0.03L5.89,6.04C5.93,6,5.99,5.91,6.06,5.92C6.01,5.86,6.05,5.93,5.98,5.86
					C6.04,5.95,5.8,5.9,5.9,5.98C5.82,5.91,5.8,5.97,5.72,5.91c0.01,0.02,0.03,0.03-0.03,0.04c0,0.01,0,0.02-0.01,0.02l0,0l0,0
					c0,0,0,0,0,0C5.7,5.98,5.71,5.99,5.72,6c-0.01,0.06-0.1,0.08-0.13,0.11c-0.04,0,0.01-0.03-0.02-0.05L5.54,6.12
					C5.52,6.07,5.43,6.07,5.5,6.01L5.43,6.03c-0.05-0.02-0.12,0-0.15,0.03c-0.04,0-0.08,0.09-0.06,0.04L5.1,6.19L5.1,6.18
					C4.96,6.26,4.88,6.4,4.73,6.59C4.72,6.66,4.72,6.73,4.72,6.84L4.68,6.86C4.7,6.94,4.69,7.1,4.76,7.11
					C4.72,7.17,4.76,7.28,4.88,7.37C5,7.47,5.17,7.5,5.25,7.51l0.01-0.06c0.11,0.01,0.19-0.03,0.27-0.07L5.51,7.34
					c0.06-0.06,0.18-0.02,0.26-0.05c0,0.02-0.02,0.02-0.04,0.02c0.13,0.08,0.21-0.14,0.33-0.09C6.08,7.19,6.1,7.19,6.12,7.2l-0.01,0
					c0.01,0,0.01,0,0.01,0l0.04,0.02C6.15,7.21,6.14,7.2,6.13,7.2C6.15,7.19,6.18,7.18,6.2,7.16l0.02,0.05l0.01,0
					c0.03,0.01,0.02-0.03-0.01-0.06C6.24,7.13,6.25,7.12,6.26,7.1C6.3,7.18,6.33,7.06,6.38,7.14c0.01-0.05,0.14-0.06,0.14-0.16
					c0,0.01,0.01,0.02,0,0.02c0.03,0,0.07,0.01,0.09-0.02l0.03,0.06l0.06-0.1c0.05,0.03,0.07,0.05,0.04,0.11
					c0.09-0.1,0.08-0.04,0.16-0.14l0,0.04c0.03-0.01,0.07-0.07,0.1-0.04c0.08,0.07,0.36-0.04,0.55,0.03
					C7.48,6.82,7.62,6.99,7.62,6.9c0.01,0.03,0.04,0.04,0.01,0.07c0.09-0.04,0.14,0.04,0.2-0.05c0.01,0.03-0.02,0.05-0.01,0.06
					c0.01-0.01,0.03-0.03,0.04-0.01C7.88,6.99,7.85,7,7.84,7.01c0.09-0.01,0.1-0.1,0.1-0.19C8,6.86,8.02,6.85,8.05,6.8
					C8.07,6.82,8.1,6.85,8.04,6.86c0.03,0,0.21,0.04,0.21-0.03c0.01,0.02,0.05,0,0.06,0c0.08,0,0.08,0.01,0.16,0.01L8.44,6.82
					C8.47,6.74,8.51,6.81,8.57,6.8l0,0.01C8.7,6.87,8.63,6.78,8.76,6.86l0-0.05c0.02-0.11,0.12,0.07,0.2,0.04L8.93,6.81
					c0.05-0.04,0.11,0.16,0.15,0.18C9.08,7,9.06,7,9.05,7.01c0.11,0.08,0.02-0.07,0.11-0.08c0.01,0.04-0.03,0.09,0.03,0.1
					C9.2,7.07,9.35,6.93,9.42,7.01C9.41,6.98,9.39,6.95,9.44,6.93c0.06,0,0.15,0.13,0.21,0.05C9.65,6.99,9.66,7,9.66,7
					C9.7,6.99,9.81,6.99,9.84,6.94c0.01,0.18,0.3-0.04,0.27,0.13l0.14,0.02L10.24,7.1c0.09,0.03,0.13,0,0.16-0.04
					c0.02,0.02,0,0.03,0,0.04c0.12,0.06,0.13,0.06,0.26,0l0,0.06c0.04-0.02,0.16,0.13,0.3,0.1c0,0.01-0.01,0.02-0.02,0.02
					c0.12-0.04,0.26,0.26,0.4,0.09c0.04-0.01,0.09-0.01,0.13-0.02c-0.15-0.04,0.03-0.08-0.02-0.12c0.05,0,0.14,0.07,0.07,0.08
					l-0.01-0.01c-0.04,0.12,0.22,0.01,0.24,0.05c0.32-0.24,0.4-0.68,0.12-0.95l-0.03,0.08c-0.03-0.03-0.05-0.05-0.08-0.08
					c-0.01-0.03,0-0.08,0.07-0.02c-0.01-0.07-0.14-0.05-0.15-0.03c-0.11-0.1,0.1-0.05,0.06-0.08l-0.06-0.03l0.01,0.01
					c-0.06,0.01-0.08,0.04-0.15,0c-0.04-0.03,0-0.06-0.02-0.07c0-0.01,0-0.01-0.03-0.01l-0.1-0.04l0.02,0.07
					c-0.06,0.01-0.09-0.04-0.07,0.05c-0.03-0.13-0.36-0.15-0.39-0.2c-0.07,0.03-0.14,0.01-0.21-0.01c0.02,0.02,0.01,0.09-0.05,0.07
					c0.06-0.14-0.11-0.09-0.14-0.21c0.03,0.08-0.2-0.02-0.14,0.09c-0.05-0.02,0.01-0.05-0.03-0.1c-0.14,0.03-0.29-0.09-0.46-0.09
					C9.92,5.83,9.94,5.86,9.9,5.89L9.83,5.78c-0.03,0.01-0.04,0.11-0.1,0.03c0.01,0.02,0.02,0.04-0.01,0.05
					c-0.32-0.13-0.67,0.02-1-0.16c0.04,0.04,0.01,0.04-0.02,0.04c0.02,0.01,0,0.05,0,0.07L8.57,5.74C8.55,5.82,8.42,5.75,8.41,5.82
					l0.04-0.01C8.4,5.89,8.54,5.99,8.53,6.09C8.59,6,8.69,6.23,8.8,6.1c0.02,0.02-0.02,0.03-0.01,0.06
					c0.03-0.04,0.06-0.05,0.12-0.03L8.9,6.14c0.17-0.01,0.24,0.04,0.42,0.08L9.31,6.17C9.35,6.18,9.36,6.2,9.38,6.21
					c0.05-0.08-0.11-0.01-0.06-0.1c0.05,0.11,0.28,0.02,0.31,0.15C9.68,6.27,9.61,6.2,9.67,6.21l0.01,0.03L9.7,6.2
					c0.04,0.01,0.05,0.05,0.05,0.08c-0.01,0-0.03,0-0.04,0.01c0.05,0.04,0.15,0,0.16,0.02L9.82,6.28c0.17-0.01,0.36,0.07,0.53,0.03
					l-0.01-0.03c0.13-0.02,0.09,0.05,0.23,0.06l-0.01,0c0.03-0.02,0.07-0.02,0.11-0.01c-0.04,0.02,0.05,0.07,0,0.09
					c0.14-0.01,0.07-0.02,0.18-0.09l0.01,0.04c0.04-0.03,0.05-0.05,0.12-0.04c-0.06,0.02,0.02,0.07-0.05,0.1
					c0.11,0.12,0.23-0.03,0.25,0.12c0.1-0.09-0.1-0.1-0.06-0.11c-0.02-0.04,0.08-0.06,0.12-0.04c0.04,0.02,0.03,0.16,0.13,0.2
					c-0.01,0-0.01,0-0.02,0c0.02,0.04,0.09-0.01,0.1,0.05c0.06-0.05,0.04,0.03,0.09-0.04L11.46,6.6c0.05,0,0.16-0.06,0.19,0.03
					c-0.02,0.01-0.05,0.01-0.07,0.01c0,0.03,0.04,0.01,0.04,0.04c-0.07,0.05-0.07-0.03-0.15,0c0,0.04,0.1-0.02,0.03,0.05
					c0.1-0.08,0.02,0.03,0.12,0.01l-0.05,0.02c0.01,0,0.04,0,0.04,0.01c-0.02,0-0.05,0.01-0.07,0.01c0.07,0-0.04,0.05-0.01,0.06
					c0-0.04,0.06-0.02,0.1-0.05c0.08,0.08-0.14,0.05-0.12,0.1c0-0.01,0.04-0.02,0.06,0c-0.01,0.01-0.04,0.02-0.07,0.01
					c-0.01,0.03,0.05,0.02,0.07,0.05C11.5,6.95,11.57,7,11.57,7.03l-0.03-0.04c-0.01-0.03,0.05,0.11-0.01,0.07
					c0.01-0.02,0.01-0.05,0.01-0.07c0,0.01,0,0.01-0.01,0.02l0-0.06c-0.02,0.05-0.04,0.03-0.07,0c0,0.04-0.03,0.09-0.08,0.08
					c-0.02-0.04,0.04-0.04-0.04-0.06c0.03-0.02,0.06-0.06,0.07,0c0.01-0.02,0.03-0.03,0.03-0.04c-0.02-0.04-0.08-0.04-0.11-0.05
					c0.01,0.01,0.02,0.01,0.02,0.02l-0.14,0.02c-0.01-0.03,0.01-0.04,0.03-0.04c-0.03,0-0.05,0.01-0.09,0
					c0.02-0.04,0.04-0.08,0.1-0.08l-0.15,0c0-0.02-0.05-0.06-0.03-0.08c-0.06-0.04-0.18,0.04-0.25-0.01
					c-0.01,0.01-0.02,0.01-0.04,0.01c-0.08-0.03-0.14-0.1-0.25-0.06l-0.04-0.09c-0.08,0,0.05,0.11-0.08,0.11
					c-0.09,0.01-0.02-0.07-0.05-0.1c-0.05,0.03-0.14,0.09-0.21,0.02C10.19,6.59,10.21,6.6,10.23,6.6z M9.3,6.5
					c0.02-0.01,0.06-0.04,0.07-0.01C9.34,6.55,9.33,6.52,9.3,6.5z M7.87,6.59c0.01-0.02,0.03-0.01,0.06,0.01
					C7.91,6.6,7.89,6.6,7.87,6.59z M5.38,6.08L5.38,6.08C5.33,6.08,5.35,6.08,5.38,6.08z M5.47,6.08c0.01-0.01,0-0.02,0-0.02
					c0,0.01-0.02,0.02-0.04,0.02C5.44,6.09,5.45,6.1,5.47,6.08z M11.51,6.21l0.01,0.02C11.48,6.23,11.49,6.22,11.51,6.21z"/>
				<path d="M8.03,6.51c0.01,0.01,0.01,0.02,0.01,0.03C8.05,6.53,8.05,6.51,8.03,6.51z"/>
				<polygon points="10.81,6.7 10.81,6.7 10.82,6.69 				"/>
				<path d="M5.27,6.94l0.01,0.03C5.28,6.95,5.28,6.94,5.27,6.94z"/>
				<path d="M5.88,5.87L5.83,5.9c0.03-0.01,0.04,0,0.05,0.01C5.88,5.89,5.87,5.88,5.88,5.87z"/>
				<path d="M6.41,6.09c0.01-0.01,0.02,0,0.02-0.01L6.42,6.06C6.39,6.07,6.37,6.09,6.41,6.09z"/>
				<path d="M5.97,6.03c0.01,0.04,0.04,0.02,0.08,0c0,0,0,0-0.01,0C6.04,5.97,6.01,6,5.97,6.03z"/>
				<path d="M6.06,6.03c0.01,0,0.02-0.01,0.03-0.01C6.09,6,6.08,6.02,6.06,6.03z"/>
				<path d="M5.57,6.02c0.02,0.01,0-0.06,0.01-0.04C5.58,5.91,5.48,6.07,5.57,6.02z"/>
				<polygon points="6.04,6.17 6.01,6.12 6,6.17 				"/>
				<path d="M5.74,6.2l0.06,0c0-0.01,0-0.02,0.01-0.02C5.78,6.19,5.74,6.19,5.74,6.2z"/>
				<path d="M5.81,6.18c0.02,0,0.04-0.01,0.04-0.02C5.85,6.16,5.83,6.17,5.81,6.18z"/>
				<polygon points="5.96,6.2 5.94,6.2 5.9,6.2 				"/>
				<path d="M5.13,6.42L5.09,6.47c0.01,0.02,0.03,0.01,0.04-0.01C5.13,6.45,5.15,6.43,5.13,6.42z"/>
				<path d="M5.37,6.46c-0.02,0-0.03-0.02-0.04-0.03L5.36,6.5L5.37,6.46z"/>
				<path d="M5.23,6.55C5.24,6.57,5.21,6.64,5.25,6.6C5.24,6.58,5.28,6.54,5.23,6.55z"/>
				<polygon points="5.33,7.13 5.31,7.13 5.32,7.24 				"/>
				<path d="M6.09,6.65C6,6.64,6.09,6.72,6.01,6.7C6,6.73,6.07,6.72,6.06,6.74C6.1,6.71,6.13,6.72,6.09,6.65z"/>
				<path d="M6.06,6.74C6.05,6.75,6.05,6.76,6.04,6.77C6.05,6.76,6.06,6.75,6.06,6.74z"/>
				<polygon points="8.48,5.69 8.43,5.66 8.46,5.7 				"/>
				<path d="M8.38,5.77L8.37,5.7L8.34,5.76C8.35,5.76,8.38,5.75,8.38,5.77z"/>
				<path d="M9.17,6.34L9.16,6.36c0.01,0.02,0.02,0.02,0.04,0.03L9.17,6.34z"/>
				<polygon points="9.85,6.48 9.84,6.48 9.85,6.54 				"/>
				<path d="M10.43,6.5c-0.02-0.01-0.05,0-0.08-0.01C10.41,6.49,10.42,6.58,10.43,6.5z"/>
			</g>
		</g>
	</g>
</g>
</svg>
