<?xml version="1.0" encoding="utf-8"?>
<!-- Generator: Adobe Illustrator 27.1.1, SVG Export Plug-In . SVG Version: 6.00 Build 0)  -->
<svg version="1.1" id="Layer_1" xmlns="http://www.w3.org/2000/svg" xmlns:xlink="http://www.w3.org/1999/xlink" x="0px" y="0px"
	 viewBox="0 0 115.18 31.24" style="enable-background:new 0 0 115.18 31.24;" xml:space="preserve">
<style type="text/css">
	.st0{fill:#FFD400;}
	.st1{fill:#010101;}
	.st2{fill:#FFFFFF;}
	.st3{fill:none;}
	.st4{fill:#FED519;}
	.st5{fill:#FDFEFE;}
	.st6{fill:#FED419;}
</style>
<g>
	<rect x="3.79" y="5.06" class="st6" width="106.81" height="21.1"/>
	<g>
		<path class="st6" d="M113.03,25.86c-0.04,0.38,0.38,0.24,0.46,0.3C113.4,25.53,112.92,25.88,113.03,25.86z"/>
		<polygon class="st6" points="112.08,19.63 112.25,19.74 111.83,18.82 		"/>
		<path class="st6" d="M112.09,13.8c-0.71,0.55,0.12,2.11-0.14,3.15l-0.16,0.17l0.57,0.47C112.27,16.32,111.89,14.68,112.09,13.8z"
			/>
		<path class="st6" d="M113.63,10.69c-0.28,0.19-0.24-0.67-0.09,0.72c0.03-0.07,0.05-0.09,0.07-0.13
			C113.61,11.15,113.61,10.98,113.63,10.69z"/>
		<path class="st6" d="M113.62,11.28C113.64,11.89,113.85,10.88,113.62,11.28L113.62,11.28z"/>
		<path class="st6" d="M113.46,8.09l0.12,0.7c0.04,0.24,0.08,0.3,0.12,0.46c0.04-0.04,0.07-0.12,0.1-0.21
			c0.01-0.05,0.03-0.08,0.04-0.14c0.01-0.08,0.02-0.17,0.03-0.25c0.04-0.31,0.08-0.53,0.14-0.28
			C113.89,6.82,113.73,7.24,113.46,8.09z"/>
		<path class="st6" d="M112.94,6.93l0.1,0.65C113.11,7.44,113.13,7.24,112.94,6.93z"/>
		<path class="st6" d="M113.26,8.99l-0.22-1.41c-0.12,0.22-0.35,0.26,0.08,0.66C112.91,8.12,113.11,8.44,113.26,8.99z"/>
		<path class="st6" d="M113.15,9.49c-0.16,0.45-0.25,1.04-0.5,0.23C112.75,11.26,113.25,11.04,113.15,9.49z"/>
		<path class="st6" d="M111.35,13.5l-0.21,0.61l0.24,0.52C111.26,14.37,111.58,13.46,111.35,13.5z"/>
		<path class="st6" d="M110.79,1.83c-0.17,0.15,0.25,0.4,0.22,0.6l1.15-0.17C111.71,2.15,110.74,2.06,110.79,1.83z"/>
		<path class="st6" d="M111.01,2.43l-1.61,0.26C110.66,2.72,110.98,2.6,111.01,2.43z"/>
		<path class="st6" d="M112.14,6.98c0.18,0.6,0.37,1.35,0.55,2.02c-0.19-0.81-0.37-1.7-0.56-2.42L112.14,6.98z"/>
		<polygon class="st6" points="105.53,1.81 106.04,1.46 105.13,1.99 		"/>
		<path class="st6" d="M103.27,1.87c0.37-0.29-0.51-0.49-0.12-0.67c-0.62,0.05-1.14,0.3-1.61,0.53
			C102.04,1.6,102.57,1.64,103.27,1.87z"/>
		<path class="st6" d="M100.74,2.06c0.25-0.07,0.51-0.19,0.79-0.33C101.27,1.8,101.01,1.89,100.74,2.06z"/>
		<path class="st6" d="M106.94,2.62c-0.15-0.09-0.29-0.33-0.78-0.43l0.35,0.43C106.64,2.61,106.79,2.61,106.94,2.62z"/>
		<path class="st6" d="M106.52,2.62l-0.01-0.01c-0.38-0.01-0.65-0.02-0.76-0.02C105.85,2.59,106.08,2.6,106.52,2.62z"/>
		<path class="st6" d="M107.08,2.62c-0.05,0-0.09,0-0.14,0C106.99,2.66,107.02,2.67,107.08,2.62z"/>
		<path class="st6" d="M112.53,3.32c-0.02-0.04-0.03-0.09-0.05-0.14c-1.07,0.22-2.35,0.47-1.36,0.81c0.7-0.27,0.21-0.46,1.32-0.77
			C112.47,3.19,112.5,3.25,112.53,3.32z"/>
		<path class="st6" d="M107.7,3.15l1.38,0.1c0.02-0.11-0.18-0.28,0.27-0.4L107.7,3.15z"/>
		<polygon class="st6" points="107,3.29 107.7,3.15 107.18,3.12 		"/>
		<path class="st6" d="M102.37,2.46c-0.41,0.19-0.86,0.2-1.37,0.23c0.54,0.08,1.1,0.13,1.64,0.13
			C102.72,2.68,102.95,2.44,102.37,2.46z"/>
		<path class="st6" d="M104.39,2.58c-0.03,0.01-0.06,0.02-0.09,0.02C104.35,2.64,104.4,2.65,104.39,2.58z"/>
		<polygon class="st6" points="96.01,2.69 96.09,2.76 96.11,2.69 		"/>
		<path class="st6" d="M102.73,2.9c0.41,0.08,0.65-0.02,0.88-0.15c-0.31,0.04-0.63,0.07-0.98,0.07
			C102.61,2.88,102.6,2.92,102.73,2.9z"/>
		<path class="st6" d="M99.35,2.26c0.21,0.09,0.45,0.17,0.71,0.23C99.85,2.36,99.43,2.15,99.35,2.26z"/>
		<path class="st6" d="M104.16,2.48l0.06-0.02C104.08,2.37,104.1,2.42,104.16,2.48z"/>
		<path class="st6" d="M104.16,2.48c-0.21,0.06-0.38,0.17-0.54,0.26c0.25-0.03,0.48-0.08,0.68-0.14
			C104.24,2.57,104.19,2.52,104.16,2.48z"/>
		<path class="st6" d="M94.5,5.43c0.07-0.4,1.15-0.76,2.07-0.34c0.91-0.3,0.32-1.6-0.48-2.33c-0.03,0.17-0.03,0.33-0.97,0.57
			c0.33,0.22,2.08,0.51,1.29,0.86c-1.24,0.2-1.02-0.14-1.62-0.35c0.51,0.49-1.58,0.72-1.31,1.44l1.09-0.26
			C94.59,5.15,94.2,5.33,94.5,5.43z"/>
		<path class="st6" d="M97.88,2.8l0.39-0.05c-0.44-0.07-0.76-0.23-1.34-0.54c-0.64,0.19-0.78,0.34-0.82,0.47l1.9,0.06L97.88,2.8z"/>
		<path class="st6" d="M100,2.75c-0.3,0.43-1.23,0.61-0.66,1.08c1.13-0.03,0.79-0.36,1.47-0.55c-1.83,0.11,0.53-0.24-0.8-0.48
			c0.36-0.07,0.68-0.1,0.99-0.11c-0.33-0.05-0.65-0.12-0.95-0.2c0.02,0.01,0.03,0.02,0.04,0.03l0.01,0l0,0.01
			c0.08,0.05,0.1,0.09,0.02,0.06c-0.01,0.01-0.03,0.01-0.04,0.01C100.07,2.65,100.04,2.7,100,2.75c-0.53-0.09-0.08-0.11,0.08-0.17
			c0.01-0.02,0.02-0.04,0.02-0.06l-0.01-0.01l-1.83,0.24C98.66,2.81,99.14,2.8,100,2.75z"/>
		<path class="st6" d="M109.28,4.91c-0.03-0.04-0.01-0.07,0-0.1C109.13,4.87,109.06,4.9,109.28,4.91z"/>
		<path class="st6" d="M108.62,4.65c0.17-0.06,0.39-0.23,0.86-0.19c0.35,0.13-0.14,0.21-0.2,0.35c0.33-0.11,1.26-0.31,0.44-0.52
			l-0.19,0.06c-0.73-0.15-1.85-0.69-1.69-0.74C108.05,4,108.23,4.27,108.62,4.65z"/>
		<path class="st6" d="M104.17,3.81l-1.53,0.21l0.78,0.37l-0.04-0.22C104.25,4.26,104.06,3.99,104.17,3.81z"/>
		<polygon class="st6" points="95.84,2.47 96.04,2.02 95.16,2.66 		"/>
		<polygon class="st6" points="93.86,2.53 93.93,2.13 93.41,2.37 		"/>
		<path class="st6" d="M6.42,23.78l0.25-0.11C6.57,23.71,6.49,23.74,6.42,23.78z"/>
		<path class="st6" d="M6.19,22.78L6,22.82C6.1,22.85,6.18,22.84,6.19,22.78z"/>
		<path class="st6" d="M45.19,2.57c-0.65-0.37-1.38-0.94-1.3-0.5l0.2,0.43C44.54,2.43,44.89,2.48,45.19,2.57z"/>
		<path class="st6" d="M11.85,5.16c0.06,0.04,0.13,0.09,0.19,0.13C12.2,5.14,12.35,5,12.48,4.88C12.29,4.96,12.08,5.06,11.85,5.16z"
			/>
		<path class="st6" d="M11.39,6.96l-0.86-0.28C10.72,6.77,11,6.87,11.39,6.96z"/>
		<path class="st6" d="M22.18,23.32l0.52-0.44C21.88,22.88,22.24,23.11,22.18,23.32z"/>
		<path class="st6" d="M73.56,2.69C73,2.52,72.55,2.44,72.15,2.42C72.83,2.67,73.38,3.05,73.56,2.69z"/>
		<path class="st6" d="M1.56,27.43c0.08,0.37,0.17,0.46,0.26,0.36C1.75,27.43,1.67,27.25,1.56,27.43z"/>
		<path class="st6" d="M70.53,2.43c0.1,0.04,0.2,0.07,0.3,0.1c0.41-0.07,0.83-0.13,1.33-0.1C71.65,2.24,71.08,2.12,70.53,2.43z"/>
		<path class="st6" d="M86.44,23.68c0.05,0.02,0.1,0.03,0.15,0.05C86.59,23.68,86.53,23.67,86.44,23.68z"/>
		<path class="st6" d="M105.16,28.06c-0.18,0.03-0.49,0.03-0.77,0.03C104.53,28.12,104.76,28.12,105.16,28.06z"/>
		<path class="st6" d="M85.88,2.34C86.3,2.31,85.95,2.29,85.88,2.34L85.88,2.34z"/>
		<path class="st6" d="M87.93,4.05c-0.09,0.05-0.16,0.11-0.17,0.21C87.79,4.16,87.85,4.09,87.93,4.05z"/>
		<path class="st6" d="M66.34,5.13c-0.01,0-0.02,0-0.04,0C66.43,5.21,66.41,5.19,66.34,5.13z"/>
		<path class="st6" d="M86.52,2.53c-0.16-0.05-0.34-0.1-0.54-0.13C86.07,2.44,86.23,2.48,86.52,2.53z"/>
		<path class="st6" d="M86.43,2.33c0.15,0.02,0.26,0.03,0.37,0.04C86.85,2.3,86.8,2.25,86.43,2.33z"/>
		<path class="st6" d="M85.3,2.36c0.24-0.01,0.46,0.01,0.68,0.04c-0.08-0.03-0.12-0.05-0.09-0.07C85.76,2.34,85.59,2.35,85.3,2.36z"
			/>
		<path class="st6" d="M52.01,24.84c0.03,0.01,0.06,0.02,0.09,0.04C52.52,24.71,52.33,24.73,52.01,24.84z"/>
		<path class="st6" d="M34.25,7.08c0.02,0,0.03-0.02,0.05-0.02c-0.02,0-0.04-0.01-0.06-0.02L34.25,7.08z"/>
		<path class="st6" d="M32.74,7.4c0.64-0.54,1.01-0.47,1.5-0.36l-0.5-1.25L32.74,7.4z"/>
		<path class="st6" d="M12.23,23.66l-1.06-0.39c1.28-0.64,2.21-0.42,1.21-0.97c-0.15,1.36-4.12,0.14-4.27,1.5
			c-0.22-0.1-0.53-0.19-0.53-0.29c0.06,0.01,0.05-0.07,0.27-0.05c-0.07-0.04-0.2-0.07-0.2-0.1c-0.02-0.02-0.04-0.04-0.05-0.05
			c-0.03-0.02-0.06-0.01-0.09,0.02c-0.06,0.06-0.13,0.2-0.22,0.35c-0.18,0.3-0.52,0.66-0.92,0.57c-0.25-0.1-0.23-0.3,0.07-0.46
			L6,23.95c-0.06-0.04-0.11-0.09-0.17-0.16c0.03-0.21,0.26-0.33,0.24-0.15l-0.11-0.82L6,22.82c-0.21-0.06-0.54-0.32-0.68-0.61
			c0.19-0.53,0.14,0.28,0.31,0.11L5.3,21.19c0.18-0.23,0.35-0.11,0.47,0.17c0.06,0.14,0.11,0.32,0.14,0.51
			c0.03,0.16,0.04,0.47,0.03,0.51c0.08-0.04,0.16-0.05,0.22-0.09c0.06-0.06,0.11-0.11,0.16-0.17c0.08-0.1,0.13-0.2,0.15-0.28
			c0.04-0.18-0.02-0.33-0.09-0.53C6.22,20.91,6,20.36,6.39,19.2l0.17,1.08c0.77-0.7,0.49-1.55,0.97-2.77
			c-0.25,0.29-1.21,2.45-1.55,1.21c0.1-0.35,0.15-0.81-0.12-1.49c0.48-0.01,0.36-0.66,0.34-1.48l0.64,0.06
			c-0.18-0.89-0.51-0.82-0.8-1.34c0.06-0.99,0.56-1.2,0.98-1.43c0.1-1.59-0.79,1.09-0.91-0.78c0.12-0.66,0.12-1.22,0.04-1.81
			c-0.04-0.3-0.1-0.6-0.18-0.93C5.92,9.35,5.88,9.18,5.84,9C5.8,8.83,5.75,8.8,5.71,8.67c0.22-0.4,0.39,0.13,0.57,0.01
			C6.11,8.56,5.94,8.4,5.77,8.2c0.01-0.09,0.17,0.01,0.25,0.05C5.82,7.84,5.38,7.98,5.2,7.2C4.9,6.9,5.06,6.68,5.26,6.54
			C6.03,6.8,6.6,7.15,6.83,6.7C7.07,6.89,6.88,7.1,7.04,7.34c0.59-0.52,0.78-0.38,2.2-1.09l1.29,0.42
			c-0.95-0.48,0.26-1.05,1.32-1.52c-0.34-0.23-0.62-0.43-0.81-0.53l1.69-0.34c0.2,0.1,0.03,0.32-0.24,0.59
			c0.12-0.05,0.22-0.1,0.31-0.15c0.6,0.24,0.29,0.61-0.14,0.96c-0.2-0.13-0.41-0.26-0.61-0.39c-0.42,0.39-0.81,0.82-0.72,1.19
			c0.11-0.07,0.32-0.14,0.55-0.17c-0.11,0.11-0.18,0.2-0.13,0.26c0.06,0.07,0.23-0.07,0.51-0.24l0.38,0.71l0.09-0.28l2.21,0.45
			c1.58-0.72,2.96-1.77,5.47-2.07C19.79,5.67,20.28,6,20.24,6.62C19.56,5.96,18.3,6.9,17,6.77c0.68,0.07,0.53,0.36,0.36,0.47
			l2.32-0.6c-0.05,0.51,0.49,0.38,1.1,0.59c-0.46-1,1.73-0.67,2.67-0.97c0.06,0.34-0.17,0.68-1.32,0.6
			c1.27,0.75,1.64-1.18,2.89-0.54c-0.28,0.01-0.43-0.04-0.54,0.13c0.66-0.3,2.26-0.06,1.88,0.23l-0.28,0.01
			c1.87,0.12,5.68,0.01,5.96-0.84c0.02,0.11-0.24,1.03-0.36,1.2l3.33-2.86c-0.29,0.73,0.83,2.47-0.72,2.88
			c0.44,0.1,0.99,0.23,1.93-0.03c-0.3-0.1-0.76-1.06-0.34-1.12c1.14,0.81,0.79,0.43,2.19,1.13c-0.45-0.16,0.05-1.3,0.77-1.27
			c-0.11,0.17,0.06,1.13-0.2,1.25l1.79-1.12c-0.45,0.2-0.08,0.95,0.32,1.27c-0.19-0.22,1.55,0.02,2.02-0.09l-0.76-0.26
			c2.02,0.17,1.99-1.58,4-1.52c-0.24,0.23-0.6,1.43,0.42,1.57c0.47-0.58,2.07-2.77,3.84-3.21l0.34,0.33l1.36-0.38
			c-0.85,0.87-3.22,2.69-4.52,3.4c0.76,0.26,0.21,0.39,1.34,0.36c0.4,0.31-0.62,0.47-0.95,0.49l2.63,0.2
			c-0.12-0.67,2.01-0.67,1.91-1.23l-2.86,0.7c-0.12-0.67,1.65-1.91,3.52-1.79c0.47,0.27-0.36,1.2-0.32,1.42
			c0.24-0.23,1.77-0.44,1.94-0.28l-0.79,0.36c1.04,0.25,1.7-0.89,2.94-0.25c0.43,0.04,1.29,0.87,1.36,0.47
			c-0.7-0.77-0.84-3.14-0.37-3.72c0.15,0.05,2.26,0.73,2.75,1.11c0.71,0.6-1.07,1.43-0.46,1.95c0.03-0.18,0.42-0.41,0.58-0.48
			c0.45,0.16-0.19,0.57,0.8,0.49c0.16-0.68,2,0.06,0.46-0.58c0.96-0.19,1.02,0.14,2.15,0.11c-0.36-0.44,1.01-1.5,1.98-1.69
			c-0.06,0.17,0.16,0.4,0.26,0.5c1.97,0.06,3.03,0.37,4.87,0.38c0.17,0.17,1.06,0.36,0.68,0.66c0.26-0.12,0.51-0.35,1.07-0.37
			c1.1,0.59-1.26,0.09-0.43,0.8C72.61,6.2,74,6.05,74.81,5.8c-0.25-0.61-1.87-0.12-2.67,0.13c0-0.84,1.4-1.73,3.33-2.12
			c1.53-0.21,0.66,0.55,0.93,0.43c2.87,0.15,2.44-1.47,4.83-0.86c0.95,0.54,0.04,1.07,0.25,1.46c-1.24,0.2-1.91-0.34-2.75-0.32
			l1.04,0.25c-0.4,0.18-1.23,0.31-1.68,0.16c0.79,0.48,4.85,0.09,7.06,0.54c0.39-0.18,1.07-0.37,0.75-0.58l-0.7,0.08
			c-0.64-0.43,1.32-0.6,0.43-0.8c0.94-0.31,1.99-0.78,3.31-0.54l0.25,0.61c-0.03-0.18-0.86-0.37-1.24-0.18
			c0.55-0.27,2.03,0.83,2.63,0.03l-0.93-0.42c0.94-0.31,2.11-0.96,3.28-0.77c-0.53-0.61-0.27,0.07-1.1-0.64
			c0.72,0.88-3-0.04-1.84,0.89c-0.85-0.82-1.48-0.35-2.6-1.05c0.03,0.2,0.4,0.39-0.59,0.29c-0.04,0.06-0.15,0.13-0.22,0.18
			c-0.03-0.01-0.04-0.01-0.07-0.02l0.05,0.02c-0.04,0.03-0.05,0.04,0.02,0.01c0.23,0.09,0.42,0.19,0.5,0.31
			c-0.49,0.46-2.05,0.45-2.58,0.69c-0.58-0.1,0.24-0.23-0.07-0.45l-0.79,0.36c-0.08-0.45-1.55-0.75-0.18-1.01l-1.24-0.02
			c-0.73-0.25-1.73-0.35-2.35-0.16c-0.58-0.1-1.47,0.5-0.97,0.15l-1.94,0.28l-0.02-0.11c-1.92-0.06-3.94,0.74-6.13-0.07
			c-0.64,0.11-1.31,0.25-2.39,0.12l-0.21-0.39c-0.83,0.14-2.49-0.39-2.84,0.02c-0.89-1.05-4.02-0.23-5.47-0.41l-0.06,0.51
			c-1-0.03-1.96,0.12-3.21,0.32l0.08,0.45c-1.07,0.37-2.76-0.32-4.45-0.27c0.12-0.17,0.55-0.13,0.85-0.02
			c-2.03-1.01-4.28,0.74-6.11,0c-0.46,0.16-0.79,0.11-1.11-0.01c0.04,0,0.08-0.01,0.11-0.02c-0.05-0.01-0.12-0.01-0.19-0.01
			c-0.2-0.08-0.41-0.17-0.64-0.24c0.19,0.11,0.38,0.2,0.54,0.24c-0.35,0.01-0.89,0.07-1.41,0.18l-0.22-0.48
			c-0.04,0-0.08,0.01-0.12,0.01c-0.52-0.18-0.41,0.23-0.14,0.59c-0.26,0.08-0.51,0.17-0.69,0.29c-0.42-0.78-1.38,0.26-1.95-0.57
			c-0.35,0.4-2.64,0.3-2.92,1.15c-0.02-0.11-0.17-0.16,0.11-0.17c-0.59-0.1-1.17-0.19-1.7,0.05l-0.25-0.61l-1.28,0.82
			c-0.78-0.37-1.1-0.59-0.33-1.06C32.96,3.74,33.31,3.29,31.72,4l0.08-0.4c-0.57,0.02-1.47,0.55-1.81,0.22
			c-1.27-0.75-6.27-0.1-9.52-0.8c0.63,1.17-1.51-0.52-1.64,0.38c-0.19-0.28-0.64-0.43-0.12-0.67C17.06,3,16.23,2.3,15.08,3.06
			c-0.19-0.28,0.35-0.4,0.19-0.57c-0.13,0.06-0.53,0.24-0.7,0.08c-0.17-0.16,0.24-0.23,0.51-0.35c-1.69,0.05-1.87,0.9-1.99,1.69
			c-0.86-0.38-1.29-0.32-1.91,0.2c-0.3-0.26-0.8-0.53,0.26-0.63C10.84,3.44,7.81,3.1,7.75,3.74C7.58,3.57,6.64,3.69,6.47,3.76
			c-1.78-0.04-2-0.1-3.71-0.04l0.58,0.1C3.33,4.1,3.2,4.21,2.96,4.23c0.04,0.5-0.19,0.9-0.13,1.8L2.75,5.94
			c-0.28,1.4-0.21,1.84-0.15,2.16c0.03,0.17,0.05,0.34,0.03,0.66C2.6,9.08,2.54,9.39,2.38,10l0.48-0.13
			c1.03,0.22-0.61,2.11-0.21,3.49l0.27-0.5c0.35,0.75-1.4,2.11-1.53,2.87c-0.09,0.17-0.14-0.26-0.21-0.49
			c-0.61,1.98,0.63,0.26,0.77,1.74c-0.34,0.27-0.86-0.35-0.92,0.64c-0.27,0.5,1.1,2.89,0.45,4.24c0.26-0.3,0.52-0.6,0.72,0.09
			c0.01,0.15,0,0.24-0.01,0.46c-0.02,0.22-0.05,0.45-0.09,0.69c-0.08,0.51-0.17,1.06-0.25,1.59c-0.16,1.11-0.22,2.3,0.19,2.63
			c-0.07,0.26-0.14,0.4-0.2,0.47c0.01,0.09,0.03,0.18,0.05,0.29c1.49-0.19,3.83-0.34,4.49-0.75c0.11,0.41,0.76,0.57,1.39,0.6
			c0.5,0.03,1.1-0.08,1.68-0.19c1.16-0.22,2.21-0.45,2.21,0.31l2.47-0.08l-0.06,0.16c1.58,0.1,2.14-0.27,2.7-0.63
			c0.37,0.1,0.1,0.25,0.07,0.33c2.31,0.31,2.54,0.24,4.48-0.52l0.2,0.5c0.53-0.29,3.34,0.78,5.61,0.2
			c-0.02,0.06-0.07,0.15-0.25,0.22c2.55-0.58,6.11,1.38,7.04-0.43l1.68-0.44c-2.18-0.14,0.32-0.78-0.57-1.08
			c0.86-0.11,2.21,0.54,1.16,0.64l-0.16-0.09c-0.39,0.94,2.71,0.33,2.65,0.97c4.28-0.05,8.46,0.47,12.47,0.51l-0.46-0.73l1.4,0.04
			c0.37,0.17,0.49,0.57-0.51,0.54c0.53,0.41,1.67-0.35,1.7-0.51c1.96,0.3-0.76,0.85-0.16,0.87l0.81-0.05l-0.18-0.09
			c0.66-0.3,0.72-0.62,1.92-0.58c0.76,0.15,0.39,0.45,0.69,0.48c0,0.05,0.1,0.08,0.46,0.02l1.76,0.06l-0.71-0.58
			c0.78-0.28,1.66,0.03,0.84-0.62c1.19,1.01,6.58,0.36,7.31,0.68c1.09-0.42,2.18-0.41,3.51-0.36c-0.33-0.12-0.53-0.77,0.62-0.69
			c-0.42,1.34,2.11,0.58,3.05,1.55c-0.83-0.64,3.28-0.16,1.97-1.07c0.96,0.11,0.06,0.5,0.79,0.82c2.29-0.52,5.05,0.34,7.89,0.16
			c0.04-0.18-0.43-0.44,0.18-0.71l1.5,0.88c0.56-0.09,0.52-1.02,1.54-0.4c-0.14-0.15-0.36-0.37,0.02-0.43
			c5.55,0.86,11.35-0.7,16.99,0.91c-0.76-0.34-0.25-0.37,0.33-0.39c-0.38-0.08,0.01-0.43-0.07-0.67l2.36,0.66
			c0.43-0.66,2.53-0.04,2.78-0.68l-0.75,0.11c0.99-0.75-1.39-1.66-1.25-2.62c-1.11,0.85-2.94-1.26-4.76-0.04
			c-0.4-0.2,0.34-0.31,0.13-0.53c-0.46,0.41-1.02,0.5-2.06,0.31l0.12-0.1c-2.91,0.1-4.16-0.3-7.43-0.57l0.24,0.47
			c-0.7-0.06-0.85-0.21-1.18-0.33c-0.81,0.72,1.97,0.04,1.24,0.83c-0.93-0.96-4.96-0.01-5.59-1.11c-1.08-0.01,0.32,0.55-0.76,0.54
			l-0.29-0.3l-0.27,0.38c-0.71-0.06-1.07-0.43-1.09-0.68c0.17,0.03,0.49-0.07,0.67-0.09c-0.92-0.35-2.59,0.12-2.91,0.01l1.04,0.18
			c-2.95,0.28-6.55-0.11-9.4,0.49l0.22,0.22c-2.18,0.41-1.74-0.25-4.13-0.05l0.09-0.05c-0.48,0.22-1.12,0.34-1.77,0.31
			c0.6-0.26-1.14-0.51-0.34-0.8c-2.36,0.44-1.17,0.35-2.73,1.18l-0.36-0.37c-0.53,0.34-0.58,0.51-1.77,0.61
			c0.98-0.32-0.76-0.57,0.33-0.99c-2.5-0.81-3.72,0.82-4.87-0.37c-1.15,1.03,2.17,0.57,1.52,0.79c0.54,0.34-0.95,0.77-1.74,0.66
			c-0.8-0.02-1.36-1.31-3.37-1.29c0.2,0,0.21-0.07,0.41-0.07c-0.75-0.26-1.48,0.35-2.4-0.07c-0.52,0.62-1.2-0.04-1.35,0.76
			l1.85-0.18c-1.05,0.21-2.03,1.13-3.75,0.68c0.13-0.16,0.65-0.37,1-0.49c-0.5-0.23-0.97,0.15-1.49-0.08
			c0.15-0.79,2.24-0.17,3.36-0.78c-0.54-0.33-2.12,0.57-1.56-0.28c-0.81,1.09-1.98-0.14-3.35,0.7l0.09-0.47
			c-0.22,0.07-0.66,0.3-1.06,0.29l0.72-0.62c-1.1,0.52-2.13-0.46-3.19-0.17c2.22-0.01,0.5,0.57,1.43,0.92
			c-2.73,0.64-1.57-1.24-4.63-1.01c0.41-0.07,1.56,0.29,0.91,0.5c-0.58-0.1-1.35-0.28-1.71-0.53c-2.03,0.1,0.31,0.49-0.55,0.78
			c-0.69-0.58-1,0.24-1.88,0.42l-0.01-0.48c-2.31-0.31-0.61,1.01-2.69,0.63l0.88-0.67l-1.08,0.17l0.22-0.55
			c-1.18,0.41-1.55,0.3-2.7,0.15c0.27,0.34-0.15,0.88-1.17,0.89c-0.7-0.29,0.39-0.46-1.06-0.39c0.33-0.3,0.69-0.68,1.32-0.24
			c0.06-0.16,0.32-0.3,0.39-0.46c-0.75-0.33-1.89-0.08-2.41-0.07c0.2,0.02,0.44,0.04,0.57,0.11l-2.1,0.67
			c-0.33-0.18-0.07-0.33,0.19-0.47c-0.43,0.05-0.72,0.27-1.35,0.32c0.16-0.39,0.12-0.8,1.01-0.98l-2,0.44
			c-0.13-0.17-1.03-0.47-0.77-0.61c-1.11-0.23-2.72,0.76-4.2,0.46c-0.08,0.08-0.23,0.15-0.54,0.21c-1.38-0.09-2.61-0.57-4.25-0.03
			l-0.93-0.7c-1.28,0.16,1.26,0.89-0.88,1.15c-1.51,0.22-0.57-0.6-1.1-0.8c-0.75,0.35-2.06,1.08-3.45,0.5
			C11.44,23.61,11.8,23.71,12.23,23.66z M5.98,18.75c0.1,0.31,0.41,0.92,0.13,1.14C5.55,19.55,5.82,19.27,5.98,18.75z M14.18,6.09
			c-0.23,0.16-0.58,0.08-0.98-0.1C13.49,5.95,13.82,5.96,14.18,6.09z M81.28,2.73c-0.01,0.01-0.02,0.01-0.03,0.02
			C80.56,2.56,80.8,2.64,81.28,2.73z M82.7,2.94c0.14-0.07,0.13-0.13,0.07-0.2c-0.1,0.12-0.42,0.13-0.78,0.1
			C82.09,2.96,82.27,3.05,82.7,2.94z M56.49,28.09l-0.28-0.13C56.84,27.83,56.67,27.95,56.49,28.09z"/>
		<path class="st6" d="M11.45,6.75c-0.09-0.08-0.11-0.17-0.13-0.26C11.2,6.57,11.2,6.66,11.45,6.75z"/>
		<path class="st6" d="M22.08,23.41l0.05,0.01c0.03-0.03,0.04-0.06,0.05-0.09L22.08,23.41z"/>
		<path class="st6" d="M60.67,7.03c-0.29-0.07-0.46-0.16-0.56-0.25C60.09,6.9,60.22,7,60.67,7.03z"/>
		<path class="st6" d="M90.23,2.12l-0.91,0.13c0.44-0.02,0.6,0.08,0.82,0.16C90.12,2.29,89.95,2.13,90.23,2.12z"/>
		<path class="st6" d="M98.14,5.1c0.13-0.06,0.28-0.01,0.41-0.07l-0.04-0.22C97.95,4.83,97.55,5.01,98.14,5.1z"/>
		<path class="st6" d="M91.08,3.72c0.07,0.41,0.64,0.27,1.28,0.19c-0.04,0-0.07,0-0.11,0C92.43,3.35,91.75,3.53,91.08,3.72z"/>
		<path class="st6" d="M92.51,3.9c0.2-0.02,0.4-0.03,0.59-0.01C93.17,3.66,92.86,3.84,92.51,3.9z"/>
		<path class="st6" d="M84.5,2.67c0.3,0.1,0.19-0.52,0.36-0.35C85.2,1.8,82.85,2.94,84.5,2.67z"/>
		<polygon class="st6" points="91.59,5.06 91.37,4.56 91.01,4.96 		"/>
		<path class="st6" d="M86.56,4.69l1.02,0.14c-0.02-0.08,0.11-0.13,0.27-0.17C87.22,4.64,86.53,4.54,86.56,4.69z"/>
		<path class="st6" d="M87.85,4.66c0.33,0.01,0.64,0,0.82-0.08C88.49,4.58,88.11,4.6,87.85,4.66z"/>
		<polygon class="st6" points="90.2,5.21 89.9,5.1 89.18,5.07 		"/>
		<path class="st6" d="M75.6,4.59l-1.11,0.14c-0.11,0.17,0.19,0.28,0.6,0.21C75.35,4.83,75.77,4.76,75.6,4.59z"/>
		<path class="st6" d="M78.96,5.97c-0.3-0.1-0.32-0.22-0.49-0.38l-0.03,0.62L78.96,5.97z"/>
		<path class="st6" d="M75.72,6.11c-0.11,0.17-1.61,0.49-0.2,0.46C75.62,6.4,76.74,6.25,75.72,6.11z"/>
		<polygon class="st6" points="58.95,5.33 59.23,5.32 59.19,4.3 		"/>
		<path class="st6" d="M44.17,7.76c1.32,0.24,0.31-0.63,1.5-0.32c0.31-0.24-0.97-0.25-0.66-0.46C44.23,7.24,43.81,7.09,44.17,7.76z"
			/>
		<path class="st6" d="M45.02,6.98c0.13-0.04,0.26-0.09,0.41-0.15C45.2,6.89,45.09,6.94,45.02,6.98z"/>
		<polygon class="st6" points="108.26,28.61 109.11,28.82 108.56,28.48 		"/>
		<path class="st6" d="M109.89,27.85l0.2,0.65l0.51-0.59C110.41,27.94,110.04,28,109.89,27.85z"/>
		<path class="st6" d="M7.29,16.4l-0.16-0.06c-0.17,0.13-0.18,0.33-0.21,0.73L7.29,16.4z"/>
		<path class="st6" d="M7.18,23.15l-0.04-0.01c-0.09,0.2-0.16,0.39-0.22,0.59C7.01,23.53,7.09,23.34,7.18,23.15z"/>
		<path class="st6" d="M15.18,22.4c-0.39-0.02-0.86,0.11-1.25,0.08C14.78,22.38,15.28,23.13,15.18,22.4z"/>
	</g>
</g>
</svg>
