<?xml version="1.0" encoding="utf-8"?>
<!-- Generator: Adobe Illustrator 27.1.1, SVG Export Plug-In . SVG Version: 6.00 Build 0)  -->
<svg version="1.1" id="Layer_1" xmlns="http://www.w3.org/2000/svg" xmlns:xlink="http://www.w3.org/1999/xlink" x="0px" y="0px"
	 viewBox="0 0 23.57 22.65" style="enable-background:new 0 0 23.57 22.65;" xml:space="preserve">
<style type="text/css">
	.st0{fill:#FFD400;}
	.st1{fill:#010101;}
	.st2{fill:#FFFFFF;}
	.st3{fill:none;}
	.st4{fill:#FED519;}
	.st5{fill:#FDFEFE;}
	.st6{fill:#FED419;}
</style>
<g id="PvLfmm.tif">
	<g>
		<g>
			<g>
				<path d="M15.22,21.85c-0.61-1.31-1.17-2.51-1.73-3.71c-0.77-1.66-1.56-3.33-2.32-5c-0.11-0.25-0.29-0.36-0.51-0.46
					C7.95,11.42,5.22,10.16,2.5,8.9C2.38,8.85,2.26,8.79,2.03,8.68C8.66,6.47,15.2,4.3,21.82,2.1C19.61,8.7,17.44,15.22,15.22,21.85
					z"/>
				<g>
					<path d="M15.9,22c-0.04,0.08,0.08,0.09,0.1,0.11C16.02,21.96,15.87,21.99,15.9,22z"/>
					<polygon points="16.12,20.49 16.16,20.53 16.11,20.29 					"/>
					<path d="M16.56,19.16c-0.23,0.06-0.13,0.49-0.28,0.71l-0.06,0.02l0.12,0.16C16.42,19.76,16.44,19.35,16.56,19.16z"/>
					<path d="M17.22,18.59c-0.09,0.02-0.01-0.17-0.08,0.16c0.01-0.01,0.02-0.02,0.03-0.02C17.17,18.7,17.19,18.66,17.22,18.59z"/>
					<path d="M17.17,18.73C17.13,18.87,17.26,18.66,17.17,18.73L17.17,18.73z"/>
					<path d="M17.34,18.07l0.01,0.21c0.06-0.02,0.12-0.18,0.13-0.11C17.51,17.96,17.45,17.98,17.34,18.07z"/>
					<path d="M17.26,17.85l0,0.11C17.28,17.94,17.29,17.92,17.26,17.85z"/>
					<path d="M17.25,18.17l0.01-0.22c-0.04,0.02-0.1,0-0.01,0.1C17.19,18.02,17.23,18.07,17.25,18.17z"/>
					<path d="M17.18,18.28c-0.08,0.09-0.15,0.21-0.15,0.01C16.94,18.65,17.09,18.64,17.18,18.28z"/>
					<path d="M16.39,19.03l-0.1,0.12l0.02,0.14C16.3,19.22,16.45,19.04,16.39,19.03z"/>
					<path d="M17.82,16.95c-0.04-0.03-0.13,0.03-0.19,0.02l0,0.15C17.69,17.06,17.76,16.94,17.82,16.95z"/>
					<path d="M17.64,16.97l0-0.23C17.57,16.93,17.59,16.97,17.64,16.97z"/>
					<polygon points="17.06,17.74 17.09,18.13 17.08,17.68 					"/>
					<polygon points="18.09,16.17 18.14,16.32 18.07,16.07 					"/>
					<path d="M18.24,15.65c0.05,0.11,0.17-0.07,0.19,0.03c0.03-0.14,0.01-0.29-0.02-0.42C18.41,15.4,18.36,15.52,18.24,15.65z"/>
					<path d="M18.39,15.06c0,0.06,0.01,0.13,0.03,0.21C18.42,15.2,18.41,15.14,18.39,15.06z"/>
					<path d="M17.77,16.41c0.03-0.01,0.1-0.02,0.17-0.12l-0.14,0.04C17.79,16.35,17.78,16.38,17.77,16.41z"/>
					<path d="M17.79,16.33L17.79,16.33c0.04-0.09,0.06-0.15,0.07-0.17C17.86,16.18,17.83,16.23,17.79,16.33z"/>
					<path d="M17.76,16.43l0.01-0.02C17.76,16.41,17.75,16.41,17.76,16.43z"/>
					<path d="M17.34,17.24c-0.02-0.14-0.01-0.41-0.19-0.21C17.2,17.15,17.3,17.03,17.34,17.24z"/>
					<path d="M17.59,16.48l-0.1,0.21c0.03,0.01,0.09-0.02,0.1,0.05L17.59,16.48z"/>
					<polygon points="17.59,16.36 17.59,16.48 17.62,16.4 					"/>
					<path d="M18.16,15.4c-0.02-0.11,0.01-0.21,0.04-0.33c-0.06,0.12-0.12,0.24-0.16,0.36C18.07,15.45,18.12,15.53,18.16,15.4z"/>
					<path d="M17.97,15.85l0-0.02C17.96,15.83,17.95,15.84,17.97,15.85z"/>
					<polygon points="18.58,13.93 18.55,13.94 18.57,13.95 					"/>
					<path d="M18.01,15.44c-0.05,0.09-0.04,0.15-0.03,0.22c0.01-0.07,0.03-0.15,0.05-0.23C18.02,15.41,18.01,15.41,18.01,15.44z"/>
					<path d="M18.44,14.73c-0.04,0.04-0.08,0.09-0.12,0.14C18.38,14.83,18.46,14.75,18.44,14.73z"/>
					<path d="M18.01,15.8c0,0.01,0,0.02,0,0.02C18.05,15.8,18.04,15.79,18.01,15.8z"/>
					<path d="M18.01,15.8c0-0.05-0.02-0.1-0.03-0.15c-0.01,0.06-0.02,0.12-0.01,0.17C17.98,15.81,18,15.81,18.01,15.8z"/>
					<path d="M17.96,13.34c0.1,0.05,0.12,0.33-0.07,0.5c0.01,0.23,0.41,0.22,0.66,0.1c-0.04-0.02-0.09-0.04-0.08-0.27
						c-0.08,0.06-0.29,0.43-0.33,0.22c0.04-0.3,0.12-0.22,0.22-0.34c-0.17,0.07-0.07-0.43-0.29-0.43l-0.01,0.27
						C18.03,13.38,18.01,13.28,17.96,13.34z"/>
					<path d="M18.4,14.34l-0.02,0.09c0.05-0.09,0.12-0.15,0.25-0.26c0-0.16-0.03-0.21-0.06-0.23l-0.16,0.43L18.4,14.34z"/>
					<path d="M18.26,14.83c-0.09-0.11-0.07-0.34-0.24-0.25c-0.08,0.26,0.04,0.21,0.03,0.38c0.11-0.43,0.02,0.14,0.19-0.14
						c-0.01,0.09-0.03,0.16-0.04,0.24c0.04-0.07,0.08-0.14,0.12-0.2l-0.01,0.01l0,0l0,0c-0.02,0.01-0.03,0.02-0.02,0l0-0.01
						C18.28,14.86,18.27,14.84,18.26,14.83c0.06-0.11,0.04-0.01,0.04,0.03l0.02,0.01l0,0l0.08-0.44
						C18.34,14.52,18.31,14.63,18.26,14.83z"/>
					<path d="M16.98,16.73c0.01-0.01,0.02-0.01,0.03,0C17,16.69,17,16.68,16.98,16.73z"/>
					<path d="M17.1,16.58c0.01,0.04,0.04,0.08,0,0.17c-0.06,0.07-0.06-0.02-0.09-0.03c0.01,0.07,0.01,0.24,0.13,0.07l-0.01-0.03
						c0.1-0.15,0.31-0.32,0.32-0.29C17.33,16.49,17.24,16.5,17.1,16.58z"/>
					<path d="M17.65,15.68l0.06-0.37l-0.16,0.14l0.06,0.01C17.53,15.66,17.62,15.64,17.65,15.68z"/>
					<polygon points="18.65,13.91 18.76,13.99 18.65,13.73 					"/>
					<polygon points="18.79,13.45 18.89,13.5 18.86,13.36 					"/>
					<path d="M7.64,7.52L7.55,7.59C7.6,7.56,7.63,7.54,7.64,7.52z"/>
					<path d="M8.39,7.28l0-0.06C8.36,7.26,8.36,7.29,8.39,7.28z"/>
					<path d="M22.93,1.02l0.04-0.06c-0.07-0.09-0.16-0.2-0.29-0.04l-0.09,0.16c0.18-0.08,0.3-0.11,0.36-0.11L22.93,1.02z"/>
					<path d="M14.25,4.65l0.06,0.02c0.02-0.05,0.04-0.1,0.06-0.15C14.33,4.56,14.29,4.6,14.25,4.65z"/>
					<path d="M14.3,5.17l-0.22-0.01C14.13,5.17,14.21,5.17,14.3,5.17z"/>
					<path d="M4.56,8.68c0.05,0.03,0.11,0.05,0.16,0.08C4.75,8.75,4.65,8.72,4.56,8.68z"/>
					<path d="M20.29,8.81c0.09-0.11,0.14-0.21,0.18-0.3C20.35,8.64,20.21,8.73,20.29,8.81z"/>
					<path d="M7.52,6.19c-0.06,0.04-0.07,0.07-0.06,0.1C7.52,6.24,7.55,6.21,7.52,6.19z"/>
					<path d="M20.59,8.14c-0.02,0.02-0.03,0.04-0.05,0.06c-0.01,0.1-0.03,0.2-0.07,0.31C20.56,8.41,20.63,8.29,20.59,8.14z"/>
					<path d="M13.41,16.29c0,0.01,0,0.02,0,0.04C13.43,16.32,13.42,16.31,13.41,16.29z"/>
					<path d="M14.18,20.89c-0.03-0.04-0.06-0.1-0.09-0.16C14.1,20.76,14.12,20.81,14.18,20.89z"/>
					<path d="M19.44,11.65C19.42,11.75,19.45,11.67,19.44,11.65L19.44,11.65z"/>
					<path d="M18.83,11.96c-0.01-0.02-0.02-0.05-0.04-0.06C18.81,11.92,18.82,11.94,18.83,11.96z"/>
					<path d="M20.18,6.94L20.18,6.94C20.15,6.95,20.16,6.95,20.18,6.94z"/>
					<path d="M19.34,11.77c0.03-0.03,0.05-0.07,0.08-0.11C19.4,11.68,19.38,11.71,19.34,11.77z"/>
					<path d="M19.4,11.77c-0.02,0.03-0.03,0.06-0.04,0.08C19.38,11.87,19.4,11.87,19.4,11.77z"/>
					<path d="M19.48,11.51c-0.02,0.06-0.04,0.1-0.06,0.15c0.01-0.02,0.02-0.02,0.03-0.02C19.45,11.62,19.46,11.58,19.48,11.51z"/>
					<path d="M7.39,10.75c0,0.01,0.01,0.01,0.01,0.02C7.52,10.77,7.48,10.76,7.39,10.75z"/>
					<polygon points="19.53,3.46 19.54,3.45 19.52,3.46 					"/>
					<path d="M19.21,3.67c0.1-0.19,0.19-0.2,0.31-0.21l-0.23-0.3L19.21,3.67z"/>
					<path d="M5.88,8.14l0.28,0.02C5.93,8.44,5.69,8.45,5.97,8.52C5.88,8.14,6.9,8.17,6.81,7.79L7,7.82
						C6.95,7.83,6.95,7.85,6.9,7.87c0.37,0.07,0.14-0.34,0.56-0.42c0.15-0.02,0.26,0,0.18,0.08l0.28-0.19
						c0.09-0.02,0.09,0.05,0,0.07l0.46-0.19l0,0.01C8.44,7.14,8.56,7,8.62,6.94c0.14,0.01-0.05,0.06,0,0.09l0.23-0.18
						C8.99,6.92,8.8,7.08,8.62,7.13C8.99,7.41,8.81,6.97,9.41,7L9.17,7.13c0.23,0.15,0.4,0.01,0.72,0.05
						C9.8,7.14,9.22,7.04,9.48,6.86c0.09,0,0.2-0.02,0.33-0.15c0.04,0.13,0.18,0.05,0.37-0.02l0.04,0.18
						c0.19-0.12,0.14-0.2,0.23-0.32c0.23-0.06,0.32,0.06,0.41,0.15c0.37-0.09-0.32-0.13,0.1-0.31c0.32-0.03,0.51-0.17,0.84-0.4
						c0.23-0.01,0,0.12,0.09,0.14l0.14-0.2c0.05-0.01,0.05,0.04,0.05,0.06c0.14-0.11-0.04-0.18,0.19-0.31c0-0.21,0.6,0.11,0.83-0.21
						c0.09,0.02,0,0.12,0.04,0.18c0.37-0.28,0.33-0.22,0.61-0.53l0.33,0.02c-0.26-0.06-0.03-0.3,0.17-0.51
						c-0.1-0.04-0.18-0.07-0.23-0.08l0.35-0.22c0.06,0.01,0.04,0.08,0,0.18l0.06-0.06c0.16,0.02,0.12,0.14,0.05,0.27
						c-0.06-0.02-0.12-0.04-0.17-0.06c-0.06,0.14-0.11,0.28-0.06,0.38c0.02-0.03,0.06-0.06,0.11-0.09
						c-0.02,0.04-0.02,0.07-0.01,0.08c0.02,0.01,0.05-0.04,0.1-0.1L14.6,5.1l0-0.08l0.54-0.05c0.3-0.31,0.52-0.7,1.06-0.97
						c-0.1,0.19,0.05,0.24,0.09,0.41c-0.21-0.12-0.42,0.22-0.73,0.29c0.16-0.03,0.15,0.06,0.12,0.1l0.48-0.34
						c0.03,0.14,0.15,0.06,0.3,0.08c-0.19-0.23,0.33-0.31,0.52-0.46c0.04,0.09,0.02,0.2-0.25,0.26c0.36,0.11,0.27-0.44,0.61-0.36
						c-0.06,0.02-0.1,0.02-0.11,0.08c0.12-0.13,0.51-0.19,0.45-0.08l-0.06,0.02c0.44-0.11,1.3-0.43,1.28-0.68
						c0.01,0.03,0.04,0.29,0.03,0.35l0.5-1.02c0,0.22,0.41,0.6,0.09,0.83c0.1,0,0.27-0.02,0.41-0.15c-0.02-0.02-0.25-0.23-0.15-0.29
						c0.25,0.16,0.18,0.07,0.36,0.22c-0.05-0.03,0.04-0.4,0.19-0.44c-0.03,0.06-0.08,0.37-0.12,0.41c0.09-0.14,0.22-0.3,0.4-0.47
						c-0.11,0.1-0.16,0.34-0.19,0.44c0.03-0.07,0.16-0.05,0.24-0.11c0-0.03-0.01-0.05-0.01-0.07C20.8,3,21.24,2.51,21.66,2.26
						c0.02,0.01,0.02,0.06-0.01,0.14c-0.08,0.03-0.59,0.5-0.69,0.67c0.11-0.08,0.38-0.26,0.59-0.3c0.22-0.05,0.38,0.06,0.36,0.31
						l-0.15,0.15l-0.02,0.38c-0.09-0.12-0.23-0.3-0.4-0.37c-0.17-0.08-0.37-0.05-0.49-0.01c-0.13,0.16-0.16,0.14-0.19,0.23
						c-0.13,0.1-0.16,0.06-0.16,0.05l-0.12,0.19c0.24-0.11,0.17,0.09,0.34,0.08C20.7,3.68,20.66,3.6,20.6,3.57
						c0.12-0.07,0.28-0.12,0.38-0.06c0.1,0.05,0.12,0.22,0.05,0.4c-0.1,0.07-0.33-0.09-0.4-0.07c0.06,0.02,0.06,0.22-0.01,0.29
						c-0.01-0.07-0.02-0.15-0.05-0.17c-0.12,0.14,0.12,0.45-0.14,0.65c-0.04,0.09-0.33,0.22-0.23,0.27
						c0.26-0.09,0.91,0.09,1.03,0.25c-0.03,0.03-0.37,0.45-0.51,0.53c-0.22,0.11-0.3-0.37-0.49-0.28c0.05,0.02,0.08,0.13,0.09,0.18
						c-0.08,0.09-0.14-0.09-0.19,0.14c0.17,0.1-0.17,0.45,0.12,0.16c-0.02,0.24-0.12,0.22-0.19,0.48c0.15-0.04,0.33,0.37,0.3,0.6
						c-0.04-0.03-0.12,0-0.16,0.02c-0.17,0.44-0.33,0.66-0.47,1.08c-0.06,0.02-0.18,0.21-0.23,0.1c0.01,0.07,0.06,0.15,0.02,0.28
						c-0.24,0.2,0.07-0.3-0.18-0.17c0.1,0.05,0.04,0.38,0.04,0.59c0.18,0,0.17-0.41,0.17-0.62c0.23,0.07,0.36,0.48,0.32,0.95
						c-0.06,0.37-0.2,0.1-0.18,0.17c-0.26,0.64,0.21,0.69-0.14,1.18c-0.22,0.17-0.29-0.09-0.41-0.07c0.04-0.3,0.24-0.4,0.3-0.6
						l-0.15,0.21c-0.02-0.11,0.01-0.31,0.09-0.4c-0.19,0.14-0.39,1.1-0.68,1.56c0.02,0.11,0.02,0.28,0.1,0.22l0.03-0.17
						c0.17-0.11,0.06,0.35,0.18,0.17c0.01,0.24,0.06,0.52-0.11,0.8l-0.18,0c0.05,0.01,0.16-0.16,0.14-0.27
						c0.03,0.15-0.38,0.39-0.21,0.6l0.18-0.17c0.01,0.24,0.1,0.57-0.04,0.82c0.2-0.07,0-0.07,0.26-0.19
						c-0.29,0.09,0.24-0.68-0.1-0.5c0.29-0.12,0.21-0.31,0.48-0.5c-0.06-0.01-0.13,0.06-0.03-0.16c-0.01-0.02-0.02-0.05-0.03-0.07
						l0.01-0.01l-0.01,0.01c0-0.01-0.01-0.01,0,0c-0.04,0.05-0.08,0.08-0.12,0.09c-0.09-0.15,0.04-0.51,0.01-0.65
						c0.07-0.12,0.04,0.08,0.13,0.02l-0.04-0.21c0.13,0.02,0.32-0.29,0.28,0.05l0.1-0.28c0.12-0.14,0.23-0.36,0.22-0.52
						c0.07-0.12-0.02-0.38,0.03-0.23l0.07-0.47l0.03,0.01c0.16-0.43,0.1-0.97,0.49-1.39c0.02-0.16,0.03-0.32,0.15-0.56l0.12-0.01
						c0.03-0.2,0.29-0.53,0.21-0.65c0.35-0.11,0.37-0.9,0.53-1.21l-0.13-0.06c0.08-0.23,0.12-0.46,0.16-0.76l-0.13-0.02
						c-0.01-0.14,0.07-0.29,0.16-0.45l0.07-0.13l0.1-0.21c0.06-0.14,0.12-0.3,0.17-0.45c0.04,0.04-0.03,0.2-0.09,0.3
						c0.27-0.36,0.36-0.8,0.41-1.14c0.05-0.36,0.06-0.61,0.32-1.06c-0.01-0.11,0.05-0.24,0.14-0.4c0,0.01-0.01,0.03,0,0.03
						c0.01-0.02,0.02-0.04,0.03-0.07c0.06-0.11,0.13-0.23,0.18-0.34c-0.07,0.12-0.13,0.22-0.17,0.3c0.01-0.05,0.03-0.12,0.05-0.21
						c-0.1,0.04-0.21,0.09-0.33,0.15l0.11-0.18c-0.02,0.01-0.03,0.01-0.05,0.02C22.4,1.1,22.3,1.25,22.26,1.37
						c-0.12,0.06-0.24,0.13-0.34,0.2c0.09-0.26-0.52,0.25-0.51,0c-0.21,0.19-0.99,0.42-1.1,0.71c0-0.03-0.04-0.03,0.04-0.06
						c-0.17,0.03-0.36,0.06-0.51,0.18c-0.03-0.05-0.07-0.1-0.11-0.15c-0.14,0.13-0.19,0.23-0.26,0.33c-0.21-0.04-0.3-0.08-0.17-0.26
						c-0.36,0.34-0.32,0.19-0.62,0.5l-0.02-0.11c-0.13,0.05-0.29,0.26-0.39,0.2c-0.36-0.11-1.44,0.45-2.24,0.51
						c0.25,0.27-0.39-0.03-0.34,0.23c-0.07-0.06-0.19-0.07-0.09-0.17c-0.35,0.2-0.61,0.07-0.8,0.36c-0.07-0.06,0.04-0.14-0.01-0.17
						c-0.03,0.03-0.1,0.1-0.15,0.07c-0.05-0.03,0.03-0.08,0.08-0.13c-0.38,0.14-0.35,0.38-0.3,0.61c-0.23-0.04-0.32,0.01-0.42,0.2
						c-0.09-0.05-0.23-0.08,0-0.19c-0.14,0.03-0.86,0.17-0.82,0.35c-0.06-0.03-0.19,0.05-0.22,0.08c-0.31,0.09-0.34,0.08-0.63,0.2
						l0.09,0c-0.05,0.25-0.23,0.13-0.46,0.23l0-0.02c-0.6,0.03-0.21,0.15-0.81,0.16l0.07,0.12c0.04,0.29-0.54,0-0.82,0.21l0.14,0.04
						C10.4,5.74,9.93,5.37,9.75,5.39C9.7,5.38,9.8,5.34,9.84,5.3c-0.51-0.01,0,0.19-0.33,0.34c-0.09-0.07,0-0.26-0.23-0.2
						C9.15,5.4,8.73,5.95,8.36,5.88c0.09,0.05,0.18,0.1,0.04,0.2c-0.23,0.1-0.74-0.05-0.88,0.24C7.49,6.32,7.47,6.3,7.46,6.29
						C7.3,6.4,6.9,6.58,6.82,6.74c-0.32-0.39-1.07,0.6-1.2,0.18L5.07,7.13l0-0.05C4.69,7.18,4.61,7.31,4.5,7.46
						C4.38,7.47,4.45,7.4,4.45,7.38C3.67,7.55,3.5,7.62,3.18,7.96L2.93,7.89C2.9,7.94,2.56,8,2.14,8.09
						c-0.42,0.1-0.95,0.24-1.13,0.39C0.98,8.48,0.93,8.47,0.95,8.44C0.89,8.48,0.8,8.52,0.69,8.56L0.6,8.59
						c0,0.01,0.05,0.03,0.07,0.04c0.05,0.03,0.09,0.05,0.14,0.08c0.16,0.11,0.34,0.23,0.5,0.33c0.33,0.22,0.74,0.43,1.27,0.4
						l0.67,0.17C2.7,9.32,3.62,9.54,3.49,9.39C3.7,9.46,3.84,9.73,3.55,9.62L3.54,9.59c-0.41,0.11,0.64,0.4,0.51,0.54
						c0.38,0.17,0.53,0.25,0.78,0.38l0.67,0.36c0.44,0.24,0.87,0.49,1.3,0.69l-0.01-0.23l0.3,0.15c0.06,0.08,0.04,0.2-0.17,0.09
						c0.07,0.16,0.41,0.08,0.43,0.04c0.39,0.27-0.27,0.14-0.14,0.21l0.18,0.07l-0.03-0.04c0.18-0.01,0.23-0.09,0.49,0.04
						c0.15,0.11,0.03,0.16,0.09,0.19c-0.01,0.01,0.01,0.03,0.1,0.05l0.38,0.19L8.32,12.1c0.2,0.01,0.36,0.17,0.26-0.08
						c0.14,0.38,1.39,0.76,1.52,0.91c0.14,0,0.28,0.03,0.41,0.08c0.1,0.03,0.18,0.08,0.25,0.16c-0.02-0.05,0.09-0.24,0.22-0.04
						c-0.15,0.07-0.16,0.15-0.15,0.24c0.02,0.14,0.15,0.4,0.05,0.58c0.08-0.26,0.37,0.7,0.47,0.31c0.07,0.22-0.12,0.07-0.13,0.27
						c0.37,0.44,0.42,1.14,0.76,1.74c0.05-0.01,0.07-0.15,0.2-0.05l-0.08,0.43c0.08,0.11,0.31-0.01,0.26,0.29
						c0.02-0.05,0.06-0.12,0.11-0.05c0.34,1.32,1.33,2.39,1.49,3.81c0.01-0.21,0.07-0.1,0.13,0.03c-0.02-0.09,0.11-0.05,0.17-0.09
						l0.07,0.59c0.21,0.01,0.27,0.55,0.46,0.52l-0.11-0.15c0.29,0.13,0.29-0.5,0.55-0.58c-0.33-0.14,0.03-0.79-0.47-1.04
						c0.01-0.11,0.11,0.04,0.15-0.04c-0.15-0.05-0.23-0.16-0.29-0.41l0.04,0.01c-0.32-0.62-0.34-0.94-0.61-1.69l-0.1,0.11
						c-0.05-0.16-0.03-0.21-0.03-0.3c-0.27-0.09,0.19,0.43-0.09,0.37c0.15-0.32-0.5-1.08-0.28-1.35c-0.11-0.24-0.11,0.13-0.22-0.1
						l0.05-0.1l-0.13-0.01c-0.06-0.16,0-0.28,0.07-0.32c0.01,0.04,0.07,0.1,0.09,0.14c0-0.24-0.29-0.55-0.29-0.63l0.06,0.25
						c-0.37-0.61-0.63-1.44-1.08-1.99l-0.04,0.07c-0.33-0.43-0.11-0.41-0.4-0.91l0.02,0.01c-0.03-0.03-0.06-0.04-0.1-0.1
						c-0.08-0.1-0.16-0.22-0.26-0.33c0.21,0.1-0.19-0.37,0.07-0.24c-0.38-0.23-0.52-0.21-0.56-0.2c-0.06,0.02-0.1,0.05-0.32,0.08
						l-0.03-0.13c-0.16,0.03-0.19,0.07-0.46-0.02c0.25,0.02-0.1-0.22,0.19-0.22c-0.45-0.46-0.91-0.16-1.02-0.59
						c-0.37,0.15,0.41,0.37,0.24,0.36c0.08,0.14-0.3,0.1-0.46,0c-0.17-0.09-0.14-0.48-0.58-0.67c0.04,0.02,0.06,0,0.1,0.02
						c-0.13-0.14-0.36-0.06-0.52-0.26c-0.19,0.11-0.26-0.13-0.38,0.06l0.42,0.14c-0.25-0.05-0.58,0.09-0.9-0.2
						c0.05-0.03,0.19-0.03,0.28-0.02c-0.08-0.11-0.23-0.06-0.32-0.17c0.13-0.19,0.51,0.18,0.83,0.14c-0.08-0.14-0.53-0.07-0.31-0.23
						c-0.31,0.2-0.42-0.24-0.81-0.16l0.08-0.11c-0.06,0-0.18,0.01-0.27-0.03l0.23-0.09c-0.3,0.02-0.41-0.33-0.67-0.37
						c0.49,0.22,0.04,0.2,0.2,0.38C5.68,10,6.16,9.64,5.47,9.39c0.1,0.02,0.31,0.23,0.14,0.22C5.49,9.53,5.34,9.4,5.29,9.3
						C4.84,9.12,5.3,9.46,5.08,9.45C5.02,9.24,4.79,9.39,4.66,9.39l0.07-0.12C4.58,9.1,4.47,9.46,4.28,9.26
						c0.11-0.02,0.2-0.05,0.28-0.08L4.41,9.16L4.6,9.08C4.38,9.1,4.35,9.06,4.33,9c-0.13,0.05-0.4,0.09-0.56,0.02
						c0.06-0.06,0.28-0.01,0.08-0.08c0.22,0.01,0.43-0.01,0.26,0.05l0.26-0.02C4.49,8.91,4.3,8.9,4.25,8.88c0,0.01,0,0.02-0.03,0.02
						C4.04,8.89,3.84,8.86,3.6,8.82c0.09-0.01,0.23,0,0.35,0.01C3.88,8.82,3.68,8.8,3.6,8.77c0.3,0.02,0.62,0.04,0.79,0.07L4.18,8.8
						C4.15,8.79,4.12,8.78,4.09,8.77C4.23,8.77,4.47,8.78,4.55,8.8c0.1,0-0.01-0.02-0.06-0.06C4.43,8.71,4.42,8.66,4.53,8.67
						C4.5,8.65,4.48,8.64,4.49,8.62c0.17-0.03,0.31,0.07,0.33-0.1C4.89,8.57,4.88,8.64,5,8.67c0.28-0.14-0.37-0.14,0.1-0.38
						c0.33-0.18,0.18,0.12,0.32,0.13c0.14-0.15,0.37-0.45,0.74-0.4C6.07,8.1,5.98,8.1,5.88,8.14z M9.47,6.86
						C9.41,6.91,9.3,7.04,9.22,6.98C9.25,6.8,9.34,6.86,9.47,6.86z M14.86,4.72c-0.04,0.06-0.13,0.07-0.23,0.05
						C14.69,4.73,14.77,4.71,14.86,4.72z M19.69,10.56L19.69,10.56C19.79,10.41,19.75,10.46,19.69,10.56z M19.53,10.87
						c0.01,0.04,0.03,0.04,0.05,0.03c-0.03-0.03,0-0.11,0.03-0.19C19.57,10.73,19.53,10.76,19.53,10.87z M7.99,12.04l-0.05-0.06
						C8.1,12.01,8.04,12.02,7.99,12.04z"/>
					<path d="M14.3,5.1c-0.03-0.02-0.04-0.04-0.05-0.06C14.22,5.07,14.23,5.1,14.3,5.1z"/>
					<polygon points="4.53,8.67 4.53,8.67 4.56,8.68 					"/>
					<path d="M20.1,5.48c0.04-0.06,0.08-0.09,0.11-0.11C20.18,5.36,20.15,5.38,20.1,5.48z"/>
					<path d="M19.17,12.66l0.04-0.22c-0.03,0.1-0.07,0.13-0.1,0.17C19.13,12.62,19.19,12.59,19.17,12.66z"/>
					<path d="M17.77,14.19c0.01,0.04-0.02,0.06-0.01,0.1l0.06,0.01C17.86,14.18,17.84,14.07,17.77,14.19z"/>
					<path d="M18.68,12.71c-0.11-0.02-0.12,0.12-0.15,0.27l0.01-0.03C18.67,13.05,18.68,12.88,18.68,12.71z"/>
					<path d="M18.52,13.02c-0.01,0.05-0.02,0.09-0.04,0.14C18.53,13.19,18.51,13.1,18.52,13.02z"/>
					<path d="M19.46,11.3c-0.05,0.06,0.12,0.09,0.07,0.11C19.64,11.54,19.51,10.9,19.46,11.3z"/>
					<polygon points="18.28,12.71 18.43,12.7 18.35,12.58 					"/>
					<path d="M18.76,11.59l-0.11,0.22c0.02,0,0.03,0.04,0.03,0.08C18.72,11.75,18.8,11.6,18.76,11.59z"/>
					<path d="M18.67,11.89c-0.03,0.07-0.05,0.15-0.04,0.19C18.64,12.04,18.67,11.95,18.67,11.89z"/>
					<polygon points="18.34,12.37 18.39,12.31 18.46,12.15 					"/>
					<path d="M19.62,9.1l0.05-0.27c-0.04-0.04-0.09,0.02-0.1,0.12C19.58,9.02,19.56,9.12,19.62,9.1z"/>
					<path d="M19,9.74c0.05-0.06,0.08-0.05,0.14-0.08L18.97,9.6L19,9.74z"/>
					<path d="M19.2,8.99c-0.04-0.04-0.01-0.41-0.11-0.09C19.13,8.94,19.09,9.21,19.2,8.99z"/>
					<polygon points="20.69,5.24 20.67,5.3 20.95,5.39 					"/>
					<path d="M20.55,3.33c-0.01,0.06,0.14-0.11,0.22-0.18c0.02-0.02,0.02-0.01-0.03,0.06c0.07-0.05,0.11-0.12,0.16-0.19
						c0.01-0.01,0.02-0.03,0.06-0.06C20.75,3.11,20.78,3.05,20.55,3.33z"/>
					<path d="M20.95,2.96l0.02-0.01c0.01-0.01,0.03-0.01,0.05-0.02c-0.02,0-0.03,0.01-0.05,0.02C20.96,2.96,20.96,2.96,20.95,2.96z"
						/>
					<polygon points="14.35,21.63 14.39,21.84 14.42,21.68 					"/>
					<path d="M14.71,21.9l-0.15,0.12l0.2,0.04C14.74,22.02,14.69,21.95,14.71,21.9z"/>
					<path d="M10.12,7.03l0-0.05c-0.05-0.04-0.09-0.02-0.18,0L10.12,7.03z"/>
					<polygon points="7.46,7.77 7.5,7.76 7.37,7.63 					"/>
					<path d="M5.32,8.71C5.41,8.68,5.51,8.61,5.6,8.59C5.41,8.68,5.23,8.52,5.32,8.71z"/>
				</g>
			</g>
		</g>
	</g>
</g>
</svg>
