<?xml version="1.0" encoding="utf-8"?>
<!-- Generator: Adobe Illustrator 27.1.1, SVG Export Plug-In . SVG Version: 6.00 Build 0)  -->
<svg version="1.1" id="Layer_1" xmlns="http://www.w3.org/2000/svg" xmlns:xlink="http://www.w3.org/1999/xlink" x="0px" y="0px"
	 viewBox="0 0 36.23 33.41" style="enable-background:new 0 0 36.23 33.41;" xml:space="preserve">
<style type="text/css">
	.st0{fill:#FFFFFF;}
	.st1{fill:#5C5AA7;}
	.st2{opacity:0.4;}
	.st3{fill:none;}
	.st4{fill:#07090A;stroke:#FFFFFF;stroke-width:0.5387;stroke-miterlimit:10;}
	.st5{fill:none;stroke:#FFFFFF;stroke-width:1.5269;stroke-miterlimit:10;}
	.st6{fill:#5C5AA7;stroke:#FFFFFF;stroke-width:0.5669;stroke-miterlimit:10;}
	.st7{fill:#FFD400;}
	.st8{fill:#010101;}
	.st9{fill:#FED519;}
	.st10{fill:#FDFEFE;}
	.st11{fill:#FED419;}
	.st12{fill:#FDD416;}
</style>
<g>
	<g>
		<g>
			<circle class="st0" cx="18.39" cy="16.35" r="16.36"/>
			<g>
				<path class="st0" d="M33.26,25.4C33.3,25.36,33.3,25.34,33.26,25.4L33.26,25.4z"/>
				<path class="st0" d="M2.74,25.6c-0.01-0.01-0.01-0.02-0.02-0.03c-0.05,0-0.1,0-0.13-0.01L2.74,25.6z"/>
				<path class="st0" d="M0.68,19.99c0-0.02,0-0.02,0-0.04C0.66,19.96,0.63,19.96,0.68,19.99z"/>
				<path class="st0" d="M13.76,32.91c0.05,0.01,0.08,0.01,0.1,0.01C13.82,32.91,13.79,32.91,13.76,32.91z"/>
				<path class="st0" d="M35.95,15.28c0,0,0,0.01,0.01,0.03c0.01-0.02,0.01-0.04,0.02-0.06L35.95,15.28z"/>
				<path class="st0" d="M36.03,15.39c-0.02,0.13-0.06-0.03-0.07-0.09c-0.04,0.14-0.04,0.29,0,0.43
					C36.02,15.73,35.99,15.46,36.03,15.39z"/>
				<path class="st0" d="M24.92,1.23l0.05,0.02C24.96,1.24,24.94,1.23,24.92,1.23z"/>
				<path class="st0" d="M13.79,30.95c0.03,0.01,0.05,0.01,0.07,0.02C13.83,30.95,13.81,30.95,13.79,30.95z"/>
				<path class="st0" d="M27.49,2.5l0.04,0C27.5,2.5,27.49,2.5,27.49,2.5z"/>
				<path class="st0" d="M2.59,25.56l-0.06-0.02C2.55,25.55,2.57,25.56,2.59,25.56z"/>
				<path class="st0" d="M0.42,14.47c0.04,0,0.07-0.01,0.09-0.02c0-0.01,0-0.02,0-0.02L0.42,14.47z"/>
				<path class="st0" d="M19.66,0.06c0,0-0.01,0-0.01-0.01l-0.1,0.01C19.58,0.06,19.61,0.06,19.66,0.06z"/>
				<path class="st0" d="M3.24,7.59C3.23,7.58,3.23,7.56,3.22,7.55C3.13,7.64,2.93,7.92,2.73,8.29l0.11,0.09
					C2.96,8.11,3.11,7.86,3.24,7.59z"/>
				<path class="st12" d="M10.16,3.97C9.94,4.05,9.74,4.16,9.54,4.26c0.78-0.77,1.45-1.22,2.11-1.62c0.65-0.43,1.3-0.76,2.16-1.21
					l-0.09,0.06c0.13-0.04,0.22-0.14,0.65-0.32c0.43-0.19,1.22-0.46,2.78-0.64l0,0.01c0.11-0.02,0.11-0.03,0.32-0.05l-0.54,0.05
					c0.32-0.07,0.6-0.14,1.04-0.2c0.09-0.01,0.12,0.01,0.13,0.01l1.08-0.04l0.33,0.02c0.33-0.01,0.18-0.06,1.06,0.05
					c-0.33-0.07,0.44,0.02,0.33,0c0.06,0.01,0.14,0.02,0.22,0.04c0.52,0.08,1.49,0.31,1.74,0.35c0,0-2-0.53-2.57-0.57
					c0.74,0.1,0.2,0.02,0.05-0.01l-0.05,0c-0.44-0.06-0.44-0.09-0.66-0.12c0,0,0.01,0,0.01,0.01l0.03,0
					c0.02,0.01,0.01,0.01-0.02,0.01c0.01,0.01-0.02,0-0.14,0l0.02,0c-0.22-0.01-0.5-0.01-0.65-0.02l0-0.02
					c-0.33,0-2.24-0.04-2.69,0.02c-0.45,0.02-1,0.15-1.56,0.24c-0.88,0.2-0.46,0.03-0.92,0.09c-0.57,0.09,0.13,0.04-0.09,0.09
					c-0.23,0.02-0.46,0.05-0.69,0.1c0.38-0.13,0.16-0.1,0.08-0.1c-0.56,0.18-1.54,0.3-1.64,0.55c-0.78,0.25-0.82,0.18-1.15,0.31
					c0.12-0.02,0.35-0.08,0.37-0.05c-0.34,0.06-0.14,0.08,0,0.04c-0.42,0.23-2.5,0.9-2.45,1.17L8.13,2.44
					c0.01,0.2,0.26,0.23,0.03,0.51L7.92,3.02L7.69,3.28C7.46,3.37,7.52,3.27,7.51,3.25C7.13,3.68,6.44,4.1,5.93,4.58
					c0.3-0.06,0.61-0.09,0.91-0.12c-0.52,0.27-1.39,0.9-1.34,1.1L5.12,5.69C4.11,6.4,4.76,6.44,4.39,6.74
					C4.21,6.86,4.03,6.97,3.87,7.1c0.1-0.17,0.22-0.33,0.34-0.48c-0.46,0.4-0.6,0.59-0.99,0.92l0,0.01
					c0.03-0.02,0.05-0.04,0.06-0.03L3.24,7.59C3.3,7.71,3.2,8.01,2.99,8.37C2.71,8.9,2.63,9.37,2.06,10.16l0.14,0.31l-0.37,0.63
					l-0.18-0.06c0.11-0.33,0.28-0.81,0.45-1.32c0.22-0.49,0.45-1.01,0.63-1.42L2.67,8.24c-0.24,0.49-0.43,1.08-0.6,1.4
					c-0.12,0.14-0.44,0.5-0.45,0.14l0.06,0.38c-0.29,0.86-0.46,1.29-0.57,1.75C1,12.37,0.76,12.81,0.55,13.75l0.12-0.15
					c0.01,0.39,0.01,0.77-0.15,0.85c-0.15,1.14-0.27,2.34-0.42,3.12l0.24,0.15c0.01,0.24-0.29,0.65,0.03,0.73
					c0.05,0.17,0.12,0.34,0.19,0.5c0.05,0.33,0.21,0.51,0.16,0.91h0l0,0c0,0.02-0.01,0.05-0.01,0.08c0.01,0,0.02-0.01,0.02-0.01
					c0.06,0.76,0.17-0.04,0.28,0.81c-0.07,0.3,0.35,0.22,0.42,0.63l-0.17,0.49c0.13,0.76,0.44,0.8,0.89,1.79
					c0.15,0.51,0.05,0.85-0.31,0.63c0.47,0.32,0.26,0.12,0.68,0.63c-0.05,0.14-0.1,0.09-0.25,0.01c0.16,0.57,0.27,0.26,0.49,0.63
					c0.24,0,0.59-0.04,0.68,0.07l-0.04-0.17c0.34,0.31,0.61,0.71,0.87,1.16l-0.09,0.04l0.38,0.4l-0.08,0.1
					c0.18,0.19,0.34,0.4,0.53,0.58l-0.05-0.1c0.14,0.12,0.59,0.53,0.79,0.82l-0.06,0.04c0.26,0.43,0.62,0.71,1.01,0.97
					c0.39,0.26,0.8,0.53,1.29,0.82l-0.2,0.02c0.25,0.31,0.2-0.09,0.55,0.21l-0.07,0.13c0.46,0.06,0.41,0.33,0.63,0.52l-0.01-0.22
					l0.45,0.28c0.49,0.32,0.2,0.36,0.08,0.4l0.43,0.06L9.8,31.86c0.35-0.03,0.24,0.17,0.77,0.26c0.01,0.07-0.12,0.05,0.03,0.13
					l0.87,0.11l-0.51-0.1l0.15-0.17c0.55,0.04,0.64,0.29,1.02,0.34c-0.09-0.01-0.18,0-0.27-0.02c0.6,0.13,0.6,0.21,0.92,0.34
					c-0.09-0.06-0.23-0.15,0.01-0.11c0.18,0.04,0.07,0.09,0.23,0.15c0.08-0.12,0.5-0.03,0.88,0.08c-0.01,0.02-0.02,0.03-0.05,0.03
					c0.1,0,0.16-0.02,0.33,0.04l-0.13,0.11l0.36-0.06c0.21,0.07,0.55,0.04,0.5,0.11l-0.13,0c0.55,0.13,1.11,0.15,1.67,0.2l0.01,0.09
					c0.18-0.09,0.91,0.09,0.87-0.06c0.31,0.07,1.24-0.07,1.06,0.07c0.55,0.01,0.97-0.12,1.42-0.17c0.45-0.05,0.92-0.15,1.57-0.26
					c0.49,0.04,1.74-0.35,2.54-0.61c1.56-0.6,2.51-1.11,3.96-1.99c0.48-0.21,1-0.59,1.52-0.97c0.48-0.44,0.99-0.86,1.44-1.21
					l0.16-0.27c0.67-0.4,1.28-1.36,2.07-2.11c0.11-0.24,0.17-0.36,0.2-0.41c-0.03,0.04-0.09,0.09-0.17,0.07
					c0.21-0.22,0.5-0.76,0.61-0.65l-0.03,0.07c0.05,0.06,0.17-0.14,0.31-0.39c0.12-0.25,0.26-0.55,0.4-0.67l-0.25,0.09l0.3-0.5
					l-0.04,0.15c0.23-0.59,0.38-1.1,0.55-1.56c0.18-0.46,0.37-0.87,0.5-1.3c0.14-0.42,0.29-0.85,0.39-1.31
					c0.07-0.47,0.11-0.99,0.08-1.59c0.2,0.33-0.07-0.47,0.16-0.49c0.33-0.59-0.02-1.12-0.13-1.59c-0.01,0-0.03,0-0.05-0.03
					l-0.04-0.85c0.36,0.48-0.32-0.59-0.01-0.15c0.02-2.25-1.18-5.02-2.6-7.08l0.02,0.12c-0.35-0.46-0.59-0.78-1.16-1.52
					c-0.28-0.4-0.78-0.72-0.92-0.84c-0.43-0.32-0.68-0.72-0.52-0.56c-0.41-0.38-0.89-0.62-1.46-1.12c-0.13-0.26-1.76-1.11-1.72-1.19
					l-0.01,0c-0.83-0.5-1.66-0.88-2.62-1.3c0,0,0.03,0.01,0.05,0.02c-0.66-0.26-1.35-0.4-2.02-0.61l0.53,0.3
					c0.56,0.22,1.12,0.45,1.63,0.77c1.47,0.69,2.77,1.69,3.86,2.85c0.87,0.94,1.49,2.07,2.03,3.18c0.66,1.36,1.14,2.74,1.49,4.14
					c0.32,1.41,0.49,2.82,0.55,4.25l0.21,0.62c-0.41,1.65-0.33,3.89-1.18,5.58l0.14,0.1c-0.17,0.5-0.25,0.42-0.32,0.53
					c-0.8,2.31-2.28,4.51-4.24,6.13c-1.94,1.65-4.38,2.55-6.66,2.83c-0.44,0.06-1.79,0.11-2.14,0.06c-1.48,0.03-3.05-0.23-4.43-0.75
					l0.06,0c-0.22-0.05-0.44-0.14-0.65-0.23c-0.02-0.02-0.02-0.04,0-0.04c-0.76-0.17-1.82-0.84-2.56-1.4l0.05,0.02
					C9.04,28.03,7.19,26.2,5.89,24c-1.34-2.17-1.97-4.75-1.86-7.32c0.25-1.19,0.26-2.46,0.57-3.76c0.09-0.66,0.34-1.3,0.53-1.95
					c0.28-0.62,0.53-1.27,0.95-1.81C6.28,9,6.98,7.68,7.93,6.49C8.85,5.28,9.97,4.16,10.16,3.97z"/>
				<path class="st0" d="M18.1,0.34l-0.02,0C18.08,0.36,18.11,0.35,18.1,0.34z"/>
				<polygon class="st0" points="5.9,4.61 5.93,4.58 5.73,4.61 				"/>
				<path class="st0" d="M13.35,0.35c-0.38,0.07-0.39,0.11-0.33,0.1C13.13,0.42,13.2,0.4,13.35,0.35z"/>
				<path class="st0" d="M21.12,0.41c0.19,0.02,0.12,0.01,0.01-0.01c-0.2-0.02-0.34-0.03-0.34-0.03C20.88,0.38,21.03,0.4,21.12,0.41
					z"/>
				<path class="st0" d="M20.35,0.17l0.06,0C20.29,0.15,20.3,0.16,20.35,0.17z"/>
			</g>
		</g>
	</g>
	<g>
		<g>
			<path d="M16.67,10.6c-0.4-0.38-0.59-0.85-0.59-1.42s0.2-1.04,0.59-1.42c0.4-0.38,0.89-0.57,1.49-0.57c0.6,0,1.1,0.19,1.49,0.57
				c0.4,0.38,0.59,0.85,0.59,1.42s-0.2,1.04-0.59,1.42c-0.4,0.38-0.89,0.57-1.49,0.57C17.56,11.17,17.06,10.98,16.67,10.6z
				 M19.84,12.77v13.45h-3.4V12.77H19.84z"/>
			<g>
				<path class="st3" d="M16.67,10.6c-0.4-0.38-0.59-0.85-0.59-1.42s0.2-1.04,0.59-1.42c0.4-0.38,0.89-0.57,1.49-0.57
					c0.6,0,1.1,0.19,1.49,0.57c0.4,0.38,0.59,0.85,0.59,1.42s-0.2,1.04-0.59,1.42c-0.4,0.38-0.89,0.57-1.49,0.57
					C17.56,11.17,17.06,10.98,16.67,10.6z M19.84,12.77v13.45h-3.4V12.77H19.84z"/>
				<g>
					<g>
						<g>
							<path d="M19.8,12.42c0.05,0.01,0.03-0.05,0.04-0.06C19.75,12.37,19.8,12.44,19.8,12.42z"/>
							<polygon points="18.97,12.56 18.99,12.53 18.87,12.59 							"/>
							<path d="M18.21,12.56c0.07,0.1,0.28-0.02,0.42,0.02l0.02,0.02l0.06-0.08C18.54,12.53,18.32,12.59,18.21,12.56z"/>
							<path d="M17.8,12.34c0.03,0.04-0.09,0.03,0.1,0.01c-0.01,0-0.01-0.01-0.02-0.01C17.86,12.34,17.84,12.34,17.8,12.34z"/>
							<path d="M17.88,12.34C17.96,12.34,17.82,12.31,17.88,12.34L17.88,12.34z"/>
							<path d="M17.5,12.36l0.11-0.04c-0.02-0.02-0.12-0.03-0.08-0.05C17.42,12.3,17.44,12.32,17.5,12.36z"/>
							<path d="M17.4,12.44l0.06-0.01C17.45,12.41,17.43,12.41,17.4,12.44z"/>
							<path d="M17.57,12.39l-0.12,0.03c0.02,0.02,0.02,0.05,0.05-0.01C17.5,12.44,17.52,12.41,17.57,12.39z"/>
							<path d="M17.64,12.41c0.06,0.02,0.14,0.04,0.03,0.07C17.87,12.46,17.84,12.39,17.64,12.41z"/>
							<path d="M18.17,12.66l0.08,0.03l0.07-0.03C18.28,12.67,18.16,12.63,18.17,12.66z"/>
							<path d="M16.72,12.31c-0.01,0.02,0.08,0.06,0.1,0.08l0.13-0.02C16.87,12.36,16.74,12.34,16.72,12.31z"/>
							<path d="M16.81,12.4l-0.18,0.04C16.8,12.44,16.83,12.42,16.81,12.4z"/>
							<polygon points="17.38,12.55 17.58,12.47 17.34,12.55 							"/>
							<polygon points="15.98,12.4 15.94,12.27 15.96,12.26 15.94,12.27 16,12.51 							"/>
							<path d="M15.99,12.95c-0.04-0.11-0.07,0.11-0.1,0c0.01,0.15,0.04,0.33,0.07,0.4C15.95,13.27,15.95,13.09,15.99,12.95z"/>
							<path d="M16.01,13.45c-0.01-0.03-0.03-0.07-0.05-0.1C15.98,13.38,15.99,13.41,16.01,13.45z"/>
							<path d="M16.3,12.42c-0.02-0.01-0.08-0.05-0.21-0.06l0.13,0.06C16.24,12.42,16.27,12.42,16.3,12.42z"/>
							<polygon points="16.23,12.42 16.22,12.42 16.09,12.42 16.09,12.45 16.09,12.42 							"/>
							<path d="M16.32,12.42l-0.02,0C16.31,12.43,16.32,12.43,16.32,12.42z"/>
							<path d="M17.07,12.49c-0.06,0.03-0.25,0.07-0.07,0.12C17.05,12.57,16.97,12.55,17.07,12.49z"/>
							<path d="M16.46,12.5l0.19,0.01c-0.01-0.02-0.06-0.04-0.01-0.06L16.46,12.5z"/>
							<polygon points="16.38,12.52 16.46,12.5 16.39,12.49 							"/>
							<path d="M16.07,13.18c0.03,0.11,0.03,0.18,0.03,0.24c0.01-0.06,0.02-0.16,0.02-0.28C16.1,13.11,16.07,13.05,16.07,13.18z"/>
							<path d="M16.09,12.74l0,0.02C16.09,12.76,16.1,12.75,16.09,12.74z"/>
							<polygon points="16.1,14.07 16.11,14.06 16.1,14.06 							"/>
							<path d="M16.13,13.11c0.01-0.08,0-0.13-0.02-0.19c0,0.08,0.01,0.14,0.01,0.21C16.13,13.14,16.13,13.14,16.13,13.11z"/>
							<path d="M16.04,13.63c0.01-0.03,0.02-0.06,0.03-0.09C16.05,13.57,16.02,13.62,16.04,13.63z"/>
							<path d="M16.07,12.79c0-0.01,0-0.02,0-0.02C16.06,12.79,16.06,12.79,16.07,12.79z"/>
							<path d="M16.07,12.79c0.01,0.05,0.02,0.09,0.04,0.14c-0.01-0.04-0.01-0.09-0.02-0.16C16.08,12.77,16.08,12.78,16.07,12.79z"
								/>
							<path d="M16.49,14.27c-0.06-0.01-0.11-0.15-0.05-0.27c-0.04-0.12-0.23-0.04-0.33,0.06c0.02,0,0.05,0,0.08,0.13
								c0.03-0.04,0.07-0.27,0.12-0.17c0.03,0.16-0.02,0.13-0.05,0.21c0.07-0.07,0.1,0.21,0.2,0.17l-0.04-0.14
								C16.45,14.26,16.48,14.31,16.49,14.27z"/>
							<path d="M16.12,13.82l-0.01-0.05c-0.01,0.06-0.03,0.1-0.08,0.18c0.03,0.08,0.05,0.1,0.07,0.11l0.01-0.25L16.12,13.82z"/>
							<path d="M16.11,13.55c0.06,0.04,0.09,0.16,0.15,0.09c0-0.15-0.05-0.1-0.08-0.19C16.2,13.68,16.15,13.37,16.11,13.55
								c0-0.05-0.01-0.09-0.01-0.13c-0.01,0.04-0.02,0.08-0.03,0.12l0-0.01l0,0l0,0c0.01-0.01,0.01-0.01,0.01,0l0,0.01
								C16.1,13.54,16.1,13.54,16.11,13.55c-0.01,0.07-0.02,0.01-0.02-0.01l-0.01,0l0,0l0.03,0.24
								C16.12,13.72,16.12,13.66,16.11,13.55z"/>
							<path d="M16.87,12.75c-0.01-0.01-0.01-0.01-0.01-0.01C16.84,12.74,16.84,12.75,16.87,12.75z"/>
							<path d="M16.75,12.71c0.02-0.01,0.02-0.03,0.09-0.03c0.06,0.02,0.01,0.03,0.01,0.05c0.03-0.02,0.13-0.04,0-0.07l-0.02,0.01
								c-0.11-0.02-0.32-0.1-0.31-0.11C16.6,12.62,16.66,12.66,16.75,12.71z"/>
							<path d="M16.26,12.89l0.03,0.27l0.05-0.11l-0.03-0.01C16.32,12.92,16.29,12.93,16.26,12.89z"/>
							<polygon points="16.07,14.09 16.01,14.07 16.1,14.18 							"/>
							<polygon points="16.08,14.35 16.02,14.34 16.06,14.41 							"/>
							<path d="M19.29,25.88l0.02-0.02C19.31,25.87,19.3,25.87,19.29,25.88z"/>
							<path d="M18.88,25.88l-0.01,0.03C18.89,25.89,18.89,25.88,18.88,25.88z"/>
							<path d="M16.08,20.76c-0.05,0.09-0.13,0.18-0.07,0.17l0.06-0.03C16.06,20.85,16.07,20.8,16.08,20.76z"/>
							<path d="M16.45,25.15l0.02-0.03l-0.06-0.06C16.42,25.1,16.44,25.12,16.45,25.15z"/>
							<path d="M16.71,25.21l-0.04,0.11C16.68,25.3,16.69,25.27,16.71,25.21z"/>
							<path d="M19.43,24.41l-0.06-0.07C19.37,24.45,19.4,24.4,19.43,24.41z"/>
							<path d="M16.1,17.03c-0.02,0.07-0.03,0.13-0.04,0.19C16.1,17.12,16.15,17.05,16.1,17.03z"/>
							<path d="M19.14,26.53c0.04-0.01,0.05-0.02,0.05-0.04C19.15,26.5,19.13,26.52,19.14,26.53z"/>
							<path d="M16.06,17.43c0.01-0.02,0.01-0.03,0.01-0.04c-0.01-0.05-0.02-0.11-0.01-0.18C16.04,17.28,16.02,17.35,16.06,17.43z"
								/>
							<path d="M19.48,15.95c0-0.01,0-0.01,0.01-0.02C19.48,15.93,19.48,15.94,19.48,15.95z"/>
							<path d="M20.1,13.49c0,0.03,0,0.07,0,0.1C20.11,13.57,20.11,13.54,20.1,13.49z"/>
							<path d="M16.05,15.4C16.05,15.35,16.04,15.4,16.05,15.4L16.05,15.4z"/>
							<path d="M16.29,15.14c0.01,0.01,0.02,0.02,0.03,0.02C16.31,15.15,16.3,15.14,16.29,15.14z"/>
							<path d="M16.45,17.98L16.45,17.98C16.46,17.97,16.46,17.97,16.45,17.98z"/>
							<path d="M16.08,15.32c-0.01,0.02-0.01,0.04-0.02,0.07C16.07,15.38,16.07,15.36,16.08,15.32z"/>
							<path d="M16.05,15.33c0-0.02,0-0.03,0.01-0.05C16.05,15.28,16.04,15.28,16.05,15.33z"/>
							<path d="M16.05,15.48c0-0.03,0-0.06,0.01-0.09c0,0.01-0.01,0.01-0.01,0.01C16.05,15.42,16.05,15.44,16.05,15.48z"/>
							<path d="M19.65,20.48c0,0,0-0.01,0.01-0.01C19.63,20.42,19.63,20.44,19.65,20.48z"/>
							<polygon points="16.72,22.2 16.72,22.2 16.72,22.21 							"/>
							<path d="M16.77,22.4c-0.08-0.08-0.07-0.13-0.05-0.2l-0.18,0.07L16.77,22.4z"/>
							<path d="M19.48,25.69c-0.02,0.01-0.04,0.02-0.06,0.03c-0.05-0.04-0.06-0.04-0.07-0.05c-0.01-0.05-0.02,0-0.06,0
								c0.16,0.02,0.07,0.06,0.14,0.14c0.01,0.02,0.02,0.04,0.05,0.07l-0.07-0.04c0.01,0,0-0.01,0.01-0.01
								c-0.11-0.09,0.05,0.14-0.09,0.11c-0.04-0.01-0.07-0.04-0.04-0.07c-0.04,0.02-0.11,0.03-0.17,0.05
								c-0.05,0-0.04-0.04,0.01-0.03l-0.27,0.02l0-0.01c-0.04,0.03-0.13,0.08-0.17,0.1c-0.07-0.03,0.03-0.02,0.02-0.04L18.56,26
								c-0.06-0.05,0.06-0.1,0.17-0.09c-0.14-0.19-0.13,0.05-0.43-0.06l0.14-0.02c-0.09-0.11-0.2-0.07-0.36-0.14
								c0.04,0.04,0.32,0.17,0.16,0.22c-0.05-0.01-0.11-0.02-0.2,0.02c0-0.07-0.09-0.05-0.2-0.05l0.01-0.09
								c-0.12,0.03-0.11,0.07-0.18,0.11c-0.13-0.01-0.16-0.08-0.19-0.14c-0.21-0.01,0.14,0.11-0.1,0.13c-0.15-0.03-0.35,0-0.45,0.06
								c-0.05-0.03,0.02-0.06,0.01-0.08c-0.02,0.02-0.04,0.05-0.07,0.07c-0.01,0,0-0.02,0.01-0.04c-0.06,0.03-0.04,0.09-0.15,0.12
								c-0.04,0.04-0.07,0.02-0.09-0.01c0.04-0.1,0.09-0.18,0.02-0.21c0.03-0.03,0.06-0.01,0.09-0.03
								c-0.07-0.08-0.05-0.07-0.15-0.27l0.06-0.17c-0.07,0.12-0.15-0.03-0.21-0.17c-0.03,0.04-0.06,0.08-0.08,0.11l-0.05-0.22
								c0.01-0.03,0.05,0,0.08,0.03l-0.02-0.04c0.03-0.08,0.09-0.04,0.14,0.02l-0.06,0.08c0.06,0.05,0.12,0.11,0.17,0.09
								c-0.01-0.01-0.02-0.04-0.02-0.07c0.01,0.01,0.03,0.02,0.04,0.02c0.01-0.01-0.01-0.03-0.03-0.07l0.1-0.05l-0.04-0.01
								l0.06-0.29c-0.1-0.21-0.25-0.39-0.29-0.72c0.07,0.08,0.12,0.02,0.21,0.02c-0.09,0.09,0.04,0.26,0.02,0.43
								c0.01-0.09,0.05-0.07,0.07-0.05l-0.08-0.31c0.07,0.01,0.05-0.06,0.08-0.14c-0.14,0.06-0.09-0.23-0.14-0.35
								c0.05-0.01,0.1,0.02,0.08,0.17c0.11-0.17-0.17-0.22-0.08-0.38c0,0.04-0.01,0.06,0.02,0.07c-0.04-0.09-0.01-0.3,0.03-0.25
								l0,0.04c0.02-0.25,0-0.75-0.12-0.79c0.02,0,0.15,0.03,0.17,0.05l-0.41-0.44c0.1,0.04,0.35-0.11,0.41,0.09
								c0.01-0.06,0.03-0.13,0-0.25c-0.01,0.04-0.15,0.1-0.16,0.04c0.12-0.15,0.06-0.1,0.16-0.29c-0.02,0.06-0.18-0.01-0.18-0.1
								c0.02,0.01,0.16-0.01,0.18,0.03l-0.16-0.24c0.03,0.06,0.14,0.01,0.18-0.04c-0.03,0.02,0-0.2-0.01-0.27l-0.04,0.1
								c0.02-0.27-0.22-0.26-0.22-0.53c0.03,0.03,0.2,0.08,0.22-0.06c-0.08-0.06-0.39-0.27-0.46-0.51l0.05-0.04l-0.05-0.18
								c0.12,0.11,0.38,0.42,0.48,0.6c0.04-0.1,0.06-0.03,0.05-0.18c0.04-0.05,0.07,0.08,0.07,0.13l0.03-0.35
								c-0.1,0.02-0.1-0.27-0.17-0.25l0.1,0.38c-0.1,0.02-0.27-0.22-0.25-0.46c0.04-0.06,0.17,0.05,0.2,0.04
								c-0.03-0.03-0.06-0.23-0.04-0.26l0.05,0.1c0.04-0.14-0.13-0.22-0.04-0.39c0.01-0.06,0.12-0.17,0.07-0.18
								c-0.11,0.09-0.45,0.11-0.53,0.05c0.01-0.02,0.1-0.3,0.16-0.36c0.09-0.09,0.2,0.14,0.28,0.06c-0.03,0-0.06-0.06-0.07-0.08
								c0.02-0.06,0.08,0.02,0.07-0.1c-0.1-0.02,0.01-0.26-0.08-0.06c-0.03-0.13,0.02-0.13,0.02-0.28
								c-0.06,0.05-0.21-0.13-0.24-0.26c0.02,0.01,0.06-0.02,0.07-0.03c0.01-0.26,0.05-0.4,0.05-0.64c0.02-0.02,0.05-0.14,0.09-0.09
								c-0.02-0.03-0.05-0.07-0.05-0.14c0.08-0.14,0.01,0.17,0.11,0.06c-0.06-0.01-0.08-0.19-0.11-0.3
								c-0.09,0.03-0.02,0.25,0.02,0.35c-0.12,0-0.24-0.18-0.3-0.44c-0.03-0.2,0.08-0.09,0.06-0.12c0.02-0.38-0.21-0.32-0.12-0.64
								c0.08-0.12,0.15-0.01,0.21-0.03c0.03,0.16-0.05,0.25-0.05,0.36l0.04-0.14c0.03,0.05,0.04,0.16,0.02,0.22
								c0.07-0.1,0.01-0.64,0.08-0.93c-0.03-0.05-0.05-0.14-0.08-0.1l0.01,0.09c-0.06,0.08-0.08-0.17-0.11-0.06
								c-0.04-0.12-0.11-0.26-0.08-0.44l0.09-0.03c-0.03,0-0.05,0.11-0.03,0.16c-0.04-0.07,0.12-0.27,0-0.35l-0.06,0.12
								c-0.04-0.12-0.14-0.28-0.11-0.43c-0.09,0.07,0.01,0.04-0.09,0.15c0.12-0.1-0.01,0.39,0.13,0.24
								c-0.12,0.11-0.05,0.19-0.15,0.34c0.03,0,0.05-0.05,0.04,0.08c0.01,0.01,0.02,0.02,0.03,0.03l0,0.01l0-0.01
								c0,0.01,0.01,0.01,0,0c0.01-0.03,0.03-0.06,0.04-0.07c0.07,0.06,0.06,0.27,0.1,0.34c-0.01,0.08-0.03-0.03-0.06,0.01l0.05,0.1
								c-0.06,0.01-0.11,0.2-0.14,0.02l0,0.16c-0.04,0.1-0.05,0.23-0.02,0.31c-0.01,0.08,0.07,0.19,0.02,0.13l0.04,0.26l-0.02,0
								c-0.01,0.25,0.11,0.52-0.01,0.81c0.02,0.08,0.04,0.17,0.02,0.31l-0.06,0.03c0.02,0.11-0.06,0.33,0,0.37
								c-0.15,0.12-0.03,0.53-0.06,0.72l0.07,0.01c0,0.13,0.02,0.26,0.05,0.42l0.06-0.01c0.05,0.14-0.05,0.36-0.04,0.59
								c-0.02-0.02-0.02-0.07,0-0.11c-0.14,0.27,0.1,0.56,0,0.81c0.02,0.06,0.02,0.1,0,0.15c0-0.01,0-0.01,0-0.01l0,0.02
								c-0.01,0.03-0.02,0.06-0.03,0.08c0.02-0.03,0.03-0.05,0.03-0.07c0,0.05,0.01,0.12,0.03,0.19l-0.07,0.03c0,0.01,0,0.01,0,0.02
								c-0.03,0.07,0.03,0.05,0.08,0.02c0.01,0.03,0.02,0.07,0.04,0.09c-0.11,0.06,0.04,0.18-0.08,0.26
								c0.06,0.05,0.04,0.35,0.16,0.38c-0.02,0-0.02,0.02-0.02-0.01c-0.01,0.08-0.03,0.15,0.01,0.22l-0.09,0.03l0.12,0.17
								c-0.05,0.1-0.08,0.14-0.15,0.04c0.1,0.25,0.04,0.2,0.14,0.41l-0.06-0.01c0,0.07,0.08,0.19,0.03,0.24
								c-0.11,0.17-0.01,0.83-0.11,1.25c0.17-0.08-0.07,0.2,0.05,0.22c-0.04,0.02-0.06,0.08-0.1,0.02c0.04,0.22-0.06,0.33,0.05,0.48
								c-0.04,0.03-0.06-0.05-0.08-0.02c0.01,0.02,0.03,0.07,0.01,0.09c-0.02,0.02-0.03-0.03-0.05-0.07
								c0.01,0.22,0.13,0.25,0.24,0.26c-0.05,0.11-0.05,0.17,0.03,0.25c-0.04,0.04-0.08,0.11-0.09-0.03
								c-0.01,0.08-0.05,0.47,0.04,0.49c-0.02,0.03-0.01,0.15,0,0.17c-0.01,0.24-0.01,0.26,0,0.49l0.01-0.08
								c0.04,0,0.05,0.01,0.06,0.05c0.07-0.01,0.12,0.03,0.24,0.02l-0.01,0.01c0.37,0.08,0.21-0.04,0.54,0.05l-0.02-0.07
								c0.03-0.15,0.28,0.09,0.46,0.03l-0.07-0.04c0.1-0.05,0.28,0.2,0.38,0.22c0.02,0.01-0.03,0.02-0.06,0.03
								c0.26,0.09,0.03-0.09,0.23-0.11c0.04,0.05-0.05,0.12,0.08,0.13c0.07,0.04,0.38-0.16,0.56-0.06c-0.04-0.04-0.08-0.07,0.01-0.1
								c0.14-0.01,0.37,0.14,0.5,0.02c0.02,0.01,0.02,0.02,0.03,0.03c0.07-0.03,0.48-0.05,0.5-0.11c0.09,0.09,0.25,0.09,0.39,0.08
								c-0.02-0.31-0.12-0.63,0.02-0.6l-0.01-0.39l0.02,0.01c0.01-0.21-0.04-0.28-0.09-0.36c0.01-0.05,0.03-0.01,0.05-0.01
								c0.04-0.3,0.03-0.33-0.07-0.59l0.07-0.03c-0.04-0.07,0.11-0.44,0.03-0.74c0.01,0,0.02,0.01,0.03,0.03
								c-0.08-0.34,0.19-0.8-0.06-0.93L20,22.65c-0.02,0.29-0.11-0.04-0.15,0.08c-0.02-0.11,0.08-0.29,0.09-0.15l-0.01,0.02
								c0.13,0.05,0.05-0.36,0.14-0.35c-0.01-0.56,0.07-1.11,0.07-1.64l-0.1,0.06l0.01-0.18c0.02-0.05,0.08-0.06,0.08,0.07
								c0.06-0.07-0.05-0.22-0.07-0.22c0.04-0.26,0.12,0.1,0.12,0.02l-0.01-0.11l-0.01,0.02c-0.04-0.09-0.09-0.09-0.08-0.25
								c0.02-0.1,0.06-0.05,0.07-0.09c0.01,0,0.01-0.01,0-0.06l0.01-0.23l-0.08,0.09c-0.04-0.1,0-0.22-0.09-0.11
								c0.14-0.16,0.05-0.87,0.1-0.96c-0.06-0.14-0.06-0.29-0.05-0.46c-0.02,0.04-0.11,0.07-0.1-0.08c0.19,0.06,0.08-0.28,0.22-0.4
								c-0.09,0.11-0.02-0.43-0.15-0.26c0.02-0.13,0.07-0.01,0.12-0.1c-0.07-0.3,0.05-0.67,0.02-1.04c-0.02-0.01-0.06,0.06-0.1-0.02
								l0.12-0.2C20.14,16,20.01,16,20.1,15.87c-0.02,0.02-0.05,0.05-0.06,0c0.12-0.73-0.1-1.49,0.13-2.24
								c-0.05,0.1-0.05,0.03-0.05-0.04c-0.01,0.05-0.06,0-0.1,0.01l0.09-0.31c-0.09-0.06-0.01-0.33-0.1-0.37l0.02,0.1
								c-0.11-0.13-0.24,0.18-0.37,0.16c0.12,0.15-0.18,0.39-0.01,0.63c-0.03,0.05-0.04-0.05-0.08-0.02
								c0.06,0.06,0.07,0.13,0.04,0.27l-0.01-0.02c0.01,0.38-0.04,0.55-0.08,0.98l0.07-0.03c-0.01,0.09-0.03,0.11-0.05,0.16
								c0.1,0.11,0.01-0.26,0.12-0.16c-0.14,0.12,0,0.65-0.16,0.74c0,0.14,0.08-0.04,0.08,0.1l-0.04,0.04l0.05,0.04
								c-0.01,0.09-0.06,0.14-0.1,0.14c0-0.02-0.01-0.06-0.01-0.09c-0.05,0.12,0.02,0.34,0,0.38l0.03-0.14
								c0.04,0.39-0.02,0.86,0.07,1.24l0.03-0.03c0.06,0.29-0.03,0.23-0.01,0.54l-0.01-0.01c0.03,0.06,0.05,0.15,0.04,0.23
								c-0.04-0.08-0.07,0.15-0.11,0.05c0.06,0.31,0.05,0.15,0.17,0.36l-0.05,0.05c0.05,0.07,0.07,0.08,0.09,0.23
								c-0.05-0.13-0.08,0.1-0.14-0.04c-0.11,0.33,0.12,0.49-0.05,0.64c0.15,0.15,0.08-0.29,0.11-0.2c0.05-0.07,0.11,0.13,0.09,0.23
								c0,0.11-0.19,0.18-0.18,0.44c0-0.03-0.01-0.03-0.01-0.05c-0.04,0.1,0.05,0.19-0.01,0.32c0.09,0.07-0.01,0.16,0.11,0.18
								l-0.03-0.24c0.03,0.14,0.16,0.27,0.1,0.49c-0.02-0.02-0.05-0.09-0.07-0.13c-0.03,0.07,0.02,0.13-0.01,0.2
								c-0.11-0.02-0.02-0.3-0.11-0.44c-0.05,0.07,0.08,0.28-0.04,0.21c0.15,0.11-0.02,0.26,0.1,0.44l-0.07-0.01
								c0.01,0.03,0.04,0.09,0.04,0.14l-0.09-0.09c0.07,0.15-0.07,0.28-0.02,0.42c0-0.29,0.08-0.07,0.13-0.19
								c0.09,0.36-0.18,0.21-0.14,0.61c-0.01-0.05,0.04-0.2,0.07-0.12c-0.01,0.08-0.04,0.18-0.07,0.23
								c0.01,0.27,0.07-0.04,0.11,0.07c-0.08,0.09,0.03,0.13,0.06,0.25l-0.07,0c-0.04,0.3,0.14,0.08,0.09,0.35l-0.09-0.12l0.02,0.14
								l-0.08-0.03c0.06,0.16,0.04,0.2,0.02,0.36c0.05-0.04,0.12,0.02,0.13,0.15c-0.04,0.09-0.06-0.05-0.06,0.14
								c-0.04-0.04-0.1-0.09-0.03-0.17c-0.02-0.01-0.04-0.04-0.06-0.05c-0.05,0.1-0.01,0.25-0.01,0.32c0-0.03,0.01-0.06,0.02-0.07
								l0.09,0.28c-0.03,0.04-0.05,0.01-0.07-0.03c0.01,0.06,0.04,0.09,0.04,0.18c-0.06-0.02-0.11-0.02-0.14-0.13l0.06,0.26
								c-0.02,0.02-0.07,0.14-0.09,0.1c-0.03,0.15,0.11,0.36,0.06,0.55c0.01,0.01,0.02,0.03,0.03,0.07c-0.01,0.18-0.08,0.34,0,0.56
								l-0.1,0.12c0.02,0.17,0.13-0.17,0.16,0.12c0.03,0.2-0.08,0.07-0.11,0.14c0.05,0.1,0.15,0.3,0.07,0.32
								C19.47,25.72,19.49,25.71,19.48,25.69z M18.24,25.91c0.04-0.01,0.12-0.06,0.15-0.02C18.35,25.97,18.31,25.93,18.24,25.91z
								 M16.58,24.85c0.02,0.03,0.01,0.08-0.01,0.13C16.56,24.94,16.57,24.89,16.58,24.85z M16.11,16.01L16.11,16.01
								C16.08,16.11,16.09,16.07,16.11,16.01z M16.14,15.82c-0.01-0.02-0.02-0.02-0.03-0.01c0.02,0.01,0.02,0.06,0.01,0.1
								C16.14,15.9,16.15,15.88,16.14,15.82z M20.11,19.89l-0.02,0.04C20.07,19.85,20.09,19.87,20.11,19.89z"/>
							<path d="M16.68,25.21c-0.01,0.01-0.02,0.01-0.04,0.02C16.65,25.24,16.66,25.24,16.68,25.21z"/>
							<path d="M19.44,24.43L19.44,24.43c0-0.01-0.01-0.01-0.01-0.01L19.44,24.43z"/>
							<path d="M16.72,18.72c-0.01,0.04-0.02,0.06-0.04,0.07C16.7,18.8,16.71,18.78,16.72,18.72z"/>
							<path d="M16.02,14.83l0.02,0.12c0-0.06,0.01-0.08,0.02-0.11C16.04,14.85,16.02,14.87,16.02,14.83z"/>
							<path d="M16.44,13.79c-0.01-0.02,0-0.04-0.01-0.05l-0.03,0C16.4,13.82,16.43,13.87,16.44,13.79z"/>
							<path d="M16.25,14.72c0.06-0.01,0.04-0.08,0.03-0.17c0,0.01,0,0.01,0,0.01C16.19,14.54,16.22,14.63,16.25,14.72z"/>
							<path d="M16.27,14.53c0-0.03,0-0.05,0-0.08C16.24,14.44,16.27,14.49,16.27,14.53z"/>
							<path d="M16.1,15.59c0.01-0.04-0.07-0.03-0.05-0.05C15.98,15.49,16.14,15.8,16.1,15.59z"/>
							<polygon points="16.44,14.65 16.37,14.68 16.42,14.73 							"/>
							<path d="M16.39,15.32l0.02-0.13c-0.01,0-0.02-0.02-0.02-0.04C16.38,15.23,16.36,15.32,16.39,15.32z"/>
							<path d="M16.38,15.15c0-0.04,0-0.08-0.01-0.11C16.37,15.06,16.37,15.11,16.38,15.15z"/>
							<polygon points="16.46,14.84 16.44,14.88 16.44,14.97 							"/>
							<path d="M16.37,16.76l0.02,0.15c0.02,0.01,0.04-0.03,0.03-0.08C16.4,16.79,16.4,16.74,16.37,16.76z"/>
							<path d="M16.57,16.32c-0.01,0.04-0.03,0.04-0.05,0.06l0.09,0L16.57,16.32z"/>
							<path d="M16.59,16.74c0.02,0.01,0.07,0.21,0.06,0.03C16.63,16.76,16.61,16.61,16.59,16.74z"/>
							<polygon points="16.48,18.95 16.47,18.91 16.33,18.92 							"/>
							<path d="M16.82,20.9c0.03-0.17-0.09-0.04-0.05-0.2c-0.03-0.04-0.04,0.13-0.06,0.09C16.75,20.89,16.73,20.95,16.82,20.9z"/>
							<path d="M16.71,20.79c-0.01-0.01-0.01-0.03-0.02-0.05C16.7,20.76,16.7,20.78,16.71,20.79z"/>
							<polygon points="20.18,13.08 20.21,12.96 20.16,13.04 							"/>
							<path d="M20.08,12.86l0.09-0.03l-0.08-0.07C20.09,12.79,20.1,12.84,20.08,12.86z"/>
							<path d="M17.93,25.72l-0.01,0.02c0.02,0.02,0.04,0.03,0.1,0.03L17.93,25.72z"/>
							<path d="M19.32,25.79L19.32,25.79c0,0.03,0.02,0.05,0.03,0.08L19.32,25.79z"/>
							<path d="M19.3,25.33c0,0.05,0.02,0.11,0.01,0.16C19.3,25.39,19.41,25.32,19.3,25.33z"/>
						</g>
					</g>
				</g>
				<g>
					<g>
						<g>
							<path d="M16.44,10.86c-0.01-0.02-0.05,0.03-0.06,0.03C16.42,10.91,16.45,10.85,16.44,10.86z"/>
							<polygon points="16.8,10.98 16.78,10.99 16.86,10.97 							"/>
							<path d="M17.08,11.14c0.02-0.1-0.11-0.04-0.14-0.1l0-0.02l-0.06,0.06C16.95,11.1,17.05,11.1,17.08,11.14z"/>
							<path d="M17.16,11.42c0-0.04,0.05-0.02-0.04-0.03c0,0.01,0,0.01,0,0.01C17.14,11.4,17.15,11.41,17.16,11.42z"/>
							<path d="M17.13,11.4C17.09,11.39,17.14,11.44,17.13,11.4L17.13,11.4z"/>
							<path d="M17.3,11.44l-0.06,0.02c0,0.03,0.04,0.05,0.02,0.06C17.32,11.51,17.31,11.48,17.3,11.44z"/>
							<path d="M17.37,11.38l-0.03,0.01C17.34,11.4,17.34,11.41,17.37,11.38z"/>
							<path d="M17.28,11.4l0.06-0.01c0-0.02,0.01-0.05-0.03,0C17.32,11.37,17.31,11.39,17.28,11.4z"/>
							<path d="M17.25,11.38c-0.02-0.03-0.04-0.05,0.01-0.07C17.18,11.29,17.16,11.36,17.25,11.38z"/>
							<path d="M17.14,11.06l-0.02-0.04l-0.04,0.02C17.11,11.03,17.13,11.09,17.14,11.06z"/>
							<path d="M17.58,11.57c0.01-0.02,0-0.06,0-0.09l-0.04,0.02C17.55,11.52,17.59,11.54,17.58,11.57z"/>
							<path d="M17.58,11.48l0.06-0.03C17.59,11.44,17.58,11.46,17.58,11.48z"/>
							<polygon points="17.41,11.28 17.3,11.33 17.42,11.28 							"/>
							<polygon points="17.78,11.6 17.75,11.65 17.81,11.58 							"/>
							<path d="M17.92,11.61c-0.03,0.04,0.03,0.07,0,0.1c0.04,0,0.07-0.04,0.1-0.07C17.99,11.65,17.96,11.64,17.92,11.61z"/>
							<path d="M18.07,11.59c-0.01,0.01-0.03,0.03-0.05,0.05C18.04,11.63,18.05,11.61,18.07,11.59z"/>
							<path d="M17.72,11.48c0,0.01,0,0.05,0.03,0.07l-0.01-0.06L17.72,11.48z"/>
							<path d="M17.74,11.48L17.74,11.48c0.02,0.01,0.04,0.01,0.04,0.01C17.78,11.49,17.77,11.49,17.74,11.48z"/>
							<path d="M17.72,11.48L17.72,11.48C17.72,11.47,17.72,11.47,17.72,11.48z"/>
							<path d="M17.52,11.37c0.04-0.03,0.1-0.05,0.06-0.11C17.55,11.29,17.57,11.33,17.52,11.37z"/>
							<path d="M17.7,11.4l-0.05-0.02c0,0.02,0,0.04-0.01,0.05L17.7,11.4z"/>
							<polygon points="17.73,11.39 17.7,11.4 17.72,11.41 							"/>
							<path d="M17.98,11.53c0.03-0.03,0.05-0.02,0.08-0.03c-0.03-0.01-0.06-0.02-0.09-0.02C17.96,11.5,17.94,11.53,17.98,11.53z"/>
							<path d="M17.86,11.5L17.86,11.5C17.87,11.5,17.86,11.49,17.86,11.5z"/>
							<polygon points="18.34,11.5 18.33,11.49 18.33,11.5 							"/>
							<path d="M17.96,11.47c-0.02-0.01-0.04,0-0.05,0.02c0.02,0,0.04-0.01,0.06-0.01C17.97,11.47,17.97,11.46,17.96,11.47z"/>
							<path d="M18.15,11.56l-0.04-0.03C18.12,11.55,18.15,11.58,18.15,11.56z"/>
							<path d="M17.88,11.52L17.88,11.52C17.88,11.53,17.88,11.53,17.88,11.52z"/>
							<path d="M17.88,11.52c0.01-0.01,0.02-0.02,0.03-0.03c-0.01,0-0.03,0.01-0.04,0.02C17.87,11.5,17.87,11.51,17.88,11.52z"/>
							<path d="M18.39,11.1c0,0.06-0.05,0.11-0.1,0.05c-0.04,0.04-0.01,0.23,0.04,0.33c0-0.02,0-0.05,0.05-0.08
								c-0.02-0.03-0.12-0.06-0.08-0.12c0.06-0.03,0.05,0.02,0.09,0.04c-0.03-0.07,0.07-0.11,0.05-0.21l-0.05,0.04
								C18.39,11.14,18.41,11.12,18.39,11.1z"/>
							<path d="M18.23,11.48l-0.02,0.01c0.03,0.01,0.04,0.03,0.08,0.07c0.04-0.03,0.04-0.05,0.04-0.07L18.23,11.48L18.23,11.48z"/>
							<path d="M18.11,11.49c0.02-0.06,0.07-0.09,0.04-0.15c-0.06,0-0.04,0.05-0.08,0.08C18.17,11.4,18.04,11.45,18.11,11.49
								c-0.02,0-0.04,0.01-0.06,0.01c0.02,0.01,0.04,0.02,0.05,0.03l0,0l0,0l0,0c0-0.01-0.01-0.01,0-0.01l0,0L18.11,11.49
								c0.03,0.01,0,0.02-0.01,0.02l0,0.01l0,0l0.1-0.03C18.19,11.48,18.16,11.49,18.11,11.49z"/>
							<path d="M17.66,11.14c0,0.01,0,0.01,0,0.01C17.66,11.15,17.67,11.14,17.66,11.14z"/>
							<path d="M17.69,11.18c-0.01,0.01-0.02,0.03-0.04,0.02c-0.02-0.02,0.01-0.03,0.01-0.05c-0.02,0.01-0.06,0.03-0.02,0.07
								l0.01-0.01c0.03,0.03,0.07,0.11,0.06,0.12C17.7,11.28,17.7,11.24,17.69,11.18z"/>
							<path d="M17.89,11.33l0.08-0.02l-0.04-0.06l0,0.03C17.89,11.27,17.9,11.31,17.89,11.33z"/>
							<polygon points="18.35,11.53 18.34,11.59 18.39,11.5 							"/>
							<polygon points="18.47,11.51 18.47,11.57 18.49,11.53 							"/>
							<path d="M18.62,7.57L18.6,7.58C18.61,7.58,18.62,7.58,18.62,7.57z"/>
							<path d="M18.76,7.61l0.01-0.03C18.76,7.6,18.75,7.61,18.76,7.61z"/>
							<path d="M20.53,9.76c0.06-0.03,0.15-0.05,0.09-0.06l-0.06,0C20.56,9.72,20.55,9.74,20.53,9.76z"/>
							<polygon points="19.9,8.07 19.89,8.09 19.96,8.08 							"/>
							<path d="M19.68,8.2l0.01-0.05C19.69,8.16,19.68,8.18,19.68,8.2z"/>
							<path d="M17.87,7.61l-0.01,0.07C17.89,7.67,17.87,7.64,17.87,7.61z"/>
							<path d="M19.57,11.09c0.04,0,0.07-0.01,0.09-0.02C19.61,11.07,19.55,11.05,19.57,11.09z"/>
							<path d="M18.84,6.95c-0.02,0.01-0.03,0.02-0.03,0.03C18.83,6.98,18.84,6.97,18.84,6.95z"/>
							<path d="M19.74,11.02c-0.01,0-0.01,0-0.02,0c-0.01,0.02-0.03,0.04-0.05,0.06C19.7,11.08,19.74,11.07,19.74,11.02z"/>
							<path d="M16.45,9.48L16.45,9.48C16.45,9.49,16.45,9.48,16.45,9.48z"/>
							<path d="M16.27,10.56c-0.01-0.01-0.02-0.02-0.03-0.03C16.24,10.54,16.25,10.55,16.27,10.56z"/>
							<path d="M18.93,11.45C18.91,11.46,18.93,11.46,18.93,11.45L18.93,11.45z"/>
							<path d="M18.76,11.24c0-0.01,0-0.02,0-0.03C18.76,11.23,18.76,11.24,18.76,11.24z"/>
							<path d="M19.66,10.58L19.66,10.58C19.65,10.57,19.65,10.57,19.66,10.58z"/>
							<path d="M18.89,11.43c0.01,0,0.02,0.01,0.04,0.01C18.92,11.44,18.9,11.43,18.89,11.43z"/>
							<path d="M18.9,11.46c-0.01,0-0.02,0-0.02,0C18.88,11.47,18.88,11.47,18.9,11.46z"/>
							<path d="M18.96,11.43c-0.01,0.01-0.03,0.01-0.04,0.01c0.01,0,0.01,0.01,0.01,0.01C18.94,11.44,18.95,11.44,18.96,11.43z"/>
							<path d="M16.66,8.03L16.66,8.03C16.66,8.07,16.67,8.06,16.66,8.03z"/>
							<polygon points="19.96,9.13 19.96,9.14 19.97,9.13 							"/>
							<path d="M19.91,9.07c0.08,0.02,0.07,0.04,0.05,0.06l0.18-0.03L19.91,9.07z"/>
							<path d="M18.29,7.54l0.04,0.06c-0.06,0.09-0.09,0.05-0.06,0.13c0.02-0.19,0.17-0.01,0.2-0.19l0.02,0.04
								c-0.01,0-0.01,0.01-0.02,0c0.04,0.1,0.06-0.13,0.14-0.09c0.02,0.02,0.03,0.05,0.01,0.07l0.07-0.03
								c0.02,0.01,0,0.04-0.01,0.03l0.09,0.01l0,0.01c0.02-0.03,0.06-0.06,0.08-0.07c0.01,0.03-0.02,0.02-0.02,0.04l0.06-0.03
								c0,0.05-0.05,0.09-0.08,0.07c-0.02,0.2,0.06-0.03,0.1,0.11l-0.05,0.01c-0.02,0.11,0.03,0.09,0.04,0.17
								c0.01-0.04-0.02-0.2,0.05-0.22c0.01,0.02,0.02,0.03,0.06,0.01c-0.03,0.06,0,0.06,0.03,0.07l-0.05,0.08
								c0.04-0.01,0.06-0.05,0.1-0.07c0.03,0.03,0,0.09-0.02,0.15c0.04,0.05,0.02-0.12,0.1-0.09c0.03,0.06,0.08,0.05,0.17,0.05
								c0.01,0.05-0.04,0.04-0.05,0.07l0.07-0.03c0.01,0.01-0.01,0.02-0.02,0.03c0.04,0,0.06-0.07,0.11-0.05
								C19.56,7.8,19.45,8.04,19.57,8c-0.01,0.03-0.05,0.03-0.07,0.06c0.11,0.01,0.09,0.01,0.21,0l-0.01,0.08
								c0.03-0.08,0.13-0.08,0.21-0.07c0.02-0.03,0.03-0.06,0.04-0.08l0.09,0.05C20.03,8.06,20,8.07,19.96,8.08l0.03,0
								c-0.01,0.04-0.06,0.06-0.12,0.07l0.03-0.06c-0.06,0.01-0.12,0.04-0.16,0.07c0.01,0,0.02,0,0.03,0.01
								c-0.02,0-0.03,0.01-0.03,0.02c-0.01,0.01,0.01,0,0.04,0L19.7,8.25l0.04-0.02l0,0.11c0.12,0.01,0.29,0,0.37,0.1
								c-0.08,0-0.11,0.04-0.2,0.07c0.08-0.06-0.07-0.07-0.08-0.12c0,0.03-0.04,0.04-0.05,0.04L19.9,8.5
								c-0.07,0.03-0.04,0.04-0.06,0.07c0.13-0.07,0.11,0.04,0.17,0.07c-0.05,0.02-0.09,0.02-0.1-0.03
								c-0.08,0.08,0.18,0.02,0.11,0.1c0-0.01,0-0.02-0.02-0.02c0.05,0.02,0.03,0.1-0.01,0.09l0-0.01c0,0.08,0.04,0.25,0.16,0.26
								c-0.02,0-0.15,0-0.17,0c0.14,0.04,0.28,0.09,0.41,0.15c-0.1-0.01-0.35,0.04-0.41-0.03c-0.01,0.02-0.03,0.04,0,0.09
								c0.02-0.01,0.15-0.03,0.16-0.01c-0.12,0.05-0.06,0.04-0.16,0.09c0.02-0.02,0.18,0.01,0.18,0.05
								c-0.02-0.01-0.16-0.01-0.18-0.02l0.15,0.1c-0.03-0.02-0.13-0.02-0.18-0.01c0.03,0-0.01,0.07,0,0.09l0.04-0.03
								c-0.04,0.08,0.2,0.13,0.17,0.23c-0.03-0.02-0.19-0.08-0.22-0.04c0.07,0.04,0.35,0.2,0.37,0.32l-0.05,0l0.02,0.09
								c-0.09-0.1-0.29-0.3-0.37-0.38c-0.05,0.02-0.06-0.01-0.07,0.04c-0.05,0-0.06-0.05-0.05-0.06l-0.06,0.09
								c0.09,0.03,0.06,0.11,0.13,0.14c-0.01-0.05-0.03-0.1-0.04-0.15c0.09,0.03,0.23,0.17,0.17,0.24c-0.04,0-0.15-0.09-0.18-0.1
								c0.03,0.02,0.02,0.1,0,0.09l-0.03-0.05c-0.05,0.02,0.08,0.13-0.03,0.13c-0.02,0.01-0.13-0.02-0.09,0.01
								c0.11,0.04,0.39,0.21,0.45,0.28c-0.01,0.01-0.16,0.04-0.21,0.03c-0.09-0.02-0.13-0.16-0.21-0.19
								c0.02,0.02,0.04,0.05,0.04,0.06c-0.03,0-0.06-0.06-0.08-0.01c0.07,0.07-0.06,0.06,0.05,0.07c-0.01,0.05-0.05,0.02-0.08,0.06
								c0.06,0.03,0.12,0.18,0.11,0.24c-0.02-0.02-0.05-0.03-0.06-0.04c-0.08,0.06-0.15,0.06-0.22,0.12
								c-0.02-0.01-0.07-0.01-0.08-0.06c0,0.02,0.01,0.06-0.01,0.07c-0.09-0.04,0.04-0.04-0.05-0.1c0.03,0.05-0.01,0.1-0.02,0.15
								c0.06,0.07,0.09-0.04,0.09-0.09c0.07,0.1,0.09,0.24,0.03,0.34c-0.06,0.07-0.07-0.05-0.07-0.03
								c-0.14,0.05-0.02,0.25-0.18,0.23c-0.08-0.05-0.06-0.14-0.09-0.19c0.05-0.05,0.11,0,0.15-0.02l-0.06-0.01
								c0.01-0.03,0.04-0.07,0.07-0.06c-0.06-0.04-0.23,0.09-0.35,0.06c-0.01,0.03-0.04,0.07-0.01,0.09l0.03-0.02
								c0.05,0.05-0.04,0.1,0.01,0.12c-0.03,0.06-0.08,0.14-0.16,0.12l-0.03-0.08c0.01,0.02,0.06,0.04,0.07,0.01
								c-0.02,0.05-0.13-0.09-0.14,0.03l0.06,0.05c-0.04,0.05-0.09,0.15-0.16,0.14c0.04,0.08,0.01-0.01,0.08,0.08
								c-0.06-0.12,0.17-0.02,0.08-0.14c0.07,0.1,0.09,0.03,0.18,0.11c-0.01-0.03-0.04-0.05,0.02-0.05c0-0.01,0-0.02,0.01-0.03l0,0
								l0,0c0,0,0-0.01,0,0c-0.02-0.01-0.03-0.02-0.04-0.04c0.01-0.07,0.1-0.09,0.11-0.13c0.04,0,0,0.04,0.02,0.06L19,11.25
								c0.02,0.06,0.12,0.07,0.06,0.13l0.07-0.02c0.05,0.02,0.12,0.01,0.14-0.03c0.04,0,0.05-0.1,0.04-0.04l0.08-0.09l0.01,0.01
								c0.11-0.05,0.14-0.21,0.31-0.19c0.02-0.04,0.04-0.08,0.1-0.1l0.05,0.03c0.02-0.05,0.15-0.06,0.12-0.12
								c0.15,0.07,0.19-0.16,0.26-0.22l-0.06-0.05c0.04-0.05,0.06-0.11,0.07-0.18l-0.06-0.03c-0.01-0.08,0.12-0.11,0.16-0.21
								c0.02,0.02,0,0.04-0.02,0.05c0.19-0.05,0-0.27,0.13-0.34c-0.02-0.03,0-0.05,0.02-0.06l0,0.01c0-0.01,0-0.01,0-0.01l0.04-0.03
								c-0.02,0.01-0.03,0.01-0.04,0.02c0-0.02,0-0.05-0.01-0.09l0.07,0l0-0.01c0.03-0.03-0.03-0.03-0.08-0.02
								c-0.01-0.02-0.02-0.03-0.03-0.05c0.11,0-0.02-0.08,0.1-0.1c-0.05-0.03-0.03-0.16-0.15-0.18c0.02,0,0.02-0.01,0.02,0.01
								c0.02-0.03,0.03-0.06,0-0.09l0.09-0.01l-0.12-0.07c0.05-0.04,0.08-0.06,0.15-0.02c-0.1-0.1-0.04-0.08-0.15-0.16l0.06,0
								c0-0.03-0.08-0.07-0.04-0.1c0.1-0.09-0.04-0.34-0.02-0.55c-0.14,0.09,0.04-0.11-0.09-0.07c0.03-0.03,0.04-0.06,0.08-0.04
								c-0.07-0.07-0.01-0.16-0.14-0.17c0.03-0.03,0.06-0.01,0.08-0.03c-0.01,0-0.05-0.01-0.03-0.03c0.01-0.02,0.04,0,0.06,0
								c-0.06-0.09-0.17-0.03-0.27,0.03c0.02-0.07,0-0.09-0.08-0.07c0.02-0.03,0.03-0.08,0.08-0.04c-0.01-0.03-0.08-0.2-0.15-0.14
								c0.01-0.02-0.03-0.04-0.04-0.04c-0.04-0.06-0.04-0.07-0.1-0.11l0,0.02c-0.1,0.06-0.06-0.02-0.11-0.05l0.01-0.01
								c-0.05-0.15-0.06-0.01-0.11-0.16l-0.04,0.06c-0.09,0.11-0.04-0.14-0.14-0.13l0,0.05c-0.06,0.02,0.01-0.23-0.03-0.27
								c0-0.02,0.02-0.01,0.04-0.01C19.36,7,19.37,7.2,19.28,7.18c0.01-0.05,0.07-0.1,0.02-0.13C19.29,6.99,19.09,7.11,19.05,7
								c0,0.04,0.01,0.08-0.04,0.09c-0.06-0.01-0.11-0.18-0.2-0.08c0-0.01-0.01-0.02,0-0.03C18.76,7,18.65,7,18.62,7.06
								c-0.01-0.24-0.28,0.08-0.26-0.13l-0.14,0.01l0-0.02C18.14,6.89,18.11,6.95,18.08,7c-0.02-0.01-0.01-0.03-0.01-0.05
								c-0.13-0.04-0.15-0.03-0.24,0.09l-0.02-0.07c-0.02,0.04-0.2-0.08-0.31,0.03c0-0.01,0-0.02,0.01-0.03
								C17.4,7.08,17.1,6.9,17.15,7.16l-0.06,0.1c0.12-0.03,0.03,0.11,0.09,0.13c-0.03,0.03-0.14-0.02-0.09-0.05l0.01,0.01
								c-0.04-0.13-0.15,0.03-0.19-0.05c-0.2,0.13-0.43,0.23-0.59,0.4l0.09,0.05l-0.06,0.05c-0.03,0-0.08-0.03-0.04-0.07
								c-0.07-0.01-0.02,0.11-0.01,0.12c-0.1,0.06-0.07-0.11-0.09-0.08L16.2,7.79l0.02,0c0.01,0.06,0.04,0.09,0,0.14
								c-0.04,0.02-0.07-0.02-0.08-0.01c-0.01,0-0.01,0-0.02,0.02l-0.06,0.08l0.09,0.01c0.01,0.06-0.05,0.08,0.05,0.09
								C16.04,8.1,16,8.43,15.95,8.45c0.04,0.08,0.02,0.13,0,0.2c0.02-0.01,0.11,0,0.09,0.05c-0.18-0.06-0.1,0.09-0.25,0.13
								c0.09-0.03,0,0.19,0.14,0.13c-0.02,0.05-0.07,0-0.12,0.03c0.06,0.13-0.06,0.28-0.02,0.45c0.03,0,0.06-0.03,0.1,0l-0.11,0.1
								c0.02,0.03,0.15,0.01,0.07,0.08c0.02-0.01,0.05-0.03,0.06-0.01c-0.06,0.35,0.27,0.56,0.27,0.94
								c0.01-0.06,0.03-0.04,0.06-0.02c0-0.02,0.05-0.04,0.07-0.06l0.01,0.16c0.09-0.04,0.1,0.1,0.18,0.05l-0.04-0.02
								c0.11-0.04,0.12-0.21,0.23-0.3c-0.13,0.04,0.05-0.21-0.13-0.17c0.01-0.03,0.04-0.01,0.07-0.04c-0.06,0.02-0.08,0-0.09-0.05
								l0.02,0c-0.08-0.1-0.05-0.18-0.07-0.32l-0.06,0.03c0-0.03,0.02-0.04,0.03-0.06c-0.11,0,0.02,0.08-0.09,0.09
								c0.11-0.08-0.07-0.21,0.08-0.28c-0.01-0.04-0.07,0.03-0.08-0.02l0.04-0.02l-0.06,0c0-0.03,0.05-0.06,0.09-0.06
								c0,0.01,0.01,0.02,0.02,0.03c0.04-0.04-0.03-0.1-0.02-0.12l-0.02,0.05c-0.05-0.12,0-0.28-0.08-0.41L16.3,9.01
								c-0.05-0.1,0.04-0.07,0.03-0.18l0.01,0.01c-0.03-0.03-0.04-0.06-0.03-0.09c0.03,0.03,0.08-0.03,0.11,0.01
								c-0.03-0.11-0.04-0.06-0.13-0.16l0.06,0c-0.04-0.04-0.06-0.05-0.05-0.11c0.03,0.06,0.09,0,0.13,0.06
								c0.14-0.05-0.04-0.2,0.13-0.17c-0.1-0.11-0.12,0.05-0.13,0.01c-0.05,0-0.08-0.09-0.05-0.11c0.02-0.03,0.19,0.04,0.24-0.04
								c-0.01,0.01,0,0.01,0,0.02c0.05-0.01-0.01-0.08,0.07-0.08c-0.06-0.07,0.04-0.04-0.05-0.11l-0.03,0.08
								c0-0.05-0.07-0.17,0.03-0.2c0.01,0.02,0.02,0.06,0.02,0.08c0.04,0,0.01-0.05,0.05-0.04c0.08,0.08-0.05,0.09-0.01,0.18
								c0.05,0.01-0.01-0.12,0.07-0.03c-0.1-0.13,0.07-0.05,0.02-0.17l0.05,0.05c0-0.01-0.01-0.05,0-0.06l0.04,0.08
								C16.87,7.96,17,8.04,17,7.98c-0.07,0.06-0.07-0.05-0.13-0.06c0.03-0.15,0.17,0.09,0.24-0.01c-0.01,0.02-0.08,0.01-0.07-0.03
								c0.03,0,0.07,0,0.1,0.02c0.06-0.06-0.05-0.05-0.04-0.1c0.07,0.05,0.02-0.05,0.04-0.09l0.04,0.06
								c0.11-0.01-0.05-0.14,0.06-0.14l0.01,0.1l0.03-0.04l0.03,0.07c0.02-0.07,0.04-0.07,0.09-0.07c-0.03-0.04-0.04-0.12,0-0.14
								c0.04,0.03,0.01,0.07,0.06,0.03c0,0.04,0.01,0.1-0.04,0.05l0.01,0.07c0.05,0.03,0.07-0.02,0.1-0.03c-0.01,0-0.02,0-0.03-0.01
								l0.05-0.12c0.02,0.02,0.02,0.04,0.01,0.07c0.01-0.01,0.02-0.05,0.04-0.06c0.01,0.06,0.03,0.11,0,0.15l0.06-0.08
								c0.01,0.02,0.06,0.05,0.05,0.08c0.05,0.02,0.09-0.13,0.16-0.09c0-0.01,0.01-0.02,0.02-0.03c0.06,0.01,0.12,0.07,0.18-0.01
								l0.04,0.1c0.05-0.02-0.06-0.12,0.04-0.16c0.07-0.03,0.02,0.09,0.05,0.11c0.03-0.05,0.1-0.15,0.15-0.06
								C18.32,7.55,18.31,7.54,18.29,7.54z M18.96,7.65c-0.02,0.01-0.06,0.04-0.05,0C18.95,7.59,18.95,7.63,18.96,7.65z M19.86,8.24
								c-0.02,0-0.02-0.02-0.01-0.05C19.86,8.2,19.86,8.22,19.86,8.24z M19.17,11.3L19.17,11.3C19.22,11.31,19.2,11.31,19.17,11.3z
								 M19.08,11.31c0,0.01,0,0.02,0.01,0.03c0-0.02,0.02-0.03,0.04-0.03C19.11,11.29,19.1,11.29,19.08,11.31z M16.16,7.94l0.02,0
								C16.18,7.98,16.17,7.96,16.16,7.94z"/>
							<path d="M19.71,8.19c0.01-0.01,0.02-0.02,0.03-0.03C19.72,8.16,19.71,8.17,19.71,8.19z"/>
							<polygon points="17.87,7.6 17.87,7.6 17.87,7.61 							"/>
							<path d="M19.64,10.2c0.02,0,0.03,0,0.04,0C19.66,10.19,19.65,10.19,19.64,10.2z"/>
							<path d="M18.68,11.54l0.05-0.03c-0.03,0.01-0.04,0-0.05-0.01C18.69,11.51,18.7,11.53,18.68,11.54z"/>
							<path d="M18.21,11.16c-0.01,0.01-0.01,0-0.02,0.01l0,0.03C18.22,11.2,18.24,11.17,18.21,11.16z"/>
							<path d="M18.6,11.32c-0.01-0.06-0.04-0.03-0.07-0.02c0,0,0,0,0.01,0C18.53,11.39,18.57,11.35,18.6,11.32z"/>
							<path d="M18.52,11.31c-0.01,0-0.02,0.01-0.03,0.01C18.49,11.35,18.5,11.32,18.52,11.31z"/>
							<path d="M18.99,11.38c-0.02-0.01,0.01,0.07-0.01,0.05C18.99,11.51,19.08,11.31,18.99,11.38z"/>
							<polygon points="18.54,11.14 18.56,11.21 18.57,11.15 							"/>
							<path d="M18.8,11.14l-0.06-0.01c0,0.01,0,0.02-0.01,0.03C18.77,11.15,18.81,11.16,18.8,11.14z"/>
							<path d="M18.74,11.16c-0.02,0-0.03,0.01-0.04,0.02C18.71,11.18,18.73,11.17,18.74,11.16z"/>
							<polygon points="18.61,11.11 18.62,11.12 18.66,11.12 							"/>
							<path d="M19.33,10.93l0.04-0.05c-0.01-0.02-0.03-0.03-0.04-0.01C19.32,10.89,19.31,10.91,19.33,10.93z"/>
							<path d="M19.09,10.84c0.02,0.01,0.03,0.02,0.05,0.04L19.1,10.8L19.09,10.84z"/>
							<path d="M19.22,10.75c-0.01-0.02,0.03-0.1-0.03-0.06C19.2,10.71,19.16,10.75,19.22,10.75z"/>
							<polygon points="19.88,10.28 19.87,10.29 19.99,10.38 							"/>
							<path d="M19.83,9.54c-0.05,0.04,0.08,0.03,0.03,0.07c0.03,0.02,0.04-0.03,0.07-0.01C19.9,9.56,19.92,9.55,19.83,9.54z"/>
							<path d="M19.93,9.6c0,0.01,0.01,0.01,0.02,0.02C19.94,9.61,19.93,9.61,19.93,9.6z"/>
							<polygon points="16.33,10.75 16.34,10.81 16.36,10.75 							"/>
							<path d="M16.47,10.74l-0.06,0.07l0.08-0.04C16.48,10.77,16.46,10.76,16.47,10.74z"/>
							<path d="M18.96,7.86l0.01-0.02c0.01-0.02,0-0.03-0.01-0.04L18.96,7.86z"/>
							<polygon points="18.56,7.65 18.57,7.65 18.57,7.57 							"/>
							<path d="M18.16,7.72c0.02,0,0.03-0.01,0.05-0.01C18.18,7.72,18.16,7.62,18.16,7.72z"/>
						</g>
					</g>
				</g>
			</g>
		</g>
	</g>
</g>
</svg>
