<?xml version="1.0" encoding="utf-8"?>
<!-- Generator: Adobe Illustrator 27.1.1, SVG Export Plug-In . SVG Version: 6.00 Build 0)  -->
<svg version="1.1" id="Layer_1" xmlns="http://www.w3.org/2000/svg" xmlns:xlink="http://www.w3.org/1999/xlink" x="0px" y="0px"
	 viewBox="0 0 202.57 11.85" style="enable-background:new 0 0 202.57 11.85;" xml:space="preserve">
<style type="text/css">
	.st0{fill:#FFFFFF;}
	.st1{fill:#5C5AA7;}
	.st2{opacity:0.4;}
	.st3{fill:none;}
	.st4{fill:#07090A;stroke:#FFFFFF;stroke-width:0.5387;stroke-miterlimit:10;}
	.st5{fill:none;stroke:#FFFFFF;stroke-width:1.5269;stroke-miterlimit:10;}
	.st6{fill:#5C5AA7;stroke:#FFFFFF;stroke-width:0.5669;stroke-miterlimit:10;}
	.st7{fill:#FFD400;}
	.st8{fill:#010101;}
	.st9{fill:#FED519;}
	.st10{fill:#FDFEFE;}
	.st11{fill:#FED419;}
	.st12{fill:#FDD416;}
</style>
<g>
	<path d="M143.31,10.35C143.39,10.38,143.44,10.33,143.31,10.35L143.31,10.35z"/>
	<path d="M76.85,11.25c-0.03,0-0.04,0-0.06,0c-0.05,0.12-0.09,0.23-0.13,0.31L76.85,11.25z"/>
	<path d="M66.16,10.49c-0.02-0.01-0.04-0.02-0.07-0.03C66.1,10.53,66.08,10.6,66.16,10.49z"/>
	<path d="M101.48,10.11c0.09,0.01,0.14-0.02,0.18-0.06C101.61,10.08,101.55,10.1,101.48,10.11z"/>
	<path d="M162.9,9.7c0,0-0.03,0.01-0.05,0.01c0.04,0.02,0.08,0.04,0.11,0.07L162.9,9.7z"/>
	<path d="M162.68,9.91c-0.24-0.09,0.06-0.17,0.17-0.2c-0.26-0.17-0.52-0.18-0.78-0.1C162.07,9.8,162.56,9.77,162.68,9.91z"/>
	<path d="M198.43,9.18l-0.11,0.08C198.37,9.24,198.4,9.21,198.43,9.18z"/>
	<path d="M100.43,0.85c0.05-0.02,0.11-0.03,0.16-0.04C100.51,0.8,100.46,0.82,100.43,0.85z"/>
	<path d="M192.82,8.99l-0.06,0.3C192.82,9.17,192.83,9.07,192.82,8.99z"/>
	<path d="M76.65,11.56l-0.08,0.12C76.6,11.65,76.62,11.61,76.65,11.56z"/>
	<path d="M56.28,10.29c0-0.09-0.03-0.16-0.05-0.23c-0.01,0-0.02,0-0.03,0L56.28,10.29z"/>
	<path d="M6.49,5.53c0,0.04,0.01,0.08,0.03,0.12l0.2-0.21C6.61,5.46,6.54,5.49,6.49,5.53z"/>
	<path d="M42.73,9c-0.01,0.03-0.04,0.07-0.05,0.1c0.23,0.1,0.84,0.12,1.62,0.11l0.05-0.37L42.73,9z"/>
	<path d="M27.91,0.43l1.44,0.74c-4.64,0.34-6.8-0.4-10.77,0.2l0.22-0.16c-0.58-0.17-0.9,1.49-7.28-0.54V0.59
		c-0.22,0.01-0.22,0.16-0.66-0.04l1.1,0.45C11.31,1.2,10.73,1.55,9.85,1.6C9.66,1.52,9.6,1.37,9.58,1.25L7.42,1.37L6.76,0.89
		C6.1,1.15,6.4,2.16,4.63,1.6C5.3,2.3,3.76,2.02,3.97,2.37C3.88,2.29,3.68,2.16,3.52,2.04C2.47,2.12,0.49,2.32,0,2.67
		c0,0,4.11,1.47,5.22,2.22C3.74,4.7,4.83,4.98,5.12,5.21l0.1-0.17C6.1,5.21,6.1,5.65,6.55,5.77c0-0.04-0.01-0.08-0.03-0.12
		L6.46,5.71C6.42,5.63,6.45,5.58,6.49,5.53C6.48,5.44,6.52,5.37,6.77,5.39L6.72,5.44c0.37-0.06,1.01,0,1.29,0.04l0.01,0.37
		c0.66-0.7,4.42,1.07,5.3,1.09c0.89,0.46,1.99-0.11,3.09,0.12c1.76,0.12,0.88,0.54,1.77,0.86c1.11,0.23-0.22-0.43,0.22-0.45
		l1.32,0.51c-0.77,0.04-0.35,0.27-0.21,0.41c1.14,0.06,2.95,0.74,3.3,0c1.54,0.35,1.55,0.65,2.21,0.68
		c-0.22-0.13-0.66-0.26-0.67-0.4c0.62,0.32,0.3-0.08,0.04-0.15c0.94-0.32,4.9,1.34,5.1,0.53v0.15c0.22-0.6-0.13-1.18,0.53-1.52
		l0.44,0.27l0.66-0.26c0.44,0.2,0.23,0.36,0.23,0.43c1.08-0.28,2.58,0.05,3.89,0.13L33.84,6.6c1.1,0.38,3.09,1.15,3.31,0.62
		l0.66,0.55c2.21,1.05,1.54-0.46,2.42-0.14l1.11,0.6l-1.1-0.01c1.1,0.3,1.55,0.5,2.43,0.89c0-0.01,0.01-0.01,0.01-0.02
		c-0.06-0.02-0.1-0.05-0.11-0.09L42.73,9c0.13-0.3,0.71-0.5,1.49-0.48c1.11,0.08,1.97-0.36,3.73,0.28l0.44-0.61l1.32,0.37v0.49
		c-1.3-0.03-3.74,0.16-5.41,0.18l-0.03,0.22c0.99,0,2.11-0.22,2.77-0.17c0.32,0.1,1.13,0.61,0.54,0.93l0.61-0.48
		c3.3-0.05,3.32-0.08,6.77,0.47l-0.3-0.25c0.68-0.14,1.37-0.28,1.56,0.11c2.07,0.08,4.21,0.39,5.56,1.01l0.29-0.58
		c0.44,0.03,1.09,0.9,1.3,0.1l0.93-0.25c0.6,0.04,0.96-0.28,1.64,0.05c0,0,0,0,0,0c0,0,0,0,0,0c0.04,0.02,0.09,0.04,0.13,0.07
		c0-0.02,0-0.03-0.01-0.05c1.35,0.25-0.01-0.52,1.53-0.18c0.5,0.41,0.55-0.73,1.3-0.6l0.76,0.83c1.37,0.47,1.6-0.35,3.58-0.36
		c0.95,0.29,1.41,1,0.78,1.62c0.87-0.76,0.39-0.49,1.54-0.86c0.18,0.31,0.05,0.38-0.2,0.66c1.02,0.36,0.63-0.28,1.4-0.26
		c0.22-0.59,0.48-1.52,0.73-1.56l-0.3-0.18c0.81-0.31,1.7-0.46,2.65-0.17l-0.04,0.29l1.01-0.15l0.06,0.38l1.44-0.12l-0.2-0.1
		c0.34-0.05,1.45-0.18,2.08,0.02L84.2,9.88c1.79,0.65,3.27-0.2,5.36-0.27l-0.28,0.43c0.71,0.42,0.2-0.66,1.05-0.45l0.04,0.53
		c0.75-0.69,0.97,0.15,1.48,0.41l-0.24-0.69l0.97,0.15c1.07,0.23,0.66,0.87,0.5,1.23l0.73-0.54l0.14,0.61
		c0.53-0.71,0.53,0.11,1.47-0.27c0.08,0.23-0.16,0.36,0.16,0.46l1.54-0.86l-0.93,0.38l0.11-0.89c0.97-0.67,1.31,0.1,2-0.15
		l-0.48,0.26c1.13-0.22,1.19,0.16,1.82,0.36c-0.2-0.16-0.5-0.41-0.04-0.53c0.33-0.05,0.18,0.31,0.5,0.41
		c0.08-0.59,0.88-0.9,1.62-0.63c-0.01,0.08-0.02,0.17-0.07,0.22c0.19-0.1,0.28-0.25,0.61-0.11l-0.19,0.66l0.63-0.63
		c0.42,0.18,1.03-0.3,0.97,0.15l-0.24,0.13l3.17,0.16l0.04,0.53c0.31-0.72,1.72,0.28,1.62-0.63c0.6,0.49,2.35-0.35,2,0.67
		c2.08,0.08,3.2-0.9,5.73-0.41c0.9,0.86,3.37,0.58,4.99,0.68c3.17-0.36,5.22-0.69,8.46-0.96c1.95,1.21,4.86-0.42,6.96,0.27
		l0.57-0.48c1.39,0.76,3.52-0.17,5.48,0.57c0.48-0.21,0.73-0.28,0.84-0.29c-0.09-0.02-0.22-0.11-0.27-0.42
		c0.56,0.21,1.69-0.05,1.61,0.55l-0.14,0.06c-0.08,0.61,1.7-0.28,2.32,0.24l-0.34-0.65l1.06,0.11l-0.28,0.13
		c4.6-1.45,6.67,0.62,10.99-0.7c-0.57,0.71,0.85-0.37,0.91,0.4c1.09,0.98,2.02-0.21,2.91-0.47c0-0.04,0.01-0.08,0.06-0.14l1.56,0.09
		c-0.93,0.98,1.12-0.81,0.27,0.02c4.07,0.73,9.38-0.01,14.09,0.32l-0.21-0.25c1.19,0.05,2.68-0.26,3.59,0.15
		c0.91,0.4,1.98-0.64,2.33-0.68c0.99-0.43,1.9,0.43,1.47,0.39c1.06-0.12,2.06-1.02,3.53-0.63c0.5,0.83,4.02-0.82,4.06,0.12
		l0.02-0.08c1.89,0.66,3.67-0.46,5.7,0.13c0,0-0.04,0.07-0.11,0.13l4.14-2.85l-1.18-3.13l-3.59-2.54l-9.72,0.55l-7.76-0.99
		l-18.88,0.34l-1.35,0.71c-3.71-1.24-8.47,0.19-12.46-0.7l-0.08,0.61c-1.13,0.04-1.05-0.34-1.33-0.45
		c-10.48,0.13-21.27,0.95-30.7,0.18c-0.91-0.4-3.67-0.17-4.39-0.59c-3.06,0.74-6.31,0.74-9.37,0.66l0.12-0.07l-1.44,0.12
		c-0.06-0.05-0.07-0.12-0.02-0.17c-1.63,0.54-4.2,0.01-6.19-0.21l0.12-0.07C82.72,0.46,71.91,1.6,60.37,0.75
		C55-0.24,48.76,1.13,42.6,0.3C41.47-0.31,29.02,0.15,27.91,0.43z"/>
	<path d="M9.58,1.25l0.05,0C9.63,0.99,9.56,1.09,9.58,1.25z"/>
	<path d="M35.31,8.25c-0.03,0-0.05,0-0.08-0.01l0.31,0.36L35.31,8.25z"/>
	<path d="M18.83,8.46c0.74,0.08,0.77,0.02,0.67-0.08C19.23,8.36,19,8.38,18.83,8.46z"/>
	<path d="M3.53,1.74c-0.39-0.02-0.24,0.13-0.01,0.3c0.4-0.03,0.67-0.05,0.67-0.05C3.97,1.93,3.76,1.8,3.53,1.74z"/>
	<path d="M5.12,5.21L5,5.42C5.23,5.37,5.22,5.29,5.12,5.21z"/>
</g>
</svg>
