<?xml version="1.0" encoding="utf-8"?>
<!-- Generator: Adobe Illustrator 27.1.1, SVG Export Plug-In . SVG Version: 6.00 Build 0)  -->
<svg version="1.1" id="Layer_1" xmlns="http://www.w3.org/2000/svg" xmlns:xlink="http://www.w3.org/1999/xlink" x="0px" y="0px"
	 viewBox="0 0 17.28 22.9" style="enable-background:new 0 0 17.28 22.9;" xml:space="preserve">
<style type="text/css">
	.st0{fill:#FFD400;}
	.st1{fill:#010101;}
	.st2{fill:none;}
</style>
<g id="u0HKBo.tif">
	<g>
		<g>
			<path d="M8.6,22.19c-0.08,0-0.17,0-0.25,0c-0.14-0.09-0.26-0.21-0.37-0.33c-0.52-0.62-1.04-1.25-1.53-1.89
				c-1.77-2.27-3.4-4.63-4.74-7.19c-0.77-1.47-1.24-2.99-1.12-4.67c0.09-1.16,0.38-2.26,0.95-3.27c1.25-2.2,3.12-3.56,5.63-4.01
				c1.5-0.27,2.97-0.11,4.36,0.51c2.73,1.22,4.33,3.33,4.78,6.3c0.04,0.29,0,0.59,0.08,0.87c0,0.11,0,0.22,0,0.34
				c-0.01,0.1-0.03,0.19-0.04,0.29c-0.04,0.74-0.19,1.47-0.45,2.16c-0.41,1.08-0.97,2.09-1.55,3.08c-1.48,2.51-3.2,4.84-5.05,7.08
				C9.09,21.72,8.9,22.01,8.6,22.19z M8.49,4.53c-2.26-0.01-4.1,1.82-4.12,4.09c-0.02,2.24,1.82,4.09,4.08,4.11
				c2.27,0.02,4.13-1.83,4.13-4.1C12.58,6.38,10.75,4.54,8.49,4.53z"/>
			<g>
				<path class="st2" d="M8.6,22.19c-0.08,0-0.17,0-0.25,0c-0.14-0.09-0.26-0.21-0.37-0.33c-0.52-0.62-1.04-1.25-1.53-1.89
					c-1.77-2.27-3.4-4.63-4.74-7.19c-0.77-1.47-1.24-2.99-1.12-4.67c0.09-1.16,0.38-2.26,0.95-3.27c1.25-2.2,3.12-3.56,5.63-4.01
					c1.5-0.27,2.97-0.11,4.36,0.51c2.73,1.22,4.33,3.33,4.78,6.3c0.04,0.29,0,0.59,0.08,0.87c0,0.11,0,0.22,0,0.34
					c-0.01,0.1-0.03,0.19-0.04,0.29c-0.04,0.74-0.19,1.47-0.45,2.16c-0.41,1.08-0.97,2.09-1.55,3.08c-1.48,2.51-3.2,4.84-5.05,7.08
					C9.09,21.72,8.9,22.01,8.6,22.19z M8.49,4.53c-2.26-0.01-4.1,1.82-4.12,4.09c-0.02,2.24,1.82,4.09,4.08,4.11
					c2.27,0.02,4.13-1.83,4.13-4.1C12.58,6.38,10.75,4.54,8.49,4.53z"/>
				<g>
					<g>
						<g>
							<path d="M8.51,5.08c-0.03-0.01-0.02,0.09-0.03,0.1C8.54,5.17,8.51,5.06,8.51,5.08z"/>
							<polygon points="9.09,4.92 9.07,4.96 9.17,4.88 							"/>
							<path d="M9.61,5.04c0-0.17-0.2-0.02-0.27-0.1L9.33,4.9L9.26,5.01C9.38,5.02,9.55,4.98,9.61,5.04z"/>
							<path d="M9.75,5.47C9.76,5.4,9.82,5.44,9.7,5.43c0,0.01,0,0.01,0,0.02C9.72,5.45,9.73,5.46,9.75,5.47z"/>
							<path d="M9.71,5.45C9.66,5.43,9.72,5.51,9.71,5.45L9.71,5.45z"/>
							<path d="M9.94,5.51L9.85,5.53c0,0.04,0.05,0.07,0.02,0.09C9.94,5.62,9.95,5.58,9.94,5.51z"/>
							<path d="M10.05,5.43l-0.04,0.01C10.01,5.45,10.01,5.46,10.05,5.43z"/>
							<path d="M9.92,5.45l0.09-0.01c0-0.03,0.02-0.08-0.04,0C9.99,5.4,9.96,5.43,9.92,5.45z"/>
							<path d="M9.89,5.41C9.87,5.36,9.83,5.32,9.91,5.29C9.78,5.27,9.76,5.38,9.89,5.41z"/>
							<path d="M9.69,4.89L9.65,4.83L9.58,4.87C9.62,4.85,9.68,4.94,9.69,4.89z"/>
							<path d="M10.27,5.78c0.02-0.03,0.03-0.09,0.05-0.13l-0.06,0.01C10.26,5.7,10.29,5.74,10.27,5.78z"/>
							<path d="M10.32,5.65l0.1-0.01C10.36,5.6,10.33,5.62,10.32,5.65z"/>
							<polygon points="10.14,5.28 9.97,5.33 10.17,5.29 							"/>
							<polygon points="10.5,5.95 10.42,5.99 10.55,5.94 							"/>
							<path d="M10.65,6.05c-0.06,0.03-0.04,0.11-0.09,0.12c0.04,0.02,0.11,0.01,0.18,0C10.69,6.17,10.66,6.13,10.65,6.05z"/>
							<path d="M10.84,6.16c-0.03,0-0.06,0-0.1,0.01C10.76,6.18,10.8,6.18,10.84,6.16z"/>
							<path d="M10.51,5.73c-0.01,0.02-0.03,0.07-0.01,0.12l0.03-0.1L10.51,5.73z"/>
							<path d="M10.54,5.75L10.54,5.75c0.02,0.02,0.04,0.04,0.05,0.05C10.58,5.79,10.57,5.78,10.54,5.75z"/>
							<path d="M10.51,5.73L10.51,5.73C10.52,5.72,10.52,5.72,10.51,5.73z"/>
							<path d="M10.29,5.45c0.07-0.02,0.18-0.02,0.14-0.14C10.37,5.35,10.39,5.42,10.29,5.45z"/>
							<path d="M10.55,5.61c-0.02-0.02-0.04-0.04-0.06-0.06c-0.01,0.02-0.02,0.06-0.05,0.07L10.55,5.61z"/>
							<polygon points="10.6,5.61 10.55,5.61 10.57,5.63 							"/>
							<path d="M10.8,6c0.05-0.01,0.09,0.02,0.12,0.04C10.9,6,10.87,5.96,10.83,5.93C10.81,5.95,10.76,5.97,10.8,6z"/>
							<path d="M10.68,5.87L10.68,5.87C10.69,5.86,10.69,5.86,10.68,5.87z"/>
							<polygon points="11.22,6.36 11.23,6.35 11.22,6.35 							"/>
							<path d="M10.84,5.91c-0.01-0.04-0.05-0.04-0.08-0.03c0.03,0.01,0.05,0.03,0.07,0.05C10.84,5.92,10.85,5.91,10.84,5.91z"/>
							<path d="M10.95,6.21c0-0.03,0-0.06,0-0.08C10.94,6.17,10.93,6.23,10.95,6.21z"/>
							<path d="M10.68,5.9L10.68,5.9C10.67,5.92,10.68,5.91,10.68,5.9z"/>
							<path d="M10.68,5.9c0.02,0,0.05-0.01,0.08-0.02c-0.02-0.01-0.05-0.01-0.07-0.01L10.68,5.9z"/>
							<path d="M11.79,6.09c-0.08,0.05-0.2,0.01-0.19-0.12c-0.11-0.02-0.29,0.22-0.37,0.37c0.03-0.02,0.06-0.05,0.15-0.01
								c0.03-0.06-0.04-0.22,0.08-0.22c0.11,0.06,0.04,0.1,0.03,0.17c0.06-0.11,0.22,0.02,0.34-0.09l-0.11-0.05
								C11.74,6.12,11.79,6.13,11.79,6.09z"/>
							<path d="M11.13,6.22L11.1,6.21c0.01,0.04,0.01,0.08-0.01,0.17c0.07,0.01,0.1,0,0.13-0.02l-0.1-0.13L11.13,6.22z"/>
							<path d="M11,6.09c0.09-0.05,0.17-0.02,0.22-0.13c-0.08-0.07-0.11,0.01-0.18-0.01C11.17,6.05,10.95,5.97,11,6.09
								c-0.03-0.02-0.05-0.03-0.08-0.05c0.01,0.03,0.02,0.06,0.03,0.09l0-0.01l0,0l0,0c0-0.01,0.01-0.02,0.01-0.01l0,0L11,6.09
								c0.02,0.05-0.01,0.02-0.03,0.02c0,0-0.01,0.01-0.01,0.01l0,0c0.05,0.02,0.1,0.05,0.15,0.08C11.09,6.17,11.06,6.14,11,6.09z"
								/>
							<path d="M10.62,5.18c0,0.01,0,0.02-0.01,0.02C10.63,5.2,10.64,5.19,10.62,5.18z"/>
							<path d="M10.65,5.27c-0.02,0-0.05,0.03-0.08,0c-0.02-0.04,0.02-0.04,0.04-0.07c-0.04,0.01-0.11,0.01-0.07,0.09l0.02,0
								c0.04,0.07,0.05,0.21,0.03,0.22C10.63,5.43,10.65,5.37,10.65,5.27z"/>
							<path d="M10.87,5.66c0.05,0.01,0.09,0.04,0.14,0.06l0-0.11l-0.03,0.04C10.93,5.58,10.9,5.64,10.87,5.66z"/>
							<polygon points="11.19,6.4 11.1,6.46 11.26,6.42 							"/>
							<polygon points="11.3,6.53 11.23,6.58 11.3,6.59 							"/>
							<path d="M6.1,12.6l-0.06,0C6.07,12.6,6.09,12.6,6.1,12.6z"/>
							<path d="M6.42,12.78l0.03-0.04C6.42,12.76,6.41,12.77,6.42,12.78z"/>
							<path d="M11.47,10.49c-0.1,0-0.24-0.02-0.15,0.03l0.09,0.04C11.42,10.52,11.44,10.5,11.47,10.49z"/>
							<path d="M9.27,12.67l0.02,0.03c0.01-0.04,0.02-0.07,0.02-0.1L9.27,12.67z"/>
							<path d="M9.3,13.07l-0.1-0.05C9.22,13.04,9.25,13.06,9.3,13.07z"/>
							<path d="M4.56,11.29L4.44,11.3C4.49,11.38,4.51,11.31,4.56,11.29z"/>
							<path d="M12,8.13c-0.03,0.05-0.04,0.09-0.04,0.13C12.01,8.2,12.09,8.14,12,8.13z"/>
							<path d="M6.73,11.76c-0.03,0-0.05,0.01-0.06,0.03C6.7,11.79,6.72,11.79,6.73,11.76z"/>
							<path d="M11.97,8.4c0.01-0.01,0.01-0.02,0.02-0.03c-0.02-0.03-0.03-0.07-0.03-0.11C11.92,8.31,11.9,8.36,11.97,8.4z"/>
							<path d="M5.88,4.75l0.02,0C5.9,4.74,5.89,4.75,5.88,4.75z"/>
							<path d="M8,4.99C7.98,5,7.96,5.01,7.93,5.01C7.95,5.02,7.97,5.01,8,4.99z"/>
							<path d="M11.62,7.14C11.6,7.11,11.61,7.14,11.62,7.14L11.62,7.14z"/>
							<path d="M11.89,6.8c0.01,0,0.03,0,0.05-0.01C11.92,6.8,11.9,6.8,11.89,6.8z"/>
							<path d="M12.59,8.78L12.59,8.78C12.61,8.77,12.6,8.78,12.59,8.78z"/>
							<path d="M11.64,7.07c0,0.02-0.01,0.04-0.01,0.05C11.64,7.12,11.64,7.1,11.64,7.07z"/>
							<path d="M11.6,7.1c0-0.01,0-0.02-0.01-0.03C11.58,7.07,11.57,7.08,11.6,7.1z"/>
							<path d="M11.65,7.18c-0.01-0.02-0.01-0.04-0.02-0.06c0,0.01-0.01,0.01-0.01,0.01C11.63,7.15,11.64,7.16,11.65,7.18z"/>
							<path d="M4.12,8.03c0,0,0.01,0,0.01-0.01C4.1,7.97,4.1,7.99,4.12,8.03z"/>
							<polygon points="11.56,11.97 11.56,11.96 11.55,11.96 							"/>
							<path d="M11.48,12.14c-0.03-0.14,0.01-0.16,0.07-0.17l-0.23-0.17L11.48,12.14z"/>
							<path d="M5.37,12.1l0.03,0.15c-0.21,0.01-0.26-0.11-0.25,0.07c0.21-0.21,0.4,0.29,0.6,0.05l0.03,0.1
								c-0.02-0.02-0.03,0-0.05-0.02c0.04,0.22,0.22-0.12,0.36,0.02c0.05,0.06,0.06,0.12,0,0.13l0.17,0.01
								c0.04,0.03,0,0.07-0.04,0.04l0.22,0.08l-0.01,0.01c0.05-0.03,0.15-0.06,0.2-0.08c0.03,0.07-0.04,0.02-0.04,0.06
								c0.05-0.01,0.1-0.01,0.14-0.02c0.02,0.09-0.11,0.13-0.19,0.07c-0.01,0.34,0.13-0.02,0.3,0.24l-0.13-0.01
								c0.01,0.19,0.13,0.17,0.23,0.32c-0.02-0.07-0.18-0.36-0.02-0.38c0.03,0.03,0.08,0.07,0.17,0.03c-0.03,0.1,0.05,0.1,0.14,0.12
								l-0.04,0.14c0.11-0.01,0.12-0.09,0.19-0.14c0.1,0.04,0.1,0.16,0.11,0.25c0.18,0.05-0.09-0.2,0.13-0.19
								c0.14,0.07,0.25,0.05,0.44-0.03c0.1,0.06-0.03,0.09,0.01,0.13l0.1-0.11c0.02,0,0.01,0.04,0.01,0.06
								c0.08-0.04,0.02-0.14,0.13-0.18c0.03-0.15,0.24,0.24,0.39,0.05c0.04,0.04-0.01,0.09,0,0.15c0.2-0.13,0.17-0.09,0.32-0.28
								l0.15,0.07c-0.12-0.09-0.01-0.24,0.08-0.36c-0.04-0.05-0.08-0.09-0.1-0.11c0.05-0.03,0.1-0.07,0.15-0.11
								c0.02,0.02,0.02,0.07,0.01,0.14l0.02-0.04c0.07,0.04,0.06,0.13,0.03,0.22L9.3,12.69c-0.02,0.09-0.05,0.2-0.02,0.28
								c0.01-0.02,0.03-0.04,0.05-0.05c-0.01,0.03-0.01,0.05,0,0.06c0.01,0.01,0.02-0.02,0.04-0.06l0.07,0.15l0-0.07l0.26,0.04
								c0.13-0.2,0.19-0.48,0.4-0.63c-0.01,0.14,0.06,0.18,0.12,0.31c-0.12-0.11-0.17,0.13-0.32,0.15c0.08-0.01,0.08,0.06,0.07,0.09
								l0.19-0.21c0.04,0.11,0.08,0.06,0.16,0.07c-0.14-0.19,0.11-0.22,0.17-0.33c0.04,0.06,0.05,0.14-0.07,0.18
								c0.21,0.09,0.04-0.31,0.22-0.25c-0.03,0.02-0.04,0.02-0.04,0.06c0.03-0.1,0.2-0.14,0.2-0.06l-0.03,0.02
								c0.2-0.07,0.51-0.36,0.41-0.52c0.02,0.02,0.13,0.2,0.14,0.23c-0.04-0.25-0.1-0.49-0.17-0.72c0.09,0.14,0.46,0.34,0.39,0.53
								c0.05-0.02,0.12-0.04,0.15-0.15c-0.04,0.01-0.23-0.11-0.21-0.15c0.21,0.04,0.13,0.01,0.35,0c-0.06,0.01-0.21-0.2-0.16-0.25
								c0.02,0.03,0.2,0.16,0.2,0.2c-0.02-0.1-0.04-0.21-0.07-0.31c0.01,0.07,0.16,0.14,0.25,0.15c-0.05-0.01,0.11-0.14,0.12-0.19
								l-0.1,0.03c0.17-0.16-0.17-0.38-0.05-0.54c0.03,0.05,0.24,0.22,0.33,0.14c-0.08-0.11-0.44-0.5-0.46-0.68l0.08,0
								c-0.01-0.05-0.01-0.1-0.03-0.15c0.16,0.14,0.42,0.54,0.49,0.75c0.09-0.05,0.09,0.02,0.14-0.1c0.08-0.01,0.06,0.11,0.05,0.15
								l0.18-0.26c-0.14-0.05-0.04-0.27-0.17-0.31c0.02,0.12,0.01,0.23,0.01,0.36c-0.14-0.06-0.3-0.34-0.22-0.51
								c0.07-0.03,0.24,0.13,0.29,0.15c-0.04-0.05-0.03-0.22,0.02-0.22l0.05,0.11c0.1-0.09-0.12-0.24,0.05-0.33
								c0.02-0.04,0.23-0.09,0.14-0.12c-0.19,0.04-0.71-0.09-0.83-0.17c0.01-0.01,0.22-0.17,0.3-0.2c0.15-0.05,0.3,0.17,0.43,0.13
								c-0.04-0.01-0.08-0.06-0.1-0.08c0.04-0.04,0.12,0.04,0.12-0.07c-0.15-0.04,0.05-0.21-0.12-0.07
								c-0.03-0.11,0.05-0.1,0.06-0.23c-0.1,0.03-0.33-0.14-0.37-0.23c0.04,0.01,0.09-0.01,0.12-0.02c0.03-0.2,0.08-0.31,0.08-0.5
								c0.04-0.02,0.08-0.12,0.14-0.08c-0.03-0.03-0.09-0.05-0.1-0.1c0.12-0.13,0.04,0.13,0.19,0.02c-0.09,0-0.15-0.14-0.21-0.22
								c-0.13,0.05,0,0.19,0.07,0.27c-0.19,0.02-0.41-0.1-0.52-0.26c-0.07-0.13,0.11-0.09,0.08-0.11c-0.04-0.28-0.37-0.14-0.31-0.38
								c0.08-0.12,0.23-0.08,0.3-0.13c0.09,0.1-0.01,0.2,0.01,0.28l0.03-0.11c0.05,0.03,0.1,0.1,0.08,0.15
								c0.09-0.11-0.11-0.47-0.12-0.71c-0.05-0.02-0.12-0.06-0.15-0.01l0.05,0.06c-0.06,0.1-0.18-0.06-0.18,0.04
								c-0.11-0.05-0.23-0.09-0.25-0.22l0.11-0.09c-0.03,0.02-0.03,0.11,0.03,0.12c-0.08-0.01,0.06-0.26-0.12-0.22l-0.04,0.12
								c-0.11-0.04-0.28-0.05-0.31-0.15c-0.08,0.12,0.03,0.01-0.06,0.16c0.13-0.16,0.13,0.23,0.25,0.03
								c-0.12,0.16,0.01,0.15-0.09,0.31c0.04-0.02,0.06-0.07,0.08,0.02c0.01,0,0.03,0,0.04,0l0,0.01l0-0.01c0.01,0,0.01,0,0,0
								c0.01-0.03,0.02-0.05,0.04-0.07c0.11-0.01,0.17,0.12,0.24,0.14c0,0.06-0.06,0-0.09,0.05l0.1,0.03
								c-0.09,0.05-0.11,0.19-0.21,0.1l0.03,0.1c-0.03,0.08-0.02,0.16,0.03,0.2c-0.01,0.05,0.14,0.09,0.05,0.07l0.1,0.15l-0.02,0.01
								c0.02,0.16,0.23,0.32,0.06,0.53c0.03,0.05,0.06,0.11,0.04,0.21L11.94,8.6c0.03,0.07-0.1,0.21-0.01,0.24
								c-0.23,0.06-0.09,0.33-0.15,0.44l0.11,0.03c-0.02,0.08-0.02,0.17,0,0.29L12,9.62c0.06,0.12-0.15,0.21-0.19,0.35
								c-0.03-0.02-0.01-0.06,0.02-0.07c-0.26,0.08,0,0.42-0.23,0.49c0.01,0.05-0.02,0.07-0.05,0.08l0-0.01l-0.01,0.01
								c-0.02,0.01-0.05,0.01-0.08,0.02c0.03,0,0.06,0,0.07-0.01c-0.01,0.03-0.03,0.07-0.03,0.13l-0.1-0.04c0,0,0,0.01,0,0.01
								c-0.06,0.02,0.02,0.06,0.1,0.09c0,0.03,0.01,0.06,0.02,0.09c-0.17-0.07-0.03,0.14-0.21,0.06c0.06,0.08-0.09,0.23,0.03,0.37
								c-0.02-0.02-0.04-0.01-0.02-0.03c-0.05,0.03-0.11,0.05-0.1,0.12l-0.12-0.08c0.02,0.07,0.04,0.14,0.05,0.22
								c-0.11-0.01-0.17-0.03-0.19-0.15c-0.01,0.23-0.06,0.14-0.06,0.36l-0.05-0.07c-0.04,0.03-0.03,0.18-0.11,0.14
								c-0.18-0.06-0.5,0.31-0.84,0.28c0.16,0.22-0.17-0.06-0.11,0.13c-0.04-0.05-0.09-0.07-0.06-0.14
								c-0.12,0.11-0.23-0.01-0.28,0.17c-0.03-0.06,0.01-0.1-0.02-0.13c-0.01,0.02-0.03,0.06-0.05,0.03
								C9.36,12,9.39,11.98,9.41,11.95c-0.13,0.04-0.11,0.24-0.08,0.42c-0.1-0.06-0.13-0.04-0.17,0.08c-0.04-0.05-0.09-0.11,0-0.14
								c-0.06,0-0.34-0.04-0.33,0.11c-0.02-0.04-0.08-0.01-0.09,0.01c-0.12,0-0.14-0.02-0.26,0l0.03,0.02
								c-0.05,0.18-0.1,0.04-0.2,0.05l0-0.02C8.1,12.33,8.21,12.54,8,12.37l0,0.11c-0.05,0.23-0.18-0.17-0.32-0.1l0.03,0.07
								c-0.09,0.07-0.12-0.36-0.17-0.4c-0.01-0.02,0.03-0.03,0.05-0.04c-0.13-0.18-0.06,0.13-0.2,0.13c0-0.08,0.09-0.18,0.01-0.22
								c-0.01-0.07-0.32,0.15-0.38-0.04c0,0.07,0,0.13-0.07,0.15c-0.1-0.03-0.13-0.31-0.29-0.19c0-0.02,0-0.04,0.01-0.05
								c-0.08,0-0.24-0.06-0.34,0c0.16-0.34-0.49-0.13-0.26-0.41l-0.18-0.14l0.03-0.02c-0.09-0.11-0.17-0.1-0.27-0.08
								c-0.01-0.04,0.04-0.04,0.05-0.05c-0.09-0.2-0.1-0.21-0.35-0.25l0.08-0.08c-0.09,0-0.02-0.35-0.23-0.46
								c0.01,0,0.03-0.01,0.05,0c-0.23-0.16,0.08-0.6-0.34-0.55C4.87,9.72,4.82,9.68,4.78,9.64C4.8,9.85,4.6,9.66,4.56,9.76
								C4.51,9.68,4.62,9.52,4.67,9.61L4.65,9.63c0.22-0.02,0.01-0.27,0.16-0.29C4.72,8.95,4.84,8.57,4.88,8.22L4.71,8.24l0.03-0.13
								c0.04-0.03,0.14-0.03,0.11,0.06C4.96,8.14,4.8,8.02,4.77,8c0.09-0.16,0.18,0.1,0.19,0.05l0-0.07L4.94,7.99
								C4.88,7.92,4.8,7.9,4.84,7.8c0.05-0.06,0.11-0.01,0.12-0.03c0.01,0,0.02,0,0.02-0.04l0.05-0.15L4.89,7.6
								C4.85,7.51,4.94,7.45,4.78,7.48c0.24-0.04,0.3-0.54,0.4-0.57C5.13,6.78,5.2,6.69,5.27,6.59C5.23,6.6,5.1,6.54,5.17,6.46
								c0.23,0.2,0.22-0.09,0.45-0.03C5.46,6.4,5.78,6.17,5.54,6.14C5.62,6.08,5.63,6.2,5.73,6.2C5.79,5.96,6.1,5.93,6.27,5.75
								C6.25,5.71,6.18,5.69,6.19,5.61l0.23,0.08c0.03-0.04-0.1-0.22,0.06-0.15C6.45,5.52,6.4,5.48,6.43,5.46
								c0.5-0.1,0.91-0.63,1.49-0.35C7.84,5.04,7.88,5.02,7.93,5.01C7.9,5,7.92,4.91,7.9,4.86C7.98,4.9,8.06,4.94,8.14,4.98
								c0.03-0.15,0.23-0.02,0.25-0.16L8.31,4.85c0.09-0.17-0.15-0.37-0.16-0.59C8.06,4.45,7.8,4.01,7.65,4.31
								C7.59,4.28,7.67,4.24,7.64,4.19C7.6,4.29,7.55,4.33,7.43,4.31l0.01-0.03c-0.3,0.1-0.46,0.06-0.82,0.14l0.07,0.09
								c-0.08,0.02-0.1,0-0.15-0.01c-0.01,0.19,0.2-0.09,0.2,0.11C6.55,4.45,6.25,4.85,6.07,4.68c-0.11,0.06,0.1,0.09-0.01,0.15
								L6,4.79l0.02,0.09C5.95,4.9,5.87,4.86,5.83,4.82c0.02-0.01,0.04-0.05,0.05-0.06c-0.13,0-0.22,0.2-0.27,0.2l0.12-0.04
								C5.5,5.15,5.15,5.38,5.04,5.71L5.1,5.73C5.02,5.97,4.94,5.84,4.81,6.08l0-0.01c0.01,0.07,0,0.14-0.05,0.2
								C4.75,6.17,4.6,6.31,4.59,6.2C4.54,6.47,4.58,6.35,4.67,6.59l-0.09,0c0.04,0.09,0.08,0.11,0.04,0.23
								C4.6,6.69,4.46,6.83,4.43,6.69c-0.3,0.18,0.02,0.45-0.28,0.47c0.18,0.19,0.2-0.18,0.23-0.1C4.46,7.03,4.5,7.21,4.45,7.28
								C4.41,7.36,4.12,7.33,4.07,7.55c0.01-0.02-0.01-0.03,0-0.05C3.99,7.57,4.1,7.68,3.99,7.76c0.13,0.08-0.03,0.13,0.15,0.18
								L4.12,7.73c0.03,0.12,0.22,0.26,0.09,0.42C4.18,8.13,4.14,8.07,4.12,8.03C4.06,8.08,4.14,8.14,4.08,8.19
								c-0.18-0.04,0-0.25-0.12-0.39C3.88,7.85,4.05,8.05,3.87,7.96C4.1,8.08,3.8,8.18,3.99,8.35L3.88,8.33
								C3.9,8.36,3.94,8.41,3.94,8.46L3.8,8.37C3.92,8.5,3.68,8.61,3.76,8.73C3.74,8.48,3.88,8.68,3.96,8.57
								c0.15,0.3-0.28,0.18-0.21,0.54C3.73,9.06,3.81,8.92,3.86,8.99C3.84,9.06,3.81,9.15,3.76,9.2c0.06,0.23,0.1-0.05,0.18,0.04
								c-0.12,0.1,0.07,0.1,0.12,0.19L3.96,9.45C3.94,9.72,4.2,9.47,4.17,9.71L4,9.66l0.07,0.11L3.94,9.77
								c0.13,0.11,0.1,0.15,0.12,0.29c0.06-0.05,0.19-0.05,0.24,0.06c-0.03,0.09-0.11-0.01-0.04,0.14c-0.08-0.01-0.17-0.02-0.1-0.12
								c-0.04,0.01-0.08-0.01-0.11-0.01c-0.04,0.11,0.06,0.21,0.08,0.27c0-0.02-0.01-0.05,0-0.07c0.07,0.06,0.15,0.11,0.23,0.16
								c-0.02,0.05-0.06,0.04-0.11,0.02c0.03,0.04,0.09,0.05,0.13,0.11c-0.09,0.02-0.17,0.07-0.25-0.01l0.19,0.17
								c-0.03,0.03-0.04,0.16-0.08,0.15c0.03,0.14,0.31,0.19,0.35,0.36c0.02,0,0.04,0,0.08,0.02c0.08,0.14,0.07,0.33,0.3,0.39
								L4.9,11.88c0.13,0.09,0.05-0.24,0.26-0.1c0.15,0.09-0.05,0.14-0.04,0.22c0.12,0,0.34-0.02,0.37,0.18
								C5.43,12.17,5.42,12.12,5.37,12.1z M6.94,12.95C6.9,12.96,6.81,13,6.81,12.93C6.89,12.83,6.9,12.89,6.94,12.95z M9.55,12.81
								c-0.01,0.04-0.06,0.03-0.11,0C9.47,12.8,9.51,12.8,9.55,12.81z M11.86,7.48L11.86,7.48C11.84,7.55,11.85,7.52,11.86,7.48z
								 M11.86,7.34c-0.02-0.01-0.03,0-0.04,0.01c0.03,0,0.04,0.02,0.04,0.06C11.88,7.39,11.89,7.37,11.86,7.34z M4.93,7.74
								L4.89,7.76C4.88,7.69,4.9,7.72,4.93,7.74z"/>
							<path d="M9.3,13.03c-0.01-0.02-0.02-0.04-0.02-0.06C9.26,12.99,9.27,13.01,9.3,13.03z"/>
							<polygon points="4.58,11.29 4.58,11.29 4.56,11.29 							"/>
							<path d="M12.95,9.43c-0.02,0.03-0.04,0.04-0.07,0.05C12.91,9.49,12.94,9.48,12.95,9.43z"/>
							<path d="M11.4,6.84l0.06,0.05c-0.02-0.03-0.01-0.05-0.01-0.08C11.44,6.83,11.42,6.86,11.4,6.84z"/>
							<path d="M11.5,5.85c-0.02,0-0.02-0.02-0.04-0.02l-0.03,0.04C11.46,5.91,11.52,5.91,11.5,5.85z"/>
							<path d="M11.67,6.58c0.07-0.05,0.02-0.09-0.03-0.12l0.01,0.01C11.53,6.53,11.6,6.55,11.67,6.58z"/>
							<path d="M11.63,6.45c-0.01-0.01-0.03-0.03-0.04-0.04C11.55,6.43,11.6,6.43,11.63,6.45z"/>
							<path d="M11.74,7.22c0.01-0.03-0.11,0.03-0.09,0C11.54,7.24,11.86,7.32,11.74,7.22z"/>
							<polygon points="11.9,6.37 11.82,6.46 11.91,6.44 							"/>
							<path d="M12.07,6.85l-0.02-0.11c-0.02,0.01-0.03,0-0.05-0.01C12.04,6.8,12.05,6.87,12.07,6.85z"/>
							<path d="M12.01,6.74C12,6.71,11.98,6.69,11.96,6.68C11.97,6.69,11.99,6.72,12.01,6.74z"/>
							<polygon points="12,6.48 12,6.52 12.03,6.58 							"/>
							<path d="M12.4,7.88l0.05,0.1c0.04,0,0.06-0.03,0.04-0.07C12.46,7.89,12.43,7.85,12.4,7.88z"/>
							<path d="M12.62,7.47c-0.01,0.04-0.04,0.05-0.07,0.07l0.14-0.03L12.62,7.47z"/>
							<path d="M12.74,7.8c0.04,0,0.14,0.15,0.1,0C12.8,7.79,12.75,7.68,12.74,7.8z"/>
							<polygon points="12.54,9.53 12.54,9.5 12.32,9.46 							"/>
							<path d="M12.41,11.22c0.13-0.1-0.1-0.11,0.03-0.19c-0.03-0.06-0.11,0.06-0.13,0.01C12.31,11.14,12.26,11.17,12.41,11.22z"/>
							<path d="M12.31,11.04c0-0.02,0-0.04-0.01-0.06C12.3,11.01,12.31,11.03,12.31,11.04z"/>
							<polygon points="8.28,5.09 8.36,5.14 8.31,5.06 							"/>
							<path d="M8.42,4.92l0.02,0.15l0.05-0.14C8.47,4.93,8.44,4.95,8.42,4.92z"/>
							<path d="M7.11,13.32l0.02-0.03c0-0.04-0.03-0.05-0.07-0.07L7.11,13.32z"/>
							<polygon points="5.92,12.66 5.94,12.67 5.97,12.54 							"/>
							<path d="M4.92,12.07c0.03,0.04,0.09,0.06,0.12,0.09C4.95,12.11,5.03,11.94,4.92,12.07z"/>
						</g>
					</g>
				</g>
				<g>
					<g>
						<g>
							<path d="M8.97,22.61c-0.11,0.06-0.02,0.12-0.03,0.14C9.11,22.62,8.95,22.6,8.97,22.61z"/>
							<polygon points="9.84,21.34 9.85,21.38 9.91,21.16 							"/>
							<path d="M10.65,20.32c-0.2,0-0.27,0.39-0.46,0.53l-0.05,0.01l0.04,0.16C10.34,20.79,10.5,20.45,10.65,20.32z"/>
							<path d="M11.36,19.99c-0.08,0,0.05-0.15-0.12,0.12c0.01-0.01,0.02-0.01,0.03-0.01C11.29,20.07,11.32,20.04,11.36,19.99z"/>
							<path d="M11.27,20.09C11.19,20.21,11.37,20.05,11.27,20.09L11.27,20.09z"/>
							<path d="M11.63,19.56l-0.06,0.18c0.05-0.01,0.16-0.13,0.14-0.07C11.8,19.51,11.75,19.52,11.63,19.56z"/>
							<path d="M11.64,19.36l-0.04,0.09C11.63,19.44,11.65,19.43,11.64,19.36z"/>
							<path d="M11.53,19.64l0.08-0.19c-0.04,0.01-0.08-0.02-0.04,0.08C11.54,19.49,11.55,19.55,11.53,19.64z"/>
							<path d="M11.44,19.71c-0.09,0.06-0.19,0.15-0.12-0.03C11.12,19.97,11.24,20,11.44,19.71z"/>
							<path d="M10.56,20.17l-0.12,0.08l-0.03,0.13C10.43,20.31,10.61,20.19,10.56,20.17z"/>
							<path d="M12.38,18.7c-0.02-0.03-0.11,0-0.15-0.02l-0.05,0.13C12.24,18.78,12.33,18.68,12.38,18.7z"/>
							<path d="M12.22,18.69l0.07-0.2C12.18,18.63,12.19,18.67,12.22,18.69z"/>
							<polygon points="11.52,19.22 11.42,19.56 11.56,19.17 							"/>
							<polygon points="12.83,18.08 12.83,18.22 12.85,17.99 							"/>
							<path d="M13.11,17.66c0.01,0.11,0.16-0.03,0.14,0.06c0.07-0.12,0.09-0.25,0.11-0.37C13.32,17.46,13.25,17.56,13.11,17.66z"/>
							<path d="M13.4,17.16c-0.02,0.06-0.03,0.12-0.04,0.19C13.38,17.29,13.4,17.23,13.4,17.16z"/>
							<path d="M12.51,18.22c0.03,0,0.09,0.01,0.17-0.07l-0.12,0.01C12.54,18.18,12.52,18.2,12.51,18.22z"/>
							<path d="M12.55,18.16L12.55,18.16c0.06-0.07,0.09-0.12,0.11-0.14C12.64,18.04,12.61,18.08,12.55,18.16z"/>
							<path d="M12.5,18.24l0.01-0.02C12.5,18.22,12.49,18.22,12.5,18.24z"/>
							<path d="M11.9,18.85c0.03-0.13,0.12-0.36-0.08-0.22C11.82,18.74,11.94,18.66,11.9,18.85z"/>
							<path d="M12.34,18.25l-0.14,0.16c0.02,0.01,0.08,0,0.06,0.07L12.34,18.25z"/>
							<polygon points="12.38,18.14 12.34,18.25 12.39,18.19 							"/>
							<path d="M13.12,17.41c0.02-0.1,0.07-0.19,0.13-0.28c-0.08,0.09-0.16,0.19-0.23,0.29C13.03,17.45,13.05,17.52,13.12,17.41z"/>
							<path d="M12.84,17.77l0.01-0.02C12.83,17.76,12.82,17.76,12.84,17.77z"/>
							<polygon points="13.87,16.2 13.84,16.2 13.85,16.21 							"/>
							<path d="M12.99,17.43c-0.07,0.06-0.08,0.12-0.08,0.18c0.03-0.06,0.07-0.13,0.11-0.19C13.01,17.41,13,17.4,12.99,17.43z"/>
							<path d="M13.54,16.88c-0.04,0.03-0.09,0.06-0.13,0.1C13.45,16.96,13.55,16.91,13.54,16.88z"/>
							<path d="M12.88,17.74c0,0,0,0.01,0,0.01C12.91,17.74,12.9,17.74,12.88,17.74z"/>
							<path d="M12.88,17.74c0.02-0.05,0.02-0.09,0.02-0.13c-0.03,0.05-0.05,0.1-0.06,0.14C12.86,17.75,12.87,17.74,12.88,17.74z"/>
							<path d="M13.53,15.58c0.07,0.06,0.01,0.31-0.18,0.43c-0.05,0.21,0.27,0.26,0.5,0.2c-0.03-0.03-0.06-0.05,0.01-0.25
								c-0.08,0.04-0.35,0.33-0.32,0.14c0.11-0.26,0.15-0.17,0.26-0.26c-0.16,0.04,0.05-0.39-0.12-0.42l-0.08,0.24
								C13.57,15.63,13.58,15.53,13.53,15.58z"/>
							<path d="M13.62,16.53l-0.04,0.08c0.07-0.07,0.14-0.11,0.27-0.18c0.04-0.15,0.03-0.19,0.01-0.21l-0.24,0.35L13.62,16.53z"/>
							<path d="M13.36,16.94c-0.04-0.11,0.04-0.31-0.12-0.26c-0.13,0.21-0.03,0.19-0.08,0.34c0.21-0.35-0.02,0.13,0.19-0.09
								c-0.03,0.08-0.07,0.14-0.1,0.2c0.05-0.05,0.1-0.11,0.16-0.15l-0.01,0l0,0l0,0c-0.02,0.01-0.03,0.01-0.01,0l0-0.01
								C13.37,16.96,13.37,16.95,13.36,16.94c0.08-0.09,0.03,0,0.02,0.04l0.01,0.01l0,0l0.18-0.37
								C13.52,16.68,13.46,16.77,13.36,16.94z"/>
							<path d="M11.78,18.34c0.01-0.01,0.02,0,0.03,0C11.81,18.31,11.81,18.3,11.78,18.34z"/>
							<path d="M11.93,18.24c-0.01,0.03,0.01,0.07-0.05,0.15c-0.07,0.05-0.04-0.03-0.07-0.04c-0.01,0.06-0.06,0.21,0.08,0.09
								l0.01-0.03c0.12-0.11,0.35-0.21,0.34-0.18C12.14,18.2,12.06,18.2,11.93,18.24z"/>
							<path d="M12.63,17.57l0.16-0.31l-0.17,0.09l0.05,0.02C12.54,17.53,12.62,17.53,12.63,17.57z"/>
							<polygon points="13.93,16.19 13.99,16.28 13.98,16.04 							"/>
							<polygon points="14.16,15.81 14.23,15.87 14.24,15.74 							"/>
							<path d="M4.15,2.66L4.09,2.74C4.12,2.7,4.14,2.68,4.15,2.66z"/>
							<path d="M4.71,2.3L4.7,2.25C4.69,2.29,4.69,2.31,4.71,2.3z"/>
							<path d="M16.2,5.17c0.01-0.17,0.06-0.39-0.02-0.33l-0.07,0.09C16.17,5.02,16.19,5.1,16.2,5.17z"/>
							<path d="M10.13,0.91l0.03,0.04c0.04-0.02,0.08-0.05,0.12-0.07C10.24,0.88,10.19,0.89,10.13,0.91z"/>
							<path d="M9.95,1.28l-0.17-0.1C9.82,1.21,9.88,1.25,9.95,1.28z"/>
							<path d="M1.92,5.51l0.05,0.14C2.03,5.5,1.96,5.54,1.92,5.51z"/>
							<path d="M16.32,11.74c0.08-0.11,0.14-0.2,0.17-0.29C16.38,11.58,16.26,11.67,16.32,11.74z"/>
							<path d="M3.78,1.64c-0.04,0.05-0.06,0.08-0.04,0.1C3.79,1.69,3.81,1.65,3.78,1.64z"/>
							<path d="M16.62,11.08c-0.02,0.02-0.03,0.04-0.04,0.06c-0.01,0.1-0.03,0.2-0.08,0.31C16.57,11.35,16.64,11.23,16.62,11.08z"/>
							<path d="M5.58,17.89c0,0.01,0.01,0.02,0.01,0.03C5.61,17.92,5.6,17.9,5.58,17.89z"/>
							<path d="M7.36,21.78c-0.03-0.03-0.07-0.08-0.11-0.13C7.26,21.67,7.29,21.71,7.36,21.78z"/>
							<path d="M15.12,14.29C15.08,14.38,15.13,14.31,15.12,14.29L15.12,14.29z"/>
							<path d="M14.56,14.49c0-0.02,0-0.04-0.02-0.06C14.55,14.45,14.56,14.47,14.56,14.49z"/>
							<path d="M16.25,9.99L16.25,9.99C16.23,10.01,16.23,10.01,16.25,9.99z"/>
							<path d="M15.01,14.39c0.03-0.02,0.06-0.06,0.09-0.09C15.08,14.32,15.06,14.34,15.01,14.39z"/>
							<path d="M15.06,14.4c-0.02,0.03-0.04,0.05-0.05,0.07C15.02,14.48,15.04,14.48,15.06,14.4z"/>
							<path d="M15.19,14.17c-0.03,0.05-0.06,0.09-0.09,0.13c0.02-0.01,0.02-0.02,0.02-0.01C15.14,14.27,15.16,14.23,15.19,14.17z"
								/>
							<path d="M1.47,11.56c0,0.01,0,0.01,0,0.02C1.54,11.65,1.52,11.61,1.47,11.56z"/>
							<polygon points="14.04,3.67 14.05,3.67 14.04,3.66 							"/>
							<path d="M13.77,3.49c0.18,0.01,0.22,0.08,0.27,0.17l0.14-0.27L13.77,3.49z"/>
							<path d="M2.99,3.76c0.07-0.04,0.14-0.07,0.21-0.1c-0.07,0.29-0.22,0.4,0,0.33C2.99,3.75,3.75,3.37,3.56,3.13l0.15-0.05
								C3.68,3.11,3.69,3.13,3.66,3.15c0.31-0.06,0-0.31,0.33-0.5C4.1,2.59,4.2,2.58,4.15,2.66c0.06-0.08,0.12-0.15,0.19-0.22
								c0.07-0.04,0.08,0.02,0.01,0.06C4.46,2.4,4.58,2.32,4.7,2.24l0,0.01c0.03-0.07,0.11-0.21,0.16-0.27
								c0.12-0.01-0.03,0.05,0.01,0.08l0.18-0.18c0.12,0.03-0.02,0.19-0.17,0.25c0.34,0.18,0.14-0.17,0.65-0.2L5.35,2.06
								c0.2,0.1,0.33-0.03,0.6-0.01C5.88,2.01,5.39,1.98,5.59,1.81C5.67,1.8,5.76,1.78,5.87,1.67c0.04,0.1,0.16,0.03,0.32-0.03
								l0.03,0.14c0.16-0.09,0.13-0.16,0.21-0.26c0.21-0.04,0.27,0.06,0.34,0.14C7.1,1.61,6.52,1.55,6.89,1.43
								c0.28,0,0.46-0.1,0.78-0.23c0.2,0.03-0.02,0.09,0.05,0.12l0.16-0.13c0.04,0,0.03,0.04,0.03,0.05c0.14-0.06,0-0.15,0.23-0.2
								C8.18,0.88,8.6,1.26,8.88,1.09c0.07,0.05-0.04,0.09-0.02,0.14c0.39-0.1,0.33-0.07,0.67-0.19l0.26,0.14
								c-0.18-0.14,0.09-0.23,0.35-0.28c-0.06-0.07-0.12-0.13-0.15-0.16l0.39,0.01c0.04,0.03-0.01,0.07-0.09,0.12
								c0.03-0.01,0.05-0.01,0.08-0.02c0.12,0.09,0.03,0.15-0.08,0.2l-0.11-0.12c-0.11,0.07-0.21,0.14-0.21,0.23
								c0.03-0.01,0.07-0.02,0.12-0.01c-0.03,0.02-0.05,0.04-0.04,0.05c0.01,0.02,0.05-0.01,0.12-0.03l0.04,0.18l0.03-0.06
								c0.14,0.07,0.28,0.15,0.42,0.22c0.36-0.05,0.73-0.17,1.26,0.02c-0.18,0.05-0.11,0.16-0.18,0.28c-0.07-0.2-0.4-0.13-0.64-0.25
								c0.13,0.07,0.07,0.12,0.03,0.13c0.17,0.02,0.33,0.05,0.5,0.08c-0.06,0.1,0.06,0.12,0.15,0.22c0.02-0.25,0.39,0.04,0.61,0.08
								c-0.03,0.07-0.11,0.11-0.31-0.02c0.15,0.27,0.44-0.06,0.59,0.21c-0.05-0.03-0.07-0.06-0.11-0.04
								c0.16,0.01,0.41,0.25,0.31,0.26L12.8,2.47c0.32,0.23,0.94,0.75,1.11,0.66c-0.01,0.02-0.2,0.13-0.24,0.14
								c0.32,0,0.64,0.03,0.97,0.08c-0.17,0.06-0.31,0.5-0.6,0.32c0.05,0.08,0.1,0.19,0.27,0.3c-0.02-0.06,0.08-0.28,0.15-0.22
								c0.01,0.31,0.04,0.19,0.08,0.53c-0.03-0.1,0.25-0.16,0.33-0.03c-0.05,0-0.21,0.15-0.26,0.12c0.15,0.05,0.28,0.12,0.42,0.18
								c-0.09-0.06-0.19,0.1-0.21,0.21c0.03-0.06,0.16,0.28,0.22,0.36l-0.02-0.17c0.16,0.39,0.51,0.22,0.68,0.63
								c-0.07-0.03-0.35,0.01-0.3,0.22c0.15,0.04,0.75,0.2,0.96,0.57l-0.05,0.09l0.16,0.28c-0.23-0.15-0.77-0.54-1.02-0.74
								c0,0.17-0.06,0.07,0.02,0.29c-0.04,0.1-0.14-0.09-0.17-0.15c0.05,0.17,0.08,0.36,0.12,0.53c0.15-0.07,0.25,0.37,0.37,0.32
								c-0.1-0.19-0.2-0.37-0.31-0.54c0.14-0.07,0.52,0.22,0.58,0.63c-0.04,0.11-0.28-0.02-0.33,0c0.07,0.04,0.17,0.35,0.14,0.39
								l-0.11-0.15c-0.02,0.22,0.28,0.33,0.14,0.57c-0.01,0.08-0.19,0.3-0.1,0.32c0.17-0.19,0.71-0.21,0.84-0.12
								c0,0.04-0.08,0.19-0.1,0.4c-0.03,0.11-0.07,0.19-0.1,0.22c-0.14,0.15-0.33-0.22-0.44-0.1c0.04,0,0.09,0.09,0.11,0.13
								C16.08,8.84,15.99,8.74,16,8.88c0.15,0.06-0.07,0.48,0.12,0.13c0.01,0.23-0.05,0.22-0.07,0.47c0.11-0.07,0.32,0.25,0.32,0.48
								c-0.04-0.02-0.09,0.02-0.12,0.04c-0.09,0.43-0.22,0.64-0.34,1.02c-0.05,0.02-0.15,0.19-0.19,0.09c0.01,0.06,0.04,0.13,0,0.25
								c-0.21,0.17,0.08-0.26-0.14-0.15c0.08,0.05,0,0.34-0.02,0.53c0.15,0.01,0.18-0.37,0.19-0.55c0.18,0.06,0.26,0.43,0.17,0.87
								c-0.1,0.34-0.17,0.09-0.17,0.15c-0.3,0.57,0.06,0.65-0.31,1.06c-0.21,0.13-0.22-0.11-0.32-0.11
								c0.09-0.27,0.27-0.34,0.35-0.51l-0.16,0.18c0-0.1,0.06-0.28,0.13-0.35c-0.17,0.11-0.51,0.95-0.84,1.33
								c-0.01,0.1-0.05,0.25,0.03,0.21l0.06-0.14c0.16-0.08-0.03,0.32,0.11,0.17c-0.05,0.22-0.07,0.48-0.27,0.7l-0.15-0.02
								c0.04,0.02,0.17-0.12,0.18-0.22c-0.01,0.14-0.39,0.29-0.31,0.5l0.19-0.13c-0.05,0.22-0.06,0.52-0.24,0.72
								c0.18-0.03,0.02-0.06,0.25-0.13c-0.25,0.03,0.36-0.57,0.04-0.46c0.26-0.07,0.24-0.24,0.5-0.38
								c-0.04-0.02-0.12,0.03,0.01-0.15c-0.01-0.02-0.01-0.04-0.01-0.06l0.01-0.01L15,14.4c0-0.01,0-0.01,0,0
								c-0.04,0.04-0.09,0.06-0.12,0.06c-0.04-0.15,0.14-0.45,0.15-0.58c0.08-0.1,0.02,0.07,0.1,0.04l0.02-0.2
								c0.1,0.03,0.32-0.23,0.22,0.08l0.14-0.24c0.13-0.12,0.26-0.31,0.28-0.46c0.08-0.11,0.05-0.35,0.07-0.21L16,12.46l0.02,0.01
								c0.2-0.4,0.21-0.88,0.55-1.32c0.02-0.16,0.04-0.32,0.13-0.56l0.1-0.03c0.02-0.2,0.2-0.58,0.12-0.68
								c0.13-0.09,0.18-0.34,0.18-0.6c0-0.16,0-0.17,0.02-0.34c0-0.25-0.01-0.21,0-0.4l-0.12-0.01l0-0.08
								c-0.02-0.08-0.04-0.17-0.07-0.27c-0.02-0.1-0.04-0.21-0.06-0.34l-0.1,0.02c-0.1-0.3-0.02-0.67-0.12-1.07
								C16.7,6.8,16.71,6.9,16.7,6.98c0.12-0.52-0.4-0.93-0.4-1.38c-0.07-0.09-0.08-0.17-0.09-0.25l0.02,0.02
								c0-0.01-0.01-0.03-0.02-0.04c0-0.05-0.01-0.11-0.01-0.16c0,0.05-0.01,0.1,0,0.14c-0.04-0.08-0.1-0.19-0.17-0.29l0.08-0.09
								C16.1,4.92,16.1,4.91,16.09,4.9C16.08,4.77,16,4.84,15.96,4.93c-0.04-0.05-0.09-0.09-0.13-0.12c0.11-0.17-0.2-0.26-0.1-0.47
								c-0.12-0.03-0.39-0.5-0.59-0.43c0.02-0.02,0.01-0.05,0.05,0c-0.06-0.12-0.12-0.25-0.24-0.31l0.07-0.13l-0.33-0.11
								c-0.05-0.19-0.07-0.28,0.13-0.22c-0.42-0.21-0.28-0.23-0.66-0.36l0.07-0.05c-0.1-0.09-0.33-0.14-0.34-0.25
								c-0.1-0.34-1.13-0.91-1.74-1.36c0.01,0.3-0.26-0.26-0.38-0.09c-0.01-0.08-0.09-0.15,0.04-0.15c-0.38-0.1-0.51-0.32-0.83-0.25
								c-0.02-0.07,0.11-0.06,0.08-0.11c-0.03,0-0.14,0.01-0.16-0.04c-0.03-0.05,0.07-0.03,0.14-0.04c-0.4-0.11-0.49,0.07-0.56,0.23
								c-0.17-0.13-0.27-0.14-0.44-0.06c-0.06-0.07-0.16-0.16,0.09-0.13C9.99,0.47,9.29,0.29,9.27,0.44
								C9.23,0.4,9.08,0.42,9.04,0.43C8.73,0.41,8.7,0.39,8.4,0.41l0.08,0.02C8.37,0.61,8.24,0.48,8,0.51L8,0.49
								C7.44,0.42,7.78,0.57,7.21,0.51l0.05,0.1c-0.01,0.24-0.5-0.05-0.79,0.12L6.6,0.76C6.45,0.87,6.05,0.57,5.86,0.6
								c-0.04-0.01,0.05-0.05,0.1-0.08C5.47,0.53,5.94,0.67,5.63,0.81C5.54,0.76,5.64,0.6,5.41,0.67C5.27,0.65,4.87,1.15,4.53,1.18
								C4.62,1.2,4.71,1.22,4.58,1.33c-0.2,0.13-0.7,0.14-0.78,0.42c-0.04,0-0.05,0-0.06-0.01C3.61,1.89,3.29,2.17,3.28,2.32
								c-0.4-0.18-0.71,0.92-0.95,0.69c-0.12,0.15-0.24,0.3-0.36,0.45L1.96,3.43C1.71,3.71,1.7,3.87,1.7,4.02
								C1.64,4.08,1.65,4.01,1.63,3.99C1.28,4.4,1.27,4.46,1.2,4.93L1.08,4.92c0,0.13-0.51,0.64-0.54,1.2
								C0.53,6.12,0.51,6.1,0.51,6.05C0.45,6.65-0.12,7.41,0.26,7.68l0.06,0.39C0.4,7.59,0.5,8.16,0.58,7.97
								c0,0.19-0.15,0.49-0.16,0.25l0.02-0.04c-0.21-0.1-0.1,0.62-0.23,0.6c0.03,1,0.13,1.99,0.46,2.87l0.12-0.16l0.11,0.3
								c0,0.09-0.08,0.16-0.16-0.06c-0.05,0.15,0.22,0.33,0.25,0.32c0.12,0.44-0.25-0.08-0.2,0.04l0.09,0.17l0-0.05
								c0.13,0.11,0.19,0.1,0.31,0.35c0.05,0.17-0.05,0.13-0.03,0.19c-0.01,0-0.01,0.03,0.04,0.1l0.17,0.36l0.04-0.2
								c0.14,0.12,0.17,0.33,0.21,0.1c-0.08,0.35,0.64,1.33,0.67,1.5c0.21,0.16,0.33,0.37,0.48,0.63c-0.02-0.08,0.09-0.19,0.21,0.04
								c-0.31,0.08,0.14,0.47,0.07,0.76c0.02-0.23,0.43,0.6,0.44,0.24c0.1,0.19-0.09,0.07-0.06,0.25c0.38,0.36,0.57,0.98,0.97,1.48
								c0.04-0.02,0.03-0.14,0.15-0.06l0.03,0.39c0.09,0.09,0.25-0.04,0.28,0.23c0.01-0.05,0.02-0.11,0.08-0.05
								c0.57,1.13,1.66,1.92,2.18,3.12c-0.05-0.18,0.03-0.1,0.11,0c-0.04-0.08,0.08-0.06,0.11-0.11l0.22,0.51
								c0.13-0.03,0.5,0.47,0.62,0.39l-0.16-0.11c0.28,0.02-0.01-0.52,0.2-0.62c-0.3-0.05-0.19-0.68-0.66-0.81
								c-0.02-0.1,0.1,0.01,0.11-0.05c-0.14-0.02-0.23-0.1-0.34-0.31l0.03,0.01c-0.42-0.49-0.53-0.75-0.92-1.36l-0.05,0.11
								c-0.08-0.13-0.08-0.18-0.1-0.25c-0.24-0.04,0.26,0.35,0.02,0.33c0.05-0.3-0.66-0.88-0.54-1.14c-0.14-0.19-0.06,0.13-0.2-0.06
								l0.02-0.09l-0.11,0c-0.08-0.13-0.06-0.25-0.02-0.29c0.02,0.03,0.08,0.08,0.1,0.11c-0.05-0.21-0.36-0.45-0.37-0.52l0.1,0.21
								c-0.43-0.49-0.81-1.2-1.26-1.65L4.03,16c-0.34-0.35-0.16-0.35-0.48-0.77l0.02,0.01c-0.1-0.06-0.2-0.17-0.27-0.29
								c0.12,0.08-0.03-0.27,0.11-0.16c-0.35-0.39-0.2-0.18-0.54-0.38l0.03-0.11c-0.12-0.06-0.17-0.05-0.32-0.27
								c0.17,0.15,0.03-0.21,0.23-0.05c-0.11-0.57-0.56-0.62-0.45-0.97c-0.33-0.11,0.12,0.48,0,0.38c-0.01,0.14-0.25-0.1-0.32-0.26
								c-0.08-0.16,0.11-0.41-0.08-0.79c0.02,0.04,0.04,0.03,0.05,0.07c-0.02-0.17-0.21-0.25-0.21-0.47
								c-0.17-0.04-0.1-0.24-0.27-0.2l0.2,0.35c-0.13-0.18-0.42-0.3-0.46-0.69c0.04,0.01,0.13,0.1,0.18,0.16
								c0.01-0.12-0.11-0.18-0.1-0.31c0.18-0.03,0.21,0.44,0.43,0.6c0.02-0.13-0.3-0.37-0.07-0.33c-0.3-0.07-0.12-0.4-0.39-0.61
								l0.11-0.01c-0.03-0.04-0.11-0.11-0.13-0.19l0.18,0.1c-0.19-0.19-0.02-0.45-0.13-0.65c0.11,0.44-0.1,0.13-0.13,0.34
								c-0.27-0.53,0.18-0.38,0.04-0.99c0.02,0.08-0.02,0.32-0.09,0.2c0-0.12,0.02-0.29,0.07-0.36C1.2,8.94,1.15,9.42,1.07,9.25
								C1.2,9.1,1,9.05,0.96,8.87l0.11,0C1.13,8.38,0.83,8.73,0.93,8.3l0.14,0.19L1.04,8.26l0.12,0.05
								C1.08,8.07,1.12,7.98,1.18,7.75C1.09,7.8,0.98,7.69,1.01,7.48C1.1,7.34,1.1,7.57,1.13,7.27c0.05,0.08,0.13,0.17,0.01,0.28
								C1.18,7.57,1.2,7.63,1.24,7.65c0.09-0.14,0.08-0.38,0.1-0.49C1.32,7.2,1.31,7.24,1.29,7.27C1.26,7.11,1.24,6.96,1.23,6.81
								c0.06-0.06,0.08,0,0.09,0.06c0.01-0.09-0.03-0.16,0-0.29C1.4,6.64,1.49,6.65,1.49,6.84L1.5,6.42
								C1.54,6.4,1.67,6.25,1.68,6.31C1.8,6.12,1.71,5.74,1.9,5.49C1.9,5.47,1.9,5.44,1.91,5.37c0.15-0.24,0.37-0.4,0.46-0.75
								l0.24-0.07c0.12-0.24-0.32,0.1-0.11-0.3c0.15-0.29,0.18-0.01,0.28-0.07c0.03-0.17,0.08-0.49,0.37-0.62
								C3.11,3.65,3.04,3.69,2.99,3.76z M5.59,1.81C5.54,1.85,5.45,1.97,5.38,1.93C5.4,1.79,5.47,1.82,5.59,1.81z M10.57,1.24
								c-0.06,0.02-0.12-0.02-0.2-0.08C10.44,1.16,10.51,1.19,10.57,1.24z M15.55,13.33L15.55,13.33
								C15.66,13.21,15.62,13.25,15.55,13.33z M15.36,13.6c0,0.04,0.01,0.04,0.03,0.04c-0.01-0.03,0.02-0.1,0.07-0.17
								C15.42,13.47,15.38,13.5,15.36,13.6z M1.21,12.77l0-0.07C1.3,12.82,1.26,12.79,1.21,12.77z"/>
							<path d="M9.97,1.24C9.96,1.22,9.96,1.2,9.96,1.18C9.93,1.19,9.93,1.21,9.97,1.24z"/>
							<path d="M1.91,5.48L1.91,5.48c0,0.02,0,0.02,0.01,0.03L1.91,5.48z"/>
							<path d="M15.95,8.74c0.02-0.06,0.04-0.11,0.06-0.12C15.98,8.61,15.96,8.64,15.95,8.74z"/>
							<path d="M14.67,15.16l0.08-0.19c-0.05,0.09-0.09,0.11-0.13,0.14C14.65,15.12,14.7,15.1,14.67,15.16z"/>
							<path d="M13.15,16.3c-0.01,0.03-0.03,0.05-0.04,0.08l0.05,0.02C13.22,16.29,13.24,16.2,13.15,16.3z"/>
							<path d="M14.26,15.13c-0.09-0.03-0.13,0.09-0.19,0.22l0.01-0.02C14.17,15.44,14.21,15.28,14.26,15.13z"/>
							<path d="M14.06,15.38c-0.02,0.04-0.04,0.08-0.07,0.11C14.02,15.54,14.03,15.46,14.06,15.38z"/>
							<path d="M15.21,13.98c-0.05,0.05,0.08,0.1,0.03,0.11C15.31,14.22,15.34,13.63,15.21,13.98z"/>
							<polygon points="13.94,15.07 14.06,15.09 14.03,14.97 							"/>
							<path d="M14.59,14.15l-0.14,0.18c0.02,0.01,0.01,0.04,0,0.07C14.52,14.29,14.62,14.17,14.59,14.15z"/>
							<path d="M14.45,14.41c-0.04,0.06-0.07,0.12-0.08,0.17C14.39,14.54,14.43,14.46,14.45,14.41z"/>
							<polygon points="14.07,14.79 14.13,14.75 14.22,14.61 							"/>
							<path d="M15.74,11.99l0.07-0.24c-0.03-0.04-0.07,0.01-0.1,0.11C15.71,11.92,15.69,12.01,15.74,11.99z"/>
							<path d="M15.14,12.54c0.05-0.05,0.08-0.04,0.13-0.06l-0.12-0.07L15.14,12.54z"/>
							<path d="M15.41,11.88c-0.02-0.04,0.04-0.37-0.08-0.08C15.36,11.83,15.29,12.07,15.41,11.88z"/>
							<polygon points="16.3,8.37 16.32,8.44 16.54,8.38 							"/>
							<path d="M15.04,5.45c0.06,0.27,0.16,0,0.19,0.25c0.08,0.04-0.03-0.21,0.04-0.17C15.15,5.41,15.14,5.32,15.04,5.45z"/>
							<path d="M15.27,5.54c0.02,0.02,0.04,0.04,0.07,0.06C15.3,5.57,15.28,5.55,15.27,5.54z"/>
							<polygon points="7.78,22.43 7.94,22.63 7.87,22.46 							"/>
							<path d="M8.44,22.58l0.04,0.15l0.11-0.13C8.56,22.6,8.48,22.61,8.44,22.58z"/>
							<path d="M6.14,1.92l0-0.04c-0.04-0.03-0.08-0.02-0.15,0L6.14,1.92z"/>
							<polygon points="4.06,2.91 4.1,2.88 3.96,2.82 							"/>
							<path d="M2.84,4.41C2.89,4.35,2.92,4.26,2.98,4.2C2.89,4.35,2.7,4.33,2.84,4.41z"/>
						</g>
					</g>
				</g>
			</g>
		</g>
	</g>
</g>
</svg>
