<?xml version="1.0" encoding="utf-8"?>
<!-- Generator: Adobe Illustrator 27.1.1, SVG Export Plug-In . SVG Version: 6.00 Build 0)  -->
<svg version="1.1" id="Layer_1" xmlns="http://www.w3.org/2000/svg" xmlns:xlink="http://www.w3.org/1999/xlink" x="0px" y="0px"
	 viewBox="0 0 46.87 24.69" style="enable-background:new 0 0 46.87 24.69;" xml:space="preserve">
<style type="text/css">
	.st0{fill:#FFD400;}
	.st1{fill:#010101;}
	.st2{fill:#FFFFFF;}
	.st3{fill:none;}
	.st4{fill:#FED519;}
</style>
<g>
	<path class="st4" d="M13.55,2.14c-0.2-0.02-0.13,0.22-0.16,0.26C13.72,2.35,13.54,2.08,13.55,2.14z"/>
	<polygon class="st4" points="16.84,1.66 16.78,1.75 17.27,1.53 	"/>
	<path class="st4" d="M19.9,1.78c-0.27-0.42-1.11,0.01-1.65-0.15l-0.09-0.1l-0.26,0.32C18.57,1.82,19.44,1.64,19.9,1.78z"/>
	<path class="st4" d="M21.46,2.75c-0.09-0.16,0.36-0.11-0.37-0.07c0.04,0.02,0.05,0.03,0.07,0.04C21.22,2.72,21.31,2.72,21.46,2.75z
		"/>
	<path class="st4" d="M21.16,2.72C20.84,2.71,21.36,2.86,21.16,2.72L21.16,2.72z"/>
	<path class="st4" d="M22.63,2.73L22.2,2.84c0.08,0.1,0.45,0.15,0.31,0.21C22.94,3.01,22.86,2.91,22.63,2.73z"/>
	<path class="st4" d="M23.05,2.47l-0.22,0.04C22.86,2.56,22.92,2.57,23.05,2.47z"/>
	<path class="st4" d="M22.36,2.6l0.47-0.09c-0.05-0.07-0.05-0.2-0.21,0.03C22.66,2.43,22.56,2.53,22.36,2.6z"/>
	<path class="st4" d="M22.1,2.52c-0.23-0.11-0.53-0.18-0.1-0.29C21.2,2.23,21.3,2.52,22.1,2.52z"/>
	<path class="st4" d="M20.08,1.37l-0.31-0.13l-0.28,0.12C19.62,1.29,20.09,1.49,20.08,1.37z"/>
	<path class="st4" d="M25.19,3.21c0.04-0.08-0.11-0.25-0.13-0.36l-0.32,0.06C24.9,2.99,25.19,3.07,25.19,3.21z"/>
	<path class="st4" d="M25.06,2.85l0.48-0.09C25.13,2.69,25.05,2.75,25.06,2.85z"/>
	<polygon class="st4" points="23.17,2.03 22.38,2.28 23.31,2.04 	"/>
	<polygon class="st4" points="26.92,3.46 26.64,3.61 27.14,3.38 	"/>
	<path class="st4" d="M28.07,3.61c-0.22,0.13,0.21,0.32-0.01,0.38c0.31,0.03,0.6-0.06,0.86-0.14C28.66,3.88,28.39,3.8,28.07,3.61z"
		/>
	<path class="st4" d="M29.35,3.75c-0.13,0.01-0.28,0.06-0.43,0.1C29.06,3.84,29.2,3.81,29.35,3.75z"/>
	<path class="st4" d="M26.31,2.9c0.03,0.06,0.08,0.2,0.32,0.3l-0.14-0.27C26.44,2.93,26.38,2.92,26.31,2.9z"/>
	<path class="st4" d="M26.49,2.93L26.49,2.93c0.2,0.04,0.33,0.07,0.39,0.08C26.83,3,26.71,2.97,26.49,2.93z"/>
	<path class="st4" d="M26.27,2.9l0.05,0.01C26.3,2.88,26.29,2.87,26.27,2.9z"/>
	<path class="st4" d="M24.36,2.37c0.29-0.1,0.87-0.18,0.34-0.45C24.49,2.06,24.79,2.21,24.36,2.37z"/>
	<path class="st4" d="M26.09,2.57L25.6,2.45c0,0.06,0.08,0.17-0.06,0.22L26.09,2.57z"/>
	<polygon class="st4" points="26.34,2.52 26.09,2.57 26.26,2.61 	"/>
	<path class="st4" d="M28.58,3.37c0.23-0.06,0.45-0.03,0.71,0c-0.26-0.1-0.54-0.18-0.81-0.23C28.43,3.21,28.29,3.32,28.58,3.37z"/>
	<path class="st4" d="M27.57,3.12l0.05-0.01C27.59,3.09,27.57,3.08,27.57,3.12z"/>
	<polygon class="st4" points="31.78,3.96 31.76,3.9 31.74,3.94 	"/>
	<path class="st4" d="M28.44,3.09c-0.2-0.09-0.33-0.05-0.46,0.01c0.16,0,0.33,0.01,0.5,0.05C28.5,3.11,28.51,3.09,28.44,3.09z"/>
	<path class="st4" d="M30.07,3.79c-0.1-0.07-0.21-0.14-0.33-0.21C29.83,3.68,30.02,3.84,30.07,3.79z"/>
	<path class="st4" d="M27.68,3.19L27.65,3.2C27.7,3.26,27.7,3.24,27.68,3.19z"/>
	<path class="st4" d="M27.68,3.19c0.11-0.02,0.21-0.06,0.3-0.1c-0.13,0-0.25,0-0.36,0.02C27.64,3.14,27.66,3.17,27.68,3.19z"/>
	<path class="st4" d="M32.96,2.67c-0.1,0.2-0.7,0.25-1.11-0.1C31.34,2.6,31.47,3.4,31.76,3.9c0.04-0.09,0.06-0.18,0.56-0.18
		c-0.13-0.16-0.97-0.56-0.52-0.65c0.66,0.06,0.49,0.21,0.76,0.41c-0.18-0.35,0.9-0.16,0.89-0.59l-0.59-0.03
		C32.87,2.81,33.1,2.77,32.96,2.67z"/>
	<path class="st4" d="M30.87,3.66l-0.2-0.02c0.21,0.09,0.35,0.22,0.59,0.45c0.34-0.02,0.43-0.08,0.47-0.15
		c-0.31-0.1-0.62-0.18-0.94-0.27L30.87,3.66z"/>
	<path class="st4" d="M29.81,3.44c0.2-0.21,0.7-0.21,0.46-0.53c-0.58-0.11-0.45,0.11-0.81,0.14c0.94,0.14-0.29,0.08,0.35,0.35
		c-0.19,0-0.35-0.02-0.51-0.04c0.16,0.06,0.31,0.13,0.45,0.21l-0.02-0.02l0,0l0,0c-0.03-0.04-0.04-0.06,0-0.03c0,0,0.02,0,0.02,0
		C29.76,3.49,29.78,3.47,29.81,3.44c0.26,0.11,0.03,0.07-0.06,0.08c-0.01,0.01-0.02,0.02-0.02,0.03l0,0l0.95,0.07
		C30.49,3.56,30.24,3.51,29.81,3.44z"/>
	<path class="st4" d="M25.28,1.45C25.3,1.48,25.3,1.5,25.3,1.51C25.37,1.49,25.39,1.48,25.28,1.45z"/>
	<path class="st4" d="M25.65,1.65c-0.07,0.02-0.14,0.11-0.37,0.06c-0.19-0.1,0.01-0.12,0.01-0.2c-0.14,0.05-0.5,0.12-0.08,0.29
		l0.07-0.02c0.37,0.13,0.83,0.5,0.75,0.52C25.96,2.07,25.88,1.9,25.65,1.65z"/>
	<path class="st4" d="M27.8,2.45l0.81,0.02l-0.36-0.28l0,0.13C27.8,2.19,27.87,2.36,27.8,2.45z"/>
	<polygon class="st4" points="31.84,4.1 31.67,4.32 32.2,4.08 	"/>
	<polygon class="st4" points="32.82,4.34 32.72,4.55 33.01,4.49 	"/>
	<path class="st4" d="M5.98,22.64l-0.27-0.05C5.84,22.63,5.92,22.64,5.98,22.64z"/>
	<path class="st4" d="M7.75,23.28l0.07-0.09C7.73,23.22,7.68,23.25,7.75,23.28z"/>
	<path class="st4" d="M38.6,16.48c-0.39-0.07-0.86-0.24-0.73-0.02l0.19,0.19C38.26,16.53,38.44,16.49,38.6,16.48z"/>
	<path class="st4" d="M22.1,22.24l0.11,0.06c0.07-0.09,0.14-0.18,0.2-0.26C22.32,22.1,22.21,22.17,22.1,22.24z"/>
	<path class="st4" d="M21.99,23.28l-0.48-0.1C21.62,23.22,21.77,23.26,21.99,23.28z"/>
	<path class="st4" d="M1.91,13.64l-0.1-0.39C1.6,13.7,1.81,13.56,1.91,13.64z"/>
	<path class="st4" d="M42.1,8.64c0.17,0.24,0.33,0.4,0.48,0.53C42.4,8.86,42.29,8.53,42.1,8.64z"/>
	<path class="st4" d="M7.57,20.46c-0.14,0-0.21,0.02-0.23,0.08C7.49,20.54,7.58,20.53,7.57,20.46z"/>
	<path class="st4" d="M43.22,9.67c-0.02-0.05-0.05-0.09-0.08-0.14c-0.19-0.09-0.37-0.2-0.56-0.36C42.71,9.41,42.9,9.63,43.22,9.67z"
		/>
	<path class="st4" d="M33.18,0.68c0.03,0.01,0.06,0.01,0.08,0.03C33.26,0.67,33.23,0.67,33.18,0.68z"/>
	<path class="st4" d="M43.11,3.09c-0.1,0.01-0.26,0.01-0.41,0.01C42.78,3.12,42.9,3.12,43.11,3.09z"/>
	<path class="st4" d="M36.59,5.81C36.39,5.74,36.55,5.82,36.59,5.81L36.59,5.81z"/>
	<path class="st4" d="M35.99,4.51c0.05-0.01,0.1-0.03,0.13-0.08C36.07,4.48,36.03,4.5,35.99,4.51z"/>
	<path class="st4" d="M45.85,9.96l0.01,0.01C45.86,9.91,45.86,9.92,45.85,9.96z"/>
	<path class="st4" d="M36.34,5.58c0.06,0.06,0.14,0.12,0.22,0.18C36.53,5.72,36.46,5.66,36.34,5.58z"/>
	<path class="st4" d="M36.33,5.7c-0.06-0.04-0.11-0.07-0.16-0.09C36.13,5.64,36.15,5.66,36.33,5.7z"/>
	<path class="st4" d="M36.87,5.91c-0.11-0.04-0.21-0.1-0.31-0.16c0.03,0.03,0.04,0.05,0.03,0.05C36.65,5.83,36.73,5.86,36.87,5.91z"
		/>
	<path class="st4" d="M15.02,3.92c0.02,0,0.03,0,0.05,0.01C15.26,3.76,15.17,3.8,15.02,3.92z"/>
	<polygon class="st4" points="33.99,20.79 34.02,20.77 33.98,20.77 	"/>
	<path class="st4" d="M33.27,21.2c0.25-0.39,0.44-0.41,0.71-0.42l-0.46-0.6L33.27,21.2z"/>
	<path class="st4" d="M2.11,20.1l0.31,0.62C2,20.57,1.73,20.39,1.5,20.22c-0.21-0.19-0.24-0.1-0.04,0.33
		c0.36-0.21,0.78,0.26,1.31,0.65c0.5,0.42,1.07,0.73,1.3,0.43c0.09,0.12,0.17,0.25,0.27,0.36c-0.1-0.06-0.14-0.04-0.24-0.11
		c0.53,0.72,0.8-0.14,1.65,0.37c0.29,0.2,0.48,0.41,0.22,0.39c0.27,0.05,0.54,0.07,0.8,0.11c0.21,0.09,0.11,0.2-0.1,0.11
		c0.38,0.13,0.77,0.21,1.15,0.31l-0.01,0.02c0.2-0.06,0.61-0.16,0.8-0.19c0.26,0.18-0.16,0.05-0.11,0.16
		c0.22-0.01,0.44-0.02,0.66-0.04c0.22,0.25-0.35,0.33-0.78,0.19c0.42,0.89,0.56-0.05,1.77,0.61c-0.21,0.01-0.42,0-0.62-0.01
		c0.32,0.51,0.83,0.42,1.5,0.78c-0.16-0.15-1.3-0.87-0.57-0.96c0.19,0.08,0.44,0.16,0.83,0.03c-0.03,0.27,0.35,0.25,0.8,0.27
		l-0.06,0.36c0.51-0.07,0.48-0.26,0.77-0.41c0.54,0.06,0.65,0.34,0.77,0.58c0.88,0.08-0.6-0.47,0.44-0.51
		c0.72,0.14,1.24-0.01,2.08-0.26c0.5,0.1-0.08,0.23,0.11,0.32l0.43-0.31c0.11,0,0.08,0.09,0.06,0.14c0.36-0.13,0.01-0.36,0.59-0.49
		c0.13-0.41,1.23,0.51,1.91-0.01c0.19,0.09-0.07,0.23,0,0.36c0.96-0.39,0.83-0.28,1.59-0.78l0.71,0.16
		c-0.53-0.22,0.07-0.6,0.59-0.94c-0.19-0.11-0.36-0.2-0.46-0.24l0.86-0.31c0.11,0.04,0.04,0.18-0.08,0.35
		c0.05-0.04,0.11-0.08,0.15-0.11c0.33,0.09,0.2,0.32,0,0.55c-0.11-0.06-0.23-0.12-0.35-0.18c-0.19,0.25-0.37,0.52-0.29,0.72
		c0.05-0.05,0.16-0.1,0.28-0.14c-0.05,0.07-0.08,0.13-0.05,0.16c0.04,0.03,0.12-0.06,0.25-0.17l0.26,0.37l0.03-0.17l1.21,0.08
		c0.78-0.53,1.4-1.24,2.67-1.65c-0.27,0.36,0.02,0.49,0.07,0.84c-0.43-0.29-0.99,0.34-1.7,0.39c0.36-0.02,0.31,0.15,0.23,0.23
		l1.17-0.55c0.03,0.29,0.3,0.16,0.64,0.21c-0.35-0.51,0.84-0.54,1.29-0.83c0.07,0.18-0.01,0.4-0.62,0.48
		c0.76,0.28,0.72-0.84,1.45-0.63c-0.15,0.04-0.23,0.03-0.27,0.13c0.31-0.23,1.17-0.31,1.01-0.1l-0.15,0.04
		c0.99-0.15,2.95-0.76,2.96-1.27c0.03,0.06,0.03,0.59,0,0.71c0.43-0.68,0.84-1.37,1.23-2.06c-0.03,0.44,0.84,1.21,0.12,1.67
		c0.24-0.01,0.55-0.04,0.99-0.32c-0.17-0.01-0.57-0.45-0.37-0.55c0.72,0.26,0.47,0.1,1.31,0.24c-0.26-0.01-0.21-0.71,0.16-0.81
		c-0.03,0.11,0.24,0.6,0.13,0.7l0.69-0.92c-0.19,0.19,0.14,0.52,0.4,0.62c-0.14-0.08,0.79-0.27,1-0.42l-0.43,0.01
		c1.05-0.3,0.68-1.21,1.68-1.57c-0.07,0.17,0.01,0.87,0.55,0.74c0.12-0.4,0.42-1.87,1.06-2.51l0.24,0.08
		c0.17-0.17,0.32-0.35,0.47-0.53c-0.05,0.64-0.71,2.16-1.23,2.81c0.44-0.04,0.2,0.16,0.77-0.13c0.28,0.06-0.2,0.39-0.37,0.48
		c0.47-0.17,0.94-0.36,1.41-0.58c-0.24-0.29,0.83-0.93,0.6-1.18c-0.39,0.41-0.8,0.8-1.23,1.16c-0.22-0.32,0.33-1.36,1.18-1.88
		c0.3-0.03,0.23,0.67,0.31,0.76c0.05-0.18,0.68-0.81,0.81-0.82c-0.08,0.15-0.15,0.31-0.24,0.45c0.59-0.29,0.44-1.01,1.2-1.31
		c0.19-0.17,0.88-0.32,0.73-0.49c-0.63,0.11-1.69-0.71-1.82-1.08c0.08-0.01,0.95-0.67,1.24-0.84c0.48-0.22,0.48,0.89,0.88,0.72
		c-0.08-0.06-0.1-0.33-0.1-0.43c0.19-0.21,0.26,0.24,0.44-0.34c-0.31-0.22,0.38-1.15-0.22-0.37c0.05-0.58,0.25-0.54,0.32-1.26
		c-0.14,0.12-0.32-0.09-0.52-0.32c-0.18-0.24-0.38-0.48-0.46-0.67c0.09,0,0.24-0.19,0.24-0.24c-0.74-0.74-1.05-1.26-1.82-1.87
		c-0.01-0.13-0.32-0.51-0.06-0.52c-0.15-0.03-0.33-0.01-0.59-0.18c-0.28-0.62,0.59,0.36,0.46-0.23c-0.17,0.16-0.83-0.22-1.27-0.34
		c-0.08,0.35,0.78,0.63,1.21,0.78c-0.29,0.38-1.18,0.33-2.12-0.03c-0.72-0.33-0.12-0.45-0.27-0.47c-1.24-0.85-1.5,0.07-2.41-0.81
		c-0.29-0.49,0.26-0.55,0.26-0.79c0.64,0.19,0.79,0.65,1.18,0.85l-0.4-0.39c0.23,0.02,0.66,0.15,0.81,0.36
		c-0.22-0.47-2.21-1.29-3.19-1.97c-0.23,0.01-0.6-0.03-0.5,0.15l0.36,0.11c0.21,0.36-0.77,0.04-0.39,0.33
		C36.61,4.88,36,4.93,35.42,4.56l0-0.37c-0.02,0.1,0.35,0.35,0.57,0.32c-0.31,0.03-0.83-0.81-1.28-0.49l0.37,0.39
		c-0.52-0.01-1.2,0.16-1.74-0.13c0.16,0.41,0.15,0.01,0.42,0.52c-0.19-0.6,1.44,0.51,1.05-0.17c0.25,0.58,0.65,0.44,1.02,1.02
		c0.03-0.11-0.11-0.28,0.34-0.04c0.03-0.02,0.1-0.04,0.14-0.05c0.01,0.01,0.02,0.01,0.03,0.02l-0.02-0.02
		c0.03-0.01,0.03-0.01-0.01-0.01c-0.09-0.09-0.16-0.18-0.17-0.26c0.33-0.16,1.07,0.18,1.37,0.16c0.25,0.18-0.17,0.07-0.07,0.25
		l0.45-0.01c-0.07,0.25,0.53,0.72-0.16,0.56c0.19,0.09,0.38,0.18,0.56,0.28c0.26,0.3,0.68,0.57,1,0.63
		c0.23,0.19,0.79,0.12,0.46,0.16c0.31,0.11,0.61,0.24,0.92,0.36l-0.03,0.06c0.79,0.53,1.92,0.74,2.49,1.8
		c0.3,0.14,0.59,0.31,0.96,0.71c-0.02,0.08-0.04,0.16-0.08,0.22c0.09,0.03,0.14,0.15,0.18,0.24c0.06,0.09-0.01,0.15,0.12,0.15
		c-0.3,0.17-0.3,0.06-0.36,0.53c-0.05,0.36-0.14,0.8-0.32,1.02l0.24,0.15c-0.21,0.35-0.35,0.73-0.63,1.2l0.21,0.14
		c-0.17,0.51-1.02,0.75-1.66,1.19c-0.01-0.11,0.17-0.2,0.32-0.24c-0.55,0.04-0.9,0.37-1.29,0.72c-0.39,0.34-0.8,0.69-1.31,0.68
		c-0.18,0.18-0.35,0.21-0.52,0.22c0.02-0.01,0.04-0.02,0.05-0.03c-0.02,0.01-0.06,0.02-0.09,0.03c-0.11,0-0.23-0.01-0.35,0
		c0.12,0.02,0.22,0.03,0.31,0.02c-0.17,0.07-0.41,0.21-0.64,0.36l-0.21-0.21c-0.02,0.01-0.03,0.02-0.06,0.03
		c-0.29,0-0.15,0.2,0.05,0.34c-0.11,0.09-0.21,0.19-0.28,0.28c-0.36-0.34-0.62,0.4-1.06,0.05c-0.1,0.28-1.23,0.62-1.22,1.12
		c-0.03-0.06-0.12-0.06,0.02-0.11c-0.31,0.04-0.62,0.09-0.83,0.31l-0.23-0.29l-0.5,0.64c-0.45-0.08-0.65-0.15-0.34-0.52
		c-0.81,0.68-0.71,0.38-1.39,1l-0.02-0.23c-0.28,0.09-0.66,0.51-0.88,0.37c-0.74-0.23-3.19,0.76-4.94,0.68
		c0.45,0.59-0.83-0.14-0.8,0.37c-0.13-0.14-0.37-0.18-0.13-0.36c-0.82,0.31-1.31-0.02-1.83,0.49c-0.12-0.14,0.15-0.25,0.05-0.33
		c-0.06,0.04-0.25,0.18-0.35,0.1c-0.1-0.08,0.1-0.15,0.23-0.24c-0.86,0.16-0.88,0.64-0.89,1.1c-0.48-0.15-0.69-0.09-0.98,0.24
		c-0.17-0.13-0.45-0.25,0.09-0.37c-0.31,0.02-1.9,0-1.89,0.36c-0.11-0.08-0.43,0.01-0.51,0.06c-0.69,0.04-0.76,0.01-1.44,0.09
		l0.19,0.05c-0.24,0.45-0.56,0.14-1.11,0.22l0.01-0.05c-1.27-0.26-0.55,0.19-1.79-0.13l0.07,0.27c-0.11,0.59-1.11-0.32-1.81-0.12
		l0.25,0.16c-0.41,0.2-1.06-0.83-1.43-0.93c-0.08-0.06,0.14-0.07,0.25-0.1c-0.96-0.41-0.15,0.35-0.91,0.37
		c-0.12-0.2,0.22-0.47-0.27-0.55c-0.21-0.17-1.51,0.43-2.1-0.1c0.11,0.18,0.22,0.36-0.13,0.39c-0.54-0.07-1.2-0.89-1.78-0.63
		c-0.05-0.06-0.06-0.11-0.05-0.14c-0.41-0.01-1.24-0.32-1.57-0.22c0.06-0.49-0.49-0.69-1.02-0.92c-0.25-0.13-0.5-0.25-0.65-0.38
		c-0.14-0.14-0.17-0.29-0.02-0.44c-0.34-0.31-0.42-0.39-0.6-0.59l0.1-0.02c-0.08-0.08-0.04-0.17-0.05-0.24
		c-0.01-0.07-0.03-0.13-0.06-0.19c-0.06-0.11-0.14-0.21-0.22-0.38c0.09-0.17,0.15-0.02,0.19,0c0.41-1.07,0.4-1.14,0.34-2.2l0.3,0.01
		c-0.07-0.33,1.04-1.3,1.4-2.37c0.02,0.03,0.05,0.08,0.03,0.17c0.22-0.61,0.82-1.11,1.34-1.51c0.51-0.41,0.91-0.77,0.73-1.3
		C7.75,9.7,7.91,9.45,8.07,9.2c-0.9,0.67-0.17-0.45-0.63-0.27c0.31-0.35,1.08-0.51,0.7-0.12l-0.1,0.02
		c0.18,0.52,1.21-0.71,1.41-0.38c1.76-1.27,3.83-1.9,5.75-2.53L14.84,5.6l0.69-0.21c0.21,0.04,0.34,0.23-0.15,0.37
		c0.32,0.13,0.75-0.44,0.74-0.54c1.01-0.13-0.24,0.57,0.06,0.5l0.39-0.15l-0.1-0.02c0.28-0.25,0.26-0.44,0.86-0.58
		c0.4-0.02,0.26,0.2,0.41,0.17c0.01,0.03,0.06,0.03,0.23-0.05l0.89-0.17L18.44,4.7c0.36-0.25,0.84-0.17,0.35-0.44
		c0.72,0.4,3.4-0.45,3.82-0.31c0.53-0.33,1.09-0.4,1.79-0.46c-0.18-0.05-0.33-0.4,0.28-0.43c-0.13,0.78,1.14,0.2,1.68,0.69
		c-0.47-0.32,1.7-0.25,0.97-0.7c0.51,0.01,0.06,0.28,0.45,0.42c1.17-0.39,2.65-0.01,4.12-0.17c0.02-0.1-0.24-0.24,0.08-0.4l0.8,0.47
		c0.29-0.06,0.25-0.58,0.8-0.26c-0.08-0.08-0.2-0.2,0-0.24c2.92,0.39,5.97-0.49,8.94,0.45c-0.4-0.2-0.13-0.21,0.18-0.22
		c-0.2-0.05,0.01-0.25-0.03-0.38l1.24,0.39c0.23-0.37,1.34-0.01,1.47-0.37l-0.4,0.06c0.53-0.42-0.72-0.95-0.64-1.49
		c-0.59,0.47-1.55-0.73-2.52-0.05c-0.21-0.11,0.18-0.17,0.07-0.3c-0.25,0.23-0.54,0.28-1.09,0.17l0.06-0.06
		c-1.54,0.05-2.21-0.18-3.95-0.32l0.13,0.27c-0.37-0.03-0.45-0.11-0.63-0.18c-0.42,0.41,1.05,0.01,0.66,0.46
		c-0.5-0.55-2.63,0.03-2.98-0.57c-0.58,0.01,0.18,0.31-0.4,0.32l-0.16-0.16l-0.14,0.22c-0.38-0.02-0.58-0.23-0.6-0.37
		c0.09,0.01,0.26-0.05,0.36-0.06c-0.5-0.18-1.38,0.12-1.55,0.07l0.56,0.08c-1.57,0.22-3.51,0.13-5,0.6l0.13,0.12
		c-1.13,0.34-0.94-0.06-2.2,0.19l0.04-0.04c-0.24,0.15-0.57,0.25-0.92,0.29c0.3-0.19-0.64-0.21-0.24-0.43
		c-1.22,0.41-0.6,0.27-1.35,0.86l-0.22-0.18c-0.25,0.23-0.26,0.33-0.88,0.48c0.49-0.26-0.45-0.25,0.09-0.58
		c-1.41-0.24-1.88,0.81-2.62,0.27c-0.49,0.69,1.21,0.09,0.89,0.28c0.32,0.13-0.42,0.52-0.84,0.55c-0.42,0.08-0.87-0.58-1.93-0.3
		c0.11-0.02,0.1-0.07,0.21-0.09c-0.44-0.04-0.73,0.39-1.27,0.3c-0.17,0.41-0.64,0.17-0.58,0.62l0.93-0.38
		c-0.52,0.27-0.87,0.91-1.82,0.97c0.04-0.11,0.26-0.31,0.42-0.44c-0.3-0.04-0.47,0.25-0.78,0.22c-0.07-0.45,1.12-0.49,1.61-0.98
		c-0.34-0.1-1.01,0.65-0.87,0.1c-0.23,0.72-1.07,0.27-1.61,0.98l-0.05-0.27c-0.1,0.08-0.28,0.29-0.48,0.37l0.24-0.47
		c-0.46,0.5-1.2,0.21-1.68,0.62c1.13-0.52,0.39,0.18,0.94,0.15c-1.21,0.96-1.1-0.3-2.57,0.64c0.19-0.16,0.85-0.28,0.59,0
		c-0.32,0.1-0.74,0.23-0.99,0.21C8.42,6.12,9.66,5.62,9.33,6.01c-0.5-0.07-0.41,0.41-0.75,0.77L8.43,6.56
		c-1.17,0.61,0.05,0.66-1,1.18l0.15-0.6L7.16,7.6l-0.1-0.32C6.7,7.89,6.5,7.97,5.96,8.36c0.25,0.04,0.27,0.41-0.11,0.82
		C5.46,9.36,5.81,8.85,5.28,9.47c0-0.25-0.01-0.55,0.42-0.63C5.66,8.75,5.7,8.58,5.67,8.49C5.23,8.67,4.88,9.24,4.69,9.48
		C4.77,9.4,4.88,9.3,4.95,9.28c-0.17,0.39-0.34,0.77-0.48,1.16c-0.2,0.08-0.17-0.08-0.14-0.25C4.2,10.4,4.19,10.6,4,10.9
		c-0.12-0.2-0.33-0.33-0.09-0.8c-0.18,0.35-0.33,0.73-0.49,1.09c-0.13,0-0.55,0.36-0.54,0.19c-0.48,0.49-0.44,1.6-0.95,2.31
		c0.02,0.06,0.03,0.16-0.01,0.34c-0.36,0.72-0.84,1.36-0.76,2.39c-0.17,0.16-0.33,0.29-0.5,0.5c-0.05,0.59,0.12,0.3,0.28,0.14
		c0.17-0.14,0.29-0.22,0.27,0.66c0,1.21-0.42,0.53-0.56,1.03c0.33,0.24,0.76,0.54,1.15,0.87c0.42,0.37,0.68,0.56,0.88,0.99
		C2.43,20.47,2.31,20.27,2.11,20.1z M10.45,23.72c-0.18,0.03-0.55,0.16-0.65-0.02C10.06,23.43,10.18,23.59,10.45,23.72z M23.4,22.59
		c-0.11,0.11-0.3,0.09-0.53,0.01C23.03,22.57,23.2,22.55,23.4,22.59z M38.79,6.6l0.02,0C39.07,6.84,38.98,6.75,38.79,6.6z
		 M38.2,6.16c-0.08,0-0.09,0.04-0.08,0.09c0.08-0.04,0.22,0.03,0.38,0.13C38.48,6.29,38.42,6.2,38.2,6.16z M17.8,5.03L17.64,5
		C17.94,4.84,17.87,4.94,17.8,5.03z"/>
	<path class="st4" d="M22.01,23.16c-0.05-0.04-0.07-0.09-0.09-0.14C21.86,23.08,21.87,23.13,22.01,23.16z"/>
	<path class="st4" d="M1.93,13.71l0.01-0.03c-0.01-0.02-0.02-0.04-0.03-0.05L1.93,13.71z"/>
	<path class="st4" d="M46.43,13.35c-0.11,0.15-0.2,0.22-0.28,0.25C46.21,13.64,46.3,13.59,46.43,13.35z"/>
	<path class="st4" d="M34.5,5.13l0.46,0.09c-0.21-0.06-0.27-0.15-0.36-0.22C34.58,5.05,34.63,5.17,34.5,5.13z"/>
	<path class="st4" d="M31.04,2.36c-0.08,0.02-0.15-0.03-0.22-0.01l-0.01,0.13C31.11,2.53,31.33,2.48,31.04,2.36z"/>
	<path class="st4" d="M34.39,4.13c0.04-0.23-0.27-0.25-0.6-0.31c0.02,0.01,0.04,0.01,0.06,0.02C33.65,4.11,34.02,4.12,34.39,4.13z"
		/>
	<path class="st4" d="M33.71,3.8c-0.1-0.02-0.2-0.05-0.29-0.09C33.34,3.82,33.53,3.77,33.71,3.8z"/>
	<path class="st4" d="M37.31,5.91c-0.12-0.12-0.21,0.23-0.25,0.11C36.78,6.21,38.13,6.13,37.31,5.91z"/>
	<polygon class="st4" points="34.37,3.32 34.39,3.63 34.65,3.47 	"/>
	<path class="st4" d="M36.79,4.44l-0.47-0.27c-0.01,0.05-0.08,0.05-0.17,0.04C36.45,4.33,36.77,4.52,36.79,4.44z"/>
	<path class="st4" d="M36.15,4.2c-0.16-0.07-0.31-0.12-0.42-0.11C35.82,4.12,36.01,4.19,36.15,4.2z"/>
	<polygon class="st4" points="35.1,3.48 35.23,3.59 35.58,3.74 	"/>
	<path class="st4" d="M41.85,7.16l0.53,0.25c0.11-0.05,0.01-0.18-0.2-0.27C42.03,7.12,41.82,7.03,41.85,7.16z"/>
	<path class="st4" d="M40.73,5.56c0.11,0.13,0.09,0.19,0.12,0.32l0.19-0.29L40.73,5.56z"/>
	<path class="st4" d="M42.27,6.4c0.1-0.05,0.89,0.25,0.23-0.15C42.39,6.29,41.85,6.03,42.27,6.4z"/>
	<polygon class="st4" points="45.11,13.77 45.19,13.64 44.68,13.36 	"/>
	<path class="st4" d="M39.18,19.41c0.72-0.13,0.03-0.39,0.69-0.47c0.1-0.19-0.54,0.07-0.43-0.11C39.1,19.13,38.86,19.13,39.18,19.41
		z"/>
	<path class="st4" d="M39.44,18.84c0.06-0.05,0.11-0.1,0.17-0.16C39.51,18.75,39.47,18.8,39.44,18.84z"/>
	<polygon class="st4" points="44.75,3.42 45.2,3.54 44.91,3.35 	"/>
	<path class="st4" d="M45.61,3l0.1,0.37l0.27-0.33C45.89,3.05,45.69,3.08,45.61,3z"/>
	<path class="st4" d="M11.69,24.61l0.04-0.08c-0.07-0.1-0.18-0.12-0.4-0.16L11.69,24.61z"/>
	<polygon class="st4" points="5.26,22.71 5.36,22.76 5.31,22.37 	"/>
	<path class="st4" d="M0.24,18.12c-0.03,0.2-0.04,0.42-0.05,0.64c-0.04,0.12,0.09,0.19,0.15,0.27c0.07,0.08,0.14,0.16,0.2,0.24
		c-0.14-0.17-0.3-0.32-0.31-0.48c0.05-0.18,0.1-0.32,0.13-0.44C0.44,18.14,0.46,18.04,0.24,18.12z"/>
</g>
</svg>
