<?xml version="1.0" encoding="utf-8"?>
<!-- Generator: Adobe Illustrator 27.1.1, SVG Export Plug-In . SVG Version: 6.00 Build 0)  -->
<svg version="1.1" id="Layer_1" xmlns="http://www.w3.org/2000/svg" xmlns:xlink="http://www.w3.org/1999/xlink" x="0px" y="0px"
	 viewBox="0 0 23.01 14.75" style="enable-background:new 0 0 23.01 14.75;" xml:space="preserve">
<style type="text/css">
	.st0{fill:#FFD400;}
	.st1{fill:#010101;}
	.st2{fill:#FFFFFF;}
	.st3{fill:none;}
	.st4{fill:#FED519;}
</style>
<g>
	<g id="KQhyqK_00000120541277342355442180000006082725383203772304_">
		<g>
			<g>
				<path d="M22.44,8.7c-0.8,0.92-1.71,1.73-2.72,2.43c-5.92,4.13-13.99,3.55-19.23-1.38C0.43,9.69,0.37,9.64,0.32,9.58
					C0.12,9.39,0.09,9.23,0.24,9.1C0.41,8.95,0.56,9.03,0.7,9.17C1,9.45,1.31,9.73,1.62,9.99c2.35,1.9,5.02,3.01,8.03,3.26
					c4.2,0.34,7.9-0.88,11.08-3.64c0.44-0.38,0.84-0.8,1.24-1.23C22.09,8.26,22.58,8.54,22.44,8.7z"/>
				<g>
					<path d="M22.81,8.67c-0.1,0.34-0.05,0.23-0.06,0.3c0.19-0.28,0.07-0.4,0.08-0.37C22.81,8.6,22.8,8.68,22.81,8.67z"/>
					<polygon points="21.4,8.66 21.4,8.63 21.31,8.8 					"/>
					<path d="M20.6,9.45c0.14,0,0.28-0.3,0.45-0.42l0.04-0.01l0.01-0.12C20.93,9.09,20.74,9.36,20.6,9.45z"/>
					<path d="M19.99,9.67c0.05,0.01-0.08,0.11,0.11-0.08c-0.01,0-0.02,0.01-0.03,0.01C20.06,9.61,20.04,9.63,19.99,9.67z"/>
					<path d="M20.08,9.6C20.17,9.52,20,9.62,20.08,9.6L20.08,9.6z"/>
					<path d="M19.67,9.95l0.1-0.12c-0.04,0-0.15,0.08-0.12,0.04C19.53,9.98,19.57,9.98,19.67,9.95z"/>
					<path d="M19.6,10.1l0.06-0.06C19.63,10.04,19.62,10.05,19.6,10.1z"/>
					<path d="M19.77,9.91l-0.12,0.13c0.03,0,0.05,0.02,0.06-0.06C19.71,10.01,19.72,9.97,19.77,9.91z"/>
					<path d="M19.86,9.87c0.08-0.03,0.18-0.1,0.08,0.03C20.16,9.69,20.08,9.67,19.86,9.87z"/>
					<path d="M20.62,9.57c0.04-0.02,0.07-0.04,0.11-0.06l0.05-0.1C20.75,9.47,20.6,9.55,20.62,9.57z"/>
					<path d="M18.86,10.47c0,0.02,0.07,0.02,0.1,0.03l0.08-0.08C18.98,10.44,18.88,10.49,18.86,10.47z"/>
					<path d="M18.96,10.5l-0.12,0.13C18.96,10.55,18.98,10.52,18.96,10.5z"/>
					<polygon points="19.64,10.21 19.82,9.97 19.6,10.24 					"/>
					<polygon points="18.3,10.82 18.36,10.72 18.25,10.88 					"/>
					<path d="M17.94,11.04c0.04-0.07-0.12-0.01-0.07-0.07c-0.1,0.06-0.17,0.14-0.23,0.21C17.71,11.12,17.81,11.08,17.94,11.04z"/>
					<path d="M17.53,11.3c0.04-0.03,0.07-0.07,0.11-0.11C17.6,11.22,17.56,11.25,17.53,11.3z"/>
					<path d="M18.58,10.78c-0.02,0-0.06-0.02-0.15,0.02l0.09,0.02L18.58,10.78z"/>
					<path d="M18.53,10.82L18.53,10.82c-0.07,0.04-0.11,0.06-0.13,0.07C18.41,10.88,18.45,10.86,18.53,10.82z"/>
					<path d="M18.6,10.77l-0.01,0.01C18.59,10.78,18.6,10.78,18.6,10.77z"/>
					<path d="M19.24,10.43c-0.06,0.08-0.22,0.23-0.02,0.16C19.26,10.51,19.15,10.56,19.24,10.43z"/>
					<path d="M18.71,10.79l0.16-0.09c-0.01-0.01-0.05-0.01-0.02-0.05L18.71,10.79z"/>
					<polygon points="18.64,10.85 18.71,10.79 18.65,10.82 					"/>
					<path d="M17.83,11.2c-0.06,0.06-0.13,0.1-0.21,0.15c0.1-0.04,0.2-0.09,0.29-0.13C17.9,11.19,17.92,11.14,17.83,11.2z"/>
					<path d="M18.17,11.02l-0.01,0.01C18.17,11.03,18.18,11.03,18.17,11.02z"/>
					<polygon points="16.75,11.77 16.77,11.78 16.77,11.77 					"/>
					<path d="M17.92,11.22c0.07-0.03,0.11-0.06,0.14-0.1c-0.05,0.03-0.1,0.07-0.16,0.1C17.9,11.23,17.9,11.23,17.92,11.22z"/>
					<path d="M17.3,11.44c0.05-0.01,0.09-0.02,0.14-0.03C17.4,11.41,17.31,11.42,17.3,11.44z"/>
					<path d="M18.13,11.03L18.13,11.03C18.11,11.03,18.12,11.03,18.13,11.03z"/>
					<path d="M18.13,11.03c-0.03,0.03-0.05,0.06-0.07,0.08c0.04-0.03,0.07-0.06,0.1-0.08L18.13,11.03z"/>
					<path d="M16.64,12.24c-0.01-0.06,0.17-0.18,0.36-0.2c0.14-0.12-0.04-0.23-0.22-0.26c0,0.02,0.01,0.05-0.14,0.15
						c0.07,0.01,0.4-0.09,0.28,0.01c-0.21,0.12-0.19,0.06-0.31,0.08c0.12,0.03-0.25,0.21-0.16,0.29l0.18-0.12
						C16.64,12.2,16.57,12.25,16.64,12.24z"/>
					<path d="M17.08,11.63l0.06-0.04c-0.08,0.03-0.14,0.03-0.26,0.04c-0.1,0.08-0.11,0.11-0.11,0.13l0.33-0.15L17.08,11.63z"/>
					<path d="M17.45,11.45c-0.02,0.08-0.17,0.18-0.05,0.19c0.2-0.1,0.11-0.11,0.22-0.2C17.32,11.63,17.69,11.37,17.45,11.45
						c0.06-0.04,0.11-0.07,0.16-0.1c-0.05,0.02-0.11,0.04-0.17,0.06l0.01,0l0,0l0,0c0.02,0,0.02,0,0.01,0.01l-0.01,0
						C17.45,11.43,17.45,11.44,17.45,11.45c-0.1,0.03-0.02-0.01,0-0.03l0-0.01l0,0l-0.3,0.18C17.22,11.57,17.3,11.53,17.45,11.45z"
						/>
					<path d="M19.14,10.8c-0.01,0-0.02-0.01-0.02-0.01C19.11,10.82,19.1,10.83,19.14,10.8z"/>
					<path d="M19,10.86c0.02-0.02,0.02-0.05,0.09-0.1c0.07-0.03,0.02,0.02,0.03,0.04c0.03-0.04,0.12-0.14-0.03-0.07l-0.02,0.02
						c-0.13,0.06-0.32,0.1-0.31,0.08C18.83,10.85,18.89,10.87,19,10.86z"/>
					<path d="M18.23,11.2c-0.08,0.06-0.16,0.11-0.24,0.17l0.16-0.03l-0.02-0.02C18.27,11.25,18.22,11.23,18.23,11.2z"/>
					<polygon points="16.71,11.76 16.72,11.68 16.6,11.83 					"/>
					<polygon points="16.36,11.91 16.35,11.85 16.27,11.92 					"/>
					<path d="M3.58,11.59l0.08,0.03C3.63,11.61,3.6,11.6,3.58,11.59z"/>
					<path d="M3.05,11.27l-0.03,0.02C3.05,11.29,3.07,11.29,3.05,11.27z"/>
					<path d="M7.2,12.47c-0.11-0.08-0.22-0.2-0.22-0.13L7,12.41C7.09,12.42,7.15,12.44,7.2,12.47z"/>
					<path d="M1.37,9.78l0.02,0.04c0.04,0,0.07,0.01,0.1,0.01C1.45,9.81,1.41,9.79,1.37,9.78z"/>
					<path d="M1.13,9.91l-0.1-0.14C1.05,9.8,1.08,9.85,1.13,9.91z"/>
					<path d="M6.73,12.85l0.11-0.03C6.7,12.77,6.75,12.82,6.73,12.85z"/>
					<path d="M12.61,12.88c-0.11-0.01-0.2-0.02-0.27-0.01C12.47,12.89,12.58,12.93,12.61,12.88z"/>
					<path d="M3.04,12.03c0.05,0.02,0.08,0.02,0.08,0.01C3.07,12.02,3.04,12.01,3.04,12.03z"/>
					<path d="M12.02,12.89c0.02,0,0.04,0.01,0.06,0.01c0.08-0.02,0.16-0.03,0.25-0.04C12.24,12.85,12.13,12.84,12.02,12.89z"/>
					<path d="M18.62,11.41c0.01,0,0.02-0.01,0.03-0.01C18.64,11.39,18.63,11.4,18.62,11.41z"/>
					<path d="M21.9,9.67c-0.03,0.03-0.07,0.07-0.11,0.11C21.81,9.76,21.85,9.73,21.9,9.67z"/>
					<path d="M14.91,12.38C14.99,12.36,14.92,12.37,14.91,12.38L14.91,12.38z"/>
					<path d="M15.36,12.5c-0.01,0.01-0.02,0.02-0.02,0.04C15.34,12.53,15.35,12.51,15.36,12.5z"/>
					<path d="M11.23,13.31L11.23,13.31C11.24,13.32,11.24,13.32,11.23,13.31z"/>
					<path d="M15.04,12.38c-0.03,0-0.07,0.01-0.1,0.01C14.96,12.38,14.99,12.38,15.04,12.38z"/>
					<path d="M15.01,12.35c0.03-0.01,0.05-0.01,0.07-0.01C15.09,12.33,15.08,12.32,15.01,12.35z"/>
					<path d="M14.81,12.42c0.04-0.01,0.09-0.02,0.13-0.03c-0.02,0-0.02,0-0.02,0C14.89,12.39,14.86,12.4,14.81,12.42z"/>
					<path d="M12.4,13.62c0.01,0,0.01,0,0.02,0C12.5,13.58,12.46,13.59,12.4,13.62z"/>
					<polygon points="4.97,12.37 4.98,12.37 4.97,12.36 					"/>
					<path d="M4.67,12.28c0.15-0.01,0.21,0.02,0.3,0.08l-0.02-0.2L4.67,12.28z"/>
					<path d="M4.92,12.25l-0.16-0.14c0.26,0.02,0.4,0.13,0.26-0.03c-0.1,0.16-0.71-0.32-0.82-0.16l-0.1-0.09
						c0.03,0.02,0.04,0.01,0.08,0.03c-0.19-0.2-0.25,0.05-0.52-0.15c-0.09-0.07-0.15-0.14-0.07-0.12L3.33,11.5
						c-0.06-0.04-0.03-0.06,0.03-0.02l-0.35-0.19l0.01,0c-0.06,0-0.2-0.03-0.27-0.05c-0.07-0.08,0.06,0.01,0.05-0.02
						c-0.07-0.02-0.14-0.05-0.21-0.08c-0.04-0.1,0.12-0.02,0.26,0.06c-0.07-0.26-0.18-0.06-0.48-0.41l0.18,0.1
						c-0.05-0.17-0.2-0.23-0.35-0.42c0.02,0.06,0.28,0.41,0.06,0.31c-0.05-0.05-0.11-0.11-0.24-0.15c0.04-0.06-0.07-0.12-0.2-0.2
						l0.06-0.07c-0.16-0.08-0.17-0.04-0.27-0.07C1.47,10.15,1.48,10.07,1.48,10c-0.22-0.21,0.09,0.22-0.2,0
						c-0.17-0.19-0.33-0.28-0.6-0.44C0.58,9.42,0.75,9.54,0.72,9.48L0.56,9.43c-0.03-0.03,0-0.03,0.01-0.04
						c-0.1-0.07-0.08,0.06-0.2-0.05C0.22,9.26,0.5,9.31,0.44,9.26C0.44,9.29,0.4,9.3,0.4,9.34C0.45,9.32,0.56,9.4,0.61,9.43
						c0.06,0.03,0.12,0.06,0.27,0.12l0.15,0.21c-0.1-0.18,0.14-0.08,0.33,0.01C1.34,9.71,1.31,9.65,1.29,9.61l0.28,0.18
						c0.02,0.04-0.02,0.04-0.09,0.03l0.06,0.02c0.07,0.1-0.01,0.1-0.11,0.09L1.38,9.81C1.28,9.8,1.19,9.8,1.17,9.85
						c0.02,0.01,0.06,0.03,0.1,0.05c-0.03,0-0.04,0-0.04,0.01c0,0.01,0.04,0.02,0.1,0.04l-0.01,0.13l0.04-0.02
						c0.09,0.12,0.2,0.22,0.3,0.33c0.31,0.12,0.62,0.16,1.05,0.4c-0.14-0.01-0.09,0.09-0.15,0.15c-0.06-0.15-0.34-0.19-0.54-0.36
						c0.1,0.09,0.05,0.1,0.02,0.1l0.43,0.2c-0.05,0.05,0.05,0.1,0.13,0.19c0-0.17,0.34,0.12,0.52,0.17
						c-0.02,0.05-0.08,0.06-0.27-0.07c0.16,0.22,0.37,0.03,0.53,0.24c-0.05-0.03-0.07-0.05-0.1-0.04c0.13,0.03,0.39,0.22,0.31,0.22
						l-0.05-0.03c0.31,0.21,1,0.53,1.1,0.44c0,0.02-0.11,0.11-0.14,0.12c0.26-0.02,0.51-0.06,0.77-0.1
						c-0.09,0.07,0.02,0.39-0.29,0.32c0.08,0.05,0.17,0.11,0.36,0.15c-0.05-0.03-0.08-0.2,0-0.17c0.17,0.19,0.12,0.11,0.35,0.31
						c-0.08-0.05,0.07-0.17,0.21-0.11c-0.03,0.02-0.04,0.16-0.1,0.15l0.39-0.03c-0.09,0-0.06,0.12,0,0.19
						c-0.03-0.04,0.29,0.1,0.39,0.11l-0.13-0.08c0.38,0.14,0.44-0.1,0.82,0.01c-0.05,0.02-0.17,0.17,0.03,0.24
						c0.11-0.05,0.49-0.29,0.84-0.28l0.06,0.06l0.27-0.01c-0.18,0.1-0.69,0.26-0.97,0.3c0.14,0.07,0.03,0.06,0.25,0.11
						c0.07,0.06-0.14,0.04-0.2,0.03c0.17,0.04,0.34,0.1,0.52,0.14c-0.01-0.1,0.42-0.02,0.41-0.11l-0.58-0.01
						c0-0.09,0.38-0.2,0.74-0.13c0.09,0.05-0.1,0.16-0.09,0.19c0.05-0.03,0.36-0.01,0.39,0.01l-0.16,0.03
						c0.2,0.06,0.35-0.08,0.59,0.04c0.08,0.01,0.25,0.15,0.27,0.09c-0.13-0.12-0.13-0.46-0.03-0.53c0.03,0.02,0.43,0.13,0.53,0.19
						c0.14,0.09-0.22,0.19-0.11,0.27c0.01-0.03,0.09-0.05,0.12-0.06c0.09,0.03-0.04,0.08,0.15,0.08c0.04-0.09,0.4,0.03,0.1-0.08
						c0.19-0.02,0.2,0.02,0.43,0.02c-0.07-0.06,0.2-0.21,0.39-0.24c-0.01,0.02,0.03,0.06,0.05,0.07c0.39-0.01,0.6,0.04,0.96,0.01
						c0.03,0.02,0.21,0.03,0.14,0.08c0.05-0.02,0.1-0.06,0.21-0.07c0.23,0.06-0.25,0.03-0.07,0.12c0.01-0.06,0.28-0.1,0.44-0.16
						c-0.06-0.07-0.37,0.03-0.52,0.07c-0.01-0.12,0.25-0.26,0.62-0.37c0.29-0.07,0.14,0.06,0.19,0.04c0.56-0.06,0.43-0.29,0.9-0.28
						c0.19,0.04,0.04,0.15,0.09,0.19c-0.23,0.07-0.38,0.02-0.54,0.06l0.21,0c-0.07,0.04-0.23,0.09-0.32,0.08
						c0.17,0.05,0.94-0.17,1.37-0.22c0.07-0.05,0.19-0.11,0.12-0.12l-0.13,0.05c-0.14-0.02,0.22-0.16,0.05-0.13
						c0.16-0.09,0.34-0.22,0.59-0.26l0.07,0.07c-0.01-0.02-0.18,0-0.24,0.05c0.09-0.06,0.41-0.01,0.49-0.16l-0.19,0
						c0.16-0.1,0.34-0.26,0.56-0.32c-0.13-0.04-0.04,0.03-0.23-0.01c0.17,0.07-0.54,0.19-0.29,0.24c-0.19-0.05-0.28,0.05-0.52,0.01
						c0.01,0.03,0.09,0.03-0.1,0.07c-0.01,0.01-0.02,0.03-0.03,0.04l-0.01,0l0.01,0c-0.01,0.01-0.01,0.01,0,0
						c0.05,0,0.09,0,0.1,0.01c-0.07,0.09-0.36,0.18-0.45,0.23c-0.11,0.01,0.04-0.04-0.03-0.06l-0.14,0.09
						c-0.03-0.06-0.31-0.03-0.07-0.13l-0.23,0.05c-0.14,0-0.33,0.02-0.44,0.07c-0.11,0.01-0.26,0.12-0.18,0.05
						c-0.12,0.04-0.24,0.07-0.36,0.1l-0.01-0.02c-0.36,0.05-0.74,0.21-1.17,0.12c-0.12,0.03-0.25,0.05-0.46,0.04l-0.04-0.05
						c-0.16,0.03-0.48-0.04-0.54,0.01c-0.17-0.15-0.77-0.04-1.05-0.09l-0.02,0.07c-0.19-0.01-0.38-0.01-0.62,0l0.01,0.06
						c-0.21,0.03-0.52-0.11-0.85-0.15c0.03-0.02,0.11,0,0.16,0.02c-0.36-0.2-0.83-0.04-1.15-0.22c-0.09,0-0.15-0.02-0.21-0.05
						l0.02,0l-0.03-0.01c-0.04-0.02-0.08-0.04-0.11-0.06c0.03,0.02,0.06,0.05,0.09,0.06c-0.07-0.02-0.17-0.03-0.27-0.04L7,12.41
						c-0.01,0-0.01,0-0.02,0c-0.09-0.05-0.09,0.01-0.05,0.07c-0.05,0-0.1,0-0.14,0c-0.05-0.13-0.27-0.04-0.34-0.19
						c-0.08,0.03-0.5-0.12-0.59-0.03c0-0.02-0.02-0.03,0.03-0.01c-0.1-0.05-0.2-0.11-0.31-0.11l-0.01-0.1L5.3,12.05
						c-0.12-0.11-0.16-0.16,0-0.16c-0.37-0.05-0.28-0.08-0.6-0.12l0.04-0.04c-0.1-0.05-0.29-0.05-0.33-0.13
						c-0.17-0.2-1.06-0.59-1.53-1.04c0.01,0.2-0.2-0.22-0.29-0.14c-0.01-0.05-0.06-0.12,0.04-0.09C2.34,10.17,2.27,10,2.04,9.95
						c0-0.05,0.09,0,0.08-0.04C2.09,9.9,2.01,9.87,2,9.83c-0.01-0.04,0.06,0,0.11,0.02C1.85,9.66,1.75,9.73,1.66,9.8
						C1.57,9.65,1.5,9.6,1.36,9.57C1.34,9.51,1.3,9.41,1.46,9.54C1.37,9.46,0.97,9.03,0.9,9.09C0.89,9.05,0.78,8.97,0.74,8.96
						c-0.12-0.1-0.28-0.15-0.41-0.12C0.2,8.88,0.12,8.91,0,9.11c0.02-0.04,0.05-0.07,0.08-0.09C0.05,9.17-0.04,9.41,0.15,9.6
						l-0.01,0c0.3,0.42,0.17,0.13,0.47,0.51l0.03-0.07c0.13-0.08,0.26,0.34,0.51,0.47l-0.05-0.09c0.15,0.05,0.19,0.44,0.3,0.53
						c0.02,0.03-0.06-0.01-0.1-0.03c0.27,0.3,0.1-0.04,0.35,0.12c0.02,0.07-0.13,0.06,0.03,0.18c0.06,0.09,0.56,0.21,0.73,0.45
						c-0.03-0.07-0.06-0.13,0.07-0.08c0.19,0.1,0.42,0.41,0.64,0.41c0.02,0.02,0.02,0.04,0.02,0.04c0.16,0.05,0.47,0.23,0.59,0.21
						c0.03,0.27,0.95,0.33,0.85,0.52c0.15,0.07,0.3,0.13,0.46,0.18l-0.02,0.02c0.29,0.13,0.41,0.12,0.54,0.11
						c0.06,0.04,0.01,0.04,0,0.05c0.42,0.21,0.46,0.22,0.87,0.22l0.02,0.08c0.11-0.02,0.61,0.31,1.07,0.32
						c-0.01,0.01-0.02,0.02-0.06,0.02c0.51,0.02,1.17,0.44,1.39,0.19l0.34-0.02c-0.43-0.07,0.08-0.1-0.09-0.17
						c0.17,0,0.43,0.13,0.22,0.12l-0.03-0.02c-0.09,0.12,0.53,0.11,0.51,0.2c0.43,0.02,0.85,0.04,1.26,0.07
						c0.42,0.01,0.83,0,1.23-0.02l-0.1-0.1L12.45,14c0.07,0.01,0.11,0.07-0.09,0.08c0.11,0.06,0.33-0.09,0.33-0.11
						c0.39-0.01-0.14,0.14-0.02,0.13l0.16-0.03l-0.04-0.01c0.13-0.06,0.13-0.11,0.37-0.13c0.15,0,0.09,0.05,0.15,0.05
						c0,0.01,0.02,0.01,0.09-0.01l0.35-0.04l-0.15-0.06c0.15-0.06,0.32-0.06,0.15-0.11c0.26,0.08,1.29-0.22,1.44-0.24
						c0.19-0.12,0.4-0.19,0.65-0.26c-0.07,0-0.13-0.07,0.09-0.13c-0.02,0.21,0.43-0.04,0.64,0c-0.19-0.02,0.6-0.27,0.31-0.29
						c0.18-0.06,0.04,0.06,0.19,0.05c0.4-0.22,0.93-0.38,1.43-0.67c0-0.03-0.11-0.02-0.02-0.1c0.11-0.01,0.22-0.01,0.32-0.03
						c0.09-0.07,0.01-0.18,0.23-0.21c-0.04,0-0.09-0.01-0.03-0.05c1.03-0.47,1.81-1.34,2.77-1.95c-0.14,0.07-0.07,0,0.01-0.09
						c-0.06,0.04-0.04-0.05-0.08-0.06l0.4-0.27c-0.01-0.12,0.34-0.37,0.31-0.47L22.33,9.1c0.06-0.22-0.36,0.04-0.44-0.07
						c-0.06,0.24-0.52,0.28-0.66,0.64C21.16,9.71,21.25,9.6,21.2,9.6c-0.03,0.1-0.1,0.19-0.27,0.3l0.01-0.03
						c-0.42,0.38-0.64,0.49-1.17,0.83l0.08,0.03c-0.11,0.07-0.15,0.07-0.21,0.09c-0.07,0.17,0.31-0.22,0.26-0.04
						c-0.22,0.01-0.8,0.53-0.99,0.46c-0.18,0.11,0.09,0.03-0.08,0.14l-0.07-0.01l-0.02,0.07c-0.12,0.07-0.21,0.06-0.23,0.03
						c0.03-0.01,0.07-0.06,0.1-0.08c-0.17,0.06-0.42,0.26-0.48,0.28l0.19-0.07c-0.49,0.29-1.12,0.58-1.6,0.85l0.05,0.01
						c-0.37,0.21-0.32,0.1-0.75,0.29l0.01-0.01c-0.08,0.06-0.19,0.11-0.31,0.14c0.1-0.07-0.23,0-0.1-0.09
						c-0.42,0.2-0.2,0.11-0.45,0.32l-0.08-0.03c-0.09,0.07-0.08,0.11-0.31,0.17c0.17-0.09-0.16-0.05,0.03-0.15
						c-0.5-0.01-0.68,0.27-0.93,0.15c-0.19,0.19,0.43-0.01,0.31,0.05c0.11,0.02-0.16,0.15-0.31,0.17c-0.15,0.04-0.29-0.13-0.68-0.07
						c0.04,0,0.04-0.02,0.08-0.02c-0.15-0.02-0.28,0.09-0.46,0.05c-0.09,0.1-0.23,0.03-0.25,0.14l0.35-0.07
						c-0.2,0.05-0.37,0.23-0.71,0.18c0.02-0.02,0.12-0.06,0.19-0.08c-0.1-0.03-0.19,0.03-0.29,0c0.02-0.11,0.43-0.05,0.64-0.17
						c-0.11-0.03-0.4,0.14-0.3,0c-0.14,0.17-0.38,0-0.64,0.14l0.01-0.07c-0.04,0.01-0.13,0.05-0.2,0.05l0.13-0.09
						c-0.21,0.09-0.41-0.04-0.61,0.01c0.42-0.02,0.1,0.08,0.28,0.12c-0.53,0.12-0.31-0.17-0.89-0.15c0.08-0.01,0.3,0.05,0.17,0.08
						c-0.11-0.02-0.26-0.05-0.33-0.08c-0.39,0,0.06,0.07-0.11,0.11c-0.13-0.09-0.19,0.03-0.37,0.05l0-0.07
						c-0.44-0.09-0.13,0.13-0.52,0.03l0.18-0.08l-0.21,0l0.05-0.07c-0.23,0.03-0.3,0.01-0.52-0.04c0.04,0.05-0.05,0.12-0.24,0.1
						c-0.13-0.06,0.08-0.05-0.19-0.09c0.07-0.03,0.14-0.06,0.26,0.01c0.02-0.02,0.07-0.04,0.08-0.06c-0.14-0.06-0.35-0.07-0.45-0.09
						c0.04,0.01,0.08,0.02,0.1,0.04L8.02,13.3c-0.06-0.04,0-0.05,0.05-0.06c-0.08-0.01-0.14,0.01-0.26-0.01
						c0.04-0.05,0.05-0.11,0.22-0.1l-0.39-0.01c-0.02-0.03-0.18-0.1-0.12-0.11c-0.2-0.08-0.53-0.04-0.79-0.15
						c-0.02,0.01-0.05,0.01-0.11,0c-0.25-0.08-0.46-0.21-0.77-0.26l-0.13-0.16c-0.24-0.07,0.18,0.2-0.22,0.09
						c-0.28-0.07-0.07-0.12-0.16-0.18c-0.15,0-0.43,0-0.64-0.2C4.79,12.18,4.84,12.22,4.92,12.25z M2.26,10.78
						c0.06,0.02,0.18,0.06,0.19,0.11C2.35,10.92,2.33,10.86,2.26,10.78z M1.63,10.18c-0.05-0.01-0.1-0.06-0.14-0.13
						C1.54,10.08,1.59,10.12,1.63,10.18z M14.07,12.65L14.07,12.65C13.93,12.66,13.98,12.66,14.07,12.65z M14.34,12.62
						c0.02-0.02,0.02-0.02,0.01-0.03c-0.01,0.02-0.07,0.04-0.14,0.05C14.23,12.65,14.27,12.65,14.34,12.62z M13.33,13.95l-0.06-0.01
						C13.4,13.91,13.37,13.93,13.33,13.95z"/>
					<path d="M1.16,9.9c-0.01-0.02,0-0.03,0-0.05C1.14,9.84,1.13,9.85,1.16,9.9z"/>
					<path d="M6.71,12.86L6.71,12.86c0.01,0,0.02-0.01,0.02-0.01L6.71,12.86z"/>
					<path d="M10.1,13.55c-0.06-0.01-0.09-0.03-0.11-0.04C9.98,13.53,10.01,13.54,10.1,13.55z"/>
					<path d="M15.69,12.1l-0.16,0.08c0.08-0.03,0.11-0.03,0.15-0.03C15.68,12.13,15.64,12.12,15.69,12.1z"/>
					<path d="M17.27,11.91c0.02-0.02,0.05-0.02,0.07-0.04l-0.02-0.03C17.22,11.89,17.16,11.94,17.27,11.91z"/>
					<path d="M15.92,12.26c0.03,0.05,0.13-0.01,0.24-0.06l-0.02,0.01C16.15,12.12,16.04,12.19,15.92,12.26z"/>
					<path d="M16.19,12.19c0.03-0.02,0.07-0.03,0.11-0.05C16.3,12.11,16.25,12.16,16.19,12.19z"/>
					<path d="M14.67,12.5c0.06,0,0.02-0.08,0.05-0.06C14.77,12.35,14.37,12.61,14.67,12.5z"/>
					<polygon points="16.08,12.41 16.02,12.35 15.97,12.43 					"/>
					<path d="M15.13,12.67l0.2-0.04c-0.01-0.01,0.02-0.02,0.04-0.04C15.25,12.62,15.12,12.65,15.13,12.67z"/>
					<path d="M15.37,12.59c0.06-0.02,0.12-0.04,0.15-0.06C15.49,12.54,15.42,12.57,15.37,12.59z"/>
					<polygon points="15.83,12.52 15.77,12.52 15.64,12.57 					"/>
					<path d="M13.03,13.1l-0.21,0.05c-0.02,0.03,0.04,0.03,0.12,0.01C12.99,13.14,13.07,13.12,13.03,13.1z"/>
					<path d="M13.72,13.19c-0.06,0-0.07-0.02-0.1-0.04l0.01,0.09L13.72,13.19z"/>
					<path d="M13.08,13.31c-0.02,0.03-0.31,0.11-0.03,0.07C13.07,13.35,13.29,13.3,13.08,13.31z"/>
					<polygon points="9.77,13.29 9.83,13.29 9.83,13.15 					"/>
					<path d="M6.82,13.13c0.25,0.1,0.08-0.07,0.31,0.03c0.07-0.02-0.18-0.08-0.11-0.1C6.85,13.06,6.77,13.02,6.82,13.13z"/>
					<path d="M7.01,13.06c0.02,0,0.05,0,0.08,0C7.05,13.06,7.02,13.06,7.01,13.06z"/>
					<polygon points="22.39,9.28 22.52,9.17 22.41,9.22 					"/>
					<path d="M22.53,8.96l0.1,0.03l0.01-0.13C22.61,8.89,22.56,8.95,22.53,8.96z"/>
					<path d="M2.01,10.37l-0.02,0.01c0.01,0.03,0.04,0.06,0.09,0.1L2.01,10.37z"/>
					<polygon points="3.8,11.62 3.77,11.6 3.79,11.71 					"/>
					<path d="M5.51,12.29c-0.07-0.02-0.16-0.05-0.23-0.07C5.44,12.26,5.49,12.4,5.51,12.29z"/>
				</g>
			</g>
		</g>
	</g>
	<g>
		<circle cx="6.95" cy="3.4" r="1.81"/>
		<g>
			<path d="M9.44,3.38C9.44,3.4,9.55,3.39,9.58,3.4C9.55,3.36,9.41,3.38,9.44,3.38z"/>
			<polygon points="9.15,3.04 9.19,3.04 9.07,3.01 			"/>
			<path d="M9.08,2.73c-0.19,0.09,0.06,0.1,0.01,0.18L9.04,2.93L9.2,2.92C9.16,2.85,9.04,2.79,9.08,2.73z"/>
			<path d="M9.42,2.41C9.36,2.45,9.35,2.39,9.42,2.46l0.02-0.02C9.43,2.44,9.43,2.43,9.42,2.41z"/>
			<path d="M9.43,2.45C9.45,2.48,9.49,2.4,9.43,2.45L9.43,2.45z"/>
			<path d="M9.32,2.29l0.09,0.02c0.04-0.03,0.03-0.08,0.06-0.08C9.41,2.2,9.38,2.23,9.32,2.29z"/>
			<path d="M9.17,2.31L9.2,2.32C9.22,2.31,9.22,2.3,9.17,2.31z"/>
			<path d="M9.29,2.35L9.2,2.32C9.18,2.34,9.12,2.37,9.24,2.34C9.18,2.36,9.24,2.34,9.29,2.35z"/>
			<path d="M9.27,2.39C9.24,2.43,9.23,2.47,9.15,2.46C9.2,2.53,9.33,2.47,9.27,2.39z"/>
			<path d="M8.87,2.78L8.82,2.82L8.9,2.83C8.86,2.83,8.93,2.76,8.87,2.78z"/>
			<path d="M9.25,1.95C9.22,1.97,9.17,2.03,9.12,2.06l0.06,0.01C9.2,2.04,9.2,1.99,9.25,1.95z"/>
			<path d="M9.12,2.06L9.03,2.05C9.05,2.1,9.08,2.09,9.12,2.06z"/>
			<polygon points="8.96,2.41 9.14,2.42 8.95,2.39 			"/>
			<polygon points="9.13,1.76 9.23,1.73 9.07,1.77 			"/>
			<path d="M9.02,1.65C9.1,1.62,9.11,1.54,9.16,1.53c-0.04-0.02-0.12,0-0.19,0.02C9.03,1.54,9.04,1.58,9.02,1.65z"/>
			<path d="M8.87,1.57c0.03,0,0.06-0.01,0.1-0.02C8.95,1.54,8.92,1.55,8.87,1.57z"/>
			<path d="M9,1.96C9.01,1.95,9.07,1.9,9.07,1.86L8.98,1.95L9,1.96z"/>
			<path d="M8.98,1.95L8.98,1.95C8.97,1.93,8.97,1.91,8.96,1.9C8.96,1.91,8.97,1.92,8.98,1.95z"/>
			<path d="M9,1.97L9,1.97C8.99,1.97,8.98,1.98,9,1.97z"/>
			<path d="M9,2.24c-0.08,0.01-0.17-0.01-0.23,0.1C8.85,2.31,8.89,2.25,9,2.24z"/>
			<path d="M8.89,2.08L8.9,2.14c0.03-0.02,0.06-0.05,0.1-0.06L8.89,2.08z"/>
			<polygon points="8.84,2.08 8.89,2.08 8.89,2.05 			"/>
			<path d="M8.86,1.72c-0.06,0.02-0.08,0-0.11-0.02c0,0.04,0.02,0.07,0.04,0.1C8.83,1.78,8.89,1.74,8.86,1.72z"/>
			<path d="M8.91,1.84L8.91,1.84C8.9,1.84,8.9,1.85,8.91,1.84z"/>
			<polygon points="8.54,1.49 8.52,1.51 8.54,1.5 			"/>
			<path d="M8.78,1.82c0,0.03,0.03,0.02,0.07,0.01C8.83,1.82,8.81,1.81,8.79,1.8C8.78,1.81,8.77,1.81,8.78,1.82z"/>
			<path d="M8.77,1.54C8.76,1.57,8.76,1.6,8.76,1.62C8.77,1.58,8.8,1.52,8.77,1.54z"/>
			<path d="M8.93,1.81L8.93,1.81C8.95,1.78,8.94,1.79,8.93,1.81z"/>
			<path d="M8.93,1.81c-0.02,0-0.05,0.01-0.08,0.02c0.02,0.01,0.04,0.01,0.06,0.01C8.91,1.83,8.92,1.82,8.93,1.81z"/>
			<path d="M7.99,2.05c0.07-0.09,0.18-0.14,0.13-0.02C8.2,1.99,8.43,1.7,8.52,1.51C8.49,1.55,8.46,1.58,8.38,1.6
				c-0.02,0.06-0.01,0.18-0.1,0.23c-0.08,0-0.01-0.06,0-0.13c-0.07,0.12-0.19,0.11-0.3,0.29l0.08-0.03
				C8.04,1.99,7.99,2.02,7.99,2.05z"/>
			<path d="M8.6,1.59L8.62,1.6C8.62,1.56,8.63,1.52,8.66,1.43C8.6,1.44,8.56,1.47,8.54,1.5l0.08,0.09L8.6,1.59z"/>
			<path d="M8.7,1.67C8.6,1.74,8.53,1.74,8.46,1.86c0.05,0.04,0.1-0.04,0.17-0.05C8.53,1.75,8.69,1.78,8.69,1.68
				c0.03,0,0.05,0.01,0.06,0.02c0-0.02,0-0.05,0-0.08l0,0.01l0,0l0,0C8.74,1.64,8.74,1.65,8.74,1.64l0,0L8.7,1.67
				c0-0.04,0.02-0.03,0.04-0.03l0.01-0.01l0,0L8.62,1.6C8.63,1.63,8.65,1.64,8.7,1.67z"/>
			<path d="M8.52,2.43l0.02-0.02C8.53,2.41,8.52,2.42,8.52,2.43z"/>
			<path d="M8.56,2.36c0.02,0,0.06-0.03,0.06,0C8.6,2.39,8.58,2.39,8.54,2.41C8.58,2.4,8.64,2.4,8.67,2.34l-0.02,0
				c0.02-0.05,0.12-0.18,0.13-0.18C8.7,2.23,8.64,2.28,8.56,2.36z"/>
			<path d="M8.63,2.04l-0.1-0.02l-0.05,0.1l0.05-0.04C8.54,2.13,8.59,2.07,8.63,2.04z"/>
			<polygon points="8.57,1.44 8.66,1.35 8.5,1.45 			"/>
			<polygon points="8.46,1.37 8.53,1.29 8.46,1.32 			"/>
			<path d="M5.97,3.97L6,3.97C5.99,3.97,5.98,3.97,5.97,3.97z"/>
			<path d="M5.93,3.89L5.88,3.91C5.91,3.9,5.93,3.89,5.93,3.89z"/>
			<path d="M5.62,1.26C5.53,1.19,5.4,1.08,5.48,1.19l0.08,0.1C5.57,1.25,5.59,1.25,5.62,1.26z"/>
			<path d="M5.2,3.05l0.04,0C5.2,3.03,5.16,3.02,5.13,3L5.2,3.05z"/>
			<path d="M5.7,3.16L5.62,3.17C5.64,3.17,5.67,3.17,5.7,3.16z"/>
			<path d="M6.38,4.23l0.08-0.1C6.44,4.12,6.42,4.18,6.38,4.23z"/>
			<path d="M7.3,0.94C7.27,0.89,7.25,0.87,7.22,0.86C7.26,0.93,7.27,1.04,7.3,0.94z"/>
			<path d="M4.81,4.58c0.03,0,0.05,0,0.08-0.02C4.86,4.55,4.83,4.56,4.81,4.58z"/>
			<path d="M7.12,0.85c0.01,0.01,0.01,0.02,0.02,0.03c0.03-0.02,0.05-0.04,0.09-0.02C7.2,0.8,7.16,0.77,7.12,0.85z"/>
			<path d="M7.86,4.02l0.01,0C7.87,4.01,7.86,4.02,7.86,4.02z"/>
			<path d="M9.27,3.71c0.01,0.01,0,0.03,0,0.05C9.28,3.75,9.29,3.73,9.27,3.71z"/>
			<path d="M8.06,1.07C8.09,1.07,8.07,1.06,8.06,1.07L8.06,1.07z"/>
			<path d="M7.94,1.55C7.93,1.56,7.92,1.58,7.91,1.6C7.92,1.58,7.93,1.56,7.94,1.55z"/>
			<path d="M6.89,1.61L6.89,1.61C6.89,1.63,6.89,1.63,6.89,1.61z"/>
			<path d="M8.07,1.14c0-0.02-0.01-0.03-0.01-0.05C8.06,1.1,8.06,1.12,8.07,1.14z"/>
			<path d="M8.09,1.08C8.1,1.09,8.1,1.1,8.11,1.1C8.12,1.09,8.12,1.07,8.09,1.08z"/>
			<path d="M8.02,1.06c0.01,0,0.02,0.02,0.03,0.03c0-0.01,0-0.02,0-0.02C8.05,1.07,8.04,1.06,8.02,1.06z"/>
			<path d="M7.14,4.82c0,0,0,0.01,0,0.01C7.15,4.78,7.14,4.79,7.14,4.82z"/>
			<polygon points="6.04,2.56 6.04,2.55 6.03,2.55 			"/>
			<path d="M6.08,2.65C5.98,2.54,6,2.54,6.03,2.55L5.76,2.32L6.08,2.65z"/>
			<path d="M6.12,4.13l0.06-0.09c0.16-0.1,0.12-0.04,0.23-0.16C6.12,4.13,6.33,3.84,6.02,4.06L6.08,4c0,0.01,0.02-0.01,0.02,0
				c0.13-0.13-0.25,0.14-0.23,0.06c0.02-0.03,0.06-0.07,0.1-0.08l-0.1,0.01c0-0.01,0.06-0.04,0.06-0.03L5.87,3.92l0.01,0
				C5.83,3.93,5.73,3.95,5.69,3.96c0.04-0.04,0.04-0.01,0.08-0.03l-0.1,0c0.09-0.05,0.19-0.06,0.18-0.04
				c0.34-0.18-0.1,0.01,0.08-0.13L6,3.77c0.2-0.09,0.12-0.08,0.24-0.15c-0.07,0.02-0.3,0.16-0.41,0.16
				c0.02-0.02,0.03-0.03-0.05-0.03c0.13-0.04,0.09-0.05,0.08-0.07l0.18-0.05C5.98,3.64,5.89,3.66,5.81,3.67
				C5.82,3.63,5.95,3.6,6.07,3.57C6.09,3.53,5.85,3.64,5.81,3.6C5.88,3.55,5.8,3.54,5.69,3.5c0.06-0.03,0.11,0,0.16-0.02L5.7,3.47
				c0-0.01,0.05-0.01,0.07-0.01C5.72,3.45,5.59,3.47,5.54,3.44c-0.2-0.01,0.29-0.07,0.07-0.12c0.05-0.01,0.11,0.01,0.18,0.01
				C5.64,3.26,5.68,3.28,5.49,3.2l0.12-0.03C5.48,3.19,5.32,3.12,5.2,3.05c-0.07,0-0.13,0.01-0.15,0.01l-0.08-0.1
				C5,2.95,5.06,2.98,5.13,3L5.09,2.98c0.07-0.01,0.17,0.03,0.26,0.07l-0.12,0c0.11,0.04,0.22,0.08,0.33,0.09
				C5.55,3.13,5.53,3.12,5.52,3.11c0.03,0.01,0.05,0.02,0.07,0.02c0.02,0-0.02-0.01-0.06-0.03l0.2,0.03L5.65,3.11l0.14-0.04
				c-0.19-0.1-0.45-0.25-0.49-0.38c0.12,0.08,0.22,0.1,0.38,0.17c-0.18-0.05,0.05,0.09,0,0.12c0.03-0.01,0.1,0.02,0.13,0.03
				C5.77,2.97,5.73,2.93,5.69,2.88c0.13,0.06,0.1,0.03,0.17,0.03c-0.27-0.1-0.15-0.13-0.21-0.2c0.09,0.04,0.17,0.09,0.13,0.12
				C5.98,2.9,5.5,2.63,5.69,2.67c0,0.01-0.02,0.01,0.02,0.03C5.65,2.65,5.74,2.63,5.8,2.69l0,0.01C5.85,2.66,5.9,2.55,5.72,2.38
				C5.75,2.4,5.94,2.57,5.98,2.61C5.79,2.41,5.62,2.2,5.46,1.97c0.14,0.15,0.52,0.47,0.57,0.58C6.07,2.56,6.1,2.57,6.07,2.5
				C6.04,2.49,5.84,2.31,5.84,2.28c0.19,0.14,0.11,0.07,0.28,0.18C6.07,2.44,5.87,2.19,5.9,2.18c0.03,0.04,0.21,0.24,0.23,0.27
				C6.07,2.36,6.02,2.26,5.97,2.17C5.99,2.22,6.14,2.38,6.2,2.44C6.16,2.4,6.24,2.42,6.23,2.38L6.17,2.34c0.08,0-0.2-0.41-0.11-0.44
				C6.08,1.96,6.25,2.25,6.3,2.27C6.22,2.12,5.98,1.55,6.03,1.39l0.05,0.08l0.02-0.13C6.15,1.59,6.28,2.1,6.34,2.29
				C6.4,2.35,6.4,2.38,6.43,2.36C6.48,2.44,6.47,2.49,6.47,2.5l0.08,0.02c-0.08-0.17-0.03-0.2-0.09-0.34c-0.01,0.07,0,0.15,0,0.22
				C6.37,2.23,6.28,1.87,6.37,1.88C6.42,1.94,6.48,2.2,6.51,2.26C6.49,2.2,6.52,2.12,6.54,2.16l0.01,0.1
				C6.6,2.33,6.52,2.01,6.61,2.18c0.02,0.01,0.1,0.23,0.07,0.12C6.61,2.09,6.43,1.44,6.42,1.27c0.01,0.01,0.16,0.17,0.2,0.28
				C6.68,1.72,6.65,1.96,6.7,2.1c-0.01-0.05-0.01-0.12,0-0.14C6.72,2,6.72,2.12,6.74,2.09C6.72,1.9,6.81,2.1,6.74,1.93
				c0.03-0.06,0.04,0.03,0.08,0.02c-0.03-0.12,0-0.43,0.05-0.48c0,0.05,0.01,0.11,0.02,0.14c0.09,0.01,0.13,0.11,0.2,0.11
				c0,0.05,0.03,0.11,0.01,0.19c0.01-0.03,0.03-0.1,0.05-0.1C7.17,1.98,7.1,1.83,7.11,2.03c0.01-0.11,0.07-0.15,0.11-0.21
				c0.02-0.17-0.07-0.04-0.11,0.02c0.02-0.24,0.11-0.48,0.24-0.57c0.09-0.04,0,0.16,0.02,0.13C7.5,1.48,7.61,1.02,7.69,1.23
				c0,0.16-0.1,0.29-0.12,0.39C7.5,1.66,7.51,1.51,7.47,1.5L7.5,1.59C7.46,1.63,7.42,1.66,7.41,1.61c0,0.14,0.2,0.09,0.24,0.25
				c0.04-0.04,0.09-0.07,0.1-0.14L7.71,1.73C7.73,1.6,7.84,1.6,7.82,1.53c0.08-0.06,0.2-0.16,0.23-0.06L7.97,1.63
				C8,1.59,7.99,1.52,7.94,1.55C8.01,1.5,7.91,1.81,8.06,1.63L8.08,1.5c0.09-0.05,0.25-0.17,0.28-0.08C8.43,1.26,8.33,1.43,8.4,1.23
				C8.3,1.46,8.25,1.13,8.17,1.39c0.08-0.23-0.02-0.13,0.01-0.34C8.15,1.1,8.15,1.16,8.11,1.1C8.1,1.12,8.08,1.13,8.07,1.14l0-0.01
				l0,0.01c-0.01,0.01-0.01,0.01,0,0c0,0.03,0,0.06-0.01,0.09C7.97,1.34,7.89,1.3,7.84,1.35C7.82,1.31,7.88,1.3,7.89,1.23L7.81,1.31
				c0.05-0.12-0.01-0.23,0.1-0.27L7.83,1.01C7.82,0.93,7.76,0.88,7.71,0.92C7.68,0.88,7.58,1.03,7.64,0.94L7.5,0.99l0.01-0.03
				C7.39,0.91,7.25,1.12,7.14,0.88C7.09,0.91,7.05,0.95,6.99,0.91L6.98,0.8C6.93,0.83,6.81,0.69,6.8,0.81
				c-0.08-0.3-0.27-0.04-0.37-0.07l0.02,0.14c-0.06,0-0.11,0.06-0.17,0.13l0.04,0.12C6.29,1.24,6.14,1.09,6.05,1.14
				C6.03,1.09,6.06,1.1,6.09,1.12C5.86,0.89,5.94,1.41,5.76,1.27c0,0.05-0.02,0.05-0.06,0.03l0-0.01l-0.01,0
				C5.67,1.29,5.64,1.27,5.62,1.26C5.65,1.28,5.67,1.3,5.69,1.3C5.67,1.32,5.65,1.35,5.64,1.39L5.56,1.28l0,0.01
				C5.5,1.26,5.57,1.36,5.64,1.43c0,0.03,0,0.06,0.01,0.09C5.5,1.36,5.63,1.63,5.47,1.46c0.05,0.1-0.07,0.16,0.08,0.36
				C5.53,1.79,5.51,1.79,5.52,1.78c-0.04,0-0.08,0-0.06,0.07L5.33,1.73l0.12,0.21c-0.1-0.04-0.16-0.07-0.23-0.2
				c0.08,0.22,0,0.12,0.1,0.31L5.23,1.99C5.22,2.02,5.31,2.15,5.22,2.1C5,2.03,5.01,2.36,4.76,2.45c0.32,0.1-0.17,0.02,0.07,0.13
				C4.75,2.56,4.7,2.57,4.64,2.51c0.04,0.12-0.17,0.11,0.02,0.23C4.58,2.74,4.56,2.7,4.51,2.69c0.01,0.01,0.06,0.05,0.01,0.05
				c-0.05,0-0.06-0.03-0.09-0.06C4.42,2.79,4.65,2.86,4.87,2.91C4.75,2.93,4.76,2.96,4.9,3.02c-0.07,0-0.16,0.02-0.17-0.05
				C4.71,3,4.59,3.17,4.77,3.19c-0.05,0.01-0.02,0.04,0,0.05C4.76,3.31,4.75,3.32,4.76,3.39l0.03-0.02C5.01,3.4,4.84,3.42,4.87,3.48
				l-0.02,0C4.7,3.61,4.92,3.52,4.75,3.66l0.13-0.02c0.29-0.03-0.16,0.13-0.03,0.19l0.07-0.04c0.1,0.01-0.36,0.19-0.39,0.25
				c-0.02,0.02-0.04,0-0.07-0.01C4.34,4.19,4.65,4,4.72,4.07C4.63,4.11,4.47,4.12,4.48,4.18c-0.06,0.06,0.35,0.06,0.21,0.2
				C4.75,4.34,4.81,4.3,4.88,4.31C4.92,4.34,4.7,4.58,4.93,4.52C4.92,4.54,4.9,4.55,4.89,4.56c0.08,0.01,0.16,0.08,0.28,0.03
				c-0.36,0.31,0.34,0.07,0,0.34l0.11,0.09L5.25,5.04c0.04,0.09,0.14,0.03,0.23-0.03C5.48,5.05,5.44,5.07,5.42,5.09
				C5.46,5.24,5.5,5.24,5.7,5.13L5.63,5.25C5.69,5.2,5.67,5.54,5.87,5.46C5.86,5.48,5.85,5.5,5.83,5.51
				c0.19-0.08,0.2,0.51,0.42,0.04l0.12-0.1c-0.1-0.07,0.08-0.21,0.06-0.3c0.04-0.02,0.06,0.17,0,0.19l0-0.03
				C6.34,5.57,6.54,5.45,6.5,5.62C6.74,5.65,6.97,5.81,7.21,5.8l-0.05-0.2l0.08,0c0.03,0.04,0.05,0.16-0.01,0.16
				c0.05,0.11,0.08-0.11,0.08-0.16c0.12,0.07,0,0.25,0.03,0.25l0.05-0.02L7.37,5.79C7.39,5.7,7.38,5.62,7.44,5.61
				c0.05,0.03,0.05,0.12,0.07,0.12c0,0.01,0.01,0.02,0.03,0l0.11-0.01L7.56,5.58C7.58,5.49,7.65,5.56,7.56,5.4
				c0.15,0.26,0.37-0.03,0.43,0.03c0-0.13,0.05-0.16,0.12-0.19C8.07,5.22,7.97,5.07,8.03,5.06c0.19,0.33,0.18,0.08,0.39,0.26
				c-0.15-0.11,0.12-0.15-0.1-0.3C8.37,5.01,8.41,5.12,8.5,5.16c0-0.19,0.28-0.13,0.35-0.3C8.8,4.83,8.73,4.8,8.69,4.73l0.25,0.08
				c0-0.04-0.22-0.19-0.04-0.14C8.86,4.66,8.8,4.63,8.8,4.6c0.18-0.06,0.22-0.24,0.25-0.39c0.04-0.16,0.08-0.29,0.33-0.42
				c-0.1,0.03-0.11,0-0.11-0.04C9.25,3.77,9.15,3.74,9.09,3.73c0.07-0.03,0.14-0.07,0.2-0.11c-0.19-0.04,0-0.15-0.18-0.17L9.14,3.5
				C8.93,3.44,8.66,3.54,8.39,3.51c0.24,0.07-0.37,0.05-0.03,0.17c-0.06,0-0.08-0.03-0.15-0.03c0.11,0.04,0.13,0.06,0.07,0.08
				L8.26,3.72c0.01,0.1-0.12,0.11-0.23,0.17l0.13,0.05c-0.03,0.01-0.07,0-0.1-0.01c0.17,0.11,0.04-0.05,0.23,0.06
				C8.03,3.9,8.21,4.14,7.92,4C7.91,4.02,8.06,4.07,8.04,4.1L7.97,4.06l0.09,0.07C8.03,4.14,7.93,4.09,7.87,4.05
				c0.01,0-0.01-0.02-0.01-0.03c-0.1-0.04-0.02,0.08-0.05,0.06l0.06,0.01c0.01,0.12-0.14,0.12-0.09,0.3l0.05,0.04
				c0.02,0.14-0.09-0.02-0.12,0.07L7.71,4.49c0.02,0.06,0.02,0.1,0,0.11C7.68,4.52,7.6,4.49,7.57,4.41c0,0.14,0.02,0.1,0.09,0.34
				L7.6,4.66C7.63,4.75,7.65,4.8,7.62,4.84c-0.01-0.1-0.09-0.13-0.11-0.26C7.35,4.41,7.48,4.85,7.33,4.55
				c0.06,0.29,0.12,0.13,0.12,0.19c0.05,0.08,0.04,0.22,0,0.2C7.42,4.95,7.29,4.6,7.24,4.62c0.01,0,0-0.02,0.01-0.02
				c-0.04-0.07-0.02,0.11-0.07,0c0.02,0.18-0.04,0-0.01,0.22l0.05-0.06C7.2,4.81,7.2,5.08,7.12,4.96c0-0.05,0.01-0.11,0.02-0.14
				C7.11,4.76,7.11,4.87,7.08,4.8C7.06,4.58,7.15,4.74,7.16,4.57C7.13,4.48,7.12,4.74,7.1,4.5C7.12,4.81,7.04,4.47,7.02,4.7l0-0.13
				c0,0.02-0.02,0.09-0.03,0.08L7,4.47C6.98,4.62,6.94,4.35,6.92,4.43c0.06,0,0.01,0.16,0.04,0.26C6.86,4.87,6.92,4.33,6.84,4.4
				c0.01-0.02,0.03,0.08,0.01,0.14C6.84,4.51,6.82,4.46,6.82,4.39C6.77,4.41,6.81,4.52,6.78,4.6c0-0.17-0.04,0.06-0.08,0.11
				l0.02-0.13C6.68,4.48,6.65,4.85,6.6,4.73l0.07-0.18L6.63,4.59l0.05-0.15C6.62,4.55,6.61,4.52,6.6,4.47
				C6.57,4.56,6.51,4.7,6.48,4.69c0.01-0.08,0.06-0.12,0.01-0.12C6.53,4.5,6.57,4.4,6.55,4.53L6.6,4.41
				c0.01-0.1-0.04-0.04-0.05-0.04c0,0.01,0.01,0.02,0,0.03c-0.04,0.05-0.08,0.1-0.13,0.15C6.43,4.5,6.46,4.47,6.48,4.44
				C6.46,4.44,6.43,4.5,6.41,4.5c0.05-0.1,0.1-0.2,0.14-0.24l-0.1,0.09c0.02-0.04,0.04-0.13,0.06-0.16
				c0.02-0.07-0.17,0.15-0.15,0.06C6.35,4.26,6.34,4.28,6.32,4.29C6.3,4.24,6.36,4.12,6.24,4.21l0.12-0.16
				C6.3,4.06,6.21,4.25,6.11,4.27C6.03,4.28,6.22,4.14,6.25,4.09C6.17,4.15,5.99,4.25,6.08,4.12C6.12,4.1,6.11,4.13,6.12,4.13z
				 M5.83,3.79c0.03,0,0.12-0.02,0.05,0.02C5.72,3.85,5.79,3.82,5.83,3.79z M5.48,3.01C5.52,3.03,5.5,3.04,5.44,3.04
				C5.43,3.03,5.44,3.02,5.48,3.01z M7.75,1.06L7.75,1.06C7.73,1.01,7.73,1.03,7.75,1.06z M7.81,1.15C7.83,1.13,7.83,1.12,7.84,1.1
				C7.82,1.13,7.8,1.12,7.78,1.11C7.78,1.14,7.78,1.17,7.81,1.15z M7.51,5.68L7.49,5.65C7.51,5.61,7.51,5.64,7.51,5.68z"/>
			<path d="M5.64,3.15L5.57,3.14C5.59,3.15,5.61,3.15,5.64,3.15z"/>
			<polygon points="6.36,4.24 6.36,4.25 6.38,4.23 			"/>
			<path d="M6.73,2.17C6.72,2.15,6.71,2.12,6.7,2.1C6.71,2.13,6.71,2.16,6.73,2.17z"/>
			<path d="M8.33,1.15l-0.07,0c0.03,0.01,0.02,0.04,0.02,0.07C8.3,1.19,8.32,1.14,8.33,1.15z"/>
			<path d="M8.17,2.08c0.02-0.01,0.01,0.01,0.03,0l0.04-0.05C8.21,2.02,8.16,2.04,8.17,2.08z"/>
			<path d="M8.13,1.56c-0.06,0.1-0.01,0.08,0.03,0.08l0,0C8.25,1.51,8.19,1.53,8.13,1.56z"/>
			<path d="M8.17,1.64c0.01,0,0.02,0.01,0.03,0.02C8.24,1.61,8.19,1.64,8.17,1.64z"/>
			<path d="M7.94,1.12c0,0.03,0.07-0.13,0.06-0.08C8.08,0.91,7.82,1.15,7.94,1.12z"/>
			<polygon points="7.95,1.89 8.02,1.77 7.94,1.85 			"/>
			<path d="M7.8,1.69l0.02,0.06C7.83,1.72,7.85,1.71,7.86,1.7C7.83,1.69,7.82,1.65,7.8,1.69z"/>
			<path d="M7.86,1.7c0.01,0.01,0.03,0.02,0.04,0C7.9,1.7,7.88,1.69,7.86,1.7z"/>
			<polygon points="7.87,1.89 7.88,1.86 7.85,1.84 			"/>
			<path d="M7.32,1.49L7.26,1.52c-0.01,0.05,0,0.08,0.02,0.06C7.29,1.56,7.32,1.54,7.32,1.49z"/>
			<path d="M7.37,1.91c0-0.03,0-0.06,0.01-0.11L7.33,1.97L7.37,1.91z"/>
			<path d="M7.24,1.92C7.23,1.96,7.16,2.05,7.21,2.04C7.22,1.99,7.27,1.96,7.24,1.92z"/>
			<polygon points="6.58,1.7 6.59,1.7 6.52,1.42 			"/>
			<path d="M6.38,2.52c0.07,0.04-0.09-0.15-0.01-0.1C6.34,2.36,6.3,2.38,6.28,2.33C6.3,2.4,6.26,2.37,6.38,2.52z"/>
			<path d="M6.28,2.33c0-0.01-0.01-0.03-0.01-0.04C6.27,2.3,6.27,2.31,6.28,2.33z"/>
			<polygon points="9.44,3.54 9.51,3.49 9.41,3.52 			"/>
			<path d="M9.23,3.44l0.18-0.01L9.25,3.4C9.26,3.41,9.28,3.43,9.23,3.44z"/>
			<path d="M6.16,3.62L6.12,3.63C6.07,3.65,6.07,3.65,6.07,3.67L6.16,3.62z"/>
			<polygon points="6.14,3.9 6.14,3.9 6,3.99 			"/>
			<path d="M6.43,3.93c0-0.01-0.03,0.01-0.03,0C6.43,3.92,6.29,4.08,6.43,3.93z"/>
		</g>
	</g>
	<g>
		<circle cx="15.23" cy="3.4" r="1.81"/>
		<g>
			<path d="M17.73,3.38c-0.01,0.02,0.11,0.01,0.13,0.02C17.83,3.36,17.7,3.38,17.73,3.38z"/>
			<polygon points="17.43,3.04 17.48,3.04 17.35,3.01 			"/>
			<path d="M17.36,2.73c-0.19,0.09,0.06,0.1,0.01,0.18l-0.04,0.02l0.17-0.01C17.44,2.85,17.32,2.79,17.36,2.73z"/>
			<path d="M17.71,2.41c-0.07,0.04-0.08-0.02-0.01,0.05l0.02-0.02C17.71,2.44,17.71,2.43,17.71,2.41z"/>
			<path d="M17.72,2.45C17.74,2.48,17.77,2.4,17.72,2.45L17.72,2.45z"/>
			<path d="M17.6,2.29l0.09,0.02c0.04-0.03,0.03-0.08,0.06-0.08C17.7,2.2,17.66,2.23,17.6,2.29z"/>
			<path d="M17.45,2.31l0.04,0.01C17.5,2.31,17.51,2.3,17.45,2.31z"/>
			<path d="M17.57,2.35l-0.08-0.02c-0.03,0.02-0.09,0.05,0.03,0.01C17.46,2.36,17.52,2.34,17.57,2.35z"/>
			<path d="M17.55,2.39c-0.03,0.04-0.04,0.09-0.12,0.07C17.49,2.53,17.62,2.47,17.55,2.39z"/>
			<path d="M17.15,2.78l-0.05,0.05l0.07,0.01C17.14,2.83,17.22,2.76,17.15,2.78z"/>
			<path d="M17.54,1.95c-0.04,0.02-0.09,0.08-0.13,0.11l0.06,0.01C17.48,2.04,17.48,1.99,17.54,1.95z"/>
			<path d="M17.4,2.06l-0.09-0.01C17.33,2.1,17.37,2.09,17.4,2.06z"/>
			<polygon points="17.24,2.41 17.42,2.42 17.24,2.39 			"/>
			<polygon points="17.41,1.76 17.51,1.73 17.36,1.77 			"/>
			<path d="M17.31,1.65c0.08-0.03,0.08-0.12,0.14-0.13c-0.04-0.02-0.12,0-0.19,0.02C17.31,1.54,17.33,1.58,17.31,1.65z"/>
			<path d="M17.16,1.57c0.03,0,0.06-0.01,0.1-0.02C17.23,1.54,17.2,1.55,17.16,1.57z"/>
			<path d="M17.28,1.96c0.02-0.02,0.07-0.06,0.07-0.11l-0.09,0.09L17.28,1.96z"/>
			<path d="M17.26,1.95L17.26,1.95c-0.01-0.02-0.02-0.04-0.02-0.04C17.25,1.91,17.25,1.92,17.26,1.95z"/>
			<path d="M17.28,1.97L17.28,1.97C17.27,1.97,17.27,1.98,17.28,1.97z"/>
			<path d="M17.28,2.24c-0.08,0.01-0.17-0.01-0.23,0.1C17.13,2.31,17.17,2.25,17.28,2.24z"/>
			<path d="M17.17,2.08l0.01,0.06c0.03-0.02,0.06-0.05,0.1-0.06L17.17,2.08z"/>
			<polygon points="17.12,2.08 17.17,2.08 17.17,2.05 			"/>
			<path d="M17.14,1.72c-0.06,0.02-0.08,0-0.11-0.02c0,0.04,0.02,0.07,0.04,0.1C17.11,1.78,17.17,1.74,17.14,1.72z"/>
			<path d="M17.2,1.84L17.2,1.84C17.18,1.84,17.18,1.85,17.2,1.84z"/>
			<polygon points="16.82,1.49 16.81,1.51 16.82,1.5 			"/>
			<path d="M17.06,1.82c0,0.03,0.03,0.02,0.07,0.01c-0.02-0.01-0.04-0.02-0.06-0.03C17.06,1.81,17.05,1.81,17.06,1.82z"/>
			<path d="M17.05,1.54c-0.01,0.03-0.01,0.06-0.02,0.08C17.06,1.58,17.08,1.52,17.05,1.54z"/>
			<path d="M17.21,1.81L17.21,1.81C17.23,1.78,17.22,1.79,17.21,1.81z"/>
			<path d="M17.21,1.81c-0.02,0-0.05,0.01-0.08,0.02c0.02,0.01,0.04,0.01,0.06,0.01C17.19,1.83,17.2,1.82,17.21,1.81z"/>
			<path d="M16.27,2.05c0.07-0.09,0.18-0.14,0.13-0.02c0.08-0.04,0.31-0.33,0.41-0.52c-0.03,0.04-0.06,0.07-0.15,0.09
				c-0.02,0.06-0.01,0.18-0.1,0.23c-0.08,0-0.01-0.06,0-0.13c-0.07,0.12-0.19,0.11-0.3,0.29l0.08-0.03
				C16.32,1.99,16.28,2.02,16.27,2.05z"/>
			<path d="M16.88,1.59l0.03,0.01c-0.01-0.03,0.01-0.08,0.04-0.17c-0.07,0.01-0.1,0.04-0.13,0.07l0.08,0.09L16.88,1.59z"/>
			<path d="M16.98,1.67c-0.1,0.07-0.17,0.08-0.24,0.19c0.05,0.04,0.1-0.04,0.17-0.05c-0.09-0.06,0.07-0.02,0.07-0.13
				c0.03,0,0.05,0.01,0.06,0.02c0-0.02,0-0.05,0-0.08l0,0.01l0,0l0,0c-0.01,0.01-0.01,0.02-0.01,0.01l0,0L16.98,1.67
				c0-0.04,0.02-0.03,0.04-0.03l0.01-0.01l0,0L16.91,1.6C16.91,1.63,16.94,1.64,16.98,1.67z"/>
			<path d="M16.8,2.43l0.02-0.02C16.81,2.41,16.8,2.42,16.8,2.43z"/>
			<path d="M16.85,2.36c0.02,0,0.06-0.03,0.06,0c-0.02,0.03-0.05,0.03-0.08,0.05c0.03-0.01,0.1-0.01,0.13-0.07l-0.02,0
				c0.02-0.05,0.12-0.18,0.13-0.18C16.99,2.23,16.93,2.28,16.85,2.36z"/>
			<path d="M16.92,2.04l-0.1-0.02l-0.05,0.1l0.05-0.04C16.82,2.13,16.87,2.07,16.92,2.04z"/>
			<polygon points="16.85,1.44 16.94,1.35 16.78,1.45 			"/>
			<polygon points="16.74,1.37 16.81,1.29 16.74,1.32 			"/>
			<path d="M14.25,3.97l0.03-0.01C14.28,3.97,14.26,3.97,14.25,3.97z"/>
			<path d="M14.22,3.89l-0.05,0.02C14.2,3.9,14.22,3.89,14.22,3.89z"/>
			<path d="M13.91,1.26c-0.09-0.07-0.22-0.18-0.15-0.08l0.08,0.1C13.85,1.25,13.88,1.25,13.91,1.26z"/>
			<path d="M13.48,3.05l0.04,0C13.48,3.03,13.45,3.02,13.41,3L13.48,3.05z"/>
			<path d="M13.98,3.16L13.9,3.17C13.93,3.17,13.95,3.17,13.98,3.16z"/>
			<path d="M14.66,4.23l0.08-0.1C14.73,4.12,14.7,4.18,14.66,4.23z"/>
			<path d="M15.58,0.94c-0.03-0.05-0.05-0.08-0.08-0.09C15.54,0.93,15.56,1.04,15.58,0.94z"/>
			<path d="M13.09,4.58c0.03,0,0.05,0,0.08-0.02C13.14,4.55,13.12,4.56,13.09,4.58z"/>
			<path d="M15.4,0.85c0.01,0.01,0.01,0.02,0.02,0.03c0.03-0.02,0.05-0.04,0.09-0.02C15.48,0.8,15.44,0.77,15.4,0.85z"/>
			<path d="M16.15,4.02l0.01,0C16.15,4.01,16.15,4.02,16.15,4.02z"/>
			<path d="M17.56,3.71c0.01,0.01,0,0.03,0,0.05C17.57,3.75,17.57,3.73,17.56,3.71z"/>
			<path d="M16.34,1.07C16.37,1.07,16.35,1.06,16.34,1.07L16.34,1.07z"/>
			<path d="M16.23,1.55c-0.01,0.01-0.02,0.02-0.04,0.05C16.21,1.58,16.22,1.56,16.23,1.55z"/>
			<path d="M15.17,1.61L15.17,1.61C15.17,1.63,15.17,1.63,15.17,1.61z"/>
			<path d="M16.35,1.14c0-0.02-0.01-0.03-0.01-0.05C16.34,1.1,16.34,1.12,16.35,1.14z"/>
			<path d="M16.37,1.08c0.01,0.01,0.01,0.01,0.02,0.02C16.4,1.09,16.4,1.07,16.37,1.08z"/>
			<path d="M16.31,1.06c0.01,0,0.02,0.02,0.03,0.03c0-0.01,0-0.02,0-0.02C16.33,1.07,16.32,1.06,16.31,1.06z"/>
			<path d="M15.42,4.82c0,0,0,0.01,0,0.01C15.43,4.78,15.43,4.79,15.42,4.82z"/>
			<polygon points="14.32,2.56 14.32,2.55 14.32,2.55 			"/>
			<path d="M14.36,2.65c-0.1-0.11-0.08-0.11-0.05-0.1l-0.27-0.23L14.36,2.65z"/>
			<path d="M14.41,4.13l0.06-0.09c0.16-0.1,0.12-0.04,0.23-0.16c-0.29,0.25-0.08-0.04-0.39,0.19L14.36,4c0,0.01,0.02-0.01,0.02,0
				c0.13-0.13-0.25,0.14-0.23,0.06c0.02-0.03,0.06-0.07,0.1-0.08l-0.1,0.01c0-0.01,0.06-0.04,0.06-0.03l-0.05-0.04l0.01,0
				c-0.06,0.02-0.15,0.04-0.19,0.05c0.04-0.04,0.04-0.01,0.08-0.03l-0.1,0c0.09-0.05,0.19-0.06,0.18-0.04
				c0.34-0.18-0.1,0.01,0.08-0.13l0.06,0.01c0.2-0.09,0.12-0.08,0.24-0.15c-0.07,0.02-0.3,0.16-0.41,0.16
				c0.02-0.02,0.03-0.03-0.05-0.03c0.13-0.04,0.09-0.05,0.08-0.07l0.18-0.05c-0.06-0.01-0.14,0.02-0.23,0.02
				c0.01-0.03,0.15-0.07,0.26-0.09c0.02-0.04-0.22,0.07-0.26,0.03c0.06-0.05-0.02-0.06-0.13-0.1c0.06-0.03,0.11,0,0.16-0.02
				l-0.15-0.01c0-0.01,0.05-0.01,0.07-0.01C14,3.45,13.88,3.47,13.82,3.44c-0.2-0.01,0.29-0.07,0.07-0.12
				c0.05-0.01,0.11,0.01,0.18,0.01c-0.15-0.07-0.11-0.05-0.3-0.13l0.12-0.03c-0.14,0.01-0.29-0.05-0.42-0.13
				c-0.07,0-0.13,0.01-0.15,0.01l-0.08-0.1c0.03,0,0.09,0.02,0.16,0.05l-0.04-0.02c0.07-0.01,0.17,0.03,0.26,0.07l-0.12,0
				c0.11,0.04,0.22,0.08,0.33,0.09c-0.02-0.01-0.04-0.02-0.05-0.03c0.03,0.01,0.05,0.02,0.07,0.02c0.02,0-0.02-0.01-0.06-0.03
				l0.2,0.03l-0.08-0.02l0.14-0.04c-0.19-0.1-0.45-0.25-0.49-0.38c0.12,0.08,0.22,0.1,0.38,0.17c-0.18-0.05,0.05,0.09,0,0.12
				c0.03-0.01,0.1,0.02,0.13,0.03c-0.05-0.04-0.09-0.08-0.13-0.13c0.13,0.06,0.1,0.03,0.17,0.03c-0.27-0.1-0.15-0.13-0.21-0.2
				c0.09,0.04,0.17,0.09,0.13,0.12c0.21,0.06-0.27-0.2-0.09-0.16c0,0.01-0.02,0.01,0.02,0.03c-0.06-0.06,0.03-0.08,0.09-0.02l0,0.01
				c0.06-0.04,0.11-0.15-0.07-0.31c0.02,0.02,0.22,0.19,0.25,0.23c-0.19-0.2-0.36-0.41-0.52-0.64c0.14,0.15,0.52,0.47,0.57,0.58
				c0.03,0.01,0.06,0.02,0.03-0.05c-0.03-0.02-0.23-0.19-0.23-0.22c0.19,0.14,0.11,0.07,0.28,0.18c-0.04-0.02-0.25-0.28-0.22-0.29
				c0.03,0.04,0.21,0.24,0.23,0.27c-0.06-0.09-0.11-0.19-0.16-0.29c0.02,0.06,0.17,0.21,0.23,0.28c-0.04-0.05,0.04-0.02,0.03-0.06
				l-0.06-0.05c0.08,0-0.2-0.41-0.11-0.44c0.02,0.06,0.19,0.36,0.24,0.38c-0.08-0.15-0.31-0.72-0.27-0.88l0.05,0.08l0.02-0.13
				c0.04,0.25,0.17,0.76,0.24,0.95c0.06,0.05,0.06,0.09,0.08,0.07c0.05,0.07,0.05,0.13,0.04,0.13l0.08,0.02
				c-0.08-0.17-0.03-0.2-0.09-0.34c-0.01,0.07,0,0.15,0,0.22c-0.09-0.17-0.18-0.52-0.09-0.51c0.04,0.07,0.11,0.32,0.13,0.38
				c-0.02-0.06,0.01-0.14,0.03-0.09l0.01,0.1c0.05,0.06-0.03-0.26,0.06-0.09c0.02,0.01,0.1,0.23,0.07,0.12
				c-0.07-0.21-0.25-0.85-0.26-1.02c0.01,0.01,0.16,0.17,0.2,0.28c0.06,0.16,0.03,0.41,0.08,0.55c-0.01-0.05-0.01-0.12,0-0.14
				C15,2,15,2.12,15.03,2.09C15,1.9,15.1,2.1,15.02,1.93c0.03-0.06,0.04,0.03,0.08,0.02c-0.03-0.12,0-0.43,0.05-0.48
				c0,0.05,0.01,0.11,0.02,0.14c0.09,0.01,0.13,0.11,0.2,0.11c0,0.05,0.03,0.11,0.01,0.19c0.01-0.03,0.03-0.1,0.05-0.1
				c0.02,0.17-0.05,0.02-0.04,0.22c0.01-0.11,0.07-0.15,0.11-0.21c0.02-0.17-0.07-0.04-0.11,0.02c0.02-0.24,0.11-0.48,0.24-0.57
				c0.09-0.04,0,0.16,0.02,0.13c0.12,0.08,0.24-0.38,0.31-0.17c0,0.16-0.1,0.29-0.12,0.39c-0.07,0.03-0.05-0.12-0.1-0.13l0.03,0.08
				c-0.03,0.04-0.08,0.07-0.09,0.02c0,0.14,0.2,0.09,0.24,0.25c0.04-0.04,0.09-0.07,0.1-0.14l-0.04,0.01
				c0.02-0.13,0.13-0.13,0.11-0.2c0.08-0.06,0.2-0.16,0.23-0.06l-0.08,0.16c0.02-0.04,0.01-0.11-0.03-0.08
				c0.07-0.05-0.03,0.26,0.11,0.08l0.02-0.13c0.09-0.05,0.25-0.17,0.28-0.08c0.07-0.16-0.02,0.01,0.05-0.19
				c-0.1,0.23-0.15-0.11-0.23,0.15c0.08-0.23-0.02-0.13,0.01-0.34c-0.02,0.05-0.03,0.11-0.07,0.06c-0.01,0.01-0.03,0.03-0.03,0.04
				l0-0.01l0,0.01c-0.01,0.01-0.01,0.01,0,0c0,0.03,0,0.06-0.01,0.09c-0.09,0.1-0.16,0.06-0.22,0.11c-0.02-0.04,0.04-0.05,0.05-0.12
				l-0.08,0.08c0.05-0.12-0.01-0.23,0.1-0.27l-0.07-0.03c-0.02-0.08-0.07-0.13-0.13-0.09c-0.03-0.04-0.13,0.11-0.07,0.02l-0.14,0.05
				l0.01-0.03c-0.12-0.04-0.26,0.16-0.37-0.08c-0.04,0.03-0.08,0.07-0.15,0.03L15.26,0.8c-0.05,0.04-0.16-0.11-0.18,0.01
				c-0.08-0.3-0.27-0.04-0.37-0.07l0.02,0.14c-0.06,0-0.11,0.06-0.17,0.13l0.04,0.12c-0.03,0.11-0.18-0.04-0.27,0.01
				c-0.01-0.05,0.02-0.04,0.05-0.02c-0.23-0.22-0.15,0.29-0.33,0.15c0,0.05-0.02,0.05-0.06,0.03l0-0.01l-0.01,0
				c-0.02-0.01-0.05-0.03-0.07-0.04c0.03,0.02,0.05,0.04,0.06,0.04c-0.02,0.01-0.04,0.04-0.05,0.09l-0.09-0.11l0,0.01
				c-0.06-0.02,0.01,0.07,0.09,0.14c0,0.03,0,0.06,0.01,0.09c-0.15-0.17-0.02,0.11-0.19-0.06c0.05,0.1-0.07,0.16,0.08,0.36
				c-0.02-0.02-0.04-0.03-0.03-0.04c-0.04,0-0.08,0-0.06,0.07l-0.13-0.12l0.12,0.21c-0.1-0.04-0.16-0.07-0.23-0.2
				c0.08,0.22,0,0.12,0.1,0.31l-0.08-0.07C13.5,2.02,13.59,2.15,13.5,2.1c-0.22-0.07-0.21,0.26-0.46,0.34
				c0.32,0.1-0.17,0.02,0.07,0.13c-0.08-0.02-0.13-0.01-0.18-0.06c0.04,0.12-0.17,0.11,0.02,0.23c-0.08-0.01-0.1-0.05-0.15-0.06
				c0.01,0.01,0.06,0.05,0.01,0.05c-0.05,0-0.06-0.03-0.09-0.06c-0.02,0.11,0.22,0.18,0.44,0.23c-0.12,0.02-0.11,0.05,0.04,0.11
				c-0.07,0-0.16,0.02-0.17-0.05C13,3,12.87,3.17,13.06,3.19c-0.05,0.01-0.02,0.04,0,0.05c-0.01,0.07-0.03,0.08-0.02,0.15l0.03-0.02
				c0.22,0.03,0.05,0.06,0.08,0.11l-0.02,0c-0.15,0.14,0.07,0.05-0.09,0.19l0.13-0.02c0.29-0.03-0.16,0.13-0.03,0.19l0.07-0.04
				c0.1,0.01-0.36,0.19-0.39,0.25c-0.02,0.02-0.04,0-0.07-0.01C12.63,4.19,12.94,4,13,4.07c-0.09,0.04-0.24,0.05-0.24,0.11
				c-0.06,0.06,0.35,0.06,0.21,0.2c0.06-0.05,0.12-0.09,0.19-0.08c0.05,0.04-0.18,0.27,0.05,0.21c-0.01,0.02-0.03,0.03-0.04,0.04
				c0.08,0.01,0.16,0.08,0.28,0.03c-0.36,0.31,0.34,0.07,0,0.34l0.11,0.09l-0.03,0.03c0.04,0.09,0.14,0.03,0.23-0.03
				c-0.01,0.04-0.04,0.06-0.06,0.07c0.04,0.15,0.07,0.15,0.28,0.04l-0.07,0.12c0.06-0.05,0.04,0.29,0.24,0.21
				c-0.01,0.01-0.02,0.04-0.04,0.05c0.19-0.08,0.2,0.51,0.42,0.04l0.12-0.1c-0.1-0.07,0.08-0.21,0.06-0.3
				c0.04-0.02,0.06,0.17,0,0.19l0-0.03c-0.09,0.25,0.11,0.13,0.07,0.3c0.23,0.03,0.46,0.19,0.71,0.17l-0.05-0.2l0.08,0
				c0.03,0.04,0.05,0.16-0.01,0.16c0.05,0.11,0.08-0.11,0.08-0.16c0.12,0.07,0,0.25,0.03,0.25l0.05-0.02l-0.02-0.02
				c0.02-0.09,0.01-0.18,0.08-0.18c0.05,0.03,0.05,0.12,0.07,0.12c0,0.01,0.01,0.02,0.03,0l0.11-0.01l-0.09-0.15
				c0.02-0.09,0.09-0.02-0.01-0.18c0.15,0.26,0.37-0.03,0.43,0.03c0-0.13,0.05-0.16,0.12-0.19c-0.03-0.02-0.14-0.17-0.08-0.18
				c0.19,0.33,0.18,0.08,0.39,0.26c-0.15-0.11,0.12-0.15-0.1-0.3c0.06-0.01,0.09,0.11,0.18,0.15c0-0.19,0.28-0.13,0.35-0.3
				c-0.04-0.03-0.11-0.06-0.15-0.13l0.25,0.08c0-0.04-0.22-0.19-0.04-0.14c-0.04-0.02-0.1-0.04-0.1-0.07
				c0.18-0.06,0.22-0.24,0.25-0.39c0.04-0.16,0.08-0.29,0.33-0.42c-0.1,0.03-0.11,0-0.11-0.04c-0.03,0.02-0.12-0.02-0.19-0.03
				c0.07-0.03,0.14-0.07,0.2-0.11c-0.19-0.04,0-0.15-0.18-0.17l0.03,0.04c-0.21-0.06-0.47,0.04-0.74,0.01
				c0.24,0.07-0.37,0.05-0.03,0.17c-0.06,0-0.08-0.03-0.15-0.03c0.11,0.04,0.13,0.06,0.07,0.08l-0.03-0.01
				c0.01,0.1-0.12,0.11-0.23,0.17l0.13,0.05c-0.03,0.01-0.07,0-0.1-0.01c0.17,0.11,0.04-0.05,0.23,0.06
				C16.31,3.9,16.49,4.14,16.21,4c-0.02,0.03,0.14,0.07,0.12,0.1l-0.08-0.04l0.09,0.07c-0.03,0.01-0.12-0.04-0.18-0.08
				c0.01,0-0.01-0.02-0.01-0.03c-0.1-0.04-0.02,0.08-0.05,0.06l0.06,0.01c0.01,0.12-0.14,0.12-0.09,0.3l0.05,0.04
				c0.02,0.14-0.09-0.02-0.12,0.07l-0.01-0.01c0.02,0.06,0.02,0.1,0,0.11c-0.02-0.07-0.11-0.1-0.13-0.19c0,0.14,0.02,0.1,0.09,0.34
				l-0.06-0.09c0.03,0.09,0.05,0.14,0.02,0.18c-0.01-0.1-0.09-0.13-0.11-0.26c-0.16-0.17-0.03,0.26-0.18-0.04
				c0.06,0.29,0.12,0.13,0.12,0.19c0.05,0.08,0.04,0.22,0,0.2c-0.03,0.01-0.16-0.34-0.21-0.32c0.01,0,0-0.02,0.01-0.02
				c-0.04-0.07-0.02,0.11-0.07,0c0.02,0.18-0.04,0-0.01,0.22l0.05-0.06c-0.02,0.06-0.02,0.33-0.11,0.21c0-0.05,0.01-0.11,0.02-0.14
				c-0.03-0.06-0.03,0.05-0.05-0.02c-0.02-0.22,0.07-0.06,0.08-0.23c-0.03-0.09-0.04,0.17-0.06-0.07c0.01,0.31-0.06-0.03-0.08,0.21
				l0-0.13c0,0.02-0.02,0.09-0.03,0.08l0.01-0.18c-0.03,0.15-0.06-0.12-0.08-0.05c0.06,0,0.01,0.16,0.04,0.26
				c-0.09,0.18-0.04-0.35-0.12-0.29c0.01-0.02,0.03,0.08,0.01,0.14c-0.01-0.03-0.03-0.08-0.03-0.15c-0.05,0.02-0.01,0.14-0.04,0.22
				c0-0.17-0.04,0.06-0.08,0.11l0.02-0.13c-0.05-0.1-0.08,0.28-0.12,0.16l0.07-0.18l-0.04,0.04l0.05-0.15
				c-0.06,0.1-0.07,0.07-0.08,0.02c-0.02,0.09-0.08,0.23-0.12,0.23c0.01-0.08,0.06-0.12,0.01-0.12c0.04-0.08,0.09-0.17,0.06-0.05
				l0.05-0.12c0.01-0.1-0.04-0.04-0.05-0.04c0,0.01,0.01,0.02,0,0.03c-0.04,0.05-0.08,0.1-0.13,0.15c0.01-0.05,0.04-0.08,0.06-0.12
				c-0.02,0.01-0.05,0.06-0.07,0.06c0.05-0.1,0.1-0.2,0.14-0.24l-0.1,0.09c0.02-0.04,0.04-0.13,0.06-0.16
				c0.02-0.07-0.17,0.15-0.15,0.06c-0.01,0.02-0.03,0.03-0.04,0.04c-0.02-0.05,0.05-0.16-0.08-0.08l0.12-0.16
				c-0.05,0.01-0.14,0.21-0.24,0.22c-0.08,0.02,0.11-0.13,0.14-0.18c-0.08,0.06-0.26,0.16-0.17,0.03C14.4,4.1,14.39,4.13,14.41,4.13
				z M14.11,3.79c0.03,0,0.12-0.02,0.05,0.02C14,3.85,14.07,3.82,14.11,3.79z M13.76,3.01c0.04,0.02,0.02,0.03-0.04,0.03
				C13.72,3.03,13.73,3.02,13.76,3.01z M16.03,1.06L16.03,1.06C16.01,1.01,16.02,1.03,16.03,1.06z M16.09,1.15
				c0.01-0.01,0.02-0.03,0.02-0.05c-0.02,0.03-0.04,0.03-0.05,0.01C16.06,1.14,16.06,1.17,16.09,1.15z M15.79,5.68l-0.02-0.03
				C15.79,5.61,15.79,5.64,15.79,5.68z"/>
			<path d="M13.92,3.15l-0.07-0.01C13.87,3.15,13.9,3.15,13.92,3.15z"/>
			<polygon points="14.65,4.24 14.65,4.25 14.66,4.23 			"/>
			<path d="M15.01,2.17C15,2.15,14.99,2.12,14.98,2.1C14.99,2.13,15,2.16,15.01,2.17z"/>
			<path d="M16.62,1.15l-0.07,0c0.03,0.01,0.02,0.04,0.02,0.07C16.58,1.19,16.6,1.14,16.62,1.15z"/>
			<path d="M16.45,2.08c0.02-0.01,0.01,0.01,0.03,0l0.04-0.05C16.49,2.02,16.45,2.04,16.45,2.08z"/>
			<path d="M16.42,1.56c-0.06,0.1-0.01,0.08,0.03,0.08l0,0C16.54,1.51,16.48,1.53,16.42,1.56z"/>
			<path d="M16.45,1.64c0.01,0,0.02,0.01,0.03,0.02C16.52,1.61,16.47,1.64,16.45,1.64z"/>
			<path d="M16.22,1.12c0,0.03,0.07-0.13,0.06-0.08C16.36,0.91,16.1,1.15,16.22,1.12z"/>
			<polygon points="16.23,1.89 16.3,1.77 16.22,1.85 			"/>
			<path d="M16.08,1.69l0.02,0.06c0.01-0.02,0.02-0.03,0.03-0.04C16.12,1.69,16.1,1.65,16.08,1.69z"/>
			<path d="M16.14,1.7c0.01,0.01,0.03,0.02,0.04,0C16.18,1.7,16.16,1.69,16.14,1.7z"/>
			<polygon points="16.15,1.89 16.16,1.86 16.14,1.84 			"/>
			<path d="M15.6,1.49l-0.06,0.03c-0.01,0.05,0,0.08,0.02,0.06C15.58,1.56,15.6,1.54,15.6,1.49z"/>
			<path d="M15.65,1.91c0-0.03,0-0.06,0.01-0.11l-0.05,0.17L15.65,1.91z"/>
			<path d="M15.52,1.92c-0.01,0.05-0.08,0.13-0.03,0.13C15.5,1.99,15.55,1.96,15.52,1.92z"/>
			<polygon points="14.86,1.7 14.87,1.7 14.81,1.42 			"/>
			<path d="M14.66,2.52c0.07,0.04-0.09-0.15-0.01-0.1c-0.03-0.06-0.06-0.05-0.08-0.1C14.58,2.4,14.55,2.37,14.66,2.52z"/>
			<path d="M14.56,2.33c0-0.01-0.01-0.03-0.01-0.04C14.55,2.3,14.56,2.31,14.56,2.33z"/>
			<polygon points="17.73,3.54 17.79,3.49 17.69,3.52 			"/>
			<path d="M17.52,3.44l0.18-0.01L17.54,3.4C17.54,3.41,17.56,3.43,17.52,3.44z"/>
			<path d="M14.44,3.62L14.4,3.63c-0.05,0.02-0.05,0.02-0.05,0.03L14.44,3.62z"/>
			<polygon points="14.42,3.9 14.42,3.9 14.29,3.99 			"/>
			<path d="M14.71,3.93c0-0.01-0.03,0.01-0.03,0C14.71,3.92,14.57,4.08,14.71,3.93z"/>
		</g>
	</g>
	<g>
		<path d="M22.91,9.81L22.91,9.81c0.01,0,0.02,0.01,0.03,0.01L22.91,9.81z"/>
		<path d="M22.83,10.21L22.83,10.21C22.83,10.21,22.84,10.21,22.83,10.21z"/>
		<path d="M22.84,8.84c0-0.01-0.01-0.01-0.01-0.01L22.84,8.84z"/>
		<polygon points="20.73,8.15 20.73,8.15 20.73,8.14 		"/>
		<path d="M20.74,8.13c0.01,0.01-0.01,0.02-0.01,0.02c0.01,0.01,0.02,0.02,0.03,0.01C20.76,8.14,20.74,8.14,20.74,8.13z"/>
		<path d="M19.45,8.21L19.45,8.21L19.45,8.21z"/>
		<path d="M21.98,8.96L21.98,8.96L21.98,8.96z"/>
		<path d="M19.65,8.23l0-0.03C19.65,8.22,19.65,8.22,19.65,8.23z"/>
		<path d="M22.94,9.82l0.01,0L22.94,9.82z"/>
		<polygon points="22.8,10.57 22.78,10.57 22.78,10.57 		"/>
		<polygon points="22.3,12.39 22.31,12.39 22.29,12.38 		"/>
		<path d="M22.66,11.06L22.66,11.06c0.02-0.01,0.02-0.03,0.02-0.06l-0.03,0L22.66,11.06z"/>
		<path d="M21.85,11.58l0.07-0.05c0.03,0.17-0.05,0.25,0,0.4l-0.01-0.01c-0.02,0.02,0.14,0.04-0.06,0.27l-0.01,0
			c0,0.01,0.01,0.01,0,0.02l0.04-0.04c0.02,0.02,0.05,0.05,0.05,0.08c-0.01,0.01-0.02,0.01-0.03,0.01l0.01,0.08l-0.05,0.02
			c0.02,0.03,0.12,0.02,0.06,0.08c0.07-0.02,0.04,0.03,0.07,0.03c-0.01,0-0.02,0.01-0.03,0.02c0.01,0.04,0.02,0.11,0.05,0.13
			c0,0,0.14-0.15,0.21-0.18c-0.02,0.05,0.01,0.01,0.03,0l-0.02,0c0.02-0.03,0.06-0.03,0.07-0.05l-0.01,0l0.01,0
			c-0.01,0-0.02,0-0.02,0c-0.01,0-0.02,0-0.01-0.01l0,0c-0.01-0.01,0-0.04,0-0.05l0.03,0c-0.06-0.03,0.1-0.16,0.11-0.19
			c0.04-0.03-0.01-0.07,0.01-0.11c0.01-0.06,0.05-0.03,0.08-0.06c0.02-0.04-0.04,0.01-0.04-0.01l0.05-0.05
			c0,0.03,0.02,0.01,0.04,0.01c0.01-0.04,0.07-0.11,0-0.12c0.03-0.06,0.06-0.05,0.07-0.08c-0.01,0.01-0.02,0.02-0.04,0.02
			c0.03-0.02-0.01-0.01-0.01,0c-0.03-0.04,0.13-0.18,0.06-0.19l0.01,0c-0.06-0.01-0.11,0-0.14-0.02l0.03-0.02l-0.02-0.03
			c0.02-0.02,0.03-0.01,0.04-0.01c-0.02-0.04,0.01-0.09,0.02-0.14l-0.15,0.05c0.04-0.04,0.11-0.11,0.06-0.12l0.05-0.02
			c0.1-0.08-0.04-0.06-0.01-0.09l0.06-0.04l0,0.04c0.03-0.04,0.05-0.06,0.09-0.09l0,0l-0.01,0l0-0.01
			c-0.03-0.01-0.05-0.03-0.04-0.06c0.01-0.04-0.03-0.07,0.03-0.14l-0.06-0.02l0.04-0.05l0.05,0c0,0.05,0.01,0.14,0.01,0.2l0.02,0
			c0-0.04-0.02-0.08-0.01-0.1c0.01-0.01,0.06-0.04,0.09-0.02l-0.04-0.02c0-0.12,0-0.12,0.05-0.25l-0.02,0.01
			c-0.01-0.03-0.02-0.05,0.01-0.06c0.01-0.08,0.04-0.15,0.1-0.2l-0.05-0.01c0-0.02,0.08-0.04,0.01-0.05l-0.02-0.04
			c0-0.02-0.03-0.04,0.01-0.06h0l0,0l0.01,0l0,0c0.03-0.05-0.05,0-0.02-0.06c0.04-0.02-0.07-0.02-0.05-0.05l0.08-0.03
			c0.05-0.05-0.03-0.06-0.03-0.13c0.03-0.03,0.09-0.05,0.15-0.02c-0.07-0.03-0.05-0.02-0.08-0.06c0.03-0.01,0.04,0,0.06,0.01
			c0.04-0.04-0.03-0.02-0.02-0.05c-0.05-0.01-0.14-0.02-0.14-0.03L22.75,9.8c-0.03-0.03-0.04-0.06-0.01-0.1l0.03,0l-0.01-0.04
			l0.04,0l-0.01-0.05l-0.01,0.01c0-0.01-0.01-0.05,0-0.08l0.02,0c0.06-0.06-0.01-0.12-0.02-0.2l0.04,0.01
			c0.04-0.03-0.06-0.01-0.04-0.04l0.05,0c-0.06-0.03,0.01-0.04,0.04-0.05L22.8,9.27l0.01-0.04c0.02-0.04,0.08-0.02,0.11-0.02
			l-0.05-0.03l0.06,0c-0.06-0.02,0.01-0.02-0.02-0.05c0.02,0,0.03,0.01,0.04,0l-0.08-0.06l0.03,0.04l-0.08-0.01
			c-0.06-0.04,0.01-0.05-0.01-0.07l0.02,0.02C22.83,9,22.86,9,22.88,8.95c-0.02,0.01-0.04,0.03-0.05,0c0-0.02,0.03-0.01,0.04-0.03
			c-0.05,0-0.08-0.05-0.05-0.1c0.01,0,0.02,0,0.02,0c-0.01-0.01-0.02-0.01-0.01-0.04l0.06,0l-0.06-0.03
			c0.02-0.03-0.03-0.06,0.02-0.06l0.01,0.01l0.02-0.21l0.05-0.03c-0.07,0.01,0.03-0.13-0.06-0.08c0.05-0.07-0.03-0.13,0.07-0.17
			c0.01-0.15-0.08-0.14-0.03-0.35l0.01-0.03c0-0.06-0.19-0.02-0.29-0.01c-0.23,0.06-0.43,0.12-0.61,0.17
			c-0.06-0.05-0.14-0.03-0.22-0.01c-0.05,0.02-0.09,0.05-0.13,0.02l-0.02,0.05c-0.06-0.07-0.13,0.03-0.2-0.04
			c-0.02,0.02-0.03,0.03-0.03,0.03s0.01,0.01,0.01,0.04c-0.02-0.02-0.06,0.01-0.06-0.05l0-0.01c0-0.06-0.06,0.03-0.08-0.02
			l0.02,0.06l-0.04-0.01l0.01-0.01c-0.16,0.15-0.24-0.04-0.39,0.09c0.02-0.07-0.03,0.04-0.03-0.04c-0.04-0.09-0.07,0.02-0.1,0.05
			c0,0,0,0.01,0,0.01L20.7,8.16c0.03-0.09-0.04,0.08-0.01,0c-0.15-0.06-0.34,0.01-0.51-0.02l0.01,0.02c-0.04,0-0.1,0.03-0.13-0.01
			c-0.03-0.04-0.07,0.06-0.08,0.06c-0.04,0.04-0.07-0.04-0.05-0.04c-0.04,0.01-0.07,0.09-0.13,0.06c-0.02-0.08-0.15,0.07-0.15-0.01
			l0,0.01c-0.07-0.06-0.13,0.04-0.21-0.02c0,0,0-0.01,0-0.01l-0.16,0.26l0.03,0.29L19.45,9l0.37-0.05l0.29,0.09L20.82,9l0.05-0.07
			c0.15,0.11,0.32-0.03,0.47,0.04l0-0.06c0.04-0.01,0.04,0.03,0.05,0.04c0.07-0.01,0.18-0.03,0.29-0.04
			c0.08-0.01,0.24-0.04,0.22-0.04c0.03-0.02,0.09-0.02,0.08,0.01l0,0.01c-0.04,0.04-0.02,0.03-0.06,0.07C22,8.9,22,8.94,21.99,8.96
			l-0.01,0l0.01,0.01l-0.02,0c0.05-0.02,0,0.12-0.03,0.18l-0.01,0c-0.02,0.43,0.07,0.83-0.03,1.25c-0.1,0.19,0.02,0.43-0.06,0.65
			C21.8,11.08,21.83,11.54,21.85,11.58z"/>
		<path d="M21.9,12.26L21.9,12.26C21.88,12.25,21.89,12.26,21.9,12.26z"/>
		<polygon points="22.59,11.34 22.58,11.34 22.62,11.33 		"/>
		<path d="M22.59,11.94c0.01-0.03,0-0.03-0.01-0.03C22.58,11.93,22.58,11.94,22.59,11.94z"/>
		<path d="M21.94,12.48c0,0.01,0.01,0.01,0.03,0c0-0.02,0-0.02,0-0.02C21.96,12.46,21.95,12.48,21.94,12.48z"/>
		<path d="M22.27,12.44l0.02,0.01C22.28,12.43,22.27,12.43,22.27,12.44z"/>
	</g>
</g>
</svg>
