<?xml version="1.0" encoding="utf-8"?>
<!-- Generator: Adobe Illustrator 27.1.1, SVG Export Plug-In . SVG Version: 6.00 Build 0)  -->
<svg version="1.1" id="Layer_1" xmlns="http://www.w3.org/2000/svg" xmlns:xlink="http://www.w3.org/1999/xlink" x="0px" y="0px"
	 viewBox="0 0 39.66 14.75" style="enable-background:new 0 0 39.66 14.75;" xml:space="preserve">
<style type="text/css">
	.st0{fill:#FFD400;}
	.st1{fill:#010101;}
	.st2{fill:#FFFFFF;}
	.st3{fill:none;}
	.st4{fill:#FED519;}
</style>
<g>
	<path d="M39.27,13.81c-0.01,0.15,0.11,0.1,0.13,0.12C39.37,13.68,39.24,13.82,39.27,13.81z"/>
	<polygon points="39,11.34 39.05,11.39 38.93,11.02 	"/>
	<path d="M39,9.03c-0.2,0.22,0.03,0.84-0.04,1.25l-0.05,0.07l0.16,0.19C39.06,10.03,38.95,9.38,39,9.03z"/>
	<path d="M39.42,8.08c0.01-0.02,0.01-0.04,0.02-0.05c0-0.05,0-0.12,0-0.24C39.36,7.87,39.37,7.53,39.42,8.08z"/>
	<path d="M39.44,8.03C39.44,8.28,39.5,7.87,39.44,8.03L39.44,8.03z"/>
	<path d="M39.39,6.91l0.07,0.32c0.05-0.07,0.06-0.35,0.09-0.25C39.51,6.65,39.47,6.72,39.39,6.91z"/>
	<path d="M39.24,6.6l0.03,0.17C39.29,6.74,39.3,6.7,39.24,6.6z"/>
	<path d="M39.34,7.12l-0.06-0.35c-0.03,0.05-0.1,0.05,0.02,0.16C39.24,6.9,39.29,6.97,39.34,7.12z"/>
	<path d="M39.31,7.32c-0.04,0.18-0.07,0.41-0.14,0.09C39.19,8.03,39.33,7.94,39.31,7.32z"/>
	<path d="M38.79,8.91l-0.06,0.24l0.07,0.21C38.77,9.26,38.86,8.9,38.79,8.91z"/>
	<path d="M39.5,4.91c-0.04-0.02-0.11,0.11-0.17,0.13l0.05,0.24C39.41,5.16,39.43,4.93,39.5,4.91z"/>
	<path d="M39.33,5.04l-0.07-0.35C39.24,5.01,39.28,5.06,39.33,5.04z"/>
	<polygon points="39.02,6.55 39.17,7.13 39.02,6.44 	"/>
	<polygon points="39.5,3.56 39.6,3.76 39.45,3.4 	"/>
	<path d="M39.62,2.27l-0.04-0.15l-0.05-0.26c0.01,0.09,0.01,0.18,0.02,0.26c0,0.05,0,0.11,0,0.16c-0.01,0.11-0.03,0.23-0.06,0.37
		c0.08,0.15,0.14-0.2,0.19-0.05C39.67,2.49,39.65,2.38,39.62,2.27z"/>
	<path d="M39.27,4.09C39.3,4.06,39.37,4,39.4,3.81l-0.12,0.14C39.28,3.99,39.28,4.04,39.27,4.09z"/>
	<path d="M39.27,3.95L39.27,3.95c0.01-0.16,0.01-0.26,0.01-0.31C39.28,3.68,39.28,3.77,39.27,3.95z"/>
	<path d="M39.13,5.62c-0.07-0.21-0.14-0.64-0.24-0.22C38.97,5.55,39.03,5.31,39.13,5.62z"/>
	<path d="M39.21,4.7l-0.08-0.4l-0.03,0.38C39.13,4.66,39.17,4.59,39.21,4.7z"/>
	<polygon points="39.08,4.11 39.12,4.29 39.13,4.15 	"/>
	<path d="M39.22,2.41c0.04,0.03,0.11,0.12,0.1-0.11c-0.03-0.1-0.04-0.13-0.05-0.29c-0.01-0.15-0.01-0.3-0.02-0.46
		c-0.01,0.18-0.02,0.35-0.03,0.53C39.22,2.19,39.22,2.3,39.22,2.41z"/>
	<polygon points="37.36,0.34 37.39,0.36 37.4,0.34 	"/>
	<path d="M39.2,2.45c-0.02,0.16,0.01,0.26,0.04,0.35c-0.01-0.12-0.02-0.25-0.02-0.39C39.2,2.4,39.19,2.4,39.2,2.45z"/>
	<path d="M39.38,0.38l-0.07,0.53C39.35,0.75,39.41,0.41,39.38,0.38z"/>
	<path d="M39.31,3.01l0.01,0.02C39.34,2.98,39.33,2.99,39.31,3.01z"/>
	<path d="M39.31,3.01c-0.02-0.08-0.05-0.15-0.07-0.21c0.01,0.1,0.02,0.19,0.04,0.27C39.29,3.05,39.3,3.03,39.31,3.01z"/>
	<path d="M38.46,0.37l0.25-0.01c-0.27-0.02-0.44-0.06-0.81-0.15c-0.48,0.05-0.48,0.1-0.5,0.13l1.15,0.02L38.46,0.37z"/>
	<path d="M39.24,0.92c-0.12-0.12-0.17-0.57-0.31-0.14c0.01,0.59,0.1,0.34,0.16,0.71c-0.03-1.05,0.07,0.29,0.14-0.55
		c0.02,0.21,0.03,0.42,0.03,0.61c0.02-0.21,0.04-0.43,0.06-0.64L39.3,0.94l0,0.01l0,0c-0.02,0.06-0.02,0.08-0.02,0.02
		c0-0.01,0-0.02,0-0.02C39.27,0.95,39.25,0.94,39.24,0.92c0.03-0.36,0.03-0.08,0.05,0.02c0.01,0,0.01,0.01,0.02,0l0-0.01l-0.04-0.62
		l-0.56,0.03c0.13,0.01,0.29,0.01,0.52,0.01C39.23,0.51,39.23,0.69,39.24,0.92z"/>
	<path d="M38.62,5.01c0.01-0.02,0.02-0.02,0.03-0.02C38.64,4.94,38.63,4.92,38.62,5.01z"/>
	<path d="M38.8,5.02l-0.02-0.05c0.04-0.29,0.19-0.67,0.21-0.62c-0.11,0.09-0.19,0.16-0.3,0.36c0.02,0.05,0.07,0.1,0.05,0.27
		c-0.04,0.15-0.06,0-0.1,0.01C38.68,5.09,38.74,5.35,38.8,5.02z"/>
	<path d="M38.94,3.02l-0.06-0.6l-0.11,0.31l0.06-0.02C38.81,3.05,38.89,2.97,38.94,3.02z"/>
	<polygon points="37.37,0.15 37.02,0.33 37.29,0.27 	"/>
	<polygon points="36.53,0.18 36.32,0.25 36.5,0.29 	"/>
	<path d="M17.21,0.3c-0.26-0.1-0.55-0.27-0.52-0.14l0.08,0.12C16.95,0.26,17.09,0.28,17.21,0.3z"/>
	<path d="M28.46,0.34c-0.22-0.05-0.4-0.07-0.56-0.07C28.17,0.33,28.38,0.44,28.46,0.34z"/>
	<path d="M0.16,9.13c0.02,0.11,0.05,0.16,0.07,0.15C0.22,9.17,0.19,9.11,0.16,9.13z"/>
	<path d="M27.25,0.26c0.04,0.01,0.08,0.02,0.12,0.03c0.16-0.02,0.33-0.04,0.53-0.03C27.7,0.21,27.47,0.18,27.25,0.26z"/>
	<path d="M36.42,14.47c-0.07,0.01-0.19,0.01-0.3,0.01C36.17,14.49,36.27,14.49,36.42,14.47z"/>
	<path d="M33.34,0.24C33.51,0.23,33.37,0.22,33.34,0.24L33.34,0.24z"/>
	<path d="M33.59,0.29c-0.06-0.02-0.13-0.03-0.21-0.04C33.41,0.27,33.48,0.28,33.59,0.29z"/>
	<path d="M33.56,0.23c0.06,0,0.1,0.01,0.15,0.01C33.73,0.23,33.71,0.21,33.56,0.23z"/>
	<path d="M33.11,0.24c0.1,0,0.18,0,0.27,0.01c-0.03-0.01-0.05-0.02-0.04-0.02C33.29,0.24,33.22,0.24,33.11,0.24z"/>
	<path d="M35.07,0.17l-0.36,0.04c0.17-0.01,0.24,0.02,0.33,0.04C35.02,0.22,34.95,0.18,35.07,0.17z"/>
	<g>
		<polygon points="25.46,5.59 15.91,5.59 15.91,10.43 20.61,10.43 25.63,10.43 		"/>
		<path d="M30.7,0.89V0.87c-0.07-0.01-0.13-0.02-0.2-0.02L30.7,0.89z"/>
		<path d="M25.44,5.03l0.28,0h4.98V0.97c-0.16,0.02-0.34,0.03-0.45,0c0.04,0.02,0.1,0.03,0.17,0.04H28.1
			c0.23-0.15,0.62-0.28,1.11-0.35c0.61-0.06,0.26,0.15,0.37,0.12c0.65,0.02,0.87-0.11,1.12-0.21V0.25
			c-0.14,0.03-0.25,0.08-0.12,0.01l-0.77,0.08L29.8,0.31c-0.76-0.02-1.56,0.21-2.43-0.02c-0.26,0.03-0.52,0.07-0.95,0.04l-0.08-0.11
			c-0.33,0.04-0.99-0.11-1.13,0c-0.35-0.3-1.59-0.06-2.17-0.12l-0.02,0.14c-0.4-0.01-0.78,0.03-1.27,0.09l0.03,0.13
			c-0.34,0.08-0.83-0.02-1.35-0.06v4.62L25.44,5.03L25.44,5.03z M22.77,1.01l-0.01-0.22l-0.07,0.22h-0.57c0-0.16,0.02-0.32,0.1-0.38
			c0.06,0.01,0.9,0.21,1.09,0.32c0.03,0.02,0.05,0.04,0.06,0.07H22.77z M25.49,0.88c-0.02,0.04,0.04,0.09,0.08,0.12h-0.49
			C25.21,0.95,25.36,0.9,25.49,0.88z"/>
		<path d="M10.74,11v3.14l1.26,0.3c1.02,0.04,2.03,0.1,3.01,0.1l-0.18-0.21l0.55,0.01c0.15,0.05,0.2,0.16-0.2,0.15
			c0.21,0.12,0.66-0.1,0.68-0.14c0.78,0.08-0.3,0.24-0.07,0.25l0.32-0.02l-0.07-0.02c0.26-0.08,0.28-0.17,0.76-0.16
			c0.3,0.04,0.15,0.13,0.27,0.14c0,0.01,0.04,0.02,0.18,0.01l0.7,0.02l-0.28-0.16c0.31-0.08,0.66,0.01,0.33-0.18
			c0.44,0.26,2.26,0.13,2.78,0.18L20.63,11h-5.29H10.74z M17.13,14.48l-0.11-0.04C17.27,14.4,17.2,14.44,17.13,14.48z"/>
		<rect x="5.62" y="5.59" width="9.73" height="4.84"/>
		<path d="M5.05,5.59h-4.8c0.01,0.04,0.02,0.08,0.02,0.14c-0.1,0.11-0.24-0.14-0.26,0.26c-0.08,0.2,0.31,1.14,0.13,1.68
			c0.07-0.12,0.15-0.24,0.2,0.04c0.03,0.42-0.28,1.13-0.05,1.5C0.27,9.26,0.26,9.28,0.24,9.28c0.05,0.29,0.1,0.89,0.2,1.15h4.61
			V5.59z"/>
		<polygon points="35.23,10.43 35.28,5.63 26.03,5.6 26.2,10.43 31.71,10.43 		"/>
		<path d="M10.17,11H0.3c-0.01,0.6,0.28,1.5-0.04,1.49l0.02,1.28l-0.04-0.01c-0.01,0.31,0,0.55,0.01,0.73
			c0.45-0.03,0.72-0.1,0.95-0.17c0.18,0.03,0.02,0.07,0,0.09c0.32,0.02,0.56,0.03,0.76,0.04c0.15,0.01,0.27,0.01,0.39,0
			c0.23-0.02,0.45-0.08,0.83-0.19l0.08,0.14c0.21-0.08,1.32,0.22,2.22,0.06c-0.01,0.02-0.03,0.04-0.1,0.06
			c1.01-0.16,2.42,0.39,2.79-0.12l0.67-0.13c-0.86-0.04,0.13-0.22-0.23-0.31c0.34-0.03,0.88,0.15,0.46,0.18l-0.07-0.03
			c-0.15,0.27,1.07,0.09,1.05,0.28c0.04,0,0.08,0,0.11,0V11z"/>
		<path d="M31.14,11h-4.92H21.2l0.15,3.34c0.29-0.03,0.6-0.04,0.95-0.03c-0.13-0.03-0.21-0.22,0.25-0.2
			c-0.17,0.38,0.84,0.16,1.21,0.44c-0.33-0.18,1.3-0.04,0.78-0.3c0.38,0.03,0.02,0.14,0.31,0.23c0.91-0.15,2,0.1,3.13,0.05
			c0.02-0.05-0.17-0.13,0.07-0.2l0.59,0.25c0.22-0.02,0.2-0.29,0.61-0.11c-0.06-0.04-0.14-0.11,0.01-0.12
			c0.62,0.07,1.25,0.08,1.88,0.08V11z"/>
		<path d="M38.58,11h-3.35h-3.52v3.4c1.43-0.03,2.87-0.1,4.28,0.19c-0.3-0.1-0.1-0.11,0.13-0.11c-0.15-0.02,0-0.12-0.03-0.19
			l0.94,0.19c0.17-0.19,1-0.01,1.1-0.19l-0.3,0.03c0.22-0.12,0.03-0.25-0.18-0.39h0.92V11z"/>
		<path d="M0.53,2.92C0.82,3,0.36,3.75,0.47,4.3l0.08-0.2c0.08,0.24-0.21,0.63-0.36,0.93h5.27l5.73-0.01V0.66c0,0-0.01,0-0.01,0
			c-0.5-0.21-2.48-0.03-3.77-0.23c0.25,0.33-0.6-0.15-0.65,0.11C6.68,0.46,6.5,0.42,6.71,0.35C6.06,0.43,5.72,0.23,5.27,0.44
			C5.2,0.36,5.41,0.33,5.34,0.28C5.29,0.3,5.14,0.35,5.07,0.3C5,0.25,5.16,0.24,5.27,0.2C4.6,0.21,4.53,0.46,4.48,0.68
			C4.14,0.57,3.97,0.59,3.72,0.74C3.6,0.66,3.41,0.59,3.82,0.56C3.59,0.55,2.39,0.45,2.37,0.63C2.29,0.59,2.04,0.62,1.98,0.64
			C1.33,0.63,1.21,0.61,0.54,0.63l0.22,0.03c-0.03,0.08-0.1,0.11-0.2,0.11C0.57,0.97,0.5,1.15,0.52,1.5L0.5,1.48
			C0.46,1.76,0.44,1.96,0.44,2.09c0,0.1,0.01,0.15,0.01,0.2c0.02,0.1,0.03,0.2-0.06,0.67L0.53,2.92z M4.34,0.79
			c0.08,0.03,0.01,0.09-0.1,0.17c0.04-0.02,0.09-0.03,0.12-0.04c0.09,0.03,0.12,0.06,0.12,0.1H4.16c0.03-0.02,0.05-0.04,0.08-0.05
			C4.19,0.97,4.13,0.99,4.08,1.01H3.93c-0.1-0.05-0.2-0.1-0.26-0.12L4.34,0.79z"/>
		<polygon points="38.58,5.59 35.84,5.59 35.8,10.43 38.58,10.43 		"/>
		<path d="M11.76,0.62v4.16h8.11V0.61c-0.15,0.1-0.38,0.25-0.65,0.4h-0.88c0.26-0.18,0.56-0.34,0.89-0.4l0.13,0.09l0.51-0.1V0.3
			c-0.66-0.03-1.35,0.25-1.94,0.08c-0.18,0.05-0.31,0.03-0.44,0c0.02,0,0.03,0,0.05-0.01c-0.02,0-0.05,0-0.07,0
			c-0.08-0.02-0.17-0.05-0.25-0.07c0.08,0.03,0.15,0.06,0.21,0.07c-0.14,0-0.35,0.02-0.56,0.05l-0.09-0.14c-0.02,0-0.03,0-0.05,0
			c-0.2-0.05-0.16,0.06-0.06,0.17c-0.1,0.02-0.2,0.05-0.28,0.08c-0.17-0.22-0.55,0.07-0.77-0.16c-0.14,0.11-1.05,0.09-1.16,0.33
			c-0.01-0.03-0.07-0.05,0.04-0.05c-0.23-0.03-0.46-0.05-0.67,0.01l-0.1-0.17l-0.51,0.23c-0.31-0.11-0.44-0.17-0.13-0.3
			c-0.74,0.21-0.6,0.08-1.23,0.28L11.9,0.6C11.86,0.6,11.81,0.61,11.76,0.62z M13.17,0.76c-0.04,0.06-0.02,0.15,0.01,0.25h-0.42
			L13.17,0.76z"/>
		<path d="M31.26,0.5c0.07,0.01,0.14,0.01,0.22,0.03c0.37,0.15,0.02,0.3,0.1,0.41c-0.12,0.01-0.23,0.01-0.32,0.01v4.07l7.32-0.2
			V1.01h-0.27c0.02,0,0.04,0,0.06-0.01l0.04-0.06c-0.22,0-0.36,0.04-0.26,0.07h-0.55c0.16-0.05,0.24-0.15,0.21-0.28
			c-0.02-0.06-0.07-0.13-0.15-0.2c-0.08-0.07-0.2-0.13-0.26-0.18c-0.01,0.05-0.01,0.09-0.38,0.16c0.07,0.03,0.27,0.07,0.42,0.11
			c0.17,0.04,0.3,0.09,0.1,0.14c-0.51,0.06-0.41-0.04-0.65-0.1c0.18,0.12-0.45,0.19-0.52,0.34h-3c0.02-0.02,0.02-0.03-0.02-0.05
			l-0.28,0.02c-0.26-0.12,0.52-0.17,0.17-0.23c0.37-0.09,0.79-0.22,1.31-0.15l0.1,0.17c-0.01-0.05-0.34-0.1-0.49-0.05
			c0.22-0.08,0.8,0.24,1.04,0.01l-0.37-0.12c0.37-0.09,0.84-0.27,1.3-0.22c-0.21-0.17-0.11,0.02-0.44-0.18
			c0.29,0.25-1.19-0.01-0.73,0.25c-0.34-0.23-0.59-0.1-1.03-0.3c0.01,0.06,0.16,0.11-0.23,0.08c-0.02,0.02-0.06,0.04-0.09,0.05
			c-0.01,0-0.02,0-0.03,0l0.02,0.01c-0.02,0.01-0.02,0.01,0.01,0c0.09,0.03,0.17,0.06,0.2,0.09c-0.19,0.13-0.81,0.13-1.02,0.2
			c-0.23-0.03,0.1-0.07-0.03-0.13l-0.31,0.1c-0.03-0.13-0.61-0.21-0.07-0.29l-0.49-0.01c-0.19-0.05-0.42-0.07-0.63-0.07V0.5z
			 M37.53,1.01h-0.6C37.09,0.96,37.31,0.95,37.53,1.01z M36.79,1C36.79,1,36.78,1.01,36.79,1l-0.05,0.01L36.79,1z M31.5,0.35
			c-0.27-0.05-0.18-0.03,0.01-0.01L31.5,0.35z"/>
	</g>
	<path d="M35.86,0.68c0.07-0.16-0.19-0.11-0.46-0.05c0.03,0.11,0.26,0.08,0.51,0.05H35.86z"/>
	<path d="M36.2,0.68c0.03-0.06-0.09-0.01-0.23,0C36.05,0.67,36.12,0.67,36.2,0.68z"/>
	<path d="M32.79,0.33c0.12,0.03,0.08-0.15,0.14-0.1C33.07,0.08,32.14,0.41,32.79,0.33z"/>
	<polygon points="35.37,0.98 35.61,1.01 35.51,0.87 	"/>
	<path d="M33.61,0.9l0.4,0.04c-0.01-0.02,0.05-0.04,0.11-0.05C33.87,0.89,33.6,0.86,33.61,0.9z"/>
	<path d="M34.12,0.89c0.13,0,0.25,0,0.33-0.02C34.38,0.87,34.22,0.88,34.12,0.89z"/>
	<path d="M29.06,0.98c0.11-0.03,0.27-0.05,0.2-0.1l-0.44,0.04C28.78,0.97,28.9,1,29.06,0.98z"/>
	<polygon points="37.66,14.63 37.99,14.69 37.77,14.59 	"/>
	<path d="M38.3,14.41l0.08,0.18l0.2-0.17C38.51,14.44,38.36,14.45,38.3,14.41z"/>
</g>
</svg>
