<?xml version="1.0" encoding="utf-8"?>
<!-- Generator: Adobe Illustrator 27.1.1, SVG Export Plug-In . SVG Version: 6.00 Build 0)  -->
<svg version="1.1" id="Layer_1" xmlns="http://www.w3.org/2000/svg" xmlns:xlink="http://www.w3.org/1999/xlink" x="0px" y="0px"
	 viewBox="0 0 187.83 188.06" style="enable-background:new 0 0 187.83 188.06;" xml:space="preserve">
<style type="text/css">
	.st0{fill:#FFD400;}
	.st1{fill:#010101;}
	.st2{fill:#FFFFFF;}
	.st3{fill:none;}
	.st4{fill:#FED519;}
	.st5{fill:#FDFEFE;}
	.st6{fill:#FED419;}
</style>
<g>
	<path class="st2" d="M3.72,72.6C3.64,72.84,3.66,72.97,3.72,72.6L3.72,72.6z"/>
	<path class="st2" d="M161.91,26.71c0.06,0.05,0.09,0.08,0.14,0.13c0.23-0.03,0.43-0.05,0.6-0.04L161.91,26.71z"/>
	<path class="st2" d="M179.47,53.35c0.02,0.08,0.03,0.13,0.04,0.2C179.59,53.49,179.69,53.49,179.47,53.35z"/>
	<path class="st2" d="M94.25,0.73c-0.28,0-0.43,0.05-0.54,0.13C93.87,0.8,94.03,0.76,94.25,0.73z"/>
	<path class="st2" d="M8.31,128.18c0,0-0.03-0.07-0.06-0.12c0.03,0.1,0.05,0.2,0.09,0.32L8.31,128.18z"/>
	<path class="st2" d="M7.98,127.65c-0.21-0.64,0.16,0.14,0.28,0.41c-0.19-0.72-0.46-1.41-0.79-2.09
		C7.37,126,7.92,127.32,7.98,127.65z"/>
	<path class="st2" d="M83.35,186.57l-0.29-0.04C83.16,186.54,83.25,186.55,83.35,186.57z"/>
	<path class="st2" d="M96.99,16.22c-0.14,0.02-0.28,0.04-0.41,0.05C96.8,16.29,96.91,16.27,96.99,16.22z"/>
	<path class="st2" d="M68.06,183.41l-0.16-0.05C68.04,183.41,68.07,183.41,68.06,183.41z"/>
	<path class="st2" d="M162.65,26.8l0.29,0.04C162.85,26.81,162.76,26.81,162.65,26.8z"/>
	<path class="st2" d="M187.5,81.19c-0.09,0.03-0.15,0.1-0.2,0.19c0,0.04,0.01,0.06,0.01,0.08L187.5,81.19z"/>
	<path class="st2" d="M112.8,185.55l0.07-0.01l0.54-0.14C113.13,185.48,112.93,185.54,112.8,185.55z"/>
	<path class="st2" d="M183.75,119.82c0.01,0.04,0.01,0.13,0.03,0.14c0.22-0.62,0.8-2.28,1.3-4.45l-0.21-0.18
		C184.61,116.85,184.12,118.33,183.75,119.82z"/>
	<path class="st2" d="M162.05,154.74c0.94-0.93,1.7-2.01,2.52-3.04c-0.45,0.66-0.89,1.29-1.31,1.91c-0.44,0.6-0.93,1.13-1.38,1.67
		c-0.91,1.07-1.77,2.07-2.58,3.03c-1.57,1.98-3.29,3.5-4.89,5.04c-1.61,1.54-3.14,3.09-5,4.45c-0.9,0.71-1.83,1.45-2.8,2.22
		c-0.97,0.77-1.96,1.61-3.14,2.31l0.5-0.34c-0.66,0.43-1.3,0.85-3.4,2.22c-1.14,0.66-2.58,1.82-4.95,2.89
		c-1.15,0.57-2.49,1.23-4.05,2.01c-1.51,0.83-3.35,1.5-5.43,2.27l0,0c-0.55,0.21-0.49,0.19-1.72,0.66l2.87-1.08
		c-1.71,0.66-3.32,1.28-5.5,2.12c-0.48,0.19-0.67,0.19-0.72,0.21l-5.8,1.56l-1.78,0.46c-1.79,0.41-0.98,0.21-5.83,1
		c1.83-0.28-2.41,0.38-1.81,0.29c-0.28,0.04-0.8,0.12-1.25,0.19c-2.91,0.28-8.42,0.48-9.78,0.57c0,0,2.84-0.15,6.1-0.31
		c3.26-0.01,6.82-0.79,8.35-0.97c-4.07,0.62-1.07,0.17-0.27,0.04l0.27-0.04c2.1-0.32,2.59-0.39,3.66-0.55
		c-0.02,0-0.05,0.01-0.07,0.01l-0.16,0.02c-0.12,0.02-0.05,0.01,0.08-0.02c-0.03,0,0.09,0,0.73-0.18l-0.12,0.03
		c1.01-0.26,2.72-0.7,3.47-0.89l0.02,0c0.65-0.17,1.45-0.38,2.64-0.68c0.61-0.16,1.3-0.33,2.03-0.52c0.69-0.25,1.43-0.52,2.18-0.79
		c1.48-0.53,2.99-1.07,4.26-1.53c0.64-0.23,1.23-0.44,1.72-0.61c0.49-0.23,0.87-0.41,1.15-0.53c2.22-1.07,5.04-2.3,7.73-3.79
		c4.22-2.52,2.14-1.22,4.28-2.45c2.67-1.56-0.56,0.28,0.5-0.36l1.61-0.92c0.53-0.32,1.01-0.7,1.52-1.05
		c-1.73,1.27-0.77,0.61-0.44,0.39c2.55-1.91,6.83-4.66,7.38-5.55c3.23-2.71,3.41-2.86,4.75-3.99c-0.26,0.21-0.6,0.49-0.91,0.74
		c-0.3,0.25-0.55,0.44-0.56,0.43c1.35-1.09,0.61-0.56,0.07-0.1c0.47-0.47,1.43-1.18,2.42-2.19c0.99-1,2.15-2.19,3.27-3.32
		c2.33-2.19,4.12-4.51,4.2-4.8l0.04,0.03c0.23-0.6-0.51,0.07,0.53-1.45l0.82-0.93l1.06-1.52c0.82-0.95,0.49-0.43,0.51-0.42
		c0.85-1.25,1.76-2.82,2.81-4.4c1-1.61,2.22-3.19,2.99-4.87c-0.76,1.07-1.63,2.06-2.52,3.04c0.42-0.65,1.01-1.38,1.48-2.22
		c0.47-0.85,0.96-1.74,1.41-2.53c0.9-1.63,1.62-3.01,1.64-3.33c0.35-0.52,0.73-1.03,1.06-1.57c2.76-5.61,1.34-4.14,2.38-6.4
		c0.49-0.94,0.99-1.87,1.34-2.86c-0.24,1.01-0.64,1.98-1.03,2.95c0.32-0.72,0.62-1.32,0.84-1.87c0.2-0.56,0.38-1.05,0.56-1.54
		c0.36-0.94,0.71-1.83,1.17-3.01l0-0.03c-0.06,0.16-0.11,0.27-0.14,0.28l0.11-0.42c-0.09-0.42,0.28-2.01,0.82-4.15
		c0.3-1.54,0.49-2.93,0.76-4.54c0.14-0.81,0.29-1.67,0.5-2.63c0.11-0.48,0.23-0.99,0.35-1.54c0.09-0.54,0.18-1.12,0.28-1.75
		l-0.38-1.28l0.57-3.75l0.4,0.01c-0.18,1.85-0.29,4.53-0.59,7.31c-0.48,2.76-0.99,5.66-1.4,8l0.13,0.11
		c0.52-2.78,0.96-5.97,1.34-7.81c0.31-0.88,0.78-3.19,0.91-1.47l-0.2-1.78c0.37-4.73,0.68-7.13,0.58-9.58
		c0.02-1.22,0.05-2.47,0.08-4.03c0.03-0.78,0.05-1.65,0.09-2.63c0.01-0.98-0.11-2.07-0.16-3.33l-0.13,0.89
		c-0.36-1.96-0.72-3.9-0.4-4.52c-0.17-3.03-0.93-6.02-1.31-8.84c-0.24-1.4-0.33-2.78-0.61-4c-0.25-1.23-0.45-2.36-0.59-3.38
		l-0.88-0.61c-0.36-1.23-0.02-3.47-1.09-3.71c-0.38-0.84-0.89-1.62-1.33-2.43c-0.65-1.64-1.45-2.45-1.9-4.47l0,0l0-0.01
		c-0.03-0.12-0.05-0.25-0.08-0.39c-0.02,0.01-0.03,0.03-0.04,0.05c-0.65-1.92-0.83-1.81-0.99-1.79c-0.16,0.02-0.35-0.03-1.28-2.13
		c-0.27-1.55-1.6-0.93-2.56-2.94l-0.2-2.54c-0.86-1.87-1.66-2.77-2.63-3.82c-1.01-1.01-2.06-2.28-3.93-4.54
		c-1.51-2.4-1.69-4.14,0.2-3.28c-2.49-1.28-1.29-0.45-3.92-2.72c-0.03-0.72,0.28-0.51,1.07-0.2c-1.63-2.74-1.58-1.12-3.19-2.8
		c-1.07,0.14-2.56,0.62-3.13,0.16l0.46,0.8c-2.09-1.27-3.99-3.03-5.99-5.01l0.36-0.28l-2.49-1.65l0.19-0.58
		c-1.17-0.81-2.3-1.69-3.51-2.43l0.4,0.45c-0.89-0.48-3.77-2.06-5.21-3.32l0.22-0.25c-1.01-0.91-2-1.76-3.13-2.34
		c-1.12-0.58-2.27-1.08-3.47-1.55c-1.19-0.45-2.42-0.92-3.71-1.4c-1.27-0.53-2.7-0.83-4.16-1.39l1.02-0.35
		c-1.76-1.4-0.93,0.79-3.17-0.43l0.16-0.85c-2.47,0.31-2.61-1.32-4.01-2.12l0.37,1.27l-2.74-0.98c-3-1.19-1.56-1.89-0.94-2.34
		l-2.36,0.3l-0.19-1.08c-1.83,0.76-1.52-0.7-4.46-0.51c-0.16-0.41,0.59-0.51-0.34-0.82l-4.85,0.67l2.88-0.18L109.69,2
		c-3.02,0.7-3.85-0.85-5.97-0.57c0.49-0.11,0.98-0.26,1.46-0.31c-3.4,0.08-3.53-0.49-5.44-0.94c0.58,0.3,1.46,0.76,0.08,0.88
		c-1.01,0.03-0.52-0.55-1.47-0.76c-0.13,0.49-0.81,0.83-1.71,0.98c-0.91,0.14-2.05,0.09-3.15-0.04c0.03-0.14,0.07-0.28,0.21-0.37
		c-0.56,0.19-0.84,0.45-1.82,0.27L92.44,0l-1.85,1.13c-1.27-0.23-3.04,0.66-2.92-0.09l0.7-0.26c-3.19-0.04-6.33,0.47-9.49,0.87
		L78.6,0.82c-0.37,0.67-1.68,0.76-2.82,0.87c-1.15,0.1-2.1,0.4-1.8,1.06c-1.94-0.33-6.7,2.37-6.12,0.49
		c-0.77,0.19-1.48,0.4-2.16,0.62c-0.66,0.27-1.29,0.56-1.89,0.85c-1.21,0.58-2.33,1.18-3.49,1.77c-1.15,0.61-2.38,1.14-3.72,1.79
		c-1.32,0.69-2.81,1.37-4.59,2.05c-3.12-0.16-9.35,4.22-13.38,7.01c-1.8,1.6-3.44,3.06-5,4.46c-1.54,1.4-2.81,2.95-4.18,4.38
		c-2.79,2.81-5.13,6.05-8.11,9.83c-2.42,1.76-4.35,4.91-6.23,8.05c-0.81,1.67-1.61,3.34-2.44,4.91c-0.8,1.59-1.75,3-2.5,4.36
		L10,55.15c-0.62,0.83-1.18,1.86-1.72,3c-0.52,1.14-1.1,2.37-1.46,3.73c-0.79,2.7-1.76,5.53-2.88,8.2
		c-0.08,1.45-0.17,2.19-0.22,2.51c0.08-0.25,0.26-0.61,0.59-0.64c-0.57,1.54-1,4.83-1.56,4.46l0.02-0.42
		c-0.28-0.19-0.47,1.05-0.69,2.54c-0.09,1.52-0.19,3.28-0.54,4.15l0.73-0.89l-0.45,3.05l-0.03-0.84c0.02,1.7-0.14,3.24-0.08,4.72
		c0.06,1.47,0.07,2.85,0.07,4.17c-0.01,2.63-0.17,5.01,0.07,7.36c0.15,2.35,0.25,4.68,0.56,7.18c0.48,2.48,1.09,5.13,1.88,8.12
		c-0.38-0.76-0.21-0.17,0,0.64c0.29,0.79,0.64,1.8,0.42,1.93c0.15,1.57,0.61,2.95,1.12,4.24c0.54,1.28,1.02,2.49,1.62,3.63
		c0.02-0.01,0.06,0.01,0.14,0.14l1.62,4.14c-1.46-2.28,1.58,2.81,0.27,0.71c2.05,5.41,5.38,11.24,9.25,16.89
		c0.94,1.43,2.12,2.72,3.17,4.09c1.1,1.33,2.1,2.75,3.28,4.01c1.19,1.25,2.38,2.49,3.56,3.72c0.59,0.61,1.17,1.23,1.75,1.84
		c0.6,0.59,1.25,1.11,1.87,1.66l-0.4-0.42c2.55,2.19,5.63,4.99,7.76,6.4c2.06,1.5,4.52,3.23,5.4,3.67c2.42,1.37,4.55,2.73,3.53,2.12
		c1.3,0.72,2.5,1.52,3.94,2.18c1.5,0.7,2.96,1.38,4.86,2.27c0.6,0.28,1.2,0.57,2.12,1.01c1.04,0.41,2.34,0.84,3.58,1.28
		c2.31,0.83,3.65,1.31,4.88,1.75l0.04,0.01c2.7,0.68,5.04,1.26,7.56,1.89c1.25,0.38,2.58,0.46,3.9,0.68
		c1.31,0.2,2.63,0.39,4.09,0.61c0,0-0.14-0.02-0.3-0.04c0.95,0.11,1.89,0.34,2.85,0.37l2.88,0.14l5.75,0.29l-3.28-0.17l-4.99-0.26
		c-1.66-0.07-3.29-0.47-4.94-0.69l-3.34-0.53c-0.56-0.1-1.11-0.17-1.67-0.28L74.99,185l-6.53-1.75c-4.21-1.59-8.5-3-12.45-5.18
		c-6.49-3.09-12.26-7.43-17.71-11.99c-6.44-5.82-12.01-12.5-16.58-19.76c-4.43-7.37-7.67-15.33-9.88-23.5l-1.14-3.45
		c-0.17-1.25-0.36-2.53-0.58-3.83c-0.19-1.31-0.22-2.68-0.36-4.06c-0.13-1.37-0.27-2.77-0.4-4.18c-0.2-1.4-0.07-2.85-0.12-4.28
		c-0.02-2.87-0.18-5.75,0.25-8.57c0.34-2.81,0.5-5.59,1.38-8.12l-0.53-0.29c0.56-2.93,0.88-2.67,1.13-3.37
		c0.19-0.84,0.3-1.7,0.54-2.52l0.76-2.47l1.49-4.94c0.61-1.61,1.3-3.19,1.94-4.78c0.65-1.59,1.22-3.21,2.09-4.7l2.36-4.55
		c0.36-0.77,0.81-1.5,1.29-2.21l1.39-2.14c0.95-1.4,1.75-2.91,2.81-4.22c1.04-1.33,2.09-2.65,3.13-3.97
		c0.53-0.65,0.99-1.35,1.58-1.95l1.73-1.8c1.15-1.2,2.29-2.4,3.42-3.59c1.25-1.07,2.49-2.14,3.73-3.2c1.24-1.05,2.42-2.16,3.79-3.02
		c2.66-1.81,5.18-3.74,8.01-5.1c1.37-0.74,2.73-1.47,4.08-2.19c1.42-0.57,2.82-1.14,4.22-1.7c2.27-0.6,8.78-3.08,10.67-3.05
		c7.04-3.19,15.31-4.66,23.08-4.58l-0.29,0.13c1.22-0.18,2.43-0.18,3.66-0.16c0.15,0.09,0.17,0.21,0.05,0.28
		c1.03-0.17,2.22-0.22,3.5-0.2c1.27,0.05,2.64,0.04,4,0.39c1.35,0.3,2.74,0.62,4.09,0.92c1.34,0.33,2.67,0.56,3.85,1.02l-0.31,0.04
		c3.53,0.93,7.11,1.61,10.47,2.93l2.56,0.86l1.28,0.42l1.23,0.54c1.65,0.72,3.29,1.44,4.93,2.16c6.38,3.2,12.63,6.81,18.03,11.54
		c11.2,9.04,19.61,21.51,24.61,35.7c0.39,1.71,0.83,3.44,1.32,5.19c0.25,0.88,0.51,1.76,0.77,2.64c0.21,0.9,0.36,1.82,0.56,2.74
		c0.4,1.85,0.8,3.72,1.2,5.61c0.23,1.93,0.47,3.88,0.71,5.84c0.12,0.99,0.24,1.98,0.36,2.98c0.01,1,0.03,2.01,0.04,3.01
		c0.01,2.02,0.08,4.06,0.02,6.11c-0.46,4.05-0.66,8.22-1.79,12.19c-0.12,0.36-0.32,1.19-0.58,2.37c-0.13,0.59-0.27,1.27-0.43,2.02
		c-0.23,0.73-0.48,1.54-0.75,2.4c-0.53,1.73-1.13,3.69-1.77,5.76c-0.84,2.01-1.72,4.12-2.6,6.24
		C168.52,146.03,163.02,153.6,162.05,154.74z"/>
	<path class="st2" d="M121.09,183.29l0.13-0.03C121.21,183.24,121.02,183.3,121.09,183.29z"/>
	<polygon class="st2" points="175.55,139.12 175.44,139.33 175.97,138.63 	"/>
	<path class="st2" d="M144.51,172.72c1.77-1.08,1.78-1.24,1.55-1.05C145.47,172.13,144.93,172.49,144.51,172.72z"/>
	<path class="st2" d="M104.65,186.78c-1.07,0.16-0.66,0.1-0.03,0.01c1.09-0.17,1.85-0.29,1.85-0.29
		C105.89,186.59,105.24,186.69,104.65,186.78z"/>
	<path class="st2" d="M109.02,186.13l-0.33,0.05C109.31,186.08,109.29,186.09,109.02,186.13z"/>
</g>
</svg>
